<?xml version="1.0" standalone="no"?>
 <!DOCTYPE svg PUBLIC "-//W3C//DTD SVG 1.1//EN" 
 "http://www.w3.org/Graphics/SVG/1.1/DTD/svg11.dtd"> 
<svg
  xmlns:svg="http://www.w3.org/2000/svg"
  xmlns="http://www.w3.org/2000/svg"
  xmlns:xlink="http://www.w3.org/1999/xlink"
  version="1.1"
  width="14.010640cm" height="10.810240cm" viewBox="0 0 55160 42560">
<title>SVG Picture created as Pteron36v0-brd.svg date 2021/06/07 21:49:04 </title>
  <desc>Picture generated by PCBNEW </desc>
<g style="fill:#000000; fill-opacity:1;stroke:#000000; stroke-opacity:1;
stroke-linecap:round; stroke-linejoin:round;"
 transform="translate(0 0) scale(1 1)">
</g>
<g style="fill:#000000; fill-opacity:0.0; 
stroke:#000000; stroke-width:-0.000393701; stroke-opacity:1; 
stroke-linecap:round; stroke-linejoin:round;">
</g>
<g style="fill:#000000; fill-opacity:0.0; 
stroke:#000000; stroke-width:59.0551; stroke-opacity:1; 
stroke-linecap:round; stroke-linejoin:round;">
<path d="M13883 18859
L13883 18059
" />
<path d="M8583 18859
L13883 18859
" />
<path d="M8583 18059
L8583 18859
" />
<path d="M13883 18059
L13883 15159
" />
<path d="M8583 18059
L13883 18059
" />
<path d="M8583 15159
L8583 18059
" />
</g>
<g style="fill:#000000; fill-opacity:0.0; 
stroke:#000000; stroke-width:60; stroke-opacity:1; 
stroke-linecap:round; stroke-linejoin:round;">
<path d="M32086 15993
L37586 15993
" />
<path d="M37586 15993
L37586 16379
" />
<path d="M37586 16379
L37906 16379
" />
<path d="M37906 16379
L37906 17757
" />
<path d="M37906 17757
L37586 17757
" />
<path d="M37586 17757
L37586 19729
" />
<path d="M37586 19729
L37906 19729
" />
<path d="M37906 19729
L37906 21107
" />
<path d="M37906 21107
L37586 21107
" />
<path d="M37586 21107
L37586 21493
" />
<path d="M37586 21493
L32086 21493
" />
<path d="M32086 21493
L32086 21107
" />
<path d="M32086 21107
L31766 21107
" />
<path d="M31766 21107
L31766 19729
" />
<path d="M31766 19729
L32086 19729
" />
<path d="M32086 19729
L32086 17757
" />
<path d="M32086 17757
L31766 17757
" />
<path d="M31766 17757
L31766 16379
" />
<path d="M31766 16379
L32086 16379
" />
<path d="M32086 16379
L32086 15993
" />
<path d="M47076 6254
L52576 6254
" />
<path d="M52576 6254
L52576 6640
" />
<path d="M52576 6640
L52896 6640
" />
<path d="M52896 6640
L52896 8018
" />
<path d="M52896 8018
L52576 8018
" />
<path d="M52576 8018
L52576 9990
" />
<path d="M52576 9990
L52896 9990
" />
<path d="M52896 9990
L52896 11368
" />
<path d="M52896 11368
L52576 11368
" />
<path d="M52576 11368
L52576 11754
" />
<path d="M52576 11754
L47076 11754
" />
<path d="M47076 11754
L47076 11368
" />
<path d="M47076 11368
L46756 11368
" />
<path d="M46756 11368
L46756 9990
" />
<path d="M46756 9990
L47076 9990
" />
<path d="M47076 9990
L47076 8018
" />
<path d="M47076 8018
L46756 8018
" />
<path d="M46756 8018
L46756 6640
" />
<path d="M46756 6640
L47076 6640
" />
<path d="M47076 6640
L47076 6254
" />
<path d="M47093 13748
L52593 13748
" />
<path d="M52593 13748
L52593 14134
" />
<path d="M52593 14134
L52913 14134
" />
<path d="M52913 14134
L52913 15512
" />
<path d="M52913 15512
L52593 15512
" />
<path d="M52593 15512
L52593 17484
" />
<path d="M52593 17484
L52913 17484
" />
<path d="M52913 17484
L52913 18862
" />
<path d="M52913 18862
L52593 18862
" />
<path d="M52593 18862
L52593 19248
" />
<path d="M52593 19248
L47093 19248
" />
<path d="M47093 19248
L47093 18862
" />
<path d="M47093 18862
L46773 18862
" />
<path d="M46773 18862
L46773 17484
" />
<path d="M46773 17484
L47093 17484
" />
<path d="M47093 17484
L47093 15512
" />
<path d="M47093 15512
L46773 15512
" />
<path d="M46773 15512
L46773 14134
" />
<path d="M46773 14134
L47093 14134
" />
<path d="M47093 14134
L47093 13748
" />
<path d="M47110 21242
L52610 21242
" />
<path d="M52610 21242
L52610 21628
" />
<path d="M52610 21628
L52930 21628
" />
<path d="M52930 21628
L52930 23006
" />
<path d="M52930 23006
L52610 23006
" />
<path d="M52610 23006
L52610 24978
" />
<path d="M52610 24978
L52930 24978
" />
<path d="M52930 24978
L52930 26356
" />
<path d="M52930 26356
L52610 26356
" />
<path d="M52610 26356
L52610 26742
" />
<path d="M52610 26742
L47110 26742
" />
<path d="M47110 26742
L47110 26356
" />
<path d="M47110 26356
L46790 26356
" />
<path d="M46790 26356
L46790 24978
" />
<path d="M46790 24978
L47110 24978
" />
<path d="M47110 24978
L47110 23006
" />
<path d="M47110 23006
L46790 23006
" />
<path d="M46790 23006
L46790 21628
" />
<path d="M46790 21628
L47110 21628
" />
<path d="M47110 21628
L47110 21242
" />
<path d="M17536 27761
L22906 26571
" />
<path d="M22906 26571
L22989 26948
" />
<path d="M22989 26948
L23302 26878
" />
<path d="M23302 26878
L23600 28224
" />
<path d="M23600 28224
L23288 28293
" />
<path d="M23288 28293
L23715 30218
" />
<path d="M23715 30218
L24027 30149
" />
<path d="M24027 30149
L24325 31494
" />
<path d="M24325 31494
L24013 31564
" />
<path d="M24013 31564
L24096 31941
" />
<path d="M24096 31941
L18727 33131
" />
<path d="M18727 33131
L18643 32754
" />
<path d="M18643 32754
L18331 32823
" />
<path d="M18331 32823
L18033 31478
" />
<path d="M18033 31478
L18345 31409
" />
<path d="M18345 31409
L17918 29483
" />
<path d="M17918 29483
L17606 29553
" />
<path d="M17606 29553
L17307 28207
" />
<path d="M17307 28207
L17620 28138
" />
<path d="M17620 28138
L17536 27761
" />
<path d="M39601 2493
L45101 2493
" />
<path d="M45101 2493
L45101 2879
" />
<path d="M45101 2879
L45421 2879
" />
<path d="M45421 2879
L45421 4257
" />
<path d="M45421 4257
L45101 4257
" />
<path d="M45101 4257
L45101 6229
" />
<path d="M45101 6229
L45421 6229
" />
<path d="M45421 6229
L45421 7607
" />
<path d="M45421 7607
L45101 7607
" />
<path d="M45101 7607
L45101 7993
" />
<path d="M45101 7993
L39601 7993
" />
<path d="M39601 7993
L39601 7607
" />
<path d="M39601 7607
L39281 7607
" />
<path d="M39281 7607
L39281 6229
" />
<path d="M39281 6229
L39601 6229
" />
<path d="M39601 6229
L39601 4257
" />
<path d="M39601 4257
L39281 4257
" />
<path d="M39281 4257
L39281 2879
" />
<path d="M39281 2879
L39601 2879
" />
<path d="M39601 2879
L39601 2493
" />
<path d="M39582 9977
L45082 9977
" />
<path d="M45082 9977
L45082 10363
" />
<path d="M45082 10363
L45402 10363
" />
<path d="M45402 10363
L45402 11741
" />
<path d="M45402 11741
L45082 11741
" />
<path d="M45082 11741
L45082 13713
" />
<path d="M45082 13713
L45402 13713
" />
<path d="M45402 13713
L45402 15091
" />
<path d="M45402 15091
L45082 15091
" />
<path d="M45082 15091
L45082 15477
" />
<path d="M45082 15477
L39582 15477
" />
<path d="M39582 15477
L39582 15091
" />
<path d="M39582 15091
L39262 15091
" />
<path d="M39262 15091
L39262 13713
" />
<path d="M39262 13713
L39582 13713
" />
<path d="M39582 13713
L39582 11741
" />
<path d="M39582 11741
L39262 11741
" />
<path d="M39262 11741
L39262 10363
" />
<path d="M39262 10363
L39582 10363
" />
<path d="M39582 10363
L39582 9977
" />
<path d="M39590 17507
L45090 17507
" />
<path d="M45090 17507
L45090 17893
" />
<path d="M45090 17893
L45410 17893
" />
<path d="M45410 17893
L45410 19271
" />
<path d="M45410 19271
L45090 19271
" />
<path d="M45090 19271
L45090 21243
" />
<path d="M45090 21243
L45410 21243
" />
<path d="M45410 21243
L45410 22621
" />
<path d="M45410 22621
L45090 22621
" />
<path d="M45090 22621
L45090 23007
" />
<path d="M45090 23007
L39590 23007
" />
<path d="M39590 23007
L39590 22621
" />
<path d="M39590 22621
L39270 22621
" />
<path d="M39270 22621
L39270 21243
" />
<path d="M39270 21243
L39590 21243
" />
<path d="M39590 21243
L39590 19271
" />
<path d="M39590 19271
L39270 19271
" />
<path d="M39270 19271
L39270 17893
" />
<path d="M39270 17893
L39590 17893
" />
<path d="M39590 17893
L39590 17507
" />
<path d="M9543 31141
L14528 28817
" />
<path d="M14528 28817
L14691 29167
" />
<path d="M14691 29167
L14981 29031
" />
<path d="M14981 29031
L15564 30280
" />
<path d="M15564 30280
L15274 30416
" />
<path d="M15274 30416
L16107 32203
" />
<path d="M16107 32203
L16397 32068
" />
<path d="M16397 32068
L16979 33316
" />
<path d="M16979 33316
L16689 33452
" />
<path d="M16689 33452
L16852 33802
" />
<path d="M16852 33802
L11868 36126
" />
<path d="M11868 36126
L11705 35776
" />
<path d="M11705 35776
L11415 35911
" />
<path d="M11415 35911
L10832 34662
" />
<path d="M10832 34662
L11122 34527
" />
<path d="M11122 34527
L10289 32740
" />
<path d="M10289 32740
L9999 32875
" />
<path d="M9999 32875
L9416 31626
" />
<path d="M9416 31626
L9707 31491
" />
<path d="M9707 31491
L9543 31141
" />
<path d="M32097 979
L37597 979
" />
<path d="M37597 979
L37597 1365
" />
<path d="M37597 1365
L37917 1365
" />
<path d="M37917 1365
L37917 2743
" />
<path d="M37917 2743
L37597 2743
" />
<path d="M37597 2743
L37597 4715
" />
<path d="M37597 4715
L37917 4715
" />
<path d="M37917 4715
L37917 6093
" />
<path d="M37917 6093
L37597 6093
" />
<path d="M37597 6093
L37597 6479
" />
<path d="M37597 6479
L32097 6479
" />
<path d="M32097 6479
L32097 6093
" />
<path d="M32097 6093
L31777 6093
" />
<path d="M31777 6093
L31777 4715
" />
<path d="M31777 4715
L32097 4715
" />
<path d="M32097 4715
L32097 2743
" />
<path d="M32097 2743
L31777 2743
" />
<path d="M31777 2743
L31777 1365
" />
<path d="M31777 1365
L32097 1365
" />
<path d="M32097 1365
L32097 979
" />
<path d="M32104 8509
L37604 8509
" />
<path d="M37604 8509
L37604 8895
" />
<path d="M37604 8895
L37924 8895
" />
<path d="M37924 8895
L37924 10273
" />
<path d="M37924 10273
L37604 10273
" />
<path d="M37604 10273
L37604 12245
" />
<path d="M37604 12245
L37924 12245
" />
<path d="M37924 12245
L37924 13623
" />
<path d="M37924 13623
L37604 13623
" />
<path d="M37604 13623
L37604 14009
" />
<path d="M37604 14009
L32104 14009
" />
<path d="M32104 14009
L32104 13623
" />
<path d="M32104 13623
L31784 13623
" />
<path d="M31784 13623
L31784 12245
" />
<path d="M31784 12245
L32104 12245
" />
<path d="M32104 12245
L32104 10273
" />
<path d="M32104 10273
L31784 10273
" />
<path d="M31784 10273
L31784 8895
" />
<path d="M31784 8895
L32104 8895
" />
<path d="M32104 8895
L32104 8509
" />
<path d="M2459 36119
L6822 32770
" />
<path d="M6822 32770
L7057 33077
" />
<path d="M7057 33077
L7311 32882
" />
<path d="M7311 32882
L8150 33975
" />
<path d="M8150 33975
L7896 34170
" />
<path d="M7896 34170
L9097 35734
" />
<path d="M9097 35734
L9351 35540
" />
<path d="M9351 35540
L10189 36633
" />
<path d="M10189 36633
L9936 36828
" />
<path d="M9936 36828
L10171 37134
" />
<path d="M10171 37134
L5807 40482
" />
<path d="M5807 40482
L5572 40176
" />
<path d="M5572 40176
L5318 40371
" />
<path d="M5318 40371
L4479 39277
" />
<path d="M4479 39277
L4733 39083
" />
<path d="M4733 39083
L3533 37518
" />
<path d="M3533 37518
L3279 37713
" />
<path d="M3279 37713
L2440 36620
" />
<path d="M2440 36620
L2694 36425
" />
<path d="M2694 36425
L2459 36119
" />
<path d="M24609 3252
L30109 3252
" />
<path d="M30109 3252
L30109 3638
" />
<path d="M30109 3638
L30429 3638
" />
<path d="M30429 3638
L30429 5016
" />
<path d="M30429 5016
L30109 5016
" />
<path d="M30109 5016
L30109 6988
" />
<path d="M30109 6988
L30429 6988
" />
<path d="M30429 6988
L30429 8366
" />
<path d="M30429 8366
L30109 8366
" />
<path d="M30109 8366
L30109 8752
" />
<path d="M30109 8752
L24609 8752
" />
<path d="M24609 8752
L24609 8366
" />
<path d="M24609 8366
L24289 8366
" />
<path d="M24289 8366
L24289 6988
" />
<path d="M24289 6988
L24609 6988
" />
<path d="M24609 6988
L24609 5016
" />
<path d="M24609 5016
L24289 5016
" />
<path d="M24289 5016
L24289 3638
" />
<path d="M24289 3638
L24609 3638
" />
<path d="M24609 3638
L24609 3252
" />
<path d="M24591 10737
L30091 10737
" />
<path d="M30091 10737
L30091 11123
" />
<path d="M30091 11123
L30411 11123
" />
<path d="M30411 11123
L30411 12501
" />
<path d="M30411 12501
L30091 12501
" />
<path d="M30091 12501
L30091 14473
" />
<path d="M30091 14473
L30411 14473
" />
<path d="M30411 14473
L30411 15851
" />
<path d="M30411 15851
L30091 15851
" />
<path d="M30091 15851
L30091 16237
" />
<path d="M30091 16237
L24591 16237
" />
<path d="M24591 16237
L24591 15851
" />
<path d="M24591 15851
L24271 15851
" />
<path d="M24271 15851
L24271 14473
" />
<path d="M24271 14473
L24591 14473
" />
<path d="M24591 14473
L24591 12501
" />
<path d="M24591 12501
L24271 12501
" />
<path d="M24271 12501
L24271 11123
" />
<path d="M24271 11123
L24591 11123
" />
<path d="M24591 11123
L24591 10737
" />
<path d="M24608 18231
L30108 18231
" />
<path d="M30108 18231
L30108 18617
" />
<path d="M30108 18617
L30428 18617
" />
<path d="M30428 18617
L30428 19995
" />
<path d="M30428 19995
L30108 19995
" />
<path d="M30108 19995
L30108 21967
" />
<path d="M30108 21967
L30428 21967
" />
<path d="M30428 21967
L30428 23345
" />
<path d="M30428 23345
L30108 23345
" />
<path d="M30108 23345
L30108 23731
" />
<path d="M30108 23731
L24608 23731
" />
<path d="M24608 23731
L24608 23345
" />
<path d="M24608 23345
L24288 23345
" />
<path d="M24288 23345
L24288 21967
" />
<path d="M24288 21967
L24608 21967
" />
<path d="M24608 21967
L24608 19995
" />
<path d="M24608 19995
L24288 19995
" />
<path d="M24288 19995
L24288 18617
" />
<path d="M24288 18617
L24608 18617
" />
<path d="M24608 18617
L24608 18231
" />
<path d="M17076 3985
L22576 3985
" />
<path d="M22576 3985
L22576 4371
" />
<path d="M22576 4371
L22896 4371
" />
<path d="M22896 4371
L22896 5749
" />
<path d="M22896 5749
L22576 5749
" />
<path d="M22576 5749
L22576 7721
" />
<path d="M22576 7721
L22896 7721
" />
<path d="M22896 7721
L22896 9099
" />
<path d="M22896 9099
L22576 9099
" />
<path d="M22576 9099
L22576 9485
" />
<path d="M22576 9485
L17076 9485
" />
<path d="M17076 9485
L17076 9099
" />
<path d="M17076 9099
L16756 9099
" />
<path d="M16756 9099
L16756 7721
" />
<path d="M16756 7721
L17076 7721
" />
<path d="M17076 7721
L17076 5749
" />
<path d="M17076 5749
L16756 5749
" />
<path d="M16756 5749
L16756 4371
" />
<path d="M16756 4371
L17076 4371
" />
<path d="M17076 4371
L17076 3985
" />
<path d="M17094 11479
L22594 11479
" />
<path d="M22594 11479
L22594 11865
" />
<path d="M22594 11865
L22914 11865
" />
<path d="M22914 11865
L22914 13243
" />
<path d="M22914 13243
L22594 13243
" />
<path d="M22594 13243
L22594 15215
" />
<path d="M22594 15215
L22914 15215
" />
<path d="M22914 15215
L22914 16593
" />
<path d="M22914 16593
L22594 16593
" />
<path d="M22594 16593
L22594 16979
" />
<path d="M22594 16979
L17094 16979
" />
<path d="M17094 16979
L17094 16593
" />
<path d="M17094 16593
L16774 16593
" />
<path d="M16774 16593
L16774 15215
" />
<path d="M16774 15215
L17094 15215
" />
<path d="M17094 15215
L17094 13243
" />
<path d="M17094 13243
L16774 13243
" />
<path d="M16774 13243
L16774 11865
" />
<path d="M16774 11865
L17094 11865
" />
<path d="M17094 11865
L17094 11479
" />
<path d="M17101 19009
L22601 19009
" />
<path d="M22601 19009
L22601 19395
" />
<path d="M22601 19395
L22921 19395
" />
<path d="M22921 19395
L22921 20773
" />
<path d="M22921 20773
L22601 20773
" />
<path d="M22601 20773
L22601 22745
" />
<path d="M22601 22745
L22921 22745
" />
<path d="M22921 22745
L22921 24123
" />
<path d="M22921 24123
L22601 24123
" />
<path d="M22601 24123
L22601 24509
" />
<path d="M22601 24509
L17101 24509
" />
<path d="M17101 24509
L17101 24123
" />
<path d="M17101 24123
L16781 24123
" />
<path d="M16781 24123
L16781 22745
" />
<path d="M16781 22745
L17101 22745
" />
<path d="M17101 22745
L17101 20773
" />
<path d="M17101 20773
L16781 20773
" />
<path d="M16781 20773
L16781 19395
" />
<path d="M16781 19395
L17101 19395
" />
<path d="M17101 19395
L17101 19009
" />
</g>
<g style="fill:#000000; fill-opacity:0.0; 
stroke:#000000; stroke-width:59.0551; stroke-opacity:1; 
stroke-linecap:round; stroke-linejoin:round;">
<path d="M4483 3224
L6884 3224
" />
<path d="M6884 3224
L6884 7987
" />
<path d="M4581 2436
L6786 2436
" />
<path d="M4483 7987
L6884 7987
" />
<path d="M6786 3224
L6786 2436
" />
<path d="M4483 3224
L4483 7987
" />
<path d="M4581 3224
L4581 2436
" />
<path d="M14763 15164
L7763 15164
" />
<path d="M14763 3164
L14763 15164
" />
<path d="M7763 3164
L7763 15164
" />
</g>
<g style="fill:#000000; fill-opacity:0.0; 
stroke:#000000; stroke-width:19.685; stroke-opacity:1; 
stroke-linecap:round; stroke-linejoin:round;">
<path d="M12983 27539
L6093 27539
" />
<path d="M12983 27539
L12983 21948
" />
<path d="M6093 21948
L6093 27539
" />
<path d="M6093 21948
L12983 21948
" />
<g >
</g>
<g >
</g>
<g >
</g>
<g >
</g>
<g >
</g>
<g >
</g>
<g >
</g>
<g >
</g>
<g >
</g>
<g >
</g>
<g >
</g>
<g >
</g>
<g >
</g>
<g >
</g>
<g >
</g>
<g >
</g>
<g >
</g>
<g >
</g>
<g >
</g>
<g >
</g>
<g >
</g>
<g >
</g>
<g >
</g>
<g >
</g>
<g >
</g>
<g >
</g>
<g >
</g>
<g >
</g>
<g >
</g>
<g >
</g>
<g >
</g>
<g >
</g>
<g >
</g>
<g >
</g>
<g >
</g>
<g >
</g>
<g >
</g>
<g >
</g>
<g >
</g>
<g >
</g>
<g >
</g>
<g >
</g>
<g >
</g>
<g >
</g>
<g >
</g>
<g >
</g>
<g >
</g>
<g >
</g>
<g >
</g>
<g >
</g>
<g >
</g>
<g >
</g>
<g >
</g>
<g >
</g>
<g >
</g>
<g >
</g>
<g >
</g>
</g>
<g style="fill:#000000; fill-opacity:0.0; 
stroke:#000000; stroke-width:19.685; stroke-opacity:1; 
stroke-linecap:round; stroke-linejoin:round;">
<path d="M9 37115
L16 37122
" />
<path d="M3879.98 33709.8 A40706.8 40706.8 0.0 0 0 9.84298 37115.8" />
<path d="M3879 31274
L3879 33709
" />
<path d="M4179 3059
L7723 3059
" />
<path d="M53283 27709
L54858 27709
" />
<path d="M53283 5309
L54858 5309
" />
<path d="M16 37122
L5057 42556
" />
<path d="M3879 3359
L3879 31274
" />
<path d="M7723 3059
L12683 3059
" />
<path d="M55158 5609
L55158 27409
" />
<path d="M5798.99 41825.6 A33302.5 33302.5 0.0 0 0 5057.02 42556.4" />
<path d="M38583 309
L38583 1259
" />
<path d="M25077 32559
L25077 32309
" />
<path d="M24777.2 32859.8 A33292 33292 0.0 0 0 5798.99 41825.6" />
<path d="M25377 27709
L29333 27709
" />
<path d="M43533 27709
L53283 27709
" />
<path d="M52983 5309
L53283 5309
" />
<path d="M55158.7 5609.84 A300 300 0.0 0 0 54858.7 5309.84" />
<path d="M54858.7 27709.8 A300 300 0.0 0 0 55158.7 27409.8" />
<path d="M29333 27709
L43533 27709
" />
<path d="M25077 28009
L25077 32309
" />
<path d="M25377.2 27709.8 A300 300 0.0 0 0 25077.2 28009.8" />
<path d="M24777.2 32859.8 A300 300 0.0 0 0 25077.2 32559.8" />
<path d="M4179.98 3059.84 A300 300 0.0 0 0 3879.98 3359.84" />
<path d="M23333 3059
L12683 3059
" />
<path d="M31133 1959
L31133 309
" />
<path d="M23933 2259
L30833 2259
" />
<path d="M23633 2559
L23633 2759
" />
<path d="M23333.9 3059.84 A300 300 0.0 0 0 23633.9 2759.84" />
<path d="M23933.9 2259.84 A300 300 0.0 0 0 23633.9 2559.84" />
<path d="M30833.9 2259.84 A300 300 0.0 0 0 31133.9 1959.84" />
<path d="M31433.9 9.84291 A300 300 0.0 0 0 31133.9 309.843" />
<path d="M38283 9
L31433 9
" />
<path d="M38583.9 309.843 A300 300 0.0 0 0 38283.9 9.84291" />
<path d="M38583.9 1259.84 A300 300 0.0 0 0 38883.9 1559.84" />
<path d="M45733 1559
L38883 1559
" />
<path d="M46033.9 1859.84 A300 300 0.0 0 0 45733.9 1559.84" />
<path d="M46033 5009
L46033 1859
" />
<path d="M46333 5309
L46583 5309
" />
<path d="M46033.9 5009.84 A300 300 0.0 0 0 46333.9 5309.84" />
<path d="M52983 5309
L46583 5309
" />
<g >
</g>
<g >
</g>
<g >
</g>
<g >
</g>
<g >
</g>
<g >
</g>
<g >
</g>
<g >
</g>
<g >
</g>
<g >
</g>
<g >
</g>
<g >
</g>
<g >
</g>
<g >
</g>
<g >
</g>
<g >
</g>
<g >
</g>
<g >
</g>
<g >
</g>
<g >
</g>
<g >
</g>
<g >
</g>
<g >
</g>
<g >
</g>
<g >
</g>
<g >
</g>
<g >
</g>
<g >
</g>
<g >
</g>
<g >
</g>
<g >
</g>
<g >
</g>
<g >
</g>
<g >
</g>
<g >
</g>
<g >
</g>
<g >
</g>
<g >
</g>
<g >
</g>
<g >
</g>
<g >
</g>
<g >
</g>
<g >
</g>
<g >
</g>
<g >
</g>
<g >
</g>
<g >
</g>
<g >
</g>
<g >
</g>
<g >
</g>
<g >
</g>
<g >
</g>
<g >
</g>
<g >
</g>
<g >
</g>
<g >
</g>
<g >
</g>
</g> 
</svg>
