  0
SECTION
  2
HEADER
  9
$ACADVER
  1
AC1014
  9
$HANDSEED
  5
FFFF
  9
$MEASUREMENT
 70
     1
  0
ENDSEC
  0
SECTION
  2
TABLES
  0
TABLE
  2
VPORT
  5
8
330
0
100
AcDbSymbolTable
 70
     4
  0
VPORT
  5
2E
330
8
100
AcDbSymbolTableRecord
100
AcDbViewportTableRecord
  2
*ACTIVE
 70
     0
 10
0.0
 20
0.0
 11
1.0
 21
1.0
 12
210.0
 22
148.5
 13
0.0
 23
0.0
 14
10.0
 24
10.0
 15
10.0
 25
10.0
 16
0.0
 26
0.0
 36
1.0
 17
0.0
 27
0.0
 37
0.0
 40
341.0
 41
1.24
 42
50.0
 43
0.0
 44
0.0
 50
0.0
 51
0.0
 71
     0
 72
   100
 73
     1
 74
     3
 75
     0
 76
     0
 77
     0
 78
     0
  0
ENDTAB
  0
TABLE
  2
LTYPE
  5
5
330
0
100
AcDbSymbolTable
 70
     1
  0
LTYPE
  5
14
330
5
100
AcDbSymbolTableRecord
100
AcDbLinetypeTableRecord
  2
BYBLOCK
 70
     0
  3

 72
    65
 73
     0
 40
0.0
  0
LTYPE
  5
15
330
5
100
AcDbSymbolTableRecord
100
AcDbLinetypeTableRecord
  2
BYLAYER
 70
     0
  3

 72
    65
 73
     0
 40
0.0
  0
LTYPE
  5
16
330
5
100
AcDbSymbolTableRecord
100
AcDbLinetypeTableRecord
  2
CONTINUOUS
 70
     0
  3
Solid line
 72
    65
 73
     0
 40
0.0
  0
ENDTAB
  0
TABLE
  2
LAYER
  5
2
100
AcDbSymbolTable
 70
1
  0
LAYER
  5
50
100
AcDbSymbolTableRecord
100
AcDbLayerTableRecord
  2
0
 70
0
  6
CONTINUOUS
  0
ENDTAB
  0
TABLE
  2
STYLE
  5
3
330
0
100
AcDbSymbolTable
 70
     1
  0
STYLE
  5
11
330
3
100
AcDbSymbolTableRecord
100
AcDbTextStyleTableRecord
  2
STANDARD
 70
     0
 40
0.0
 41
1.0
 50
0.0
 71
     0
 42
2.5
  3
txt
  4

  0
ENDTAB
  0
TABLE
  2
VIEW
  5
6
330
0
100
AcDbSymbolTable
 70
     0
  0
ENDTAB
  0
TABLE
  2
UCS
  5
7
330
0
100
AcDbSymbolTable
 70
     0
  0
ENDTAB
  0
TABLE
  2
APPID
  5
9
330
0
100
AcDbSymbolTable
 70
     2
  0
APPID
  5
12
330
9
100
AcDbSymbolTableRecord
100
AcDbRegAppTableRecord
  2
ACAD
 70
     0
  0
ENDTAB
  0
TABLE
  2
DIMSTYLE
  5
A
330
0
100
AcDbSymbolTable
 70
     1
  0
DIMSTYLE
105
27
330
A
100
AcDbSymbolTableRecord
100
AcDbDimStyleTableRecord
  2
ISO-25
 70
     0
  3

  4

  5

  6

  7

 40
1.0
 41
2.5
 42
0.625
 43
3.75
 44
1.25
 45
0.0
 46
0.0
 47
0.0
 48
0.0
140
2.5
141
2.5
142
0.0
143
0.03937007874016
144
1.0
145
0.0
146
1.0
147
0.625
 71
     0
 72
     0
 73
     0
 74
     0
 75
     0
 76
     0
 77
     1
 78
     8
170
     0
171
     3
172
     1
173
     0
174
     0
175
     0
176
     0
177
     0
178
     0
270
     2
271
     2
272
     2
273
     2
274
     3
340
11
275
     0
280
     0
281
     0
282
     0
283
     0
284
     8
285
     0
286
     0
287
     3
288
     0
  0
ENDTAB
  0
TABLE
  2
BLOCK_RECORD
  5
1
330
0
100
AcDbSymbolTable
 70
     1
  0
BLOCK_RECORD
  5
1F
330
1
100
AcDbSymbolTableRecord
100
AcDbBlockTableRecord
  2
*MODEL_SPACE
  0
BLOCK_RECORD
  5
1B
330
1
100
AcDbSymbolTableRecord
100
AcDbBlockTableRecord
  2
*PAPER_SPACE
  0
ENDTAB
  0
ENDSEC
  0
SECTION
  2
BLOCKS
  0
BLOCK
  5
20
330
1F
100
AcDbEntity
  8
0
100
AcDbBlockBegin
  2
*MODEL_SPACE
 70
     0
 10
0.0
 20
0.0
 30
0.0
  3
*MODEL_SPACE
  1

  0
ENDBLK
  5
21
330
1F
100
AcDbEntity
  8
0
100
AcDbBlockEnd
  0
BLOCK
  5
1C
330
1B
100
AcDbEntity
 67
     1
  8
0
100
AcDbBlockBegin
  2
*PAPER_SPACE
  1

  0
ENDBLK
  5
1D
330
1B
100
AcDbEntity
 67
     1
  8
0
100
AcDbBlockEnd
  0
ENDSEC
  0
SECTION
  2
ENTITIES
  0
SPLINE
  5
100
100
AcDbEntity
  8
0
 62
7
100
AcDbSpline
 70
8
 71
3
 72
8
 73
4
 74
0
 40
0
 40
0
 40
0
 40
0
 40
1
 40
1
 40
1
 40
1
 10
18.567557
 20
-77.295311
 30
0.0
 10
18.567557
 20
-77.878788
 30
0.0
 10
18.335772
 20
-78.438367
 30
0.0
 10
17.923192
 20
-78.850947
 30
0.0
  0
SPLINE
  5
101
100
AcDbEntity
  8
0
 62
7
100
AcDbSpline
 70
8
 71
3
 72
8
 73
4
 74
0
 40
0
 40
0
 40
0
 40
0
 40
1
 40
1
 40
1
 40
1
 10
17.923192
 20
-78.850947
 30
0.0
 10
17.510612
 20
-79.263527
 30
0.0
 10
16.951033
 20
-79.495312
 30
0.0
 10
16.367557
 20
-79.495312
 30
0.0
  0
SPLINE
  5
102
100
AcDbEntity
  8
0
 62
7
100
AcDbSpline
 70
8
 71
3
 72
8
 73
4
 74
0
 40
0
 40
0
 40
0
 40
0
 40
1
 40
1
 40
1
 40
1
 10
16.367557
 20
-79.495312
 30
0.0
 10
15.152530
 20
-79.495312
 30
0.0
 10
14.167556
 20
-78.510338
 30
0.0
 10
14.167556
 20
-77.295312
 30
0.0
  0
SPLINE
  5
103
100
AcDbEntity
  8
0
 62
7
100
AcDbSpline
 70
8
 71
3
 72
8
 73
4
 74
0
 40
0
 40
0
 40
0
 40
0
 40
1
 40
1
 40
1
 40
1
 10
14.167556
 20
-77.295312
 30
0.0
 10
14.167556
 20
-76.080285
 30
0.0
 10
15.152530
 20
-75.095311
 30
0.0
 10
16.367557
 20
-75.095311
 30
0.0
  0
SPLINE
  5
104
100
AcDbEntity
  8
0
 62
7
100
AcDbSpline
 70
8
 71
3
 72
8
 73
4
 74
0
 40
0
 40
0
 40
0
 40
0
 40
1
 40
1
 40
1
 40
1
 10
16.367557
 20
-75.095311
 30
0.0
 10
16.951033
 20
-75.095311
 30
0.0
 10
17.510612
 20
-75.327096
 30
0.0
 10
17.923192
 20
-75.739676
 30
0.0
  0
SPLINE
  5
105
100
AcDbEntity
  8
0
 62
7
100
AcDbSpline
 70
8
 71
3
 72
8
 73
4
 74
0
 40
0
 40
0
 40
0
 40
0
 40
1
 40
1
 40
1
 40
1
 10
17.923192
 20
-75.739676
 30
0.0
 10
18.335772
 20
-76.152256
 30
0.0
 10
18.567557
 20
-76.711835
 30
0.0
 10
18.567557
 20
-77.295311
 30
0.0
  0
LINE
  5
106
100
AcDbEntity
  8
0
 62
7
100
AcDbLine
 10
18.567557
 20
-77.295311
 30
0.0
 11
18.567557
 21
-77.295311
 31
0.0
  0
SPLINE
  5
107
100
AcDbEntity
  8
0
 62
7
100
AcDbSpline
 70
8
 71
3
 72
8
 73
4
 74
0
 40
0
 40
0
 40
0
 40
0
 40
1
 40
1
 40
1
 40
1
 10
71.647157
 20
-23.625210
 30
0.0
 10
71.647157
 20
-24.208687
 30
0.0
 10
71.415372
 20
-24.768265
 30
0.0
 10
71.002792
 20
-25.180846
 30
0.0
  0
SPLINE
  5
108
100
AcDbEntity
  8
0
 62
7
100
AcDbSpline
 70
8
 71
3
 72
8
 73
4
 74
0
 40
0
 40
0
 40
0
 40
0
 40
1
 40
1
 40
1
 40
1
 10
71.002792
 20
-25.180846
 30
0.0
 10
70.590211
 20
-25.593426
 30
0.0
 10
70.030633
 20
-25.825211
 30
0.0
 10
69.447156
 20
-25.825211
 30
0.0
  0
SPLINE
  5
109
100
AcDbEntity
  8
0
 62
7
100
AcDbSpline
 70
8
 71
3
 72
8
 73
4
 74
0
 40
0
 40
0
 40
0
 40
0
 40
1
 40
1
 40
1
 40
1
 10
69.447156
 20
-25.825211
 30
0.0
 10
68.863679
 20
-25.825211
 30
0.0
 10
68.304101
 20
-25.593426
 30
0.0
 10
67.891520
 20
-25.180846
 30
0.0
  0
SPLINE
  5
10a
100
AcDbEntity
  8
0
 62
7
100
AcDbSpline
 70
8
 71
3
 72
8
 73
4
 74
0
 40
0
 40
0
 40
0
 40
0
 40
1
 40
1
 40
1
 40
1
 10
67.891520
 20
-25.180846
 30
0.0
 10
67.478940
 20
-24.768265
 30
0.0
 10
67.247155
 20
-24.208687
 30
0.0
 10
67.247155
 20
-23.625210
 30
0.0
  0
SPLINE
  5
10b
100
AcDbEntity
  8
0
 62
7
100
AcDbSpline
 70
8
 71
3
 72
8
 73
4
 74
0
 40
0
 40
0
 40
0
 40
0
 40
1
 40
1
 40
1
 40
1
 10
67.247155
 20
-23.625210
 30
0.0
 10
67.247155
 20
-22.410183
 30
0.0
 10
68.232129
 20
-21.425209
 30
0.0
 10
69.447156
 20
-21.425209
 30
0.0
  0
SPLINE
  5
10c
100
AcDbEntity
  8
0
 62
7
100
AcDbSpline
 70
8
 71
3
 72
8
 73
4
 74
0
 40
0
 40
0
 40
0
 40
0
 40
1
 40
1
 40
1
 40
1
 10
69.447156
 20
-21.425209
 30
0.0
 10
70.662183
 20
-21.425209
 30
0.0
 10
71.647157
 20
-22.410183
 30
0.0
 10
71.647157
 20
-23.625210
 30
0.0
  0
LINE
  5
10d
100
AcDbEntity
  8
0
 62
7
100
AcDbLine
 10
71.647157
 20
-23.625210
 30
0.0
 11
71.647157
 21
-23.625210
 31
0.0
  0
SPLINE
  5
10e
100
AcDbEntity
  8
0
 62
7
100
AcDbSpline
 70
8
 71
3
 72
8
 73
4
 74
0
 40
0
 40
0
 40
0
 40
0
 40
1
 40
1
 40
1
 40
1
 10
33.477307
 20
-16.945010
 30
0.0
 10
33.477307
 20
-17.528487
 30
0.0
 10
33.245522
 20
-18.088065
 30
0.0
 10
32.832941
 20
-18.500646
 30
0.0
  0
SPLINE
  5
10f
100
AcDbEntity
  8
0
 62
7
100
AcDbSpline
 70
8
 71
3
 72
8
 73
4
 74
0
 40
0
 40
0
 40
0
 40
0
 40
1
 40
1
 40
1
 40
1
 10
32.832941
 20
-18.500646
 30
0.0
 10
32.420361
 20
-18.913226
 30
0.0
 10
31.860782
 20
-19.145011
 30
0.0
 10
31.277306
 20
-19.145011
 30
0.0
  0
SPLINE
  5
110
100
AcDbEntity
  8
0
 62
7
100
AcDbSpline
 70
8
 71
3
 72
8
 73
4
 74
0
 40
0
 40
0
 40
0
 40
0
 40
1
 40
1
 40
1
 40
1
 10
31.277306
 20
-19.145011
 30
0.0
 10
30.693830
 20
-19.145011
 30
0.0
 10
30.134251
 20
-18.913226
 30
0.0
 10
29.721671
 20
-18.500646
 30
0.0
  0
SPLINE
  5
111
100
AcDbEntity
  8
0
 62
7
100
AcDbSpline
 70
8
 71
3
 72
8
 73
4
 74
0
 40
0
 40
0
 40
0
 40
0
 40
1
 40
1
 40
1
 40
1
 10
29.721671
 20
-18.500646
 30
0.0
 10
29.309090
 20
-18.088065
 30
0.0
 10
29.077305
 20
-17.528487
 30
0.0
 10
29.077305
 20
-16.945010
 30
0.0
  0
SPLINE
  5
112
100
AcDbEntity
  8
0
 62
7
100
AcDbSpline
 70
8
 71
3
 72
8
 73
4
 74
0
 40
0
 40
0
 40
0
 40
0
 40
1
 40
1
 40
1
 40
1
 10
29.077305
 20
-16.945010
 30
0.0
 10
29.077305
 20
-15.729983
 30
0.0
 10
30.062279
 20
-14.745009
 30
0.0
 10
31.277306
 20
-14.745009
 30
0.0
  0
SPLINE
  5
113
100
AcDbEntity
  8
0
 62
7
100
AcDbSpline
 70
8
 71
3
 72
8
 73
4
 74
0
 40
0
 40
0
 40
0
 40
0
 40
1
 40
1
 40
1
 40
1
 10
31.277306
 20
-14.745009
 30
0.0
 10
32.492333
 20
-14.745009
 30
0.0
 10
33.477307
 20
-15.729983
 30
0.0
 10
33.477307
 20
-16.945010
 30
0.0
  0
LINE
  5
114
100
AcDbEntity
  8
0
 62
7
100
AcDbLine
 10
33.477307
 20
-16.945010
 30
0.0
 11
33.477307
 21
-16.945010
 31
0.0
  0
SPLINE
  5
115
100
AcDbEntity
  8
0
 62
7
100
AcDbSpline
 70
8
 71
3
 72
8
 73
4
 74
0
 40
0
 40
0
 40
0
 40
0
 40
1
 40
1
 40
1
 40
1
 10
71.647157
 20
-64.493712
 30
0.0
 10
71.647157
 20
-65.708738
 30
0.0
 10
70.662183
 20
-66.693712
 30
0.0
 10
69.447156
 20
-66.693712
 30
0.0
  0
SPLINE
  5
116
100
AcDbEntity
  8
0
 62
7
100
AcDbSpline
 70
8
 71
3
 72
8
 73
4
 74
0
 40
0
 40
0
 40
0
 40
0
 40
1
 40
1
 40
1
 40
1
 10
69.447156
 20
-66.693712
 30
0.0
 10
68.232129
 20
-66.693712
 30
0.0
 10
67.247155
 20
-65.708738
 30
0.0
 10
67.247155
 20
-64.493711
 30
0.0
  0
SPLINE
  5
117
100
AcDbEntity
  8
0
 62
7
100
AcDbSpline
 70
8
 71
3
 72
8
 73
4
 74
0
 40
0
 40
0
 40
0
 40
0
 40
1
 40
1
 40
1
 40
1
 10
67.247155
 20
-64.493711
 30
0.0
 10
67.247155
 20
-63.278685
 30
0.0
 10
68.232129
 20
-62.293711
 30
0.0
 10
69.447156
 20
-62.293711
 30
0.0
  0
SPLINE
  5
118
100
AcDbEntity
  8
0
 62
7
100
AcDbSpline
 70
8
 71
3
 72
8
 73
4
 74
0
 40
0
 40
0
 40
0
 40
0
 40
1
 40
1
 40
1
 40
1
 10
69.447156
 20
-62.293711
 30
0.0
 10
70.662183
 20
-62.293711
 30
0.0
 10
71.647157
 20
-63.278685
 30
0.0
 10
71.647157
 20
-64.493711
 30
0.0
  0
LINE
  5
119
100
AcDbEntity
  8
0
 62
7
100
AcDbLine
 10
71.647157
 20
-64.493711
 30
0.0
 11
71.647157
 21
-64.493712
 31
0.0
  0
SPLINE
  5
11a
100
AcDbEntity
  8
0
 62
7
100
AcDbSpline
 70
8
 71
3
 72
8
 73
4
 74
0
 40
0
 40
0
 40
0
 40
0
 40
1
 40
1
 40
1
 40
1
 10
109.744612
 20
-21.644010
 30
0.0
 10
109.744612
 20
-22.227487
 30
0.0
 10
109.512827
 20
-22.787065
 30
0.0
 10
109.100246
 20
-23.199646
 30
0.0
  0
SPLINE
  5
11b
100
AcDbEntity
  8
0
 62
7
100
AcDbSpline
 70
8
 71
3
 72
8
 73
4
 74
0
 40
0
 40
0
 40
0
 40
0
 40
1
 40
1
 40
1
 40
1
 10
109.100246
 20
-23.199646
 30
0.0
 10
108.687666
 20
-23.612226
 30
0.0
 10
108.128087
 20
-23.844011
 30
0.0
 10
107.544611
 20
-23.844011
 30
0.0
  0
SPLINE
  5
11c
100
AcDbEntity
  8
0
 62
7
100
AcDbSpline
 70
8
 71
3
 72
8
 73
4
 74
0
 40
0
 40
0
 40
0
 40
0
 40
1
 40
1
 40
1
 40
1
 10
107.544611
 20
-23.844011
 30
0.0
 10
106.961134
 20
-23.844011
 30
0.0
 10
106.401556
 20
-23.612226
 30
0.0
 10
105.988975
 20
-23.199646
 30
0.0
  0
SPLINE
  5
11d
100
AcDbEntity
  8
0
 62
7
100
AcDbSpline
 70
8
 71
3
 72
8
 73
4
 74
0
 40
0
 40
0
 40
0
 40
0
 40
1
 40
1
 40
1
 40
1
 10
105.988975
 20
-23.199646
 30
0.0
 10
105.576395
 20
-22.787065
 30
0.0
 10
105.344610
 20
-22.227487
 30
0.0
 10
105.344610
 20
-21.644010
 30
0.0
  0
SPLINE
  5
11e
100
AcDbEntity
  8
0
 62
7
100
AcDbSpline
 70
8
 71
3
 72
8
 73
4
 74
0
 40
0
 40
0
 40
0
 40
0
 40
1
 40
1
 40
1
 40
1
 10
105.344610
 20
-21.644010
 30
0.0
 10
105.344610
 20
-20.428983
 30
0.0
 10
106.329584
 20
-19.444009
 30
0.0
 10
107.544611
 20
-19.444009
 30
0.0
  0
SPLINE
  5
11f
100
AcDbEntity
  8
0
 62
7
100
AcDbSpline
 70
8
 71
3
 72
8
 73
4
 74
0
 40
0
 40
0
 40
0
 40
0
 40
1
 40
1
 40
1
 40
1
 10
107.544611
 20
-19.444009
 30
0.0
 10
108.759638
 20
-19.444009
 30
0.0
 10
109.744612
 20
-20.428983
 30
0.0
 10
109.744612
 20
-21.644010
 30
0.0
  0
LINE
  5
120
100
AcDbEntity
  8
0
 62
7
100
AcDbLine
 10
109.744612
 20
-21.644010
 30
0.0
 11
109.744612
 21
-21.644010
 31
0.0
  0
SPLINE
  5
121
100
AcDbEntity
  8
0
 62
7
100
AcDbSpline
 70
8
 71
3
 72
8
 73
4
 74
0
 40
0
 40
0
 40
0
 40
0
 40
1
 40
1
 40
1
 40
1
 10
109.744612
 20
-64.493712
 30
0.0
 10
109.744612
 20
-65.708738
 30
0.0
 10
108.759638
 20
-66.693712
 30
0.0
 10
107.544611
 20
-66.693712
 30
0.0
  0
SPLINE
  5
122
100
AcDbEntity
  8
0
 62
7
100
AcDbSpline
 70
8
 71
3
 72
8
 73
4
 74
0
 40
0
 40
0
 40
0
 40
0
 40
1
 40
1
 40
1
 40
1
 10
107.544611
 20
-66.693712
 30
0.0
 10
106.329584
 20
-66.693712
 30
0.0
 10
105.344610
 20
-65.708738
 30
0.0
 10
105.344610
 20
-64.493712
 30
0.0
  0
SPLINE
  5
123
100
AcDbEntity
  8
0
 62
7
100
AcDbSpline
 70
8
 71
3
 72
8
 73
4
 74
0
 40
0
 40
0
 40
0
 40
0
 40
1
 40
1
 40
1
 40
1
 10
105.344610
 20
-64.493712
 30
0.0
 10
105.344610
 20
-63.278685
 30
0.0
 10
106.329584
 20
-62.293711
 30
0.0
 10
107.544611
 20
-62.293711
 30
0.0
  0
SPLINE
  5
124
100
AcDbEntity
  8
0
 62
7
100
AcDbSpline
 70
8
 71
3
 72
8
 73
4
 74
0
 40
0
 40
0
 40
0
 40
0
 40
1
 40
1
 40
1
 40
1
 10
107.544611
 20
-62.293711
 30
0.0
 10
108.759638
 20
-62.293711
 30
0.0
 10
109.744612
 20
-63.278685
 30
0.0
 10
109.744612
 20
-64.493711
 30
0.0
  0
LINE
  5
125
100
AcDbEntity
  8
0
 62
7
100
AcDbLine
 10
109.744612
 20
-64.493711
 30
0.0
 11
109.744612
 21
-64.493712
 31
0.0
  0
LINE
  5
126
100
AcDbEntity
  8
0
 62
7
100
AcDbLine
 10
114.523520
 20
-24.291097
 30
0.0
 11
100.523040
 21
-24.291097
 31
0.0
  0
LINE
  5
127
100
AcDbEntity
  8
0
 62
7
100
AcDbLine
 10
114.523520
 20
-38.289037
 30
0.0
 11
114.523520
 21
-24.291097
 31
0.0
  0
LINE
  5
128
100
AcDbEntity
  8
0
 62
7
100
AcDbLine
 10
100.523040
 20
-38.289037
 30
0.0
 11
114.523520
 21
-38.289037
 31
0.0
  0
LINE
  5
129
100
AcDbEntity
  8
0
 62
7
100
AcDbLine
 10
100.523040
 20
-24.291097
 30
0.0
 11
100.523040
 21
-38.289037
 31
0.0
  0
LINE
  5
12a
100
AcDbEntity
  8
0
 62
7
100
AcDbLine
 10
133.601460
 20
-33.866897
 30
0.0
 11
119.600980
 21
-33.866897
 31
0.0
  0
LINE
  5
12b
100
AcDbEntity
  8
0
 62
7
100
AcDbLine
 10
133.601460
 20
-47.867377
 30
0.0
 11
133.601460
 21
-33.866897
 31
0.0
  0
LINE
  5
12c
100
AcDbEntity
  8
0
 62
7
100
AcDbLine
 10
119.600980
 20
-47.867377
 30
0.0
 11
133.601460
 21
-47.867377
 31
0.0
  0
LINE
  5
12d
100
AcDbEntity
  8
0
 62
7
100
AcDbLine
 10
119.600980
 20
-33.866897
 30
0.0
 11
119.600980
 21
-47.867377
 31
0.0
  0
LINE
  5
12e
100
AcDbEntity
  8
0
 62
7
100
AcDbLine
 10
133.558280
 20
-14.832137
 30
0.0
 11
119.557800
 21
-14.832137
 31
0.0
  0
LINE
  5
12f
100
AcDbEntity
  8
0
 62
7
100
AcDbLine
 10
133.558280
 20
-28.832617
 30
0.0
 11
133.558280
 21
-14.832137
 31
0.0
  0
LINE
  5
130
100
AcDbEntity
  8
0
 62
7
100
AcDbLine
 10
119.557800
 20
-28.832617
 30
0.0
 11
133.558280
 21
-28.832617
 31
0.0
  0
LINE
  5
131
100
AcDbEntity
  8
0
 62
7
100
AcDbLine
 10
119.557800
 20
-14.832137
 30
0.0
 11
119.557800
 21
-28.832617
 31
0.0
  0
LINE
  5
132
100
AcDbEntity
  8
0
 62
7
100
AcDbLine
 10
114.571780
 20
-5.279197
 30
0.0
 11
100.571300
 21
-5.279197
 31
0.0
  0
LINE
  5
133
100
AcDbEntity
  8
0
 62
7
100
AcDbLine
 10
114.571780
 20
-19.279677
 30
0.0
 11
114.571780
 21
-5.279197
 31
0.0
  0
LINE
  5
134
100
AcDbEntity
  8
0
 62
7
100
AcDbLine
 10
100.571300
 20
-19.279677
 30
0.0
 11
114.571780
 21
-19.279677
 31
0.0
  0
LINE
  5
135
100
AcDbEntity
  8
0
 62
7
100
AcDbLine
 10
100.571300
 20
-5.279197
 30
0.0
 11
100.571300
 21
-19.279677
 31
0.0
  0
LINE
  5
136
100
AcDbEntity
  8
0
 62
7
100
AcDbLine
 10
76.492100
 20
-7.209597
 30
0.0
 11
62.491620
 21
-7.209597
 31
0.0
  0
LINE
  5
137
100
AcDbEntity
  8
0
 62
7
100
AcDbLine
 10
76.492100
 20
-21.207537
 30
0.0
 11
76.492100
 21
-7.209597
 31
0.0
  0
LINE
  5
138
100
AcDbEntity
  8
0
 62
7
100
AcDbLine
 10
62.491620
 20
-21.207537
 30
0.0
 11
76.492100
 21
-21.207537
 31
0.0
  0
LINE
  5
139
100
AcDbEntity
  8
0
 62
7
100
AcDbLine
 10
62.491620
 20
-7.209597
 30
0.0
 11
62.491620
 21
-21.207537
 31
0.0
  0
LINE
  5
13a
100
AcDbEntity
  8
0
 62
7
100
AcDbLine
 10
57.358280
 20
-9.068877
 30
0.0
 11
43.360340
 21
-9.068877
 31
0.0
  0
LINE
  5
13b
100
AcDbEntity
  8
0
 62
7
100
AcDbLine
 10
57.358280
 20
-23.069357
 30
0.0
 11
57.358280
 21
-9.068877
 31
0.0
  0
LINE
  5
13c
100
AcDbEntity
  8
0
 62
7
100
AcDbLine
 10
43.360340
 20
-23.069357
 30
0.0
 11
57.358280
 21
-23.069357
 31
0.0
  0
LINE
  5
13d
100
AcDbEntity
  8
0
 62
7
100
AcDbLine
 10
43.360340
 20
-9.068877
 30
0.0
 11
43.360340
 21
-23.069357
 31
0.0
  0
LINE
  5
13e
100
AcDbEntity
  8
0
 62
7
100
AcDbLine
 10
57.421780
 20
-47.229837
 30
0.0
 11
43.421300
 21
-47.229837
 31
0.0
  0
LINE
  5
13f
100
AcDbEntity
  8
0
 62
7
100
AcDbLine
 10
57.421780
 20
-61.230317
 30
0.0
 11
57.421780
 21
-47.229837
 31
0.0
  0
LINE
  5
140
100
AcDbEntity
  8
0
 62
7
100
AcDbLine
 10
43.421300
 20
-61.230317
 30
0.0
 11
57.421780
 21
-61.230317
 31
0.0
  0
LINE
  5
141
100
AcDbEntity
  8
0
 62
7
100
AcDbLine
 10
43.421300
 20
-47.229837
 30
0.0
 11
43.421300
 21
-61.230317
 31
0.0
  0
LINE
  5
142
100
AcDbEntity
  8
0
 62
7
100
AcDbLine
 10
57.404000
 20
-28.103637
 30
0.0
 11
43.403520
 21
-28.103637
 31
0.0
  0
LINE
  5
143
100
AcDbEntity
  8
0
 62
7
100
AcDbLine
 10
57.404000
 20
-42.104117
 30
0.0
 11
57.404000
 21
-28.103637
 31
0.0
  0
LINE
  5
144
100
AcDbEntity
  8
0
 62
7
100
AcDbLine
 10
43.403520
 20
-42.104117
 30
0.0
 11
57.404000
 21
-42.104117
 31
0.0
  0
LINE
  5
145
100
AcDbEntity
  8
0
 62
7
100
AcDbLine
 10
43.403520
 20
-28.103637
 30
0.0
 11
43.403520
 21
-42.104117
 31
0.0
  0
LINE
  5
146
100
AcDbEntity
  8
0
 62
7
100
AcDbLine
 10
76.489560
 20
-45.253717
 30
0.0
 11
62.489080
 21
-45.253717
 31
0.0
  0
LINE
  5
147
100
AcDbEntity
  8
0
 62
7
100
AcDbLine
 10
76.489560
 20
-59.254197
 30
0.0
 11
76.489560
 21
-45.253717
 31
0.0
  0
LINE
  5
148
100
AcDbEntity
  8
0
 62
7
100
AcDbLine
 10
62.489080
 20
-59.254197
 30
0.0
 11
76.489560
 21
-59.254197
 31
0.0
  0
LINE
  5
149
100
AcDbEntity
  8
0
 62
7
100
AcDbLine
 10
62.489080
 20
-45.253717
 30
0.0
 11
62.489080
 21
-59.254197
 31
0.0
  0
LINE
  5
14a
100
AcDbEntity
  8
0
 62
7
100
AcDbLine
 10
76.446380
 20
-26.218957
 30
0.0
 11
62.445900
 21
-26.218957
 31
0.0
  0
LINE
  5
14b
100
AcDbEntity
  8
0
 62
7
100
AcDbLine
 10
76.446380
 20
-40.219437
 30
0.0
 11
76.446380
 21
-26.218957
 31
0.0
  0
LINE
  5
14c
100
AcDbEntity
  8
0
 62
7
100
AcDbLine
 10
62.445900
 20
-40.219437
 30
0.0
 11
76.446380
 21
-40.219437
 31
0.0
  0
LINE
  5
14d
100
AcDbEntity
  8
0
 62
7
100
AcDbLine
 10
62.445900
 20
-26.218957
 30
0.0
 11
62.445900
 21
-40.219437
 31
0.0
  0
LINE
  5
14e
100
AcDbEntity
  8
0
 62
7
100
AcDbLine
 10
17.330420
 20
-82.177697
 30
0.0
 11
6.225540
 21
-90.699397
 31
0.0
  0
LINE
  5
14f
100
AcDbEntity
  8
0
 62
7
100
AcDbLine
 10
25.854660
 20
-93.285117
 30
0.0
 11
17.330420
 21
-82.177697
 31
0.0
  0
LINE
  5
150
100
AcDbEntity
  8
0
 62
7
100
AcDbLine
 10
14.747240
 20
-101.806817
 30
0.0
 11
25.854660
 21
-93.285117
 31
0.0
  0
LINE
  5
151
100
AcDbEntity
  8
0
 62
7
100
AcDbLine
 10
6.225540
 20
-90.699397
 30
0.0
 11
14.747240
 21
-101.806817
 31
0.0
  0
LINE
  5
152
100
AcDbEntity
  8
0
 62
7
100
AcDbLine
 10
95.483680
 20
-39.569197
 30
0.0
 11
81.483200
 21
-39.569197
 31
0.0
  0
LINE
  5
153
100
AcDbEntity
  8
0
 62
7
100
AcDbLine
 10
95.483680
 20
-53.569677
 30
0.0
 11
95.483680
 21
-39.569197
 31
0.0
  0
LINE
  5
154
100
AcDbEntity
  8
0
 62
7
100
AcDbLine
 10
81.483200
 20
-53.569677
 30
0.0
 11
95.483680
 21
-53.569677
 31
0.0
  0
LINE
  5
155
100
AcDbEntity
  8
0
 62
7
100
AcDbLine
 10
81.483200
 20
-39.569197
 30
0.0
 11
81.483200
 21
-53.569677
 31
0.0
  0
LINE
  5
156
100
AcDbEntity
  8
0
 62
7
100
AcDbLine
 10
95.529400
 20
-20.559837
 30
0.0
 11
81.528920
 21
-20.559837
 31
0.0
  0
LINE
  5
157
100
AcDbEntity
  8
0
 62
7
100
AcDbLine
 10
95.529400
 20
-34.560317
 30
0.0
 11
95.529400
 21
-20.559837
 31
0.0
  0
LINE
  5
158
100
AcDbEntity
  8
0
 62
7
100
AcDbLine
 10
81.528920
 20
-34.560317
 30
0.0
 11
95.529400
 21
-34.560317
 31
0.0
  0
LINE
  5
159
100
AcDbEntity
  8
0
 62
7
100
AcDbLine
 10
81.528920
 20
-20.559837
 30
0.0
 11
81.528920
 21
-34.560317
 31
0.0
  0
LINE
  5
15a
100
AcDbEntity
  8
0
 62
7
100
AcDbLine
 10
95.511620
 20
-1.433637
 30
0.0
 11
81.511140
 21
-1.433637
 31
0.0
  0
LINE
  5
15b
100
AcDbEntity
  8
0
 62
7
100
AcDbLine
 10
95.511620
 20
-15.434117
 30
0.0
 11
95.511620
 21
-1.433637
 31
0.0
  0
LINE
  5
15c
100
AcDbEntity
  8
0
 62
7
100
AcDbLine
 10
81.511140
 20
-15.434117
 30
0.0
 11
95.511620
 21
-15.434117
 31
0.0
  0
LINE
  5
15d
100
AcDbEntity
  8
0
 62
7
100
AcDbLine
 10
81.511140
 20
-1.433637
 30
0.0
 11
81.511140
 21
-15.434117
 31
0.0
  0
LINE
  5
15e
100
AcDbEntity
  8
0
 62
7
100
AcDbLine
 10
36.908740
 20
-72.137077
 30
0.0
 11
24.221440
 21
-78.052737
 31
0.0
  0
LINE
  5
15f
100
AcDbEntity
  8
0
 62
7
100
AcDbLine
 10
42.824400
 20
-84.824377
 30
0.0
 11
36.908740
 21
-72.137077
 31
0.0
  0
LINE
  5
160
100
AcDbEntity
  8
0
 62
7
100
AcDbLine
 10
30.137100
 20
-90.742577
 30
0.0
 11
42.824400
 21
-84.824377
 31
0.0
  0
LINE
  5
161
100
AcDbEntity
  8
0
 62
7
100
AcDbLine
 10
24.221440
 20
-78.052737
 30
0.0
 11
30.137100
 21
-90.742577
 31
0.0
  0
LINE
  5
162
100
AcDbEntity
  8
0
 62
7
100
AcDbLine
 10
114.543840
 20
-43.414757
 30
0.0
 11
100.543360
 21
-43.414757
 31
0.0
  0
LINE
  5
163
100
AcDbEntity
  8
0
 62
7
100
AcDbLine
 10
114.543840
 20
-57.415237
 30
0.0
 11
114.543840
 21
-43.414757
 31
0.0
  0
LINE
  5
164
100
AcDbEntity
  8
0
 62
7
100
AcDbLine
 10
100.543360
 20
-57.415237
 30
0.0
 11
114.543840
 21
-57.415237
 31
0.0
  0
LINE
  5
165
100
AcDbEntity
  8
0
 62
7
100
AcDbLine
 10
100.543360
 20
-43.414757
 30
0.0
 11
100.543360
 21
-57.415237
 31
0.0
  0
LINE
  5
166
100
AcDbEntity
  8
0
 62
7
100
AcDbLine
 10
58.191400
 20
-66.434777
 30
0.0
 11
44.523660
 21
-69.464997
 31
0.0
  0
LINE
  5
167
100
AcDbEntity
  8
0
 62
7
100
AcDbLine
 10
61.221620
 20
-80.102517
 30
0.0
 11
58.191400
 21
-66.434777
 31
0.0
  0
LINE
  5
168
100
AcDbEntity
  8
0
 62
7
100
AcDbLine
 10
47.553880
 20
-83.132737
 30
0.0
 11
61.221620
 21
-80.102517
 31
0.0
  0
LINE
  5
169
100
AcDbEntity
  8
0
 62
7
100
AcDbLine
 10
44.523660
 20
-69.464997
 30
0.0
 11
47.553880
 21
-83.132737
 31
0.0
  0
LINE
  5
16a
100
AcDbEntity
  8
0
 62
7
100
AcDbLine
 10
133.644640
 20
-52.901657
 30
0.0
 11
119.644160
 21
-52.901657
 31
0.0
  0
LINE
  5
16b
100
AcDbEntity
  8
0
 62
7
100
AcDbLine
 10
133.644640
 20
-66.902137
 30
0.0
 11
133.644640
 21
-52.901657
 31
0.0
  0
LINE
  5
16c
100
AcDbEntity
  8
0
 62
7
100
AcDbLine
 10
119.644160
 20
-66.902137
 30
0.0
 11
133.644640
 21
-66.902137
 31
0.0
  0
LINE
  5
16d
100
AcDbEntity
  8
0
 62
7
100
AcDbLine
 10
119.644160
 20
-52.901657
 30
0.0
 11
119.644160
 21
-66.902137
 31
0.0
  0
LINE
  5
16e
100
AcDbEntity
  8
0
 62
7
100
AcDbLine
 10
37.498020
 20
-37.478777
 30
0.0
 11
19.718020
 21
-37.478777
 31
0.0
  0
LINE
  5
16f
100
AcDbEntity
  8
0
 62
7
100
AcDbLine
 10
37.498020
 20
-6.998777
 30
0.0
 11
37.498020
 21
-37.478777
 31
0.0
  0
LINE
  5
170
100
AcDbEntity
  8
0
 62
7
100
AcDbLine
 10
19.718020
 20
-6.998777
 30
0.0
 11
19.718020
 21
-37.478777
 31
0.0
  0
LINE
  5
171
100
AcDbEntity
  8
0
 62
7
100
AcDbLine
 10
11.386820
 20
-7.151177
 30
0.0
 11
17.485360
 21
-7.151177
 31
0.0
  0
LINE
  5
172
100
AcDbEntity
  8
0
 62
7
100
AcDbLine
 10
17.485360
 20
-7.151177
 30
0.0
 11
17.485360
 21
-19.249197
 31
0.0
  0
LINE
  5
173
100
AcDbEntity
  8
0
 62
7
100
AcDbLine
 10
11.635740
 20
-5.149657
 30
0.0
 11
17.236440
 21
-5.149657
 31
0.0
  0
LINE
  5
174
100
AcDbEntity
  8
0
 62
7
100
AcDbLine
 10
11.386820
 20
-19.249197
 30
0.0
 11
17.485360
 21
-19.249197
 31
0.0
  0
LINE
  5
175
100
AcDbEntity
  8
0
 62
7
100
AcDbLine
 10
17.236440
 20
-7.151177
 30
0.0
 11
17.236440
 21
-5.149657
 31
0.0
  0
LINE
  5
176
100
AcDbEntity
  8
0
 62
7
100
AcDbLine
 10
11.386820
 20
-7.151177
 30
0.0
 11
11.386820
 21
-19.249197
 31
0.0
  0
LINE
  5
177
100
AcDbEntity
  8
0
 62
7
100
AcDbLine
 10
11.635740
 20
-7.151177
 30
0.0
 11
11.635740
 21
-5.149657
 31
0.0
  0
LINE
  5
178
100
AcDbEntity
  8
0
 62
7
100
AcDbLine
 10
32.976820
 20
-68.911277
 30
0.0
 11
15.476220
 21
-68.911277
 31
0.0
  0
LINE
  5
179
100
AcDbEntity
  8
0
 62
7
100
AcDbLine
 10
32.976820
 20
-68.911277
 30
0.0
 11
32.976820
 21
-54.710137
 31
0.0
  0
LINE
  5
17a
100
AcDbEntity
  8
0
 62
7
100
AcDbLine
 10
15.476220
 20
-54.710137
 30
0.0
 11
15.476220
 21
-68.911277
 31
0.0
  0
LINE
  5
17b
100
AcDbEntity
  8
0
 62
7
100
AcDbLine
 10
15.476220
 20
-54.710137
 30
0.0
 11
32.976820
 21
-54.710137
 31
0.0
  0
LINE
  5
17c
100
AcDbEntity
  8
0
 62
7
100
AcDbLine
 10
0.022860
 20
-93.234317
 30
0.0
 11
0.040640
 21
-93.252097
 31
0.0
  0
SPLINE
  5
17d
100
AcDbEntity
  8
0
 62
7
100
AcDbSpline
 70
8
 71
3
 72
8
 73
4
 74
0
 40
0
 40
0
 40
0
 40
0
 40
1
 40
1
 40
1
 40
1
 10
9.855149
 20
-84.585109
 30
0.0
 10
6.398930
 20
-87.258255
 30
0.0
 10
3.115631
 20
-90.147795
 30
0.0
 10
0.025001
 20
-93.236349
 30
0.0
  0
LINE
  5
17e
100
AcDbEntity
  8
0
 62
7
100
AcDbLine
 10
9.852660
 20
-78.398177
 30
0.0
 11
9.852660
 21
-84.583077
 31
0.0
  0
LINE
  5
17f
100
AcDbEntity
  8
0
 62
7
100
AcDbLine
 10
10.614660
 20
-6.732077
 30
0.0
 11
19.616420
 21
-6.732077
 31
0.0
  0
LINE
  5
180
100
AcDbEntity
  8
0
 62
7
100
AcDbLine
 10
135.338820
 20
-69.343077
 30
0.0
 11
139.339320
 21
-69.343077
 31
0.0
  0
LINE
  5
181
100
AcDbEntity
  8
0
 62
7
100
AcDbLine
 10
135.338820
 20
-12.447077
 30
0.0
 11
139.339320
 21
-12.447077
 31
0.0
  0
LINE
  5
182
100
AcDbEntity
  8
0
 62
7
100
AcDbLine
 10
0.040640
 20
-93.252097
 30
0.0
 11
12.844780
 21
-107.054457
 31
0.0
  0
LINE
  5
183
100
AcDbEntity
  8
0
 62
7
100
AcDbLine
 10
9.852660
 20
-7.494077
 30
0.0
 11
9.852660
 21
-78.398177
 31
0.0
  0
LINE
  5
184
100
AcDbEntity
  8
0
 62
7
100
AcDbLine
 10
19.616420
 20
-6.732077
 30
0.0
 11
32.214820
 21
-6.732077
 31
0.0
  0
LINE
  5
185
100
AcDbEntity
  8
0
 62
7
100
AcDbLine
 10
140.101320
 20
-13.209077
 30
0.0
 11
140.101320
 21
-68.581077
 31
0.0
  0
SPLINE
  5
186
100
AcDbEntity
  8
0
 62
7
100
AcDbSpline
 70
8
 71
3
 72
8
 73
4
 74
0
 40
0
 40
0
 40
0
 40
0
 40
1
 40
1
 40
1
 40
1
 10
14.729435
 20
-105.199241
 30
0.0
 10
14.091596
 20
-105.808124
 30
0.0
 10
13.463318
 20
-106.426944
 30
0.0
 10
12.844831
 20
-107.055473
 30
0.0
  0
LINE
  5
187
100
AcDbEntity
  8
0
 62
7
100
AcDbLine
 10
98.000820
 20
0.252923
 30
0.0
 11
98.000820
 21
-2.160077
 31
0.0
  0
LINE
  5
188
100
AcDbEntity
  8
0
 62
7
100
AcDbLine
 10
63.695580
 20
-81.662077
 30
0.0
 11
63.695580
 21
-81.027077
 31
0.0
  0
SPLINE
  5
189
100
AcDbEntity
  8
0
 62
7
100
AcDbSpline
 70
8
 71
3
 72
8
 73
4
 74
0
 40
0
 40
0
 40
0
 40
0
 40
1
 40
1
 40
1
 40
1
 10
62.934088
 20
-82.426109
 30
0.0
 10
44.830664
 20
-84.620836
 30
0.0
 10
27.921766
 20
-92.609039
 30
0.0
 10
14.729435
 20
-105.199241
 30
0.0
  0
LINE
  5
18a
100
AcDbEntity
  8
0
 62
7
100
AcDbLine
 10
64.457580
 20
-69.343077
 30
0.0
 11
74.505820
 21
-69.343077
 31
0.0
  0
LINE
  5
18b
100
AcDbEntity
  8
0
 62
7
100
AcDbLine
 10
110.573820
 20
-69.343077
 30
0.0
 11
135.338820
 21
-69.343077
 31
0.0
  0
LINE
  5
18c
100
AcDbEntity
  8
0
 62
7
100
AcDbLine
 10
134.576820
 20
-12.447077
 30
0.0
 11
135.338820
 21
-12.447077
 31
0.0
  0
SPLINE
  5
18d
100
AcDbEntity
  8
0
 62
7
100
AcDbSpline
 70
8
 71
3
 72
8
 73
4
 74
0
 40
0
 40
0
 40
0
 40
0
 40
1
 40
1
 40
1
 40
1
 10
140.103098
 20
-13.211211
 30
0.0
 10
140.103098
 20
-13.009116
 30
0.0
 10
140.022816
 20
-12.815298
 30
0.0
 10
139.879913
 20
-12.672395
 30
0.0
  0
SPLINE
  5
18e
100
AcDbEntity
  8
0
 62
7
100
AcDbSpline
 70
8
 71
3
 72
8
 73
4
 74
0
 40
0
 40
0
 40
0
 40
0
 40
1
 40
1
 40
1
 40
1
 10
139.879913
 20
-12.672395
 30
0.0
 10
139.737011
 20
-12.529492
 30
0.0
 10
139.543193
 20
-12.449211
 30
0.0
 10
139.341098
 20
-12.449211
 30
0.0
  0
SPLINE
  5
18f
100
AcDbEntity
  8
0
 62
7
100
AcDbSpline
 70
8
 71
3
 72
8
 73
4
 74
0
 40
0
 40
0
 40
0
 40
0
 40
1
 40
1
 40
1
 40
1
 10
139.341098
 20
-69.345109
 30
0.0
 10
139.543193
 20
-69.345109
 30
0.0
 10
139.737011
 20
-69.264827
 30
0.0
 10
139.879913
 20
-69.121924
 30
0.0
  0
SPLINE
  5
190
100
AcDbEntity
  8
0
 62
7
100
AcDbSpline
 70
8
 71
3
 72
8
 73
4
 74
0
 40
0
 40
0
 40
0
 40
0
 40
1
 40
1
 40
1
 40
1
 10
139.879913
 20
-69.121924
 30
0.0
 10
140.022816
 20
-68.979022
 30
0.0
 10
140.103098
 20
-68.785204
 30
0.0
 10
140.103098
 20
-68.583109
 30
0.0
  0
LINE
  5
191
100
AcDbEntity
  8
0
 62
7
100
AcDbLine
 10
74.505820
 20
-69.343077
 30
0.0
 11
110.573820
 21
-69.343077
 31
0.0
  0
LINE
  5
192
100
AcDbEntity
  8
0
 62
7
100
AcDbLine
 10
63.695580
 20
-70.105077
 30
0.0
 11
63.695580
 21
-81.027077
 31
0.0
  0
SPLINE
  5
193
100
AcDbEntity
  8
0
 62
7
100
AcDbSpline
 70
8
 71
3
 72
8
 73
4
 74
0
 40
0
 40
0
 40
0
 40
0
 40
1
 40
1
 40
1
 40
1
 10
64.458088
 20
-69.345109
 30
0.0
 10
64.255993
 20
-69.345109
 30
0.0
 10
64.062175
 20
-69.425391
 30
0.0
 10
63.919273
 20
-69.568294
 30
0.0
  0
SPLINE
  5
194
100
AcDbEntity
  8
0
 62
7
100
AcDbSpline
 70
8
 71
3
 72
8
 73
4
 74
0
 40
0
 40
0
 40
0
 40
0
 40
1
 40
1
 40
1
 40
1
 10
63.919273
 20
-69.568294
 30
0.0
 10
63.776370
 20
-69.711196
 30
0.0
 10
63.696088
 20
-69.905014
 30
0.0
 10
63.696088
 20
-70.107109
 30
0.0
  0
SPLINE
  5
195
100
AcDbEntity
  8
0
 62
7
100
AcDbSpline
 70
8
 71
3
 72
8
 73
4
 74
0
 40
0
 40
0
 40
0
 40
0
 40
1
 40
1
 40
1
 40
1
 10
62.934088
 20
-82.426109
 30
0.0
 10
63.136183
 20
-82.426109
 30
0.0
 10
63.330001
 20
-82.345827
 30
0.0
 10
63.472903
 20
-82.202924
 30
0.0
  0
SPLINE
  5
196
100
AcDbEntity
  8
0
 62
7
100
AcDbSpline
 70
8
 71
3
 72
8
 73
4
 74
0
 40
0
 40
0
 40
0
 40
0
 40
1
 40
1
 40
1
 40
1
 10
63.472903
 20
-82.202924
 30
0.0
 10
63.615806
 20
-82.060022
 30
0.0
 10
63.696088
 20
-81.866204
 30
0.0
 10
63.696088
 20
-81.664109
 30
0.0
  0
SPLINE
  5
197
100
AcDbEntity
  8
0
 62
7
100
AcDbSpline
 70
8
 71
3
 72
8
 73
4
 74
0
 40
0
 40
0
 40
0
 40
0
 40
1
 40
1
 40
1
 40
1
 10
10.617149
 20
-6.734211
 30
0.0
 10
10.415054
 20
-6.734211
 30
0.0
 10
10.221237
 20
-6.814492
 30
0.0
 10
10.078334
 20
-6.957395
 30
0.0
  0
SPLINE
  5
198
100
AcDbEntity
  8
0
 62
7
100
AcDbSpline
 70
8
 71
3
 72
8
 73
4
 74
0
 40
0
 40
0
 40
0
 40
0
 40
1
 40
1
 40
1
 40
1
 10
10.078334
 20
-6.957395
 30
0.0
 10
9.935431
 20
-7.100298
 30
0.0
 10
9.855149
 20
-7.294116
 30
0.0
 10
9.855149
 20
-7.496211
 30
0.0
  0
LINE
  5
199
100
AcDbEntity
  8
0
 62
7
100
AcDbLine
 10
59.265820
 20
-6.732077
 30
0.0
 11
32.214820
 21
-6.732077
 31
0.0
  0
LINE
  5
19a
100
AcDbEntity
  8
0
 62
7
100
AcDbLine
 10
79.077820
 20
-3.938077
 30
0.0
 11
79.077820
 21
0.252923
 31
0.0
  0
LINE
  5
19b
100
AcDbEntity
  8
0
 62
7
100
AcDbLine
 10
60.789820
 20
-4.700077
 30
0.0
 11
78.315820
 21
-4.700077
 31
0.0
  0
LINE
  5
19c
100
AcDbEntity
  8
0
 62
7
100
AcDbLine
 10
60.027820
 20
-5.462077
 30
0.0
 11
60.027820
 21
-5.970077
 31
0.0
  0
SPLINE
  5
19d
100
AcDbEntity
  8
0
 62
7
100
AcDbSpline
 70
8
 71
3
 72
8
 73
4
 74
0
 40
0
 40
0
 40
0
 40
0
 40
1
 40
1
 40
1
 40
1
 10
59.268106
 20
-6.734211
 30
0.0
 10
59.470201
 20
-6.734211
 30
0.0
 10
59.664019
 20
-6.653929
 30
0.0
 10
59.806921
 20
-6.511026
 30
0.0
  0
SPLINE
  5
19e
100
AcDbEntity
  8
0
 62
7
100
AcDbSpline
 70
8
 71
3
 72
8
 73
4
 74
0
 40
0
 40
0
 40
0
 40
0
 40
1
 40
1
 40
1
 40
1
 10
59.806921
 20
-6.511026
 30
0.0
 10
59.949824
 20
-6.368123
 30
0.0
 10
60.030106
 20
-6.174306
 30
0.0
 10
60.030106
 20
-5.972211
 30
0.0
  0
SPLINE
  5
19f
100
AcDbEntity
  8
0
 62
7
100
AcDbSpline
 70
8
 71
3
 72
8
 73
4
 74
0
 40
0
 40
0
 40
0
 40
0
 40
1
 40
1
 40
1
 40
1
 10
60.792106
 20
-4.702211
 30
0.0
 10
60.590011
 20
-4.702211
 30
0.0
 10
60.396193
 20
-4.782492
 30
0.0
 10
60.253291
 20
-4.925395
 30
0.0
  0
SPLINE
  5
1a0
100
AcDbEntity
  8
0
 62
7
100
AcDbSpline
 70
8
 71
3
 72
8
 73
4
 74
0
 40
0
 40
0
 40
0
 40
0
 40
1
 40
1
 40
1
 40
1
 10
60.253291
 20
-4.925395
 30
0.0
 10
60.110388
 20
-5.068298
 30
0.0
 10
60.030106
 20
-5.262116
 30
0.0
 10
60.030106
 20
-5.464211
 30
0.0
  0
SPLINE
  5
1a1
100
AcDbEntity
  8
0
 62
7
100
AcDbSpline
 70
8
 71
3
 72
8
 73
4
 74
0
 40
0
 40
0
 40
0
 40
0
 40
1
 40
1
 40
1
 40
1
 10
78.318106
 20
-4.702211
 30
0.0
 10
78.520201
 20
-4.702211
 30
0.0
 10
78.714019
 20
-4.621929
 30
0.0
 10
78.856921
 20
-4.479026
 30
0.0
  0
SPLINE
  5
1a2
100
AcDbEntity
  8
0
 62
7
100
AcDbSpline
 70
8
 71
3
 72
8
 73
4
 74
0
 40
0
 40
0
 40
0
 40
0
 40
1
 40
1
 40
1
 40
1
 10
78.856921
 20
-4.479026
 30
0.0
 10
78.999824
 20
-4.336123
 30
0.0
 10
79.080106
 20
-4.142306
 30
0.0
 10
79.080106
 20
-3.940211
 30
0.0
  0
SPLINE
  5
1a3
100
AcDbEntity
  8
0
 62
7
100
AcDbSpline
 70
8
 71
3
 72
8
 73
4
 74
0
 40
0
 40
0
 40
0
 40
0
 40
1
 40
1
 40
1
 40
1
 10
79.842106
 20
1.012782
 30
0.0
 10
79.640011
 20
1.012782
 30
0.0
 10
79.446193
 20
0.932500
 30
0.0
 10
79.303291
 20
0.789597
 30
0.0
  0
SPLINE
  5
1a4
100
AcDbEntity
  8
0
 62
7
100
AcDbSpline
 70
8
 71
3
 72
8
 73
4
 74
0
 40
0
 40
0
 40
0
 40
0
 40
1
 40
1
 40
1
 40
1
 10
79.303291
 20
0.789597
 30
0.0
 10
79.160388
 20
0.646695
 30
0.0
 10
79.080106
 20
0.452877
 30
0.0
 10
79.080106
 20
0.250782
 30
0.0
  0
LINE
  5
1a5
100
AcDbEntity
  8
0
 62
7
100
AcDbLine
 10
97.238820
 20
1.014923
 30
0.0
 11
79.839820
 21
1.014923
 31
0.0
  0
SPLINE
  5
1a6
100
AcDbEntity
  8
0
 62
7
100
AcDbSpline
 70
8
 71
3
 72
8
 73
4
 74
0
 40
0
 40
0
 40
0
 40
0
 40
1
 40
1
 40
1
 40
1
 10
98.003106
 20
0.250782
 30
0.0
 10
98.003106
 20
0.452877
 30
0.0
 10
97.922824
 20
0.646695
 30
0.0
 10
97.779921
 20
0.789597
 30
0.0
  0
SPLINE
  5
1a7
100
AcDbEntity
  8
0
 62
7
100
AcDbSpline
 70
8
 71
3
 72
8
 73
4
 74
0
 40
0
 40
0
 40
0
 40
0
 40
1
 40
1
 40
1
 40
1
 10
97.779921
 20
0.789597
 30
0.0
 10
97.637019
 20
0.932500
 30
0.0
 10
97.443201
 20
1.012782
 30
0.0
 10
97.241106
 20
1.012782
 30
0.0
  0
SPLINE
  5
1a8
100
AcDbEntity
  8
0
 62
7
100
AcDbSpline
 70
8
 71
3
 72
8
 73
4
 74
0
 40
0
 40
0
 40
0
 40
0
 40
1
 40
1
 40
1
 40
1
 10
98.003106
 20
-2.162211
 30
0.0
 10
98.003106
 20
-2.364306
 30
0.0
 10
98.083388
 20
-2.558123
 30
0.0
 10
98.226291
 20
-2.701026
 30
0.0
  0
SPLINE
  5
1a9
100
AcDbEntity
  8
0
 62
7
100
AcDbSpline
 70
8
 71
3
 72
8
 73
4
 74
0
 40
0
 40
0
 40
0
 40
0
 40
1
 40
1
 40
1
 40
1
 10
98.226291
 20
-2.701026
 30
0.0
 10
98.369193
 20
-2.843929
 30
0.0
 10
98.563011
 20
-2.924211
 30
0.0
 10
98.765106
 20
-2.924211
 30
0.0
  0
LINE
  5
1aa
100
AcDbEntity
  8
0
 62
7
100
AcDbLine
 10
116.161820
 20
-2.922077
 30
0.0
 11
98.762820
 21
-2.922077
 31
0.0
  0
SPLINE
  5
1ab
100
AcDbEntity
  8
0
 62
7
100
AcDbSpline
 70
8
 71
3
 72
8
 73
4
 74
0
 40
0
 40
0
 40
0
 40
0
 40
1
 40
1
 40
1
 40
1
 10
116.926106
 20
-3.686211
 30
0.0
 10
116.926106
 20
-3.484116
 30
0.0
 10
116.845824
 20
-3.290298
 30
0.0
 10
116.702921
 20
-3.147395
 30
0.0
  0
SPLINE
  5
1ac
100
AcDbEntity
  8
0
 62
7
100
AcDbSpline
 70
8
 71
3
 72
8
 73
4
 74
0
 40
0
 40
0
 40
0
 40
0
 40
1
 40
1
 40
1
 40
1
 10
116.702921
 20
-3.147395
 30
0.0
 10
116.560019
 20
-3.004492
 30
0.0
 10
116.366201
 20
-2.924211
 30
0.0
 10
116.164106
 20
-2.924211
 30
0.0
  0
LINE
  5
1ad
100
AcDbEntity
  8
0
 62
7
100
AcDbLine
 10
116.923820
 20
-11.685077
 30
0.0
 11
116.923820
 21
-3.684077
 31
0.0
  0
LINE
  5
1ae
100
AcDbEntity
  8
0
 62
7
100
AcDbLine
 10
117.685820
 20
-12.447077
 30
0.0
 11
118.320820
 21
-12.447077
 31
0.0
  0
SPLINE
  5
1af
100
AcDbEntity
  8
0
 62
7
100
AcDbSpline
 70
8
 71
3
 72
8
 73
4
 74
0
 40
0
 40
0
 40
0
 40
0
 40
1
 40
1
 40
1
 40
1
 10
116.926106
 20
-11.687211
 30
0.0
 10
116.926106
 20
-11.889306
 30
0.0
 10
117.006388
 20
-12.083123
 30
0.0
 10
117.149291
 20
-12.226026
 30
0.0
  0
SPLINE
  5
1b0
100
AcDbEntity
  8
0
 62
7
100
AcDbSpline
 70
8
 71
3
 72
8
 73
4
 74
0
 40
0
 40
0
 40
0
 40
0
 40
1
 40
1
 40
1
 40
1
 10
117.149291
 20
-12.226026
 30
0.0
 10
117.292193
 20
-12.368929
 30
0.0
 10
117.486011
 20
-12.449211
 30
0.0
 10
117.688106
 20
-12.449211
 30
0.0
  0
LINE
  5
1b1
100
AcDbEntity
  8
0
 62
7
100
AcDbLine
 10
134.576820
 20
-12.447077
 30
0.0
 11
118.320820
 21
-12.447077
 31
0.0
  0
ENDSEC
  0
SECTION
  2
OBJECTS
  0
DICTIONARY
  5
C
330
0
100
AcDbDictionary
  3
ACAD_GROUP
350
D
  3
ACAD_MLINESTYLE
350
17
  0
DICTIONARY
  5
D
330
C
100
AcDbDictionary
  0
DICTIONARY
  5
1A
330
C
100
AcDbDictionary
  0
DICTIONARY
  5
17
330
C
100
AcDbDictionary
  3
STANDARD
350
18
  0
DICTIONARY
  5
19
330
C
100
AcDbDictionary
  0
ENDSEC
  0
EOF
