%TF.GenerationSoftware,KiCad,Pcbnew,(5.1.7)-1*%
%TF.CreationDate,2021-06-21T23:37:54+05:30*%
%TF.ProjectId,Pteron36v0,50746572-6f6e-4333-9676-302e6b696361,rev?*%
%TF.SameCoordinates,Original*%
%TF.FileFunction,Legend,Top*%
%TF.FilePolarity,Positive*%
%FSLAX46Y46*%
G04 Gerber Fmt 4.6, Leading zero omitted, Abs format (unit mm)*
G04 Created by KiCad (PCBNEW (5.1.7)-1) date 2021-06-21 23:37:54*
%MOMM*%
%LPD*%
G01*
G04 APERTURE LIST*
%ADD10C,0.500000*%
%ADD11C,0.150000*%
%ADD12C,0.125000*%
%ADD13C,0.250000*%
%ADD14C,0.120000*%
%ADD15C,0.010000*%
%ADD16C,0.066040*%
%ADD17C,0.203200*%
%ADD18C,0.100000*%
G04 APERTURE END LIST*
D10*
X97596438Y-46731114D02*
X99596438Y-46731114D01*
X99596438Y-47493019D01*
X99501200Y-47683495D01*
X99405961Y-47778733D01*
X99215485Y-47873971D01*
X98929771Y-47873971D01*
X98739295Y-47778733D01*
X98644057Y-47683495D01*
X98548819Y-47493019D01*
X98548819Y-46731114D01*
X98929771Y-48445400D02*
X98929771Y-49207304D01*
X99596438Y-48731114D02*
X97882152Y-48731114D01*
X97691676Y-48826352D01*
X97596438Y-49016828D01*
X97596438Y-49207304D01*
X97691676Y-50635876D02*
X97596438Y-50445400D01*
X97596438Y-50064447D01*
X97691676Y-49873971D01*
X97882152Y-49778733D01*
X98644057Y-49778733D01*
X98834533Y-49873971D01*
X98929771Y-50064447D01*
X98929771Y-50445400D01*
X98834533Y-50635876D01*
X98644057Y-50731114D01*
X98453580Y-50731114D01*
X98263104Y-49778733D01*
X97596438Y-51588257D02*
X98929771Y-51588257D01*
X98548819Y-51588257D02*
X98739295Y-51683495D01*
X98834533Y-51778733D01*
X98929771Y-51969209D01*
X98929771Y-52159685D01*
X97596438Y-53112066D02*
X97691676Y-52921590D01*
X97786914Y-52826352D01*
X97977390Y-52731114D01*
X98548819Y-52731114D01*
X98739295Y-52826352D01*
X98834533Y-52921590D01*
X98929771Y-53112066D01*
X98929771Y-53397780D01*
X98834533Y-53588257D01*
X98739295Y-53683495D01*
X98548819Y-53778733D01*
X97977390Y-53778733D01*
X97786914Y-53683495D01*
X97691676Y-53588257D01*
X97596438Y-53397780D01*
X97596438Y-53112066D01*
X98929771Y-54635876D02*
X97596438Y-54635876D01*
X98739295Y-54635876D02*
X98834533Y-54731114D01*
X98929771Y-54921590D01*
X98929771Y-55207304D01*
X98834533Y-55397780D01*
X98644057Y-55493019D01*
X97596438Y-55493019D01*
X99596438Y-56254923D02*
X99596438Y-57493019D01*
X98834533Y-56826352D01*
X98834533Y-57112066D01*
X98739295Y-57302542D01*
X98644057Y-57397780D01*
X98453580Y-57493019D01*
X97977390Y-57493019D01*
X97786914Y-57397780D01*
X97691676Y-57302542D01*
X97596438Y-57112066D01*
X97596438Y-56540638D01*
X97691676Y-56350161D01*
X97786914Y-56254923D01*
X99596438Y-59207304D02*
X99596438Y-58826352D01*
X99501200Y-58635876D01*
X99405961Y-58540638D01*
X99120247Y-58350161D01*
X98739295Y-58254923D01*
X97977390Y-58254923D01*
X97786914Y-58350161D01*
X97691676Y-58445400D01*
X97596438Y-58635876D01*
X97596438Y-59016828D01*
X97691676Y-59207304D01*
X97786914Y-59302542D01*
X97977390Y-59397780D01*
X98453580Y-59397780D01*
X98644057Y-59302542D01*
X98739295Y-59207304D01*
X98834533Y-59016828D01*
X98834533Y-58635876D01*
X98739295Y-58445400D01*
X98644057Y-58350161D01*
X98453580Y-58254923D01*
X99596438Y-61493019D02*
X97596438Y-62159685D01*
X99596438Y-62826352D01*
X97596438Y-64540638D02*
X97596438Y-63397780D01*
X97596438Y-63969209D02*
X99596438Y-63969209D01*
X99310723Y-63778733D01*
X99120247Y-63588257D01*
X99025009Y-63397780D01*
X97786914Y-65397780D02*
X97691676Y-65493019D01*
X97596438Y-65397780D01*
X97691676Y-65302542D01*
X97786914Y-65397780D01*
X97596438Y-65397780D01*
X99405961Y-66254923D02*
X99501200Y-66350161D01*
X99596438Y-66540638D01*
X99596438Y-67016828D01*
X99501200Y-67207304D01*
X99405961Y-67302542D01*
X99215485Y-67397780D01*
X99025009Y-67397780D01*
X98739295Y-67302542D01*
X97596438Y-66159685D01*
X97596438Y-67397780D01*
X97786914Y-68254923D02*
X97691676Y-68350161D01*
X97596438Y-68254923D01*
X97691676Y-68159685D01*
X97786914Y-68254923D01*
X97596438Y-68254923D01*
X99596438Y-69588257D02*
X99596438Y-69778733D01*
X99501200Y-69969209D01*
X99405961Y-70064447D01*
X99215485Y-70159685D01*
X98834533Y-70254923D01*
X98358342Y-70254923D01*
X97977390Y-70159685D01*
X97786914Y-70064447D01*
X97691676Y-69969209D01*
X97596438Y-69778733D01*
X97596438Y-69588257D01*
X97691676Y-69397780D01*
X97786914Y-69302542D01*
X97977390Y-69207304D01*
X98358342Y-69112066D01*
X98834533Y-69112066D01*
X99215485Y-69207304D01*
X99405961Y-69302542D01*
X99501200Y-69397780D01*
X99596438Y-69588257D01*
D11*
X84034285Y-70875142D02*
X83224761Y-70875142D01*
X83129523Y-70827523D01*
X83081904Y-70779904D01*
X83034285Y-70684666D01*
X83034285Y-70541809D01*
X83081904Y-70446571D01*
X83415238Y-70875142D02*
X83367619Y-70779904D01*
X83367619Y-70589428D01*
X83415238Y-70494190D01*
X83462857Y-70446571D01*
X83558095Y-70398952D01*
X83843809Y-70398952D01*
X83939047Y-70446571D01*
X83986666Y-70494190D01*
X84034285Y-70589428D01*
X84034285Y-70779904D01*
X83986666Y-70875142D01*
X83367619Y-71351333D02*
X84034285Y-71351333D01*
X84367619Y-71351333D02*
X84320000Y-71303714D01*
X84272380Y-71351333D01*
X84320000Y-71398952D01*
X84367619Y-71351333D01*
X84272380Y-71351333D01*
X84034285Y-71684666D02*
X84034285Y-72065619D01*
X84367619Y-71827523D02*
X83510476Y-71827523D01*
X83415238Y-71875142D01*
X83367619Y-71970380D01*
X83367619Y-72065619D01*
X83367619Y-72398952D02*
X84367619Y-72398952D01*
X83367619Y-72827523D02*
X83891428Y-72827523D01*
X83986666Y-72779904D01*
X84034285Y-72684666D01*
X84034285Y-72541809D01*
X83986666Y-72446571D01*
X83939047Y-72398952D01*
X84034285Y-73732285D02*
X83367619Y-73732285D01*
X84034285Y-73303714D02*
X83510476Y-73303714D01*
X83415238Y-73351333D01*
X83367619Y-73446571D01*
X83367619Y-73589428D01*
X83415238Y-73684666D01*
X83462857Y-73732285D01*
X83367619Y-74208476D02*
X84367619Y-74208476D01*
X83986666Y-74208476D02*
X84034285Y-74303714D01*
X84034285Y-74494190D01*
X83986666Y-74589428D01*
X83939047Y-74637047D01*
X83843809Y-74684666D01*
X83558095Y-74684666D01*
X83462857Y-74637047D01*
X83415238Y-74589428D01*
X83367619Y-74494190D01*
X83367619Y-74303714D01*
X83415238Y-74208476D01*
X83462857Y-75113238D02*
X83415238Y-75160857D01*
X83367619Y-75113238D01*
X83415238Y-75065619D01*
X83462857Y-75113238D01*
X83367619Y-75113238D01*
X83415238Y-76018000D02*
X83367619Y-75922761D01*
X83367619Y-75732285D01*
X83415238Y-75637047D01*
X83462857Y-75589428D01*
X83558095Y-75541809D01*
X83843809Y-75541809D01*
X83939047Y-75589428D01*
X83986666Y-75637047D01*
X84034285Y-75732285D01*
X84034285Y-75922761D01*
X83986666Y-76018000D01*
X83367619Y-76589428D02*
X83415238Y-76494190D01*
X83462857Y-76446571D01*
X83558095Y-76398952D01*
X83843809Y-76398952D01*
X83939047Y-76446571D01*
X83986666Y-76494190D01*
X84034285Y-76589428D01*
X84034285Y-76732285D01*
X83986666Y-76827523D01*
X83939047Y-76875142D01*
X83843809Y-76922761D01*
X83558095Y-76922761D01*
X83462857Y-76875142D01*
X83415238Y-76827523D01*
X83367619Y-76732285D01*
X83367619Y-76589428D01*
X83367619Y-77351333D02*
X84034285Y-77351333D01*
X83939047Y-77351333D02*
X83986666Y-77398952D01*
X84034285Y-77494190D01*
X84034285Y-77637047D01*
X83986666Y-77732285D01*
X83891428Y-77779904D01*
X83367619Y-77779904D01*
X83891428Y-77779904D02*
X83986666Y-77827523D01*
X84034285Y-77922761D01*
X84034285Y-78065619D01*
X83986666Y-78160857D01*
X83891428Y-78208476D01*
X83367619Y-78208476D01*
X84415238Y-79398952D02*
X83129523Y-78541809D01*
X83367619Y-79732285D02*
X84367619Y-79732285D01*
X83367619Y-80160857D02*
X83891428Y-80160857D01*
X83986666Y-80113238D01*
X84034285Y-80018000D01*
X84034285Y-79875142D01*
X83986666Y-79779904D01*
X83939047Y-79732285D01*
X83367619Y-81065619D02*
X83891428Y-81065619D01*
X83986666Y-81018000D01*
X84034285Y-80922761D01*
X84034285Y-80732285D01*
X83986666Y-80637047D01*
X83415238Y-81065619D02*
X83367619Y-80970380D01*
X83367619Y-80732285D01*
X83415238Y-80637047D01*
X83510476Y-80589428D01*
X83605714Y-80589428D01*
X83700952Y-80637047D01*
X83748571Y-80732285D01*
X83748571Y-80970380D01*
X83796190Y-81065619D01*
X83367619Y-81541809D02*
X84034285Y-81541809D01*
X83843809Y-81541809D02*
X83939047Y-81589428D01*
X83986666Y-81637047D01*
X84034285Y-81732285D01*
X84034285Y-81827523D01*
X83415238Y-82113238D02*
X83367619Y-82208476D01*
X83367619Y-82398952D01*
X83415238Y-82494190D01*
X83510476Y-82541809D01*
X83558095Y-82541809D01*
X83653333Y-82494190D01*
X83700952Y-82398952D01*
X83700952Y-82256095D01*
X83748571Y-82160857D01*
X83843809Y-82113238D01*
X83891428Y-82113238D01*
X83986666Y-82160857D01*
X84034285Y-82256095D01*
X84034285Y-82398952D01*
X83986666Y-82494190D01*
X83367619Y-82970380D02*
X84367619Y-82970380D01*
X83367619Y-83398952D02*
X83891428Y-83398952D01*
X83986666Y-83351333D01*
X84034285Y-83256095D01*
X84034285Y-83113238D01*
X83986666Y-83018000D01*
X83939047Y-82970380D01*
X83367619Y-83875142D02*
X84034285Y-83875142D01*
X84367619Y-83875142D02*
X84320000Y-83827523D01*
X84272380Y-83875142D01*
X84320000Y-83922761D01*
X84367619Y-83875142D01*
X84272380Y-83875142D01*
X84034285Y-84208476D02*
X84034285Y-84589428D01*
X84367619Y-84351333D02*
X83510476Y-84351333D01*
X83415238Y-84398952D01*
X83367619Y-84494190D01*
X83367619Y-84589428D01*
X84034285Y-85351333D02*
X83224761Y-85351333D01*
X83129523Y-85303714D01*
X83081904Y-85256095D01*
X83034285Y-85160857D01*
X83034285Y-85018000D01*
X83081904Y-84922761D01*
X83415238Y-85351333D02*
X83367619Y-85256095D01*
X83367619Y-85065619D01*
X83415238Y-84970380D01*
X83462857Y-84922761D01*
X83558095Y-84875142D01*
X83843809Y-84875142D01*
X83939047Y-84922761D01*
X83986666Y-84970380D01*
X84034285Y-85065619D01*
X84034285Y-85256095D01*
X83986666Y-85351333D01*
X83367619Y-85970380D02*
X83415238Y-85875142D01*
X83462857Y-85827523D01*
X83558095Y-85779904D01*
X83843809Y-85779904D01*
X83939047Y-85827523D01*
X83986666Y-85875142D01*
X84034285Y-85970380D01*
X84034285Y-86113238D01*
X83986666Y-86208476D01*
X83939047Y-86256095D01*
X83843809Y-86303714D01*
X83558095Y-86303714D01*
X83462857Y-86256095D01*
X83415238Y-86208476D01*
X83367619Y-86113238D01*
X83367619Y-85970380D01*
X83415238Y-87113238D02*
X83367619Y-87018000D01*
X83367619Y-86827523D01*
X83415238Y-86732285D01*
X83510476Y-86684666D01*
X83891428Y-86684666D01*
X83986666Y-86732285D01*
X84034285Y-86827523D01*
X84034285Y-87018000D01*
X83986666Y-87113238D01*
X83891428Y-87160857D01*
X83796190Y-87160857D01*
X83700952Y-86684666D01*
X83367619Y-87732285D02*
X83415238Y-87637047D01*
X83510476Y-87589428D01*
X84367619Y-87589428D01*
X83367619Y-88160857D02*
X83367619Y-88351333D01*
X83415238Y-88446571D01*
X83462857Y-88494190D01*
X83605714Y-88589428D01*
X83796190Y-88637047D01*
X84177142Y-88637047D01*
X84272380Y-88589428D01*
X84320000Y-88541809D01*
X84367619Y-88446571D01*
X84367619Y-88256095D01*
X84320000Y-88160857D01*
X84272380Y-88113238D01*
X84177142Y-88065619D01*
X83939047Y-88065619D01*
X83843809Y-88113238D01*
X83796190Y-88160857D01*
X83748571Y-88256095D01*
X83748571Y-88446571D01*
X83796190Y-88541809D01*
X83843809Y-88589428D01*
X83939047Y-88637047D01*
X84367619Y-89494190D02*
X84367619Y-89303714D01*
X84320000Y-89208476D01*
X84272380Y-89160857D01*
X84129523Y-89065619D01*
X83939047Y-89018000D01*
X83558095Y-89018000D01*
X83462857Y-89065619D01*
X83415238Y-89113238D01*
X83367619Y-89208476D01*
X83367619Y-89398952D01*
X83415238Y-89494190D01*
X83462857Y-89541809D01*
X83558095Y-89589428D01*
X83796190Y-89589428D01*
X83891428Y-89541809D01*
X83939047Y-89494190D01*
X83986666Y-89398952D01*
X83986666Y-89208476D01*
X83939047Y-89113238D01*
X83891428Y-89065619D01*
X83796190Y-89018000D01*
X84415238Y-90732285D02*
X83129523Y-89875142D01*
D12*
X115042190Y-61372666D02*
X115542190Y-61206000D01*
X115042190Y-61039333D01*
X115494571Y-60586952D02*
X115518380Y-60610761D01*
X115542190Y-60682190D01*
X115542190Y-60729809D01*
X115518380Y-60801238D01*
X115470761Y-60848857D01*
X115423142Y-60872666D01*
X115327904Y-60896476D01*
X115256476Y-60896476D01*
X115161238Y-60872666D01*
X115113619Y-60848857D01*
X115066000Y-60801238D01*
X115042190Y-60729809D01*
X115042190Y-60682190D01*
X115066000Y-60610761D01*
X115089809Y-60586952D01*
X115494571Y-60086952D02*
X115518380Y-60110761D01*
X115542190Y-60182190D01*
X115542190Y-60229809D01*
X115518380Y-60301238D01*
X115470761Y-60348857D01*
X115423142Y-60372666D01*
X115327904Y-60396476D01*
X115256476Y-60396476D01*
X115161238Y-60372666D01*
X115113619Y-60348857D01*
X115066000Y-60301238D01*
X115042190Y-60229809D01*
X115042190Y-60182190D01*
X115066000Y-60110761D01*
X115089809Y-60086952D01*
X114962809Y-57336619D02*
X115462809Y-57336619D01*
X115462809Y-57527095D01*
X115439000Y-57574714D01*
X115415190Y-57598523D01*
X115367571Y-57622333D01*
X115296142Y-57622333D01*
X115248523Y-57598523D01*
X115224714Y-57574714D01*
X115200904Y-57527095D01*
X115200904Y-57336619D01*
X115462809Y-57789000D02*
X114962809Y-57908047D01*
X115319952Y-58003285D01*
X114962809Y-58098523D01*
X115462809Y-58217571D01*
X114962809Y-58408047D02*
X115462809Y-58408047D01*
X115105666Y-58574714D01*
X115462809Y-58741380D01*
X114962809Y-58741380D01*
X114939000Y-55879952D02*
X114915190Y-55927571D01*
X114915190Y-55999000D01*
X114939000Y-56070428D01*
X114986619Y-56118047D01*
X115034238Y-56141857D01*
X115129476Y-56165666D01*
X115200904Y-56165666D01*
X115296142Y-56141857D01*
X115343761Y-56118047D01*
X115391380Y-56070428D01*
X115415190Y-55999000D01*
X115415190Y-55951380D01*
X115391380Y-55879952D01*
X115367571Y-55856142D01*
X115200904Y-55856142D01*
X115200904Y-55951380D01*
X115415190Y-55641857D02*
X114915190Y-55641857D01*
X115415190Y-55356142D01*
X114915190Y-55356142D01*
X115415190Y-55118047D02*
X114915190Y-55118047D01*
X114915190Y-54999000D01*
X114939000Y-54927571D01*
X114986619Y-54879952D01*
X115034238Y-54856142D01*
X115129476Y-54832333D01*
X115200904Y-54832333D01*
X115296142Y-54856142D01*
X115343761Y-54879952D01*
X115391380Y-54927571D01*
X115415190Y-54999000D01*
X115415190Y-55118047D01*
X95277857Y-82625380D02*
X95349285Y-82649190D01*
X95468333Y-82649190D01*
X95515952Y-82625380D01*
X95539761Y-82601571D01*
X95563571Y-82553952D01*
X95563571Y-82506333D01*
X95539761Y-82458714D01*
X95515952Y-82434904D01*
X95468333Y-82411095D01*
X95373095Y-82387285D01*
X95325476Y-82363476D01*
X95301666Y-82339666D01*
X95277857Y-82292047D01*
X95277857Y-82244428D01*
X95301666Y-82196809D01*
X95325476Y-82173000D01*
X95373095Y-82149190D01*
X95492142Y-82149190D01*
X95563571Y-82173000D01*
X95777857Y-82649190D02*
X95777857Y-82149190D01*
X95896904Y-82149190D01*
X95968333Y-82173000D01*
X96015952Y-82220619D01*
X96039761Y-82268238D01*
X96063571Y-82363476D01*
X96063571Y-82434904D01*
X96039761Y-82530142D01*
X96015952Y-82577761D01*
X95968333Y-82625380D01*
X95896904Y-82649190D01*
X95777857Y-82649190D01*
X96254047Y-82506333D02*
X96492142Y-82506333D01*
X96206428Y-82649190D02*
X96373095Y-82149190D01*
X96539761Y-82649190D01*
D11*
X134406809Y-100242714D02*
X134406809Y-101052238D01*
X134359190Y-101147476D01*
X134311571Y-101195095D01*
X134216333Y-101242714D01*
X134073476Y-101242714D01*
X133978238Y-101195095D01*
X134406809Y-100861761D02*
X134311571Y-100909380D01*
X134121095Y-100909380D01*
X134025857Y-100861761D01*
X133978238Y-100814142D01*
X133930619Y-100718904D01*
X133930619Y-100433190D01*
X133978238Y-100337952D01*
X134025857Y-100290333D01*
X134121095Y-100242714D01*
X134311571Y-100242714D01*
X134406809Y-100290333D01*
X134883000Y-100909380D02*
X134883000Y-100242714D01*
X134883000Y-99909380D02*
X134835380Y-99957000D01*
X134883000Y-100004619D01*
X134930619Y-99957000D01*
X134883000Y-99909380D01*
X134883000Y-100004619D01*
X135216333Y-100242714D02*
X135597285Y-100242714D01*
X135359190Y-99909380D02*
X135359190Y-100766523D01*
X135406809Y-100861761D01*
X135502047Y-100909380D01*
X135597285Y-100909380D01*
X135930619Y-100909380D02*
X135930619Y-99909380D01*
X136359190Y-100909380D02*
X136359190Y-100385571D01*
X136311571Y-100290333D01*
X136216333Y-100242714D01*
X136073476Y-100242714D01*
X135978238Y-100290333D01*
X135930619Y-100337952D01*
X137263952Y-100242714D02*
X137263952Y-100909380D01*
X136835380Y-100242714D02*
X136835380Y-100766523D01*
X136883000Y-100861761D01*
X136978238Y-100909380D01*
X137121095Y-100909380D01*
X137216333Y-100861761D01*
X137263952Y-100814142D01*
X137740142Y-100909380D02*
X137740142Y-99909380D01*
X137740142Y-100290333D02*
X137835380Y-100242714D01*
X138025857Y-100242714D01*
X138121095Y-100290333D01*
X138168714Y-100337952D01*
X138216333Y-100433190D01*
X138216333Y-100718904D01*
X138168714Y-100814142D01*
X138121095Y-100861761D01*
X138025857Y-100909380D01*
X137835380Y-100909380D01*
X137740142Y-100861761D01*
X138644904Y-100814142D02*
X138692523Y-100861761D01*
X138644904Y-100909380D01*
X138597285Y-100861761D01*
X138644904Y-100814142D01*
X138644904Y-100909380D01*
X139549666Y-100861761D02*
X139454428Y-100909380D01*
X139263952Y-100909380D01*
X139168714Y-100861761D01*
X139121095Y-100814142D01*
X139073476Y-100718904D01*
X139073476Y-100433190D01*
X139121095Y-100337952D01*
X139168714Y-100290333D01*
X139263952Y-100242714D01*
X139454428Y-100242714D01*
X139549666Y-100290333D01*
X140121095Y-100909380D02*
X140025857Y-100861761D01*
X139978238Y-100814142D01*
X139930619Y-100718904D01*
X139930619Y-100433190D01*
X139978238Y-100337952D01*
X140025857Y-100290333D01*
X140121095Y-100242714D01*
X140263952Y-100242714D01*
X140359190Y-100290333D01*
X140406809Y-100337952D01*
X140454428Y-100433190D01*
X140454428Y-100718904D01*
X140406809Y-100814142D01*
X140359190Y-100861761D01*
X140263952Y-100909380D01*
X140121095Y-100909380D01*
X140883000Y-100909380D02*
X140883000Y-100242714D01*
X140883000Y-100337952D02*
X140930619Y-100290333D01*
X141025857Y-100242714D01*
X141168714Y-100242714D01*
X141263952Y-100290333D01*
X141311571Y-100385571D01*
X141311571Y-100909380D01*
X141311571Y-100385571D02*
X141359190Y-100290333D01*
X141454428Y-100242714D01*
X141597285Y-100242714D01*
X141692523Y-100290333D01*
X141740142Y-100385571D01*
X141740142Y-100909380D01*
X142930619Y-99861761D02*
X142073476Y-101147476D01*
X143263952Y-100909380D02*
X143263952Y-99909380D01*
X143359190Y-100528428D02*
X143644904Y-100909380D01*
X143644904Y-100242714D02*
X143263952Y-100623666D01*
X144073476Y-100909380D02*
X144073476Y-100242714D01*
X144073476Y-100433190D02*
X144121095Y-100337952D01*
X144168714Y-100290333D01*
X144263952Y-100242714D01*
X144359190Y-100242714D01*
X145121095Y-100909380D02*
X145121095Y-100385571D01*
X145073476Y-100290333D01*
X144978238Y-100242714D01*
X144787761Y-100242714D01*
X144692523Y-100290333D01*
X145121095Y-100861761D02*
X145025857Y-100909380D01*
X144787761Y-100909380D01*
X144692523Y-100861761D01*
X144644904Y-100766523D01*
X144644904Y-100671285D01*
X144692523Y-100576047D01*
X144787761Y-100528428D01*
X145025857Y-100528428D01*
X145121095Y-100480809D01*
X145597285Y-100909380D02*
X145597285Y-99909380D01*
X145692523Y-100528428D02*
X145978238Y-100909380D01*
X145978238Y-100242714D02*
X145597285Y-100623666D01*
X146787761Y-100861761D02*
X146692523Y-100909380D01*
X146502047Y-100909380D01*
X146406809Y-100861761D01*
X146359190Y-100766523D01*
X146359190Y-100385571D01*
X146406809Y-100290333D01*
X146502047Y-100242714D01*
X146692523Y-100242714D01*
X146787761Y-100290333D01*
X146835380Y-100385571D01*
X146835380Y-100480809D01*
X146359190Y-100576047D01*
X147263952Y-100242714D02*
X147263952Y-100909380D01*
X147263952Y-100337952D02*
X147311571Y-100290333D01*
X147406809Y-100242714D01*
X147549666Y-100242714D01*
X147644904Y-100290333D01*
X147692523Y-100385571D01*
X147692523Y-100909380D01*
X148168714Y-100528428D02*
X148930619Y-100528428D01*
X149406809Y-100242714D02*
X149406809Y-101099857D01*
X149359190Y-101195095D01*
X149263952Y-101242714D01*
X149216333Y-101242714D01*
X149406809Y-99909380D02*
X149359190Y-99957000D01*
X149406809Y-100004619D01*
X149454428Y-99957000D01*
X149406809Y-99909380D01*
X149406809Y-100004619D01*
X150025857Y-100909380D02*
X149930619Y-100861761D01*
X149883000Y-100814142D01*
X149835380Y-100718904D01*
X149835380Y-100433190D01*
X149883000Y-100337952D01*
X149930619Y-100290333D01*
X150025857Y-100242714D01*
X150168714Y-100242714D01*
X150263952Y-100290333D01*
X150311571Y-100337952D01*
X150359190Y-100433190D01*
X150359190Y-100718904D01*
X150311571Y-100814142D01*
X150263952Y-100861761D01*
X150168714Y-100909380D01*
X150025857Y-100909380D01*
X150787761Y-100909380D02*
X150787761Y-99909380D01*
X150883000Y-100528428D02*
X151168714Y-100909380D01*
X151168714Y-100242714D02*
X150787761Y-100623666D01*
X151978238Y-100861761D02*
X151883000Y-100909380D01*
X151692523Y-100909380D01*
X151597285Y-100861761D01*
X151549666Y-100766523D01*
X151549666Y-100385571D01*
X151597285Y-100290333D01*
X151692523Y-100242714D01*
X151883000Y-100242714D01*
X151978238Y-100290333D01*
X152025857Y-100385571D01*
X152025857Y-100480809D01*
X151549666Y-100576047D01*
X152406809Y-100861761D02*
X152502047Y-100909380D01*
X152692523Y-100909380D01*
X152787761Y-100861761D01*
X152835380Y-100766523D01*
X152835380Y-100718904D01*
X152787761Y-100623666D01*
X152692523Y-100576047D01*
X152549666Y-100576047D01*
X152454428Y-100528428D01*
X152406809Y-100433190D01*
X152406809Y-100385571D01*
X152454428Y-100290333D01*
X152549666Y-100242714D01*
X152692523Y-100242714D01*
X152787761Y-100290333D01*
X133287952Y-101893714D02*
X133668904Y-101893714D01*
X133430809Y-102560380D02*
X133430809Y-101703238D01*
X133478428Y-101608000D01*
X133573666Y-101560380D01*
X133668904Y-101560380D01*
X134430809Y-102560380D02*
X134430809Y-102036571D01*
X134383190Y-101941333D01*
X134287952Y-101893714D01*
X134097476Y-101893714D01*
X134002238Y-101941333D01*
X134430809Y-102512761D02*
X134335571Y-102560380D01*
X134097476Y-102560380D01*
X134002238Y-102512761D01*
X133954619Y-102417523D01*
X133954619Y-102322285D01*
X134002238Y-102227047D01*
X134097476Y-102179428D01*
X134335571Y-102179428D01*
X134430809Y-102131809D01*
X135335571Y-102512761D02*
X135240333Y-102560380D01*
X135049857Y-102560380D01*
X134954619Y-102512761D01*
X134907000Y-102465142D01*
X134859380Y-102369904D01*
X134859380Y-102084190D01*
X134907000Y-101988952D01*
X134954619Y-101941333D01*
X135049857Y-101893714D01*
X135240333Y-101893714D01*
X135335571Y-101941333D01*
X136145095Y-102512761D02*
X136049857Y-102560380D01*
X135859380Y-102560380D01*
X135764142Y-102512761D01*
X135716523Y-102417523D01*
X135716523Y-102036571D01*
X135764142Y-101941333D01*
X135859380Y-101893714D01*
X136049857Y-101893714D01*
X136145095Y-101941333D01*
X136192714Y-102036571D01*
X136192714Y-102131809D01*
X135716523Y-102227047D01*
X136621285Y-102560380D02*
X136621285Y-101560380D01*
X136621285Y-101941333D02*
X136716523Y-101893714D01*
X136907000Y-101893714D01*
X137002238Y-101941333D01*
X137049857Y-101988952D01*
X137097476Y-102084190D01*
X137097476Y-102369904D01*
X137049857Y-102465142D01*
X137002238Y-102512761D01*
X136907000Y-102560380D01*
X136716523Y-102560380D01*
X136621285Y-102512761D01*
X137668904Y-102560380D02*
X137573666Y-102512761D01*
X137526047Y-102465142D01*
X137478428Y-102369904D01*
X137478428Y-102084190D01*
X137526047Y-101988952D01*
X137573666Y-101941333D01*
X137668904Y-101893714D01*
X137811761Y-101893714D01*
X137907000Y-101941333D01*
X137954619Y-101988952D01*
X138002238Y-102084190D01*
X138002238Y-102369904D01*
X137954619Y-102465142D01*
X137907000Y-102512761D01*
X137811761Y-102560380D01*
X137668904Y-102560380D01*
X138573666Y-102560380D02*
X138478428Y-102512761D01*
X138430809Y-102465142D01*
X138383190Y-102369904D01*
X138383190Y-102084190D01*
X138430809Y-101988952D01*
X138478428Y-101941333D01*
X138573666Y-101893714D01*
X138716523Y-101893714D01*
X138811761Y-101941333D01*
X138859380Y-101988952D01*
X138907000Y-102084190D01*
X138907000Y-102369904D01*
X138859380Y-102465142D01*
X138811761Y-102512761D01*
X138716523Y-102560380D01*
X138573666Y-102560380D01*
X139335571Y-102560380D02*
X139335571Y-101560380D01*
X139430809Y-102179428D02*
X139716523Y-102560380D01*
X139716523Y-101893714D02*
X139335571Y-102274666D01*
X140145095Y-102465142D02*
X140192714Y-102512761D01*
X140145095Y-102560380D01*
X140097476Y-102512761D01*
X140145095Y-102465142D01*
X140145095Y-102560380D01*
X141049857Y-102512761D02*
X140954619Y-102560380D01*
X140764142Y-102560380D01*
X140668904Y-102512761D01*
X140621285Y-102465142D01*
X140573666Y-102369904D01*
X140573666Y-102084190D01*
X140621285Y-101988952D01*
X140668904Y-101941333D01*
X140764142Y-101893714D01*
X140954619Y-101893714D01*
X141049857Y-101941333D01*
X141621285Y-102560380D02*
X141526047Y-102512761D01*
X141478428Y-102465142D01*
X141430809Y-102369904D01*
X141430809Y-102084190D01*
X141478428Y-101988952D01*
X141526047Y-101941333D01*
X141621285Y-101893714D01*
X141764142Y-101893714D01*
X141859380Y-101941333D01*
X141907000Y-101988952D01*
X141954619Y-102084190D01*
X141954619Y-102369904D01*
X141907000Y-102465142D01*
X141859380Y-102512761D01*
X141764142Y-102560380D01*
X141621285Y-102560380D01*
X142383190Y-102560380D02*
X142383190Y-101893714D01*
X142383190Y-101988952D02*
X142430809Y-101941333D01*
X142526047Y-101893714D01*
X142668904Y-101893714D01*
X142764142Y-101941333D01*
X142811761Y-102036571D01*
X142811761Y-102560380D01*
X142811761Y-102036571D02*
X142859380Y-101941333D01*
X142954619Y-101893714D01*
X143097476Y-101893714D01*
X143192714Y-101941333D01*
X143240333Y-102036571D01*
X143240333Y-102560380D01*
X144430809Y-101512761D02*
X143573666Y-102798476D01*
X144764142Y-102560380D02*
X144764142Y-101893714D01*
X144764142Y-101988952D02*
X144811761Y-101941333D01*
X144907000Y-101893714D01*
X145049857Y-101893714D01*
X145145095Y-101941333D01*
X145192714Y-102036571D01*
X145192714Y-102560380D01*
X145192714Y-102036571D02*
X145240333Y-101941333D01*
X145335571Y-101893714D01*
X145478428Y-101893714D01*
X145573666Y-101941333D01*
X145621285Y-102036571D01*
X145621285Y-102560380D01*
X146240333Y-102560380D02*
X146145095Y-102512761D01*
X146097476Y-102465142D01*
X146049857Y-102369904D01*
X146049857Y-102084190D01*
X146097476Y-101988952D01*
X146145095Y-101941333D01*
X146240333Y-101893714D01*
X146383190Y-101893714D01*
X146478428Y-101941333D01*
X146526047Y-101988952D01*
X146573666Y-102084190D01*
X146573666Y-102369904D01*
X146526047Y-102465142D01*
X146478428Y-102512761D01*
X146383190Y-102560380D01*
X146240333Y-102560380D01*
X147145095Y-102560380D02*
X147049857Y-102512761D01*
X147002238Y-102465142D01*
X146954619Y-102369904D01*
X146954619Y-102084190D01*
X147002238Y-101988952D01*
X147049857Y-101941333D01*
X147145095Y-101893714D01*
X147287952Y-101893714D01*
X147383190Y-101941333D01*
X147430809Y-101988952D01*
X147478428Y-102084190D01*
X147478428Y-102369904D01*
X147430809Y-102465142D01*
X147383190Y-102512761D01*
X147287952Y-102560380D01*
X147145095Y-102560380D01*
X147907000Y-102560380D02*
X147907000Y-101893714D01*
X147907000Y-102084190D02*
X147954619Y-101988952D01*
X148002238Y-101941333D01*
X148097476Y-101893714D01*
X148192714Y-101893714D01*
X148907000Y-102512761D02*
X148811761Y-102560380D01*
X148621285Y-102560380D01*
X148526047Y-102512761D01*
X148478428Y-102417523D01*
X148478428Y-102036571D01*
X148526047Y-101941333D01*
X148621285Y-101893714D01*
X148811761Y-101893714D01*
X148907000Y-101941333D01*
X148954619Y-102036571D01*
X148954619Y-102131809D01*
X148478428Y-102227047D01*
X149383190Y-102560380D02*
X149383190Y-101560380D01*
X149478428Y-102179428D02*
X149764142Y-102560380D01*
X149764142Y-101893714D02*
X149383190Y-102274666D01*
X150573666Y-102512761D02*
X150478428Y-102560380D01*
X150287952Y-102560380D01*
X150192714Y-102512761D01*
X150145095Y-102417523D01*
X150145095Y-102036571D01*
X150192714Y-101941333D01*
X150287952Y-101893714D01*
X150478428Y-101893714D01*
X150573666Y-101941333D01*
X150621285Y-102036571D01*
X150621285Y-102131809D01*
X150145095Y-102227047D01*
X150954619Y-101893714D02*
X151192714Y-102560380D01*
X151430809Y-101893714D02*
X151192714Y-102560380D01*
X151097476Y-102798476D01*
X151049857Y-102846095D01*
X150954619Y-102893714D01*
X151811761Y-102560380D02*
X151811761Y-101560380D01*
X151811761Y-101941333D02*
X151907000Y-101893714D01*
X152097476Y-101893714D01*
X152192714Y-101941333D01*
X152240333Y-101988952D01*
X152287952Y-102084190D01*
X152287952Y-102369904D01*
X152240333Y-102465142D01*
X152192714Y-102512761D01*
X152097476Y-102560380D01*
X151907000Y-102560380D01*
X151811761Y-102512761D01*
X152859380Y-102560380D02*
X152764142Y-102512761D01*
X152716523Y-102465142D01*
X152668904Y-102369904D01*
X152668904Y-102084190D01*
X152716523Y-101988952D01*
X152764142Y-101941333D01*
X152859380Y-101893714D01*
X153002238Y-101893714D01*
X153097476Y-101941333D01*
X153145095Y-101988952D01*
X153192714Y-102084190D01*
X153192714Y-102369904D01*
X153145095Y-102465142D01*
X153097476Y-102512761D01*
X153002238Y-102560380D01*
X152859380Y-102560380D01*
X154049857Y-102560380D02*
X154049857Y-102036571D01*
X154002238Y-101941333D01*
X153907000Y-101893714D01*
X153716523Y-101893714D01*
X153621285Y-101941333D01*
X154049857Y-102512761D02*
X153954619Y-102560380D01*
X153716523Y-102560380D01*
X153621285Y-102512761D01*
X153573666Y-102417523D01*
X153573666Y-102322285D01*
X153621285Y-102227047D01*
X153716523Y-102179428D01*
X153954619Y-102179428D01*
X154049857Y-102131809D01*
X154526047Y-102560380D02*
X154526047Y-101893714D01*
X154526047Y-102084190D02*
X154573666Y-101988952D01*
X154621285Y-101941333D01*
X154716523Y-101893714D01*
X154811761Y-101893714D01*
X155573666Y-102560380D02*
X155573666Y-101560380D01*
X155573666Y-102512761D02*
X155478428Y-102560380D01*
X155287952Y-102560380D01*
X155192714Y-102512761D01*
X155145095Y-102465142D01*
X155097476Y-102369904D01*
X155097476Y-102084190D01*
X155145095Y-101988952D01*
X155192714Y-101941333D01*
X155287952Y-101893714D01*
X155478428Y-101893714D01*
X155573666Y-101941333D01*
X156002238Y-102512761D02*
X156097476Y-102560380D01*
X156287952Y-102560380D01*
X156383190Y-102512761D01*
X156430809Y-102417523D01*
X156430809Y-102369904D01*
X156383190Y-102274666D01*
X156287952Y-102227047D01*
X156145095Y-102227047D01*
X156049857Y-102179428D01*
X156002238Y-102084190D01*
X156002238Y-102036571D01*
X156049857Y-101941333D01*
X156145095Y-101893714D01*
X156287952Y-101893714D01*
X156383190Y-101941333D01*
X159243761Y-104433714D02*
X159243761Y-105243238D01*
X159196142Y-105338476D01*
X159148523Y-105386095D01*
X159053285Y-105433714D01*
X158910428Y-105433714D01*
X158815190Y-105386095D01*
X159243761Y-105052761D02*
X159148523Y-105100380D01*
X158958047Y-105100380D01*
X158862809Y-105052761D01*
X158815190Y-105005142D01*
X158767571Y-104909904D01*
X158767571Y-104624190D01*
X158815190Y-104528952D01*
X158862809Y-104481333D01*
X158958047Y-104433714D01*
X159148523Y-104433714D01*
X159243761Y-104481333D01*
X159719952Y-105100380D02*
X159719952Y-104433714D01*
X159719952Y-104100380D02*
X159672333Y-104148000D01*
X159719952Y-104195619D01*
X159767571Y-104148000D01*
X159719952Y-104100380D01*
X159719952Y-104195619D01*
X160053285Y-104433714D02*
X160434238Y-104433714D01*
X160196142Y-104100380D02*
X160196142Y-104957523D01*
X160243761Y-105052761D01*
X160339000Y-105100380D01*
X160434238Y-105100380D01*
X160767571Y-105100380D02*
X160767571Y-104100380D01*
X161196142Y-105100380D02*
X161196142Y-104576571D01*
X161148523Y-104481333D01*
X161053285Y-104433714D01*
X160910428Y-104433714D01*
X160815190Y-104481333D01*
X160767571Y-104528952D01*
X162100904Y-104433714D02*
X162100904Y-105100380D01*
X161672333Y-104433714D02*
X161672333Y-104957523D01*
X161719952Y-105052761D01*
X161815190Y-105100380D01*
X161958047Y-105100380D01*
X162053285Y-105052761D01*
X162100904Y-105005142D01*
X162577095Y-105100380D02*
X162577095Y-104100380D01*
X162577095Y-104481333D02*
X162672333Y-104433714D01*
X162862809Y-104433714D01*
X162958047Y-104481333D01*
X163005666Y-104528952D01*
X163053285Y-104624190D01*
X163053285Y-104909904D01*
X163005666Y-105005142D01*
X162958047Y-105052761D01*
X162862809Y-105100380D01*
X162672333Y-105100380D01*
X162577095Y-105052761D01*
X163481857Y-105005142D02*
X163529476Y-105052761D01*
X163481857Y-105100380D01*
X163434238Y-105052761D01*
X163481857Y-105005142D01*
X163481857Y-105100380D01*
X164386619Y-105052761D02*
X164291380Y-105100380D01*
X164100904Y-105100380D01*
X164005666Y-105052761D01*
X163958047Y-105005142D01*
X163910428Y-104909904D01*
X163910428Y-104624190D01*
X163958047Y-104528952D01*
X164005666Y-104481333D01*
X164100904Y-104433714D01*
X164291380Y-104433714D01*
X164386619Y-104481333D01*
X164958047Y-105100380D02*
X164862809Y-105052761D01*
X164815190Y-105005142D01*
X164767571Y-104909904D01*
X164767571Y-104624190D01*
X164815190Y-104528952D01*
X164862809Y-104481333D01*
X164958047Y-104433714D01*
X165100904Y-104433714D01*
X165196142Y-104481333D01*
X165243761Y-104528952D01*
X165291380Y-104624190D01*
X165291380Y-104909904D01*
X165243761Y-105005142D01*
X165196142Y-105052761D01*
X165100904Y-105100380D01*
X164958047Y-105100380D01*
X165719952Y-105100380D02*
X165719952Y-104433714D01*
X165719952Y-104528952D02*
X165767571Y-104481333D01*
X165862809Y-104433714D01*
X166005666Y-104433714D01*
X166100904Y-104481333D01*
X166148523Y-104576571D01*
X166148523Y-105100380D01*
X166148523Y-104576571D02*
X166196142Y-104481333D01*
X166291380Y-104433714D01*
X166434238Y-104433714D01*
X166529476Y-104481333D01*
X166577095Y-104576571D01*
X166577095Y-105100380D01*
X167767571Y-104052761D02*
X166910428Y-105338476D01*
X168434238Y-104576571D02*
X168100904Y-104576571D01*
X168100904Y-105100380D02*
X168100904Y-104100380D01*
X168577095Y-104100380D01*
X168910428Y-105052761D02*
X169053285Y-105100380D01*
X169291380Y-105100380D01*
X169386619Y-105052761D01*
X169434238Y-105005142D01*
X169481857Y-104909904D01*
X169481857Y-104814666D01*
X169434238Y-104719428D01*
X169386619Y-104671809D01*
X169291380Y-104624190D01*
X169100904Y-104576571D01*
X169005666Y-104528952D01*
X168958047Y-104481333D01*
X168910428Y-104386095D01*
X168910428Y-104290857D01*
X168958047Y-104195619D01*
X169005666Y-104148000D01*
X169100904Y-104100380D01*
X169338999Y-104100380D01*
X169481857Y-104148000D01*
X170338999Y-104433714D02*
X170338999Y-105100380D01*
X169910428Y-104433714D02*
X169910428Y-104957523D01*
X169958047Y-105052761D01*
X170053285Y-105100380D01*
X170196142Y-105100380D01*
X170291380Y-105052761D01*
X170338999Y-105005142D01*
X170815190Y-104433714D02*
X170815190Y-105100380D01*
X170815190Y-104528952D02*
X170862809Y-104481333D01*
X170958047Y-104433714D01*
X171100904Y-104433714D01*
X171196142Y-104481333D01*
X171243761Y-104576571D01*
X171243761Y-105100380D01*
X172148523Y-105100380D02*
X172148523Y-104100380D01*
X172148523Y-105052761D02*
X172053285Y-105100380D01*
X171862809Y-105100380D01*
X171767571Y-105052761D01*
X171719952Y-105005142D01*
X171672333Y-104909904D01*
X171672333Y-104624190D01*
X171719952Y-104528952D01*
X171767571Y-104481333D01*
X171862809Y-104433714D01*
X172053285Y-104433714D01*
X172148523Y-104481333D01*
X173338999Y-104052761D02*
X172481857Y-105338476D01*
X173672333Y-104433714D02*
X173672333Y-105433714D01*
X173672333Y-104481333D02*
X173767571Y-104433714D01*
X173958047Y-104433714D01*
X174053285Y-104481333D01*
X174100904Y-104528952D01*
X174148523Y-104624190D01*
X174148523Y-104909904D01*
X174100904Y-105005142D01*
X174053285Y-105052761D01*
X173958047Y-105100380D01*
X173767571Y-105100380D01*
X173672333Y-105052761D01*
X174434238Y-104433714D02*
X174815190Y-104433714D01*
X174577095Y-104100380D02*
X174577095Y-104957523D01*
X174624714Y-105052761D01*
X174719952Y-105100380D01*
X174815190Y-105100380D01*
X175529476Y-105052761D02*
X175434238Y-105100380D01*
X175243761Y-105100380D01*
X175148523Y-105052761D01*
X175100904Y-104957523D01*
X175100904Y-104576571D01*
X175148523Y-104481333D01*
X175243761Y-104433714D01*
X175434238Y-104433714D01*
X175529476Y-104481333D01*
X175577095Y-104576571D01*
X175577095Y-104671809D01*
X175100904Y-104767047D01*
X176005666Y-105100380D02*
X176005666Y-104433714D01*
X176005666Y-104624190D02*
X176053285Y-104528952D01*
X176100904Y-104481333D01*
X176196142Y-104433714D01*
X176291380Y-104433714D01*
X176767571Y-105100380D02*
X176672333Y-105052761D01*
X176624714Y-105005142D01*
X176577095Y-104909904D01*
X176577095Y-104624190D01*
X176624714Y-104528952D01*
X176672333Y-104481333D01*
X176767571Y-104433714D01*
X176910428Y-104433714D01*
X177005666Y-104481333D01*
X177053285Y-104528952D01*
X177100904Y-104624190D01*
X177100904Y-104909904D01*
X177053285Y-105005142D01*
X177005666Y-105052761D01*
X176910428Y-105100380D01*
X176767571Y-105100380D01*
X177529476Y-104433714D02*
X177529476Y-105100380D01*
X177529476Y-104528952D02*
X177577095Y-104481333D01*
X177672333Y-104433714D01*
X177815190Y-104433714D01*
X177910428Y-104481333D01*
X177958047Y-104576571D01*
X177958047Y-105100380D01*
X178434238Y-104719428D02*
X179196142Y-104719428D01*
X179672333Y-105100380D02*
X179672333Y-104100380D01*
X179767571Y-104719428D02*
X180053285Y-105100380D01*
X180053285Y-104433714D02*
X179672333Y-104814666D01*
X180862809Y-105052761D02*
X180767571Y-105100380D01*
X180577095Y-105100380D01*
X180481857Y-105052761D01*
X180434238Y-104957523D01*
X180434238Y-104576571D01*
X180481857Y-104481333D01*
X180577095Y-104433714D01*
X180767571Y-104433714D01*
X180862809Y-104481333D01*
X180910428Y-104576571D01*
X180910428Y-104671809D01*
X180434238Y-104767047D01*
X181243761Y-104433714D02*
X181481857Y-105100380D01*
X181719952Y-104433714D02*
X181481857Y-105100380D01*
X181386619Y-105338476D01*
X181338999Y-105386095D01*
X181243761Y-105433714D01*
X182100904Y-105100380D02*
X182100904Y-104100380D01*
X182100904Y-104481333D02*
X182196142Y-104433714D01*
X182386619Y-104433714D01*
X182481857Y-104481333D01*
X182529476Y-104528952D01*
X182577095Y-104624190D01*
X182577095Y-104909904D01*
X182529476Y-105005142D01*
X182481857Y-105052761D01*
X182386619Y-105100380D01*
X182196142Y-105100380D01*
X182100904Y-105052761D01*
X183148523Y-105100380D02*
X183053285Y-105052761D01*
X183005666Y-105005142D01*
X182958047Y-104909904D01*
X182958047Y-104624190D01*
X183005666Y-104528952D01*
X183053285Y-104481333D01*
X183148523Y-104433714D01*
X183291380Y-104433714D01*
X183386619Y-104481333D01*
X183434238Y-104528952D01*
X183481857Y-104624190D01*
X183481857Y-104909904D01*
X183434238Y-105005142D01*
X183386619Y-105052761D01*
X183291380Y-105100380D01*
X183148523Y-105100380D01*
X184338999Y-105100380D02*
X184338999Y-104576571D01*
X184291380Y-104481333D01*
X184196142Y-104433714D01*
X184005666Y-104433714D01*
X183910428Y-104481333D01*
X184338999Y-105052761D02*
X184243761Y-105100380D01*
X184005666Y-105100380D01*
X183910428Y-105052761D01*
X183862809Y-104957523D01*
X183862809Y-104862285D01*
X183910428Y-104767047D01*
X184005666Y-104719428D01*
X184243761Y-104719428D01*
X184338999Y-104671809D01*
X184815190Y-105100380D02*
X184815190Y-104433714D01*
X184815190Y-104624190D02*
X184862809Y-104528952D01*
X184910428Y-104481333D01*
X185005666Y-104433714D01*
X185100904Y-104433714D01*
X185862809Y-105100380D02*
X185862809Y-104100380D01*
X185862809Y-105052761D02*
X185767571Y-105100380D01*
X185577095Y-105100380D01*
X185481857Y-105052761D01*
X185434238Y-105005142D01*
X185386619Y-104909904D01*
X185386619Y-104624190D01*
X185434238Y-104528952D01*
X185481857Y-104481333D01*
X185577095Y-104433714D01*
X185767571Y-104433714D01*
X185862809Y-104481333D01*
D13*
X162958000Y-100012571D02*
X162958000Y-98512571D01*
X163529428Y-98512571D01*
X163672285Y-98584000D01*
X163743714Y-98655428D01*
X163815142Y-98798285D01*
X163815142Y-99012571D01*
X163743714Y-99155428D01*
X163672285Y-99226857D01*
X163529428Y-99298285D01*
X162958000Y-99298285D01*
X164243714Y-99012571D02*
X164815142Y-99012571D01*
X164458000Y-98512571D02*
X164458000Y-99798285D01*
X164529428Y-99941142D01*
X164672285Y-100012571D01*
X164815142Y-100012571D01*
X165886571Y-99941142D02*
X165743714Y-100012571D01*
X165458000Y-100012571D01*
X165315142Y-99941142D01*
X165243714Y-99798285D01*
X165243714Y-99226857D01*
X165315142Y-99084000D01*
X165458000Y-99012571D01*
X165743714Y-99012571D01*
X165886571Y-99084000D01*
X165958000Y-99226857D01*
X165958000Y-99369714D01*
X165243714Y-99512571D01*
X166600857Y-100012571D02*
X166600857Y-99012571D01*
X166600857Y-99298285D02*
X166672285Y-99155428D01*
X166743714Y-99084000D01*
X166886571Y-99012571D01*
X167029428Y-99012571D01*
X167743714Y-100012571D02*
X167600857Y-99941142D01*
X167529428Y-99869714D01*
X167458000Y-99726857D01*
X167458000Y-99298285D01*
X167529428Y-99155428D01*
X167600857Y-99084000D01*
X167743714Y-99012571D01*
X167958000Y-99012571D01*
X168100857Y-99084000D01*
X168172285Y-99155428D01*
X168243714Y-99298285D01*
X168243714Y-99726857D01*
X168172285Y-99869714D01*
X168100857Y-99941142D01*
X167958000Y-100012571D01*
X167743714Y-100012571D01*
X168886571Y-99012571D02*
X168886571Y-100012571D01*
X168886571Y-99155428D02*
X168958000Y-99084000D01*
X169100857Y-99012571D01*
X169315142Y-99012571D01*
X169458000Y-99084000D01*
X169529428Y-99226857D01*
X169529428Y-100012571D01*
X171386571Y-100012571D02*
X171386571Y-98512571D01*
X172243714Y-100012571D02*
X171600857Y-99155428D01*
X172243714Y-98512571D02*
X171386571Y-99369714D01*
X173458000Y-99941142D02*
X173315142Y-100012571D01*
X173029428Y-100012571D01*
X172886571Y-99941142D01*
X172815142Y-99798285D01*
X172815142Y-99226857D01*
X172886571Y-99084000D01*
X173029428Y-99012571D01*
X173315142Y-99012571D01*
X173458000Y-99084000D01*
X173529428Y-99226857D01*
X173529428Y-99369714D01*
X172815142Y-99512571D01*
X174029428Y-99012571D02*
X174386571Y-100012571D01*
X174743714Y-99012571D02*
X174386571Y-100012571D01*
X174243714Y-100369714D01*
X174172285Y-100441142D01*
X174029428Y-100512571D01*
X175315142Y-100012571D02*
X175315142Y-98512571D01*
X175315142Y-99084000D02*
X175458000Y-99012571D01*
X175743714Y-99012571D01*
X175886571Y-99084000D01*
X175958000Y-99155428D01*
X176029428Y-99298285D01*
X176029428Y-99726857D01*
X175958000Y-99869714D01*
X175886571Y-99941142D01*
X175743714Y-100012571D01*
X175458000Y-100012571D01*
X175315142Y-99941142D01*
X176886571Y-100012571D02*
X176743714Y-99941142D01*
X176672285Y-99869714D01*
X176600857Y-99726857D01*
X176600857Y-99298285D01*
X176672285Y-99155428D01*
X176743714Y-99084000D01*
X176886571Y-99012571D01*
X177100857Y-99012571D01*
X177243714Y-99084000D01*
X177315142Y-99155428D01*
X177386571Y-99298285D01*
X177386571Y-99726857D01*
X177315142Y-99869714D01*
X177243714Y-99941142D01*
X177100857Y-100012571D01*
X176886571Y-100012571D01*
X178672285Y-100012571D02*
X178672285Y-99226857D01*
X178600857Y-99084000D01*
X178458000Y-99012571D01*
X178172285Y-99012571D01*
X178029428Y-99084000D01*
X178672285Y-99941142D02*
X178529428Y-100012571D01*
X178172285Y-100012571D01*
X178029428Y-99941142D01*
X177958000Y-99798285D01*
X177958000Y-99655428D01*
X178029428Y-99512571D01*
X178172285Y-99441142D01*
X178529428Y-99441142D01*
X178672285Y-99369714D01*
X179386571Y-100012571D02*
X179386571Y-99012571D01*
X179386571Y-99298285D02*
X179458000Y-99155428D01*
X179529428Y-99084000D01*
X179672285Y-99012571D01*
X179815142Y-99012571D01*
X180958000Y-100012571D02*
X180958000Y-98512571D01*
X180958000Y-99941142D02*
X180815142Y-100012571D01*
X180529428Y-100012571D01*
X180386571Y-99941142D01*
X180315142Y-99869714D01*
X180243714Y-99726857D01*
X180243714Y-99298285D01*
X180315142Y-99155428D01*
X180386571Y-99084000D01*
X180529428Y-99012571D01*
X180815142Y-99012571D01*
X180958000Y-99084000D01*
X162208000Y-102512571D02*
X162208000Y-101012571D01*
X162208000Y-102441142D02*
X162065142Y-102512571D01*
X161779428Y-102512571D01*
X161636571Y-102441142D01*
X161565142Y-102369714D01*
X161493714Y-102226857D01*
X161493714Y-101798285D01*
X161565142Y-101655428D01*
X161636571Y-101584000D01*
X161779428Y-101512571D01*
X162065142Y-101512571D01*
X162208000Y-101584000D01*
X163493714Y-102441142D02*
X163350857Y-102512571D01*
X163065142Y-102512571D01*
X162922285Y-102441142D01*
X162850857Y-102298285D01*
X162850857Y-101726857D01*
X162922285Y-101584000D01*
X163065142Y-101512571D01*
X163350857Y-101512571D01*
X163493714Y-101584000D01*
X163565142Y-101726857D01*
X163565142Y-101869714D01*
X162850857Y-102012571D01*
X164136571Y-102441142D02*
X164279428Y-102512571D01*
X164565142Y-102512571D01*
X164708000Y-102441142D01*
X164779428Y-102298285D01*
X164779428Y-102226857D01*
X164708000Y-102084000D01*
X164565142Y-102012571D01*
X164350857Y-102012571D01*
X164208000Y-101941142D01*
X164136571Y-101798285D01*
X164136571Y-101726857D01*
X164208000Y-101584000D01*
X164350857Y-101512571D01*
X164565142Y-101512571D01*
X164708000Y-101584000D01*
X165422285Y-102512571D02*
X165422285Y-101512571D01*
X165422285Y-101012571D02*
X165350857Y-101084000D01*
X165422285Y-101155428D01*
X165493714Y-101084000D01*
X165422285Y-101012571D01*
X165422285Y-101155428D01*
X166779428Y-101512571D02*
X166779428Y-102726857D01*
X166708000Y-102869714D01*
X166636571Y-102941142D01*
X166493714Y-103012571D01*
X166279428Y-103012571D01*
X166136571Y-102941142D01*
X166779428Y-102441142D02*
X166636571Y-102512571D01*
X166350857Y-102512571D01*
X166208000Y-102441142D01*
X166136571Y-102369714D01*
X166065142Y-102226857D01*
X166065142Y-101798285D01*
X166136571Y-101655428D01*
X166208000Y-101584000D01*
X166350857Y-101512571D01*
X166636571Y-101512571D01*
X166779428Y-101584000D01*
X167493714Y-101512571D02*
X167493714Y-102512571D01*
X167493714Y-101655428D02*
X167565142Y-101584000D01*
X167708000Y-101512571D01*
X167922285Y-101512571D01*
X168065142Y-101584000D01*
X168136571Y-101726857D01*
X168136571Y-102512571D01*
X169422285Y-102441142D02*
X169279428Y-102512571D01*
X168993714Y-102512571D01*
X168850857Y-102441142D01*
X168779428Y-102298285D01*
X168779428Y-101726857D01*
X168850857Y-101584000D01*
X168993714Y-101512571D01*
X169279428Y-101512571D01*
X169422285Y-101584000D01*
X169493714Y-101726857D01*
X169493714Y-101869714D01*
X168779428Y-102012571D01*
X170779428Y-102512571D02*
X170779428Y-101012571D01*
X170779428Y-102441142D02*
X170636571Y-102512571D01*
X170350857Y-102512571D01*
X170208000Y-102441142D01*
X170136571Y-102369714D01*
X170065142Y-102226857D01*
X170065142Y-101798285D01*
X170136571Y-101655428D01*
X170208000Y-101584000D01*
X170350857Y-101512571D01*
X170636571Y-101512571D01*
X170779428Y-101584000D01*
X172636571Y-102512571D02*
X172636571Y-101012571D01*
X172636571Y-101584000D02*
X172779428Y-101512571D01*
X173065142Y-101512571D01*
X173208000Y-101584000D01*
X173279428Y-101655428D01*
X173350857Y-101798285D01*
X173350857Y-102226857D01*
X173279428Y-102369714D01*
X173208000Y-102441142D01*
X173065142Y-102512571D01*
X172779428Y-102512571D01*
X172636571Y-102441142D01*
X173850857Y-101512571D02*
X174208000Y-102512571D01*
X174565142Y-101512571D02*
X174208000Y-102512571D01*
X174065142Y-102869714D01*
X173993714Y-102941142D01*
X173850857Y-103012571D01*
X176779428Y-101726857D02*
X176279428Y-101726857D01*
X176279428Y-102512571D02*
X176279428Y-101012571D01*
X176993714Y-101012571D01*
X177493714Y-102441142D02*
X177708000Y-102512571D01*
X178065142Y-102512571D01*
X178208000Y-102441142D01*
X178279428Y-102369714D01*
X178350857Y-102226857D01*
X178350857Y-102084000D01*
X178279428Y-101941142D01*
X178208000Y-101869714D01*
X178065142Y-101798285D01*
X177779428Y-101726857D01*
X177636571Y-101655428D01*
X177565142Y-101584000D01*
X177493714Y-101441142D01*
X177493714Y-101298285D01*
X177565142Y-101155428D01*
X177636571Y-101084000D01*
X177779428Y-101012571D01*
X178136571Y-101012571D01*
X178350857Y-101084000D01*
X179636571Y-101512571D02*
X179636571Y-102512571D01*
X178993714Y-101512571D02*
X178993714Y-102298285D01*
X179065142Y-102441142D01*
X179208000Y-102512571D01*
X179422285Y-102512571D01*
X179565142Y-102441142D01*
X179636571Y-102369714D01*
X180350857Y-101512571D02*
X180350857Y-102512571D01*
X180350857Y-101655428D02*
X180422285Y-101584000D01*
X180565142Y-101512571D01*
X180779428Y-101512571D01*
X180922285Y-101584000D01*
X180993714Y-101726857D01*
X180993714Y-102512571D01*
X182350857Y-102512571D02*
X182350857Y-101012571D01*
X182350857Y-102441142D02*
X182208000Y-102512571D01*
X181922285Y-102512571D01*
X181779428Y-102441142D01*
X181708000Y-102369714D01*
X181636571Y-102226857D01*
X181636571Y-101798285D01*
X181708000Y-101655428D01*
X181779428Y-101584000D01*
X181922285Y-101512571D01*
X182208000Y-101512571D01*
X182350857Y-101584000D01*
D11*
X85574238Y-66930809D02*
X85526619Y-67073666D01*
X85526619Y-67311761D01*
X85574238Y-67407000D01*
X85621857Y-67454619D01*
X85717095Y-67502238D01*
X85812333Y-67502238D01*
X85907571Y-67454619D01*
X85955190Y-67407000D01*
X86002809Y-67311761D01*
X86050428Y-67121285D01*
X86098047Y-67026047D01*
X86145666Y-66978428D01*
X86240904Y-66930809D01*
X86336142Y-66930809D01*
X86431380Y-66978428D01*
X86479000Y-67026047D01*
X86526619Y-67121285D01*
X86526619Y-67359380D01*
X86479000Y-67502238D01*
X86193285Y-67930809D02*
X85193285Y-67930809D01*
X86145666Y-67930809D02*
X86193285Y-68026047D01*
X86193285Y-68216523D01*
X86145666Y-68311761D01*
X86098047Y-68359380D01*
X86002809Y-68407000D01*
X85717095Y-68407000D01*
X85621857Y-68359380D01*
X85574238Y-68311761D01*
X85526619Y-68216523D01*
X85526619Y-68026047D01*
X85574238Y-67930809D01*
X85526619Y-68978428D02*
X85574238Y-68883190D01*
X85669476Y-68835571D01*
X86526619Y-68835571D01*
X85526619Y-69359380D02*
X86193285Y-69359380D01*
X86526619Y-69359380D02*
X86479000Y-69311761D01*
X86431380Y-69359380D01*
X86479000Y-69407000D01*
X86526619Y-69359380D01*
X86431380Y-69359380D01*
X86193285Y-69692714D02*
X86193285Y-70073666D01*
X86526619Y-69835571D02*
X85669476Y-69835571D01*
X85574238Y-69883190D01*
X85526619Y-69978428D01*
X85526619Y-70073666D01*
X85526619Y-71168904D02*
X86526619Y-71168904D01*
X86526619Y-71549857D01*
X86479000Y-71645095D01*
X86431380Y-71692714D01*
X86336142Y-71740333D01*
X86193285Y-71740333D01*
X86098047Y-71692714D01*
X86050428Y-71645095D01*
X86002809Y-71549857D01*
X86002809Y-71168904D01*
X85621857Y-72740333D02*
X85574238Y-72692714D01*
X85526619Y-72549857D01*
X85526619Y-72454619D01*
X85574238Y-72311761D01*
X85669476Y-72216523D01*
X85764714Y-72168904D01*
X85955190Y-72121285D01*
X86098047Y-72121285D01*
X86288523Y-72168904D01*
X86383761Y-72216523D01*
X86479000Y-72311761D01*
X86526619Y-72454619D01*
X86526619Y-72549857D01*
X86479000Y-72692714D01*
X86431380Y-72740333D01*
X86050428Y-73502238D02*
X86002809Y-73645095D01*
X85955190Y-73692714D01*
X85859952Y-73740333D01*
X85717095Y-73740333D01*
X85621857Y-73692714D01*
X85574238Y-73645095D01*
X85526619Y-73549857D01*
X85526619Y-73168904D01*
X86526619Y-73168904D01*
X86526619Y-73502238D01*
X86479000Y-73597476D01*
X86431380Y-73645095D01*
X86336142Y-73692714D01*
X86240904Y-73692714D01*
X86145666Y-73645095D01*
X86098047Y-73597476D01*
X86050428Y-73502238D01*
X86050428Y-73168904D01*
X85526619Y-75359380D02*
X86526619Y-75359380D01*
X85574238Y-75359380D02*
X85526619Y-75264142D01*
X85526619Y-75073666D01*
X85574238Y-74978428D01*
X85621857Y-74930809D01*
X85717095Y-74883190D01*
X86002809Y-74883190D01*
X86098047Y-74930809D01*
X86145666Y-74978428D01*
X86193285Y-75073666D01*
X86193285Y-75264142D01*
X86145666Y-75359380D01*
X85574238Y-76216523D02*
X85526619Y-76121285D01*
X85526619Y-75930809D01*
X85574238Y-75835571D01*
X85669476Y-75787952D01*
X86050428Y-75787952D01*
X86145666Y-75835571D01*
X86193285Y-75930809D01*
X86193285Y-76121285D01*
X86145666Y-76216523D01*
X86050428Y-76264142D01*
X85955190Y-76264142D01*
X85859952Y-75787952D01*
X85574238Y-76645095D02*
X85526619Y-76740333D01*
X85526619Y-76930809D01*
X85574238Y-77026047D01*
X85669476Y-77073666D01*
X85717095Y-77073666D01*
X85812333Y-77026047D01*
X85859952Y-76930809D01*
X85859952Y-76787952D01*
X85907571Y-76692714D01*
X86002809Y-76645095D01*
X86050428Y-76645095D01*
X86145666Y-76692714D01*
X86193285Y-76787952D01*
X86193285Y-76930809D01*
X86145666Y-77026047D01*
X85526619Y-77502238D02*
X86193285Y-77502238D01*
X86526619Y-77502238D02*
X86479000Y-77454619D01*
X86431380Y-77502238D01*
X86479000Y-77549857D01*
X86526619Y-77502238D01*
X86431380Y-77502238D01*
X86193285Y-78407000D02*
X85383761Y-78407000D01*
X85288523Y-78359380D01*
X85240904Y-78311761D01*
X85193285Y-78216523D01*
X85193285Y-78073666D01*
X85240904Y-77978428D01*
X85574238Y-78407000D02*
X85526619Y-78311761D01*
X85526619Y-78121285D01*
X85574238Y-78026047D01*
X85621857Y-77978428D01*
X85717095Y-77930809D01*
X86002809Y-77930809D01*
X86098047Y-77978428D01*
X86145666Y-78026047D01*
X86193285Y-78121285D01*
X86193285Y-78311761D01*
X86145666Y-78407000D01*
X86193285Y-78883190D02*
X85526619Y-78883190D01*
X86098047Y-78883190D02*
X86145666Y-78930809D01*
X86193285Y-79026047D01*
X86193285Y-79168904D01*
X86145666Y-79264142D01*
X86050428Y-79311761D01*
X85526619Y-79311761D01*
X85574238Y-80168904D02*
X85526619Y-80073666D01*
X85526619Y-79883190D01*
X85574238Y-79787952D01*
X85669476Y-79740333D01*
X86050428Y-79740333D01*
X86145666Y-79787952D01*
X86193285Y-79883190D01*
X86193285Y-80073666D01*
X86145666Y-80168904D01*
X86050428Y-80216523D01*
X85955190Y-80216523D01*
X85859952Y-79740333D01*
X85526619Y-81073666D02*
X86526619Y-81073666D01*
X85574238Y-81073666D02*
X85526619Y-80978428D01*
X85526619Y-80787952D01*
X85574238Y-80692714D01*
X85621857Y-80645095D01*
X85717095Y-80597476D01*
X86002809Y-80597476D01*
X86098047Y-80645095D01*
X86145666Y-80692714D01*
X86193285Y-80787952D01*
X86193285Y-80978428D01*
X86145666Y-81073666D01*
X86193285Y-82168904D02*
X86193285Y-82549857D01*
X85526619Y-82311761D02*
X86383761Y-82311761D01*
X86479000Y-82359380D01*
X86526619Y-82454619D01*
X86526619Y-82549857D01*
X85526619Y-83026047D02*
X85574238Y-82930809D01*
X85621857Y-82883190D01*
X85717095Y-82835571D01*
X86002809Y-82835571D01*
X86098047Y-82883190D01*
X86145666Y-82930809D01*
X86193285Y-83026047D01*
X86193285Y-83168904D01*
X86145666Y-83264142D01*
X86098047Y-83311761D01*
X86002809Y-83359380D01*
X85717095Y-83359380D01*
X85621857Y-83311761D01*
X85574238Y-83264142D01*
X85526619Y-83168904D01*
X85526619Y-83026047D01*
X85526619Y-83787952D02*
X86193285Y-83787952D01*
X86002809Y-83787952D02*
X86098047Y-83835571D01*
X86145666Y-83883190D01*
X86193285Y-83978428D01*
X86193285Y-84073666D01*
X85526619Y-85168904D02*
X86193285Y-85168904D01*
X86098047Y-85168904D02*
X86145666Y-85216523D01*
X86193285Y-85311761D01*
X86193285Y-85454619D01*
X86145666Y-85549857D01*
X86050428Y-85597476D01*
X85526619Y-85597476D01*
X86050428Y-85597476D02*
X86145666Y-85645095D01*
X86193285Y-85740333D01*
X86193285Y-85883190D01*
X86145666Y-85978428D01*
X86050428Y-86026047D01*
X85526619Y-86026047D01*
X85526619Y-86502238D02*
X86193285Y-86502238D01*
X86526619Y-86502238D02*
X86479000Y-86454619D01*
X86431380Y-86502238D01*
X86479000Y-86549857D01*
X86526619Y-86502238D01*
X86431380Y-86502238D01*
X85526619Y-86978428D02*
X86193285Y-86978428D01*
X86002809Y-86978428D02*
X86098047Y-87026047D01*
X86145666Y-87073666D01*
X86193285Y-87168904D01*
X86193285Y-87264142D01*
X86193285Y-87502238D02*
X85526619Y-87740333D01*
X86193285Y-87978428D02*
X85526619Y-87740333D01*
X85288523Y-87645095D01*
X85240904Y-87597476D01*
X85193285Y-87502238D01*
X85526619Y-88502238D02*
X85574238Y-88407000D01*
X85621857Y-88359380D01*
X85717095Y-88311761D01*
X86002809Y-88311761D01*
X86098047Y-88359380D01*
X86145666Y-88407000D01*
X86193285Y-88502238D01*
X86193285Y-88645095D01*
X86145666Y-88740333D01*
X86098047Y-88787952D01*
X86002809Y-88835571D01*
X85717095Y-88835571D01*
X85621857Y-88787952D01*
X85574238Y-88740333D01*
X85526619Y-88645095D01*
X85526619Y-88502238D01*
X85526619Y-89264142D02*
X86526619Y-89264142D01*
X85907571Y-89359380D02*
X85526619Y-89645095D01*
X86193285Y-89645095D02*
X85812333Y-89264142D01*
X86193285Y-90502238D02*
X85526619Y-90502238D01*
X86193285Y-90073666D02*
X85669476Y-90073666D01*
X85574238Y-90121285D01*
X85526619Y-90216523D01*
X85526619Y-90359380D01*
X85574238Y-90454619D01*
X85621857Y-90502238D01*
X85526619Y-91883190D02*
X85574238Y-91787952D01*
X85669476Y-91740333D01*
X86526619Y-91740333D01*
X85526619Y-92692714D02*
X86050428Y-92692714D01*
X86145666Y-92645095D01*
X86193285Y-92549857D01*
X86193285Y-92359380D01*
X86145666Y-92264142D01*
X85574238Y-92692714D02*
X85526619Y-92597476D01*
X85526619Y-92359380D01*
X85574238Y-92264142D01*
X85669476Y-92216523D01*
X85764714Y-92216523D01*
X85859952Y-92264142D01*
X85907571Y-92359380D01*
X85907571Y-92597476D01*
X85955190Y-92692714D01*
X86193285Y-93073666D02*
X85526619Y-93311761D01*
X86193285Y-93549857D02*
X85526619Y-93311761D01*
X85288523Y-93216523D01*
X85240904Y-93168904D01*
X85193285Y-93073666D01*
X85526619Y-94073666D02*
X85574238Y-93978428D01*
X85621857Y-93930809D01*
X85717095Y-93883190D01*
X86002809Y-93883190D01*
X86098047Y-93930809D01*
X86145666Y-93978428D01*
X86193285Y-94073666D01*
X86193285Y-94216523D01*
X86145666Y-94311761D01*
X86098047Y-94359380D01*
X86002809Y-94406999D01*
X85717095Y-94406999D01*
X85621857Y-94359380D01*
X85574238Y-94311761D01*
X85526619Y-94216523D01*
X85526619Y-94073666D01*
X86193285Y-95264142D02*
X85526619Y-95264142D01*
X86193285Y-94835571D02*
X85669476Y-94835571D01*
X85574238Y-94883190D01*
X85526619Y-94978428D01*
X85526619Y-95121285D01*
X85574238Y-95216523D01*
X85621857Y-95264142D01*
X86193285Y-95597476D02*
X86193285Y-95978428D01*
X86526619Y-95740333D02*
X85669476Y-95740333D01*
X85574238Y-95787952D01*
X85526619Y-95883190D01*
X85526619Y-95978428D01*
D13*
X133919428Y-95797857D02*
X134133714Y-95869285D01*
X134205142Y-95940714D01*
X134276571Y-96083571D01*
X134276571Y-96297857D01*
X134205142Y-96440714D01*
X134133714Y-96512142D01*
X133990857Y-96583571D01*
X133419428Y-96583571D01*
X133419428Y-95083571D01*
X133919428Y-95083571D01*
X134062285Y-95155000D01*
X134133714Y-95226428D01*
X134205142Y-95369285D01*
X134205142Y-95512142D01*
X134133714Y-95655000D01*
X134062285Y-95726428D01*
X133919428Y-95797857D01*
X133419428Y-95797857D01*
X135562285Y-96583571D02*
X135562285Y-95797857D01*
X135490857Y-95655000D01*
X135348000Y-95583571D01*
X135062285Y-95583571D01*
X134919428Y-95655000D01*
X135562285Y-96512142D02*
X135419428Y-96583571D01*
X135062285Y-96583571D01*
X134919428Y-96512142D01*
X134848000Y-96369285D01*
X134848000Y-96226428D01*
X134919428Y-96083571D01*
X135062285Y-96012142D01*
X135419428Y-96012142D01*
X135562285Y-95940714D01*
X136205142Y-96512142D02*
X136348000Y-96583571D01*
X136633714Y-96583571D01*
X136776571Y-96512142D01*
X136848000Y-96369285D01*
X136848000Y-96297857D01*
X136776571Y-96155000D01*
X136633714Y-96083571D01*
X136419428Y-96083571D01*
X136276571Y-96012142D01*
X136205142Y-95869285D01*
X136205142Y-95797857D01*
X136276571Y-95655000D01*
X136419428Y-95583571D01*
X136633714Y-95583571D01*
X136776571Y-95655000D01*
X138062285Y-96512142D02*
X137919428Y-96583571D01*
X137633714Y-96583571D01*
X137490857Y-96512142D01*
X137419428Y-96369285D01*
X137419428Y-95797857D01*
X137490857Y-95655000D01*
X137633714Y-95583571D01*
X137919428Y-95583571D01*
X138062285Y-95655000D01*
X138133714Y-95797857D01*
X138133714Y-95940714D01*
X137419428Y-96083571D01*
X139419428Y-96583571D02*
X139419428Y-95083571D01*
X139419428Y-96512142D02*
X139276571Y-96583571D01*
X138990857Y-96583571D01*
X138848000Y-96512142D01*
X138776571Y-96440714D01*
X138705142Y-96297857D01*
X138705142Y-95869285D01*
X138776571Y-95726428D01*
X138848000Y-95655000D01*
X138990857Y-95583571D01*
X139276571Y-95583571D01*
X139419428Y-95655000D01*
X141490857Y-96583571D02*
X141348000Y-96512142D01*
X141276571Y-96440714D01*
X141205142Y-96297857D01*
X141205142Y-95869285D01*
X141276571Y-95726428D01*
X141348000Y-95655000D01*
X141490857Y-95583571D01*
X141705142Y-95583571D01*
X141848000Y-95655000D01*
X141919428Y-95726428D01*
X141990857Y-95869285D01*
X141990857Y-96297857D01*
X141919428Y-96440714D01*
X141848000Y-96512142D01*
X141705142Y-96583571D01*
X141490857Y-96583571D01*
X142633714Y-95583571D02*
X142633714Y-96583571D01*
X142633714Y-95726428D02*
X142705142Y-95655000D01*
X142848000Y-95583571D01*
X143062285Y-95583571D01*
X143205142Y-95655000D01*
X143276571Y-95797857D01*
X143276571Y-96583571D01*
X145133714Y-96583571D02*
X145133714Y-95083571D01*
X145705142Y-95083571D01*
X145848000Y-95155000D01*
X145919428Y-95226428D01*
X145990857Y-95369285D01*
X145990857Y-95583571D01*
X145919428Y-95726428D01*
X145848000Y-95797857D01*
X145705142Y-95869285D01*
X145133714Y-95869285D01*
X147490857Y-96440714D02*
X147419428Y-96512142D01*
X147205142Y-96583571D01*
X147062285Y-96583571D01*
X146848000Y-96512142D01*
X146705142Y-96369285D01*
X146633714Y-96226428D01*
X146562285Y-95940714D01*
X146562285Y-95726428D01*
X146633714Y-95440714D01*
X146705142Y-95297857D01*
X146848000Y-95155000D01*
X147062285Y-95083571D01*
X147205142Y-95083571D01*
X147419428Y-95155000D01*
X147490857Y-95226428D01*
X148633714Y-95797857D02*
X148848000Y-95869285D01*
X148919428Y-95940714D01*
X148990857Y-96083571D01*
X148990857Y-96297857D01*
X148919428Y-96440714D01*
X148848000Y-96512142D01*
X148705142Y-96583571D01*
X148133714Y-96583571D01*
X148133714Y-95083571D01*
X148633714Y-95083571D01*
X148776571Y-95155000D01*
X148848000Y-95226428D01*
X148919428Y-95369285D01*
X148919428Y-95512142D01*
X148848000Y-95655000D01*
X148776571Y-95726428D01*
X148633714Y-95797857D01*
X148133714Y-95797857D01*
X151419428Y-96583571D02*
X151419428Y-95083571D01*
X151419428Y-96512142D02*
X151276571Y-96583571D01*
X150990857Y-96583571D01*
X150848000Y-96512142D01*
X150776571Y-96440714D01*
X150705142Y-96297857D01*
X150705142Y-95869285D01*
X150776571Y-95726428D01*
X150848000Y-95655000D01*
X150990857Y-95583571D01*
X151276571Y-95583571D01*
X151419428Y-95655000D01*
X152705142Y-96512142D02*
X152562285Y-96583571D01*
X152276571Y-96583571D01*
X152133714Y-96512142D01*
X152062285Y-96369285D01*
X152062285Y-95797857D01*
X152133714Y-95655000D01*
X152276571Y-95583571D01*
X152562285Y-95583571D01*
X152705142Y-95655000D01*
X152776571Y-95797857D01*
X152776571Y-95940714D01*
X152062285Y-96083571D01*
X153348000Y-96512142D02*
X153490857Y-96583571D01*
X153776571Y-96583571D01*
X153919428Y-96512142D01*
X153990857Y-96369285D01*
X153990857Y-96297857D01*
X153919428Y-96155000D01*
X153776571Y-96083571D01*
X153562285Y-96083571D01*
X153419428Y-96012142D01*
X153348000Y-95869285D01*
X153348000Y-95797857D01*
X153419428Y-95655000D01*
X153562285Y-95583571D01*
X153776571Y-95583571D01*
X153919428Y-95655000D01*
X154633714Y-96583571D02*
X154633714Y-95583571D01*
X154633714Y-95083571D02*
X154562285Y-95155000D01*
X154633714Y-95226428D01*
X154705142Y-95155000D01*
X154633714Y-95083571D01*
X154633714Y-95226428D01*
X155990857Y-95583571D02*
X155990857Y-96797857D01*
X155919428Y-96940714D01*
X155848000Y-97012142D01*
X155705142Y-97083571D01*
X155490857Y-97083571D01*
X155348000Y-97012142D01*
X155990857Y-96512142D02*
X155848000Y-96583571D01*
X155562285Y-96583571D01*
X155419428Y-96512142D01*
X155348000Y-96440714D01*
X155276571Y-96297857D01*
X155276571Y-95869285D01*
X155348000Y-95726428D01*
X155419428Y-95655000D01*
X155562285Y-95583571D01*
X155848000Y-95583571D01*
X155990857Y-95655000D01*
X156705142Y-95583571D02*
X156705142Y-96583571D01*
X156705142Y-95726428D02*
X156776571Y-95655000D01*
X156919428Y-95583571D01*
X157133714Y-95583571D01*
X157276571Y-95655000D01*
X157348000Y-95797857D01*
X157348000Y-96583571D01*
X158633714Y-96512142D02*
X158490857Y-96583571D01*
X158205142Y-96583571D01*
X158062285Y-96512142D01*
X157990857Y-96369285D01*
X157990857Y-95797857D01*
X158062285Y-95655000D01*
X158205142Y-95583571D01*
X158490857Y-95583571D01*
X158633714Y-95655000D01*
X158705142Y-95797857D01*
X158705142Y-95940714D01*
X157990857Y-96083571D01*
X159990857Y-96583571D02*
X159990857Y-95083571D01*
X159990857Y-96512142D02*
X159848000Y-96583571D01*
X159562285Y-96583571D01*
X159419428Y-96512142D01*
X159348000Y-96440714D01*
X159276571Y-96297857D01*
X159276571Y-95869285D01*
X159348000Y-95726428D01*
X159419428Y-95655000D01*
X159562285Y-95583571D01*
X159848000Y-95583571D01*
X159990857Y-95655000D01*
X161848000Y-96583571D02*
X161848000Y-95083571D01*
X161848000Y-95655000D02*
X161990857Y-95583571D01*
X162276571Y-95583571D01*
X162419428Y-95655000D01*
X162490857Y-95726428D01*
X162562285Y-95869285D01*
X162562285Y-96297857D01*
X162490857Y-96440714D01*
X162419428Y-96512142D01*
X162276571Y-96583571D01*
X161990857Y-96583571D01*
X161848000Y-96512142D01*
X163062285Y-95583571D02*
X163419428Y-96583571D01*
X163776571Y-95583571D02*
X163419428Y-96583571D01*
X163276571Y-96940714D01*
X163205142Y-97012142D01*
X163062285Y-97083571D01*
X141598000Y-99083571D02*
X141598000Y-97583571D01*
X142455142Y-99083571D02*
X141812285Y-98226428D01*
X142455142Y-97583571D02*
X141598000Y-98440714D01*
X143098000Y-99083571D02*
X143098000Y-98083571D01*
X143098000Y-98369285D02*
X143169428Y-98226428D01*
X143240857Y-98155000D01*
X143383714Y-98083571D01*
X143526571Y-98083571D01*
X144669428Y-99083571D02*
X144669428Y-98297857D01*
X144598000Y-98155000D01*
X144455142Y-98083571D01*
X144169428Y-98083571D01*
X144026571Y-98155000D01*
X144669428Y-99012142D02*
X144526571Y-99083571D01*
X144169428Y-99083571D01*
X144026571Y-99012142D01*
X143955142Y-98869285D01*
X143955142Y-98726428D01*
X144026571Y-98583571D01*
X144169428Y-98512142D01*
X144526571Y-98512142D01*
X144669428Y-98440714D01*
X145383714Y-99083571D02*
X145383714Y-97583571D01*
X145526571Y-98512142D02*
X145955142Y-99083571D01*
X145955142Y-98083571D02*
X145383714Y-98655000D01*
X147169428Y-99012142D02*
X147026571Y-99083571D01*
X146740857Y-99083571D01*
X146598000Y-99012142D01*
X146526571Y-98869285D01*
X146526571Y-98297857D01*
X146598000Y-98155000D01*
X146740857Y-98083571D01*
X147026571Y-98083571D01*
X147169428Y-98155000D01*
X147240857Y-98297857D01*
X147240857Y-98440714D01*
X146526571Y-98583571D01*
X147883714Y-98083571D02*
X147883714Y-99083571D01*
X147883714Y-98226428D02*
X147955142Y-98155000D01*
X148098000Y-98083571D01*
X148312285Y-98083571D01*
X148455142Y-98155000D01*
X148526571Y-98297857D01*
X148526571Y-99083571D01*
X149240857Y-98512142D02*
X150383714Y-98512142D01*
X151526571Y-97583571D02*
X151526571Y-98655000D01*
X151455142Y-98869285D01*
X151312285Y-99012142D01*
X151098000Y-99083571D01*
X150955142Y-99083571D01*
X152455142Y-99083571D02*
X152312285Y-99012142D01*
X152240857Y-98940714D01*
X152169428Y-98797857D01*
X152169428Y-98369285D01*
X152240857Y-98226428D01*
X152312285Y-98155000D01*
X152455142Y-98083571D01*
X152669428Y-98083571D01*
X152812285Y-98155000D01*
X152883714Y-98226428D01*
X152955142Y-98369285D01*
X152955142Y-98797857D01*
X152883714Y-98940714D01*
X152812285Y-99012142D01*
X152669428Y-99083571D01*
X152455142Y-99083571D01*
X153598000Y-99083571D02*
X153598000Y-97583571D01*
X153740857Y-98512142D02*
X154169428Y-99083571D01*
X154169428Y-98083571D02*
X153598000Y-98655000D01*
X155383714Y-99012142D02*
X155240857Y-99083571D01*
X154955142Y-99083571D01*
X154812285Y-99012142D01*
X154740857Y-98869285D01*
X154740857Y-98297857D01*
X154812285Y-98155000D01*
X154955142Y-98083571D01*
X155240857Y-98083571D01*
X155383714Y-98155000D01*
X155455142Y-98297857D01*
X155455142Y-98440714D01*
X154740857Y-98583571D01*
X156026571Y-99012142D02*
X156169428Y-99083571D01*
X156455142Y-99083571D01*
X156598000Y-99012142D01*
X156669428Y-98869285D01*
X156669428Y-98797857D01*
X156598000Y-98655000D01*
X156455142Y-98583571D01*
X156240857Y-98583571D01*
X156098000Y-98512142D01*
X156026571Y-98369285D01*
X156026571Y-98297857D01*
X156098000Y-98155000D01*
X156240857Y-98083571D01*
X156455142Y-98083571D01*
X156598000Y-98155000D01*
D11*
%TO.C,U1*%
X90754200Y-43954700D02*
X95834200Y-43954700D01*
X95834200Y-43954700D02*
X95834200Y-41414700D01*
X95834200Y-41414700D02*
X103454200Y-41414700D01*
X103454200Y-41414700D02*
X103454200Y-43954700D01*
X103454200Y-43954700D02*
X108534200Y-43954700D01*
D14*
%TO.C,RE1*%
X95011000Y-98766000D02*
X96011000Y-98766000D01*
X95511000Y-98266000D02*
X95511000Y-99266000D01*
X101611000Y-102266000D02*
X101611000Y-104666000D01*
X101611000Y-97466000D02*
X101611000Y-100066000D01*
X101611000Y-92866000D02*
X101611000Y-95266000D01*
X88311000Y-94666000D02*
X88011000Y-94966000D01*
X87711000Y-94666000D02*
X88311000Y-94666000D01*
X88011000Y-94966000D02*
X87711000Y-94666000D01*
X89411000Y-92866000D02*
X89411000Y-104666000D01*
X93511000Y-92866000D02*
X89411000Y-92866000D01*
X93511000Y-104666000D02*
X89411000Y-104666000D01*
X101611000Y-104666000D02*
X97511000Y-104666000D01*
X97511000Y-92866000D02*
X101611000Y-92866000D01*
X98511000Y-98766000D02*
G75*
G03*
X98511000Y-98766000I-3000000J0D01*
G01*
D11*
%TO.C,D_RE1*%
X93853000Y-107188000D02*
X93853000Y-108712000D01*
X93726000Y-107188000D02*
X93726000Y-108712000D01*
X93599000Y-108712000D02*
X93599000Y-107188000D01*
X93218000Y-107188000D02*
X93218000Y-108712000D01*
X93345000Y-108712000D02*
X93345000Y-107188000D01*
X93472000Y-107188000D02*
X93472000Y-108712000D01*
X98171000Y-107188000D02*
X97663000Y-107188000D01*
X98171000Y-108712000D02*
X98171000Y-107188000D01*
X93091000Y-108712000D02*
X98171000Y-108712000D01*
X93091000Y-107188000D02*
X93091000Y-108712000D01*
X98171000Y-107188000D02*
X93091000Y-107188000D01*
D15*
%TO.C,LOGO2*%
G36*
X93409387Y-76994446D02*
G01*
X93395300Y-77089064D01*
X93376292Y-77198318D01*
X93354548Y-77310591D01*
X93332256Y-77414268D01*
X93311599Y-77497732D01*
X93294765Y-77549365D01*
X93289236Y-77558900D01*
X93259657Y-77560377D01*
X93221196Y-77530011D01*
X93186411Y-77482012D01*
X93167859Y-77430591D01*
X93167200Y-77420793D01*
X93147607Y-77388251D01*
X93093077Y-77332145D01*
X93009986Y-77258472D01*
X92904712Y-77173229D01*
X92900500Y-77169951D01*
X92633800Y-76962687D01*
X92633800Y-77871826D01*
X92887244Y-78092300D01*
X92684401Y-78355600D01*
X92481559Y-78618900D01*
X92431237Y-78508000D01*
X92401216Y-78435819D01*
X92382913Y-78380246D01*
X92380358Y-78365350D01*
X92369658Y-78356666D01*
X92335236Y-78349605D01*
X92273110Y-78344031D01*
X92179298Y-78339804D01*
X92049817Y-78336787D01*
X91880684Y-78334841D01*
X91667916Y-78333829D01*
X91464159Y-78333600D01*
X90548517Y-78333600D01*
X90499516Y-78225650D01*
X90468435Y-78135901D01*
X90451168Y-78044841D01*
X90449958Y-78022450D01*
X90453114Y-77959988D01*
X90471507Y-77933242D01*
X90517030Y-77927238D01*
X90525600Y-77927200D01*
X90601800Y-77927200D01*
X90601800Y-77597000D01*
X89601675Y-77597000D01*
X89377867Y-77597410D01*
X89167331Y-77598579D01*
X88976099Y-77600417D01*
X88810198Y-77602830D01*
X88675659Y-77605728D01*
X88578511Y-77609019D01*
X88524783Y-77612611D01*
X88519314Y-77613447D01*
X88487219Y-77620473D01*
X88459881Y-77630269D01*
X88436941Y-77646665D01*
X88418042Y-77673492D01*
X88402827Y-77714580D01*
X88390938Y-77773761D01*
X88382016Y-77854864D01*
X88375705Y-77961721D01*
X88371647Y-78098162D01*
X88369484Y-78268018D01*
X88368859Y-78475120D01*
X88369414Y-78723297D01*
X88370791Y-79016382D01*
X88371748Y-79194064D01*
X88373504Y-79497291D01*
X88375307Y-79753834D01*
X88377300Y-79967809D01*
X88379628Y-80143331D01*
X88382436Y-80284516D01*
X88385868Y-80395480D01*
X88390070Y-80480338D01*
X88395185Y-80543206D01*
X88401359Y-80588201D01*
X88408736Y-80619437D01*
X88417460Y-80641030D01*
X88422942Y-80650373D01*
X88469593Y-80696888D01*
X88550724Y-80743591D01*
X88670564Y-80792264D01*
X88833343Y-80844687D01*
X88985829Y-80887452D01*
X89112117Y-80923193D01*
X89194672Y-80951810D01*
X89232403Y-80974210D01*
X89224223Y-80991299D01*
X89169041Y-81003983D01*
X89065768Y-81013170D01*
X88913315Y-81019767D01*
X88823881Y-81022242D01*
X88446943Y-81031435D01*
X88430193Y-81098567D01*
X88387162Y-81191770D01*
X88316282Y-81243879D01*
X88252300Y-81254599D01*
X88188966Y-81245078D01*
X88136750Y-81213599D01*
X88094227Y-81155792D01*
X88059972Y-81067286D01*
X88032562Y-80943708D01*
X88010570Y-80780688D01*
X87992573Y-80573854D01*
X87983228Y-80429100D01*
X87977644Y-80302729D01*
X87972932Y-80133362D01*
X87969174Y-79928795D01*
X87966450Y-79696824D01*
X87964842Y-79445245D01*
X87964432Y-79181857D01*
X87965300Y-78914455D01*
X87966163Y-78790800D01*
X87968687Y-78508316D01*
X87971326Y-78271950D01*
X87974266Y-78077021D01*
X87977694Y-77918847D01*
X87981797Y-77792745D01*
X87986762Y-77694034D01*
X87992774Y-77618032D01*
X88000022Y-77560057D01*
X88008691Y-77515428D01*
X88018386Y-77481208D01*
X88079602Y-77350897D01*
X88164950Y-77262769D01*
X88267116Y-77215393D01*
X88312364Y-77209723D01*
X88403765Y-77204607D01*
X88536675Y-77200140D01*
X88706449Y-77196417D01*
X88908442Y-77193532D01*
X89138009Y-77191582D01*
X89390506Y-77190661D01*
X89477683Y-77190600D01*
X90601800Y-77190600D01*
X90601800Y-77015576D01*
X90601801Y-76840552D01*
X90316050Y-76822972D01*
X89923948Y-76790333D01*
X89575695Y-76742445D01*
X89266183Y-76677621D01*
X88990305Y-76594172D01*
X88742954Y-76490412D01*
X88519022Y-76364651D01*
X88313401Y-76215204D01*
X88212291Y-76127816D01*
X88121664Y-76040211D01*
X88030718Y-75943914D01*
X87946664Y-75847581D01*
X87876713Y-75759865D01*
X87828076Y-75689423D01*
X87807965Y-75644909D01*
X87807800Y-75642332D01*
X87827981Y-75609035D01*
X87842399Y-75600928D01*
X87876679Y-75609547D01*
X87939693Y-75643725D01*
X88020587Y-75697188D01*
X88064649Y-75729418D01*
X88317963Y-75898951D01*
X88593325Y-76040049D01*
X88895561Y-76154239D01*
X89229494Y-76243050D01*
X89599950Y-76308010D01*
X90011754Y-76350647D01*
X90030300Y-76351992D01*
X90222056Y-76364950D01*
X90368359Y-76372989D01*
X90474317Y-76376112D01*
X90545041Y-76374324D01*
X90585638Y-76367628D01*
X90601216Y-76356028D01*
X90601800Y-76352400D01*
X90579701Y-76334676D01*
X90526333Y-76327008D01*
X90524359Y-76327000D01*
X90472678Y-76320122D01*
X90436710Y-76291103D01*
X90401725Y-76227368D01*
X90397916Y-76219050D01*
X90366835Y-76129301D01*
X90349568Y-76038241D01*
X90348358Y-76015850D01*
X90347800Y-75920600D01*
X91541600Y-75920600D01*
X91541600Y-76327000D01*
X90779600Y-76327000D01*
X90779600Y-76936600D01*
X91541600Y-76936600D01*
X91541600Y-77317600D01*
X90779600Y-77317600D01*
X90779600Y-77927200D01*
X91541600Y-77927200D01*
X91541600Y-77317600D01*
X91541600Y-76936600D01*
X91541600Y-76327000D01*
X91541600Y-75920600D01*
X91579700Y-75920600D01*
X91866886Y-75921085D01*
X92121346Y-75922506D01*
X92340299Y-75924808D01*
X92456000Y-75926811D01*
X92456000Y-76327000D01*
X91719400Y-76327000D01*
X91719400Y-76936600D01*
X92456000Y-76936600D01*
X92456000Y-77317600D01*
X91719400Y-77317600D01*
X91719400Y-77927200D01*
X92456000Y-77927200D01*
X92456000Y-77317600D01*
X92456000Y-76936600D01*
X92456000Y-76327000D01*
X92456000Y-75926811D01*
X92520963Y-75927936D01*
X92660556Y-75931837D01*
X92756298Y-75936457D01*
X92805404Y-75941741D01*
X92811600Y-75944592D01*
X92801659Y-75977344D01*
X92775166Y-76043805D01*
X92737114Y-76131681D01*
X92721758Y-76165732D01*
X92676810Y-76268971D01*
X92650667Y-76347784D01*
X92639046Y-76422995D01*
X92637665Y-76515429D01*
X92639208Y-76567189D01*
X92646500Y-76771500D01*
X93021820Y-76825086D01*
X93154506Y-76844955D01*
X93268921Y-76863839D01*
X93355804Y-76880071D01*
X93405893Y-76891988D01*
X93414053Y-76895585D01*
X93416366Y-76926081D01*
X93409387Y-76994446D01*
G37*
X93409387Y-76994446D02*
X93395300Y-77089064D01*
X93376292Y-77198318D01*
X93354548Y-77310591D01*
X93332256Y-77414268D01*
X93311599Y-77497732D01*
X93294765Y-77549365D01*
X93289236Y-77558900D01*
X93259657Y-77560377D01*
X93221196Y-77530011D01*
X93186411Y-77482012D01*
X93167859Y-77430591D01*
X93167200Y-77420793D01*
X93147607Y-77388251D01*
X93093077Y-77332145D01*
X93009986Y-77258472D01*
X92904712Y-77173229D01*
X92900500Y-77169951D01*
X92633800Y-76962687D01*
X92633800Y-77871826D01*
X92887244Y-78092300D01*
X92684401Y-78355600D01*
X92481559Y-78618900D01*
X92431237Y-78508000D01*
X92401216Y-78435819D01*
X92382913Y-78380246D01*
X92380358Y-78365350D01*
X92369658Y-78356666D01*
X92335236Y-78349605D01*
X92273110Y-78344031D01*
X92179298Y-78339804D01*
X92049817Y-78336787D01*
X91880684Y-78334841D01*
X91667916Y-78333829D01*
X91464159Y-78333600D01*
X90548517Y-78333600D01*
X90499516Y-78225650D01*
X90468435Y-78135901D01*
X90451168Y-78044841D01*
X90449958Y-78022450D01*
X90453114Y-77959988D01*
X90471507Y-77933242D01*
X90517030Y-77927238D01*
X90525600Y-77927200D01*
X90601800Y-77927200D01*
X90601800Y-77597000D01*
X89601675Y-77597000D01*
X89377867Y-77597410D01*
X89167331Y-77598579D01*
X88976099Y-77600417D01*
X88810198Y-77602830D01*
X88675659Y-77605728D01*
X88578511Y-77609019D01*
X88524783Y-77612611D01*
X88519314Y-77613447D01*
X88487219Y-77620473D01*
X88459881Y-77630269D01*
X88436941Y-77646665D01*
X88418042Y-77673492D01*
X88402827Y-77714580D01*
X88390938Y-77773761D01*
X88382016Y-77854864D01*
X88375705Y-77961721D01*
X88371647Y-78098162D01*
X88369484Y-78268018D01*
X88368859Y-78475120D01*
X88369414Y-78723297D01*
X88370791Y-79016382D01*
X88371748Y-79194064D01*
X88373504Y-79497291D01*
X88375307Y-79753834D01*
X88377300Y-79967809D01*
X88379628Y-80143331D01*
X88382436Y-80284516D01*
X88385868Y-80395480D01*
X88390070Y-80480338D01*
X88395185Y-80543206D01*
X88401359Y-80588201D01*
X88408736Y-80619437D01*
X88417460Y-80641030D01*
X88422942Y-80650373D01*
X88469593Y-80696888D01*
X88550724Y-80743591D01*
X88670564Y-80792264D01*
X88833343Y-80844687D01*
X88985829Y-80887452D01*
X89112117Y-80923193D01*
X89194672Y-80951810D01*
X89232403Y-80974210D01*
X89224223Y-80991299D01*
X89169041Y-81003983D01*
X89065768Y-81013170D01*
X88913315Y-81019767D01*
X88823881Y-81022242D01*
X88446943Y-81031435D01*
X88430193Y-81098567D01*
X88387162Y-81191770D01*
X88316282Y-81243879D01*
X88252300Y-81254599D01*
X88188966Y-81245078D01*
X88136750Y-81213599D01*
X88094227Y-81155792D01*
X88059972Y-81067286D01*
X88032562Y-80943708D01*
X88010570Y-80780688D01*
X87992573Y-80573854D01*
X87983228Y-80429100D01*
X87977644Y-80302729D01*
X87972932Y-80133362D01*
X87969174Y-79928795D01*
X87966450Y-79696824D01*
X87964842Y-79445245D01*
X87964432Y-79181857D01*
X87965300Y-78914455D01*
X87966163Y-78790800D01*
X87968687Y-78508316D01*
X87971326Y-78271950D01*
X87974266Y-78077021D01*
X87977694Y-77918847D01*
X87981797Y-77792745D01*
X87986762Y-77694034D01*
X87992774Y-77618032D01*
X88000022Y-77560057D01*
X88008691Y-77515428D01*
X88018386Y-77481208D01*
X88079602Y-77350897D01*
X88164950Y-77262769D01*
X88267116Y-77215393D01*
X88312364Y-77209723D01*
X88403765Y-77204607D01*
X88536675Y-77200140D01*
X88706449Y-77196417D01*
X88908442Y-77193532D01*
X89138009Y-77191582D01*
X89390506Y-77190661D01*
X89477683Y-77190600D01*
X90601800Y-77190600D01*
X90601800Y-77015576D01*
X90601801Y-76840552D01*
X90316050Y-76822972D01*
X89923948Y-76790333D01*
X89575695Y-76742445D01*
X89266183Y-76677621D01*
X88990305Y-76594172D01*
X88742954Y-76490412D01*
X88519022Y-76364651D01*
X88313401Y-76215204D01*
X88212291Y-76127816D01*
X88121664Y-76040211D01*
X88030718Y-75943914D01*
X87946664Y-75847581D01*
X87876713Y-75759865D01*
X87828076Y-75689423D01*
X87807965Y-75644909D01*
X87807800Y-75642332D01*
X87827981Y-75609035D01*
X87842399Y-75600928D01*
X87876679Y-75609547D01*
X87939693Y-75643725D01*
X88020587Y-75697188D01*
X88064649Y-75729418D01*
X88317963Y-75898951D01*
X88593325Y-76040049D01*
X88895561Y-76154239D01*
X89229494Y-76243050D01*
X89599950Y-76308010D01*
X90011754Y-76350647D01*
X90030300Y-76351992D01*
X90222056Y-76364950D01*
X90368359Y-76372989D01*
X90474317Y-76376112D01*
X90545041Y-76374324D01*
X90585638Y-76367628D01*
X90601216Y-76356028D01*
X90601800Y-76352400D01*
X90579701Y-76334676D01*
X90526333Y-76327008D01*
X90524359Y-76327000D01*
X90472678Y-76320122D01*
X90436710Y-76291103D01*
X90401725Y-76227368D01*
X90397916Y-76219050D01*
X90366835Y-76129301D01*
X90349568Y-76038241D01*
X90348358Y-76015850D01*
X90347800Y-75920600D01*
X91541600Y-75920600D01*
X91541600Y-76327000D01*
X90779600Y-76327000D01*
X90779600Y-76936600D01*
X91541600Y-76936600D01*
X91541600Y-77317600D01*
X90779600Y-77317600D01*
X90779600Y-77927200D01*
X91541600Y-77927200D01*
X91541600Y-77317600D01*
X91541600Y-76936600D01*
X91541600Y-76327000D01*
X91541600Y-75920600D01*
X91579700Y-75920600D01*
X91866886Y-75921085D01*
X92121346Y-75922506D01*
X92340299Y-75924808D01*
X92456000Y-75926811D01*
X92456000Y-76327000D01*
X91719400Y-76327000D01*
X91719400Y-76936600D01*
X92456000Y-76936600D01*
X92456000Y-77317600D01*
X91719400Y-77317600D01*
X91719400Y-77927200D01*
X92456000Y-77927200D01*
X92456000Y-77317600D01*
X92456000Y-76936600D01*
X92456000Y-76327000D01*
X92456000Y-75926811D01*
X92520963Y-75927936D01*
X92660556Y-75931837D01*
X92756298Y-75936457D01*
X92805404Y-75941741D01*
X92811600Y-75944592D01*
X92801659Y-75977344D01*
X92775166Y-76043805D01*
X92737114Y-76131681D01*
X92721758Y-76165732D01*
X92676810Y-76268971D01*
X92650667Y-76347784D01*
X92639046Y-76422995D01*
X92637665Y-76515429D01*
X92639208Y-76567189D01*
X92646500Y-76771500D01*
X93021820Y-76825086D01*
X93154506Y-76844955D01*
X93268921Y-76863839D01*
X93355804Y-76880071D01*
X93405893Y-76891988D01*
X93414053Y-76895585D01*
X93416366Y-76926081D01*
X93409387Y-76994446D01*
G36*
X93419719Y-84172167D02*
G01*
X93415712Y-84242011D01*
X93406983Y-84338532D01*
X93394983Y-84450054D01*
X93381161Y-84564897D01*
X93366968Y-84671384D01*
X93353851Y-84757837D01*
X93343261Y-84812576D01*
X93338634Y-84825432D01*
X93311276Y-84822481D01*
X93270855Y-84789475D01*
X93229656Y-84740384D01*
X93199962Y-84689178D01*
X93192601Y-84659354D01*
X93190369Y-84639585D01*
X93178694Y-84625593D01*
X93150104Y-84616380D01*
X93097129Y-84610951D01*
X93012299Y-84608311D01*
X92888143Y-84607463D01*
X92802852Y-84607400D01*
X92638181Y-84606202D01*
X92464058Y-84602928D01*
X92299398Y-84598049D01*
X92163111Y-84592041D01*
X92142452Y-84590840D01*
X91871800Y-84574280D01*
X91871800Y-86254137D01*
X92025096Y-86392862D01*
X92178391Y-86531586D01*
X91957698Y-86789510D01*
X91874398Y-86883938D01*
X91801178Y-86961498D01*
X91744926Y-87015286D01*
X91712528Y-87038401D01*
X91709153Y-87038646D01*
X91686086Y-87011069D01*
X91658659Y-86950771D01*
X91645072Y-86910828D01*
X91608844Y-86791800D01*
X91479972Y-86791635D01*
X91375028Y-86789636D01*
X91229238Y-86784225D01*
X91052402Y-86775966D01*
X90854319Y-86765427D01*
X90644788Y-86753173D01*
X90433607Y-86739771D01*
X90230575Y-86725786D01*
X90045491Y-86711785D01*
X89929003Y-86702027D01*
X89561465Y-86665613D01*
X89240500Y-86625158D01*
X88961992Y-86579940D01*
X88721822Y-86529234D01*
X88515874Y-86472317D01*
X88405730Y-86434403D01*
X88229528Y-86342556D01*
X88084154Y-86212599D01*
X87972723Y-86048997D01*
X87898350Y-85856216D01*
X87865567Y-85660067D01*
X87851268Y-85471000D01*
X87950184Y-85470905D01*
X88047759Y-85460193D01*
X88129442Y-85424987D01*
X88198806Y-85360370D01*
X88259422Y-85261425D01*
X88314863Y-85123236D01*
X88368701Y-84940887D01*
X88386760Y-84870039D01*
X88417810Y-84750372D01*
X88442386Y-84672459D01*
X88463955Y-84628233D01*
X88485982Y-84609631D01*
X88499631Y-84607400D01*
X88528951Y-84613963D01*
X88539151Y-84642448D01*
X88534322Y-84706049D01*
X88533103Y-84715350D01*
X88519343Y-84835336D01*
X88505309Y-84986432D01*
X88492113Y-85153128D01*
X88480868Y-85319913D01*
X88472687Y-85471279D01*
X88468682Y-85591715D01*
X88468463Y-85616166D01*
X88470276Y-85715300D01*
X88479252Y-85780735D01*
X88500175Y-85829514D01*
X88537827Y-85878681D01*
X88544170Y-85885956D01*
X88610904Y-85941720D01*
X88710353Y-85993056D01*
X88844340Y-86040235D01*
X89014688Y-86083527D01*
X89223219Y-86123200D01*
X89471754Y-86159524D01*
X89762117Y-86192769D01*
X90096129Y-86223204D01*
X90475613Y-86251099D01*
X90902391Y-86276722D01*
X91332050Y-86298232D01*
X91694000Y-86314911D01*
X91694000Y-84556600D01*
X91620131Y-84556600D01*
X91518608Y-84551121D01*
X91379784Y-84535977D01*
X91215815Y-84513102D01*
X91038857Y-84484431D01*
X90861067Y-84451900D01*
X90694600Y-84417444D01*
X90586826Y-84392091D01*
X90184634Y-84271487D01*
X89818291Y-84119423D01*
X89481049Y-83932116D01*
X89166159Y-83705783D01*
X88866874Y-83436643D01*
X88847389Y-83417163D01*
X88731986Y-83296989D01*
X88615362Y-83168451D01*
X88508797Y-83044441D01*
X88423570Y-82937853D01*
X88399836Y-82905600D01*
X88306655Y-82768377D01*
X88205247Y-82608532D01*
X88103191Y-82438964D01*
X88008065Y-82272575D01*
X87927448Y-82122264D01*
X87870507Y-82004542D01*
X87837883Y-81925934D01*
X87826418Y-81879230D01*
X87834326Y-81851011D01*
X87848217Y-81836877D01*
X87866588Y-81822619D01*
X87883194Y-81818589D01*
X87903400Y-81830510D01*
X87932572Y-81864105D01*
X87976073Y-81925099D01*
X88039270Y-82019215D01*
X88088101Y-82092800D01*
X88372446Y-82483230D01*
X88677242Y-82827531D01*
X89003621Y-83126553D01*
X89352716Y-83381152D01*
X89725661Y-83592179D01*
X90123588Y-83760489D01*
X90430988Y-83857003D01*
X90643403Y-83908404D01*
X90884951Y-83956539D01*
X91133971Y-83997646D01*
X91368796Y-84027964D01*
X91471750Y-84037712D01*
X91694000Y-84055585D01*
X91694000Y-82148569D01*
X91773991Y-82120684D01*
X91830803Y-82101714D01*
X91861973Y-82092881D01*
X91862891Y-82092800D01*
X91864861Y-82117290D01*
X91866680Y-82187127D01*
X91868299Y-82296857D01*
X91869668Y-82441024D01*
X91870739Y-82614176D01*
X91871461Y-82810858D01*
X91871787Y-83025618D01*
X91871801Y-83080275D01*
X91871801Y-84067751D01*
X93421201Y-84105235D01*
X93419719Y-84172167D01*
G37*
X93419719Y-84172167D02*
X93415712Y-84242011D01*
X93406983Y-84338532D01*
X93394983Y-84450054D01*
X93381161Y-84564897D01*
X93366968Y-84671384D01*
X93353851Y-84757837D01*
X93343261Y-84812576D01*
X93338634Y-84825432D01*
X93311276Y-84822481D01*
X93270855Y-84789475D01*
X93229656Y-84740384D01*
X93199962Y-84689178D01*
X93192601Y-84659354D01*
X93190369Y-84639585D01*
X93178694Y-84625593D01*
X93150104Y-84616380D01*
X93097129Y-84610951D01*
X93012299Y-84608311D01*
X92888143Y-84607463D01*
X92802852Y-84607400D01*
X92638181Y-84606202D01*
X92464058Y-84602928D01*
X92299398Y-84598049D01*
X92163111Y-84592041D01*
X92142452Y-84590840D01*
X91871800Y-84574280D01*
X91871800Y-86254137D01*
X92025096Y-86392862D01*
X92178391Y-86531586D01*
X91957698Y-86789510D01*
X91874398Y-86883938D01*
X91801178Y-86961498D01*
X91744926Y-87015286D01*
X91712528Y-87038401D01*
X91709153Y-87038646D01*
X91686086Y-87011069D01*
X91658659Y-86950771D01*
X91645072Y-86910828D01*
X91608844Y-86791800D01*
X91479972Y-86791635D01*
X91375028Y-86789636D01*
X91229238Y-86784225D01*
X91052402Y-86775966D01*
X90854319Y-86765427D01*
X90644788Y-86753173D01*
X90433607Y-86739771D01*
X90230575Y-86725786D01*
X90045491Y-86711785D01*
X89929003Y-86702027D01*
X89561465Y-86665613D01*
X89240500Y-86625158D01*
X88961992Y-86579940D01*
X88721822Y-86529234D01*
X88515874Y-86472317D01*
X88405730Y-86434403D01*
X88229528Y-86342556D01*
X88084154Y-86212599D01*
X87972723Y-86048997D01*
X87898350Y-85856216D01*
X87865567Y-85660067D01*
X87851268Y-85471000D01*
X87950184Y-85470905D01*
X88047759Y-85460193D01*
X88129442Y-85424987D01*
X88198806Y-85360370D01*
X88259422Y-85261425D01*
X88314863Y-85123236D01*
X88368701Y-84940887D01*
X88386760Y-84870039D01*
X88417810Y-84750372D01*
X88442386Y-84672459D01*
X88463955Y-84628233D01*
X88485982Y-84609631D01*
X88499631Y-84607400D01*
X88528951Y-84613963D01*
X88539151Y-84642448D01*
X88534322Y-84706049D01*
X88533103Y-84715350D01*
X88519343Y-84835336D01*
X88505309Y-84986432D01*
X88492113Y-85153128D01*
X88480868Y-85319913D01*
X88472687Y-85471279D01*
X88468682Y-85591715D01*
X88468463Y-85616166D01*
X88470276Y-85715300D01*
X88479252Y-85780735D01*
X88500175Y-85829514D01*
X88537827Y-85878681D01*
X88544170Y-85885956D01*
X88610904Y-85941720D01*
X88710353Y-85993056D01*
X88844340Y-86040235D01*
X89014688Y-86083527D01*
X89223219Y-86123200D01*
X89471754Y-86159524D01*
X89762117Y-86192769D01*
X90096129Y-86223204D01*
X90475613Y-86251099D01*
X90902391Y-86276722D01*
X91332050Y-86298232D01*
X91694000Y-86314911D01*
X91694000Y-84556600D01*
X91620131Y-84556600D01*
X91518608Y-84551121D01*
X91379784Y-84535977D01*
X91215815Y-84513102D01*
X91038857Y-84484431D01*
X90861067Y-84451900D01*
X90694600Y-84417444D01*
X90586826Y-84392091D01*
X90184634Y-84271487D01*
X89818291Y-84119423D01*
X89481049Y-83932116D01*
X89166159Y-83705783D01*
X88866874Y-83436643D01*
X88847389Y-83417163D01*
X88731986Y-83296989D01*
X88615362Y-83168451D01*
X88508797Y-83044441D01*
X88423570Y-82937853D01*
X88399836Y-82905600D01*
X88306655Y-82768377D01*
X88205247Y-82608532D01*
X88103191Y-82438964D01*
X88008065Y-82272575D01*
X87927448Y-82122264D01*
X87870507Y-82004542D01*
X87837883Y-81925934D01*
X87826418Y-81879230D01*
X87834326Y-81851011D01*
X87848217Y-81836877D01*
X87866588Y-81822619D01*
X87883194Y-81818589D01*
X87903400Y-81830510D01*
X87932572Y-81864105D01*
X87976073Y-81925099D01*
X88039270Y-82019215D01*
X88088101Y-82092800D01*
X88372446Y-82483230D01*
X88677242Y-82827531D01*
X89003621Y-83126553D01*
X89352716Y-83381152D01*
X89725661Y-83592179D01*
X90123588Y-83760489D01*
X90430988Y-83857003D01*
X90643403Y-83908404D01*
X90884951Y-83956539D01*
X91133971Y-83997646D01*
X91368796Y-84027964D01*
X91471750Y-84037712D01*
X91694000Y-84055585D01*
X91694000Y-82148569D01*
X91773991Y-82120684D01*
X91830803Y-82101714D01*
X91861973Y-82092881D01*
X91862891Y-82092800D01*
X91864861Y-82117290D01*
X91866680Y-82187127D01*
X91868299Y-82296857D01*
X91869668Y-82441024D01*
X91870739Y-82614176D01*
X91871461Y-82810858D01*
X91871787Y-83025618D01*
X91871801Y-83080275D01*
X91871801Y-84067751D01*
X93421201Y-84105235D01*
X93419719Y-84172167D01*
G36*
X93369447Y-79635350D02*
G01*
X93365218Y-79705535D01*
X93355485Y-79801180D01*
X93342006Y-79909946D01*
X93326540Y-80019496D01*
X93310845Y-80117491D01*
X93296680Y-80191592D01*
X93285804Y-80229463D01*
X93284501Y-80231321D01*
X93257033Y-80228717D01*
X93217532Y-80195178D01*
X93177630Y-80144720D01*
X93148959Y-80091359D01*
X93141800Y-80059383D01*
X93139007Y-80040392D01*
X93125606Y-80027008D01*
X93094065Y-80018257D01*
X93036850Y-80013160D01*
X92946431Y-80010743D01*
X92815274Y-80010028D01*
X92760800Y-80010000D01*
X92379800Y-80010000D01*
X92379801Y-80181711D01*
X92379801Y-80353422D01*
X92557395Y-80488861D01*
X92629573Y-80542978D01*
X92678636Y-80583809D01*
X92703283Y-80619661D01*
X92702212Y-80658843D01*
X92674124Y-80709661D01*
X92617716Y-80780423D01*
X92531689Y-80879437D01*
X92488459Y-80929084D01*
X92413939Y-81011785D01*
X92349246Y-81077614D01*
X92302762Y-81118373D01*
X92285475Y-81127600D01*
X92258545Y-81119498D01*
X92237848Y-81091615D01*
X92222647Y-81038580D01*
X92212203Y-80955025D01*
X92205781Y-80835580D01*
X92202643Y-80674876D01*
X92202000Y-80519669D01*
X92202000Y-80010000D01*
X91338400Y-80010000D01*
X91338574Y-80232250D01*
X91339284Y-80339089D01*
X91343669Y-80407596D01*
X91355412Y-80450238D01*
X91378199Y-80479482D01*
X91415714Y-80507795D01*
X91421124Y-80511544D01*
X91492469Y-80564249D01*
X91573812Y-80628864D01*
X91601796Y-80652240D01*
X91700091Y-80735891D01*
X91494095Y-80980892D01*
X91413896Y-81075256D01*
X91344345Y-81155190D01*
X91292508Y-81212708D01*
X91265446Y-81239822D01*
X91264497Y-81240480D01*
X91230323Y-81236436D01*
X91200748Y-81214919D01*
X91186582Y-81193780D01*
X91176096Y-81158136D01*
X91168775Y-81101112D01*
X91164102Y-81015830D01*
X91161562Y-80895417D01*
X91160639Y-80732995D01*
X91160600Y-80679574D01*
X91160600Y-80184376D01*
X91103450Y-80202002D01*
X91026874Y-80234700D01*
X90922147Y-80291821D01*
X90800865Y-80366151D01*
X90674626Y-80450478D01*
X90555025Y-80537590D01*
X90520209Y-80564748D01*
X90274557Y-80789796D01*
X90055348Y-81050835D01*
X89979708Y-81159350D01*
X89927380Y-81232531D01*
X89882135Y-81284932D01*
X89853629Y-81305393D01*
X89853332Y-81305399D01*
X89816907Y-81288302D01*
X89768111Y-81246583D01*
X89762794Y-81241041D01*
X89700206Y-81195643D01*
X89603179Y-81150080D01*
X89524262Y-81122595D01*
X89346193Y-81068508D01*
X89510447Y-80917945D01*
X89705326Y-80750651D01*
X89904526Y-80604230D01*
X90116241Y-80474398D01*
X90348669Y-80356873D01*
X90610004Y-80247369D01*
X90908443Y-80141604D01*
X91128850Y-80072030D01*
X91158415Y-80046387D01*
X91160600Y-80036197D01*
X91136418Y-80029099D01*
X91063625Y-80023133D01*
X90941852Y-80018292D01*
X90770729Y-80014567D01*
X90549887Y-80011950D01*
X90278956Y-80010432D01*
X89994466Y-80010000D01*
X88828332Y-80010000D01*
X88775266Y-79900380D01*
X88741950Y-79807923D01*
X88723503Y-79710813D01*
X88722200Y-79684818D01*
X88722200Y-79578875D01*
X89576380Y-79572187D01*
X90430560Y-79565500D01*
X90230430Y-79434606D01*
X90109996Y-79350605D01*
X89981194Y-79252030D01*
X89854797Y-79147976D01*
X89741580Y-79047537D01*
X89652318Y-78959806D01*
X89609842Y-78910807D01*
X89555703Y-78840315D01*
X89457500Y-78941506D01*
X89379814Y-79011294D01*
X89294522Y-79073153D01*
X89257661Y-79094549D01*
X89140495Y-79136740D01*
X89029783Y-79145719D01*
X88933241Y-79125420D01*
X88858585Y-79079775D01*
X88813531Y-79012715D01*
X88805795Y-78928174D01*
X88821598Y-78872316D01*
X88846168Y-78827846D01*
X88883791Y-78799428D01*
X88949075Y-78778609D01*
X89003465Y-78767059D01*
X89082849Y-78747996D01*
X89137395Y-78728308D01*
X89154000Y-78714679D01*
X89144286Y-78684289D01*
X89117624Y-78616584D01*
X89077742Y-78520654D01*
X89028364Y-78405587D01*
X89011385Y-78366707D01*
X88936094Y-78204084D01*
X88870302Y-78080566D01*
X88816147Y-77999996D01*
X88795256Y-77978000D01*
X88748150Y-77934187D01*
X88723479Y-77905135D01*
X88722387Y-77901800D01*
X88743723Y-77885519D01*
X88800725Y-77851785D01*
X88883758Y-77806131D01*
X88949093Y-77771660D01*
X89058643Y-77716062D01*
X89131112Y-77686380D01*
X89174247Y-77684634D01*
X89195795Y-77712842D01*
X89203503Y-77773023D01*
X89204843Y-77838300D01*
X89211294Y-77903002D01*
X89224348Y-77944000D01*
X89264805Y-77967727D01*
X89355606Y-77991290D01*
X89496298Y-78014608D01*
X89686424Y-78037605D01*
X89865200Y-78054951D01*
X89994710Y-78066840D01*
X90112635Y-78078281D01*
X90205966Y-78087973D01*
X90261694Y-78094615D01*
X90261697Y-78094616D01*
X90340693Y-78105968D01*
X90292366Y-78378534D01*
X90267164Y-78519575D01*
X90248163Y-78616491D01*
X90232474Y-78675137D01*
X90217207Y-78701368D01*
X90199475Y-78701038D01*
X90176386Y-78680003D01*
X90155439Y-78656033D01*
X90114266Y-78596606D01*
X90094186Y-78544411D01*
X90093800Y-78538834D01*
X90071603Y-78498778D01*
X90002861Y-78459170D01*
X89973150Y-78447186D01*
X89902648Y-78418842D01*
X89799682Y-78375388D01*
X89678041Y-78322724D01*
X89551513Y-78266752D01*
X89550583Y-78266336D01*
X89248666Y-78131199D01*
X89266244Y-78325178D01*
X89276744Y-78429853D01*
X89287901Y-78523504D01*
X89297432Y-78587105D01*
X89298072Y-78590405D01*
X89312322Y-78661655D01*
X89442711Y-78595970D01*
X89529644Y-78549641D01*
X89609010Y-78503175D01*
X89643055Y-78480938D01*
X89692336Y-78450602D01*
X89717247Y-78451579D01*
X89727378Y-78469033D01*
X89725247Y-78512998D01*
X89703027Y-78579850D01*
X89689173Y-78609525D01*
X89657474Y-78676008D01*
X89638754Y-78723674D01*
X89636600Y-78733934D01*
X89657993Y-78759035D01*
X89716285Y-78801185D01*
X89802652Y-78855302D01*
X89908268Y-78916306D01*
X90024307Y-78979113D01*
X90141943Y-79038642D01*
X90252352Y-79089811D01*
X90261691Y-79093858D01*
X90402705Y-79151141D01*
X90560759Y-79209810D01*
X90722193Y-79265291D01*
X90873346Y-79313012D01*
X91000556Y-79348399D01*
X91065350Y-79362886D01*
X91160601Y-79380653D01*
X91160600Y-78974389D01*
X91160831Y-78822496D01*
X91162210Y-78713789D01*
X91165771Y-78640654D01*
X91172544Y-78595477D01*
X91183564Y-78570643D01*
X91199860Y-78558539D01*
X91217750Y-78552809D01*
X91257771Y-78542507D01*
X91287797Y-78539988D01*
X91309262Y-78551254D01*
X91323602Y-78582308D01*
X91332251Y-78639151D01*
X91336644Y-78727786D01*
X91338217Y-78854216D01*
X91338403Y-79024441D01*
X91338400Y-79057500D01*
X91338400Y-79578200D01*
X92202000Y-79578200D01*
X92202000Y-78668769D01*
X92281991Y-78640884D01*
X92338803Y-78621914D01*
X92369973Y-78613081D01*
X92370891Y-78613000D01*
X92373665Y-78637099D01*
X92376087Y-78704197D01*
X92378013Y-78806491D01*
X92379298Y-78936182D01*
X92379799Y-79085466D01*
X92379800Y-79095600D01*
X92379800Y-79578200D01*
X93370400Y-79578200D01*
X93369447Y-79635350D01*
G37*
X93369447Y-79635350D02*
X93365218Y-79705535D01*
X93355485Y-79801180D01*
X93342006Y-79909946D01*
X93326540Y-80019496D01*
X93310845Y-80117491D01*
X93296680Y-80191592D01*
X93285804Y-80229463D01*
X93284501Y-80231321D01*
X93257033Y-80228717D01*
X93217532Y-80195178D01*
X93177630Y-80144720D01*
X93148959Y-80091359D01*
X93141800Y-80059383D01*
X93139007Y-80040392D01*
X93125606Y-80027008D01*
X93094065Y-80018257D01*
X93036850Y-80013160D01*
X92946431Y-80010743D01*
X92815274Y-80010028D01*
X92760800Y-80010000D01*
X92379800Y-80010000D01*
X92379801Y-80181711D01*
X92379801Y-80353422D01*
X92557395Y-80488861D01*
X92629573Y-80542978D01*
X92678636Y-80583809D01*
X92703283Y-80619661D01*
X92702212Y-80658843D01*
X92674124Y-80709661D01*
X92617716Y-80780423D01*
X92531689Y-80879437D01*
X92488459Y-80929084D01*
X92413939Y-81011785D01*
X92349246Y-81077614D01*
X92302762Y-81118373D01*
X92285475Y-81127600D01*
X92258545Y-81119498D01*
X92237848Y-81091615D01*
X92222647Y-81038580D01*
X92212203Y-80955025D01*
X92205781Y-80835580D01*
X92202643Y-80674876D01*
X92202000Y-80519669D01*
X92202000Y-80010000D01*
X91338400Y-80010000D01*
X91338574Y-80232250D01*
X91339284Y-80339089D01*
X91343669Y-80407596D01*
X91355412Y-80450238D01*
X91378199Y-80479482D01*
X91415714Y-80507795D01*
X91421124Y-80511544D01*
X91492469Y-80564249D01*
X91573812Y-80628864D01*
X91601796Y-80652240D01*
X91700091Y-80735891D01*
X91494095Y-80980892D01*
X91413896Y-81075256D01*
X91344345Y-81155190D01*
X91292508Y-81212708D01*
X91265446Y-81239822D01*
X91264497Y-81240480D01*
X91230323Y-81236436D01*
X91200748Y-81214919D01*
X91186582Y-81193780D01*
X91176096Y-81158136D01*
X91168775Y-81101112D01*
X91164102Y-81015830D01*
X91161562Y-80895417D01*
X91160639Y-80732995D01*
X91160600Y-80679574D01*
X91160600Y-80184376D01*
X91103450Y-80202002D01*
X91026874Y-80234700D01*
X90922147Y-80291821D01*
X90800865Y-80366151D01*
X90674626Y-80450478D01*
X90555025Y-80537590D01*
X90520209Y-80564748D01*
X90274557Y-80789796D01*
X90055348Y-81050835D01*
X89979708Y-81159350D01*
X89927380Y-81232531D01*
X89882135Y-81284932D01*
X89853629Y-81305393D01*
X89853332Y-81305399D01*
X89816907Y-81288302D01*
X89768111Y-81246583D01*
X89762794Y-81241041D01*
X89700206Y-81195643D01*
X89603179Y-81150080D01*
X89524262Y-81122595D01*
X89346193Y-81068508D01*
X89510447Y-80917945D01*
X89705326Y-80750651D01*
X89904526Y-80604230D01*
X90116241Y-80474398D01*
X90348669Y-80356873D01*
X90610004Y-80247369D01*
X90908443Y-80141604D01*
X91128850Y-80072030D01*
X91158415Y-80046387D01*
X91160600Y-80036197D01*
X91136418Y-80029099D01*
X91063625Y-80023133D01*
X90941852Y-80018292D01*
X90770729Y-80014567D01*
X90549887Y-80011950D01*
X90278956Y-80010432D01*
X89994466Y-80010000D01*
X88828332Y-80010000D01*
X88775266Y-79900380D01*
X88741950Y-79807923D01*
X88723503Y-79710813D01*
X88722200Y-79684818D01*
X88722200Y-79578875D01*
X89576380Y-79572187D01*
X90430560Y-79565500D01*
X90230430Y-79434606D01*
X90109996Y-79350605D01*
X89981194Y-79252030D01*
X89854797Y-79147976D01*
X89741580Y-79047537D01*
X89652318Y-78959806D01*
X89609842Y-78910807D01*
X89555703Y-78840315D01*
X89457500Y-78941506D01*
X89379814Y-79011294D01*
X89294522Y-79073153D01*
X89257661Y-79094549D01*
X89140495Y-79136740D01*
X89029783Y-79145719D01*
X88933241Y-79125420D01*
X88858585Y-79079775D01*
X88813531Y-79012715D01*
X88805795Y-78928174D01*
X88821598Y-78872316D01*
X88846168Y-78827846D01*
X88883791Y-78799428D01*
X88949075Y-78778609D01*
X89003465Y-78767059D01*
X89082849Y-78747996D01*
X89137395Y-78728308D01*
X89154000Y-78714679D01*
X89144286Y-78684289D01*
X89117624Y-78616584D01*
X89077742Y-78520654D01*
X89028364Y-78405587D01*
X89011385Y-78366707D01*
X88936094Y-78204084D01*
X88870302Y-78080566D01*
X88816147Y-77999996D01*
X88795256Y-77978000D01*
X88748150Y-77934187D01*
X88723479Y-77905135D01*
X88722387Y-77901800D01*
X88743723Y-77885519D01*
X88800725Y-77851785D01*
X88883758Y-77806131D01*
X88949093Y-77771660D01*
X89058643Y-77716062D01*
X89131112Y-77686380D01*
X89174247Y-77684634D01*
X89195795Y-77712842D01*
X89203503Y-77773023D01*
X89204843Y-77838300D01*
X89211294Y-77903002D01*
X89224348Y-77944000D01*
X89264805Y-77967727D01*
X89355606Y-77991290D01*
X89496298Y-78014608D01*
X89686424Y-78037605D01*
X89865200Y-78054951D01*
X89994710Y-78066840D01*
X90112635Y-78078281D01*
X90205966Y-78087973D01*
X90261694Y-78094615D01*
X90261697Y-78094616D01*
X90340693Y-78105968D01*
X90292366Y-78378534D01*
X90267164Y-78519575D01*
X90248163Y-78616491D01*
X90232474Y-78675137D01*
X90217207Y-78701368D01*
X90199475Y-78701038D01*
X90176386Y-78680003D01*
X90155439Y-78656033D01*
X90114266Y-78596606D01*
X90094186Y-78544411D01*
X90093800Y-78538834D01*
X90071603Y-78498778D01*
X90002861Y-78459170D01*
X89973150Y-78447186D01*
X89902648Y-78418842D01*
X89799682Y-78375388D01*
X89678041Y-78322724D01*
X89551513Y-78266752D01*
X89550583Y-78266336D01*
X89248666Y-78131199D01*
X89266244Y-78325178D01*
X89276744Y-78429853D01*
X89287901Y-78523504D01*
X89297432Y-78587105D01*
X89298072Y-78590405D01*
X89312322Y-78661655D01*
X89442711Y-78595970D01*
X89529644Y-78549641D01*
X89609010Y-78503175D01*
X89643055Y-78480938D01*
X89692336Y-78450602D01*
X89717247Y-78451579D01*
X89727378Y-78469033D01*
X89725247Y-78512998D01*
X89703027Y-78579850D01*
X89689173Y-78609525D01*
X89657474Y-78676008D01*
X89638754Y-78723674D01*
X89636600Y-78733934D01*
X89657993Y-78759035D01*
X89716285Y-78801185D01*
X89802652Y-78855302D01*
X89908268Y-78916306D01*
X90024307Y-78979113D01*
X90141943Y-79038642D01*
X90252352Y-79089811D01*
X90261691Y-79093858D01*
X90402705Y-79151141D01*
X90560759Y-79209810D01*
X90722193Y-79265291D01*
X90873346Y-79313012D01*
X91000556Y-79348399D01*
X91065350Y-79362886D01*
X91160601Y-79380653D01*
X91160600Y-78974389D01*
X91160831Y-78822496D01*
X91162210Y-78713789D01*
X91165771Y-78640654D01*
X91172544Y-78595477D01*
X91183564Y-78570643D01*
X91199860Y-78558539D01*
X91217750Y-78552809D01*
X91257771Y-78542507D01*
X91287797Y-78539988D01*
X91309262Y-78551254D01*
X91323602Y-78582308D01*
X91332251Y-78639151D01*
X91336644Y-78727786D01*
X91338217Y-78854216D01*
X91338403Y-79024441D01*
X91338400Y-79057500D01*
X91338400Y-79578200D01*
X92202000Y-79578200D01*
X92202000Y-78668769D01*
X92281991Y-78640884D01*
X92338803Y-78621914D01*
X92369973Y-78613081D01*
X92370891Y-78613000D01*
X92373665Y-78637099D01*
X92376087Y-78704197D01*
X92378013Y-78806491D01*
X92379298Y-78936182D01*
X92379799Y-79085466D01*
X92379800Y-79095600D01*
X92379800Y-79578200D01*
X93370400Y-79578200D01*
X93369447Y-79635350D01*
D16*
%TO.C,PWM_PAD2*%
X111506000Y-55245000D02*
X112014000Y-55245000D01*
X112014000Y-55245000D02*
X112014000Y-55753000D01*
X111506000Y-55753000D02*
X112014000Y-55753000D01*
X111506000Y-55245000D02*
X111506000Y-55753000D01*
X111506000Y-57785000D02*
X112014000Y-57785000D01*
X112014000Y-57785000D02*
X112014000Y-58293000D01*
X111506000Y-58293000D02*
X112014000Y-58293000D01*
X111506000Y-57785000D02*
X111506000Y-58293000D01*
X111506000Y-60325000D02*
X112014000Y-60325000D01*
X112014000Y-60325000D02*
X112014000Y-60833000D01*
X111506000Y-60833000D02*
X112014000Y-60833000D01*
X111506000Y-60325000D02*
X111506000Y-60833000D01*
D14*
%TO.C,RST1*%
X88318000Y-62177000D02*
X87828000Y-61687000D01*
X88318000Y-65077000D02*
X88318000Y-62177000D01*
X88318000Y-65077000D02*
X87828000Y-65567000D01*
X82878000Y-65077000D02*
X82878000Y-62177000D01*
X82878000Y-65077000D02*
X83368000Y-65567000D01*
X86638000Y-60907000D02*
X84558000Y-60907000D01*
X82878000Y-62177000D02*
X83368000Y-61687000D01*
X86638000Y-66347000D02*
X84558000Y-66347000D01*
D17*
%TO.C,PWM_PAD1*%
X111125000Y-61849000D02*
X112395000Y-61849000D01*
X111125000Y-54229000D02*
X112395000Y-54229000D01*
D11*
%TO.C,J1*%
X88271000Y-42069000D02*
X82671000Y-42069000D01*
X82671000Y-44069000D02*
X82671000Y-42069000D01*
X88271000Y-44069000D02*
X88271000Y-42069000D01*
X82421000Y-44069000D02*
X82421000Y-56169000D01*
X88521000Y-44069000D02*
X88521000Y-56169000D01*
X88521000Y-56169000D02*
X82421000Y-56169000D01*
X88521000Y-44069000D02*
X82421000Y-44069000D01*
%TO.C,D8*%
X196672200Y-85318600D02*
X196672200Y-86842600D01*
X196545200Y-85318600D02*
X196545200Y-86842600D01*
X196418200Y-86842600D02*
X196418200Y-85318600D01*
X196037200Y-85318600D02*
X196037200Y-86842600D01*
X196164200Y-86842600D02*
X196164200Y-85318600D01*
X196291200Y-85318600D02*
X196291200Y-86842600D01*
X200990200Y-85318600D02*
X200482200Y-85318600D01*
X200990200Y-86842600D02*
X200990200Y-85318600D01*
X195910200Y-86842600D02*
X200990200Y-86842600D01*
X195910200Y-85318600D02*
X195910200Y-86842600D01*
X200990200Y-85318600D02*
X195910200Y-85318600D01*
%TO.C,D28*%
X112757245Y-93568640D02*
X111233245Y-93568640D01*
X112757245Y-93441640D02*
X111233245Y-93441640D01*
X111233245Y-93314640D02*
X112757245Y-93314640D01*
X112757245Y-92933640D02*
X111233245Y-92933640D01*
X111233245Y-93060640D02*
X112757245Y-93060640D01*
X112757245Y-93187640D02*
X111233245Y-93187640D01*
X112757245Y-97886640D02*
X112757245Y-97378640D01*
X111233245Y-97886640D02*
X112757245Y-97886640D01*
X111233245Y-92806640D02*
X111233245Y-97886640D01*
X112757245Y-92806640D02*
X111233245Y-92806640D01*
X112757245Y-97886640D02*
X112757245Y-92806640D01*
%TO.C,D27*%
X112665079Y-74714861D02*
X111141079Y-74714861D01*
X112665079Y-74587861D02*
X111141079Y-74587861D01*
X111141079Y-74460861D02*
X112665079Y-74460861D01*
X112665079Y-74079861D02*
X111141079Y-74079861D01*
X111141079Y-74206861D02*
X112665079Y-74206861D01*
X112665079Y-74333861D02*
X111141079Y-74333861D01*
X112665079Y-79032861D02*
X112665079Y-78524861D01*
X111141079Y-79032861D02*
X112665079Y-79032861D01*
X111141079Y-73952861D02*
X111141079Y-79032861D01*
X112665079Y-73952861D02*
X111141079Y-73952861D01*
X112665079Y-79032861D02*
X112665079Y-73952861D01*
%TO.C,D26*%
X120243600Y-60375800D02*
X120243600Y-61899800D01*
X120116600Y-60375800D02*
X120116600Y-61899800D01*
X119989600Y-61899800D02*
X119989600Y-60375800D01*
X119608600Y-60375800D02*
X119608600Y-61899800D01*
X119735600Y-61899800D02*
X119735600Y-60375800D01*
X119862600Y-60375800D02*
X119862600Y-61899800D01*
X124561600Y-60375800D02*
X124053600Y-60375800D01*
X124561600Y-61899800D02*
X124561600Y-60375800D01*
X119481600Y-61899800D02*
X124561600Y-61899800D01*
X119481600Y-60375800D02*
X119481600Y-61899800D01*
X124561600Y-60375800D02*
X119481600Y-60375800D01*
%TO.C,D24*%
X131769609Y-92160162D02*
X130245609Y-92160162D01*
X131769609Y-92033162D02*
X130245609Y-92033162D01*
X130245609Y-91906162D02*
X131769609Y-91906162D01*
X131769609Y-91525162D02*
X130245609Y-91525162D01*
X130245609Y-91652162D02*
X131769609Y-91652162D01*
X131769609Y-91779162D02*
X130245609Y-91779162D01*
X131769609Y-96478162D02*
X131769609Y-95970162D01*
X130245609Y-96478162D02*
X131769609Y-96478162D01*
X130245609Y-91398162D02*
X130245609Y-96478162D01*
X131769609Y-91398162D02*
X130245609Y-91398162D01*
X131769609Y-96478162D02*
X131769609Y-91398162D01*
%TO.C,D23*%
X131931349Y-73083240D02*
X130407349Y-73083240D01*
X131931349Y-72956240D02*
X130407349Y-72956240D01*
X130407349Y-72829240D02*
X131931349Y-72829240D01*
X131931349Y-72448240D02*
X130407349Y-72448240D01*
X130407349Y-72575240D02*
X131931349Y-72575240D01*
X131931349Y-72702240D02*
X130407349Y-72702240D01*
X131931349Y-77401240D02*
X131931349Y-76893240D01*
X130407349Y-77401240D02*
X131931349Y-77401240D01*
X130407349Y-72321240D02*
X130407349Y-77401240D01*
X131931349Y-72321240D02*
X130407349Y-72321240D01*
X131931349Y-77401240D02*
X131931349Y-72321240D01*
%TO.C,D22*%
X131779392Y-53728155D02*
X130255392Y-53728155D01*
X131779392Y-53601155D02*
X130255392Y-53601155D01*
X130255392Y-53474155D02*
X131779392Y-53474155D01*
X131779392Y-53093155D02*
X130255392Y-53093155D01*
X130255392Y-53220155D02*
X131779392Y-53220155D01*
X131779392Y-53347155D02*
X130255392Y-53347155D01*
X131779392Y-58046155D02*
X131779392Y-57538155D01*
X130255392Y-58046155D02*
X131779392Y-58046155D01*
X130255392Y-52966155D02*
X130255392Y-58046155D01*
X131779392Y-52966155D02*
X130255392Y-52966155D01*
X131779392Y-58046155D02*
X131779392Y-52966155D01*
%TO.C,D20*%
X80216845Y-132263786D02*
X79007774Y-133191538D01*
X79907594Y-131860762D02*
X78698523Y-132788515D01*
X80294157Y-132364542D02*
X79085087Y-133292294D01*
X78621211Y-132687759D02*
X81713719Y-136717994D01*
X79830281Y-131760006D02*
X78621211Y-132687759D01*
X78930462Y-133090782D02*
X80139532Y-132163030D01*
X78775836Y-132889270D02*
X79984907Y-131961518D01*
X82922789Y-135790241D02*
X82613538Y-135387218D01*
X82922789Y-135790241D02*
X79830281Y-131760006D01*
X81713719Y-136717994D02*
X82922789Y-135790241D01*
X80062219Y-132062274D02*
X78853149Y-132990026D01*
%TO.C,D19*%
X150954403Y-86287988D02*
X149430403Y-86287988D01*
X150954403Y-86160988D02*
X149430403Y-86160988D01*
X149430403Y-86033988D02*
X150954403Y-86033988D01*
X150954403Y-85652988D02*
X149430403Y-85652988D01*
X149430403Y-85779988D02*
X150954403Y-85779988D01*
X150954403Y-85906988D02*
X149430403Y-85906988D01*
X150954403Y-90605988D02*
X150954403Y-90097988D01*
X149430403Y-90605988D02*
X150954403Y-90605988D01*
X149430403Y-85525988D02*
X149430403Y-90605988D01*
X150954403Y-85525988D02*
X149430403Y-85525988D01*
X150954403Y-90605988D02*
X150954403Y-85525988D01*
%TO.C,D18*%
X150749000Y-67183000D02*
X149225000Y-67183000D01*
X150749000Y-67056000D02*
X149225000Y-67056000D01*
X149225000Y-66929000D02*
X150749000Y-66929000D01*
X150749000Y-66548000D02*
X149225000Y-66548000D01*
X149225000Y-66675000D02*
X150749000Y-66675000D01*
X150749000Y-66802000D02*
X149225000Y-66802000D01*
X150749000Y-71501000D02*
X150749000Y-70993000D01*
X149225000Y-71501000D02*
X150749000Y-71501000D01*
X149225000Y-66421000D02*
X149225000Y-71501000D01*
X150749000Y-66421000D02*
X149225000Y-66421000D01*
X150749000Y-71501000D02*
X150749000Y-66421000D01*
%TO.C,D17*%
X150749000Y-50546000D02*
X149225000Y-50546000D01*
X150749000Y-50419000D02*
X149225000Y-50419000D01*
X149225000Y-50292000D02*
X150749000Y-50292000D01*
X150749000Y-49911000D02*
X149225000Y-49911000D01*
X149225000Y-50038000D02*
X150749000Y-50038000D01*
X150749000Y-50165000D02*
X149225000Y-50165000D01*
X150749000Y-54864000D02*
X150749000Y-54356000D01*
X149225000Y-54864000D02*
X150749000Y-54864000D01*
X149225000Y-49784000D02*
X149225000Y-54864000D01*
X150749000Y-49784000D02*
X149225000Y-49784000D01*
X150749000Y-54864000D02*
X150749000Y-49784000D01*
%TO.C,D15*%
X96151519Y-121014449D02*
X94770306Y-121658519D01*
X95936829Y-120554044D02*
X94555616Y-121198114D01*
X96205191Y-121129550D02*
X94823978Y-121773620D01*
X94501943Y-121083013D02*
X96648844Y-125687057D01*
X95883156Y-120438943D02*
X94501943Y-121083013D01*
X94716633Y-121543418D02*
X96097846Y-120899347D01*
X94609288Y-121313216D02*
X95990501Y-120669145D01*
X98030057Y-125042987D02*
X97815367Y-124582582D01*
X98030057Y-125042987D02*
X95883156Y-120438943D01*
X96648844Y-125687057D02*
X98030057Y-125042987D01*
X96044174Y-120784246D02*
X94662961Y-121428317D01*
%TO.C,D14*%
X169878409Y-89753959D02*
X168354409Y-89753959D01*
X169878409Y-89626959D02*
X168354409Y-89626959D01*
X168354409Y-89499959D02*
X169878409Y-89499959D01*
X169878409Y-89118959D02*
X168354409Y-89118959D01*
X168354409Y-89245959D02*
X169878409Y-89245959D01*
X169878409Y-89372959D02*
X168354409Y-89372959D01*
X169878409Y-94071959D02*
X169878409Y-93563959D01*
X168354409Y-94071959D02*
X169878409Y-94071959D01*
X168354409Y-88991959D02*
X168354409Y-94071959D01*
X169878409Y-88991959D02*
X168354409Y-88991959D01*
X169878409Y-94071959D02*
X169878409Y-88991959D01*
%TO.C,D13*%
X169907564Y-70447398D02*
X168383564Y-70447398D01*
X169907564Y-70320398D02*
X168383564Y-70320398D01*
X168383564Y-70193398D02*
X169907564Y-70193398D01*
X169907564Y-69812398D02*
X168383564Y-69812398D01*
X168383564Y-69939398D02*
X169907564Y-69939398D01*
X169907564Y-70066398D02*
X168383564Y-70066398D01*
X169907564Y-74765398D02*
X169907564Y-74257398D01*
X168383564Y-74765398D02*
X169907564Y-74765398D01*
X168383564Y-69685398D02*
X168383564Y-74765398D01*
X169907564Y-69685398D02*
X168383564Y-69685398D01*
X169907564Y-74765398D02*
X169907564Y-69685398D01*
%TO.C,D12*%
X170815000Y-51054000D02*
X169291000Y-51054000D01*
X170815000Y-50927000D02*
X169291000Y-50927000D01*
X169291000Y-50800000D02*
X170815000Y-50800000D01*
X170815000Y-50419000D02*
X169291000Y-50419000D01*
X169291000Y-50546000D02*
X170815000Y-50546000D01*
X170815000Y-50673000D02*
X169291000Y-50673000D01*
X170815000Y-55372000D02*
X170815000Y-54864000D01*
X169291000Y-55372000D02*
X170815000Y-55372000D01*
X169291000Y-50292000D02*
X169291000Y-55372000D01*
X170815000Y-50292000D02*
X169291000Y-50292000D01*
X170815000Y-55372000D02*
X170815000Y-50292000D01*
%TO.C,D10*%
X115139620Y-112275229D02*
X113651745Y-112605083D01*
X115029669Y-111779271D02*
X113541794Y-112109125D01*
X115167108Y-112399219D02*
X113679233Y-112729073D01*
X113514306Y-111985135D02*
X114613819Y-116944719D01*
X115002181Y-111655281D02*
X113514306Y-111985135D01*
X113624257Y-112481093D02*
X115112132Y-112151240D01*
X113569281Y-112233114D02*
X115057157Y-111903260D01*
X116101694Y-116614865D02*
X115991743Y-116118907D01*
X116101694Y-116614865D02*
X115002181Y-111655281D01*
X114613819Y-116944719D02*
X116101694Y-116614865D01*
X115084644Y-112027250D02*
X113596769Y-112357104D01*
%TO.C,D9*%
X188635952Y-99438766D02*
X187111952Y-99438766D01*
X188635952Y-99311766D02*
X187111952Y-99311766D01*
X187111952Y-99184766D02*
X188635952Y-99184766D01*
X188635952Y-98803766D02*
X187111952Y-98803766D01*
X187111952Y-98930766D02*
X188635952Y-98930766D01*
X188635952Y-99057766D02*
X187111952Y-99057766D01*
X188635952Y-103756766D02*
X188635952Y-103248766D01*
X187111952Y-103756766D02*
X188635952Y-103756766D01*
X187111952Y-98676766D02*
X187111952Y-103756766D01*
X188635952Y-98676766D02*
X187111952Y-98676766D01*
X188635952Y-103756766D02*
X188635952Y-98676766D01*
%TO.C,D7*%
X188985421Y-59738973D02*
X187461421Y-59738973D01*
X188985421Y-59611973D02*
X187461421Y-59611973D01*
X187461421Y-59484973D02*
X188985421Y-59484973D01*
X188985421Y-59103973D02*
X187461421Y-59103973D01*
X187461421Y-59230973D02*
X188985421Y-59230973D01*
X188985421Y-59357973D02*
X187461421Y-59357973D01*
X188985421Y-64056973D02*
X188985421Y-63548973D01*
X187461421Y-64056973D02*
X188985421Y-64056973D01*
X187461421Y-58976973D02*
X187461421Y-64056973D01*
X188985421Y-58976973D02*
X187461421Y-58976973D01*
X188985421Y-64056973D02*
X188985421Y-58976973D01*
%TD*%
D18*
%TO.C,SW28*%
X127338154Y-91185035D02*
G75*
G03*
X127338154Y-91185035I-800900J0D01*
G01*
X117178154Y-91185035D02*
G75*
G03*
X117178154Y-91185035I-800900J0D01*
G01*
X123401154Y-91185035D02*
G75*
G03*
X123401154Y-91185035I-1943900J0D01*
G01*
X122877254Y-86166535D02*
X122877254Y-87203535D01*
X125077254Y-86166535D02*
X125077254Y-87203535D01*
X122877254Y-87203535D02*
G75*
G03*
X125077254Y-87203535I1100000J0D01*
G01*
X125077254Y-86166535D02*
G75*
G03*
X122877254Y-86166535I-1100000J0D01*
G01*
X117837254Y-86166535D02*
X117837254Y-87203535D01*
X120037254Y-86166535D02*
X120037254Y-87203535D01*
X117837254Y-87203535D02*
G75*
G03*
X120037254Y-87203535I1100000J0D01*
G01*
X120037254Y-86166535D02*
G75*
G03*
X117837254Y-86166535I-1100000J0D01*
G01*
X124241949Y-88821812D02*
X125090477Y-89670340D01*
X125444031Y-87619730D02*
X126292559Y-88468258D01*
X125090477Y-89670340D02*
G75*
G03*
X126292559Y-88468258I601041J601041D01*
G01*
X125444031Y-87619730D02*
G75*
G03*
X124241949Y-88821812I-601041J-601041D01*
G01*
X117470477Y-87619730D02*
X116621949Y-88468258D01*
X118672559Y-88821812D02*
X117824031Y-89670340D01*
X116621949Y-88468258D02*
G75*
G03*
X117824031Y-89670340I601041J-601041D01*
G01*
X118672559Y-88821812D02*
G75*
G03*
X117470477Y-87619730I-601041J601041D01*
G01*
%TD*%
%TO.C,SW27*%
X127318775Y-72059585D02*
G75*
G03*
X127318775Y-72059585I-800900J0D01*
G01*
X117158775Y-72059585D02*
G75*
G03*
X117158775Y-72059585I-800900J0D01*
G01*
X123381775Y-72059585D02*
G75*
G03*
X123381775Y-72059585I-1943900J0D01*
G01*
X122857875Y-67041085D02*
X122857875Y-68078085D01*
X125057875Y-67041085D02*
X125057875Y-68078085D01*
X122857875Y-68078085D02*
G75*
G03*
X125057875Y-68078085I1100000J0D01*
G01*
X125057875Y-67041085D02*
G75*
G03*
X122857875Y-67041085I-1100000J0D01*
G01*
X117817875Y-67041085D02*
X117817875Y-68078085D01*
X120017875Y-67041085D02*
X120017875Y-68078085D01*
X117817875Y-68078085D02*
G75*
G03*
X120017875Y-68078085I1100000J0D01*
G01*
X120017875Y-67041085D02*
G75*
G03*
X117817875Y-67041085I-1100000J0D01*
G01*
X124222570Y-69696362D02*
X125071098Y-70544890D01*
X125424652Y-68494280D02*
X126273180Y-69342808D01*
X125071098Y-70544890D02*
G75*
G03*
X126273180Y-69342808I601041J601041D01*
G01*
X125424652Y-68494280D02*
G75*
G03*
X124222570Y-69696362I-601041J-601041D01*
G01*
X117451098Y-68494280D02*
X116602570Y-69342808D01*
X118653180Y-69696362D02*
X117804652Y-70544890D01*
X116602570Y-69342808D02*
G75*
G03*
X117804652Y-70544890I601041J-601041D01*
G01*
X118653180Y-69696362D02*
G75*
G03*
X117451098Y-68494280I-601041J601041D01*
G01*
%TD*%
%TO.C,SW26*%
X127275132Y-53024690D02*
G75*
G03*
X127275132Y-53024690I-800900J0D01*
G01*
X117115132Y-53024690D02*
G75*
G03*
X117115132Y-53024690I-800900J0D01*
G01*
X123338132Y-53024690D02*
G75*
G03*
X123338132Y-53024690I-1943900J0D01*
G01*
X122814232Y-48006190D02*
X122814232Y-49043190D01*
X125014232Y-48006190D02*
X125014232Y-49043190D01*
X122814232Y-49043190D02*
G75*
G03*
X125014232Y-49043190I1100000J0D01*
G01*
X125014232Y-48006190D02*
G75*
G03*
X122814232Y-48006190I-1100000J0D01*
G01*
X117774232Y-48006190D02*
X117774232Y-49043190D01*
X119974232Y-48006190D02*
X119974232Y-49043190D01*
X117774232Y-49043190D02*
G75*
G03*
X119974232Y-49043190I1100000J0D01*
G01*
X119974232Y-48006190D02*
G75*
G03*
X117774232Y-48006190I-1100000J0D01*
G01*
X124178927Y-50661467D02*
X125027455Y-51509995D01*
X125381009Y-49459385D02*
X126229537Y-50307913D01*
X125027455Y-51509995D02*
G75*
G03*
X126229537Y-50307913I601041J601041D01*
G01*
X125381009Y-49459385D02*
G75*
G03*
X124178927Y-50661467I-601041J-601041D01*
G01*
X117407455Y-49459385D02*
X116558927Y-50307913D01*
X118609537Y-50661467D02*
X117761009Y-51509995D01*
X116558927Y-50307913D02*
G75*
G03*
X117761009Y-51509995I601041J-601041D01*
G01*
X118609537Y-50661467D02*
G75*
G03*
X117407455Y-49459385I-601041J601041D01*
G01*
%TD*%
%TO.C,SW24*%
X146405559Y-89208960D02*
G75*
G03*
X146405559Y-89208960I-800900J0D01*
G01*
X136245559Y-89208960D02*
G75*
G03*
X136245559Y-89208960I-800900J0D01*
G01*
X142468559Y-89208960D02*
G75*
G03*
X142468559Y-89208960I-1943900J0D01*
G01*
X141944659Y-84190460D02*
X141944659Y-85227460D01*
X144144659Y-84190460D02*
X144144659Y-85227460D01*
X141944659Y-85227460D02*
G75*
G03*
X144144659Y-85227460I1100000J0D01*
G01*
X144144659Y-84190460D02*
G75*
G03*
X141944659Y-84190460I-1100000J0D01*
G01*
X136904659Y-84190460D02*
X136904659Y-85227460D01*
X139104659Y-84190460D02*
X139104659Y-85227460D01*
X136904659Y-85227460D02*
G75*
G03*
X139104659Y-85227460I1100000J0D01*
G01*
X139104659Y-84190460D02*
G75*
G03*
X136904659Y-84190460I-1100000J0D01*
G01*
X143309354Y-86845737D02*
X144157882Y-87694265D01*
X144511436Y-85643655D02*
X145359964Y-86492183D01*
X144157882Y-87694265D02*
G75*
G03*
X145359964Y-86492183I601041J601041D01*
G01*
X144511436Y-85643655D02*
G75*
G03*
X143309354Y-86845737I-601041J-601041D01*
G01*
X136537882Y-85643655D02*
X135689354Y-86492183D01*
X137739964Y-86845737D02*
X136891436Y-87694265D01*
X135689354Y-86492183D02*
G75*
G03*
X136891436Y-87694265I601041J-601041D01*
G01*
X137739964Y-86845737D02*
G75*
G03*
X136537882Y-85643655I-601041J601041D01*
G01*
%TD*%
%TO.C,SW23*%
X146361915Y-70174064D02*
G75*
G03*
X146361915Y-70174064I-800900J0D01*
G01*
X136201915Y-70174064D02*
G75*
G03*
X136201915Y-70174064I-800900J0D01*
G01*
X142424915Y-70174064D02*
G75*
G03*
X142424915Y-70174064I-1943900J0D01*
G01*
X141901015Y-65155564D02*
X141901015Y-66192564D01*
X144101015Y-65155564D02*
X144101015Y-66192564D01*
X141901015Y-66192564D02*
G75*
G03*
X144101015Y-66192564I1100000J0D01*
G01*
X144101015Y-65155564D02*
G75*
G03*
X141901015Y-65155564I-1100000J0D01*
G01*
X136861015Y-65155564D02*
X136861015Y-66192564D01*
X139061015Y-65155564D02*
X139061015Y-66192564D01*
X136861015Y-66192564D02*
G75*
G03*
X139061015Y-66192564I1100000J0D01*
G01*
X139061015Y-65155564D02*
G75*
G03*
X136861015Y-65155564I-1100000J0D01*
G01*
X143265710Y-67810841D02*
X144114238Y-68659369D01*
X144467792Y-66608759D02*
X145316320Y-67457287D01*
X144114238Y-68659369D02*
G75*
G03*
X145316320Y-67457287I601041J601041D01*
G01*
X144467792Y-66608759D02*
G75*
G03*
X143265710Y-67810841I-601041J-601041D01*
G01*
X136494238Y-66608759D02*
X135645710Y-67457287D01*
X137696320Y-67810841D02*
X136847792Y-68659369D01*
X135645710Y-67457287D02*
G75*
G03*
X136847792Y-68659369I601041J-601041D01*
G01*
X137696320Y-67810841D02*
G75*
G03*
X136494238Y-66608759I-601041J601041D01*
G01*
%TD*%
%TO.C,SW22*%
X146408826Y-51163438D02*
G75*
G03*
X146408826Y-51163438I-800900J0D01*
G01*
X136248826Y-51163438D02*
G75*
G03*
X136248826Y-51163438I-800900J0D01*
G01*
X142471826Y-51163438D02*
G75*
G03*
X142471826Y-51163438I-1943900J0D01*
G01*
X141947926Y-46144938D02*
X141947926Y-47181938D01*
X144147926Y-46144938D02*
X144147926Y-47181938D01*
X141947926Y-47181938D02*
G75*
G03*
X144147926Y-47181938I1100000J0D01*
G01*
X144147926Y-46144938D02*
G75*
G03*
X141947926Y-46144938I-1100000J0D01*
G01*
X136907926Y-46144938D02*
X136907926Y-47181938D01*
X139107926Y-46144938D02*
X139107926Y-47181938D01*
X136907926Y-47181938D02*
G75*
G03*
X139107926Y-47181938I1100000J0D01*
G01*
X139107926Y-46144938D02*
G75*
G03*
X136907926Y-46144938I-1100000J0D01*
G01*
X143312621Y-48800215D02*
X144161149Y-49648743D01*
X144514703Y-47598133D02*
X145363231Y-48446661D01*
X144161149Y-49648743D02*
G75*
G03*
X145363231Y-48446661I601041J601041D01*
G01*
X144514703Y-47598133D02*
G75*
G03*
X143312621Y-48800215I-601041J-601041D01*
G01*
X136541149Y-47598133D02*
X135692621Y-48446661D01*
X137743231Y-48800215D02*
X136894703Y-49648743D01*
X135692621Y-48446661D02*
G75*
G03*
X136894703Y-49648743I601041J-601041D01*
G01*
X137743231Y-48800215D02*
G75*
G03*
X136541149Y-47598133I-601041J601041D01*
G01*
%TD*%
%TO.C,SW20*%
X91905590Y-125855341D02*
G75*
G03*
X91905590Y-125855341I-800900J0D01*
G01*
X83845120Y-132040357D02*
G75*
G03*
X83845120Y-132040357I-800900J0D01*
G01*
X89018355Y-128947849D02*
G75*
G03*
X89018355Y-128947849I-1943900J0D01*
G01*
X85145948Y-124101964D02*
X85777233Y-124924671D01*
X86891325Y-122762689D02*
X87522610Y-123585396D01*
X85777233Y-124924672D02*
G75*
G03*
X87522611Y-123585396I872689J669638D01*
G01*
X86891325Y-122762688D02*
G75*
G03*
X85145947Y-124101964I-872689J-669638D01*
G01*
X81147447Y-127170122D02*
X81778732Y-127992829D01*
X82892824Y-125830847D02*
X83524109Y-126653554D01*
X81778732Y-127992830D02*
G75*
G03*
X83524110Y-126653554I872689J669638D01*
G01*
X82892824Y-125830846D02*
G75*
G03*
X81147446Y-127170122I-872689J-669638D01*
G01*
X87845063Y-125377762D02*
X89034797Y-125534394D01*
X88066957Y-123692306D02*
X89256691Y-123848938D01*
X89034797Y-125534394D02*
G75*
G03*
X89256691Y-123848938I110947J842728D01*
G01*
X88066957Y-123692306D02*
G75*
G03*
X87845063Y-125377762I-110947J-842728D01*
G01*
X81741113Y-128546299D02*
X81584481Y-129736033D01*
X83426569Y-128768193D02*
X83269937Y-129957927D01*
X81584481Y-129736033D02*
G75*
G03*
X83269937Y-129957927I842728J-110947D01*
G01*
X83426569Y-128768193D02*
G75*
G03*
X81741113Y-128546299I-842728J110947D01*
G01*
%TD*%
%TO.C,SW19*%
X165398891Y-83524865D02*
G75*
G03*
X165398891Y-83524865I-800900J0D01*
G01*
X155238891Y-83524865D02*
G75*
G03*
X155238891Y-83524865I-800900J0D01*
G01*
X161461891Y-83524865D02*
G75*
G03*
X161461891Y-83524865I-1943900J0D01*
G01*
X160937991Y-78506365D02*
X160937991Y-79543365D01*
X163137991Y-78506365D02*
X163137991Y-79543365D01*
X160937991Y-79543365D02*
G75*
G03*
X163137991Y-79543365I1100000J0D01*
G01*
X163137991Y-78506365D02*
G75*
G03*
X160937991Y-78506365I-1100000J0D01*
G01*
X155897991Y-78506365D02*
X155897991Y-79543365D01*
X158097991Y-78506365D02*
X158097991Y-79543365D01*
X155897991Y-79543365D02*
G75*
G03*
X158097991Y-79543365I1100000J0D01*
G01*
X158097991Y-78506365D02*
G75*
G03*
X155897991Y-78506365I-1100000J0D01*
G01*
X162302686Y-81161642D02*
X163151214Y-82010170D01*
X163504768Y-79959560D02*
X164353296Y-80808088D01*
X163151214Y-82010170D02*
G75*
G03*
X164353296Y-80808088I601041J601041D01*
G01*
X163504768Y-79959560D02*
G75*
G03*
X162302686Y-81161642I-601041J-601041D01*
G01*
X155531214Y-79959560D02*
X154682686Y-80808088D01*
X156733296Y-81161642D02*
X155884768Y-82010170D01*
X154682686Y-80808088D02*
G75*
G03*
X155884768Y-82010170I601041J-601041D01*
G01*
X156733296Y-81161642D02*
G75*
G03*
X155531214Y-79959560I-601041J601041D01*
G01*
%TD*%
%TO.C,SW18*%
X165445808Y-64514237D02*
G75*
G03*
X165445808Y-64514237I-800900J0D01*
G01*
X155285808Y-64514237D02*
G75*
G03*
X155285808Y-64514237I-800900J0D01*
G01*
X161508808Y-64514237D02*
G75*
G03*
X161508808Y-64514237I-1943900J0D01*
G01*
X160984908Y-59495737D02*
X160984908Y-60532737D01*
X163184908Y-59495737D02*
X163184908Y-60532737D01*
X160984908Y-60532737D02*
G75*
G03*
X163184908Y-60532737I1100000J0D01*
G01*
X163184908Y-59495737D02*
G75*
G03*
X160984908Y-59495737I-1100000J0D01*
G01*
X155944908Y-59495737D02*
X155944908Y-60532737D01*
X158144908Y-59495737D02*
X158144908Y-60532737D01*
X155944908Y-60532737D02*
G75*
G03*
X158144908Y-60532737I1100000J0D01*
G01*
X158144908Y-59495737D02*
G75*
G03*
X155944908Y-59495737I-1100000J0D01*
G01*
X162349603Y-62151014D02*
X163198131Y-62999542D01*
X163551685Y-60948932D02*
X164400213Y-61797460D01*
X163198131Y-62999542D02*
G75*
G03*
X164400213Y-61797460I601041J601041D01*
G01*
X163551685Y-60948932D02*
G75*
G03*
X162349603Y-62151014I-601041J-601041D01*
G01*
X155578131Y-60948932D02*
X154729603Y-61797460D01*
X156780213Y-62151014D02*
X155931685Y-62999542D01*
X154729603Y-61797460D02*
G75*
G03*
X155931685Y-62999542I601041J-601041D01*
G01*
X156780213Y-62151014D02*
G75*
G03*
X155578131Y-60948932I-601041J601041D01*
G01*
%TD*%
%TO.C,SW17*%
X165426424Y-45388787D02*
G75*
G03*
X165426424Y-45388787I-800900J0D01*
G01*
X155266424Y-45388787D02*
G75*
G03*
X155266424Y-45388787I-800900J0D01*
G01*
X161489424Y-45388787D02*
G75*
G03*
X161489424Y-45388787I-1943900J0D01*
G01*
X160965524Y-40370287D02*
X160965524Y-41407287D01*
X163165524Y-40370287D02*
X163165524Y-41407287D01*
X160965524Y-41407287D02*
G75*
G03*
X163165524Y-41407287I1100000J0D01*
G01*
X163165524Y-40370287D02*
G75*
G03*
X160965524Y-40370287I-1100000J0D01*
G01*
X155925524Y-40370287D02*
X155925524Y-41407287D01*
X158125524Y-40370287D02*
X158125524Y-41407287D01*
X155925524Y-41407287D02*
G75*
G03*
X158125524Y-41407287I1100000J0D01*
G01*
X158125524Y-40370287D02*
G75*
G03*
X155925524Y-40370287I-1100000J0D01*
G01*
X162330219Y-43025564D02*
X163178747Y-43874092D01*
X163532301Y-41823482D02*
X164380829Y-42672010D01*
X163178747Y-43874092D02*
G75*
G03*
X164380829Y-42672010I601041J601041D01*
G01*
X163532301Y-41823482D02*
G75*
G03*
X162330219Y-43025564I-601041J-601041D01*
G01*
X155558747Y-41823482D02*
X154710219Y-42672010D01*
X156760829Y-43025564D02*
X155912301Y-43874092D01*
X154710219Y-42672010D02*
G75*
G03*
X155912301Y-43874092I601041J-601041D01*
G01*
X156760829Y-43025564D02*
G75*
G03*
X155558747Y-41823482I-601041J601041D01*
G01*
%TD*%
%TO.C,SW15*%
X109962785Y-116247629D02*
G75*
G03*
X109962785Y-116247629I-800900J0D01*
G01*
X100754697Y-120541431D02*
G75*
G03*
X100754697Y-120541431I-800900J0D01*
G01*
X106501741Y-118394530D02*
G75*
G03*
X106501741Y-118394530I-1943900J0D01*
G01*
X103723888Y-113246107D02*
X104162143Y-114185948D01*
X105717765Y-112316346D02*
X106156020Y-113256187D01*
X104162143Y-114185948D02*
G75*
G03*
X106156021Y-113256188I996939J464880D01*
G01*
X105717765Y-112316346D02*
G75*
G03*
X103723887Y-113246106I-996939J-464880D01*
G01*
X99156097Y-115376103D02*
X99594352Y-116315944D01*
X101149974Y-114446342D02*
X101588229Y-115386183D01*
X99594352Y-116315944D02*
G75*
G03*
X101588230Y-115386184I996939J464880D01*
G01*
X101149974Y-114446342D02*
G75*
G03*
X99156096Y-115376102I-996939J-464880D01*
G01*
X106082890Y-115075860D02*
X107210521Y-115486284D01*
X106664325Y-113478382D02*
X107791956Y-113888806D01*
X107210522Y-115486284D02*
G75*
G03*
X107791956Y-113888806I290717J798739D01*
G01*
X106664324Y-113478382D02*
G75*
G03*
X106082890Y-115075860I-290717J-798739D01*
G01*
X99437831Y-116848151D02*
X99027407Y-117975782D01*
X101035309Y-117429586D02*
X100624885Y-118557217D01*
X99027407Y-117975783D02*
G75*
G03*
X100624885Y-118557217I798739J-290717D01*
G01*
X101035309Y-117429585D02*
G75*
G03*
X99437831Y-116848151I-798739J290717D01*
G01*
%TD*%
%TO.C,SW14*%
X184459324Y-87370348D02*
G75*
G03*
X184459324Y-87370348I-800900J0D01*
G01*
X174299324Y-87370348D02*
G75*
G03*
X174299324Y-87370348I-800900J0D01*
G01*
X180522324Y-87370348D02*
G75*
G03*
X180522324Y-87370348I-1943900J0D01*
G01*
X179998424Y-82351848D02*
X179998424Y-83388848D01*
X182198424Y-82351848D02*
X182198424Y-83388848D01*
X179998424Y-83388848D02*
G75*
G03*
X182198424Y-83388848I1100000J0D01*
G01*
X182198424Y-82351848D02*
G75*
G03*
X179998424Y-82351848I-1100000J0D01*
G01*
X174958424Y-82351848D02*
X174958424Y-83388848D01*
X177158424Y-82351848D02*
X177158424Y-83388848D01*
X174958424Y-83388848D02*
G75*
G03*
X177158424Y-83388848I1100000J0D01*
G01*
X177158424Y-82351848D02*
G75*
G03*
X174958424Y-82351848I-1100000J0D01*
G01*
X181363119Y-85007125D02*
X182211647Y-85855653D01*
X182565201Y-83805043D02*
X183413729Y-84653571D01*
X182211647Y-85855653D02*
G75*
G03*
X183413729Y-84653571I601041J601041D01*
G01*
X182565201Y-83805043D02*
G75*
G03*
X181363119Y-85007125I-601041J-601041D01*
G01*
X174591647Y-83805043D02*
X173743119Y-84653571D01*
X175793729Y-85007125D02*
X174945201Y-85855653D01*
X173743119Y-84653571D02*
G75*
G03*
X174945201Y-85855653I601041J-601041D01*
G01*
X175793729Y-85007125D02*
G75*
G03*
X174591647Y-83805043I-601041J601041D01*
G01*
%TD*%
%TO.C,SW13*%
X184439950Y-68244902D02*
G75*
G03*
X184439950Y-68244902I-800900J0D01*
G01*
X174279950Y-68244902D02*
G75*
G03*
X174279950Y-68244902I-800900J0D01*
G01*
X180502950Y-68244902D02*
G75*
G03*
X180502950Y-68244902I-1943900J0D01*
G01*
X179979050Y-63226402D02*
X179979050Y-64263402D01*
X182179050Y-63226402D02*
X182179050Y-64263402D01*
X179979050Y-64263402D02*
G75*
G03*
X182179050Y-64263402I1100000J0D01*
G01*
X182179050Y-63226402D02*
G75*
G03*
X179979050Y-63226402I-1100000J0D01*
G01*
X174939050Y-63226402D02*
X174939050Y-64263402D01*
X177139050Y-63226402D02*
X177139050Y-64263402D01*
X174939050Y-64263402D02*
G75*
G03*
X177139050Y-64263402I1100000J0D01*
G01*
X177139050Y-63226402D02*
G75*
G03*
X174939050Y-63226402I-1100000J0D01*
G01*
X181343745Y-65881679D02*
X182192273Y-66730207D01*
X182545827Y-64679597D02*
X183394355Y-65528125D01*
X182192273Y-66730207D02*
G75*
G03*
X183394355Y-65528125I601041J601041D01*
G01*
X182545827Y-64679597D02*
G75*
G03*
X181343745Y-65881679I-601041J-601041D01*
G01*
X174572273Y-64679597D02*
X173723745Y-65528125D01*
X175774355Y-65881679D02*
X174925827Y-66730207D01*
X173723745Y-65528125D02*
G75*
G03*
X174925827Y-66730207I601041J-601041D01*
G01*
X175774355Y-65881679D02*
G75*
G03*
X174572273Y-64679597I-601041J601041D01*
G01*
%TD*%
%TO.C,SW12*%
X184486860Y-49234275D02*
G75*
G03*
X184486860Y-49234275I-800900J0D01*
G01*
X174326860Y-49234275D02*
G75*
G03*
X174326860Y-49234275I-800900J0D01*
G01*
X180549860Y-49234275D02*
G75*
G03*
X180549860Y-49234275I-1943900J0D01*
G01*
X180025960Y-44215775D02*
X180025960Y-45252775D01*
X182225960Y-44215775D02*
X182225960Y-45252775D01*
X180025960Y-45252775D02*
G75*
G03*
X182225960Y-45252775I1100000J0D01*
G01*
X182225960Y-44215775D02*
G75*
G03*
X180025960Y-44215775I-1100000J0D01*
G01*
X174985960Y-44215775D02*
X174985960Y-45252775D01*
X177185960Y-44215775D02*
X177185960Y-45252775D01*
X174985960Y-45252775D02*
G75*
G03*
X177185960Y-45252775I1100000J0D01*
G01*
X177185960Y-44215775D02*
G75*
G03*
X174985960Y-44215775I-1100000J0D01*
G01*
X181390655Y-46871052D02*
X182239183Y-47719580D01*
X182592737Y-45668970D02*
X183441265Y-46517498D01*
X182239183Y-47719580D02*
G75*
G03*
X183441265Y-46517498I601041J601041D01*
G01*
X182592737Y-45668970D02*
G75*
G03*
X181390655Y-46871052I-601041J-601041D01*
G01*
X174619183Y-45668970D02*
X173770655Y-46517498D01*
X175821265Y-46871052D02*
X174972737Y-47719580D01*
X173770655Y-46517498D02*
G75*
G03*
X174972737Y-47719580I601041J-601041D01*
G01*
X175821265Y-46871052D02*
G75*
G03*
X174619183Y-45668970I-601041J601041D01*
G01*
%TD*%
%TO.C,SW10*%
X129669113Y-110639078D02*
G75*
G03*
X129669113Y-110639078I-800900J0D01*
G01*
X119749945Y-112838104D02*
G75*
G03*
X119749945Y-112838104I-800900J0D01*
G01*
X125852529Y-111738591D02*
G75*
G03*
X125852529Y-111738591I-1943900J0D01*
G01*
X124208767Y-106531705D02*
X124433215Y-107544124D01*
X126356619Y-106055538D02*
X126581067Y-107067957D01*
X124433215Y-107544124D02*
G75*
G03*
X126581067Y-107067956I1073926J238084D01*
G01*
X126356619Y-106055538D02*
G75*
G03*
X124208767Y-106531706I-1073926J-238084D01*
G01*
X119288235Y-107622561D02*
X119512683Y-108634980D01*
X121436087Y-107146394D02*
X121660535Y-108158813D01*
X119512683Y-108634980D02*
G75*
G03*
X121660535Y-108158812I1073926J238084D01*
G01*
X121436087Y-107146394D02*
G75*
G03*
X119288235Y-107622562I-1073926J-238084D01*
G01*
X126115820Y-108828667D02*
X127127890Y-109473426D01*
X127029230Y-107394902D02*
X128041300Y-108039661D01*
X127127890Y-109473427D02*
G75*
G03*
X128041300Y-108039661I456705J716883D01*
G01*
X127029230Y-107394901D02*
G75*
G03*
X126115820Y-108828667I-456705J-716883D01*
G01*
X119244682Y-109120694D02*
X118599923Y-110132764D01*
X120678447Y-110034104D02*
X120033688Y-111046174D01*
X118599922Y-110132764D02*
G75*
G03*
X120033688Y-111046174I716883J-456705D01*
G01*
X120678448Y-110034104D02*
G75*
G03*
X119244682Y-109120694I-716883J456705D01*
G01*
%TD*%
%TO.C,SW9*%
X203561323Y-96856291D02*
G75*
G03*
X203561323Y-96856291I-800900J0D01*
G01*
X193401323Y-96856291D02*
G75*
G03*
X193401323Y-96856291I-800900J0D01*
G01*
X199624323Y-96856291D02*
G75*
G03*
X199624323Y-96856291I-1943900J0D01*
G01*
X199100423Y-91837791D02*
X199100423Y-92874791D01*
X201300423Y-91837791D02*
X201300423Y-92874791D01*
X199100423Y-92874791D02*
G75*
G03*
X201300423Y-92874791I1100000J0D01*
G01*
X201300423Y-91837791D02*
G75*
G03*
X199100423Y-91837791I-1100000J0D01*
G01*
X194060423Y-91837791D02*
X194060423Y-92874791D01*
X196260423Y-91837791D02*
X196260423Y-92874791D01*
X194060423Y-92874791D02*
G75*
G03*
X196260423Y-92874791I1100000J0D01*
G01*
X196260423Y-91837791D02*
G75*
G03*
X194060423Y-91837791I-1100000J0D01*
G01*
X200465118Y-94493068D02*
X201313646Y-95341596D01*
X201667200Y-93290986D02*
X202515728Y-94139514D01*
X201313646Y-95341596D02*
G75*
G03*
X202515728Y-94139514I601041J601041D01*
G01*
X201667200Y-93290986D02*
G75*
G03*
X200465118Y-94493068I-601041J-601041D01*
G01*
X193693646Y-93290986D02*
X192845118Y-94139514D01*
X194895728Y-94493068D02*
X194047200Y-95341596D01*
X192845118Y-94139514D02*
G75*
G03*
X194047200Y-95341596I601041J-601041D01*
G01*
X194895728Y-94493068D02*
G75*
G03*
X193693646Y-93290986I-601041J601041D01*
G01*
%TD*%
%TO.C,SW8*%
X203517681Y-77821391D02*
G75*
G03*
X203517681Y-77821391I-800900J0D01*
G01*
X193357681Y-77821391D02*
G75*
G03*
X193357681Y-77821391I-800900J0D01*
G01*
X199580681Y-77821391D02*
G75*
G03*
X199580681Y-77821391I-1943900J0D01*
G01*
X199056781Y-72802891D02*
X199056781Y-73839891D01*
X201256781Y-72802891D02*
X201256781Y-73839891D01*
X199056781Y-73839891D02*
G75*
G03*
X201256781Y-73839891I1100000J0D01*
G01*
X201256781Y-72802891D02*
G75*
G03*
X199056781Y-72802891I-1100000J0D01*
G01*
X194016781Y-72802891D02*
X194016781Y-73839891D01*
X196216781Y-72802891D02*
X196216781Y-73839891D01*
X194016781Y-73839891D02*
G75*
G03*
X196216781Y-73839891I1100000J0D01*
G01*
X196216781Y-72802891D02*
G75*
G03*
X194016781Y-72802891I-1100000J0D01*
G01*
X200421476Y-75458168D02*
X201270004Y-76306696D01*
X201623558Y-74256086D02*
X202472086Y-75104614D01*
X201270004Y-76306696D02*
G75*
G03*
X202472086Y-75104614I601041J601041D01*
G01*
X201623558Y-74256086D02*
G75*
G03*
X200421476Y-75458168I-601041J-601041D01*
G01*
X193650004Y-74256086D02*
X192801476Y-75104614D01*
X194852086Y-75458168D02*
X194003558Y-76306696D01*
X192801476Y-75104614D02*
G75*
G03*
X194003558Y-76306696I601041J-601041D01*
G01*
X194852086Y-75458168D02*
G75*
G03*
X193650004Y-74256086I-601041J601041D01*
G01*
%TD*%
%TO.C,SW7*%
X203474033Y-58786490D02*
G75*
G03*
X203474033Y-58786490I-800900J0D01*
G01*
X193314033Y-58786490D02*
G75*
G03*
X193314033Y-58786490I-800900J0D01*
G01*
X199537033Y-58786490D02*
G75*
G03*
X199537033Y-58786490I-1943900J0D01*
G01*
X199013133Y-53767990D02*
X199013133Y-54804990D01*
X201213133Y-53767990D02*
X201213133Y-54804990D01*
X199013133Y-54804990D02*
G75*
G03*
X201213133Y-54804990I1100000J0D01*
G01*
X201213133Y-53767990D02*
G75*
G03*
X199013133Y-53767990I-1100000J0D01*
G01*
X193973133Y-53767990D02*
X193973133Y-54804990D01*
X196173133Y-53767990D02*
X196173133Y-54804990D01*
X193973133Y-54804990D02*
G75*
G03*
X196173133Y-54804990I1100000J0D01*
G01*
X196173133Y-53767990D02*
G75*
G03*
X193973133Y-53767990I-1100000J0D01*
G01*
X200377828Y-56423267D02*
X201226356Y-57271795D01*
X201579910Y-55221185D02*
X202428438Y-56069713D01*
X201226356Y-57271795D02*
G75*
G03*
X202428438Y-56069713I601041J601041D01*
G01*
X201579910Y-55221185D02*
G75*
G03*
X200377828Y-56423267I-601041J-601041D01*
G01*
X193606356Y-55221185D02*
X192757828Y-56069713D01*
X194808438Y-56423267D02*
X193959910Y-57271795D01*
X192757828Y-56069713D02*
G75*
G03*
X193959910Y-57271795I601041J-601041D01*
G01*
X194808438Y-56423267D02*
G75*
G03*
X193606356Y-55221185I-601041J601041D01*
G01*
%TD*%
%TO.C,J3*%
X96533500Y-80264000D02*
G75*
G03*
X96533500Y-80264000I-648500J0D01*
G01*
X99073500Y-80264000D02*
G75*
G03*
X99073500Y-80264000I-648500J0D01*
G01*
X101613500Y-80264000D02*
G75*
G03*
X101613500Y-80264000I-648500J0D01*
G01*
X104153500Y-80264000D02*
G75*
G03*
X104153500Y-80264000I-648500J0D01*
G01*
%TD*%
%TO.C,SW28*%
D11*
X119647730Y-83389796D02*
X119790587Y-83437415D01*
X120028682Y-83437415D01*
X120123920Y-83389796D01*
X120171539Y-83342177D01*
X120219158Y-83246939D01*
X120219158Y-83151701D01*
X120171539Y-83056463D01*
X120123920Y-83008844D01*
X120028682Y-82961225D01*
X119838206Y-82913606D01*
X119742968Y-82865987D01*
X119695349Y-82818368D01*
X119647730Y-82723130D01*
X119647730Y-82627892D01*
X119695349Y-82532654D01*
X119742968Y-82485035D01*
X119838206Y-82437415D01*
X120076301Y-82437415D01*
X120219158Y-82485035D01*
X120552492Y-82437415D02*
X120790587Y-83437415D01*
X120981063Y-82723130D01*
X121171539Y-83437415D01*
X121409634Y-82437415D01*
X121742968Y-82532654D02*
X121790587Y-82485035D01*
X121885825Y-82437415D01*
X122123920Y-82437415D01*
X122219158Y-82485035D01*
X122266777Y-82532654D01*
X122314396Y-82627892D01*
X122314396Y-82723130D01*
X122266777Y-82865987D01*
X121695349Y-83437415D01*
X122314396Y-83437415D01*
X122885825Y-82865987D02*
X122790587Y-82818368D01*
X122742968Y-82770749D01*
X122695349Y-82675511D01*
X122695349Y-82627892D01*
X122742968Y-82532654D01*
X122790587Y-82485035D01*
X122885825Y-82437415D01*
X123076301Y-82437415D01*
X123171539Y-82485035D01*
X123219158Y-82532654D01*
X123266777Y-82627892D01*
X123266777Y-82675511D01*
X123219158Y-82770749D01*
X123171539Y-82818368D01*
X123076301Y-82865987D01*
X122885825Y-82865987D01*
X122790587Y-82913606D01*
X122742968Y-82961225D01*
X122695349Y-83056463D01*
X122695349Y-83246939D01*
X122742968Y-83342177D01*
X122790587Y-83389796D01*
X122885825Y-83437415D01*
X123076301Y-83437415D01*
X123171539Y-83389796D01*
X123219158Y-83342177D01*
X123266777Y-83246939D01*
X123266777Y-83056463D01*
X123219158Y-82961225D01*
X123171539Y-82913606D01*
X123076301Y-82865987D01*
%TO.C,SW27*%
X119628351Y-64264346D02*
X119771208Y-64311965D01*
X120009303Y-64311965D01*
X120104541Y-64264346D01*
X120152160Y-64216727D01*
X120199779Y-64121489D01*
X120199779Y-64026251D01*
X120152160Y-63931013D01*
X120104541Y-63883394D01*
X120009303Y-63835775D01*
X119818827Y-63788156D01*
X119723589Y-63740537D01*
X119675970Y-63692918D01*
X119628351Y-63597680D01*
X119628351Y-63502442D01*
X119675970Y-63407204D01*
X119723589Y-63359585D01*
X119818827Y-63311965D01*
X120056922Y-63311965D01*
X120199779Y-63359585D01*
X120533113Y-63311965D02*
X120771208Y-64311965D01*
X120961684Y-63597680D01*
X121152160Y-64311965D01*
X121390255Y-63311965D01*
X121723589Y-63407204D02*
X121771208Y-63359585D01*
X121866446Y-63311965D01*
X122104541Y-63311965D01*
X122199779Y-63359585D01*
X122247398Y-63407204D01*
X122295017Y-63502442D01*
X122295017Y-63597680D01*
X122247398Y-63740537D01*
X121675970Y-64311965D01*
X122295017Y-64311965D01*
X122628351Y-63311965D02*
X123295017Y-63311965D01*
X122866446Y-64311965D01*
%TO.C,SW26*%
X119584708Y-45229451D02*
X119727565Y-45277070D01*
X119965660Y-45277070D01*
X120060898Y-45229451D01*
X120108517Y-45181832D01*
X120156136Y-45086594D01*
X120156136Y-44991356D01*
X120108517Y-44896118D01*
X120060898Y-44848499D01*
X119965660Y-44800880D01*
X119775184Y-44753261D01*
X119679946Y-44705642D01*
X119632327Y-44658023D01*
X119584708Y-44562785D01*
X119584708Y-44467547D01*
X119632327Y-44372309D01*
X119679946Y-44324690D01*
X119775184Y-44277070D01*
X120013279Y-44277070D01*
X120156136Y-44324690D01*
X120489470Y-44277070D02*
X120727565Y-45277070D01*
X120918041Y-44562785D01*
X121108517Y-45277070D01*
X121346612Y-44277070D01*
X121679946Y-44372309D02*
X121727565Y-44324690D01*
X121822803Y-44277070D01*
X122060898Y-44277070D01*
X122156136Y-44324690D01*
X122203755Y-44372309D01*
X122251374Y-44467547D01*
X122251374Y-44562785D01*
X122203755Y-44705642D01*
X121632327Y-45277070D01*
X122251374Y-45277070D01*
X123108517Y-44277070D02*
X122918041Y-44277070D01*
X122822803Y-44324690D01*
X122775184Y-44372309D01*
X122679946Y-44515166D01*
X122632327Y-44705642D01*
X122632327Y-45086594D01*
X122679946Y-45181832D01*
X122727565Y-45229451D01*
X122822803Y-45277070D01*
X123013279Y-45277070D01*
X123108517Y-45229451D01*
X123156136Y-45181832D01*
X123203755Y-45086594D01*
X123203755Y-44848499D01*
X123156136Y-44753261D01*
X123108517Y-44705642D01*
X123013279Y-44658023D01*
X122822803Y-44658023D01*
X122727565Y-44705642D01*
X122679946Y-44753261D01*
X122632327Y-44848499D01*
%TO.C,SW24*%
X138715135Y-81413721D02*
X138857992Y-81461340D01*
X139096087Y-81461340D01*
X139191325Y-81413721D01*
X139238944Y-81366102D01*
X139286563Y-81270864D01*
X139286563Y-81175626D01*
X139238944Y-81080388D01*
X139191325Y-81032769D01*
X139096087Y-80985150D01*
X138905611Y-80937531D01*
X138810373Y-80889912D01*
X138762754Y-80842293D01*
X138715135Y-80747055D01*
X138715135Y-80651817D01*
X138762754Y-80556579D01*
X138810373Y-80508960D01*
X138905611Y-80461340D01*
X139143706Y-80461340D01*
X139286563Y-80508960D01*
X139619897Y-80461340D02*
X139857992Y-81461340D01*
X140048468Y-80747055D01*
X140238944Y-81461340D01*
X140477039Y-80461340D01*
X140810373Y-80556579D02*
X140857992Y-80508960D01*
X140953230Y-80461340D01*
X141191325Y-80461340D01*
X141286563Y-80508960D01*
X141334182Y-80556579D01*
X141381801Y-80651817D01*
X141381801Y-80747055D01*
X141334182Y-80889912D01*
X140762754Y-81461340D01*
X141381801Y-81461340D01*
X142238944Y-80794674D02*
X142238944Y-81461340D01*
X142000849Y-80413721D02*
X141762754Y-81128007D01*
X142381801Y-81128007D01*
%TO.C,SW23*%
X138671491Y-62378825D02*
X138814348Y-62426444D01*
X139052443Y-62426444D01*
X139147681Y-62378825D01*
X139195300Y-62331206D01*
X139242919Y-62235968D01*
X139242919Y-62140730D01*
X139195300Y-62045492D01*
X139147681Y-61997873D01*
X139052443Y-61950254D01*
X138861967Y-61902635D01*
X138766729Y-61855016D01*
X138719110Y-61807397D01*
X138671491Y-61712159D01*
X138671491Y-61616921D01*
X138719110Y-61521683D01*
X138766729Y-61474064D01*
X138861967Y-61426444D01*
X139100062Y-61426444D01*
X139242919Y-61474064D01*
X139576253Y-61426444D02*
X139814348Y-62426444D01*
X140004824Y-61712159D01*
X140195300Y-62426444D01*
X140433395Y-61426444D01*
X140766729Y-61521683D02*
X140814348Y-61474064D01*
X140909586Y-61426444D01*
X141147681Y-61426444D01*
X141242919Y-61474064D01*
X141290538Y-61521683D01*
X141338157Y-61616921D01*
X141338157Y-61712159D01*
X141290538Y-61855016D01*
X140719110Y-62426444D01*
X141338157Y-62426444D01*
X141671491Y-61426444D02*
X142290538Y-61426444D01*
X141957205Y-61807397D01*
X142100062Y-61807397D01*
X142195300Y-61855016D01*
X142242919Y-61902635D01*
X142290538Y-61997873D01*
X142290538Y-62235968D01*
X142242919Y-62331206D01*
X142195300Y-62378825D01*
X142100062Y-62426444D01*
X141814348Y-62426444D01*
X141719110Y-62378825D01*
X141671491Y-62331206D01*
%TO.C,SW22*%
X138718402Y-43368199D02*
X138861259Y-43415818D01*
X139099354Y-43415818D01*
X139194592Y-43368199D01*
X139242211Y-43320580D01*
X139289830Y-43225342D01*
X139289830Y-43130104D01*
X139242211Y-43034866D01*
X139194592Y-42987247D01*
X139099354Y-42939628D01*
X138908878Y-42892009D01*
X138813640Y-42844390D01*
X138766021Y-42796771D01*
X138718402Y-42701533D01*
X138718402Y-42606295D01*
X138766021Y-42511057D01*
X138813640Y-42463438D01*
X138908878Y-42415818D01*
X139146973Y-42415818D01*
X139289830Y-42463438D01*
X139623164Y-42415818D02*
X139861259Y-43415818D01*
X140051735Y-42701533D01*
X140242211Y-43415818D01*
X140480306Y-42415818D01*
X140813640Y-42511057D02*
X140861259Y-42463438D01*
X140956497Y-42415818D01*
X141194592Y-42415818D01*
X141289830Y-42463438D01*
X141337449Y-42511057D01*
X141385068Y-42606295D01*
X141385068Y-42701533D01*
X141337449Y-42844390D01*
X140766021Y-43415818D01*
X141385068Y-43415818D01*
X141766021Y-42511057D02*
X141813640Y-42463438D01*
X141908878Y-42415818D01*
X142146973Y-42415818D01*
X142242211Y-42463438D01*
X142289830Y-42511057D01*
X142337449Y-42606295D01*
X142337449Y-42701533D01*
X142289830Y-42844390D01*
X141718402Y-43415818D01*
X142337449Y-43415818D01*
%TO.C,SW20*%
X80893422Y-123865039D02*
X81035747Y-123815852D01*
X81224641Y-123670909D01*
X81271209Y-123575153D01*
X81280000Y-123508385D01*
X81259801Y-123403839D01*
X81201824Y-123328282D01*
X81106068Y-123281713D01*
X81039300Y-123272923D01*
X80934754Y-123293121D01*
X80754651Y-123371297D01*
X80650105Y-123391496D01*
X80583337Y-123382706D01*
X80487581Y-123336137D01*
X80429604Y-123260579D01*
X80409405Y-123156033D01*
X80418195Y-123089266D01*
X80464764Y-122993510D01*
X80653658Y-122848567D01*
X80795983Y-122799379D01*
X81031445Y-122558680D02*
X81829100Y-123207090D01*
X81545386Y-122524455D01*
X82131330Y-122975181D01*
X81711462Y-122036885D01*
X82033891Y-121909522D02*
X82042681Y-121842754D01*
X82089250Y-121746998D01*
X82278143Y-121602055D01*
X82382689Y-121581857D01*
X82449457Y-121590647D01*
X82545213Y-121637216D01*
X82603190Y-121712773D01*
X82652377Y-121855098D01*
X82546896Y-122656306D01*
X83038020Y-122279454D01*
X82920382Y-121109248D02*
X82995939Y-121051271D01*
X83100485Y-121031072D01*
X83167253Y-121039863D01*
X83263009Y-121086431D01*
X83416742Y-121208558D01*
X83561685Y-121397451D01*
X83639861Y-121577555D01*
X83660060Y-121682101D01*
X83651270Y-121748868D01*
X83604701Y-121844624D01*
X83529143Y-121902602D01*
X83424597Y-121922800D01*
X83357830Y-121914010D01*
X83262074Y-121867441D01*
X83108340Y-121745315D01*
X82963397Y-121556421D01*
X82885221Y-121376318D01*
X82865023Y-121271772D01*
X82873813Y-121205004D01*
X82920382Y-121109248D01*
%TO.C,SW19*%
X157708467Y-75729626D02*
X157851324Y-75777245D01*
X158089419Y-75777245D01*
X158184657Y-75729626D01*
X158232276Y-75682007D01*
X158279895Y-75586769D01*
X158279895Y-75491531D01*
X158232276Y-75396293D01*
X158184657Y-75348674D01*
X158089419Y-75301055D01*
X157898943Y-75253436D01*
X157803705Y-75205817D01*
X157756086Y-75158198D01*
X157708467Y-75062960D01*
X157708467Y-74967722D01*
X157756086Y-74872484D01*
X157803705Y-74824865D01*
X157898943Y-74777245D01*
X158137038Y-74777245D01*
X158279895Y-74824865D01*
X158613229Y-74777245D02*
X158851324Y-75777245D01*
X159041800Y-75062960D01*
X159232276Y-75777245D01*
X159470371Y-74777245D01*
X160375133Y-75777245D02*
X159803705Y-75777245D01*
X160089419Y-75777245D02*
X160089419Y-74777245D01*
X159994181Y-74920103D01*
X159898943Y-75015341D01*
X159803705Y-75062960D01*
X160851324Y-75777245D02*
X161041800Y-75777245D01*
X161137038Y-75729626D01*
X161184657Y-75682007D01*
X161279895Y-75539150D01*
X161327514Y-75348674D01*
X161327514Y-74967722D01*
X161279895Y-74872484D01*
X161232276Y-74824865D01*
X161137038Y-74777245D01*
X160946562Y-74777245D01*
X160851324Y-74824865D01*
X160803705Y-74872484D01*
X160756086Y-74967722D01*
X160756086Y-75205817D01*
X160803705Y-75301055D01*
X160851324Y-75348674D01*
X160946562Y-75396293D01*
X161137038Y-75396293D01*
X161232276Y-75348674D01*
X161279895Y-75301055D01*
X161327514Y-75205817D01*
%TO.C,SW18*%
X157755384Y-56718998D02*
X157898241Y-56766617D01*
X158136336Y-56766617D01*
X158231574Y-56718998D01*
X158279193Y-56671379D01*
X158326812Y-56576141D01*
X158326812Y-56480903D01*
X158279193Y-56385665D01*
X158231574Y-56338046D01*
X158136336Y-56290427D01*
X157945860Y-56242808D01*
X157850622Y-56195189D01*
X157803003Y-56147570D01*
X157755384Y-56052332D01*
X157755384Y-55957094D01*
X157803003Y-55861856D01*
X157850622Y-55814237D01*
X157945860Y-55766617D01*
X158183955Y-55766617D01*
X158326812Y-55814237D01*
X158660146Y-55766617D02*
X158898241Y-56766617D01*
X159088717Y-56052332D01*
X159279193Y-56766617D01*
X159517288Y-55766617D01*
X160422050Y-56766617D02*
X159850622Y-56766617D01*
X160136336Y-56766617D02*
X160136336Y-55766617D01*
X160041098Y-55909475D01*
X159945860Y-56004713D01*
X159850622Y-56052332D01*
X160993479Y-56195189D02*
X160898241Y-56147570D01*
X160850622Y-56099951D01*
X160803003Y-56004713D01*
X160803003Y-55957094D01*
X160850622Y-55861856D01*
X160898241Y-55814237D01*
X160993479Y-55766617D01*
X161183955Y-55766617D01*
X161279193Y-55814237D01*
X161326812Y-55861856D01*
X161374431Y-55957094D01*
X161374431Y-56004713D01*
X161326812Y-56099951D01*
X161279193Y-56147570D01*
X161183955Y-56195189D01*
X160993479Y-56195189D01*
X160898241Y-56242808D01*
X160850622Y-56290427D01*
X160803003Y-56385665D01*
X160803003Y-56576141D01*
X160850622Y-56671379D01*
X160898241Y-56718998D01*
X160993479Y-56766617D01*
X161183955Y-56766617D01*
X161279193Y-56718998D01*
X161326812Y-56671379D01*
X161374431Y-56576141D01*
X161374431Y-56385665D01*
X161326812Y-56290427D01*
X161279193Y-56242808D01*
X161183955Y-56195189D01*
%TO.C,SW17*%
X157736000Y-37593548D02*
X157878857Y-37641167D01*
X158116952Y-37641167D01*
X158212190Y-37593548D01*
X158259809Y-37545929D01*
X158307428Y-37450691D01*
X158307428Y-37355453D01*
X158259809Y-37260215D01*
X158212190Y-37212596D01*
X158116952Y-37164977D01*
X157926476Y-37117358D01*
X157831238Y-37069739D01*
X157783619Y-37022120D01*
X157736000Y-36926882D01*
X157736000Y-36831644D01*
X157783619Y-36736406D01*
X157831238Y-36688787D01*
X157926476Y-36641167D01*
X158164571Y-36641167D01*
X158307428Y-36688787D01*
X158640762Y-36641167D02*
X158878857Y-37641167D01*
X159069333Y-36926882D01*
X159259809Y-37641167D01*
X159497904Y-36641167D01*
X160402666Y-37641167D02*
X159831238Y-37641167D01*
X160116952Y-37641167D02*
X160116952Y-36641167D01*
X160021714Y-36784025D01*
X159926476Y-36879263D01*
X159831238Y-36926882D01*
X160736000Y-36641167D02*
X161402666Y-36641167D01*
X160974095Y-37641167D01*
%TO.C,SW15*%
X99623445Y-112094382D02*
X99773042Y-112077166D01*
X99988830Y-111976542D01*
X100055020Y-111893135D01*
X100078053Y-111829853D01*
X100080961Y-111723413D01*
X100040712Y-111637098D01*
X99957305Y-111570908D01*
X99894022Y-111547875D01*
X99787583Y-111544967D01*
X99594828Y-111582308D01*
X99488388Y-111579400D01*
X99425106Y-111556367D01*
X99341699Y-111490177D01*
X99301450Y-111403862D01*
X99304358Y-111297422D01*
X99327391Y-111234140D01*
X99393581Y-111150733D01*
X99609369Y-111050110D01*
X99758966Y-111032893D01*
X100040944Y-110848863D02*
X100679350Y-111654547D01*
X100550110Y-110926686D01*
X101024610Y-111493550D01*
X100817779Y-110486619D01*
X102060390Y-111010558D02*
X101542500Y-111252054D01*
X101801445Y-111131306D02*
X101378827Y-110224998D01*
X101352886Y-110394720D01*
X101306820Y-110521284D01*
X101240630Y-110604691D01*
X102457765Y-109721881D02*
X102026190Y-109923128D01*
X102184279Y-110374828D01*
X102207312Y-110311545D01*
X102273502Y-110228139D01*
X102489290Y-110127515D01*
X102595729Y-110130423D01*
X102659011Y-110153456D01*
X102742418Y-110219646D01*
X102843042Y-110435434D01*
X102840134Y-110541874D01*
X102817101Y-110605156D01*
X102750910Y-110688563D01*
X102535123Y-110789186D01*
X102428683Y-110786278D01*
X102365401Y-110763245D01*
%TO.C,SW14*%
X176768900Y-79575109D02*
X176911757Y-79622728D01*
X177149852Y-79622728D01*
X177245090Y-79575109D01*
X177292709Y-79527490D01*
X177340328Y-79432252D01*
X177340328Y-79337014D01*
X177292709Y-79241776D01*
X177245090Y-79194157D01*
X177149852Y-79146538D01*
X176959376Y-79098919D01*
X176864138Y-79051300D01*
X176816519Y-79003681D01*
X176768900Y-78908443D01*
X176768900Y-78813205D01*
X176816519Y-78717967D01*
X176864138Y-78670348D01*
X176959376Y-78622728D01*
X177197471Y-78622728D01*
X177340328Y-78670348D01*
X177673662Y-78622728D02*
X177911757Y-79622728D01*
X178102233Y-78908443D01*
X178292709Y-79622728D01*
X178530804Y-78622728D01*
X179435566Y-79622728D02*
X178864138Y-79622728D01*
X179149852Y-79622728D02*
X179149852Y-78622728D01*
X179054614Y-78765586D01*
X178959376Y-78860824D01*
X178864138Y-78908443D01*
X180292709Y-78956062D02*
X180292709Y-79622728D01*
X180054614Y-78575109D02*
X179816519Y-79289395D01*
X180435566Y-79289395D01*
%TO.C,SW13*%
X176749526Y-60449663D02*
X176892383Y-60497282D01*
X177130478Y-60497282D01*
X177225716Y-60449663D01*
X177273335Y-60402044D01*
X177320954Y-60306806D01*
X177320954Y-60211568D01*
X177273335Y-60116330D01*
X177225716Y-60068711D01*
X177130478Y-60021092D01*
X176940002Y-59973473D01*
X176844764Y-59925854D01*
X176797145Y-59878235D01*
X176749526Y-59782997D01*
X176749526Y-59687759D01*
X176797145Y-59592521D01*
X176844764Y-59544902D01*
X176940002Y-59497282D01*
X177178097Y-59497282D01*
X177320954Y-59544902D01*
X177654288Y-59497282D02*
X177892383Y-60497282D01*
X178082859Y-59782997D01*
X178273335Y-60497282D01*
X178511430Y-59497282D01*
X179416192Y-60497282D02*
X178844764Y-60497282D01*
X179130478Y-60497282D02*
X179130478Y-59497282D01*
X179035240Y-59640140D01*
X178940002Y-59735378D01*
X178844764Y-59782997D01*
X179749526Y-59497282D02*
X180368573Y-59497282D01*
X180035240Y-59878235D01*
X180178097Y-59878235D01*
X180273335Y-59925854D01*
X180320954Y-59973473D01*
X180368573Y-60068711D01*
X180368573Y-60306806D01*
X180320954Y-60402044D01*
X180273335Y-60449663D01*
X180178097Y-60497282D01*
X179892383Y-60497282D01*
X179797145Y-60449663D01*
X179749526Y-60402044D01*
%TO.C,SW12*%
X176796436Y-41439036D02*
X176939293Y-41486655D01*
X177177388Y-41486655D01*
X177272626Y-41439036D01*
X177320245Y-41391417D01*
X177367864Y-41296179D01*
X177367864Y-41200941D01*
X177320245Y-41105703D01*
X177272626Y-41058084D01*
X177177388Y-41010465D01*
X176986912Y-40962846D01*
X176891674Y-40915227D01*
X176844055Y-40867608D01*
X176796436Y-40772370D01*
X176796436Y-40677132D01*
X176844055Y-40581894D01*
X176891674Y-40534275D01*
X176986912Y-40486655D01*
X177225007Y-40486655D01*
X177367864Y-40534275D01*
X177701198Y-40486655D02*
X177939293Y-41486655D01*
X178129769Y-40772370D01*
X178320245Y-41486655D01*
X178558340Y-40486655D01*
X179463102Y-41486655D02*
X178891674Y-41486655D01*
X179177388Y-41486655D02*
X179177388Y-40486655D01*
X179082150Y-40629513D01*
X178986912Y-40724751D01*
X178891674Y-40772370D01*
X179844055Y-40581894D02*
X179891674Y-40534275D01*
X179986912Y-40486655D01*
X180225007Y-40486655D01*
X180320245Y-40534275D01*
X180367864Y-40581894D01*
X180415483Y-40677132D01*
X180415483Y-40772370D01*
X180367864Y-40915227D01*
X179796436Y-41486655D01*
X180415483Y-41486655D01*
%TO.C,SW10*%
X120454799Y-104519784D02*
X120604577Y-104535354D01*
X120837028Y-104483821D01*
X120919702Y-104416717D01*
X120955886Y-104359920D01*
X120981763Y-104256633D01*
X120961149Y-104163652D01*
X120894046Y-104080978D01*
X120837249Y-104044795D01*
X120733962Y-104018918D01*
X120537694Y-104013654D01*
X120434407Y-103987777D01*
X120377610Y-103951593D01*
X120310506Y-103868920D01*
X120289893Y-103775939D01*
X120315770Y-103672652D01*
X120351953Y-103615855D01*
X120434627Y-103548751D01*
X120667079Y-103497218D01*
X120816856Y-103512788D01*
X121131982Y-103394152D02*
X121580873Y-104318914D01*
X121612234Y-103580333D01*
X121952795Y-104236461D01*
X121968807Y-103208632D01*
X123068562Y-103989102D02*
X122510678Y-104112781D01*
X122789620Y-104050941D02*
X122573180Y-103074645D01*
X122511120Y-103234730D01*
X122438753Y-103348323D01*
X122356079Y-103415427D01*
X123456496Y-102878819D02*
X123549476Y-102858206D01*
X123652764Y-102884083D01*
X123709561Y-102920266D01*
X123776664Y-103002940D01*
X123864381Y-103178595D01*
X123915914Y-103411046D01*
X123910651Y-103607314D01*
X123884774Y-103710601D01*
X123848590Y-103767398D01*
X123765916Y-103834502D01*
X123672936Y-103855115D01*
X123569648Y-103829238D01*
X123512851Y-103793054D01*
X123445748Y-103710381D01*
X123358031Y-103534726D01*
X123306498Y-103302275D01*
X123311761Y-103106007D01*
X123337638Y-103002720D01*
X123373822Y-102945923D01*
X123456496Y-102878819D01*
%TO.C,SW9*%
X196347089Y-89061052D02*
X196489946Y-89108671D01*
X196728042Y-89108671D01*
X196823280Y-89061052D01*
X196870899Y-89013433D01*
X196918518Y-88918195D01*
X196918518Y-88822957D01*
X196870899Y-88727719D01*
X196823280Y-88680100D01*
X196728042Y-88632481D01*
X196537565Y-88584862D01*
X196442327Y-88537243D01*
X196394708Y-88489624D01*
X196347089Y-88394386D01*
X196347089Y-88299148D01*
X196394708Y-88203910D01*
X196442327Y-88156291D01*
X196537565Y-88108671D01*
X196775661Y-88108671D01*
X196918518Y-88156291D01*
X197251851Y-88108671D02*
X197489946Y-89108671D01*
X197680423Y-88394386D01*
X197870899Y-89108671D01*
X198108994Y-88108671D01*
X198537565Y-89108671D02*
X198728042Y-89108671D01*
X198823280Y-89061052D01*
X198870899Y-89013433D01*
X198966137Y-88870576D01*
X199013756Y-88680100D01*
X199013756Y-88299148D01*
X198966137Y-88203910D01*
X198918518Y-88156291D01*
X198823280Y-88108671D01*
X198632803Y-88108671D01*
X198537565Y-88156291D01*
X198489946Y-88203910D01*
X198442327Y-88299148D01*
X198442327Y-88537243D01*
X198489946Y-88632481D01*
X198537565Y-88680100D01*
X198632803Y-88727719D01*
X198823280Y-88727719D01*
X198918518Y-88680100D01*
X198966137Y-88632481D01*
X199013756Y-88537243D01*
%TO.C,SW8*%
X196303447Y-70026152D02*
X196446304Y-70073771D01*
X196684400Y-70073771D01*
X196779638Y-70026152D01*
X196827257Y-69978533D01*
X196874876Y-69883295D01*
X196874876Y-69788057D01*
X196827257Y-69692819D01*
X196779638Y-69645200D01*
X196684400Y-69597581D01*
X196493923Y-69549962D01*
X196398685Y-69502343D01*
X196351066Y-69454724D01*
X196303447Y-69359486D01*
X196303447Y-69264248D01*
X196351066Y-69169010D01*
X196398685Y-69121391D01*
X196493923Y-69073771D01*
X196732019Y-69073771D01*
X196874876Y-69121391D01*
X197208209Y-69073771D02*
X197446304Y-70073771D01*
X197636781Y-69359486D01*
X197827257Y-70073771D01*
X198065352Y-69073771D01*
X198589161Y-69502343D02*
X198493923Y-69454724D01*
X198446304Y-69407105D01*
X198398685Y-69311867D01*
X198398685Y-69264248D01*
X198446304Y-69169010D01*
X198493923Y-69121391D01*
X198589161Y-69073771D01*
X198779638Y-69073771D01*
X198874876Y-69121391D01*
X198922495Y-69169010D01*
X198970114Y-69264248D01*
X198970114Y-69311867D01*
X198922495Y-69407105D01*
X198874876Y-69454724D01*
X198779638Y-69502343D01*
X198589161Y-69502343D01*
X198493923Y-69549962D01*
X198446304Y-69597581D01*
X198398685Y-69692819D01*
X198398685Y-69883295D01*
X198446304Y-69978533D01*
X198493923Y-70026152D01*
X198589161Y-70073771D01*
X198779638Y-70073771D01*
X198874876Y-70026152D01*
X198922495Y-69978533D01*
X198970114Y-69883295D01*
X198970114Y-69692819D01*
X198922495Y-69597581D01*
X198874876Y-69549962D01*
X198779638Y-69502343D01*
%TO.C,SW7*%
X196259799Y-50991251D02*
X196402656Y-51038870D01*
X196640752Y-51038870D01*
X196735990Y-50991251D01*
X196783609Y-50943632D01*
X196831228Y-50848394D01*
X196831228Y-50753156D01*
X196783609Y-50657918D01*
X196735990Y-50610299D01*
X196640752Y-50562680D01*
X196450275Y-50515061D01*
X196355037Y-50467442D01*
X196307418Y-50419823D01*
X196259799Y-50324585D01*
X196259799Y-50229347D01*
X196307418Y-50134109D01*
X196355037Y-50086490D01*
X196450275Y-50038870D01*
X196688371Y-50038870D01*
X196831228Y-50086490D01*
X197164561Y-50038870D02*
X197402656Y-51038870D01*
X197593133Y-50324585D01*
X197783609Y-51038870D01*
X198021704Y-50038870D01*
X198307418Y-50038870D02*
X198974085Y-50038870D01*
X198545513Y-51038870D01*
%TO.C,RE1*%
X90191952Y-92018380D02*
X89858619Y-91542190D01*
X89620523Y-92018380D02*
X89620523Y-91018380D01*
X90001476Y-91018380D01*
X90096714Y-91066000D01*
X90144333Y-91113619D01*
X90191952Y-91208857D01*
X90191952Y-91351714D01*
X90144333Y-91446952D01*
X90096714Y-91494571D01*
X90001476Y-91542190D01*
X89620523Y-91542190D01*
X90620523Y-91494571D02*
X90953857Y-91494571D01*
X91096714Y-92018380D02*
X90620523Y-92018380D01*
X90620523Y-91018380D01*
X91096714Y-91018380D01*
X92049095Y-92018380D02*
X91477666Y-92018380D01*
X91763380Y-92018380D02*
X91763380Y-91018380D01*
X91668142Y-91161238D01*
X91572904Y-91256476D01*
X91477666Y-91304095D01*
%TO.C,D_RE1*%
X93999257Y-106911904D02*
X93999257Y-106111904D01*
X94189733Y-106111904D01*
X94304019Y-106150000D01*
X94380209Y-106226190D01*
X94418304Y-106302380D01*
X94456400Y-106454761D01*
X94456400Y-106569047D01*
X94418304Y-106721428D01*
X94380209Y-106797619D01*
X94304019Y-106873809D01*
X94189733Y-106911904D01*
X93999257Y-106911904D01*
X94608780Y-106988095D02*
X95218304Y-106988095D01*
X95865923Y-106911904D02*
X95599257Y-106530952D01*
X95408780Y-106911904D02*
X95408780Y-106111904D01*
X95713542Y-106111904D01*
X95789733Y-106150000D01*
X95827828Y-106188095D01*
X95865923Y-106264285D01*
X95865923Y-106378571D01*
X95827828Y-106454761D01*
X95789733Y-106492857D01*
X95713542Y-106530952D01*
X95408780Y-106530952D01*
X96208780Y-106492857D02*
X96475447Y-106492857D01*
X96589733Y-106911904D02*
X96208780Y-106911904D01*
X96208780Y-106111904D01*
X96589733Y-106111904D01*
X97351638Y-106911904D02*
X96894495Y-106911904D01*
X97123066Y-106911904D02*
X97123066Y-106111904D01*
X97046876Y-106226190D01*
X96970685Y-106302380D01*
X96894495Y-106340476D01*
%TO.C,RST1*%
X85914666Y-64243666D02*
X85581333Y-64477000D01*
X85914666Y-64643666D02*
X85214666Y-64643666D01*
X85214666Y-64377000D01*
X85248000Y-64310333D01*
X85281333Y-64277000D01*
X85348000Y-64243666D01*
X85448000Y-64243666D01*
X85514666Y-64277000D01*
X85548000Y-64310333D01*
X85581333Y-64377000D01*
X85581333Y-64643666D01*
X85881333Y-63977000D02*
X85914666Y-63877000D01*
X85914666Y-63710333D01*
X85881333Y-63643666D01*
X85848000Y-63610333D01*
X85781333Y-63577000D01*
X85714666Y-63577000D01*
X85648000Y-63610333D01*
X85614666Y-63643666D01*
X85581333Y-63710333D01*
X85548000Y-63843666D01*
X85514666Y-63910333D01*
X85481333Y-63943666D01*
X85414666Y-63977000D01*
X85348000Y-63977000D01*
X85281333Y-63943666D01*
X85248000Y-63910333D01*
X85214666Y-63843666D01*
X85214666Y-63677000D01*
X85248000Y-63577000D01*
X85214666Y-63377000D02*
X85214666Y-62977000D01*
X85914666Y-63177000D02*
X85214666Y-63177000D01*
X85914666Y-62377000D02*
X85914666Y-62777000D01*
X85914666Y-62577000D02*
X85214666Y-62577000D01*
X85314666Y-62643666D01*
X85381333Y-62710333D01*
X85414666Y-62777000D01*
%TO.C,D8*%
X197885123Y-85042504D02*
X197885123Y-84242504D01*
X198075600Y-84242504D01*
X198189885Y-84280600D01*
X198266076Y-84356790D01*
X198304171Y-84432980D01*
X198342266Y-84585361D01*
X198342266Y-84699647D01*
X198304171Y-84852028D01*
X198266076Y-84928219D01*
X198189885Y-85004409D01*
X198075600Y-85042504D01*
X197885123Y-85042504D01*
X198799409Y-84585361D02*
X198723219Y-84547266D01*
X198685123Y-84509171D01*
X198647028Y-84432980D01*
X198647028Y-84394885D01*
X198685123Y-84318695D01*
X198723219Y-84280600D01*
X198799409Y-84242504D01*
X198951790Y-84242504D01*
X199027980Y-84280600D01*
X199066076Y-84318695D01*
X199104171Y-84394885D01*
X199104171Y-84432980D01*
X199066076Y-84509171D01*
X199027980Y-84547266D01*
X198951790Y-84585361D01*
X198799409Y-84585361D01*
X198723219Y-84623457D01*
X198685123Y-84661552D01*
X198647028Y-84737742D01*
X198647028Y-84890123D01*
X198685123Y-84966314D01*
X198723219Y-85004409D01*
X198799409Y-85042504D01*
X198951790Y-85042504D01*
X199027980Y-85004409D01*
X199066076Y-84966314D01*
X199104171Y-84890123D01*
X199104171Y-84737742D01*
X199066076Y-84661552D01*
X199027980Y-84623457D01*
X198951790Y-84585361D01*
%TO.C,D28*%
X113757149Y-96343468D02*
X112957149Y-96343468D01*
X112957149Y-96152992D01*
X112995245Y-96038706D01*
X113071435Y-95962516D01*
X113147625Y-95924420D01*
X113300006Y-95886325D01*
X113414292Y-95886325D01*
X113566673Y-95924420D01*
X113642864Y-95962516D01*
X113719054Y-96038706D01*
X113757149Y-96152992D01*
X113757149Y-96343468D01*
X113033340Y-95581563D02*
X112995245Y-95543468D01*
X112957149Y-95467278D01*
X112957149Y-95276801D01*
X112995245Y-95200611D01*
X113033340Y-95162516D01*
X113109530Y-95124420D01*
X113185721Y-95124420D01*
X113300006Y-95162516D01*
X113757149Y-95619659D01*
X113757149Y-95124420D01*
X113300006Y-94667278D02*
X113261911Y-94743468D01*
X113223816Y-94781563D01*
X113147625Y-94819659D01*
X113109530Y-94819659D01*
X113033340Y-94781563D01*
X112995245Y-94743468D01*
X112957149Y-94667278D01*
X112957149Y-94514897D01*
X112995245Y-94438706D01*
X113033340Y-94400611D01*
X113109530Y-94362516D01*
X113147625Y-94362516D01*
X113223816Y-94400611D01*
X113261911Y-94438706D01*
X113300006Y-94514897D01*
X113300006Y-94667278D01*
X113338102Y-94743468D01*
X113376197Y-94781563D01*
X113452387Y-94819659D01*
X113604768Y-94819659D01*
X113680959Y-94781563D01*
X113719054Y-94743468D01*
X113757149Y-94667278D01*
X113757149Y-94514897D01*
X113719054Y-94438706D01*
X113680959Y-94400611D01*
X113604768Y-94362516D01*
X113452387Y-94362516D01*
X113376197Y-94400611D01*
X113338102Y-94438706D01*
X113300006Y-94514897D01*
%TO.C,D27*%
X113664983Y-77489689D02*
X112864983Y-77489689D01*
X112864983Y-77299213D01*
X112903079Y-77184927D01*
X112979269Y-77108737D01*
X113055459Y-77070641D01*
X113207840Y-77032546D01*
X113322126Y-77032546D01*
X113474507Y-77070641D01*
X113550698Y-77108737D01*
X113626888Y-77184927D01*
X113664983Y-77299213D01*
X113664983Y-77489689D01*
X112941174Y-76727784D02*
X112903079Y-76689689D01*
X112864983Y-76613499D01*
X112864983Y-76423022D01*
X112903079Y-76346832D01*
X112941174Y-76308737D01*
X113017364Y-76270641D01*
X113093555Y-76270641D01*
X113207840Y-76308737D01*
X113664983Y-76765880D01*
X113664983Y-76270641D01*
X112864983Y-76003975D02*
X112864983Y-75470641D01*
X113664983Y-75813499D01*
%TO.C,D26*%
X121075571Y-60099704D02*
X121075571Y-59299704D01*
X121266047Y-59299704D01*
X121380333Y-59337800D01*
X121456523Y-59413990D01*
X121494619Y-59490180D01*
X121532714Y-59642561D01*
X121532714Y-59756847D01*
X121494619Y-59909228D01*
X121456523Y-59985419D01*
X121380333Y-60061609D01*
X121266047Y-60099704D01*
X121075571Y-60099704D01*
X121837476Y-59375895D02*
X121875571Y-59337800D01*
X121951761Y-59299704D01*
X122142238Y-59299704D01*
X122218428Y-59337800D01*
X122256523Y-59375895D01*
X122294619Y-59452085D01*
X122294619Y-59528276D01*
X122256523Y-59642561D01*
X121799380Y-60099704D01*
X122294619Y-60099704D01*
X122980333Y-59299704D02*
X122827952Y-59299704D01*
X122751761Y-59337800D01*
X122713666Y-59375895D01*
X122637476Y-59490180D01*
X122599380Y-59642561D01*
X122599380Y-59947323D01*
X122637476Y-60023514D01*
X122675571Y-60061609D01*
X122751761Y-60099704D01*
X122904142Y-60099704D01*
X122980333Y-60061609D01*
X123018428Y-60023514D01*
X123056523Y-59947323D01*
X123056523Y-59756847D01*
X123018428Y-59680657D01*
X122980333Y-59642561D01*
X122904142Y-59604466D01*
X122751761Y-59604466D01*
X122675571Y-59642561D01*
X122637476Y-59680657D01*
X122599380Y-59756847D01*
%TO.C,D24*%
X132769513Y-94934990D02*
X131969513Y-94934990D01*
X131969513Y-94744514D01*
X132007609Y-94630228D01*
X132083799Y-94554038D01*
X132159989Y-94515942D01*
X132312370Y-94477847D01*
X132426656Y-94477847D01*
X132579037Y-94515942D01*
X132655228Y-94554038D01*
X132731418Y-94630228D01*
X132769513Y-94744514D01*
X132769513Y-94934990D01*
X132045704Y-94173085D02*
X132007609Y-94134990D01*
X131969513Y-94058800D01*
X131969513Y-93868323D01*
X132007609Y-93792133D01*
X132045704Y-93754038D01*
X132121894Y-93715942D01*
X132198085Y-93715942D01*
X132312370Y-93754038D01*
X132769513Y-94211181D01*
X132769513Y-93715942D01*
X132236180Y-93030228D02*
X132769513Y-93030228D01*
X131931418Y-93220704D02*
X132502847Y-93411181D01*
X132502847Y-92915942D01*
%TO.C,D23*%
X132931253Y-75858068D02*
X132131253Y-75858068D01*
X132131253Y-75667592D01*
X132169349Y-75553306D01*
X132245539Y-75477116D01*
X132321729Y-75439020D01*
X132474110Y-75400925D01*
X132588396Y-75400925D01*
X132740777Y-75439020D01*
X132816968Y-75477116D01*
X132893158Y-75553306D01*
X132931253Y-75667592D01*
X132931253Y-75858068D01*
X132207444Y-75096163D02*
X132169349Y-75058068D01*
X132131253Y-74981878D01*
X132131253Y-74791401D01*
X132169349Y-74715211D01*
X132207444Y-74677116D01*
X132283634Y-74639020D01*
X132359825Y-74639020D01*
X132474110Y-74677116D01*
X132931253Y-75134259D01*
X132931253Y-74639020D01*
X132131253Y-74372354D02*
X132131253Y-73877116D01*
X132436015Y-74143782D01*
X132436015Y-74029497D01*
X132474110Y-73953306D01*
X132512206Y-73915211D01*
X132588396Y-73877116D01*
X132778872Y-73877116D01*
X132855063Y-73915211D01*
X132893158Y-73953306D01*
X132931253Y-74029497D01*
X132931253Y-74258068D01*
X132893158Y-74334259D01*
X132855063Y-74372354D01*
%TO.C,D22*%
X132779296Y-56502983D02*
X131979296Y-56502983D01*
X131979296Y-56312507D01*
X132017392Y-56198221D01*
X132093582Y-56122031D01*
X132169772Y-56083935D01*
X132322153Y-56045840D01*
X132436439Y-56045840D01*
X132588820Y-56083935D01*
X132665011Y-56122031D01*
X132741201Y-56198221D01*
X132779296Y-56312507D01*
X132779296Y-56502983D01*
X132055487Y-55741078D02*
X132017392Y-55702983D01*
X131979296Y-55626793D01*
X131979296Y-55436316D01*
X132017392Y-55360126D01*
X132055487Y-55322031D01*
X132131677Y-55283935D01*
X132207868Y-55283935D01*
X132322153Y-55322031D01*
X132779296Y-55779174D01*
X132779296Y-55283935D01*
X132055487Y-54979174D02*
X132017392Y-54941078D01*
X131979296Y-54864888D01*
X131979296Y-54674412D01*
X132017392Y-54598221D01*
X132055487Y-54560126D01*
X132131677Y-54522031D01*
X132207868Y-54522031D01*
X132322153Y-54560126D01*
X132779296Y-55017269D01*
X132779296Y-54522031D01*
%TO.C,D19*%
X151954307Y-89062816D02*
X151154307Y-89062816D01*
X151154307Y-88872340D01*
X151192403Y-88758054D01*
X151268593Y-88681864D01*
X151344783Y-88643768D01*
X151497164Y-88605673D01*
X151611450Y-88605673D01*
X151763831Y-88643768D01*
X151840022Y-88681864D01*
X151916212Y-88758054D01*
X151954307Y-88872340D01*
X151954307Y-89062816D01*
X151954307Y-87843768D02*
X151954307Y-88300911D01*
X151954307Y-88072340D02*
X151154307Y-88072340D01*
X151268593Y-88148530D01*
X151344783Y-88224721D01*
X151382879Y-88300911D01*
X151954307Y-87462816D02*
X151954307Y-87310435D01*
X151916212Y-87234245D01*
X151878117Y-87196149D01*
X151763831Y-87119959D01*
X151611450Y-87081864D01*
X151306688Y-87081864D01*
X151230498Y-87119959D01*
X151192403Y-87158054D01*
X151154307Y-87234245D01*
X151154307Y-87386626D01*
X151192403Y-87462816D01*
X151230498Y-87500911D01*
X151306688Y-87539007D01*
X151497164Y-87539007D01*
X151573355Y-87500911D01*
X151611450Y-87462816D01*
X151649545Y-87386626D01*
X151649545Y-87234245D01*
X151611450Y-87158054D01*
X151573355Y-87119959D01*
X151497164Y-87081864D01*
%TO.C,D18*%
X151748904Y-69957828D02*
X150948904Y-69957828D01*
X150948904Y-69767352D01*
X150987000Y-69653066D01*
X151063190Y-69576876D01*
X151139380Y-69538780D01*
X151291761Y-69500685D01*
X151406047Y-69500685D01*
X151558428Y-69538780D01*
X151634619Y-69576876D01*
X151710809Y-69653066D01*
X151748904Y-69767352D01*
X151748904Y-69957828D01*
X151748904Y-68738780D02*
X151748904Y-69195923D01*
X151748904Y-68967352D02*
X150948904Y-68967352D01*
X151063190Y-69043542D01*
X151139380Y-69119733D01*
X151177476Y-69195923D01*
X151291761Y-68281638D02*
X151253666Y-68357828D01*
X151215571Y-68395923D01*
X151139380Y-68434019D01*
X151101285Y-68434019D01*
X151025095Y-68395923D01*
X150987000Y-68357828D01*
X150948904Y-68281638D01*
X150948904Y-68129257D01*
X150987000Y-68053066D01*
X151025095Y-68014971D01*
X151101285Y-67976876D01*
X151139380Y-67976876D01*
X151215571Y-68014971D01*
X151253666Y-68053066D01*
X151291761Y-68129257D01*
X151291761Y-68281638D01*
X151329857Y-68357828D01*
X151367952Y-68395923D01*
X151444142Y-68434019D01*
X151596523Y-68434019D01*
X151672714Y-68395923D01*
X151710809Y-68357828D01*
X151748904Y-68281638D01*
X151748904Y-68129257D01*
X151710809Y-68053066D01*
X151672714Y-68014971D01*
X151596523Y-67976876D01*
X151444142Y-67976876D01*
X151367952Y-68014971D01*
X151329857Y-68053066D01*
X151291761Y-68129257D01*
%TO.C,D17*%
X151748904Y-53320828D02*
X150948904Y-53320828D01*
X150948904Y-53130352D01*
X150987000Y-53016066D01*
X151063190Y-52939876D01*
X151139380Y-52901780D01*
X151291761Y-52863685D01*
X151406047Y-52863685D01*
X151558428Y-52901780D01*
X151634619Y-52939876D01*
X151710809Y-53016066D01*
X151748904Y-53130352D01*
X151748904Y-53320828D01*
X151748904Y-52101780D02*
X151748904Y-52558923D01*
X151748904Y-52330352D02*
X150948904Y-52330352D01*
X151063190Y-52406542D01*
X151139380Y-52482733D01*
X151177476Y-52558923D01*
X150948904Y-51835114D02*
X150948904Y-51301780D01*
X151748904Y-51644638D01*
%TO.C,D14*%
X170878313Y-92528787D02*
X170078313Y-92528787D01*
X170078313Y-92338311D01*
X170116409Y-92224025D01*
X170192599Y-92147835D01*
X170268789Y-92109739D01*
X170421170Y-92071644D01*
X170535456Y-92071644D01*
X170687837Y-92109739D01*
X170764028Y-92147835D01*
X170840218Y-92224025D01*
X170878313Y-92338311D01*
X170878313Y-92528787D01*
X170878313Y-91309739D02*
X170878313Y-91766882D01*
X170878313Y-91538311D02*
X170078313Y-91538311D01*
X170192599Y-91614501D01*
X170268789Y-91690692D01*
X170306885Y-91766882D01*
X170344980Y-90624025D02*
X170878313Y-90624025D01*
X170040218Y-90814501D02*
X170611647Y-91004978D01*
X170611647Y-90509739D01*
%TO.C,D13*%
X170907468Y-73222226D02*
X170107468Y-73222226D01*
X170107468Y-73031750D01*
X170145564Y-72917464D01*
X170221754Y-72841274D01*
X170297944Y-72803178D01*
X170450325Y-72765083D01*
X170564611Y-72765083D01*
X170716992Y-72803178D01*
X170793183Y-72841274D01*
X170869373Y-72917464D01*
X170907468Y-73031750D01*
X170907468Y-73222226D01*
X170907468Y-72003178D02*
X170907468Y-72460321D01*
X170907468Y-72231750D02*
X170107468Y-72231750D01*
X170221754Y-72307940D01*
X170297944Y-72384131D01*
X170336040Y-72460321D01*
X170107468Y-71736512D02*
X170107468Y-71241274D01*
X170412230Y-71507940D01*
X170412230Y-71393655D01*
X170450325Y-71317464D01*
X170488421Y-71279369D01*
X170564611Y-71241274D01*
X170755087Y-71241274D01*
X170831278Y-71279369D01*
X170869373Y-71317464D01*
X170907468Y-71393655D01*
X170907468Y-71622226D01*
X170869373Y-71698417D01*
X170831278Y-71736512D01*
%TO.C,D12*%
X171814904Y-53828828D02*
X171014904Y-53828828D01*
X171014904Y-53638352D01*
X171053000Y-53524066D01*
X171129190Y-53447876D01*
X171205380Y-53409780D01*
X171357761Y-53371685D01*
X171472047Y-53371685D01*
X171624428Y-53409780D01*
X171700619Y-53447876D01*
X171776809Y-53524066D01*
X171814904Y-53638352D01*
X171814904Y-53828828D01*
X171814904Y-52609780D02*
X171814904Y-53066923D01*
X171814904Y-52838352D02*
X171014904Y-52838352D01*
X171129190Y-52914542D01*
X171205380Y-52990733D01*
X171243476Y-53066923D01*
X171091095Y-52305019D02*
X171053000Y-52266923D01*
X171014904Y-52190733D01*
X171014904Y-52000257D01*
X171053000Y-51924066D01*
X171091095Y-51885971D01*
X171167285Y-51847876D01*
X171243476Y-51847876D01*
X171357761Y-51885971D01*
X171814904Y-52343114D01*
X171814904Y-51847876D01*
%TO.C,D9*%
X189635856Y-101832642D02*
X188835856Y-101832642D01*
X188835856Y-101642166D01*
X188873952Y-101527880D01*
X188950142Y-101451689D01*
X189026332Y-101413594D01*
X189178713Y-101375499D01*
X189292999Y-101375499D01*
X189445380Y-101413594D01*
X189521571Y-101451689D01*
X189597761Y-101527880D01*
X189635856Y-101642166D01*
X189635856Y-101832642D01*
X189635856Y-100994546D02*
X189635856Y-100842166D01*
X189597761Y-100765975D01*
X189559666Y-100727880D01*
X189445380Y-100651689D01*
X189292999Y-100613594D01*
X188988237Y-100613594D01*
X188912047Y-100651689D01*
X188873952Y-100689785D01*
X188835856Y-100765975D01*
X188835856Y-100918356D01*
X188873952Y-100994546D01*
X188912047Y-101032642D01*
X188988237Y-101070737D01*
X189178713Y-101070737D01*
X189254904Y-101032642D01*
X189292999Y-100994546D01*
X189331094Y-100918356D01*
X189331094Y-100765975D01*
X189292999Y-100689785D01*
X189254904Y-100651689D01*
X189178713Y-100613594D01*
%TO.C,D7*%
X189985325Y-62132849D02*
X189185325Y-62132849D01*
X189185325Y-61942373D01*
X189223421Y-61828087D01*
X189299611Y-61751896D01*
X189375801Y-61713801D01*
X189528182Y-61675706D01*
X189642468Y-61675706D01*
X189794849Y-61713801D01*
X189871040Y-61751896D01*
X189947230Y-61828087D01*
X189985325Y-61942373D01*
X189985325Y-62132849D01*
X189185325Y-61409039D02*
X189185325Y-60875706D01*
X189985325Y-61218563D01*
%TO.C,J3*%
X104974895Y-78604933D02*
X105555466Y-78604933D01*
X105671580Y-78643638D01*
X105748990Y-78721047D01*
X105787695Y-78837161D01*
X105787695Y-78914571D01*
X104974895Y-78295295D02*
X104974895Y-77792133D01*
X105284533Y-78063066D01*
X105284533Y-77946952D01*
X105323238Y-77869542D01*
X105361942Y-77830838D01*
X105439352Y-77792133D01*
X105632876Y-77792133D01*
X105710285Y-77830838D01*
X105748990Y-77869542D01*
X105787695Y-77946952D01*
X105787695Y-78179180D01*
X105748990Y-78256590D01*
X105710285Y-78295295D01*
%TD*%
M02*
