%TF.GenerationSoftware,KiCad,Pcbnew,(5.1.7)-1*%
%TF.CreationDate,2021-04-16T23:41:49+05:30*%
%TF.ProjectId,Pteron56v0,50746572-6f6e-4353-9676-302e6b696361,rev?*%
%TF.SameCoordinates,Original*%
%TF.FileFunction,Legend,Bot*%
%TF.FilePolarity,Positive*%
%FSLAX46Y46*%
G04 Gerber Fmt 4.6, Leading zero omitted, Abs format (unit mm)*
G04 Created by KiCad (PCBNEW (5.1.7)-1) date 2021-04-16 23:41:49*
%MOMM*%
%LPD*%
G01*
G04 APERTURE LIST*
%ADD10C,0.150000*%
%ADD11C,0.125000*%
%ADD12C,0.250000*%
%ADD13C,0.010000*%
%ADD14C,0.120000*%
%ADD15C,0.203200*%
%ADD16C,0.066040*%
G04 APERTURE END LIST*
D10*
X104765857Y-98718714D02*
X104765857Y-99528238D01*
X104813476Y-99623476D01*
X104861095Y-99671095D01*
X104956333Y-99718714D01*
X105099190Y-99718714D01*
X105194428Y-99671095D01*
X104765857Y-99337761D02*
X104861095Y-99385380D01*
X105051571Y-99385380D01*
X105146809Y-99337761D01*
X105194428Y-99290142D01*
X105242047Y-99194904D01*
X105242047Y-98909190D01*
X105194428Y-98813952D01*
X105146809Y-98766333D01*
X105051571Y-98718714D01*
X104861095Y-98718714D01*
X104765857Y-98766333D01*
X104289666Y-99385380D02*
X104289666Y-98718714D01*
X104289666Y-98385380D02*
X104337285Y-98433000D01*
X104289666Y-98480619D01*
X104242047Y-98433000D01*
X104289666Y-98385380D01*
X104289666Y-98480619D01*
X103956333Y-98718714D02*
X103575380Y-98718714D01*
X103813476Y-98385380D02*
X103813476Y-99242523D01*
X103765857Y-99337761D01*
X103670619Y-99385380D01*
X103575380Y-99385380D01*
X103242047Y-99385380D02*
X103242047Y-98385380D01*
X102813476Y-99385380D02*
X102813476Y-98861571D01*
X102861095Y-98766333D01*
X102956333Y-98718714D01*
X103099190Y-98718714D01*
X103194428Y-98766333D01*
X103242047Y-98813952D01*
X101908714Y-98718714D02*
X101908714Y-99385380D01*
X102337285Y-98718714D02*
X102337285Y-99242523D01*
X102289666Y-99337761D01*
X102194428Y-99385380D01*
X102051571Y-99385380D01*
X101956333Y-99337761D01*
X101908714Y-99290142D01*
X101432523Y-99385380D02*
X101432523Y-98385380D01*
X101432523Y-98766333D02*
X101337285Y-98718714D01*
X101146809Y-98718714D01*
X101051571Y-98766333D01*
X101003952Y-98813952D01*
X100956333Y-98909190D01*
X100956333Y-99194904D01*
X101003952Y-99290142D01*
X101051571Y-99337761D01*
X101146809Y-99385380D01*
X101337285Y-99385380D01*
X101432523Y-99337761D01*
X100527761Y-99290142D02*
X100480142Y-99337761D01*
X100527761Y-99385380D01*
X100575380Y-99337761D01*
X100527761Y-99290142D01*
X100527761Y-99385380D01*
X99623000Y-99337761D02*
X99718238Y-99385380D01*
X99908714Y-99385380D01*
X100003952Y-99337761D01*
X100051571Y-99290142D01*
X100099190Y-99194904D01*
X100099190Y-98909190D01*
X100051571Y-98813952D01*
X100003952Y-98766333D01*
X99908714Y-98718714D01*
X99718238Y-98718714D01*
X99623000Y-98766333D01*
X99051571Y-99385380D02*
X99146809Y-99337761D01*
X99194428Y-99290142D01*
X99242047Y-99194904D01*
X99242047Y-98909190D01*
X99194428Y-98813952D01*
X99146809Y-98766333D01*
X99051571Y-98718714D01*
X98908714Y-98718714D01*
X98813476Y-98766333D01*
X98765857Y-98813952D01*
X98718238Y-98909190D01*
X98718238Y-99194904D01*
X98765857Y-99290142D01*
X98813476Y-99337761D01*
X98908714Y-99385380D01*
X99051571Y-99385380D01*
X98289666Y-99385380D02*
X98289666Y-98718714D01*
X98289666Y-98813952D02*
X98242047Y-98766333D01*
X98146809Y-98718714D01*
X98003952Y-98718714D01*
X97908714Y-98766333D01*
X97861095Y-98861571D01*
X97861095Y-99385380D01*
X97861095Y-98861571D02*
X97813476Y-98766333D01*
X97718238Y-98718714D01*
X97575380Y-98718714D01*
X97480142Y-98766333D01*
X97432523Y-98861571D01*
X97432523Y-99385380D01*
X96242047Y-98337761D02*
X97099190Y-99623476D01*
X95908714Y-99385380D02*
X95908714Y-98385380D01*
X95480142Y-99385380D02*
X95480142Y-98861571D01*
X95527761Y-98766333D01*
X95623000Y-98718714D01*
X95765857Y-98718714D01*
X95861095Y-98766333D01*
X95908714Y-98813952D01*
X94575380Y-99385380D02*
X94575380Y-98861571D01*
X94623000Y-98766333D01*
X94718238Y-98718714D01*
X94908714Y-98718714D01*
X95003952Y-98766333D01*
X94575380Y-99337761D02*
X94670619Y-99385380D01*
X94908714Y-99385380D01*
X95003952Y-99337761D01*
X95051571Y-99242523D01*
X95051571Y-99147285D01*
X95003952Y-99052047D01*
X94908714Y-99004428D01*
X94670619Y-99004428D01*
X94575380Y-98956809D01*
X94099190Y-99385380D02*
X94099190Y-98718714D01*
X94099190Y-98909190D02*
X94051571Y-98813952D01*
X94003952Y-98766333D01*
X93908714Y-98718714D01*
X93813476Y-98718714D01*
X93527761Y-99337761D02*
X93432523Y-99385380D01*
X93242047Y-99385380D01*
X93146809Y-99337761D01*
X93099190Y-99242523D01*
X93099190Y-99194904D01*
X93146809Y-99099666D01*
X93242047Y-99052047D01*
X93384904Y-99052047D01*
X93480142Y-99004428D01*
X93527761Y-98909190D01*
X93527761Y-98861571D01*
X93480142Y-98766333D01*
X93384904Y-98718714D01*
X93242047Y-98718714D01*
X93146809Y-98766333D01*
X92670619Y-99385380D02*
X92670619Y-98385380D01*
X92242047Y-99385380D02*
X92242047Y-98861571D01*
X92289666Y-98766333D01*
X92384904Y-98718714D01*
X92527761Y-98718714D01*
X92623000Y-98766333D01*
X92670619Y-98813952D01*
X91765857Y-99385380D02*
X91765857Y-98718714D01*
X91765857Y-98385380D02*
X91813476Y-98433000D01*
X91765857Y-98480619D01*
X91718238Y-98433000D01*
X91765857Y-98385380D01*
X91765857Y-98480619D01*
X91432523Y-98718714D02*
X91051571Y-98718714D01*
X91289666Y-98385380D02*
X91289666Y-99242523D01*
X91242047Y-99337761D01*
X91146809Y-99385380D01*
X91051571Y-99385380D01*
X90289666Y-98718714D02*
X90289666Y-99528238D01*
X90337285Y-99623476D01*
X90384904Y-99671095D01*
X90480142Y-99718714D01*
X90623000Y-99718714D01*
X90718238Y-99671095D01*
X90289666Y-99337761D02*
X90384904Y-99385380D01*
X90575380Y-99385380D01*
X90670619Y-99337761D01*
X90718238Y-99290142D01*
X90765857Y-99194904D01*
X90765857Y-98909190D01*
X90718238Y-98813952D01*
X90670619Y-98766333D01*
X90575380Y-98718714D01*
X90384904Y-98718714D01*
X90289666Y-98766333D01*
X89670619Y-99385380D02*
X89765857Y-99337761D01*
X89813476Y-99290142D01*
X89861095Y-99194904D01*
X89861095Y-98909190D01*
X89813476Y-98813952D01*
X89765857Y-98766333D01*
X89670619Y-98718714D01*
X89527761Y-98718714D01*
X89432523Y-98766333D01*
X89384904Y-98813952D01*
X89337285Y-98909190D01*
X89337285Y-99194904D01*
X89384904Y-99290142D01*
X89432523Y-99337761D01*
X89527761Y-99385380D01*
X89670619Y-99385380D01*
X88527761Y-99337761D02*
X88623000Y-99385380D01*
X88813476Y-99385380D01*
X88908714Y-99337761D01*
X88956333Y-99242523D01*
X88956333Y-98861571D01*
X88908714Y-98766333D01*
X88813476Y-98718714D01*
X88623000Y-98718714D01*
X88527761Y-98766333D01*
X88480142Y-98861571D01*
X88480142Y-98956809D01*
X88956333Y-99052047D01*
X87908714Y-99385380D02*
X88003952Y-99337761D01*
X88051571Y-99242523D01*
X88051571Y-98385380D01*
X87480142Y-99385380D02*
X87289666Y-99385380D01*
X87194428Y-99337761D01*
X87146809Y-99290142D01*
X87051571Y-99147285D01*
X87003952Y-98956809D01*
X87003952Y-98575857D01*
X87051571Y-98480619D01*
X87099190Y-98433000D01*
X87194428Y-98385380D01*
X87384904Y-98385380D01*
X87480142Y-98433000D01*
X87527761Y-98480619D01*
X87575380Y-98575857D01*
X87575380Y-98813952D01*
X87527761Y-98909190D01*
X87480142Y-98956809D01*
X87384904Y-99004428D01*
X87194428Y-99004428D01*
X87099190Y-98956809D01*
X87051571Y-98909190D01*
X87003952Y-98813952D01*
X86146809Y-98385380D02*
X86337285Y-98385380D01*
X86432523Y-98433000D01*
X86480142Y-98480619D01*
X86575380Y-98623476D01*
X86623000Y-98813952D01*
X86623000Y-99194904D01*
X86575380Y-99290142D01*
X86527761Y-99337761D01*
X86432523Y-99385380D01*
X86242047Y-99385380D01*
X86146809Y-99337761D01*
X86099190Y-99290142D01*
X86051571Y-99194904D01*
X86051571Y-98956809D01*
X86099190Y-98861571D01*
X86146809Y-98813952D01*
X86242047Y-98766333D01*
X86432523Y-98766333D01*
X86527761Y-98813952D01*
X86575380Y-98861571D01*
X86623000Y-98956809D01*
X84908714Y-98337761D02*
X85765857Y-99623476D01*
D11*
X115589809Y-61245666D02*
X115089809Y-61079000D01*
X115589809Y-60912333D01*
X115137428Y-60459952D02*
X115113619Y-60483761D01*
X115089809Y-60555190D01*
X115089809Y-60602809D01*
X115113619Y-60674238D01*
X115161238Y-60721857D01*
X115208857Y-60745666D01*
X115304095Y-60769476D01*
X115375523Y-60769476D01*
X115470761Y-60745666D01*
X115518380Y-60721857D01*
X115566000Y-60674238D01*
X115589809Y-60602809D01*
X115589809Y-60555190D01*
X115566000Y-60483761D01*
X115542190Y-60459952D01*
X115137428Y-59959952D02*
X115113619Y-59983761D01*
X115089809Y-60055190D01*
X115089809Y-60102809D01*
X115113619Y-60174238D01*
X115161238Y-60221857D01*
X115208857Y-60245666D01*
X115304095Y-60269476D01*
X115375523Y-60269476D01*
X115470761Y-60245666D01*
X115518380Y-60221857D01*
X115566000Y-60174238D01*
X115589809Y-60102809D01*
X115589809Y-60055190D01*
X115566000Y-59983761D01*
X115542190Y-59959952D01*
X114962809Y-58614380D02*
X115462809Y-58614380D01*
X115462809Y-58423904D01*
X115439000Y-58376285D01*
X115415190Y-58352476D01*
X115367571Y-58328666D01*
X115296142Y-58328666D01*
X115248523Y-58352476D01*
X115224714Y-58376285D01*
X115200904Y-58423904D01*
X115200904Y-58614380D01*
X115462809Y-58162000D02*
X114962809Y-58042952D01*
X115319952Y-57947714D01*
X114962809Y-57852476D01*
X115462809Y-57733428D01*
X114962809Y-57542952D02*
X115462809Y-57542952D01*
X115105666Y-57376285D01*
X115462809Y-57209619D01*
X114962809Y-57209619D01*
X115439000Y-56133952D02*
X115462809Y-56181571D01*
X115462809Y-56253000D01*
X115439000Y-56324428D01*
X115391380Y-56372047D01*
X115343761Y-56395857D01*
X115248523Y-56419666D01*
X115177095Y-56419666D01*
X115081857Y-56395857D01*
X115034238Y-56372047D01*
X114986619Y-56324428D01*
X114962809Y-56253000D01*
X114962809Y-56205380D01*
X114986619Y-56133952D01*
X115010428Y-56110142D01*
X115177095Y-56110142D01*
X115177095Y-56205380D01*
X114962809Y-55895857D02*
X115462809Y-55895857D01*
X114962809Y-55610142D01*
X115462809Y-55610142D01*
X114962809Y-55372047D02*
X115462809Y-55372047D01*
X115462809Y-55253000D01*
X115439000Y-55181571D01*
X115391380Y-55133952D01*
X115343761Y-55110142D01*
X115248523Y-55086333D01*
X115177095Y-55086333D01*
X115081857Y-55110142D01*
X115034238Y-55133952D01*
X114986619Y-55181571D01*
X114962809Y-55253000D01*
X114962809Y-55372047D01*
X104112142Y-81736380D02*
X104040714Y-81760190D01*
X103921666Y-81760190D01*
X103874047Y-81736380D01*
X103850238Y-81712571D01*
X103826428Y-81664952D01*
X103826428Y-81617333D01*
X103850238Y-81569714D01*
X103874047Y-81545904D01*
X103921666Y-81522095D01*
X104016904Y-81498285D01*
X104064523Y-81474476D01*
X104088333Y-81450666D01*
X104112142Y-81403047D01*
X104112142Y-81355428D01*
X104088333Y-81307809D01*
X104064523Y-81284000D01*
X104016904Y-81260190D01*
X103897857Y-81260190D01*
X103826428Y-81284000D01*
X103612142Y-81760190D02*
X103612142Y-81260190D01*
X103493095Y-81260190D01*
X103421666Y-81284000D01*
X103374047Y-81331619D01*
X103350238Y-81379238D01*
X103326428Y-81474476D01*
X103326428Y-81545904D01*
X103350238Y-81641142D01*
X103374047Y-81688761D01*
X103421666Y-81736380D01*
X103493095Y-81760190D01*
X103612142Y-81760190D01*
X103135952Y-81617333D02*
X102897857Y-81617333D01*
X103183571Y-81760190D02*
X103016904Y-81260190D01*
X102850238Y-81760190D01*
D12*
X162244571Y-94781857D02*
X162030285Y-94853285D01*
X161958857Y-94924714D01*
X161887428Y-95067571D01*
X161887428Y-95281857D01*
X161958857Y-95424714D01*
X162030285Y-95496142D01*
X162173142Y-95567571D01*
X162744571Y-95567571D01*
X162744571Y-94067571D01*
X162244571Y-94067571D01*
X162101714Y-94139000D01*
X162030285Y-94210428D01*
X161958857Y-94353285D01*
X161958857Y-94496142D01*
X162030285Y-94639000D01*
X162101714Y-94710428D01*
X162244571Y-94781857D01*
X162744571Y-94781857D01*
X160601714Y-95567571D02*
X160601714Y-94781857D01*
X160673142Y-94639000D01*
X160816000Y-94567571D01*
X161101714Y-94567571D01*
X161244571Y-94639000D01*
X160601714Y-95496142D02*
X160744571Y-95567571D01*
X161101714Y-95567571D01*
X161244571Y-95496142D01*
X161316000Y-95353285D01*
X161316000Y-95210428D01*
X161244571Y-95067571D01*
X161101714Y-94996142D01*
X160744571Y-94996142D01*
X160601714Y-94924714D01*
X159958857Y-95496142D02*
X159816000Y-95567571D01*
X159530285Y-95567571D01*
X159387428Y-95496142D01*
X159316000Y-95353285D01*
X159316000Y-95281857D01*
X159387428Y-95139000D01*
X159530285Y-95067571D01*
X159744571Y-95067571D01*
X159887428Y-94996142D01*
X159958857Y-94853285D01*
X159958857Y-94781857D01*
X159887428Y-94639000D01*
X159744571Y-94567571D01*
X159530285Y-94567571D01*
X159387428Y-94639000D01*
X158101714Y-95496142D02*
X158244571Y-95567571D01*
X158530285Y-95567571D01*
X158673142Y-95496142D01*
X158744571Y-95353285D01*
X158744571Y-94781857D01*
X158673142Y-94639000D01*
X158530285Y-94567571D01*
X158244571Y-94567571D01*
X158101714Y-94639000D01*
X158030285Y-94781857D01*
X158030285Y-94924714D01*
X158744571Y-95067571D01*
X156744571Y-95567571D02*
X156744571Y-94067571D01*
X156744571Y-95496142D02*
X156887428Y-95567571D01*
X157173142Y-95567571D01*
X157316000Y-95496142D01*
X157387428Y-95424714D01*
X157458857Y-95281857D01*
X157458857Y-94853285D01*
X157387428Y-94710428D01*
X157316000Y-94639000D01*
X157173142Y-94567571D01*
X156887428Y-94567571D01*
X156744571Y-94639000D01*
X154673142Y-95567571D02*
X154816000Y-95496142D01*
X154887428Y-95424714D01*
X154958857Y-95281857D01*
X154958857Y-94853285D01*
X154887428Y-94710428D01*
X154816000Y-94639000D01*
X154673142Y-94567571D01*
X154458857Y-94567571D01*
X154316000Y-94639000D01*
X154244571Y-94710428D01*
X154173142Y-94853285D01*
X154173142Y-95281857D01*
X154244571Y-95424714D01*
X154316000Y-95496142D01*
X154458857Y-95567571D01*
X154673142Y-95567571D01*
X153530285Y-94567571D02*
X153530285Y-95567571D01*
X153530285Y-94710428D02*
X153458857Y-94639000D01*
X153316000Y-94567571D01*
X153101714Y-94567571D01*
X152958857Y-94639000D01*
X152887428Y-94781857D01*
X152887428Y-95567571D01*
X151030285Y-95567571D02*
X151030285Y-94067571D01*
X150458857Y-94067571D01*
X150316000Y-94139000D01*
X150244571Y-94210428D01*
X150173142Y-94353285D01*
X150173142Y-94567571D01*
X150244571Y-94710428D01*
X150316000Y-94781857D01*
X150458857Y-94853285D01*
X151030285Y-94853285D01*
X148673142Y-95424714D02*
X148744571Y-95496142D01*
X148958857Y-95567571D01*
X149101714Y-95567571D01*
X149316000Y-95496142D01*
X149458857Y-95353285D01*
X149530285Y-95210428D01*
X149601714Y-94924714D01*
X149601714Y-94710428D01*
X149530285Y-94424714D01*
X149458857Y-94281857D01*
X149316000Y-94139000D01*
X149101714Y-94067571D01*
X148958857Y-94067571D01*
X148744571Y-94139000D01*
X148673142Y-94210428D01*
X147530285Y-94781857D02*
X147316000Y-94853285D01*
X147244571Y-94924714D01*
X147173142Y-95067571D01*
X147173142Y-95281857D01*
X147244571Y-95424714D01*
X147316000Y-95496142D01*
X147458857Y-95567571D01*
X148030285Y-95567571D01*
X148030285Y-94067571D01*
X147530285Y-94067571D01*
X147387428Y-94139000D01*
X147316000Y-94210428D01*
X147244571Y-94353285D01*
X147244571Y-94496142D01*
X147316000Y-94639000D01*
X147387428Y-94710428D01*
X147530285Y-94781857D01*
X148030285Y-94781857D01*
X144744571Y-95567571D02*
X144744571Y-94067571D01*
X144744571Y-95496142D02*
X144887428Y-95567571D01*
X145173142Y-95567571D01*
X145316000Y-95496142D01*
X145387428Y-95424714D01*
X145458857Y-95281857D01*
X145458857Y-94853285D01*
X145387428Y-94710428D01*
X145316000Y-94639000D01*
X145173142Y-94567571D01*
X144887428Y-94567571D01*
X144744571Y-94639000D01*
X143458857Y-95496142D02*
X143601714Y-95567571D01*
X143887428Y-95567571D01*
X144030285Y-95496142D01*
X144101714Y-95353285D01*
X144101714Y-94781857D01*
X144030285Y-94639000D01*
X143887428Y-94567571D01*
X143601714Y-94567571D01*
X143458857Y-94639000D01*
X143387428Y-94781857D01*
X143387428Y-94924714D01*
X144101714Y-95067571D01*
X142816000Y-95496142D02*
X142673142Y-95567571D01*
X142387428Y-95567571D01*
X142244571Y-95496142D01*
X142173142Y-95353285D01*
X142173142Y-95281857D01*
X142244571Y-95139000D01*
X142387428Y-95067571D01*
X142601714Y-95067571D01*
X142744571Y-94996142D01*
X142816000Y-94853285D01*
X142816000Y-94781857D01*
X142744571Y-94639000D01*
X142601714Y-94567571D01*
X142387428Y-94567571D01*
X142244571Y-94639000D01*
X141530285Y-95567571D02*
X141530285Y-94567571D01*
X141530285Y-94067571D02*
X141601714Y-94139000D01*
X141530285Y-94210428D01*
X141458857Y-94139000D01*
X141530285Y-94067571D01*
X141530285Y-94210428D01*
X140173142Y-94567571D02*
X140173142Y-95781857D01*
X140244571Y-95924714D01*
X140316000Y-95996142D01*
X140458857Y-96067571D01*
X140673142Y-96067571D01*
X140816000Y-95996142D01*
X140173142Y-95496142D02*
X140316000Y-95567571D01*
X140601714Y-95567571D01*
X140744571Y-95496142D01*
X140816000Y-95424714D01*
X140887428Y-95281857D01*
X140887428Y-94853285D01*
X140816000Y-94710428D01*
X140744571Y-94639000D01*
X140601714Y-94567571D01*
X140316000Y-94567571D01*
X140173142Y-94639000D01*
X139458857Y-94567571D02*
X139458857Y-95567571D01*
X139458857Y-94710428D02*
X139387428Y-94639000D01*
X139244571Y-94567571D01*
X139030285Y-94567571D01*
X138887428Y-94639000D01*
X138816000Y-94781857D01*
X138816000Y-95567571D01*
X137530285Y-95496142D02*
X137673142Y-95567571D01*
X137958857Y-95567571D01*
X138101714Y-95496142D01*
X138173142Y-95353285D01*
X138173142Y-94781857D01*
X138101714Y-94639000D01*
X137958857Y-94567571D01*
X137673142Y-94567571D01*
X137530285Y-94639000D01*
X137458857Y-94781857D01*
X137458857Y-94924714D01*
X138173142Y-95067571D01*
X136173142Y-95567571D02*
X136173142Y-94067571D01*
X136173142Y-95496142D02*
X136316000Y-95567571D01*
X136601714Y-95567571D01*
X136744571Y-95496142D01*
X136816000Y-95424714D01*
X136887428Y-95281857D01*
X136887428Y-94853285D01*
X136816000Y-94710428D01*
X136744571Y-94639000D01*
X136601714Y-94567571D01*
X136316000Y-94567571D01*
X136173142Y-94639000D01*
X134316000Y-95567571D02*
X134316000Y-94067571D01*
X134316000Y-94639000D02*
X134173142Y-94567571D01*
X133887428Y-94567571D01*
X133744571Y-94639000D01*
X133673142Y-94710428D01*
X133601714Y-94853285D01*
X133601714Y-95281857D01*
X133673142Y-95424714D01*
X133744571Y-95496142D01*
X133887428Y-95567571D01*
X134173142Y-95567571D01*
X134316000Y-95496142D01*
X133101714Y-94567571D02*
X132744571Y-95567571D01*
X132387428Y-94567571D02*
X132744571Y-95567571D01*
X132887428Y-95924714D01*
X132958857Y-95996142D01*
X133101714Y-96067571D01*
X154566000Y-98067571D02*
X154566000Y-96567571D01*
X153708857Y-98067571D02*
X154351714Y-97210428D01*
X153708857Y-96567571D02*
X154566000Y-97424714D01*
X153066000Y-98067571D02*
X153066000Y-97067571D01*
X153066000Y-97353285D02*
X152994571Y-97210428D01*
X152923142Y-97139000D01*
X152780285Y-97067571D01*
X152637428Y-97067571D01*
X151494571Y-98067571D02*
X151494571Y-97281857D01*
X151566000Y-97139000D01*
X151708857Y-97067571D01*
X151994571Y-97067571D01*
X152137428Y-97139000D01*
X151494571Y-97996142D02*
X151637428Y-98067571D01*
X151994571Y-98067571D01*
X152137428Y-97996142D01*
X152208857Y-97853285D01*
X152208857Y-97710428D01*
X152137428Y-97567571D01*
X151994571Y-97496142D01*
X151637428Y-97496142D01*
X151494571Y-97424714D01*
X150780285Y-98067571D02*
X150780285Y-96567571D01*
X150637428Y-97496142D02*
X150208857Y-98067571D01*
X150208857Y-97067571D02*
X150780285Y-97639000D01*
X148994571Y-97996142D02*
X149137428Y-98067571D01*
X149423142Y-98067571D01*
X149566000Y-97996142D01*
X149637428Y-97853285D01*
X149637428Y-97281857D01*
X149566000Y-97139000D01*
X149423142Y-97067571D01*
X149137428Y-97067571D01*
X148994571Y-97139000D01*
X148923142Y-97281857D01*
X148923142Y-97424714D01*
X149637428Y-97567571D01*
X148280285Y-97067571D02*
X148280285Y-98067571D01*
X148280285Y-97210428D02*
X148208857Y-97139000D01*
X148066000Y-97067571D01*
X147851714Y-97067571D01*
X147708857Y-97139000D01*
X147637428Y-97281857D01*
X147637428Y-98067571D01*
X146923142Y-97496142D02*
X145780285Y-97496142D01*
X144637428Y-96567571D02*
X144637428Y-97639000D01*
X144708857Y-97853285D01*
X144851714Y-97996142D01*
X145066000Y-98067571D01*
X145208857Y-98067571D01*
X143708857Y-98067571D02*
X143851714Y-97996142D01*
X143923142Y-97924714D01*
X143994571Y-97781857D01*
X143994571Y-97353285D01*
X143923142Y-97210428D01*
X143851714Y-97139000D01*
X143708857Y-97067571D01*
X143494571Y-97067571D01*
X143351714Y-97139000D01*
X143280285Y-97210428D01*
X143208857Y-97353285D01*
X143208857Y-97781857D01*
X143280285Y-97924714D01*
X143351714Y-97996142D01*
X143494571Y-98067571D01*
X143708857Y-98067571D01*
X142566000Y-98067571D02*
X142566000Y-96567571D01*
X142423142Y-97496142D02*
X141994571Y-98067571D01*
X141994571Y-97067571D02*
X142566000Y-97639000D01*
X140780285Y-97996142D02*
X140923142Y-98067571D01*
X141208857Y-98067571D01*
X141351714Y-97996142D01*
X141423142Y-97853285D01*
X141423142Y-97281857D01*
X141351714Y-97139000D01*
X141208857Y-97067571D01*
X140923142Y-97067571D01*
X140780285Y-97139000D01*
X140708857Y-97281857D01*
X140708857Y-97424714D01*
X141423142Y-97567571D01*
X140137428Y-97996142D02*
X139994571Y-98067571D01*
X139708857Y-98067571D01*
X139566000Y-97996142D01*
X139494571Y-97853285D01*
X139494571Y-97781857D01*
X139566000Y-97639000D01*
X139708857Y-97567571D01*
X139923142Y-97567571D01*
X140066000Y-97496142D01*
X140137428Y-97353285D01*
X140137428Y-97281857D01*
X140066000Y-97139000D01*
X139923142Y-97067571D01*
X139708857Y-97067571D01*
X139566000Y-97139000D01*
D10*
X110361190Y-97432761D02*
X110218333Y-97480380D01*
X109980238Y-97480380D01*
X109885000Y-97432761D01*
X109837380Y-97385142D01*
X109789761Y-97289904D01*
X109789761Y-97194666D01*
X109837380Y-97099428D01*
X109885000Y-97051809D01*
X109980238Y-97004190D01*
X110170714Y-96956571D01*
X110265952Y-96908952D01*
X110313571Y-96861333D01*
X110361190Y-96766095D01*
X110361190Y-96670857D01*
X110313571Y-96575619D01*
X110265952Y-96528000D01*
X110170714Y-96480380D01*
X109932619Y-96480380D01*
X109789761Y-96528000D01*
X109361190Y-96813714D02*
X109361190Y-97813714D01*
X109361190Y-96861333D02*
X109265952Y-96813714D01*
X109075476Y-96813714D01*
X108980238Y-96861333D01*
X108932619Y-96908952D01*
X108885000Y-97004190D01*
X108885000Y-97289904D01*
X108932619Y-97385142D01*
X108980238Y-97432761D01*
X109075476Y-97480380D01*
X109265952Y-97480380D01*
X109361190Y-97432761D01*
X108313571Y-97480380D02*
X108408809Y-97432761D01*
X108456428Y-97337523D01*
X108456428Y-96480380D01*
X107932619Y-97480380D02*
X107932619Y-96813714D01*
X107932619Y-96480380D02*
X107980238Y-96528000D01*
X107932619Y-96575619D01*
X107885000Y-96528000D01*
X107932619Y-96480380D01*
X107932619Y-96575619D01*
X107599285Y-96813714D02*
X107218333Y-96813714D01*
X107456428Y-96480380D02*
X107456428Y-97337523D01*
X107408809Y-97432761D01*
X107313571Y-97480380D01*
X107218333Y-97480380D01*
X106123095Y-97480380D02*
X106123095Y-96480380D01*
X105742142Y-96480380D01*
X105646904Y-96528000D01*
X105599285Y-96575619D01*
X105551666Y-96670857D01*
X105551666Y-96813714D01*
X105599285Y-96908952D01*
X105646904Y-96956571D01*
X105742142Y-97004190D01*
X106123095Y-97004190D01*
X104551666Y-97385142D02*
X104599285Y-97432761D01*
X104742142Y-97480380D01*
X104837380Y-97480380D01*
X104980238Y-97432761D01*
X105075476Y-97337523D01*
X105123095Y-97242285D01*
X105170714Y-97051809D01*
X105170714Y-96908952D01*
X105123095Y-96718476D01*
X105075476Y-96623238D01*
X104980238Y-96528000D01*
X104837380Y-96480380D01*
X104742142Y-96480380D01*
X104599285Y-96528000D01*
X104551666Y-96575619D01*
X103789761Y-96956571D02*
X103646904Y-97004190D01*
X103599285Y-97051809D01*
X103551666Y-97147047D01*
X103551666Y-97289904D01*
X103599285Y-97385142D01*
X103646904Y-97432761D01*
X103742142Y-97480380D01*
X104123095Y-97480380D01*
X104123095Y-96480380D01*
X103789761Y-96480380D01*
X103694523Y-96528000D01*
X103646904Y-96575619D01*
X103599285Y-96670857D01*
X103599285Y-96766095D01*
X103646904Y-96861333D01*
X103694523Y-96908952D01*
X103789761Y-96956571D01*
X104123095Y-96956571D01*
X101932619Y-97480380D02*
X101932619Y-96480380D01*
X101932619Y-97432761D02*
X102027857Y-97480380D01*
X102218333Y-97480380D01*
X102313571Y-97432761D01*
X102361190Y-97385142D01*
X102408809Y-97289904D01*
X102408809Y-97004190D01*
X102361190Y-96908952D01*
X102313571Y-96861333D01*
X102218333Y-96813714D01*
X102027857Y-96813714D01*
X101932619Y-96861333D01*
X101075476Y-97432761D02*
X101170714Y-97480380D01*
X101361190Y-97480380D01*
X101456428Y-97432761D01*
X101504047Y-97337523D01*
X101504047Y-96956571D01*
X101456428Y-96861333D01*
X101361190Y-96813714D01*
X101170714Y-96813714D01*
X101075476Y-96861333D01*
X101027857Y-96956571D01*
X101027857Y-97051809D01*
X101504047Y-97147047D01*
X100646904Y-97432761D02*
X100551666Y-97480380D01*
X100361190Y-97480380D01*
X100265952Y-97432761D01*
X100218333Y-97337523D01*
X100218333Y-97289904D01*
X100265952Y-97194666D01*
X100361190Y-97147047D01*
X100504047Y-97147047D01*
X100599285Y-97099428D01*
X100646904Y-97004190D01*
X100646904Y-96956571D01*
X100599285Y-96861333D01*
X100504047Y-96813714D01*
X100361190Y-96813714D01*
X100265952Y-96861333D01*
X99789761Y-97480380D02*
X99789761Y-96813714D01*
X99789761Y-96480380D02*
X99837380Y-96528000D01*
X99789761Y-96575619D01*
X99742142Y-96528000D01*
X99789761Y-96480380D01*
X99789761Y-96575619D01*
X98885000Y-96813714D02*
X98885000Y-97623238D01*
X98932619Y-97718476D01*
X98980238Y-97766095D01*
X99075476Y-97813714D01*
X99218333Y-97813714D01*
X99313571Y-97766095D01*
X98885000Y-97432761D02*
X98980238Y-97480380D01*
X99170714Y-97480380D01*
X99265952Y-97432761D01*
X99313571Y-97385142D01*
X99361190Y-97289904D01*
X99361190Y-97004190D01*
X99313571Y-96908952D01*
X99265952Y-96861333D01*
X99170714Y-96813714D01*
X98980238Y-96813714D01*
X98885000Y-96861333D01*
X98408809Y-96813714D02*
X98408809Y-97480380D01*
X98408809Y-96908952D02*
X98361190Y-96861333D01*
X98265952Y-96813714D01*
X98123095Y-96813714D01*
X98027857Y-96861333D01*
X97980238Y-96956571D01*
X97980238Y-97480380D01*
X97123095Y-97432761D02*
X97218333Y-97480380D01*
X97408809Y-97480380D01*
X97504047Y-97432761D01*
X97551666Y-97337523D01*
X97551666Y-96956571D01*
X97504047Y-96861333D01*
X97408809Y-96813714D01*
X97218333Y-96813714D01*
X97123095Y-96861333D01*
X97075476Y-96956571D01*
X97075476Y-97051809D01*
X97551666Y-97147047D01*
X96218333Y-97480380D02*
X96218333Y-96480380D01*
X96218333Y-97432761D02*
X96313571Y-97480380D01*
X96504047Y-97480380D01*
X96599285Y-97432761D01*
X96646904Y-97385142D01*
X96694523Y-97289904D01*
X96694523Y-97004190D01*
X96646904Y-96908952D01*
X96599285Y-96861333D01*
X96504047Y-96813714D01*
X96313571Y-96813714D01*
X96218333Y-96861333D01*
X95123095Y-96813714D02*
X94742142Y-96813714D01*
X94980238Y-97480380D02*
X94980238Y-96623238D01*
X94932619Y-96528000D01*
X94837380Y-96480380D01*
X94742142Y-96480380D01*
X94265952Y-97480380D02*
X94361190Y-97432761D01*
X94408809Y-97385142D01*
X94456428Y-97289904D01*
X94456428Y-97004190D01*
X94408809Y-96908952D01*
X94361190Y-96861333D01*
X94265952Y-96813714D01*
X94123095Y-96813714D01*
X94027857Y-96861333D01*
X93980238Y-96908952D01*
X93932619Y-97004190D01*
X93932619Y-97289904D01*
X93980238Y-97385142D01*
X94027857Y-97432761D01*
X94123095Y-97480380D01*
X94265952Y-97480380D01*
X93504047Y-97480380D02*
X93504047Y-96813714D01*
X93504047Y-97004190D02*
X93456428Y-96908952D01*
X93408809Y-96861333D01*
X93313571Y-96813714D01*
X93218333Y-96813714D01*
X92123095Y-97480380D02*
X92123095Y-96813714D01*
X92123095Y-96908952D02*
X92075476Y-96861333D01*
X91980238Y-96813714D01*
X91837380Y-96813714D01*
X91742142Y-96861333D01*
X91694523Y-96956571D01*
X91694523Y-97480380D01*
X91694523Y-96956571D02*
X91646904Y-96861333D01*
X91551666Y-96813714D01*
X91408809Y-96813714D01*
X91313571Y-96861333D01*
X91265952Y-96956571D01*
X91265952Y-97480380D01*
X90789761Y-97480380D02*
X90789761Y-96813714D01*
X90789761Y-96480380D02*
X90837380Y-96528000D01*
X90789761Y-96575619D01*
X90742142Y-96528000D01*
X90789761Y-96480380D01*
X90789761Y-96575619D01*
X90313571Y-97480380D02*
X90313571Y-96813714D01*
X90313571Y-97004190D02*
X90265952Y-96908952D01*
X90218333Y-96861333D01*
X90123095Y-96813714D01*
X90027857Y-96813714D01*
X89789761Y-96813714D02*
X89551666Y-97480380D01*
X89313571Y-96813714D02*
X89551666Y-97480380D01*
X89646904Y-97718476D01*
X89694523Y-97766095D01*
X89789761Y-97813714D01*
X88789761Y-97480380D02*
X88885000Y-97432761D01*
X88932619Y-97385142D01*
X88980238Y-97289904D01*
X88980238Y-97004190D01*
X88932619Y-96908952D01*
X88885000Y-96861333D01*
X88789761Y-96813714D01*
X88646904Y-96813714D01*
X88551666Y-96861333D01*
X88504047Y-96908952D01*
X88456428Y-97004190D01*
X88456428Y-97289904D01*
X88504047Y-97385142D01*
X88551666Y-97432761D01*
X88646904Y-97480380D01*
X88789761Y-97480380D01*
X88027857Y-97480380D02*
X88027857Y-96480380D01*
X87932619Y-97099428D02*
X87646904Y-97480380D01*
X87646904Y-96813714D02*
X88027857Y-97194666D01*
X86789761Y-96813714D02*
X86789761Y-97480380D01*
X87218333Y-96813714D02*
X87218333Y-97337523D01*
X87170714Y-97432761D01*
X87075476Y-97480380D01*
X86932619Y-97480380D01*
X86837380Y-97432761D01*
X86789761Y-97385142D01*
X85408809Y-97480380D02*
X85504047Y-97432761D01*
X85551666Y-97337523D01*
X85551666Y-96480380D01*
X84599285Y-97480380D02*
X84599285Y-96956571D01*
X84646904Y-96861333D01*
X84742142Y-96813714D01*
X84932619Y-96813714D01*
X85027857Y-96861333D01*
X84599285Y-97432761D02*
X84694523Y-97480380D01*
X84932619Y-97480380D01*
X85027857Y-97432761D01*
X85075476Y-97337523D01*
X85075476Y-97242285D01*
X85027857Y-97147047D01*
X84932619Y-97099428D01*
X84694523Y-97099428D01*
X84599285Y-97051809D01*
X84218333Y-96813714D02*
X83980238Y-97480380D01*
X83742142Y-96813714D02*
X83980238Y-97480380D01*
X84075476Y-97718476D01*
X84123095Y-97766095D01*
X84218333Y-97813714D01*
X83218333Y-97480380D02*
X83313571Y-97432761D01*
X83361190Y-97385142D01*
X83408809Y-97289904D01*
X83408809Y-97004190D01*
X83361190Y-96908952D01*
X83313571Y-96861333D01*
X83218333Y-96813714D01*
X83075476Y-96813714D01*
X82980238Y-96861333D01*
X82932619Y-96908952D01*
X82885000Y-97004190D01*
X82885000Y-97289904D01*
X82932619Y-97385142D01*
X82980238Y-97432761D01*
X83075476Y-97480380D01*
X83218333Y-97480380D01*
X82027857Y-96813714D02*
X82027857Y-97480380D01*
X82456428Y-96813714D02*
X82456428Y-97337523D01*
X82408809Y-97432761D01*
X82313571Y-97480380D01*
X82170714Y-97480380D01*
X82075476Y-97432761D01*
X82027857Y-97385142D01*
X81694523Y-96813714D02*
X81313571Y-96813714D01*
X81551666Y-96480380D02*
X81551666Y-97337523D01*
X81504047Y-97432761D01*
X81408809Y-97480380D01*
X81313571Y-97480380D01*
D12*
X181339000Y-99885571D02*
X181339000Y-98385571D01*
X180767571Y-98385571D01*
X180624714Y-98457000D01*
X180553285Y-98528428D01*
X180481857Y-98671285D01*
X180481857Y-98885571D01*
X180553285Y-99028428D01*
X180624714Y-99099857D01*
X180767571Y-99171285D01*
X181339000Y-99171285D01*
X180053285Y-98885571D02*
X179481857Y-98885571D01*
X179839000Y-98385571D02*
X179839000Y-99671285D01*
X179767571Y-99814142D01*
X179624714Y-99885571D01*
X179481857Y-99885571D01*
X178410428Y-99814142D02*
X178553285Y-99885571D01*
X178839000Y-99885571D01*
X178981857Y-99814142D01*
X179053285Y-99671285D01*
X179053285Y-99099857D01*
X178981857Y-98957000D01*
X178839000Y-98885571D01*
X178553285Y-98885571D01*
X178410428Y-98957000D01*
X178339000Y-99099857D01*
X178339000Y-99242714D01*
X179053285Y-99385571D01*
X177696142Y-99885571D02*
X177696142Y-98885571D01*
X177696142Y-99171285D02*
X177624714Y-99028428D01*
X177553285Y-98957000D01*
X177410428Y-98885571D01*
X177267571Y-98885571D01*
X176553285Y-99885571D02*
X176696142Y-99814142D01*
X176767571Y-99742714D01*
X176839000Y-99599857D01*
X176839000Y-99171285D01*
X176767571Y-99028428D01*
X176696142Y-98957000D01*
X176553285Y-98885571D01*
X176339000Y-98885571D01*
X176196142Y-98957000D01*
X176124714Y-99028428D01*
X176053285Y-99171285D01*
X176053285Y-99599857D01*
X176124714Y-99742714D01*
X176196142Y-99814142D01*
X176339000Y-99885571D01*
X176553285Y-99885571D01*
X175410428Y-98885571D02*
X175410428Y-99885571D01*
X175410428Y-99028428D02*
X175339000Y-98957000D01*
X175196142Y-98885571D01*
X174981857Y-98885571D01*
X174839000Y-98957000D01*
X174767571Y-99099857D01*
X174767571Y-99885571D01*
X172910428Y-99885571D02*
X172910428Y-98385571D01*
X172053285Y-99885571D02*
X172696142Y-99028428D01*
X172053285Y-98385571D02*
X172910428Y-99242714D01*
X170839000Y-99814142D02*
X170981857Y-99885571D01*
X171267571Y-99885571D01*
X171410428Y-99814142D01*
X171481857Y-99671285D01*
X171481857Y-99099857D01*
X171410428Y-98957000D01*
X171267571Y-98885571D01*
X170981857Y-98885571D01*
X170839000Y-98957000D01*
X170767571Y-99099857D01*
X170767571Y-99242714D01*
X171481857Y-99385571D01*
X170267571Y-98885571D02*
X169910428Y-99885571D01*
X169553285Y-98885571D02*
X169910428Y-99885571D01*
X170053285Y-100242714D01*
X170124714Y-100314142D01*
X170267571Y-100385571D01*
X168981857Y-99885571D02*
X168981857Y-98385571D01*
X168981857Y-98957000D02*
X168839000Y-98885571D01*
X168553285Y-98885571D01*
X168410428Y-98957000D01*
X168339000Y-99028428D01*
X168267571Y-99171285D01*
X168267571Y-99599857D01*
X168339000Y-99742714D01*
X168410428Y-99814142D01*
X168553285Y-99885571D01*
X168839000Y-99885571D01*
X168981857Y-99814142D01*
X167410428Y-99885571D02*
X167553285Y-99814142D01*
X167624714Y-99742714D01*
X167696142Y-99599857D01*
X167696142Y-99171285D01*
X167624714Y-99028428D01*
X167553285Y-98957000D01*
X167410428Y-98885571D01*
X167196142Y-98885571D01*
X167053285Y-98957000D01*
X166981857Y-99028428D01*
X166910428Y-99171285D01*
X166910428Y-99599857D01*
X166981857Y-99742714D01*
X167053285Y-99814142D01*
X167196142Y-99885571D01*
X167410428Y-99885571D01*
X165624714Y-99885571D02*
X165624714Y-99099857D01*
X165696142Y-98957000D01*
X165839000Y-98885571D01*
X166124714Y-98885571D01*
X166267571Y-98957000D01*
X165624714Y-99814142D02*
X165767571Y-99885571D01*
X166124714Y-99885571D01*
X166267571Y-99814142D01*
X166339000Y-99671285D01*
X166339000Y-99528428D01*
X166267571Y-99385571D01*
X166124714Y-99314142D01*
X165767571Y-99314142D01*
X165624714Y-99242714D01*
X164910428Y-99885571D02*
X164910428Y-98885571D01*
X164910428Y-99171285D02*
X164839000Y-99028428D01*
X164767571Y-98957000D01*
X164624714Y-98885571D01*
X164481857Y-98885571D01*
X163339000Y-99885571D02*
X163339000Y-98385571D01*
X163339000Y-99814142D02*
X163481857Y-99885571D01*
X163767571Y-99885571D01*
X163910428Y-99814142D01*
X163981857Y-99742714D01*
X164053285Y-99599857D01*
X164053285Y-99171285D01*
X163981857Y-99028428D01*
X163910428Y-98957000D01*
X163767571Y-98885571D01*
X163481857Y-98885571D01*
X163339000Y-98957000D01*
X182089000Y-102385571D02*
X182089000Y-100885571D01*
X182089000Y-102314142D02*
X182231857Y-102385571D01*
X182517571Y-102385571D01*
X182660428Y-102314142D01*
X182731857Y-102242714D01*
X182803285Y-102099857D01*
X182803285Y-101671285D01*
X182731857Y-101528428D01*
X182660428Y-101457000D01*
X182517571Y-101385571D01*
X182231857Y-101385571D01*
X182089000Y-101457000D01*
X180803285Y-102314142D02*
X180946142Y-102385571D01*
X181231857Y-102385571D01*
X181374714Y-102314142D01*
X181446142Y-102171285D01*
X181446142Y-101599857D01*
X181374714Y-101457000D01*
X181231857Y-101385571D01*
X180946142Y-101385571D01*
X180803285Y-101457000D01*
X180731857Y-101599857D01*
X180731857Y-101742714D01*
X181446142Y-101885571D01*
X180160428Y-102314142D02*
X180017571Y-102385571D01*
X179731857Y-102385571D01*
X179589000Y-102314142D01*
X179517571Y-102171285D01*
X179517571Y-102099857D01*
X179589000Y-101957000D01*
X179731857Y-101885571D01*
X179946142Y-101885571D01*
X180089000Y-101814142D01*
X180160428Y-101671285D01*
X180160428Y-101599857D01*
X180089000Y-101457000D01*
X179946142Y-101385571D01*
X179731857Y-101385571D01*
X179589000Y-101457000D01*
X178874714Y-102385571D02*
X178874714Y-101385571D01*
X178874714Y-100885571D02*
X178946142Y-100957000D01*
X178874714Y-101028428D01*
X178803285Y-100957000D01*
X178874714Y-100885571D01*
X178874714Y-101028428D01*
X177517571Y-101385571D02*
X177517571Y-102599857D01*
X177589000Y-102742714D01*
X177660428Y-102814142D01*
X177803285Y-102885571D01*
X178017571Y-102885571D01*
X178160428Y-102814142D01*
X177517571Y-102314142D02*
X177660428Y-102385571D01*
X177946142Y-102385571D01*
X178089000Y-102314142D01*
X178160428Y-102242714D01*
X178231857Y-102099857D01*
X178231857Y-101671285D01*
X178160428Y-101528428D01*
X178089000Y-101457000D01*
X177946142Y-101385571D01*
X177660428Y-101385571D01*
X177517571Y-101457000D01*
X176803285Y-101385571D02*
X176803285Y-102385571D01*
X176803285Y-101528428D02*
X176731857Y-101457000D01*
X176589000Y-101385571D01*
X176374714Y-101385571D01*
X176231857Y-101457000D01*
X176160428Y-101599857D01*
X176160428Y-102385571D01*
X174874714Y-102314142D02*
X175017571Y-102385571D01*
X175303285Y-102385571D01*
X175446142Y-102314142D01*
X175517571Y-102171285D01*
X175517571Y-101599857D01*
X175446142Y-101457000D01*
X175303285Y-101385571D01*
X175017571Y-101385571D01*
X174874714Y-101457000D01*
X174803285Y-101599857D01*
X174803285Y-101742714D01*
X175517571Y-101885571D01*
X173517571Y-102385571D02*
X173517571Y-100885571D01*
X173517571Y-102314142D02*
X173660428Y-102385571D01*
X173946142Y-102385571D01*
X174089000Y-102314142D01*
X174160428Y-102242714D01*
X174231857Y-102099857D01*
X174231857Y-101671285D01*
X174160428Y-101528428D01*
X174089000Y-101457000D01*
X173946142Y-101385571D01*
X173660428Y-101385571D01*
X173517571Y-101457000D01*
X171660428Y-102385571D02*
X171660428Y-100885571D01*
X171660428Y-101457000D02*
X171517571Y-101385571D01*
X171231857Y-101385571D01*
X171089000Y-101457000D01*
X171017571Y-101528428D01*
X170946142Y-101671285D01*
X170946142Y-102099857D01*
X171017571Y-102242714D01*
X171089000Y-102314142D01*
X171231857Y-102385571D01*
X171517571Y-102385571D01*
X171660428Y-102314142D01*
X170446142Y-101385571D02*
X170089000Y-102385571D01*
X169731857Y-101385571D02*
X170089000Y-102385571D01*
X170231857Y-102742714D01*
X170303285Y-102814142D01*
X170446142Y-102885571D01*
X167517571Y-101599857D02*
X168017571Y-101599857D01*
X168017571Y-102385571D02*
X168017571Y-100885571D01*
X167303285Y-100885571D01*
X166803285Y-102314142D02*
X166589000Y-102385571D01*
X166231857Y-102385571D01*
X166089000Y-102314142D01*
X166017571Y-102242714D01*
X165946142Y-102099857D01*
X165946142Y-101957000D01*
X166017571Y-101814142D01*
X166089000Y-101742714D01*
X166231857Y-101671285D01*
X166517571Y-101599857D01*
X166660428Y-101528428D01*
X166731857Y-101457000D01*
X166803285Y-101314142D01*
X166803285Y-101171285D01*
X166731857Y-101028428D01*
X166660428Y-100957000D01*
X166517571Y-100885571D01*
X166160428Y-100885571D01*
X165946142Y-100957000D01*
X164660428Y-101385571D02*
X164660428Y-102385571D01*
X165303285Y-101385571D02*
X165303285Y-102171285D01*
X165231857Y-102314142D01*
X165089000Y-102385571D01*
X164874714Y-102385571D01*
X164731857Y-102314142D01*
X164660428Y-102242714D01*
X163946142Y-101385571D02*
X163946142Y-102385571D01*
X163946142Y-101528428D02*
X163874714Y-101457000D01*
X163731857Y-101385571D01*
X163517571Y-101385571D01*
X163374714Y-101457000D01*
X163303285Y-101599857D01*
X163303285Y-102385571D01*
X161946142Y-102385571D02*
X161946142Y-100885571D01*
X161946142Y-102314142D02*
X162089000Y-102385571D01*
X162374714Y-102385571D01*
X162517571Y-102314142D01*
X162589000Y-102242714D01*
X162660428Y-102099857D01*
X162660428Y-101671285D01*
X162589000Y-101528428D01*
X162517571Y-101457000D01*
X162374714Y-101385571D01*
X162089000Y-101385571D01*
X161946142Y-101457000D01*
D10*
X156550190Y-98972714D02*
X156550190Y-99782238D01*
X156597809Y-99877476D01*
X156645428Y-99925095D01*
X156740666Y-99972714D01*
X156883523Y-99972714D01*
X156978761Y-99925095D01*
X156550190Y-99591761D02*
X156645428Y-99639380D01*
X156835904Y-99639380D01*
X156931142Y-99591761D01*
X156978761Y-99544142D01*
X157026380Y-99448904D01*
X157026380Y-99163190D01*
X156978761Y-99067952D01*
X156931142Y-99020333D01*
X156835904Y-98972714D01*
X156645428Y-98972714D01*
X156550190Y-99020333D01*
X156074000Y-99639380D02*
X156074000Y-98972714D01*
X156074000Y-98639380D02*
X156121619Y-98687000D01*
X156074000Y-98734619D01*
X156026380Y-98687000D01*
X156074000Y-98639380D01*
X156074000Y-98734619D01*
X155740666Y-98972714D02*
X155359714Y-98972714D01*
X155597809Y-98639380D02*
X155597809Y-99496523D01*
X155550190Y-99591761D01*
X155454952Y-99639380D01*
X155359714Y-99639380D01*
X155026380Y-99639380D02*
X155026380Y-98639380D01*
X154597809Y-99639380D02*
X154597809Y-99115571D01*
X154645428Y-99020333D01*
X154740666Y-98972714D01*
X154883523Y-98972714D01*
X154978761Y-99020333D01*
X155026380Y-99067952D01*
X153693047Y-98972714D02*
X153693047Y-99639380D01*
X154121619Y-98972714D02*
X154121619Y-99496523D01*
X154074000Y-99591761D01*
X153978761Y-99639380D01*
X153835904Y-99639380D01*
X153740666Y-99591761D01*
X153693047Y-99544142D01*
X153216857Y-99639380D02*
X153216857Y-98639380D01*
X153216857Y-99020333D02*
X153121619Y-98972714D01*
X152931142Y-98972714D01*
X152835904Y-99020333D01*
X152788285Y-99067952D01*
X152740666Y-99163190D01*
X152740666Y-99448904D01*
X152788285Y-99544142D01*
X152835904Y-99591761D01*
X152931142Y-99639380D01*
X153121619Y-99639380D01*
X153216857Y-99591761D01*
X152312095Y-99544142D02*
X152264476Y-99591761D01*
X152312095Y-99639380D01*
X152359714Y-99591761D01*
X152312095Y-99544142D01*
X152312095Y-99639380D01*
X151407333Y-99591761D02*
X151502571Y-99639380D01*
X151693047Y-99639380D01*
X151788285Y-99591761D01*
X151835904Y-99544142D01*
X151883523Y-99448904D01*
X151883523Y-99163190D01*
X151835904Y-99067952D01*
X151788285Y-99020333D01*
X151693047Y-98972714D01*
X151502571Y-98972714D01*
X151407333Y-99020333D01*
X150835904Y-99639380D02*
X150931142Y-99591761D01*
X150978761Y-99544142D01*
X151026380Y-99448904D01*
X151026380Y-99163190D01*
X150978761Y-99067952D01*
X150931142Y-99020333D01*
X150835904Y-98972714D01*
X150693047Y-98972714D01*
X150597809Y-99020333D01*
X150550190Y-99067952D01*
X150502571Y-99163190D01*
X150502571Y-99448904D01*
X150550190Y-99544142D01*
X150597809Y-99591761D01*
X150693047Y-99639380D01*
X150835904Y-99639380D01*
X150074000Y-99639380D02*
X150074000Y-98972714D01*
X150074000Y-99067952D02*
X150026380Y-99020333D01*
X149931142Y-98972714D01*
X149788285Y-98972714D01*
X149693047Y-99020333D01*
X149645428Y-99115571D01*
X149645428Y-99639380D01*
X149645428Y-99115571D02*
X149597809Y-99020333D01*
X149502571Y-98972714D01*
X149359714Y-98972714D01*
X149264476Y-99020333D01*
X149216857Y-99115571D01*
X149216857Y-99639380D01*
X148026380Y-98591761D02*
X148883523Y-99877476D01*
X147693047Y-99639380D02*
X147693047Y-98639380D01*
X147597809Y-99258428D02*
X147312095Y-99639380D01*
X147312095Y-98972714D02*
X147693047Y-99353666D01*
X146883523Y-99639380D02*
X146883523Y-98972714D01*
X146883523Y-99163190D02*
X146835904Y-99067952D01*
X146788285Y-99020333D01*
X146693047Y-98972714D01*
X146597809Y-98972714D01*
X145835904Y-99639380D02*
X145835904Y-99115571D01*
X145883523Y-99020333D01*
X145978761Y-98972714D01*
X146169238Y-98972714D01*
X146264476Y-99020333D01*
X145835904Y-99591761D02*
X145931142Y-99639380D01*
X146169238Y-99639380D01*
X146264476Y-99591761D01*
X146312095Y-99496523D01*
X146312095Y-99401285D01*
X146264476Y-99306047D01*
X146169238Y-99258428D01*
X145931142Y-99258428D01*
X145835904Y-99210809D01*
X145359714Y-99639380D02*
X145359714Y-98639380D01*
X145264476Y-99258428D02*
X144978761Y-99639380D01*
X144978761Y-98972714D02*
X145359714Y-99353666D01*
X144169238Y-99591761D02*
X144264476Y-99639380D01*
X144454952Y-99639380D01*
X144550190Y-99591761D01*
X144597809Y-99496523D01*
X144597809Y-99115571D01*
X144550190Y-99020333D01*
X144454952Y-98972714D01*
X144264476Y-98972714D01*
X144169238Y-99020333D01*
X144121619Y-99115571D01*
X144121619Y-99210809D01*
X144597809Y-99306047D01*
X143693047Y-98972714D02*
X143693047Y-99639380D01*
X143693047Y-99067952D02*
X143645428Y-99020333D01*
X143550190Y-98972714D01*
X143407333Y-98972714D01*
X143312095Y-99020333D01*
X143264476Y-99115571D01*
X143264476Y-99639380D01*
X142788285Y-99258428D02*
X142026380Y-99258428D01*
X141550190Y-98972714D02*
X141550190Y-99829857D01*
X141597809Y-99925095D01*
X141693047Y-99972714D01*
X141740666Y-99972714D01*
X141550190Y-98639380D02*
X141597809Y-98687000D01*
X141550190Y-98734619D01*
X141502571Y-98687000D01*
X141550190Y-98639380D01*
X141550190Y-98734619D01*
X140931142Y-99639380D02*
X141026380Y-99591761D01*
X141074000Y-99544142D01*
X141121619Y-99448904D01*
X141121619Y-99163190D01*
X141074000Y-99067952D01*
X141026380Y-99020333D01*
X140931142Y-98972714D01*
X140788285Y-98972714D01*
X140693047Y-99020333D01*
X140645428Y-99067952D01*
X140597809Y-99163190D01*
X140597809Y-99448904D01*
X140645428Y-99544142D01*
X140693047Y-99591761D01*
X140788285Y-99639380D01*
X140931142Y-99639380D01*
X140169238Y-99639380D02*
X140169238Y-98639380D01*
X140074000Y-99258428D02*
X139788285Y-99639380D01*
X139788285Y-98972714D02*
X140169238Y-99353666D01*
X138978761Y-99591761D02*
X139074000Y-99639380D01*
X139264476Y-99639380D01*
X139359714Y-99591761D01*
X139407333Y-99496523D01*
X139407333Y-99115571D01*
X139359714Y-99020333D01*
X139264476Y-98972714D01*
X139074000Y-98972714D01*
X138978761Y-99020333D01*
X138931142Y-99115571D01*
X138931142Y-99210809D01*
X139407333Y-99306047D01*
X138550190Y-99591761D02*
X138454952Y-99639380D01*
X138264476Y-99639380D01*
X138169238Y-99591761D01*
X138121619Y-99496523D01*
X138121619Y-99448904D01*
X138169238Y-99353666D01*
X138264476Y-99306047D01*
X138407333Y-99306047D01*
X138502571Y-99258428D01*
X138550190Y-99163190D01*
X138550190Y-99115571D01*
X138502571Y-99020333D01*
X138407333Y-98972714D01*
X138264476Y-98972714D01*
X138169238Y-99020333D01*
X185434238Y-104433714D02*
X185434238Y-105243238D01*
X185481857Y-105338476D01*
X185529476Y-105386095D01*
X185624714Y-105433714D01*
X185767571Y-105433714D01*
X185862809Y-105386095D01*
X185434238Y-105052761D02*
X185529476Y-105100380D01*
X185719952Y-105100380D01*
X185815190Y-105052761D01*
X185862809Y-105005142D01*
X185910428Y-104909904D01*
X185910428Y-104624190D01*
X185862809Y-104528952D01*
X185815190Y-104481333D01*
X185719952Y-104433714D01*
X185529476Y-104433714D01*
X185434238Y-104481333D01*
X184958047Y-105100380D02*
X184958047Y-104433714D01*
X184958047Y-104100380D02*
X185005666Y-104148000D01*
X184958047Y-104195619D01*
X184910428Y-104148000D01*
X184958047Y-104100380D01*
X184958047Y-104195619D01*
X184624714Y-104433714D02*
X184243761Y-104433714D01*
X184481857Y-104100380D02*
X184481857Y-104957523D01*
X184434238Y-105052761D01*
X184339000Y-105100380D01*
X184243761Y-105100380D01*
X183910428Y-105100380D02*
X183910428Y-104100380D01*
X183481857Y-105100380D02*
X183481857Y-104576571D01*
X183529476Y-104481333D01*
X183624714Y-104433714D01*
X183767571Y-104433714D01*
X183862809Y-104481333D01*
X183910428Y-104528952D01*
X182577095Y-104433714D02*
X182577095Y-105100380D01*
X183005666Y-104433714D02*
X183005666Y-104957523D01*
X182958047Y-105052761D01*
X182862809Y-105100380D01*
X182719952Y-105100380D01*
X182624714Y-105052761D01*
X182577095Y-105005142D01*
X182100904Y-105100380D02*
X182100904Y-104100380D01*
X182100904Y-104481333D02*
X182005666Y-104433714D01*
X181815190Y-104433714D01*
X181719952Y-104481333D01*
X181672333Y-104528952D01*
X181624714Y-104624190D01*
X181624714Y-104909904D01*
X181672333Y-105005142D01*
X181719952Y-105052761D01*
X181815190Y-105100380D01*
X182005666Y-105100380D01*
X182100904Y-105052761D01*
X181196142Y-105005142D02*
X181148523Y-105052761D01*
X181196142Y-105100380D01*
X181243761Y-105052761D01*
X181196142Y-105005142D01*
X181196142Y-105100380D01*
X180291380Y-105052761D02*
X180386619Y-105100380D01*
X180577095Y-105100380D01*
X180672333Y-105052761D01*
X180719952Y-105005142D01*
X180767571Y-104909904D01*
X180767571Y-104624190D01*
X180719952Y-104528952D01*
X180672333Y-104481333D01*
X180577095Y-104433714D01*
X180386619Y-104433714D01*
X180291380Y-104481333D01*
X179719952Y-105100380D02*
X179815190Y-105052761D01*
X179862809Y-105005142D01*
X179910428Y-104909904D01*
X179910428Y-104624190D01*
X179862809Y-104528952D01*
X179815190Y-104481333D01*
X179719952Y-104433714D01*
X179577095Y-104433714D01*
X179481857Y-104481333D01*
X179434238Y-104528952D01*
X179386619Y-104624190D01*
X179386619Y-104909904D01*
X179434238Y-105005142D01*
X179481857Y-105052761D01*
X179577095Y-105100380D01*
X179719952Y-105100380D01*
X178958047Y-105100380D02*
X178958047Y-104433714D01*
X178958047Y-104528952D02*
X178910428Y-104481333D01*
X178815190Y-104433714D01*
X178672333Y-104433714D01*
X178577095Y-104481333D01*
X178529476Y-104576571D01*
X178529476Y-105100380D01*
X178529476Y-104576571D02*
X178481857Y-104481333D01*
X178386619Y-104433714D01*
X178243761Y-104433714D01*
X178148523Y-104481333D01*
X178100904Y-104576571D01*
X178100904Y-105100380D01*
X176910428Y-104052761D02*
X177767571Y-105338476D01*
X176243761Y-104576571D02*
X176577095Y-104576571D01*
X176577095Y-105100380D02*
X176577095Y-104100380D01*
X176100904Y-104100380D01*
X175767571Y-105052761D02*
X175624714Y-105100380D01*
X175386619Y-105100380D01*
X175291380Y-105052761D01*
X175243761Y-105005142D01*
X175196142Y-104909904D01*
X175196142Y-104814666D01*
X175243761Y-104719428D01*
X175291380Y-104671809D01*
X175386619Y-104624190D01*
X175577095Y-104576571D01*
X175672333Y-104528952D01*
X175719952Y-104481333D01*
X175767571Y-104386095D01*
X175767571Y-104290857D01*
X175719952Y-104195619D01*
X175672333Y-104148000D01*
X175577095Y-104100380D01*
X175339000Y-104100380D01*
X175196142Y-104148000D01*
X174339000Y-104433714D02*
X174339000Y-105100380D01*
X174767571Y-104433714D02*
X174767571Y-104957523D01*
X174719952Y-105052761D01*
X174624714Y-105100380D01*
X174481857Y-105100380D01*
X174386619Y-105052761D01*
X174339000Y-105005142D01*
X173862809Y-104433714D02*
X173862809Y-105100380D01*
X173862809Y-104528952D02*
X173815190Y-104481333D01*
X173719952Y-104433714D01*
X173577095Y-104433714D01*
X173481857Y-104481333D01*
X173434238Y-104576571D01*
X173434238Y-105100380D01*
X172529476Y-105100380D02*
X172529476Y-104100380D01*
X172529476Y-105052761D02*
X172624714Y-105100380D01*
X172815190Y-105100380D01*
X172910428Y-105052761D01*
X172958047Y-105005142D01*
X173005666Y-104909904D01*
X173005666Y-104624190D01*
X172958047Y-104528952D01*
X172910428Y-104481333D01*
X172815190Y-104433714D01*
X172624714Y-104433714D01*
X172529476Y-104481333D01*
X171339000Y-104052761D02*
X172196142Y-105338476D01*
X171005666Y-104433714D02*
X171005666Y-105433714D01*
X171005666Y-104481333D02*
X170910428Y-104433714D01*
X170719952Y-104433714D01*
X170624714Y-104481333D01*
X170577095Y-104528952D01*
X170529476Y-104624190D01*
X170529476Y-104909904D01*
X170577095Y-105005142D01*
X170624714Y-105052761D01*
X170719952Y-105100380D01*
X170910428Y-105100380D01*
X171005666Y-105052761D01*
X170243761Y-104433714D02*
X169862809Y-104433714D01*
X170100904Y-104100380D02*
X170100904Y-104957523D01*
X170053285Y-105052761D01*
X169958047Y-105100380D01*
X169862809Y-105100380D01*
X169148523Y-105052761D02*
X169243761Y-105100380D01*
X169434238Y-105100380D01*
X169529476Y-105052761D01*
X169577095Y-104957523D01*
X169577095Y-104576571D01*
X169529476Y-104481333D01*
X169434238Y-104433714D01*
X169243761Y-104433714D01*
X169148523Y-104481333D01*
X169100904Y-104576571D01*
X169100904Y-104671809D01*
X169577095Y-104767047D01*
X168672333Y-105100380D02*
X168672333Y-104433714D01*
X168672333Y-104624190D02*
X168624714Y-104528952D01*
X168577095Y-104481333D01*
X168481857Y-104433714D01*
X168386619Y-104433714D01*
X167910428Y-105100380D02*
X168005666Y-105052761D01*
X168053285Y-105005142D01*
X168100904Y-104909904D01*
X168100904Y-104624190D01*
X168053285Y-104528952D01*
X168005666Y-104481333D01*
X167910428Y-104433714D01*
X167767571Y-104433714D01*
X167672333Y-104481333D01*
X167624714Y-104528952D01*
X167577095Y-104624190D01*
X167577095Y-104909904D01*
X167624714Y-105005142D01*
X167672333Y-105052761D01*
X167767571Y-105100380D01*
X167910428Y-105100380D01*
X167148523Y-104433714D02*
X167148523Y-105100380D01*
X167148523Y-104528952D02*
X167100904Y-104481333D01*
X167005666Y-104433714D01*
X166862809Y-104433714D01*
X166767571Y-104481333D01*
X166719952Y-104576571D01*
X166719952Y-105100380D01*
X166243761Y-104719428D02*
X165481857Y-104719428D01*
X165005666Y-105100380D02*
X165005666Y-104100380D01*
X164910428Y-104719428D02*
X164624714Y-105100380D01*
X164624714Y-104433714D02*
X165005666Y-104814666D01*
X163815190Y-105052761D02*
X163910428Y-105100380D01*
X164100904Y-105100380D01*
X164196142Y-105052761D01*
X164243761Y-104957523D01*
X164243761Y-104576571D01*
X164196142Y-104481333D01*
X164100904Y-104433714D01*
X163910428Y-104433714D01*
X163815190Y-104481333D01*
X163767571Y-104576571D01*
X163767571Y-104671809D01*
X164243761Y-104767047D01*
X163434238Y-104433714D02*
X163196142Y-105100380D01*
X162958047Y-104433714D02*
X163196142Y-105100380D01*
X163291380Y-105338476D01*
X163339000Y-105386095D01*
X163434238Y-105433714D01*
X162577095Y-105100380D02*
X162577095Y-104100380D01*
X162577095Y-104481333D02*
X162481857Y-104433714D01*
X162291380Y-104433714D01*
X162196142Y-104481333D01*
X162148523Y-104528952D01*
X162100904Y-104624190D01*
X162100904Y-104909904D01*
X162148523Y-105005142D01*
X162196142Y-105052761D01*
X162291380Y-105100380D01*
X162481857Y-105100380D01*
X162577095Y-105052761D01*
X161529476Y-105100380D02*
X161624714Y-105052761D01*
X161672333Y-105005142D01*
X161719952Y-104909904D01*
X161719952Y-104624190D01*
X161672333Y-104528952D01*
X161624714Y-104481333D01*
X161529476Y-104433714D01*
X161386619Y-104433714D01*
X161291380Y-104481333D01*
X161243761Y-104528952D01*
X161196142Y-104624190D01*
X161196142Y-104909904D01*
X161243761Y-105005142D01*
X161291380Y-105052761D01*
X161386619Y-105100380D01*
X161529476Y-105100380D01*
X160339000Y-105100380D02*
X160339000Y-104576571D01*
X160386619Y-104481333D01*
X160481857Y-104433714D01*
X160672333Y-104433714D01*
X160767571Y-104481333D01*
X160339000Y-105052761D02*
X160434238Y-105100380D01*
X160672333Y-105100380D01*
X160767571Y-105052761D01*
X160815190Y-104957523D01*
X160815190Y-104862285D01*
X160767571Y-104767047D01*
X160672333Y-104719428D01*
X160434238Y-104719428D01*
X160339000Y-104671809D01*
X159862809Y-105100380D02*
X159862809Y-104433714D01*
X159862809Y-104624190D02*
X159815190Y-104528952D01*
X159767571Y-104481333D01*
X159672333Y-104433714D01*
X159577095Y-104433714D01*
X158815190Y-105100380D02*
X158815190Y-104100380D01*
X158815190Y-105052761D02*
X158910428Y-105100380D01*
X159100904Y-105100380D01*
X159196142Y-105052761D01*
X159243761Y-105005142D01*
X159291380Y-104909904D01*
X159291380Y-104624190D01*
X159243761Y-104528952D01*
X159196142Y-104481333D01*
X159100904Y-104433714D01*
X158910428Y-104433714D01*
X158815190Y-104481333D01*
X157161047Y-101004714D02*
X156780095Y-101004714D01*
X157018190Y-101671380D02*
X157018190Y-100814238D01*
X156970571Y-100719000D01*
X156875333Y-100671380D01*
X156780095Y-100671380D01*
X156018190Y-101671380D02*
X156018190Y-101147571D01*
X156065809Y-101052333D01*
X156161047Y-101004714D01*
X156351523Y-101004714D01*
X156446761Y-101052333D01*
X156018190Y-101623761D02*
X156113428Y-101671380D01*
X156351523Y-101671380D01*
X156446761Y-101623761D01*
X156494380Y-101528523D01*
X156494380Y-101433285D01*
X156446761Y-101338047D01*
X156351523Y-101290428D01*
X156113428Y-101290428D01*
X156018190Y-101242809D01*
X155113428Y-101623761D02*
X155208666Y-101671380D01*
X155399142Y-101671380D01*
X155494380Y-101623761D01*
X155542000Y-101576142D01*
X155589619Y-101480904D01*
X155589619Y-101195190D01*
X155542000Y-101099952D01*
X155494380Y-101052333D01*
X155399142Y-101004714D01*
X155208666Y-101004714D01*
X155113428Y-101052333D01*
X154303904Y-101623761D02*
X154399142Y-101671380D01*
X154589619Y-101671380D01*
X154684857Y-101623761D01*
X154732476Y-101528523D01*
X154732476Y-101147571D01*
X154684857Y-101052333D01*
X154589619Y-101004714D01*
X154399142Y-101004714D01*
X154303904Y-101052333D01*
X154256285Y-101147571D01*
X154256285Y-101242809D01*
X154732476Y-101338047D01*
X153827714Y-101671380D02*
X153827714Y-100671380D01*
X153827714Y-101052333D02*
X153732476Y-101004714D01*
X153542000Y-101004714D01*
X153446761Y-101052333D01*
X153399142Y-101099952D01*
X153351523Y-101195190D01*
X153351523Y-101480904D01*
X153399142Y-101576142D01*
X153446761Y-101623761D01*
X153542000Y-101671380D01*
X153732476Y-101671380D01*
X153827714Y-101623761D01*
X152780095Y-101671380D02*
X152875333Y-101623761D01*
X152922952Y-101576142D01*
X152970571Y-101480904D01*
X152970571Y-101195190D01*
X152922952Y-101099952D01*
X152875333Y-101052333D01*
X152780095Y-101004714D01*
X152637238Y-101004714D01*
X152542000Y-101052333D01*
X152494380Y-101099952D01*
X152446761Y-101195190D01*
X152446761Y-101480904D01*
X152494380Y-101576142D01*
X152542000Y-101623761D01*
X152637238Y-101671380D01*
X152780095Y-101671380D01*
X151875333Y-101671380D02*
X151970571Y-101623761D01*
X152018190Y-101576142D01*
X152065809Y-101480904D01*
X152065809Y-101195190D01*
X152018190Y-101099952D01*
X151970571Y-101052333D01*
X151875333Y-101004714D01*
X151732476Y-101004714D01*
X151637238Y-101052333D01*
X151589619Y-101099952D01*
X151542000Y-101195190D01*
X151542000Y-101480904D01*
X151589619Y-101576142D01*
X151637238Y-101623761D01*
X151732476Y-101671380D01*
X151875333Y-101671380D01*
X151113428Y-101671380D02*
X151113428Y-100671380D01*
X151018190Y-101290428D02*
X150732476Y-101671380D01*
X150732476Y-101004714D02*
X151113428Y-101385666D01*
X150303904Y-101576142D02*
X150256285Y-101623761D01*
X150303904Y-101671380D01*
X150351523Y-101623761D01*
X150303904Y-101576142D01*
X150303904Y-101671380D01*
X149399142Y-101623761D02*
X149494380Y-101671380D01*
X149684857Y-101671380D01*
X149780095Y-101623761D01*
X149827714Y-101576142D01*
X149875333Y-101480904D01*
X149875333Y-101195190D01*
X149827714Y-101099952D01*
X149780095Y-101052333D01*
X149684857Y-101004714D01*
X149494380Y-101004714D01*
X149399142Y-101052333D01*
X148827714Y-101671380D02*
X148922952Y-101623761D01*
X148970571Y-101576142D01*
X149018190Y-101480904D01*
X149018190Y-101195190D01*
X148970571Y-101099952D01*
X148922952Y-101052333D01*
X148827714Y-101004714D01*
X148684857Y-101004714D01*
X148589619Y-101052333D01*
X148542000Y-101099952D01*
X148494380Y-101195190D01*
X148494380Y-101480904D01*
X148542000Y-101576142D01*
X148589619Y-101623761D01*
X148684857Y-101671380D01*
X148827714Y-101671380D01*
X148065809Y-101671380D02*
X148065809Y-101004714D01*
X148065809Y-101099952D02*
X148018190Y-101052333D01*
X147922952Y-101004714D01*
X147780095Y-101004714D01*
X147684857Y-101052333D01*
X147637238Y-101147571D01*
X147637238Y-101671380D01*
X147637238Y-101147571D02*
X147589619Y-101052333D01*
X147494380Y-101004714D01*
X147351523Y-101004714D01*
X147256285Y-101052333D01*
X147208666Y-101147571D01*
X147208666Y-101671380D01*
X146018190Y-100623761D02*
X146875333Y-101909476D01*
X145684857Y-101671380D02*
X145684857Y-101004714D01*
X145684857Y-101099952D02*
X145637238Y-101052333D01*
X145542000Y-101004714D01*
X145399142Y-101004714D01*
X145303904Y-101052333D01*
X145256285Y-101147571D01*
X145256285Y-101671380D01*
X145256285Y-101147571D02*
X145208666Y-101052333D01*
X145113428Y-101004714D01*
X144970571Y-101004714D01*
X144875333Y-101052333D01*
X144827714Y-101147571D01*
X144827714Y-101671380D01*
X144208666Y-101671380D02*
X144303904Y-101623761D01*
X144351523Y-101576142D01*
X144399142Y-101480904D01*
X144399142Y-101195190D01*
X144351523Y-101099952D01*
X144303904Y-101052333D01*
X144208666Y-101004714D01*
X144065809Y-101004714D01*
X143970571Y-101052333D01*
X143922952Y-101099952D01*
X143875333Y-101195190D01*
X143875333Y-101480904D01*
X143922952Y-101576142D01*
X143970571Y-101623761D01*
X144065809Y-101671380D01*
X144208666Y-101671380D01*
X143303904Y-101671380D02*
X143399142Y-101623761D01*
X143446761Y-101576142D01*
X143494380Y-101480904D01*
X143494380Y-101195190D01*
X143446761Y-101099952D01*
X143399142Y-101052333D01*
X143303904Y-101004714D01*
X143161047Y-101004714D01*
X143065809Y-101052333D01*
X143018190Y-101099952D01*
X142970571Y-101195190D01*
X142970571Y-101480904D01*
X143018190Y-101576142D01*
X143065809Y-101623761D01*
X143161047Y-101671380D01*
X143303904Y-101671380D01*
X142542000Y-101671380D02*
X142542000Y-101004714D01*
X142542000Y-101195190D02*
X142494380Y-101099952D01*
X142446761Y-101052333D01*
X142351523Y-101004714D01*
X142256285Y-101004714D01*
X141542000Y-101623761D02*
X141637238Y-101671380D01*
X141827714Y-101671380D01*
X141922952Y-101623761D01*
X141970571Y-101528523D01*
X141970571Y-101147571D01*
X141922952Y-101052333D01*
X141827714Y-101004714D01*
X141637238Y-101004714D01*
X141542000Y-101052333D01*
X141494380Y-101147571D01*
X141494380Y-101242809D01*
X141970571Y-101338047D01*
X141065809Y-101671380D02*
X141065809Y-100671380D01*
X140970571Y-101290428D02*
X140684857Y-101671380D01*
X140684857Y-101004714D02*
X141065809Y-101385666D01*
X139875333Y-101623761D02*
X139970571Y-101671380D01*
X140161047Y-101671380D01*
X140256285Y-101623761D01*
X140303904Y-101528523D01*
X140303904Y-101147571D01*
X140256285Y-101052333D01*
X140161047Y-101004714D01*
X139970571Y-101004714D01*
X139875333Y-101052333D01*
X139827714Y-101147571D01*
X139827714Y-101242809D01*
X140303904Y-101338047D01*
X139494380Y-101004714D02*
X139256285Y-101671380D01*
X139018190Y-101004714D02*
X139256285Y-101671380D01*
X139351523Y-101909476D01*
X139399142Y-101957095D01*
X139494380Y-102004714D01*
X138637238Y-101671380D02*
X138637238Y-100671380D01*
X138637238Y-101052333D02*
X138542000Y-101004714D01*
X138351523Y-101004714D01*
X138256285Y-101052333D01*
X138208666Y-101099952D01*
X138161047Y-101195190D01*
X138161047Y-101480904D01*
X138208666Y-101576142D01*
X138256285Y-101623761D01*
X138351523Y-101671380D01*
X138542000Y-101671380D01*
X138637238Y-101623761D01*
X137589619Y-101671380D02*
X137684857Y-101623761D01*
X137732476Y-101576142D01*
X137780095Y-101480904D01*
X137780095Y-101195190D01*
X137732476Y-101099952D01*
X137684857Y-101052333D01*
X137589619Y-101004714D01*
X137446761Y-101004714D01*
X137351523Y-101052333D01*
X137303904Y-101099952D01*
X137256285Y-101195190D01*
X137256285Y-101480904D01*
X137303904Y-101576142D01*
X137351523Y-101623761D01*
X137446761Y-101671380D01*
X137589619Y-101671380D01*
X136399142Y-101671380D02*
X136399142Y-101147571D01*
X136446761Y-101052333D01*
X136542000Y-101004714D01*
X136732476Y-101004714D01*
X136827714Y-101052333D01*
X136399142Y-101623761D02*
X136494380Y-101671380D01*
X136732476Y-101671380D01*
X136827714Y-101623761D01*
X136875333Y-101528523D01*
X136875333Y-101433285D01*
X136827714Y-101338047D01*
X136732476Y-101290428D01*
X136494380Y-101290428D01*
X136399142Y-101242809D01*
X135922952Y-101671380D02*
X135922952Y-101004714D01*
X135922952Y-101195190D02*
X135875333Y-101099952D01*
X135827714Y-101052333D01*
X135732476Y-101004714D01*
X135637238Y-101004714D01*
X134875333Y-101671380D02*
X134875333Y-100671380D01*
X134875333Y-101623761D02*
X134970571Y-101671380D01*
X135161047Y-101671380D01*
X135256285Y-101623761D01*
X135303904Y-101576142D01*
X135351523Y-101480904D01*
X135351523Y-101195190D01*
X135303904Y-101099952D01*
X135256285Y-101052333D01*
X135161047Y-101004714D01*
X134970571Y-101004714D01*
X134875333Y-101052333D01*
X134446761Y-101623761D02*
X134351523Y-101671380D01*
X134161047Y-101671380D01*
X134065809Y-101623761D01*
X134018190Y-101528523D01*
X134018190Y-101480904D01*
X134065809Y-101385666D01*
X134161047Y-101338047D01*
X134303904Y-101338047D01*
X134399142Y-101290428D01*
X134446761Y-101195190D01*
X134446761Y-101147571D01*
X134399142Y-101052333D01*
X134303904Y-101004714D01*
X134161047Y-101004714D01*
X134065809Y-101052333D01*
D13*
%TO.C,LOGO1*%
G36*
X97376554Y-88835613D02*
G01*
X97281936Y-88849700D01*
X97172682Y-88868708D01*
X97060409Y-88890452D01*
X96956732Y-88912744D01*
X96873268Y-88933401D01*
X96821635Y-88950235D01*
X96812100Y-88955764D01*
X96810623Y-88985343D01*
X96840989Y-89023804D01*
X96888988Y-89058589D01*
X96940409Y-89077141D01*
X96950207Y-89077800D01*
X96982749Y-89097393D01*
X97038855Y-89151923D01*
X97112528Y-89235014D01*
X97197771Y-89340288D01*
X97201049Y-89344500D01*
X97408313Y-89611200D01*
X96499174Y-89611200D01*
X96278700Y-89357756D01*
X96015400Y-89560599D01*
X95752100Y-89763441D01*
X95863000Y-89813763D01*
X95935181Y-89843784D01*
X95990754Y-89862087D01*
X96005650Y-89864642D01*
X96014334Y-89875342D01*
X96021395Y-89909764D01*
X96026969Y-89971890D01*
X96031196Y-90065702D01*
X96034213Y-90195183D01*
X96036159Y-90364316D01*
X96037171Y-90577084D01*
X96037400Y-90780841D01*
X96037400Y-91696483D01*
X96145350Y-91745484D01*
X96235099Y-91776565D01*
X96326159Y-91793832D01*
X96348550Y-91795042D01*
X96411012Y-91791886D01*
X96437758Y-91773493D01*
X96443762Y-91727970D01*
X96443800Y-91719400D01*
X96443800Y-91643200D01*
X96774000Y-91643200D01*
X96774000Y-92643325D01*
X96773590Y-92867133D01*
X96772421Y-93077669D01*
X96770583Y-93268901D01*
X96768170Y-93434802D01*
X96765272Y-93569341D01*
X96761981Y-93666489D01*
X96758389Y-93720217D01*
X96757553Y-93725686D01*
X96750527Y-93757781D01*
X96740731Y-93785119D01*
X96724335Y-93808059D01*
X96697508Y-93826958D01*
X96656420Y-93842173D01*
X96597239Y-93854062D01*
X96516136Y-93862984D01*
X96409279Y-93869295D01*
X96272838Y-93873353D01*
X96102982Y-93875516D01*
X95895880Y-93876141D01*
X95647703Y-93875586D01*
X95354618Y-93874209D01*
X95176936Y-93873252D01*
X94873709Y-93871496D01*
X94617166Y-93869693D01*
X94403191Y-93867700D01*
X94227669Y-93865372D01*
X94086484Y-93862564D01*
X93975520Y-93859132D01*
X93890662Y-93854930D01*
X93827794Y-93849815D01*
X93782799Y-93843641D01*
X93751563Y-93836264D01*
X93729970Y-93827540D01*
X93720627Y-93822058D01*
X93674112Y-93775407D01*
X93627409Y-93694276D01*
X93578736Y-93574436D01*
X93526313Y-93411657D01*
X93483548Y-93259171D01*
X93447807Y-93132883D01*
X93419190Y-93050328D01*
X93396790Y-93012597D01*
X93379701Y-93020777D01*
X93367017Y-93075959D01*
X93357830Y-93179232D01*
X93351233Y-93331685D01*
X93348758Y-93421119D01*
X93339565Y-93798057D01*
X93272433Y-93814807D01*
X93179230Y-93857838D01*
X93127121Y-93928718D01*
X93116401Y-93992700D01*
X93125922Y-94056034D01*
X93157401Y-94108250D01*
X93215208Y-94150773D01*
X93303714Y-94185028D01*
X93427292Y-94212438D01*
X93590312Y-94234430D01*
X93797146Y-94252427D01*
X93941900Y-94261772D01*
X94068271Y-94267356D01*
X94237638Y-94272068D01*
X94442205Y-94275826D01*
X94674176Y-94278550D01*
X94925755Y-94280158D01*
X95189143Y-94280568D01*
X95456545Y-94279700D01*
X95580200Y-94278837D01*
X95862684Y-94276313D01*
X96099050Y-94273674D01*
X96293979Y-94270734D01*
X96452153Y-94267306D01*
X96578255Y-94263203D01*
X96676966Y-94258238D01*
X96752968Y-94252226D01*
X96810943Y-94244978D01*
X96855572Y-94236309D01*
X96889792Y-94226614D01*
X97020103Y-94165398D01*
X97108231Y-94080050D01*
X97155607Y-93977884D01*
X97161277Y-93932636D01*
X97166393Y-93841235D01*
X97170860Y-93708325D01*
X97174583Y-93538551D01*
X97177468Y-93336558D01*
X97179418Y-93106991D01*
X97180339Y-92854494D01*
X97180400Y-92767317D01*
X97180400Y-91643200D01*
X97355424Y-91643200D01*
X97530448Y-91643199D01*
X97548028Y-91928950D01*
X97580667Y-92321052D01*
X97628555Y-92669305D01*
X97693379Y-92978817D01*
X97776828Y-93254695D01*
X97880588Y-93502046D01*
X98006349Y-93725978D01*
X98155796Y-93931599D01*
X98243184Y-94032709D01*
X98330789Y-94123336D01*
X98427086Y-94214282D01*
X98523419Y-94298336D01*
X98611135Y-94368287D01*
X98681577Y-94416924D01*
X98726091Y-94437035D01*
X98728668Y-94437200D01*
X98761965Y-94417019D01*
X98770072Y-94402601D01*
X98761453Y-94368321D01*
X98727275Y-94305307D01*
X98673812Y-94224413D01*
X98641582Y-94180351D01*
X98472049Y-93927037D01*
X98330951Y-93651675D01*
X98216761Y-93349439D01*
X98127950Y-93015506D01*
X98062990Y-92645050D01*
X98020353Y-92233246D01*
X98019008Y-92214700D01*
X98006050Y-92022944D01*
X97998011Y-91876641D01*
X97994888Y-91770683D01*
X97996676Y-91699959D01*
X98003372Y-91659362D01*
X98014972Y-91643784D01*
X98018600Y-91643200D01*
X98036324Y-91665299D01*
X98043992Y-91718667D01*
X98044000Y-91720641D01*
X98050878Y-91772322D01*
X98079897Y-91808290D01*
X98143632Y-91843275D01*
X98151950Y-91847084D01*
X98241699Y-91878165D01*
X98332759Y-91895432D01*
X98355150Y-91896642D01*
X98450400Y-91897200D01*
X98450400Y-90703400D01*
X98044000Y-90703400D01*
X98044000Y-91465400D01*
X97434400Y-91465400D01*
X97434400Y-90703400D01*
X97053400Y-90703400D01*
X97053400Y-91465400D01*
X96443800Y-91465400D01*
X96443800Y-90703400D01*
X97053400Y-90703400D01*
X97434400Y-90703400D01*
X98044000Y-90703400D01*
X98450400Y-90703400D01*
X98450400Y-90665300D01*
X98449915Y-90378114D01*
X98448494Y-90123654D01*
X98446192Y-89904701D01*
X98444189Y-89789000D01*
X98044000Y-89789000D01*
X98044000Y-90525600D01*
X97434400Y-90525600D01*
X97434400Y-89789000D01*
X97053400Y-89789000D01*
X97053400Y-90525600D01*
X96443800Y-90525600D01*
X96443800Y-89789000D01*
X97053400Y-89789000D01*
X97434400Y-89789000D01*
X98044000Y-89789000D01*
X98444189Y-89789000D01*
X98443064Y-89724037D01*
X98439163Y-89584444D01*
X98434543Y-89488702D01*
X98429259Y-89439596D01*
X98426408Y-89433400D01*
X98393656Y-89443341D01*
X98327195Y-89469834D01*
X98239319Y-89507886D01*
X98205268Y-89523242D01*
X98102029Y-89568190D01*
X98023216Y-89594333D01*
X97948005Y-89605954D01*
X97855571Y-89607335D01*
X97803811Y-89605792D01*
X97599500Y-89598500D01*
X97545914Y-89223180D01*
X97526045Y-89090494D01*
X97507161Y-88976079D01*
X97490929Y-88889196D01*
X97479012Y-88839107D01*
X97475415Y-88830947D01*
X97444919Y-88828634D01*
X97376554Y-88835613D01*
G37*
X97376554Y-88835613D02*
X97281936Y-88849700D01*
X97172682Y-88868708D01*
X97060409Y-88890452D01*
X96956732Y-88912744D01*
X96873268Y-88933401D01*
X96821635Y-88950235D01*
X96812100Y-88955764D01*
X96810623Y-88985343D01*
X96840989Y-89023804D01*
X96888988Y-89058589D01*
X96940409Y-89077141D01*
X96950207Y-89077800D01*
X96982749Y-89097393D01*
X97038855Y-89151923D01*
X97112528Y-89235014D01*
X97197771Y-89340288D01*
X97201049Y-89344500D01*
X97408313Y-89611200D01*
X96499174Y-89611200D01*
X96278700Y-89357756D01*
X96015400Y-89560599D01*
X95752100Y-89763441D01*
X95863000Y-89813763D01*
X95935181Y-89843784D01*
X95990754Y-89862087D01*
X96005650Y-89864642D01*
X96014334Y-89875342D01*
X96021395Y-89909764D01*
X96026969Y-89971890D01*
X96031196Y-90065702D01*
X96034213Y-90195183D01*
X96036159Y-90364316D01*
X96037171Y-90577084D01*
X96037400Y-90780841D01*
X96037400Y-91696483D01*
X96145350Y-91745484D01*
X96235099Y-91776565D01*
X96326159Y-91793832D01*
X96348550Y-91795042D01*
X96411012Y-91791886D01*
X96437758Y-91773493D01*
X96443762Y-91727970D01*
X96443800Y-91719400D01*
X96443800Y-91643200D01*
X96774000Y-91643200D01*
X96774000Y-92643325D01*
X96773590Y-92867133D01*
X96772421Y-93077669D01*
X96770583Y-93268901D01*
X96768170Y-93434802D01*
X96765272Y-93569341D01*
X96761981Y-93666489D01*
X96758389Y-93720217D01*
X96757553Y-93725686D01*
X96750527Y-93757781D01*
X96740731Y-93785119D01*
X96724335Y-93808059D01*
X96697508Y-93826958D01*
X96656420Y-93842173D01*
X96597239Y-93854062D01*
X96516136Y-93862984D01*
X96409279Y-93869295D01*
X96272838Y-93873353D01*
X96102982Y-93875516D01*
X95895880Y-93876141D01*
X95647703Y-93875586D01*
X95354618Y-93874209D01*
X95176936Y-93873252D01*
X94873709Y-93871496D01*
X94617166Y-93869693D01*
X94403191Y-93867700D01*
X94227669Y-93865372D01*
X94086484Y-93862564D01*
X93975520Y-93859132D01*
X93890662Y-93854930D01*
X93827794Y-93849815D01*
X93782799Y-93843641D01*
X93751563Y-93836264D01*
X93729970Y-93827540D01*
X93720627Y-93822058D01*
X93674112Y-93775407D01*
X93627409Y-93694276D01*
X93578736Y-93574436D01*
X93526313Y-93411657D01*
X93483548Y-93259171D01*
X93447807Y-93132883D01*
X93419190Y-93050328D01*
X93396790Y-93012597D01*
X93379701Y-93020777D01*
X93367017Y-93075959D01*
X93357830Y-93179232D01*
X93351233Y-93331685D01*
X93348758Y-93421119D01*
X93339565Y-93798057D01*
X93272433Y-93814807D01*
X93179230Y-93857838D01*
X93127121Y-93928718D01*
X93116401Y-93992700D01*
X93125922Y-94056034D01*
X93157401Y-94108250D01*
X93215208Y-94150773D01*
X93303714Y-94185028D01*
X93427292Y-94212438D01*
X93590312Y-94234430D01*
X93797146Y-94252427D01*
X93941900Y-94261772D01*
X94068271Y-94267356D01*
X94237638Y-94272068D01*
X94442205Y-94275826D01*
X94674176Y-94278550D01*
X94925755Y-94280158D01*
X95189143Y-94280568D01*
X95456545Y-94279700D01*
X95580200Y-94278837D01*
X95862684Y-94276313D01*
X96099050Y-94273674D01*
X96293979Y-94270734D01*
X96452153Y-94267306D01*
X96578255Y-94263203D01*
X96676966Y-94258238D01*
X96752968Y-94252226D01*
X96810943Y-94244978D01*
X96855572Y-94236309D01*
X96889792Y-94226614D01*
X97020103Y-94165398D01*
X97108231Y-94080050D01*
X97155607Y-93977884D01*
X97161277Y-93932636D01*
X97166393Y-93841235D01*
X97170860Y-93708325D01*
X97174583Y-93538551D01*
X97177468Y-93336558D01*
X97179418Y-93106991D01*
X97180339Y-92854494D01*
X97180400Y-92767317D01*
X97180400Y-91643200D01*
X97355424Y-91643200D01*
X97530448Y-91643199D01*
X97548028Y-91928950D01*
X97580667Y-92321052D01*
X97628555Y-92669305D01*
X97693379Y-92978817D01*
X97776828Y-93254695D01*
X97880588Y-93502046D01*
X98006349Y-93725978D01*
X98155796Y-93931599D01*
X98243184Y-94032709D01*
X98330789Y-94123336D01*
X98427086Y-94214282D01*
X98523419Y-94298336D01*
X98611135Y-94368287D01*
X98681577Y-94416924D01*
X98726091Y-94437035D01*
X98728668Y-94437200D01*
X98761965Y-94417019D01*
X98770072Y-94402601D01*
X98761453Y-94368321D01*
X98727275Y-94305307D01*
X98673812Y-94224413D01*
X98641582Y-94180351D01*
X98472049Y-93927037D01*
X98330951Y-93651675D01*
X98216761Y-93349439D01*
X98127950Y-93015506D01*
X98062990Y-92645050D01*
X98020353Y-92233246D01*
X98019008Y-92214700D01*
X98006050Y-92022944D01*
X97998011Y-91876641D01*
X97994888Y-91770683D01*
X97996676Y-91699959D01*
X98003372Y-91659362D01*
X98014972Y-91643784D01*
X98018600Y-91643200D01*
X98036324Y-91665299D01*
X98043992Y-91718667D01*
X98044000Y-91720641D01*
X98050878Y-91772322D01*
X98079897Y-91808290D01*
X98143632Y-91843275D01*
X98151950Y-91847084D01*
X98241699Y-91878165D01*
X98332759Y-91895432D01*
X98355150Y-91896642D01*
X98450400Y-91897200D01*
X98450400Y-90703400D01*
X98044000Y-90703400D01*
X98044000Y-91465400D01*
X97434400Y-91465400D01*
X97434400Y-90703400D01*
X97053400Y-90703400D01*
X97053400Y-91465400D01*
X96443800Y-91465400D01*
X96443800Y-90703400D01*
X97053400Y-90703400D01*
X97434400Y-90703400D01*
X98044000Y-90703400D01*
X98450400Y-90703400D01*
X98450400Y-90665300D01*
X98449915Y-90378114D01*
X98448494Y-90123654D01*
X98446192Y-89904701D01*
X98444189Y-89789000D01*
X98044000Y-89789000D01*
X98044000Y-90525600D01*
X97434400Y-90525600D01*
X97434400Y-89789000D01*
X97053400Y-89789000D01*
X97053400Y-90525600D01*
X96443800Y-90525600D01*
X96443800Y-89789000D01*
X97053400Y-89789000D01*
X97434400Y-89789000D01*
X98044000Y-89789000D01*
X98444189Y-89789000D01*
X98443064Y-89724037D01*
X98439163Y-89584444D01*
X98434543Y-89488702D01*
X98429259Y-89439596D01*
X98426408Y-89433400D01*
X98393656Y-89443341D01*
X98327195Y-89469834D01*
X98239319Y-89507886D01*
X98205268Y-89523242D01*
X98102029Y-89568190D01*
X98023216Y-89594333D01*
X97948005Y-89605954D01*
X97855571Y-89607335D01*
X97803811Y-89605792D01*
X97599500Y-89598500D01*
X97545914Y-89223180D01*
X97526045Y-89090494D01*
X97507161Y-88976079D01*
X97490929Y-88889196D01*
X97479012Y-88839107D01*
X97475415Y-88830947D01*
X97444919Y-88828634D01*
X97376554Y-88835613D01*
G36*
X90198833Y-88825281D02*
G01*
X90128989Y-88829288D01*
X90032468Y-88838017D01*
X89920946Y-88850017D01*
X89806103Y-88863839D01*
X89699616Y-88878032D01*
X89613163Y-88891149D01*
X89558424Y-88901739D01*
X89545568Y-88906366D01*
X89548519Y-88933724D01*
X89581525Y-88974145D01*
X89630616Y-89015344D01*
X89681822Y-89045038D01*
X89711646Y-89052399D01*
X89731415Y-89054631D01*
X89745407Y-89066306D01*
X89754620Y-89094896D01*
X89760049Y-89147871D01*
X89762689Y-89232701D01*
X89763537Y-89356857D01*
X89763600Y-89442148D01*
X89764798Y-89606819D01*
X89768072Y-89780942D01*
X89772951Y-89945602D01*
X89778959Y-90081889D01*
X89780160Y-90102548D01*
X89796720Y-90373200D01*
X88116863Y-90373200D01*
X87978138Y-90219904D01*
X87839414Y-90066609D01*
X87581490Y-90287302D01*
X87487062Y-90370602D01*
X87409502Y-90443822D01*
X87355714Y-90500074D01*
X87332599Y-90532472D01*
X87332354Y-90535847D01*
X87359931Y-90558914D01*
X87420229Y-90586341D01*
X87460172Y-90599928D01*
X87579200Y-90636156D01*
X87579365Y-90765028D01*
X87581364Y-90869972D01*
X87586775Y-91015762D01*
X87595034Y-91192598D01*
X87605573Y-91390681D01*
X87617827Y-91600212D01*
X87631229Y-91811393D01*
X87645214Y-92014425D01*
X87659215Y-92199509D01*
X87668973Y-92315997D01*
X87705387Y-92683535D01*
X87745842Y-93004500D01*
X87791060Y-93283008D01*
X87841766Y-93523178D01*
X87898683Y-93729126D01*
X87936597Y-93839270D01*
X88028444Y-94015472D01*
X88158401Y-94160846D01*
X88322003Y-94272277D01*
X88514784Y-94346650D01*
X88710933Y-94379433D01*
X88900000Y-94393732D01*
X88900095Y-94294816D01*
X88910807Y-94197241D01*
X88946013Y-94115558D01*
X89010630Y-94046194D01*
X89109575Y-93985578D01*
X89247764Y-93930137D01*
X89430113Y-93876299D01*
X89500961Y-93858240D01*
X89620628Y-93827190D01*
X89698541Y-93802614D01*
X89742767Y-93781045D01*
X89761369Y-93759018D01*
X89763600Y-93745369D01*
X89757037Y-93716049D01*
X89728552Y-93705849D01*
X89664951Y-93710678D01*
X89655650Y-93711897D01*
X89535664Y-93725657D01*
X89384568Y-93739691D01*
X89217872Y-93752887D01*
X89051087Y-93764132D01*
X88899721Y-93772313D01*
X88779285Y-93776318D01*
X88754834Y-93776537D01*
X88655700Y-93774724D01*
X88590265Y-93765748D01*
X88541486Y-93744825D01*
X88492319Y-93707173D01*
X88485044Y-93700830D01*
X88429280Y-93634096D01*
X88377944Y-93534647D01*
X88330765Y-93400660D01*
X88287473Y-93230312D01*
X88247800Y-93021781D01*
X88211476Y-92773246D01*
X88178231Y-92482883D01*
X88147796Y-92148871D01*
X88119901Y-91769387D01*
X88094278Y-91342609D01*
X88072768Y-90912950D01*
X88056089Y-90551000D01*
X89814400Y-90551000D01*
X89814400Y-90624869D01*
X89819879Y-90726392D01*
X89835023Y-90865216D01*
X89857898Y-91029185D01*
X89886569Y-91206143D01*
X89919100Y-91383933D01*
X89953556Y-91550400D01*
X89978909Y-91658174D01*
X90099513Y-92060366D01*
X90251577Y-92426709D01*
X90438884Y-92763951D01*
X90665217Y-93078841D01*
X90934357Y-93378126D01*
X90953837Y-93397611D01*
X91074011Y-93513014D01*
X91202549Y-93629638D01*
X91326559Y-93736203D01*
X91433147Y-93821430D01*
X91465400Y-93845164D01*
X91602623Y-93938345D01*
X91762468Y-94039753D01*
X91932036Y-94141809D01*
X92098425Y-94236935D01*
X92248736Y-94317552D01*
X92366458Y-94374493D01*
X92445066Y-94407117D01*
X92491770Y-94418582D01*
X92519989Y-94410674D01*
X92534123Y-94396783D01*
X92548381Y-94378412D01*
X92552411Y-94361806D01*
X92540490Y-94341600D01*
X92506895Y-94312428D01*
X92445901Y-94268927D01*
X92351785Y-94205730D01*
X92278200Y-94156899D01*
X91887770Y-93872554D01*
X91543469Y-93567758D01*
X91244447Y-93241379D01*
X90989848Y-92892284D01*
X90778821Y-92519339D01*
X90610511Y-92121412D01*
X90513997Y-91814012D01*
X90462596Y-91601597D01*
X90414461Y-91360049D01*
X90373354Y-91111029D01*
X90343036Y-90876204D01*
X90333288Y-90773250D01*
X90315415Y-90551000D01*
X92222431Y-90551000D01*
X92250316Y-90471009D01*
X92269286Y-90414197D01*
X92278119Y-90383027D01*
X92278200Y-90382109D01*
X92253710Y-90380139D01*
X92183873Y-90378320D01*
X92074143Y-90376701D01*
X91929976Y-90375332D01*
X91756824Y-90374261D01*
X91560142Y-90373539D01*
X91345382Y-90373213D01*
X91290725Y-90373199D01*
X90303249Y-90373199D01*
X90265765Y-88823799D01*
X90198833Y-88825281D01*
G37*
X90198833Y-88825281D02*
X90128989Y-88829288D01*
X90032468Y-88838017D01*
X89920946Y-88850017D01*
X89806103Y-88863839D01*
X89699616Y-88878032D01*
X89613163Y-88891149D01*
X89558424Y-88901739D01*
X89545568Y-88906366D01*
X89548519Y-88933724D01*
X89581525Y-88974145D01*
X89630616Y-89015344D01*
X89681822Y-89045038D01*
X89711646Y-89052399D01*
X89731415Y-89054631D01*
X89745407Y-89066306D01*
X89754620Y-89094896D01*
X89760049Y-89147871D01*
X89762689Y-89232701D01*
X89763537Y-89356857D01*
X89763600Y-89442148D01*
X89764798Y-89606819D01*
X89768072Y-89780942D01*
X89772951Y-89945602D01*
X89778959Y-90081889D01*
X89780160Y-90102548D01*
X89796720Y-90373200D01*
X88116863Y-90373200D01*
X87978138Y-90219904D01*
X87839414Y-90066609D01*
X87581490Y-90287302D01*
X87487062Y-90370602D01*
X87409502Y-90443822D01*
X87355714Y-90500074D01*
X87332599Y-90532472D01*
X87332354Y-90535847D01*
X87359931Y-90558914D01*
X87420229Y-90586341D01*
X87460172Y-90599928D01*
X87579200Y-90636156D01*
X87579365Y-90765028D01*
X87581364Y-90869972D01*
X87586775Y-91015762D01*
X87595034Y-91192598D01*
X87605573Y-91390681D01*
X87617827Y-91600212D01*
X87631229Y-91811393D01*
X87645214Y-92014425D01*
X87659215Y-92199509D01*
X87668973Y-92315997D01*
X87705387Y-92683535D01*
X87745842Y-93004500D01*
X87791060Y-93283008D01*
X87841766Y-93523178D01*
X87898683Y-93729126D01*
X87936597Y-93839270D01*
X88028444Y-94015472D01*
X88158401Y-94160846D01*
X88322003Y-94272277D01*
X88514784Y-94346650D01*
X88710933Y-94379433D01*
X88900000Y-94393732D01*
X88900095Y-94294816D01*
X88910807Y-94197241D01*
X88946013Y-94115558D01*
X89010630Y-94046194D01*
X89109575Y-93985578D01*
X89247764Y-93930137D01*
X89430113Y-93876299D01*
X89500961Y-93858240D01*
X89620628Y-93827190D01*
X89698541Y-93802614D01*
X89742767Y-93781045D01*
X89761369Y-93759018D01*
X89763600Y-93745369D01*
X89757037Y-93716049D01*
X89728552Y-93705849D01*
X89664951Y-93710678D01*
X89655650Y-93711897D01*
X89535664Y-93725657D01*
X89384568Y-93739691D01*
X89217872Y-93752887D01*
X89051087Y-93764132D01*
X88899721Y-93772313D01*
X88779285Y-93776318D01*
X88754834Y-93776537D01*
X88655700Y-93774724D01*
X88590265Y-93765748D01*
X88541486Y-93744825D01*
X88492319Y-93707173D01*
X88485044Y-93700830D01*
X88429280Y-93634096D01*
X88377944Y-93534647D01*
X88330765Y-93400660D01*
X88287473Y-93230312D01*
X88247800Y-93021781D01*
X88211476Y-92773246D01*
X88178231Y-92482883D01*
X88147796Y-92148871D01*
X88119901Y-91769387D01*
X88094278Y-91342609D01*
X88072768Y-90912950D01*
X88056089Y-90551000D01*
X89814400Y-90551000D01*
X89814400Y-90624869D01*
X89819879Y-90726392D01*
X89835023Y-90865216D01*
X89857898Y-91029185D01*
X89886569Y-91206143D01*
X89919100Y-91383933D01*
X89953556Y-91550400D01*
X89978909Y-91658174D01*
X90099513Y-92060366D01*
X90251577Y-92426709D01*
X90438884Y-92763951D01*
X90665217Y-93078841D01*
X90934357Y-93378126D01*
X90953837Y-93397611D01*
X91074011Y-93513014D01*
X91202549Y-93629638D01*
X91326559Y-93736203D01*
X91433147Y-93821430D01*
X91465400Y-93845164D01*
X91602623Y-93938345D01*
X91762468Y-94039753D01*
X91932036Y-94141809D01*
X92098425Y-94236935D01*
X92248736Y-94317552D01*
X92366458Y-94374493D01*
X92445066Y-94407117D01*
X92491770Y-94418582D01*
X92519989Y-94410674D01*
X92534123Y-94396783D01*
X92548381Y-94378412D01*
X92552411Y-94361806D01*
X92540490Y-94341600D01*
X92506895Y-94312428D01*
X92445901Y-94268927D01*
X92351785Y-94205730D01*
X92278200Y-94156899D01*
X91887770Y-93872554D01*
X91543469Y-93567758D01*
X91244447Y-93241379D01*
X90989848Y-92892284D01*
X90778821Y-92519339D01*
X90610511Y-92121412D01*
X90513997Y-91814012D01*
X90462596Y-91601597D01*
X90414461Y-91360049D01*
X90373354Y-91111029D01*
X90343036Y-90876204D01*
X90333288Y-90773250D01*
X90315415Y-90551000D01*
X92222431Y-90551000D01*
X92250316Y-90471009D01*
X92269286Y-90414197D01*
X92278119Y-90383027D01*
X92278200Y-90382109D01*
X92253710Y-90380139D01*
X92183873Y-90378320D01*
X92074143Y-90376701D01*
X91929976Y-90375332D01*
X91756824Y-90374261D01*
X91560142Y-90373539D01*
X91345382Y-90373213D01*
X91290725Y-90373199D01*
X90303249Y-90373199D01*
X90265765Y-88823799D01*
X90198833Y-88825281D01*
G36*
X94735650Y-88875553D02*
G01*
X94665465Y-88879782D01*
X94569820Y-88889515D01*
X94461054Y-88902994D01*
X94351504Y-88918460D01*
X94253509Y-88934155D01*
X94179408Y-88948320D01*
X94141537Y-88959196D01*
X94139679Y-88960499D01*
X94142283Y-88987967D01*
X94175822Y-89027468D01*
X94226280Y-89067370D01*
X94279641Y-89096041D01*
X94311617Y-89103200D01*
X94330608Y-89105993D01*
X94343992Y-89119394D01*
X94352743Y-89150935D01*
X94357840Y-89208150D01*
X94360257Y-89298569D01*
X94360972Y-89429726D01*
X94361000Y-89484200D01*
X94361000Y-89865200D01*
X94189289Y-89865199D01*
X94017578Y-89865199D01*
X93882139Y-89687605D01*
X93828022Y-89615427D01*
X93787191Y-89566364D01*
X93751339Y-89541717D01*
X93712157Y-89542788D01*
X93661339Y-89570876D01*
X93590577Y-89627284D01*
X93491563Y-89713311D01*
X93441916Y-89756541D01*
X93359215Y-89831061D01*
X93293386Y-89895754D01*
X93252627Y-89942238D01*
X93243400Y-89959525D01*
X93251502Y-89986455D01*
X93279385Y-90007152D01*
X93332420Y-90022353D01*
X93415975Y-90032797D01*
X93535420Y-90039219D01*
X93696124Y-90042357D01*
X93851331Y-90043000D01*
X94361000Y-90043000D01*
X94361000Y-90906600D01*
X94138750Y-90906426D01*
X94031911Y-90905716D01*
X93963404Y-90901331D01*
X93920762Y-90889588D01*
X93891518Y-90866801D01*
X93863205Y-90829286D01*
X93859456Y-90823876D01*
X93806751Y-90752531D01*
X93742136Y-90671188D01*
X93718760Y-90643204D01*
X93635109Y-90544909D01*
X93390108Y-90750905D01*
X93295744Y-90831104D01*
X93215810Y-90900655D01*
X93158292Y-90952492D01*
X93131178Y-90979554D01*
X93130520Y-90980503D01*
X93134564Y-91014677D01*
X93156081Y-91044252D01*
X93177220Y-91058418D01*
X93212864Y-91068904D01*
X93269888Y-91076225D01*
X93355170Y-91080898D01*
X93475583Y-91083438D01*
X93638005Y-91084361D01*
X93691426Y-91084400D01*
X94186624Y-91084400D01*
X94168998Y-91141550D01*
X94136300Y-91218126D01*
X94079179Y-91322853D01*
X94004849Y-91444135D01*
X93920522Y-91570374D01*
X93833410Y-91689975D01*
X93806252Y-91724791D01*
X93581204Y-91970443D01*
X93320165Y-92189652D01*
X93211650Y-92265292D01*
X93138469Y-92317620D01*
X93086068Y-92362865D01*
X93065607Y-92391371D01*
X93065601Y-92391668D01*
X93082698Y-92428093D01*
X93124417Y-92476889D01*
X93129959Y-92482206D01*
X93175357Y-92544794D01*
X93220920Y-92641821D01*
X93248405Y-92720738D01*
X93302492Y-92898807D01*
X93453055Y-92734553D01*
X93620349Y-92539674D01*
X93766770Y-92340474D01*
X93896602Y-92128759D01*
X94014127Y-91896331D01*
X94123631Y-91634996D01*
X94229396Y-91336557D01*
X94298970Y-91116150D01*
X94324613Y-91086585D01*
X94334803Y-91084400D01*
X94341901Y-91108582D01*
X94347867Y-91181375D01*
X94352708Y-91303148D01*
X94356433Y-91474271D01*
X94359050Y-91695113D01*
X94360568Y-91966044D01*
X94361000Y-92250534D01*
X94361000Y-93416668D01*
X94470620Y-93469734D01*
X94563077Y-93503050D01*
X94660187Y-93521497D01*
X94686182Y-93522800D01*
X94792125Y-93522800D01*
X94798813Y-92668620D01*
X94805500Y-91814440D01*
X94936394Y-92014570D01*
X95020395Y-92135004D01*
X95118970Y-92263806D01*
X95223024Y-92390203D01*
X95323463Y-92503420D01*
X95411194Y-92592682D01*
X95460193Y-92635158D01*
X95530685Y-92689297D01*
X95429494Y-92787500D01*
X95359706Y-92865186D01*
X95297847Y-92950478D01*
X95276451Y-92987339D01*
X95234260Y-93104505D01*
X95225281Y-93215217D01*
X95245580Y-93311759D01*
X95291225Y-93386415D01*
X95358285Y-93431469D01*
X95442826Y-93439205D01*
X95498684Y-93423402D01*
X95543154Y-93398832D01*
X95571572Y-93361209D01*
X95592391Y-93295925D01*
X95603941Y-93241535D01*
X95623004Y-93162151D01*
X95642692Y-93107605D01*
X95656321Y-93091000D01*
X95686711Y-93100714D01*
X95754416Y-93127376D01*
X95850346Y-93167258D01*
X95965413Y-93216636D01*
X96004293Y-93233615D01*
X96166916Y-93308906D01*
X96290434Y-93374698D01*
X96371004Y-93428853D01*
X96393000Y-93449744D01*
X96436813Y-93496850D01*
X96465865Y-93521521D01*
X96469200Y-93522613D01*
X96485481Y-93501277D01*
X96519215Y-93444275D01*
X96564869Y-93361242D01*
X96599340Y-93295907D01*
X96654938Y-93186357D01*
X96684620Y-93113888D01*
X96686366Y-93070753D01*
X96658158Y-93049205D01*
X96597977Y-93041497D01*
X96532700Y-93040157D01*
X96467998Y-93033706D01*
X96427000Y-93020652D01*
X96403273Y-92980195D01*
X96379710Y-92889394D01*
X96356392Y-92748702D01*
X96333395Y-92558576D01*
X96316049Y-92379800D01*
X96304160Y-92250290D01*
X96292719Y-92132365D01*
X96283027Y-92039034D01*
X96276385Y-91983306D01*
X96276384Y-91983303D01*
X96265032Y-91904307D01*
X95992466Y-91952634D01*
X95851425Y-91977836D01*
X95754509Y-91996837D01*
X95695863Y-92012526D01*
X95669632Y-92027793D01*
X95669962Y-92045525D01*
X95690997Y-92068614D01*
X95714967Y-92089561D01*
X95774394Y-92130734D01*
X95826589Y-92150814D01*
X95832166Y-92151200D01*
X95872222Y-92173397D01*
X95911830Y-92242139D01*
X95923814Y-92271850D01*
X95952158Y-92342352D01*
X95995612Y-92445318D01*
X96048276Y-92566959D01*
X96104248Y-92693487D01*
X96104664Y-92694417D01*
X96239801Y-92996334D01*
X96045822Y-92978756D01*
X95941147Y-92968256D01*
X95847496Y-92957099D01*
X95783895Y-92947568D01*
X95780595Y-92946928D01*
X95709345Y-92932678D01*
X95775030Y-92802289D01*
X95821359Y-92715356D01*
X95867825Y-92635990D01*
X95890062Y-92601945D01*
X95920398Y-92552664D01*
X95919421Y-92527753D01*
X95901967Y-92517622D01*
X95858002Y-92519753D01*
X95791150Y-92541973D01*
X95761475Y-92555827D01*
X95694992Y-92587526D01*
X95647326Y-92606246D01*
X95637066Y-92608400D01*
X95611965Y-92587007D01*
X95569815Y-92528715D01*
X95515698Y-92442348D01*
X95454694Y-92336732D01*
X95391887Y-92220693D01*
X95332358Y-92103057D01*
X95281189Y-91992648D01*
X95277142Y-91983309D01*
X95219859Y-91842295D01*
X95161190Y-91684241D01*
X95105709Y-91522807D01*
X95057988Y-91371654D01*
X95022601Y-91244444D01*
X95008114Y-91179650D01*
X94990347Y-91084399D01*
X95396611Y-91084400D01*
X95548504Y-91084169D01*
X95657211Y-91082790D01*
X95730346Y-91079229D01*
X95775523Y-91072456D01*
X95800357Y-91061436D01*
X95812461Y-91045140D01*
X95818191Y-91027250D01*
X95828493Y-90987229D01*
X95831012Y-90957203D01*
X95819746Y-90935738D01*
X95788692Y-90921398D01*
X95731849Y-90912749D01*
X95643214Y-90908356D01*
X95516784Y-90906783D01*
X95346559Y-90906597D01*
X95313500Y-90906600D01*
X94792800Y-90906600D01*
X94792800Y-90043000D01*
X95702231Y-90043000D01*
X95730116Y-89963009D01*
X95749086Y-89906197D01*
X95757919Y-89875027D01*
X95758000Y-89874109D01*
X95733901Y-89871335D01*
X95666803Y-89868913D01*
X95564509Y-89866987D01*
X95434818Y-89865702D01*
X95285534Y-89865201D01*
X95275400Y-89865200D01*
X94792800Y-89865200D01*
X94792800Y-88874600D01*
X94735650Y-88875553D01*
G37*
X94735650Y-88875553D02*
X94665465Y-88879782D01*
X94569820Y-88889515D01*
X94461054Y-88902994D01*
X94351504Y-88918460D01*
X94253509Y-88934155D01*
X94179408Y-88948320D01*
X94141537Y-88959196D01*
X94139679Y-88960499D01*
X94142283Y-88987967D01*
X94175822Y-89027468D01*
X94226280Y-89067370D01*
X94279641Y-89096041D01*
X94311617Y-89103200D01*
X94330608Y-89105993D01*
X94343992Y-89119394D01*
X94352743Y-89150935D01*
X94357840Y-89208150D01*
X94360257Y-89298569D01*
X94360972Y-89429726D01*
X94361000Y-89484200D01*
X94361000Y-89865200D01*
X94189289Y-89865199D01*
X94017578Y-89865199D01*
X93882139Y-89687605D01*
X93828022Y-89615427D01*
X93787191Y-89566364D01*
X93751339Y-89541717D01*
X93712157Y-89542788D01*
X93661339Y-89570876D01*
X93590577Y-89627284D01*
X93491563Y-89713311D01*
X93441916Y-89756541D01*
X93359215Y-89831061D01*
X93293386Y-89895754D01*
X93252627Y-89942238D01*
X93243400Y-89959525D01*
X93251502Y-89986455D01*
X93279385Y-90007152D01*
X93332420Y-90022353D01*
X93415975Y-90032797D01*
X93535420Y-90039219D01*
X93696124Y-90042357D01*
X93851331Y-90043000D01*
X94361000Y-90043000D01*
X94361000Y-90906600D01*
X94138750Y-90906426D01*
X94031911Y-90905716D01*
X93963404Y-90901331D01*
X93920762Y-90889588D01*
X93891518Y-90866801D01*
X93863205Y-90829286D01*
X93859456Y-90823876D01*
X93806751Y-90752531D01*
X93742136Y-90671188D01*
X93718760Y-90643204D01*
X93635109Y-90544909D01*
X93390108Y-90750905D01*
X93295744Y-90831104D01*
X93215810Y-90900655D01*
X93158292Y-90952492D01*
X93131178Y-90979554D01*
X93130520Y-90980503D01*
X93134564Y-91014677D01*
X93156081Y-91044252D01*
X93177220Y-91058418D01*
X93212864Y-91068904D01*
X93269888Y-91076225D01*
X93355170Y-91080898D01*
X93475583Y-91083438D01*
X93638005Y-91084361D01*
X93691426Y-91084400D01*
X94186624Y-91084400D01*
X94168998Y-91141550D01*
X94136300Y-91218126D01*
X94079179Y-91322853D01*
X94004849Y-91444135D01*
X93920522Y-91570374D01*
X93833410Y-91689975D01*
X93806252Y-91724791D01*
X93581204Y-91970443D01*
X93320165Y-92189652D01*
X93211650Y-92265292D01*
X93138469Y-92317620D01*
X93086068Y-92362865D01*
X93065607Y-92391371D01*
X93065601Y-92391668D01*
X93082698Y-92428093D01*
X93124417Y-92476889D01*
X93129959Y-92482206D01*
X93175357Y-92544794D01*
X93220920Y-92641821D01*
X93248405Y-92720738D01*
X93302492Y-92898807D01*
X93453055Y-92734553D01*
X93620349Y-92539674D01*
X93766770Y-92340474D01*
X93896602Y-92128759D01*
X94014127Y-91896331D01*
X94123631Y-91634996D01*
X94229396Y-91336557D01*
X94298970Y-91116150D01*
X94324613Y-91086585D01*
X94334803Y-91084400D01*
X94341901Y-91108582D01*
X94347867Y-91181375D01*
X94352708Y-91303148D01*
X94356433Y-91474271D01*
X94359050Y-91695113D01*
X94360568Y-91966044D01*
X94361000Y-92250534D01*
X94361000Y-93416668D01*
X94470620Y-93469734D01*
X94563077Y-93503050D01*
X94660187Y-93521497D01*
X94686182Y-93522800D01*
X94792125Y-93522800D01*
X94798813Y-92668620D01*
X94805500Y-91814440D01*
X94936394Y-92014570D01*
X95020395Y-92135004D01*
X95118970Y-92263806D01*
X95223024Y-92390203D01*
X95323463Y-92503420D01*
X95411194Y-92592682D01*
X95460193Y-92635158D01*
X95530685Y-92689297D01*
X95429494Y-92787500D01*
X95359706Y-92865186D01*
X95297847Y-92950478D01*
X95276451Y-92987339D01*
X95234260Y-93104505D01*
X95225281Y-93215217D01*
X95245580Y-93311759D01*
X95291225Y-93386415D01*
X95358285Y-93431469D01*
X95442826Y-93439205D01*
X95498684Y-93423402D01*
X95543154Y-93398832D01*
X95571572Y-93361209D01*
X95592391Y-93295925D01*
X95603941Y-93241535D01*
X95623004Y-93162151D01*
X95642692Y-93107605D01*
X95656321Y-93091000D01*
X95686711Y-93100714D01*
X95754416Y-93127376D01*
X95850346Y-93167258D01*
X95965413Y-93216636D01*
X96004293Y-93233615D01*
X96166916Y-93308906D01*
X96290434Y-93374698D01*
X96371004Y-93428853D01*
X96393000Y-93449744D01*
X96436813Y-93496850D01*
X96465865Y-93521521D01*
X96469200Y-93522613D01*
X96485481Y-93501277D01*
X96519215Y-93444275D01*
X96564869Y-93361242D01*
X96599340Y-93295907D01*
X96654938Y-93186357D01*
X96684620Y-93113888D01*
X96686366Y-93070753D01*
X96658158Y-93049205D01*
X96597977Y-93041497D01*
X96532700Y-93040157D01*
X96467998Y-93033706D01*
X96427000Y-93020652D01*
X96403273Y-92980195D01*
X96379710Y-92889394D01*
X96356392Y-92748702D01*
X96333395Y-92558576D01*
X96316049Y-92379800D01*
X96304160Y-92250290D01*
X96292719Y-92132365D01*
X96283027Y-92039034D01*
X96276385Y-91983306D01*
X96276384Y-91983303D01*
X96265032Y-91904307D01*
X95992466Y-91952634D01*
X95851425Y-91977836D01*
X95754509Y-91996837D01*
X95695863Y-92012526D01*
X95669632Y-92027793D01*
X95669962Y-92045525D01*
X95690997Y-92068614D01*
X95714967Y-92089561D01*
X95774394Y-92130734D01*
X95826589Y-92150814D01*
X95832166Y-92151200D01*
X95872222Y-92173397D01*
X95911830Y-92242139D01*
X95923814Y-92271850D01*
X95952158Y-92342352D01*
X95995612Y-92445318D01*
X96048276Y-92566959D01*
X96104248Y-92693487D01*
X96104664Y-92694417D01*
X96239801Y-92996334D01*
X96045822Y-92978756D01*
X95941147Y-92968256D01*
X95847496Y-92957099D01*
X95783895Y-92947568D01*
X95780595Y-92946928D01*
X95709345Y-92932678D01*
X95775030Y-92802289D01*
X95821359Y-92715356D01*
X95867825Y-92635990D01*
X95890062Y-92601945D01*
X95920398Y-92552664D01*
X95919421Y-92527753D01*
X95901967Y-92517622D01*
X95858002Y-92519753D01*
X95791150Y-92541973D01*
X95761475Y-92555827D01*
X95694992Y-92587526D01*
X95647326Y-92606246D01*
X95637066Y-92608400D01*
X95611965Y-92587007D01*
X95569815Y-92528715D01*
X95515698Y-92442348D01*
X95454694Y-92336732D01*
X95391887Y-92220693D01*
X95332358Y-92103057D01*
X95281189Y-91992648D01*
X95277142Y-91983309D01*
X95219859Y-91842295D01*
X95161190Y-91684241D01*
X95105709Y-91522807D01*
X95057988Y-91371654D01*
X95022601Y-91244444D01*
X95008114Y-91179650D01*
X94990347Y-91084399D01*
X95396611Y-91084400D01*
X95548504Y-91084169D01*
X95657211Y-91082790D01*
X95730346Y-91079229D01*
X95775523Y-91072456D01*
X95800357Y-91061436D01*
X95812461Y-91045140D01*
X95818191Y-91027250D01*
X95828493Y-90987229D01*
X95831012Y-90957203D01*
X95819746Y-90935738D01*
X95788692Y-90921398D01*
X95731849Y-90912749D01*
X95643214Y-90908356D01*
X95516784Y-90906783D01*
X95346559Y-90906597D01*
X95313500Y-90906600D01*
X94792800Y-90906600D01*
X94792800Y-90043000D01*
X95702231Y-90043000D01*
X95730116Y-89963009D01*
X95749086Y-89906197D01*
X95757919Y-89875027D01*
X95758000Y-89874109D01*
X95733901Y-89871335D01*
X95666803Y-89868913D01*
X95564509Y-89866987D01*
X95434818Y-89865702D01*
X95285534Y-89865201D01*
X95275400Y-89865200D01*
X94792800Y-89865200D01*
X94792800Y-88874600D01*
X94735650Y-88875553D01*
D14*
%TO.C,RST2*%
X88318000Y-65077000D02*
X87828000Y-65567000D01*
X88318000Y-62177000D02*
X88318000Y-65077000D01*
X88318000Y-62177000D02*
X87828000Y-61687000D01*
X82878000Y-62177000D02*
X82878000Y-65077000D01*
X82878000Y-62177000D02*
X83368000Y-61687000D01*
X86638000Y-66347000D02*
X84558000Y-66347000D01*
X82878000Y-65077000D02*
X83368000Y-65567000D01*
X86638000Y-60907000D02*
X84558000Y-60907000D01*
D15*
%TO.C,PWM_PAD2*%
X112395000Y-61849000D02*
X111125000Y-61849000D01*
X112395000Y-54229000D02*
X111125000Y-54229000D01*
D16*
%TO.C,PWM_PAD1*%
X112014000Y-55245000D02*
X111506000Y-55245000D01*
X111506000Y-55245000D02*
X111506000Y-55753000D01*
X112014000Y-55753000D02*
X111506000Y-55753000D01*
X112014000Y-55245000D02*
X112014000Y-55753000D01*
X112014000Y-57785000D02*
X111506000Y-57785000D01*
X111506000Y-57785000D02*
X111506000Y-58293000D01*
X112014000Y-58293000D02*
X111506000Y-58293000D01*
X112014000Y-57785000D02*
X112014000Y-58293000D01*
X112014000Y-60325000D02*
X111506000Y-60325000D01*
X111506000Y-60325000D02*
X111506000Y-60833000D01*
X112014000Y-60833000D02*
X111506000Y-60833000D01*
X112014000Y-60325000D02*
X112014000Y-60833000D01*
D10*
%TO.C,J2*%
X82671000Y-42105000D02*
X88271000Y-42105000D01*
X88271000Y-44105000D02*
X88271000Y-42105000D01*
X82671000Y-44105000D02*
X82671000Y-42105000D01*
X88521000Y-44105000D02*
X88521000Y-56205000D01*
X82421000Y-44105000D02*
X82421000Y-56205000D01*
X82421000Y-56205000D02*
X88521000Y-56205000D01*
X82421000Y-44105000D02*
X88521000Y-44105000D01*
%TO.C,D8*%
X196545200Y-86842600D02*
X196545200Y-85318600D01*
X196037200Y-86842600D02*
X196037200Y-85318600D01*
X196672200Y-86842600D02*
X196672200Y-85318600D01*
X195910200Y-85318600D02*
X200990200Y-85318600D01*
X195910200Y-86842600D02*
X195910200Y-85318600D01*
X196418200Y-85318600D02*
X196418200Y-86842600D01*
X196164200Y-85318600D02*
X196164200Y-86842600D01*
X200990200Y-86842600D02*
X200482200Y-86842600D01*
X200990200Y-86842600D02*
X195910200Y-86842600D01*
X200990200Y-85318600D02*
X200990200Y-86842600D01*
X196291200Y-86842600D02*
X196291200Y-85318600D01*
%TO.C,D28*%
X111233245Y-93441640D02*
X112757245Y-93441640D01*
X111233245Y-92933640D02*
X112757245Y-92933640D01*
X111233245Y-93568640D02*
X112757245Y-93568640D01*
X112757245Y-92806640D02*
X112757245Y-97886640D01*
X111233245Y-92806640D02*
X112757245Y-92806640D01*
X112757245Y-93314640D02*
X111233245Y-93314640D01*
X112757245Y-93060640D02*
X111233245Y-93060640D01*
X111233245Y-97886640D02*
X111233245Y-97378640D01*
X111233245Y-97886640D02*
X111233245Y-92806640D01*
X112757245Y-97886640D02*
X111233245Y-97886640D01*
X111233245Y-93187640D02*
X112757245Y-93187640D01*
%TO.C,D27*%
X111141079Y-74587861D02*
X112665079Y-74587861D01*
X111141079Y-74079861D02*
X112665079Y-74079861D01*
X111141079Y-74714861D02*
X112665079Y-74714861D01*
X112665079Y-73952861D02*
X112665079Y-79032861D01*
X111141079Y-73952861D02*
X112665079Y-73952861D01*
X112665079Y-74460861D02*
X111141079Y-74460861D01*
X112665079Y-74206861D02*
X111141079Y-74206861D01*
X111141079Y-79032861D02*
X111141079Y-78524861D01*
X111141079Y-79032861D02*
X111141079Y-73952861D01*
X112665079Y-79032861D02*
X111141079Y-79032861D01*
X111141079Y-74333861D02*
X112665079Y-74333861D01*
%TO.C,D26*%
X120116600Y-61899800D02*
X120116600Y-60375800D01*
X119608600Y-61899800D02*
X119608600Y-60375800D01*
X120243600Y-61899800D02*
X120243600Y-60375800D01*
X119481600Y-60375800D02*
X124561600Y-60375800D01*
X119481600Y-61899800D02*
X119481600Y-60375800D01*
X119989600Y-60375800D02*
X119989600Y-61899800D01*
X119735600Y-60375800D02*
X119735600Y-61899800D01*
X124561600Y-61899800D02*
X124053600Y-61899800D01*
X124561600Y-61899800D02*
X119481600Y-61899800D01*
X124561600Y-60375800D02*
X124561600Y-61899800D01*
X119862600Y-61899800D02*
X119862600Y-60375800D01*
%TO.C,D24*%
X130245609Y-92033162D02*
X131769609Y-92033162D01*
X130245609Y-91525162D02*
X131769609Y-91525162D01*
X130245609Y-92160162D02*
X131769609Y-92160162D01*
X131769609Y-91398162D02*
X131769609Y-96478162D01*
X130245609Y-91398162D02*
X131769609Y-91398162D01*
X131769609Y-91906162D02*
X130245609Y-91906162D01*
X131769609Y-91652162D02*
X130245609Y-91652162D01*
X130245609Y-96478162D02*
X130245609Y-95970162D01*
X130245609Y-96478162D02*
X130245609Y-91398162D01*
X131769609Y-96478162D02*
X130245609Y-96478162D01*
X130245609Y-91779162D02*
X131769609Y-91779162D01*
%TO.C,D23*%
X130407349Y-72956240D02*
X131931349Y-72956240D01*
X130407349Y-72448240D02*
X131931349Y-72448240D01*
X130407349Y-73083240D02*
X131931349Y-73083240D01*
X131931349Y-72321240D02*
X131931349Y-77401240D01*
X130407349Y-72321240D02*
X131931349Y-72321240D01*
X131931349Y-72829240D02*
X130407349Y-72829240D01*
X131931349Y-72575240D02*
X130407349Y-72575240D01*
X130407349Y-77401240D02*
X130407349Y-76893240D01*
X130407349Y-77401240D02*
X130407349Y-72321240D01*
X131931349Y-77401240D02*
X130407349Y-77401240D01*
X130407349Y-72702240D02*
X131931349Y-72702240D01*
%TO.C,D22*%
X130255392Y-53601155D02*
X131779392Y-53601155D01*
X130255392Y-53093155D02*
X131779392Y-53093155D01*
X130255392Y-53728155D02*
X131779392Y-53728155D01*
X131779392Y-52966155D02*
X131779392Y-58046155D01*
X130255392Y-52966155D02*
X131779392Y-52966155D01*
X131779392Y-53474155D02*
X130255392Y-53474155D01*
X131779392Y-53220155D02*
X130255392Y-53220155D01*
X130255392Y-58046155D02*
X130255392Y-57538155D01*
X130255392Y-58046155D02*
X130255392Y-52966155D01*
X131779392Y-58046155D02*
X130255392Y-58046155D01*
X130255392Y-53347155D02*
X131779392Y-53347155D01*
%TO.C,D20*%
X90881914Y-136814913D02*
X89954162Y-135605843D01*
X90781158Y-136892226D02*
X89853406Y-135683155D01*
X89752650Y-135760468D02*
X90680402Y-136969538D01*
X90378135Y-137201477D02*
X89450382Y-135992406D01*
X89551138Y-135915093D02*
X90478890Y-137124164D01*
X90579646Y-137046851D02*
X89651894Y-135837781D01*
X94307614Y-134186281D02*
X93904590Y-134495532D01*
X93379861Y-132977211D02*
X94307614Y-134186281D01*
X89349626Y-136069719D02*
X93379861Y-132977211D01*
X90277379Y-137278789D02*
X89349626Y-136069719D01*
X94307614Y-134186281D02*
X90277379Y-137278789D01*
%TO.C,D19*%
X149430403Y-86160988D02*
X150954403Y-86160988D01*
X149430403Y-85652988D02*
X150954403Y-85652988D01*
X149430403Y-86287988D02*
X150954403Y-86287988D01*
X150954403Y-85525988D02*
X150954403Y-90605988D01*
X149430403Y-85525988D02*
X150954403Y-85525988D01*
X150954403Y-86033988D02*
X149430403Y-86033988D01*
X150954403Y-85779988D02*
X149430403Y-85779988D01*
X149430403Y-90605988D02*
X149430403Y-90097988D01*
X149430403Y-90605988D02*
X149430403Y-85525988D01*
X150954403Y-90605988D02*
X149430403Y-90605988D01*
X149430403Y-85906988D02*
X150954403Y-85906988D01*
%TO.C,D18*%
X157492700Y-73342500D02*
X157492700Y-71818500D01*
X156984700Y-73342500D02*
X156984700Y-71818500D01*
X157619700Y-73342500D02*
X157619700Y-71818500D01*
X156857700Y-71818500D02*
X161937700Y-71818500D01*
X156857700Y-73342500D02*
X156857700Y-71818500D01*
X157365700Y-71818500D02*
X157365700Y-73342500D01*
X157111700Y-71818500D02*
X157111700Y-73342500D01*
X161937700Y-73342500D02*
X161429700Y-73342500D01*
X161937700Y-73342500D02*
X156857700Y-73342500D01*
X161937700Y-71818500D02*
X161937700Y-73342500D01*
X157238700Y-73342500D02*
X157238700Y-71818500D01*
%TO.C,D17*%
X158432500Y-53943250D02*
X158432500Y-52419250D01*
X157924500Y-53943250D02*
X157924500Y-52419250D01*
X158559500Y-53943250D02*
X158559500Y-52419250D01*
X157797500Y-52419250D02*
X162877500Y-52419250D01*
X157797500Y-53943250D02*
X157797500Y-52419250D01*
X158305500Y-52419250D02*
X158305500Y-53943250D01*
X158051500Y-52419250D02*
X158051500Y-53943250D01*
X162877500Y-53943250D02*
X162369500Y-53943250D01*
X162877500Y-53943250D02*
X157797500Y-53943250D01*
X162877500Y-52419250D02*
X162877500Y-53943250D01*
X158178500Y-53943250D02*
X158178500Y-52419250D01*
%TO.C,D15*%
X106896840Y-126791022D02*
X106252770Y-125409809D01*
X106781739Y-126844694D02*
X106137669Y-125463481D01*
X106022567Y-125517154D02*
X106666638Y-126898367D01*
X106321334Y-127059384D02*
X105677264Y-125678171D01*
X105792365Y-125624499D02*
X106436436Y-127005712D01*
X106551537Y-126952039D02*
X105907466Y-125570826D01*
X110810277Y-124966156D02*
X110349873Y-125180846D01*
X110166207Y-123584943D02*
X110810277Y-124966156D01*
X105562163Y-125731844D02*
X110166207Y-123584943D01*
X106206233Y-127113057D02*
X105562163Y-125731844D01*
X110810277Y-124966156D02*
X106206233Y-127113057D01*
%TO.C,D14*%
X168354409Y-89626959D02*
X169878409Y-89626959D01*
X168354409Y-89118959D02*
X169878409Y-89118959D01*
X168354409Y-89753959D02*
X169878409Y-89753959D01*
X169878409Y-88991959D02*
X169878409Y-94071959D01*
X168354409Y-88991959D02*
X169878409Y-88991959D01*
X169878409Y-89499959D02*
X168354409Y-89499959D01*
X169878409Y-89245959D02*
X168354409Y-89245959D01*
X168354409Y-94071959D02*
X168354409Y-93563959D01*
X168354409Y-94071959D02*
X168354409Y-88991959D01*
X169878409Y-94071959D02*
X168354409Y-94071959D01*
X168354409Y-89372959D02*
X169878409Y-89372959D01*
%TO.C,D13*%
X168383564Y-70320398D02*
X169907564Y-70320398D01*
X168383564Y-69812398D02*
X169907564Y-69812398D01*
X168383564Y-70447398D02*
X169907564Y-70447398D01*
X169907564Y-69685398D02*
X169907564Y-74765398D01*
X168383564Y-69685398D02*
X169907564Y-69685398D01*
X169907564Y-70193398D02*
X168383564Y-70193398D01*
X169907564Y-69939398D02*
X168383564Y-69939398D01*
X168383564Y-74765398D02*
X168383564Y-74257398D01*
X168383564Y-74765398D02*
X168383564Y-69685398D01*
X169907564Y-74765398D02*
X168383564Y-74765398D01*
X168383564Y-70066398D02*
X169907564Y-70066398D01*
%TO.C,D12*%
X177482500Y-57912000D02*
X177482500Y-56388000D01*
X176974500Y-57912000D02*
X176974500Y-56388000D01*
X177609500Y-57912000D02*
X177609500Y-56388000D01*
X176847500Y-56388000D02*
X181927500Y-56388000D01*
X176847500Y-57912000D02*
X176847500Y-56388000D01*
X177355500Y-56388000D02*
X177355500Y-57912000D01*
X177101500Y-56388000D02*
X177101500Y-57912000D01*
X181927500Y-57912000D02*
X181419500Y-57912000D01*
X181927500Y-57912000D02*
X176847500Y-57912000D01*
X181927500Y-56388000D02*
X181927500Y-57912000D01*
X177228500Y-57912000D02*
X177228500Y-56388000D01*
%TO.C,D10*%
X124811853Y-120582427D02*
X124481999Y-119094552D01*
X124687863Y-120609915D02*
X124358009Y-119122040D01*
X124234020Y-119149528D02*
X124563873Y-120637403D01*
X124191905Y-120719866D02*
X123862051Y-119231991D01*
X123986040Y-119204503D02*
X124315894Y-120692379D01*
X124439884Y-120664891D02*
X124110030Y-119177016D01*
X129027499Y-119647841D02*
X128531540Y-119757792D01*
X128697645Y-118159966D02*
X129027499Y-119647841D01*
X123738061Y-119259479D02*
X128697645Y-118159966D01*
X124067915Y-120747354D02*
X123738061Y-119259479D01*
X129027499Y-119647841D02*
X124067915Y-120747354D01*
%TO.C,D9*%
X187111952Y-99311766D02*
X188635952Y-99311766D01*
X187111952Y-98803766D02*
X188635952Y-98803766D01*
X187111952Y-99438766D02*
X188635952Y-99438766D01*
X188635952Y-98676766D02*
X188635952Y-103756766D01*
X187111952Y-98676766D02*
X188635952Y-98676766D01*
X188635952Y-99184766D02*
X187111952Y-99184766D01*
X188635952Y-98930766D02*
X187111952Y-98930766D01*
X187111952Y-103756766D02*
X187111952Y-103248766D01*
X187111952Y-103756766D02*
X187111952Y-98676766D01*
X188635952Y-103756766D02*
X187111952Y-103756766D01*
X187111952Y-99057766D02*
X188635952Y-99057766D01*
%TO.C,D7*%
X187461421Y-59611973D02*
X188985421Y-59611973D01*
X187461421Y-59103973D02*
X188985421Y-59103973D01*
X187461421Y-59738973D02*
X188985421Y-59738973D01*
X188985421Y-58976973D02*
X188985421Y-64056973D01*
X187461421Y-58976973D02*
X188985421Y-58976973D01*
X188985421Y-59484973D02*
X187461421Y-59484973D01*
X188985421Y-59230973D02*
X187461421Y-59230973D01*
X187461421Y-64056973D02*
X187461421Y-63548973D01*
X187461421Y-64056973D02*
X187461421Y-58976973D01*
X188985421Y-64056973D02*
X187461421Y-64056973D01*
X187461421Y-59357973D02*
X188985421Y-59357973D01*
%TO.C,U1*%
X108534200Y-74434700D02*
X90754200Y-74434700D01*
X90754200Y-74434700D02*
X90754200Y-43954700D01*
X90754200Y-43954700D02*
X95834200Y-43954700D01*
X95834200Y-43954700D02*
X95834200Y-41414700D01*
X95834200Y-41414700D02*
X103454200Y-41414700D01*
X103454200Y-41414700D02*
X103454200Y-43954700D01*
X103454200Y-43954700D02*
X108534200Y-43954700D01*
X108534200Y-43954700D02*
X108534200Y-74434700D01*
%TD*%
%TO.C,RST2*%
X85914666Y-63010333D02*
X85581333Y-62777000D01*
X85914666Y-62610333D02*
X85214666Y-62610333D01*
X85214666Y-62877000D01*
X85248000Y-62943666D01*
X85281333Y-62977000D01*
X85348000Y-63010333D01*
X85448000Y-63010333D01*
X85514666Y-62977000D01*
X85548000Y-62943666D01*
X85581333Y-62877000D01*
X85581333Y-62610333D01*
X85881333Y-63277000D02*
X85914666Y-63377000D01*
X85914666Y-63543666D01*
X85881333Y-63610333D01*
X85848000Y-63643666D01*
X85781333Y-63677000D01*
X85714666Y-63677000D01*
X85648000Y-63643666D01*
X85614666Y-63610333D01*
X85581333Y-63543666D01*
X85548000Y-63410333D01*
X85514666Y-63343666D01*
X85481333Y-63310333D01*
X85414666Y-63277000D01*
X85348000Y-63277000D01*
X85281333Y-63310333D01*
X85248000Y-63343666D01*
X85214666Y-63410333D01*
X85214666Y-63577000D01*
X85248000Y-63677000D01*
X85214666Y-63877000D02*
X85214666Y-64277000D01*
X85914666Y-64077000D02*
X85214666Y-64077000D01*
X85281333Y-64477000D02*
X85248000Y-64510333D01*
X85214666Y-64577000D01*
X85214666Y-64743666D01*
X85248000Y-64810333D01*
X85281333Y-64843666D01*
X85348000Y-64877000D01*
X85414666Y-64877000D01*
X85514666Y-64843666D01*
X85914666Y-64443666D01*
X85914666Y-64877000D01*
%TO.C,D20*%
X93692036Y-135918982D02*
X93205027Y-135284299D01*
X93053912Y-135400253D01*
X92986434Y-135500049D01*
X92972370Y-135606877D01*
X92988529Y-135690514D01*
X93051070Y-135834597D01*
X93120642Y-135925266D01*
X93243629Y-136022967D01*
X93320234Y-136060222D01*
X93427061Y-136074286D01*
X93540921Y-136034936D01*
X93692036Y-135918982D01*
X92646949Y-135808563D02*
X92593535Y-135801531D01*
X92509898Y-135817690D01*
X92358784Y-135933644D01*
X92321528Y-136010249D01*
X92314496Y-136063663D01*
X92330655Y-136147300D01*
X92377037Y-136207746D01*
X92476833Y-136275224D01*
X93117800Y-136359609D01*
X92724901Y-136661091D01*
X91844993Y-136327890D02*
X91784547Y-136374272D01*
X91747292Y-136450877D01*
X91740260Y-136504290D01*
X91756419Y-136587927D01*
X91818959Y-136732010D01*
X91934914Y-136883125D01*
X92057900Y-136980826D01*
X92134505Y-137018081D01*
X92187919Y-137025113D01*
X92271556Y-137008954D01*
X92332002Y-136962573D01*
X92369257Y-136885968D01*
X92376289Y-136832554D01*
X92360130Y-136748917D01*
X92297590Y-136604834D01*
X92181635Y-136453719D01*
X92058648Y-136356018D01*
X91982044Y-136318763D01*
X91928630Y-136311731D01*
X91844993Y-136327890D01*
%TO.C,D15*%
X109834266Y-126524549D02*
X109496172Y-125799503D01*
X109323542Y-125880002D01*
X109236063Y-125962827D01*
X109199211Y-126064078D01*
X109196884Y-126149230D01*
X109226757Y-126303434D01*
X109275057Y-126407012D01*
X109373982Y-126529016D01*
X109440707Y-126581969D01*
X109541959Y-126618821D01*
X109661636Y-126605048D01*
X109834266Y-126524549D01*
X108729434Y-127039741D02*
X109143746Y-126846544D01*
X108936590Y-126943142D02*
X108598495Y-126218096D01*
X108715847Y-126289475D01*
X108817098Y-126326327D01*
X108902250Y-126328654D01*
X107735345Y-126620590D02*
X108080605Y-126459592D01*
X108276129Y-126788753D01*
X108225503Y-126770326D01*
X108140351Y-126768000D01*
X107967721Y-126848499D01*
X107914769Y-126915224D01*
X107896343Y-126965850D01*
X107894016Y-127051002D01*
X107974515Y-127223632D01*
X108041240Y-127276584D01*
X108091866Y-127295010D01*
X108177018Y-127297337D01*
X108349648Y-127216838D01*
X108402600Y-127150113D01*
X108421026Y-127099487D01*
%TO.C,D10*%
X127737325Y-120958047D02*
X127564173Y-120177010D01*
X127378212Y-120218237D01*
X127274881Y-120280165D01*
X127216987Y-120371040D01*
X127196285Y-120453670D01*
X127192074Y-120610684D01*
X127216810Y-120722261D01*
X127286984Y-120862784D01*
X127340667Y-120928924D01*
X127431542Y-120986817D01*
X127551364Y-120999274D01*
X127737325Y-120958047D01*
X126547174Y-121221897D02*
X126993480Y-121122953D01*
X126770327Y-121172425D02*
X126597175Y-120391389D01*
X126696296Y-120486475D01*
X126787171Y-120544368D01*
X126869801Y-120565070D01*
X125890523Y-120548050D02*
X125816138Y-120564540D01*
X125749999Y-120618223D01*
X125721052Y-120663661D01*
X125700351Y-120746290D01*
X125696140Y-120903305D01*
X125737366Y-121089266D01*
X125807540Y-121229789D01*
X125861223Y-121295929D01*
X125906660Y-121324875D01*
X125989290Y-121345577D01*
X126063675Y-121329086D01*
X126129814Y-121275404D01*
X126158761Y-121229966D01*
X126179462Y-121147336D01*
X126183673Y-120990322D01*
X126142447Y-120804361D01*
X126072273Y-120663837D01*
X126018590Y-120597698D01*
X125973153Y-120568751D01*
X125890523Y-120548050D01*
%TD*%
M02*
