M48
; DRILL file {KiCad (5.1.7)-1} date 04/25/21 19:22:10
; FORMAT={-:-/ absolute / metric / decimal}
; #@! TF.CreationDate,2021-04-25T19:22:10+05:30
; #@! TF.GenerationSoftware,Kicad,Pcbnew,(5.1.7)-1
; #@! TF.FileFunction,NonPlated,1,2,NPTH
FMAT,2
METRIC
T1C0.800
T2C1.200
T3C1.900
T4C3.400
%
G90
G05
T1
X85.471Y-45.705
X85.471Y-52.705
X85.471Y-45.669
X85.471Y-52.669
T2
X192.417Y-82.021
X202.762Y-82.021
X192.46Y-101.056
X202.805Y-101.056
X173.339Y-72.445
X183.684Y-72.445
X101.602Y-124.407
X110.978Y-120.035
X85.49Y-135.458
X93.697Y-129.16
X154.345Y-68.714
X164.69Y-68.714
X154.326Y-49.589
X164.671Y-49.589
X119.721Y-116.969
X129.821Y-114.73
X116.174Y-57.225
X126.519Y-57.225
X173.358Y-91.57
X183.703Y-91.57
X173.386Y-53.434
X183.731Y-53.434
X154.298Y-87.725
X164.643Y-87.725
X135.305Y-93.409
X145.65Y-93.409
X135.261Y-74.374
X145.606Y-74.374
X116.237Y-95.385
X126.582Y-95.385
X192.373Y-62.986
X202.718Y-62.986
X116.218Y-76.26
X126.563Y-76.26
X135.308Y-55.363
X145.653Y-55.363
T3
X135.025Y-89.209
X146.025Y-89.209
X134.981Y-70.174
X145.981Y-70.174
X115.957Y-91.185
X126.957Y-91.185
X192.093Y-58.786
X203.093Y-58.786
X115.938Y-72.06
X126.938Y-72.06
X135.028Y-51.163
X146.028Y-51.163
X192.137Y-77.821
X203.137Y-77.821
X192.18Y-96.856
X203.18Y-96.856
X173.059Y-68.245
X184.059Y-68.245
X99.573Y-120.719
X109.543Y-116.07
X82.711Y-132.296
X91.438Y-125.6
X154.065Y-64.514
X165.065Y-64.514
X154.046Y-45.389
X165.046Y-45.389
X118.539Y-112.929
X129.278Y-110.548
X115.894Y-53.025
X126.894Y-53.025
X173.078Y-87.37
X184.078Y-87.37
X173.106Y-49.234
X184.106Y-49.234
X154.018Y-83.525
X165.018Y-83.525
T4
X197.593Y-58.786
X121.438Y-72.06
X140.528Y-51.163
X197.637Y-77.821
X197.68Y-96.856
X178.559Y-68.245
X104.558Y-118.395
X87.074Y-128.948
X159.565Y-64.514
X159.546Y-45.389
X123.909Y-111.739
X121.394Y-53.025
X178.578Y-87.37
X178.606Y-49.234
X159.518Y-83.525
X140.525Y-89.209
X140.481Y-70.174
X121.457Y-91.185
T0
M30
