M48
; DRILL file {KiCad (5.1.7)-1} date 07/06/21 19:24:24
; FORMAT={-:-/ absolute / metric / decimal}
; #@! TF.CreationDate,2021-07-06T19:24:24+05:30
; #@! TF.GenerationSoftware,Kicad,Pcbnew,(5.1.7)-1
; #@! TF.FileFunction,NonPlated,1,2,NPTH
FMAT,2
METRIC
T1C0.800
T2C1.000
T3C1.700
T4C1.900
T5C4.000
%
G90
G05
T1
X85.471Y-45.705
X85.471Y-52.705
X85.471Y-45.669
X85.471Y-52.669
T2
X119.721Y-116.969
X129.914Y-114.709
X101.602Y-124.407
X111.064Y-119.995
X192.417Y-82.021
X202.857Y-82.021
X154.345Y-68.714
X164.785Y-68.714
X116.237Y-95.385
X126.677Y-95.385
X173.386Y-53.434
X183.826Y-53.434
X192.373Y-62.986
X202.813Y-62.986
X192.46Y-101.056
X202.9Y-101.056
X135.261Y-74.374
X145.701Y-74.374
X154.298Y-87.725
X164.738Y-87.725
X173.358Y-91.57
X183.798Y-91.57
X135.305Y-93.409
X145.745Y-93.409
X85.49Y-135.458
X93.773Y-129.102
X116.174Y-57.225
X126.614Y-57.225
X116.218Y-76.26
X126.658Y-76.26
X135.308Y-55.363
X145.748Y-55.363
X154.326Y-49.589
X164.766Y-49.589
X173.339Y-72.445
X183.779Y-72.445
T3
X154.438Y-83.525
X164.598Y-83.525
X173.498Y-87.37
X183.658Y-87.37
X135.445Y-89.209
X145.605Y-89.209
X83.044Y-132.04
X91.105Y-125.855
X116.314Y-53.025
X126.474Y-53.025
X116.358Y-72.06
X126.518Y-72.06
X135.448Y-51.163
X145.608Y-51.163
X154.466Y-45.389
X164.626Y-45.389
X173.479Y-68.245
X183.639Y-68.245
X118.949Y-112.838
X128.868Y-110.639
X99.954Y-120.541
X109.162Y-116.248
X192.557Y-77.821
X202.717Y-77.821
X154.485Y-64.514
X164.645Y-64.514
X116.377Y-91.185
X126.537Y-91.185
X173.526Y-49.234
X183.686Y-49.234
X192.513Y-58.786
X202.673Y-58.786
X192.6Y-96.856
X202.76Y-96.856
X135.401Y-70.174
X145.561Y-70.174
T4
X135.028Y-51.163
X146.028Y-51.163
X154.046Y-45.389
X165.046Y-45.389
X173.059Y-68.245
X184.059Y-68.245
X118.539Y-112.929
X129.278Y-110.548
X99.573Y-120.719
X109.543Y-116.07
X192.137Y-77.821
X203.137Y-77.821
X154.065Y-64.514
X165.065Y-64.514
X115.957Y-91.185
X126.957Y-91.185
X173.106Y-49.234
X184.106Y-49.234
X192.093Y-58.786
X203.093Y-58.786
X192.18Y-96.856
X203.18Y-96.856
X134.981Y-70.174
X145.981Y-70.174
X154.018Y-83.525
X165.018Y-83.525
X173.078Y-87.37
X184.078Y-87.37
X135.025Y-89.209
X146.025Y-89.209
X82.711Y-132.296
X91.438Y-125.6
X115.894Y-53.025
X126.894Y-53.025
X115.938Y-72.06
X126.938Y-72.06
T5
X123.909Y-111.739
X104.558Y-118.395
X197.637Y-77.821
X159.565Y-64.514
X121.457Y-91.185
X178.606Y-49.234
X197.593Y-58.786
X197.68Y-96.856
X140.481Y-70.174
X159.518Y-83.525
X178.578Y-87.37
X140.525Y-89.209
X87.074Y-128.948
X121.394Y-53.025
X121.438Y-72.06
X140.528Y-51.163
X159.546Y-45.389
X178.559Y-68.245
T0
M30
