M48
; DRILL file {KiCad (5.1.7)-1} date 06/21/21 23:37:56
; FORMAT={-:-/ absolute / metric / decimal}
; #@! TF.CreationDate,2021-06-21T23:37:56+05:30
; #@! TF.GenerationSoftware,Kicad,Pcbnew,(5.1.7)-1
; #@! TF.FileFunction,Plated,1,2,PTH
FMAT,2
METRIC
T1C0.400
T2C0.813
T3C0.900
T4C1.000
T5C1.100
T6C1.200
T7C1.500
T8C1.513
T9C1.702
T10C1.800
T11C3.988
%
G90
G05
T1
X83.748Y-63.953
X87.448Y-63.555
X92.583Y-85.09
X99.568Y-71.628
X100.203Y-75.184
X101.346Y-74.422
X102.108Y-73.66
X104.013Y-77.47
X110.236Y-100.19
X111.76Y-58.039
X112.268Y-52.832
X114.681Y-102.489
X114.681Y-105.283
X114.808Y-60.96
X119.113Y-103.467
X127.216Y-79.426
X127.94Y-80.848
X145.609Y-72.517
X148.387Y-93.193
X167.119Y-93.51
X186.723Y-85.311
X200.914Y-82.372
T2
X95.885Y-80.264
X98.425Y-80.264
X100.965Y-80.264
X103.505Y-80.264
T4
X111.995Y-91.447
X111.995Y-99.247
X149.987Y-65.061
X149.987Y-72.861
X131.008Y-90.038
X131.008Y-97.838
X94.618Y-119.528
X97.914Y-126.598
X111.903Y-72.593
X111.903Y-80.393
X78.398Y-131.145
X83.146Y-137.333
X118.122Y-61.138
X125.922Y-61.138
X113.964Y-110.492
X115.652Y-118.108
X170.053Y-48.932
X170.053Y-56.732
X149.987Y-48.424
X149.987Y-56.224
X187.874Y-97.317
X187.874Y-105.117
X131.169Y-70.961
X131.169Y-78.761
X188.223Y-57.617
X188.223Y-65.417
X91.731Y-107.95
X99.531Y-107.95
X169.146Y-68.325
X169.146Y-76.125
X150.192Y-84.166
X150.192Y-91.966
X169.116Y-87.632
X169.116Y-95.432
X194.55Y-86.081
X202.35Y-86.081
X88.011Y-96.266
X88.011Y-98.766
X88.011Y-101.266
X102.511Y-96.266
X102.511Y-101.266
X131.017Y-51.606
X131.017Y-59.406
T5
X92.024Y-45.225
X92.024Y-47.765
X92.024Y-50.305
X92.024Y-52.845
X92.024Y-55.385
X92.024Y-57.925
X92.024Y-60.465
X92.024Y-63.005
X92.024Y-65.545
X92.024Y-68.085
X92.024Y-70.625
X92.024Y-73.165
X107.264Y-45.225
X107.264Y-47.765
X107.264Y-50.305
X107.264Y-52.845
X107.264Y-55.385
X107.264Y-57.925
X107.264Y-60.465
X107.264Y-63.005
X107.264Y-65.545
X107.264Y-68.085
X107.264Y-70.625
X107.264Y-73.165
T6
X135.481Y-66.374
X140.481Y-64.274
X145.481Y-66.374
X98.42Y-117.064
X102.064Y-113.047
X107.483Y-112.837
X192.68Y-93.056
X197.68Y-90.956
X202.68Y-93.056
X135.528Y-47.363
X140.528Y-45.263
X145.528Y-47.363
X118.205Y-109.111
X122.632Y-105.978
X127.968Y-106.946
X154.546Y-41.589
X159.546Y-39.489
X164.546Y-41.589
X80.794Y-128.977
X83.483Y-124.267
X88.728Y-122.889
X154.518Y-79.725
X159.518Y-77.625
X164.518Y-79.725
X173.606Y-45.434
X178.606Y-43.334
X183.606Y-45.434
X154.565Y-60.714
X159.565Y-58.614
X164.565Y-60.714
X116.394Y-49.225
X121.394Y-47.125
X126.394Y-49.225
X135.525Y-85.409
X140.525Y-83.309
X145.525Y-85.409
X192.637Y-74.021
X197.637Y-71.921
X202.637Y-74.021
X173.578Y-83.57
X178.578Y-81.47
X183.578Y-83.57
X116.438Y-68.26
X121.438Y-66.16
X126.438Y-68.26
X116.457Y-87.385
X121.457Y-85.285
X126.457Y-87.385
X173.559Y-64.445
X178.559Y-62.345
X183.559Y-64.445
X192.593Y-54.986
X197.593Y-52.886
X202.593Y-54.986
T9
X116.358Y-72.06
X126.518Y-72.06
X116.377Y-91.185
X126.537Y-91.185
X173.479Y-68.245
X183.639Y-68.245
X192.513Y-58.786
X202.673Y-58.786
X135.401Y-70.174
X145.561Y-70.174
X99.954Y-120.541
X109.162Y-116.248
X192.6Y-96.856
X202.76Y-96.856
X135.448Y-51.163
X145.608Y-51.163
X118.949Y-112.838
X128.868Y-110.639
X154.466Y-45.389
X164.626Y-45.389
X83.044Y-132.04
X91.105Y-125.855
X154.438Y-83.525
X164.598Y-83.525
X173.526Y-49.234
X183.686Y-49.234
X154.485Y-64.514
X164.645Y-64.514
X116.314Y-53.025
X126.474Y-53.025
X135.445Y-89.209
X145.605Y-89.209
X192.557Y-77.821
X202.717Y-77.821
X173.498Y-87.37
X183.658Y-87.37
T10
X82.506Y-129.252
X88.551Y-124.613
X155.708Y-80.985
X163.328Y-80.985
X174.796Y-46.694
X182.416Y-46.694
X155.755Y-61.974
X163.375Y-61.974
X117.584Y-50.485
X125.204Y-50.485
X136.715Y-86.669
X144.335Y-86.669
X193.827Y-75.281
X201.447Y-75.281
X174.768Y-84.83
X182.388Y-84.83
X117.628Y-69.52
X125.248Y-69.52
X117.647Y-88.645
X125.267Y-88.645
X174.749Y-65.705
X182.369Y-65.705
X193.783Y-56.246
X201.403Y-56.246
X136.671Y-67.634
X144.291Y-67.634
X100.031Y-117.703
X106.937Y-114.482
X193.87Y-94.316
X201.49Y-94.316
X136.718Y-48.623
X144.338Y-48.623
X119.639Y-110.083
X127.079Y-108.434
X155.736Y-42.849
X163.356Y-42.849
T11
X140.528Y-51.163
X123.909Y-111.739
X159.546Y-45.389
X87.074Y-128.948
X159.518Y-83.525
X178.606Y-49.234
X159.565Y-64.514
X121.394Y-53.025
X140.525Y-89.209
X197.637Y-77.821
X178.578Y-87.37
X121.438Y-72.06
X121.457Y-91.185
X178.559Y-68.245
X197.593Y-58.786
X140.481Y-70.174
X104.558Y-118.395
X197.68Y-96.856
T3
G00X83.171Y-47.505
M15
G01X83.171Y-47.105
M16
G05
G00X83.171Y-50.505
M15
G01X83.171Y-50.105
M16
G05
G00X83.171Y-54.505
M15
G01X83.171Y-54.105
M16
G05
G00X87.771Y-55.605
M15
G01X87.771Y-55.205
M16
G05
G00X83.171Y-55.169
M15
G01X83.171Y-55.569
M16
G05
G00X87.771Y-47.069
M15
G01X87.771Y-47.469
M16
G05
G00X87.771Y-50.069
M15
G01X87.771Y-50.469
M16
G05
G00X87.771Y-54.069
M15
G01X87.771Y-54.469
M16
G05
T7
G00X94.861Y-93.166
M15
G01X96.161Y-93.166
M16
G05
G00X94.861Y-104.366
M15
G01X96.161Y-104.366
M16
G05
T8
G00X82.02Y-126.5
M15
G01X82.651Y-127.323
M16
G05
G00X86.019Y-123.432
M15
G01X86.65Y-124.255
M16
G05
G00X156.998Y-78.506
M15
G01X156.998Y-79.543
M16
G05
G00X162.038Y-78.506
M15
G01X162.038Y-79.543
M16
G05
G00X176.086Y-44.216
M15
G01X176.086Y-45.253
M16
G05
G00X181.126Y-44.216
M15
G01X181.126Y-45.253
M16
G05
G00X157.045Y-59.496
M15
G01X157.045Y-60.533
M16
G05
G00X162.085Y-59.496
M15
G01X162.085Y-60.533
M16
G05
G00X118.874Y-48.006
M15
G01X118.874Y-49.043
M16
G05
G00X123.914Y-48.006
M15
G01X123.914Y-49.043
M16
G05
G00X138.005Y-84.19
M15
G01X138.005Y-85.227
M16
G05
G00X143.045Y-84.19
M15
G01X143.045Y-85.227
M16
G05
G00X195.117Y-72.803
M15
G01X195.117Y-73.84
M16
G05
G00X200.157Y-72.803
M15
G01X200.157Y-73.84
M16
G05
G00X176.058Y-82.352
M15
G01X176.058Y-83.389
M16
G05
G00X181.098Y-82.352
M15
G01X181.098Y-83.389
M16
G05
G00X118.918Y-67.041
M15
G01X118.918Y-68.078
M16
G05
G00X123.958Y-67.041
M15
G01X123.958Y-68.078
M16
G05
G00X118.937Y-86.167
M15
G01X118.937Y-87.204
M16
G05
G00X123.977Y-86.167
M15
G01X123.977Y-87.204
M16
G05
G00X176.039Y-63.226
M15
G01X176.039Y-64.263
M16
G05
G00X181.079Y-63.226
M15
G01X181.079Y-64.263
M16
G05
G00X195.073Y-53.768
M15
G01X195.073Y-54.805
M16
G05
G00X200.113Y-53.768
M15
G01X200.113Y-54.805
M16
G05
G00X137.961Y-65.156
M15
G01X137.961Y-66.193
M16
G05
G00X143.001Y-65.156
M15
G01X143.001Y-66.193
M16
G05
G00X100.153Y-114.911
M15
G01X100.591Y-115.851
M16
G05
G00X104.721Y-112.781
M15
G01X105.159Y-113.721
M16
G05
G00X195.16Y-91.838
M15
G01X195.16Y-92.875
M16
G05
G00X200.2Y-91.838
M15
G01X200.2Y-92.875
M16
G05
G00X138.008Y-46.145
M15
G01X138.008Y-47.182
M16
G05
G00X143.048Y-46.145
M15
G01X143.048Y-47.182
M16
G05
G00X120.362Y-107.384
M15
G01X120.587Y-108.397
M16
G05
G00X125.283Y-106.294
M15
G01X125.507Y-107.306
M16
G05
G00X157.026Y-40.37
M15
G01X157.026Y-41.407
M16
G05
G00X162.066Y-40.37
M15
G01X162.066Y-41.407
M16
G05
T0
M30
