M48
; DRILL file {KiCad (5.1.7)-1} date 04/13/21 00:10:37
; FORMAT={-:-/ absolute / metric / decimal}
; #@! TF.CreationDate,2021-04-13T00:10:37+05:30
; #@! TF.GenerationSoftware,Kicad,Pcbnew,(5.1.7)-1
; #@! TF.FileFunction,NonPlated,1,2,NPTH
FMAT,2
METRIC
T1C1.500
T2C1.800
T3C3.200
T4C3.988
%
G90
G05
T1
X105.95Y-26.435
X105.95Y-33.435
X105.95Y-26.435
X105.95Y-33.435
T2
X192.584Y-39.685
X202.744Y-39.685
X173.479Y-68.245
X183.639Y-68.245
X99.954Y-120.541
X109.162Y-116.248
X135.401Y-70.174
X145.561Y-70.174
X118.949Y-112.838
X128.868Y-110.639
X173.498Y-87.37
X183.658Y-87.37
X154.512Y-26.378
X164.672Y-26.378
X135.445Y-89.209
X145.605Y-89.209
X116.361Y-34.014
X126.521Y-34.014
X192.6Y-96.856
X202.76Y-96.856
X135.448Y-51.163
X145.608Y-51.163
X116.377Y-91.185
X126.537Y-91.185
X192.557Y-77.821
X202.717Y-77.821
X154.485Y-64.514
X164.645Y-64.514
X83.044Y-132.04
X91.105Y-125.855
X154.466Y-45.389
X164.626Y-45.389
X173.482Y-30.199
X183.642Y-30.199
X116.358Y-72.06
X126.518Y-72.06
X116.314Y-53.025
X126.474Y-53.025
X173.526Y-49.234
X183.686Y-49.234
X135.429Y-32.038
X145.589Y-32.038
X154.438Y-83.525
X164.598Y-83.525
X192.513Y-58.786
X202.673Y-58.786
T3
X181.61Y-102.743
X79.248Y-134.874
X106.007Y-103.01
X104.394Y-43.18
X141.224Y-100.711
X150.368Y-54.864
X188.087Y-49.276
T4
X178.578Y-87.37
X159.592Y-26.378
X140.525Y-89.209
X121.441Y-34.014
X197.68Y-96.856
X140.528Y-51.163
X121.457Y-91.185
X197.637Y-77.821
X159.565Y-64.514
X87.074Y-128.948
X159.546Y-45.389
X178.562Y-30.199
X121.438Y-72.06
X121.394Y-53.025
X178.606Y-49.234
X140.509Y-32.038
X159.518Y-83.525
X197.593Y-58.786
X197.664Y-39.685
X178.559Y-68.245
X104.558Y-118.395
X140.481Y-70.174
X123.909Y-111.739
T0
M30
