%TF.GenerationSoftware,KiCad,Pcbnew,(5.1.7)-1*%
%TF.CreationDate,2021-04-13T00:10:30+05:30*%
%TF.ProjectId,Pteron56v0,50746572-6f6e-4353-9676-302e6b696361,rev?*%
%TF.SameCoordinates,Original*%
%TF.FileFunction,Legend,Top*%
%TF.FilePolarity,Positive*%
%FSLAX46Y46*%
G04 Gerber Fmt 4.6, Leading zero omitted, Abs format (unit mm)*
G04 Created by KiCad (PCBNEW (5.1.7)-1) date 2021-04-13 00:10:30*
%MOMM*%
%LPD*%
G01*
G04 APERTURE LIST*
%ADD10C,0.150000*%
%ADD11C,0.250000*%
%ADD12C,0.120000*%
G04 APERTURE END LIST*
D10*
X109259714Y-66761190D02*
X110069238Y-66761190D01*
X110164476Y-66808809D01*
X110212095Y-66856428D01*
X110259714Y-66951666D01*
X110259714Y-67094523D01*
X110212095Y-67189761D01*
X109878761Y-66761190D02*
X109926380Y-66856428D01*
X109926380Y-67046904D01*
X109878761Y-67142142D01*
X109831142Y-67189761D01*
X109735904Y-67237380D01*
X109450190Y-67237380D01*
X109354952Y-67189761D01*
X109307333Y-67142142D01*
X109259714Y-67046904D01*
X109259714Y-66856428D01*
X109307333Y-66761190D01*
X109926380Y-66285000D02*
X109259714Y-66285000D01*
X108926380Y-66285000D02*
X108974000Y-66332619D01*
X109021619Y-66285000D01*
X108974000Y-66237380D01*
X108926380Y-66285000D01*
X109021619Y-66285000D01*
X109259714Y-65951666D02*
X109259714Y-65570714D01*
X108926380Y-65808809D02*
X109783523Y-65808809D01*
X109878761Y-65761190D01*
X109926380Y-65665952D01*
X109926380Y-65570714D01*
X109926380Y-65237380D02*
X108926380Y-65237380D01*
X109926380Y-64808809D02*
X109402571Y-64808809D01*
X109307333Y-64856428D01*
X109259714Y-64951666D01*
X109259714Y-65094523D01*
X109307333Y-65189761D01*
X109354952Y-65237380D01*
X109259714Y-63904047D02*
X109926380Y-63904047D01*
X109259714Y-64332619D02*
X109783523Y-64332619D01*
X109878761Y-64285000D01*
X109926380Y-64189761D01*
X109926380Y-64046904D01*
X109878761Y-63951666D01*
X109831142Y-63904047D01*
X109926380Y-63427857D02*
X108926380Y-63427857D01*
X109307333Y-63427857D02*
X109259714Y-63332619D01*
X109259714Y-63142142D01*
X109307333Y-63046904D01*
X109354952Y-62999285D01*
X109450190Y-62951666D01*
X109735904Y-62951666D01*
X109831142Y-62999285D01*
X109878761Y-63046904D01*
X109926380Y-63142142D01*
X109926380Y-63332619D01*
X109878761Y-63427857D01*
X109831142Y-62523095D02*
X109878761Y-62475476D01*
X109926380Y-62523095D01*
X109878761Y-62570714D01*
X109831142Y-62523095D01*
X109926380Y-62523095D01*
X109878761Y-61618333D02*
X109926380Y-61713571D01*
X109926380Y-61904047D01*
X109878761Y-61999285D01*
X109831142Y-62046904D01*
X109735904Y-62094523D01*
X109450190Y-62094523D01*
X109354952Y-62046904D01*
X109307333Y-61999285D01*
X109259714Y-61904047D01*
X109259714Y-61713571D01*
X109307333Y-61618333D01*
X109926380Y-61046904D02*
X109878761Y-61142142D01*
X109831142Y-61189761D01*
X109735904Y-61237380D01*
X109450190Y-61237380D01*
X109354952Y-61189761D01*
X109307333Y-61142142D01*
X109259714Y-61046904D01*
X109259714Y-60904047D01*
X109307333Y-60808809D01*
X109354952Y-60761190D01*
X109450190Y-60713571D01*
X109735904Y-60713571D01*
X109831142Y-60761190D01*
X109878761Y-60808809D01*
X109926380Y-60904047D01*
X109926380Y-61046904D01*
X109926380Y-60285000D02*
X109259714Y-60285000D01*
X109354952Y-60285000D02*
X109307333Y-60237380D01*
X109259714Y-60142142D01*
X109259714Y-59999285D01*
X109307333Y-59904047D01*
X109402571Y-59856428D01*
X109926380Y-59856428D01*
X109402571Y-59856428D02*
X109307333Y-59808809D01*
X109259714Y-59713571D01*
X109259714Y-59570714D01*
X109307333Y-59475476D01*
X109402571Y-59427857D01*
X109926380Y-59427857D01*
X108878761Y-58237380D02*
X110164476Y-59094523D01*
X109926380Y-57904047D02*
X108926380Y-57904047D01*
X109545428Y-57808809D02*
X109926380Y-57523095D01*
X109259714Y-57523095D02*
X109640666Y-57904047D01*
X109926380Y-57094523D02*
X109259714Y-57094523D01*
X109450190Y-57094523D02*
X109354952Y-57046904D01*
X109307333Y-56999285D01*
X109259714Y-56904047D01*
X109259714Y-56808809D01*
X109926380Y-56046904D02*
X109402571Y-56046904D01*
X109307333Y-56094523D01*
X109259714Y-56189761D01*
X109259714Y-56380238D01*
X109307333Y-56475476D01*
X109878761Y-56046904D02*
X109926380Y-56142142D01*
X109926380Y-56380238D01*
X109878761Y-56475476D01*
X109783523Y-56523095D01*
X109688285Y-56523095D01*
X109593047Y-56475476D01*
X109545428Y-56380238D01*
X109545428Y-56142142D01*
X109497809Y-56046904D01*
X109926380Y-55570714D02*
X108926380Y-55570714D01*
X109545428Y-55475476D02*
X109926380Y-55189761D01*
X109259714Y-55189761D02*
X109640666Y-55570714D01*
X109878761Y-54380238D02*
X109926380Y-54475476D01*
X109926380Y-54665952D01*
X109878761Y-54761190D01*
X109783523Y-54808809D01*
X109402571Y-54808809D01*
X109307333Y-54761190D01*
X109259714Y-54665952D01*
X109259714Y-54475476D01*
X109307333Y-54380238D01*
X109402571Y-54332619D01*
X109497809Y-54332619D01*
X109593047Y-54808809D01*
X109259714Y-53904047D02*
X109926380Y-53904047D01*
X109354952Y-53904047D02*
X109307333Y-53856428D01*
X109259714Y-53761190D01*
X109259714Y-53618333D01*
X109307333Y-53523095D01*
X109402571Y-53475476D01*
X109926380Y-53475476D01*
X109545428Y-52999285D02*
X109545428Y-52237380D01*
X109259714Y-51761190D02*
X110116857Y-51761190D01*
X110212095Y-51808809D01*
X110259714Y-51904047D01*
X110259714Y-51951666D01*
X108926380Y-51761190D02*
X108974000Y-51808809D01*
X109021619Y-51761190D01*
X108974000Y-51713571D01*
X108926380Y-51761190D01*
X109021619Y-51761190D01*
X109926380Y-51142142D02*
X109878761Y-51237380D01*
X109831142Y-51285000D01*
X109735904Y-51332619D01*
X109450190Y-51332619D01*
X109354952Y-51285000D01*
X109307333Y-51237380D01*
X109259714Y-51142142D01*
X109259714Y-50999285D01*
X109307333Y-50904047D01*
X109354952Y-50856428D01*
X109450190Y-50808809D01*
X109735904Y-50808809D01*
X109831142Y-50856428D01*
X109878761Y-50904047D01*
X109926380Y-50999285D01*
X109926380Y-51142142D01*
X109926380Y-50380238D02*
X108926380Y-50380238D01*
X109545428Y-50285000D02*
X109926380Y-49999285D01*
X109259714Y-49999285D02*
X109640666Y-50380238D01*
X109878761Y-49189761D02*
X109926380Y-49285000D01*
X109926380Y-49475476D01*
X109878761Y-49570714D01*
X109783523Y-49618333D01*
X109402571Y-49618333D01*
X109307333Y-49570714D01*
X109259714Y-49475476D01*
X109259714Y-49285000D01*
X109307333Y-49189761D01*
X109402571Y-49142142D01*
X109497809Y-49142142D01*
X109593047Y-49618333D01*
X109878761Y-48761190D02*
X109926380Y-48665952D01*
X109926380Y-48475476D01*
X109878761Y-48380238D01*
X109783523Y-48332619D01*
X109735904Y-48332619D01*
X109640666Y-48380238D01*
X109593047Y-48475476D01*
X109593047Y-48618333D01*
X109545428Y-48713571D01*
X109450190Y-48761190D01*
X109402571Y-48761190D01*
X109307333Y-48713571D01*
X109259714Y-48618333D01*
X109259714Y-48475476D01*
X109307333Y-48380238D01*
X107227714Y-69531047D02*
X107227714Y-69150095D01*
X107894380Y-69388190D02*
X107037238Y-69388190D01*
X106942000Y-69340571D01*
X106894380Y-69245333D01*
X106894380Y-69150095D01*
X107894380Y-68388190D02*
X107370571Y-68388190D01*
X107275333Y-68435809D01*
X107227714Y-68531047D01*
X107227714Y-68721523D01*
X107275333Y-68816761D01*
X107846761Y-68388190D02*
X107894380Y-68483428D01*
X107894380Y-68721523D01*
X107846761Y-68816761D01*
X107751523Y-68864380D01*
X107656285Y-68864380D01*
X107561047Y-68816761D01*
X107513428Y-68721523D01*
X107513428Y-68483428D01*
X107465809Y-68388190D01*
X107846761Y-67483428D02*
X107894380Y-67578666D01*
X107894380Y-67769142D01*
X107846761Y-67864380D01*
X107799142Y-67912000D01*
X107703904Y-67959619D01*
X107418190Y-67959619D01*
X107322952Y-67912000D01*
X107275333Y-67864380D01*
X107227714Y-67769142D01*
X107227714Y-67578666D01*
X107275333Y-67483428D01*
X107846761Y-66673904D02*
X107894380Y-66769142D01*
X107894380Y-66959619D01*
X107846761Y-67054857D01*
X107751523Y-67102476D01*
X107370571Y-67102476D01*
X107275333Y-67054857D01*
X107227714Y-66959619D01*
X107227714Y-66769142D01*
X107275333Y-66673904D01*
X107370571Y-66626285D01*
X107465809Y-66626285D01*
X107561047Y-67102476D01*
X107894380Y-66197714D02*
X106894380Y-66197714D01*
X107275333Y-66197714D02*
X107227714Y-66102476D01*
X107227714Y-65912000D01*
X107275333Y-65816761D01*
X107322952Y-65769142D01*
X107418190Y-65721523D01*
X107703904Y-65721523D01*
X107799142Y-65769142D01*
X107846761Y-65816761D01*
X107894380Y-65912000D01*
X107894380Y-66102476D01*
X107846761Y-66197714D01*
X107894380Y-65150095D02*
X107846761Y-65245333D01*
X107799142Y-65292952D01*
X107703904Y-65340571D01*
X107418190Y-65340571D01*
X107322952Y-65292952D01*
X107275333Y-65245333D01*
X107227714Y-65150095D01*
X107227714Y-65007238D01*
X107275333Y-64912000D01*
X107322952Y-64864380D01*
X107418190Y-64816761D01*
X107703904Y-64816761D01*
X107799142Y-64864380D01*
X107846761Y-64912000D01*
X107894380Y-65007238D01*
X107894380Y-65150095D01*
X107894380Y-64245333D02*
X107846761Y-64340571D01*
X107799142Y-64388190D01*
X107703904Y-64435809D01*
X107418190Y-64435809D01*
X107322952Y-64388190D01*
X107275333Y-64340571D01*
X107227714Y-64245333D01*
X107227714Y-64102476D01*
X107275333Y-64007238D01*
X107322952Y-63959619D01*
X107418190Y-63912000D01*
X107703904Y-63912000D01*
X107799142Y-63959619D01*
X107846761Y-64007238D01*
X107894380Y-64102476D01*
X107894380Y-64245333D01*
X107894380Y-63483428D02*
X106894380Y-63483428D01*
X107513428Y-63388190D02*
X107894380Y-63102476D01*
X107227714Y-63102476D02*
X107608666Y-63483428D01*
X107799142Y-62673904D02*
X107846761Y-62626285D01*
X107894380Y-62673904D01*
X107846761Y-62721523D01*
X107799142Y-62673904D01*
X107894380Y-62673904D01*
X107846761Y-61769142D02*
X107894380Y-61864380D01*
X107894380Y-62054857D01*
X107846761Y-62150095D01*
X107799142Y-62197714D01*
X107703904Y-62245333D01*
X107418190Y-62245333D01*
X107322952Y-62197714D01*
X107275333Y-62150095D01*
X107227714Y-62054857D01*
X107227714Y-61864380D01*
X107275333Y-61769142D01*
X107894380Y-61197714D02*
X107846761Y-61292952D01*
X107799142Y-61340571D01*
X107703904Y-61388190D01*
X107418190Y-61388190D01*
X107322952Y-61340571D01*
X107275333Y-61292952D01*
X107227714Y-61197714D01*
X107227714Y-61054857D01*
X107275333Y-60959619D01*
X107322952Y-60912000D01*
X107418190Y-60864380D01*
X107703904Y-60864380D01*
X107799142Y-60912000D01*
X107846761Y-60959619D01*
X107894380Y-61054857D01*
X107894380Y-61197714D01*
X107894380Y-60435809D02*
X107227714Y-60435809D01*
X107322952Y-60435809D02*
X107275333Y-60388190D01*
X107227714Y-60292952D01*
X107227714Y-60150095D01*
X107275333Y-60054857D01*
X107370571Y-60007238D01*
X107894380Y-60007238D01*
X107370571Y-60007238D02*
X107275333Y-59959619D01*
X107227714Y-59864380D01*
X107227714Y-59721523D01*
X107275333Y-59626285D01*
X107370571Y-59578666D01*
X107894380Y-59578666D01*
X106846761Y-58388190D02*
X108132476Y-59245333D01*
X107894380Y-58054857D02*
X107227714Y-58054857D01*
X107322952Y-58054857D02*
X107275333Y-58007238D01*
X107227714Y-57912000D01*
X107227714Y-57769142D01*
X107275333Y-57673904D01*
X107370571Y-57626285D01*
X107894380Y-57626285D01*
X107370571Y-57626285D02*
X107275333Y-57578666D01*
X107227714Y-57483428D01*
X107227714Y-57340571D01*
X107275333Y-57245333D01*
X107370571Y-57197714D01*
X107894380Y-57197714D01*
X107894380Y-56578666D02*
X107846761Y-56673904D01*
X107799142Y-56721523D01*
X107703904Y-56769142D01*
X107418190Y-56769142D01*
X107322952Y-56721523D01*
X107275333Y-56673904D01*
X107227714Y-56578666D01*
X107227714Y-56435809D01*
X107275333Y-56340571D01*
X107322952Y-56292952D01*
X107418190Y-56245333D01*
X107703904Y-56245333D01*
X107799142Y-56292952D01*
X107846761Y-56340571D01*
X107894380Y-56435809D01*
X107894380Y-56578666D01*
X107894380Y-55673904D02*
X107846761Y-55769142D01*
X107799142Y-55816761D01*
X107703904Y-55864380D01*
X107418190Y-55864380D01*
X107322952Y-55816761D01*
X107275333Y-55769142D01*
X107227714Y-55673904D01*
X107227714Y-55531047D01*
X107275333Y-55435809D01*
X107322952Y-55388190D01*
X107418190Y-55340571D01*
X107703904Y-55340571D01*
X107799142Y-55388190D01*
X107846761Y-55435809D01*
X107894380Y-55531047D01*
X107894380Y-55673904D01*
X107894380Y-54912000D02*
X107227714Y-54912000D01*
X107418190Y-54912000D02*
X107322952Y-54864380D01*
X107275333Y-54816761D01*
X107227714Y-54721523D01*
X107227714Y-54626285D01*
X107846761Y-53912000D02*
X107894380Y-54007238D01*
X107894380Y-54197714D01*
X107846761Y-54292952D01*
X107751523Y-54340571D01*
X107370571Y-54340571D01*
X107275333Y-54292952D01*
X107227714Y-54197714D01*
X107227714Y-54007238D01*
X107275333Y-53912000D01*
X107370571Y-53864380D01*
X107465809Y-53864380D01*
X107561047Y-54340571D01*
X107894380Y-53435809D02*
X106894380Y-53435809D01*
X107513428Y-53340571D02*
X107894380Y-53054857D01*
X107227714Y-53054857D02*
X107608666Y-53435809D01*
X107846761Y-52245333D02*
X107894380Y-52340571D01*
X107894380Y-52531047D01*
X107846761Y-52626285D01*
X107751523Y-52673904D01*
X107370571Y-52673904D01*
X107275333Y-52626285D01*
X107227714Y-52531047D01*
X107227714Y-52340571D01*
X107275333Y-52245333D01*
X107370571Y-52197714D01*
X107465809Y-52197714D01*
X107561047Y-52673904D01*
X107227714Y-51864380D02*
X107894380Y-51626285D01*
X107227714Y-51388190D02*
X107894380Y-51626285D01*
X108132476Y-51721523D01*
X108180095Y-51769142D01*
X108227714Y-51864380D01*
X107894380Y-51007238D02*
X106894380Y-51007238D01*
X107275333Y-51007238D02*
X107227714Y-50912000D01*
X107227714Y-50721523D01*
X107275333Y-50626285D01*
X107322952Y-50578666D01*
X107418190Y-50531047D01*
X107703904Y-50531047D01*
X107799142Y-50578666D01*
X107846761Y-50626285D01*
X107894380Y-50721523D01*
X107894380Y-50912000D01*
X107846761Y-51007238D01*
X107894380Y-49959619D02*
X107846761Y-50054857D01*
X107799142Y-50102476D01*
X107703904Y-50150095D01*
X107418190Y-50150095D01*
X107322952Y-50102476D01*
X107275333Y-50054857D01*
X107227714Y-49959619D01*
X107227714Y-49816761D01*
X107275333Y-49721523D01*
X107322952Y-49673904D01*
X107418190Y-49626285D01*
X107703904Y-49626285D01*
X107799142Y-49673904D01*
X107846761Y-49721523D01*
X107894380Y-49816761D01*
X107894380Y-49959619D01*
X107894380Y-48769142D02*
X107370571Y-48769142D01*
X107275333Y-48816761D01*
X107227714Y-48912000D01*
X107227714Y-49102476D01*
X107275333Y-49197714D01*
X107846761Y-48769142D02*
X107894380Y-48864380D01*
X107894380Y-49102476D01*
X107846761Y-49197714D01*
X107751523Y-49245333D01*
X107656285Y-49245333D01*
X107561047Y-49197714D01*
X107513428Y-49102476D01*
X107513428Y-48864380D01*
X107465809Y-48769142D01*
X107894380Y-48292952D02*
X107227714Y-48292952D01*
X107418190Y-48292952D02*
X107322952Y-48245333D01*
X107275333Y-48197714D01*
X107227714Y-48102476D01*
X107227714Y-48007238D01*
X107894380Y-47245333D02*
X106894380Y-47245333D01*
X107846761Y-47245333D02*
X107894380Y-47340571D01*
X107894380Y-47531047D01*
X107846761Y-47626285D01*
X107799142Y-47673904D01*
X107703904Y-47721523D01*
X107418190Y-47721523D01*
X107322952Y-47673904D01*
X107275333Y-47626285D01*
X107227714Y-47531047D01*
X107227714Y-47340571D01*
X107275333Y-47245333D01*
X107846761Y-46816761D02*
X107894380Y-46721523D01*
X107894380Y-46531047D01*
X107846761Y-46435809D01*
X107751523Y-46388190D01*
X107703904Y-46388190D01*
X107608666Y-46435809D01*
X107561047Y-46531047D01*
X107561047Y-46673904D01*
X107513428Y-46769142D01*
X107418190Y-46816761D01*
X107370571Y-46816761D01*
X107275333Y-46769142D01*
X107227714Y-46673904D01*
X107227714Y-46531047D01*
X107275333Y-46435809D01*
X152639761Y-104306714D02*
X152639761Y-105116238D01*
X152592142Y-105211476D01*
X152544523Y-105259095D01*
X152449285Y-105306714D01*
X152306428Y-105306714D01*
X152211190Y-105259095D01*
X152639761Y-104925761D02*
X152544523Y-104973380D01*
X152354047Y-104973380D01*
X152258809Y-104925761D01*
X152211190Y-104878142D01*
X152163571Y-104782904D01*
X152163571Y-104497190D01*
X152211190Y-104401952D01*
X152258809Y-104354333D01*
X152354047Y-104306714D01*
X152544523Y-104306714D01*
X152639761Y-104354333D01*
X153115952Y-104973380D02*
X153115952Y-104306714D01*
X153115952Y-103973380D02*
X153068333Y-104021000D01*
X153115952Y-104068619D01*
X153163571Y-104021000D01*
X153115952Y-103973380D01*
X153115952Y-104068619D01*
X153449285Y-104306714D02*
X153830238Y-104306714D01*
X153592142Y-103973380D02*
X153592142Y-104830523D01*
X153639761Y-104925761D01*
X153735000Y-104973380D01*
X153830238Y-104973380D01*
X154163571Y-104973380D02*
X154163571Y-103973380D01*
X154592142Y-104973380D02*
X154592142Y-104449571D01*
X154544523Y-104354333D01*
X154449285Y-104306714D01*
X154306428Y-104306714D01*
X154211190Y-104354333D01*
X154163571Y-104401952D01*
X155496904Y-104306714D02*
X155496904Y-104973380D01*
X155068333Y-104306714D02*
X155068333Y-104830523D01*
X155115952Y-104925761D01*
X155211190Y-104973380D01*
X155354047Y-104973380D01*
X155449285Y-104925761D01*
X155496904Y-104878142D01*
X155973095Y-104973380D02*
X155973095Y-103973380D01*
X155973095Y-104354333D02*
X156068333Y-104306714D01*
X156258809Y-104306714D01*
X156354047Y-104354333D01*
X156401666Y-104401952D01*
X156449285Y-104497190D01*
X156449285Y-104782904D01*
X156401666Y-104878142D01*
X156354047Y-104925761D01*
X156258809Y-104973380D01*
X156068333Y-104973380D01*
X155973095Y-104925761D01*
X156877857Y-104878142D02*
X156925476Y-104925761D01*
X156877857Y-104973380D01*
X156830238Y-104925761D01*
X156877857Y-104878142D01*
X156877857Y-104973380D01*
X157782619Y-104925761D02*
X157687380Y-104973380D01*
X157496904Y-104973380D01*
X157401666Y-104925761D01*
X157354047Y-104878142D01*
X157306428Y-104782904D01*
X157306428Y-104497190D01*
X157354047Y-104401952D01*
X157401666Y-104354333D01*
X157496904Y-104306714D01*
X157687380Y-104306714D01*
X157782619Y-104354333D01*
X158354047Y-104973380D02*
X158258809Y-104925761D01*
X158211190Y-104878142D01*
X158163571Y-104782904D01*
X158163571Y-104497190D01*
X158211190Y-104401952D01*
X158258809Y-104354333D01*
X158354047Y-104306714D01*
X158496904Y-104306714D01*
X158592142Y-104354333D01*
X158639761Y-104401952D01*
X158687380Y-104497190D01*
X158687380Y-104782904D01*
X158639761Y-104878142D01*
X158592142Y-104925761D01*
X158496904Y-104973380D01*
X158354047Y-104973380D01*
X159115952Y-104973380D02*
X159115952Y-104306714D01*
X159115952Y-104401952D02*
X159163571Y-104354333D01*
X159258809Y-104306714D01*
X159401666Y-104306714D01*
X159496904Y-104354333D01*
X159544523Y-104449571D01*
X159544523Y-104973380D01*
X159544523Y-104449571D02*
X159592142Y-104354333D01*
X159687380Y-104306714D01*
X159830238Y-104306714D01*
X159925476Y-104354333D01*
X159973095Y-104449571D01*
X159973095Y-104973380D01*
X161163571Y-103925761D02*
X160306428Y-105211476D01*
X161830238Y-104449571D02*
X161496904Y-104449571D01*
X161496904Y-104973380D02*
X161496904Y-103973380D01*
X161973095Y-103973380D01*
X162306428Y-104925761D02*
X162449285Y-104973380D01*
X162687380Y-104973380D01*
X162782619Y-104925761D01*
X162830238Y-104878142D01*
X162877857Y-104782904D01*
X162877857Y-104687666D01*
X162830238Y-104592428D01*
X162782619Y-104544809D01*
X162687380Y-104497190D01*
X162496904Y-104449571D01*
X162401666Y-104401952D01*
X162354047Y-104354333D01*
X162306428Y-104259095D01*
X162306428Y-104163857D01*
X162354047Y-104068619D01*
X162401666Y-104021000D01*
X162496904Y-103973380D01*
X162734999Y-103973380D01*
X162877857Y-104021000D01*
X163734999Y-104306714D02*
X163734999Y-104973380D01*
X163306428Y-104306714D02*
X163306428Y-104830523D01*
X163354047Y-104925761D01*
X163449285Y-104973380D01*
X163592142Y-104973380D01*
X163687380Y-104925761D01*
X163734999Y-104878142D01*
X164211190Y-104306714D02*
X164211190Y-104973380D01*
X164211190Y-104401952D02*
X164258809Y-104354333D01*
X164354047Y-104306714D01*
X164496904Y-104306714D01*
X164592142Y-104354333D01*
X164639761Y-104449571D01*
X164639761Y-104973380D01*
X165544523Y-104973380D02*
X165544523Y-103973380D01*
X165544523Y-104925761D02*
X165449285Y-104973380D01*
X165258809Y-104973380D01*
X165163571Y-104925761D01*
X165115952Y-104878142D01*
X165068333Y-104782904D01*
X165068333Y-104497190D01*
X165115952Y-104401952D01*
X165163571Y-104354333D01*
X165258809Y-104306714D01*
X165449285Y-104306714D01*
X165544523Y-104354333D01*
X166734999Y-103925761D02*
X165877857Y-105211476D01*
X167068333Y-104306714D02*
X167068333Y-105306714D01*
X167068333Y-104354333D02*
X167163571Y-104306714D01*
X167354047Y-104306714D01*
X167449285Y-104354333D01*
X167496904Y-104401952D01*
X167544523Y-104497190D01*
X167544523Y-104782904D01*
X167496904Y-104878142D01*
X167449285Y-104925761D01*
X167354047Y-104973380D01*
X167163571Y-104973380D01*
X167068333Y-104925761D01*
X167830238Y-104306714D02*
X168211190Y-104306714D01*
X167973095Y-103973380D02*
X167973095Y-104830523D01*
X168020714Y-104925761D01*
X168115952Y-104973380D01*
X168211190Y-104973380D01*
X168925476Y-104925761D02*
X168830238Y-104973380D01*
X168639761Y-104973380D01*
X168544523Y-104925761D01*
X168496904Y-104830523D01*
X168496904Y-104449571D01*
X168544523Y-104354333D01*
X168639761Y-104306714D01*
X168830238Y-104306714D01*
X168925476Y-104354333D01*
X168973095Y-104449571D01*
X168973095Y-104544809D01*
X168496904Y-104640047D01*
X169401666Y-104973380D02*
X169401666Y-104306714D01*
X169401666Y-104497190D02*
X169449285Y-104401952D01*
X169496904Y-104354333D01*
X169592142Y-104306714D01*
X169687380Y-104306714D01*
X170163571Y-104973380D02*
X170068333Y-104925761D01*
X170020714Y-104878142D01*
X169973095Y-104782904D01*
X169973095Y-104497190D01*
X170020714Y-104401952D01*
X170068333Y-104354333D01*
X170163571Y-104306714D01*
X170306428Y-104306714D01*
X170401666Y-104354333D01*
X170449285Y-104401952D01*
X170496904Y-104497190D01*
X170496904Y-104782904D01*
X170449285Y-104878142D01*
X170401666Y-104925761D01*
X170306428Y-104973380D01*
X170163571Y-104973380D01*
X170925476Y-104306714D02*
X170925476Y-104973380D01*
X170925476Y-104401952D02*
X170973095Y-104354333D01*
X171068333Y-104306714D01*
X171211190Y-104306714D01*
X171306428Y-104354333D01*
X171354047Y-104449571D01*
X171354047Y-104973380D01*
X171830238Y-104592428D02*
X172592142Y-104592428D01*
X173068333Y-104973380D02*
X173068333Y-103973380D01*
X173163571Y-104592428D02*
X173449285Y-104973380D01*
X173449285Y-104306714D02*
X173068333Y-104687666D01*
X174258809Y-104925761D02*
X174163571Y-104973380D01*
X173973095Y-104973380D01*
X173877857Y-104925761D01*
X173830238Y-104830523D01*
X173830238Y-104449571D01*
X173877857Y-104354333D01*
X173973095Y-104306714D01*
X174163571Y-104306714D01*
X174258809Y-104354333D01*
X174306428Y-104449571D01*
X174306428Y-104544809D01*
X173830238Y-104640047D01*
X174639761Y-104306714D02*
X174877857Y-104973380D01*
X175115952Y-104306714D02*
X174877857Y-104973380D01*
X174782619Y-105211476D01*
X174734999Y-105259095D01*
X174639761Y-105306714D01*
X175496904Y-104973380D02*
X175496904Y-103973380D01*
X175496904Y-104354333D02*
X175592142Y-104306714D01*
X175782619Y-104306714D01*
X175877857Y-104354333D01*
X175925476Y-104401952D01*
X175973095Y-104497190D01*
X175973095Y-104782904D01*
X175925476Y-104878142D01*
X175877857Y-104925761D01*
X175782619Y-104973380D01*
X175592142Y-104973380D01*
X175496904Y-104925761D01*
X176544523Y-104973380D02*
X176449285Y-104925761D01*
X176401666Y-104878142D01*
X176354047Y-104782904D01*
X176354047Y-104497190D01*
X176401666Y-104401952D01*
X176449285Y-104354333D01*
X176544523Y-104306714D01*
X176687380Y-104306714D01*
X176782619Y-104354333D01*
X176830238Y-104401952D01*
X176877857Y-104497190D01*
X176877857Y-104782904D01*
X176830238Y-104878142D01*
X176782619Y-104925761D01*
X176687380Y-104973380D01*
X176544523Y-104973380D01*
X177734999Y-104973380D02*
X177734999Y-104449571D01*
X177687380Y-104354333D01*
X177592142Y-104306714D01*
X177401666Y-104306714D01*
X177306428Y-104354333D01*
X177734999Y-104925761D02*
X177639761Y-104973380D01*
X177401666Y-104973380D01*
X177306428Y-104925761D01*
X177258809Y-104830523D01*
X177258809Y-104735285D01*
X177306428Y-104640047D01*
X177401666Y-104592428D01*
X177639761Y-104592428D01*
X177734999Y-104544809D01*
X178211190Y-104973380D02*
X178211190Y-104306714D01*
X178211190Y-104497190D02*
X178258809Y-104401952D01*
X178306428Y-104354333D01*
X178401666Y-104306714D01*
X178496904Y-104306714D01*
X179258809Y-104973380D02*
X179258809Y-103973380D01*
X179258809Y-104925761D02*
X179163571Y-104973380D01*
X178973095Y-104973380D01*
X178877857Y-104925761D01*
X178830238Y-104878142D01*
X178782619Y-104782904D01*
X178782619Y-104497190D01*
X178830238Y-104401952D01*
X178877857Y-104354333D01*
X178973095Y-104306714D01*
X179163571Y-104306714D01*
X179258809Y-104354333D01*
D11*
X156354000Y-99885571D02*
X156354000Y-98385571D01*
X156925428Y-98385571D01*
X157068285Y-98457000D01*
X157139714Y-98528428D01*
X157211142Y-98671285D01*
X157211142Y-98885571D01*
X157139714Y-99028428D01*
X157068285Y-99099857D01*
X156925428Y-99171285D01*
X156354000Y-99171285D01*
X157639714Y-98885571D02*
X158211142Y-98885571D01*
X157854000Y-98385571D02*
X157854000Y-99671285D01*
X157925428Y-99814142D01*
X158068285Y-99885571D01*
X158211142Y-99885571D01*
X159282571Y-99814142D02*
X159139714Y-99885571D01*
X158854000Y-99885571D01*
X158711142Y-99814142D01*
X158639714Y-99671285D01*
X158639714Y-99099857D01*
X158711142Y-98957000D01*
X158854000Y-98885571D01*
X159139714Y-98885571D01*
X159282571Y-98957000D01*
X159354000Y-99099857D01*
X159354000Y-99242714D01*
X158639714Y-99385571D01*
X159996857Y-99885571D02*
X159996857Y-98885571D01*
X159996857Y-99171285D02*
X160068285Y-99028428D01*
X160139714Y-98957000D01*
X160282571Y-98885571D01*
X160425428Y-98885571D01*
X161139714Y-99885571D02*
X160996857Y-99814142D01*
X160925428Y-99742714D01*
X160854000Y-99599857D01*
X160854000Y-99171285D01*
X160925428Y-99028428D01*
X160996857Y-98957000D01*
X161139714Y-98885571D01*
X161354000Y-98885571D01*
X161496857Y-98957000D01*
X161568285Y-99028428D01*
X161639714Y-99171285D01*
X161639714Y-99599857D01*
X161568285Y-99742714D01*
X161496857Y-99814142D01*
X161354000Y-99885571D01*
X161139714Y-99885571D01*
X162282571Y-98885571D02*
X162282571Y-99885571D01*
X162282571Y-99028428D02*
X162354000Y-98957000D01*
X162496857Y-98885571D01*
X162711142Y-98885571D01*
X162854000Y-98957000D01*
X162925428Y-99099857D01*
X162925428Y-99885571D01*
X164782571Y-99885571D02*
X164782571Y-98385571D01*
X165639714Y-99885571D02*
X164996857Y-99028428D01*
X165639714Y-98385571D02*
X164782571Y-99242714D01*
X166854000Y-99814142D02*
X166711142Y-99885571D01*
X166425428Y-99885571D01*
X166282571Y-99814142D01*
X166211142Y-99671285D01*
X166211142Y-99099857D01*
X166282571Y-98957000D01*
X166425428Y-98885571D01*
X166711142Y-98885571D01*
X166854000Y-98957000D01*
X166925428Y-99099857D01*
X166925428Y-99242714D01*
X166211142Y-99385571D01*
X167425428Y-98885571D02*
X167782571Y-99885571D01*
X168139714Y-98885571D02*
X167782571Y-99885571D01*
X167639714Y-100242714D01*
X167568285Y-100314142D01*
X167425428Y-100385571D01*
X168711142Y-99885571D02*
X168711142Y-98385571D01*
X168711142Y-98957000D02*
X168854000Y-98885571D01*
X169139714Y-98885571D01*
X169282571Y-98957000D01*
X169354000Y-99028428D01*
X169425428Y-99171285D01*
X169425428Y-99599857D01*
X169354000Y-99742714D01*
X169282571Y-99814142D01*
X169139714Y-99885571D01*
X168854000Y-99885571D01*
X168711142Y-99814142D01*
X170282571Y-99885571D02*
X170139714Y-99814142D01*
X170068285Y-99742714D01*
X169996857Y-99599857D01*
X169996857Y-99171285D01*
X170068285Y-99028428D01*
X170139714Y-98957000D01*
X170282571Y-98885571D01*
X170496857Y-98885571D01*
X170639714Y-98957000D01*
X170711142Y-99028428D01*
X170782571Y-99171285D01*
X170782571Y-99599857D01*
X170711142Y-99742714D01*
X170639714Y-99814142D01*
X170496857Y-99885571D01*
X170282571Y-99885571D01*
X172068285Y-99885571D02*
X172068285Y-99099857D01*
X171996857Y-98957000D01*
X171854000Y-98885571D01*
X171568285Y-98885571D01*
X171425428Y-98957000D01*
X172068285Y-99814142D02*
X171925428Y-99885571D01*
X171568285Y-99885571D01*
X171425428Y-99814142D01*
X171354000Y-99671285D01*
X171354000Y-99528428D01*
X171425428Y-99385571D01*
X171568285Y-99314142D01*
X171925428Y-99314142D01*
X172068285Y-99242714D01*
X172782571Y-99885571D02*
X172782571Y-98885571D01*
X172782571Y-99171285D02*
X172854000Y-99028428D01*
X172925428Y-98957000D01*
X173068285Y-98885571D01*
X173211142Y-98885571D01*
X174354000Y-99885571D02*
X174354000Y-98385571D01*
X174354000Y-99814142D02*
X174211142Y-99885571D01*
X173925428Y-99885571D01*
X173782571Y-99814142D01*
X173711142Y-99742714D01*
X173639714Y-99599857D01*
X173639714Y-99171285D01*
X173711142Y-99028428D01*
X173782571Y-98957000D01*
X173925428Y-98885571D01*
X174211142Y-98885571D01*
X174354000Y-98957000D01*
X155604000Y-102385571D02*
X155604000Y-100885571D01*
X155604000Y-102314142D02*
X155461142Y-102385571D01*
X155175428Y-102385571D01*
X155032571Y-102314142D01*
X154961142Y-102242714D01*
X154889714Y-102099857D01*
X154889714Y-101671285D01*
X154961142Y-101528428D01*
X155032571Y-101457000D01*
X155175428Y-101385571D01*
X155461142Y-101385571D01*
X155604000Y-101457000D01*
X156889714Y-102314142D02*
X156746857Y-102385571D01*
X156461142Y-102385571D01*
X156318285Y-102314142D01*
X156246857Y-102171285D01*
X156246857Y-101599857D01*
X156318285Y-101457000D01*
X156461142Y-101385571D01*
X156746857Y-101385571D01*
X156889714Y-101457000D01*
X156961142Y-101599857D01*
X156961142Y-101742714D01*
X156246857Y-101885571D01*
X157532571Y-102314142D02*
X157675428Y-102385571D01*
X157961142Y-102385571D01*
X158104000Y-102314142D01*
X158175428Y-102171285D01*
X158175428Y-102099857D01*
X158104000Y-101957000D01*
X157961142Y-101885571D01*
X157746857Y-101885571D01*
X157604000Y-101814142D01*
X157532571Y-101671285D01*
X157532571Y-101599857D01*
X157604000Y-101457000D01*
X157746857Y-101385571D01*
X157961142Y-101385571D01*
X158104000Y-101457000D01*
X158818285Y-102385571D02*
X158818285Y-101385571D01*
X158818285Y-100885571D02*
X158746857Y-100957000D01*
X158818285Y-101028428D01*
X158889714Y-100957000D01*
X158818285Y-100885571D01*
X158818285Y-101028428D01*
X160175428Y-101385571D02*
X160175428Y-102599857D01*
X160104000Y-102742714D01*
X160032571Y-102814142D01*
X159889714Y-102885571D01*
X159675428Y-102885571D01*
X159532571Y-102814142D01*
X160175428Y-102314142D02*
X160032571Y-102385571D01*
X159746857Y-102385571D01*
X159604000Y-102314142D01*
X159532571Y-102242714D01*
X159461142Y-102099857D01*
X159461142Y-101671285D01*
X159532571Y-101528428D01*
X159604000Y-101457000D01*
X159746857Y-101385571D01*
X160032571Y-101385571D01*
X160175428Y-101457000D01*
X160889714Y-101385571D02*
X160889714Y-102385571D01*
X160889714Y-101528428D02*
X160961142Y-101457000D01*
X161104000Y-101385571D01*
X161318285Y-101385571D01*
X161461142Y-101457000D01*
X161532571Y-101599857D01*
X161532571Y-102385571D01*
X162818285Y-102314142D02*
X162675428Y-102385571D01*
X162389714Y-102385571D01*
X162246857Y-102314142D01*
X162175428Y-102171285D01*
X162175428Y-101599857D01*
X162246857Y-101457000D01*
X162389714Y-101385571D01*
X162675428Y-101385571D01*
X162818285Y-101457000D01*
X162889714Y-101599857D01*
X162889714Y-101742714D01*
X162175428Y-101885571D01*
X164175428Y-102385571D02*
X164175428Y-100885571D01*
X164175428Y-102314142D02*
X164032571Y-102385571D01*
X163746857Y-102385571D01*
X163604000Y-102314142D01*
X163532571Y-102242714D01*
X163461142Y-102099857D01*
X163461142Y-101671285D01*
X163532571Y-101528428D01*
X163604000Y-101457000D01*
X163746857Y-101385571D01*
X164032571Y-101385571D01*
X164175428Y-101457000D01*
X166032571Y-102385571D02*
X166032571Y-100885571D01*
X166032571Y-101457000D02*
X166175428Y-101385571D01*
X166461142Y-101385571D01*
X166604000Y-101457000D01*
X166675428Y-101528428D01*
X166746857Y-101671285D01*
X166746857Y-102099857D01*
X166675428Y-102242714D01*
X166604000Y-102314142D01*
X166461142Y-102385571D01*
X166175428Y-102385571D01*
X166032571Y-102314142D01*
X167246857Y-101385571D02*
X167604000Y-102385571D01*
X167961142Y-101385571D02*
X167604000Y-102385571D01*
X167461142Y-102742714D01*
X167389714Y-102814142D01*
X167246857Y-102885571D01*
X170175428Y-101599857D02*
X169675428Y-101599857D01*
X169675428Y-102385571D02*
X169675428Y-100885571D01*
X170389714Y-100885571D01*
X170889714Y-102314142D02*
X171104000Y-102385571D01*
X171461142Y-102385571D01*
X171604000Y-102314142D01*
X171675428Y-102242714D01*
X171746857Y-102099857D01*
X171746857Y-101957000D01*
X171675428Y-101814142D01*
X171604000Y-101742714D01*
X171461142Y-101671285D01*
X171175428Y-101599857D01*
X171032571Y-101528428D01*
X170961142Y-101457000D01*
X170889714Y-101314142D01*
X170889714Y-101171285D01*
X170961142Y-101028428D01*
X171032571Y-100957000D01*
X171175428Y-100885571D01*
X171532571Y-100885571D01*
X171746857Y-100957000D01*
X173032571Y-101385571D02*
X173032571Y-102385571D01*
X172389714Y-101385571D02*
X172389714Y-102171285D01*
X172461142Y-102314142D01*
X172604000Y-102385571D01*
X172818285Y-102385571D01*
X172961142Y-102314142D01*
X173032571Y-102242714D01*
X173746857Y-101385571D02*
X173746857Y-102385571D01*
X173746857Y-101528428D02*
X173818285Y-101457000D01*
X173961142Y-101385571D01*
X174175428Y-101385571D01*
X174318285Y-101457000D01*
X174389714Y-101599857D01*
X174389714Y-102385571D01*
X175746857Y-102385571D02*
X175746857Y-100885571D01*
X175746857Y-102314142D02*
X175604000Y-102385571D01*
X175318285Y-102385571D01*
X175175428Y-102314142D01*
X175104000Y-102242714D01*
X175032571Y-102099857D01*
X175032571Y-101671285D01*
X175104000Y-101528428D01*
X175175428Y-101457000D01*
X175318285Y-101385571D01*
X175604000Y-101385571D01*
X175746857Y-101457000D01*
D10*
X103274761Y-98161333D02*
X103322380Y-98018476D01*
X103322380Y-97780380D01*
X103274761Y-97685142D01*
X103227142Y-97637523D01*
X103131904Y-97589904D01*
X103036666Y-97589904D01*
X102941428Y-97637523D01*
X102893809Y-97685142D01*
X102846190Y-97780380D01*
X102798571Y-97970857D01*
X102750952Y-98066095D01*
X102703333Y-98113714D01*
X102608095Y-98161333D01*
X102512857Y-98161333D01*
X102417619Y-98113714D01*
X102370000Y-98066095D01*
X102322380Y-97970857D01*
X102322380Y-97732761D01*
X102370000Y-97589904D01*
X102655714Y-97161333D02*
X103655714Y-97161333D01*
X102703333Y-97161333D02*
X102655714Y-97066095D01*
X102655714Y-96875619D01*
X102703333Y-96780380D01*
X102750952Y-96732761D01*
X102846190Y-96685142D01*
X103131904Y-96685142D01*
X103227142Y-96732761D01*
X103274761Y-96780380D01*
X103322380Y-96875619D01*
X103322380Y-97066095D01*
X103274761Y-97161333D01*
X103322380Y-96113714D02*
X103274761Y-96208952D01*
X103179523Y-96256571D01*
X102322380Y-96256571D01*
X103322380Y-95732761D02*
X102655714Y-95732761D01*
X102322380Y-95732761D02*
X102370000Y-95780380D01*
X102417619Y-95732761D01*
X102370000Y-95685142D01*
X102322380Y-95732761D01*
X102417619Y-95732761D01*
X102655714Y-95399428D02*
X102655714Y-95018476D01*
X102322380Y-95256571D02*
X103179523Y-95256571D01*
X103274761Y-95208952D01*
X103322380Y-95113714D01*
X103322380Y-95018476D01*
X103322380Y-93923238D02*
X102322380Y-93923238D01*
X102322380Y-93542285D01*
X102370000Y-93447047D01*
X102417619Y-93399428D01*
X102512857Y-93351809D01*
X102655714Y-93351809D01*
X102750952Y-93399428D01*
X102798571Y-93447047D01*
X102846190Y-93542285D01*
X102846190Y-93923238D01*
X103227142Y-92351809D02*
X103274761Y-92399428D01*
X103322380Y-92542285D01*
X103322380Y-92637523D01*
X103274761Y-92780380D01*
X103179523Y-92875619D01*
X103084285Y-92923238D01*
X102893809Y-92970857D01*
X102750952Y-92970857D01*
X102560476Y-92923238D01*
X102465238Y-92875619D01*
X102370000Y-92780380D01*
X102322380Y-92637523D01*
X102322380Y-92542285D01*
X102370000Y-92399428D01*
X102417619Y-92351809D01*
X102798571Y-91589904D02*
X102846190Y-91447047D01*
X102893809Y-91399428D01*
X102989047Y-91351809D01*
X103131904Y-91351809D01*
X103227142Y-91399428D01*
X103274761Y-91447047D01*
X103322380Y-91542285D01*
X103322380Y-91923238D01*
X102322380Y-91923238D01*
X102322380Y-91589904D01*
X102370000Y-91494666D01*
X102417619Y-91447047D01*
X102512857Y-91399428D01*
X102608095Y-91399428D01*
X102703333Y-91447047D01*
X102750952Y-91494666D01*
X102798571Y-91589904D01*
X102798571Y-91923238D01*
X103322380Y-89732761D02*
X102322380Y-89732761D01*
X103274761Y-89732761D02*
X103322380Y-89828000D01*
X103322380Y-90018476D01*
X103274761Y-90113714D01*
X103227142Y-90161333D01*
X103131904Y-90208952D01*
X102846190Y-90208952D01*
X102750952Y-90161333D01*
X102703333Y-90113714D01*
X102655714Y-90018476D01*
X102655714Y-89828000D01*
X102703333Y-89732761D01*
X103274761Y-88875619D02*
X103322380Y-88970857D01*
X103322380Y-89161333D01*
X103274761Y-89256571D01*
X103179523Y-89304190D01*
X102798571Y-89304190D01*
X102703333Y-89256571D01*
X102655714Y-89161333D01*
X102655714Y-88970857D01*
X102703333Y-88875619D01*
X102798571Y-88828000D01*
X102893809Y-88828000D01*
X102989047Y-89304190D01*
X103274761Y-88447047D02*
X103322380Y-88351809D01*
X103322380Y-88161333D01*
X103274761Y-88066095D01*
X103179523Y-88018476D01*
X103131904Y-88018476D01*
X103036666Y-88066095D01*
X102989047Y-88161333D01*
X102989047Y-88304190D01*
X102941428Y-88399428D01*
X102846190Y-88447047D01*
X102798571Y-88447047D01*
X102703333Y-88399428D01*
X102655714Y-88304190D01*
X102655714Y-88161333D01*
X102703333Y-88066095D01*
X103322380Y-87589904D02*
X102655714Y-87589904D01*
X102322380Y-87589904D02*
X102370000Y-87637523D01*
X102417619Y-87589904D01*
X102370000Y-87542285D01*
X102322380Y-87589904D01*
X102417619Y-87589904D01*
X102655714Y-86685142D02*
X103465238Y-86685142D01*
X103560476Y-86732761D01*
X103608095Y-86780380D01*
X103655714Y-86875619D01*
X103655714Y-87018476D01*
X103608095Y-87113714D01*
X103274761Y-86685142D02*
X103322380Y-86780380D01*
X103322380Y-86970857D01*
X103274761Y-87066095D01*
X103227142Y-87113714D01*
X103131904Y-87161333D01*
X102846190Y-87161333D01*
X102750952Y-87113714D01*
X102703333Y-87066095D01*
X102655714Y-86970857D01*
X102655714Y-86780380D01*
X102703333Y-86685142D01*
X102655714Y-86208952D02*
X103322380Y-86208952D01*
X102750952Y-86208952D02*
X102703333Y-86161333D01*
X102655714Y-86066095D01*
X102655714Y-85923238D01*
X102703333Y-85828000D01*
X102798571Y-85780380D01*
X103322380Y-85780380D01*
X103274761Y-84923238D02*
X103322380Y-85018476D01*
X103322380Y-85208952D01*
X103274761Y-85304190D01*
X103179523Y-85351809D01*
X102798571Y-85351809D01*
X102703333Y-85304190D01*
X102655714Y-85208952D01*
X102655714Y-85018476D01*
X102703333Y-84923238D01*
X102798571Y-84875619D01*
X102893809Y-84875619D01*
X102989047Y-85351809D01*
X103322380Y-84018476D02*
X102322380Y-84018476D01*
X103274761Y-84018476D02*
X103322380Y-84113714D01*
X103322380Y-84304190D01*
X103274761Y-84399428D01*
X103227142Y-84447047D01*
X103131904Y-84494666D01*
X102846190Y-84494666D01*
X102750952Y-84447047D01*
X102703333Y-84399428D01*
X102655714Y-84304190D01*
X102655714Y-84113714D01*
X102703333Y-84018476D01*
X103322380Y-82780380D02*
X102322380Y-82780380D01*
X102703333Y-82780380D02*
X102655714Y-82685142D01*
X102655714Y-82494666D01*
X102703333Y-82399428D01*
X102750952Y-82351809D01*
X102846190Y-82304190D01*
X103131904Y-82304190D01*
X103227142Y-82351809D01*
X103274761Y-82399428D01*
X103322380Y-82494666D01*
X103322380Y-82685142D01*
X103274761Y-82780380D01*
X102655714Y-81970857D02*
X103322380Y-81732761D01*
X102655714Y-81494666D02*
X103322380Y-81732761D01*
X103560476Y-81828000D01*
X103608095Y-81875619D01*
X103655714Y-81970857D01*
X103322380Y-80351809D02*
X102322380Y-80351809D01*
X103322380Y-79923238D02*
X102798571Y-79923238D01*
X102703333Y-79970857D01*
X102655714Y-80066095D01*
X102655714Y-80208952D01*
X102703333Y-80304190D01*
X102750952Y-80351809D01*
X103322380Y-79018476D02*
X102798571Y-79018476D01*
X102703333Y-79066095D01*
X102655714Y-79161333D01*
X102655714Y-79351809D01*
X102703333Y-79447047D01*
X103274761Y-79018476D02*
X103322380Y-79113714D01*
X103322380Y-79351809D01*
X103274761Y-79447047D01*
X103179523Y-79494666D01*
X103084285Y-79494666D01*
X102989047Y-79447047D01*
X102941428Y-79351809D01*
X102941428Y-79113714D01*
X102893809Y-79018476D01*
X103322380Y-78542285D02*
X102655714Y-78542285D01*
X102846190Y-78542285D02*
X102750952Y-78494666D01*
X102703333Y-78447047D01*
X102655714Y-78351809D01*
X102655714Y-78256571D01*
X103274761Y-77970857D02*
X103322380Y-77875619D01*
X103322380Y-77685142D01*
X103274761Y-77589904D01*
X103179523Y-77542285D01*
X103131904Y-77542285D01*
X103036666Y-77589904D01*
X102989047Y-77685142D01*
X102989047Y-77828000D01*
X102941428Y-77923238D01*
X102846190Y-77970857D01*
X102798571Y-77970857D01*
X102703333Y-77923238D01*
X102655714Y-77828000D01*
X102655714Y-77685142D01*
X102703333Y-77589904D01*
X103322380Y-77113714D02*
X102322380Y-77113714D01*
X103322380Y-76685142D02*
X102798571Y-76685142D01*
X102703333Y-76732761D01*
X102655714Y-76828000D01*
X102655714Y-76970857D01*
X102703333Y-77066095D01*
X102750952Y-77113714D01*
X103322380Y-76208952D02*
X102655714Y-76208952D01*
X102322380Y-76208952D02*
X102370000Y-76256571D01*
X102417619Y-76208952D01*
X102370000Y-76161333D01*
X102322380Y-76208952D01*
X102417619Y-76208952D01*
X102655714Y-75875619D02*
X102655714Y-75494666D01*
X102322380Y-75732761D02*
X103179523Y-75732761D01*
X103274761Y-75685142D01*
X103322380Y-75589904D01*
X103322380Y-75494666D01*
X102655714Y-74732761D02*
X103465238Y-74732761D01*
X103560476Y-74780380D01*
X103608095Y-74828000D01*
X103655714Y-74923238D01*
X103655714Y-75066095D01*
X103608095Y-75161333D01*
X103274761Y-74732761D02*
X103322380Y-74828000D01*
X103322380Y-75018476D01*
X103274761Y-75113714D01*
X103227142Y-75161333D01*
X103131904Y-75208952D01*
X102846190Y-75208952D01*
X102750952Y-75161333D01*
X102703333Y-75113714D01*
X102655714Y-75018476D01*
X102655714Y-74828000D01*
X102703333Y-74732761D01*
X103322380Y-74113714D02*
X103274761Y-74208952D01*
X103227142Y-74256571D01*
X103131904Y-74304190D01*
X102846190Y-74304190D01*
X102750952Y-74256571D01*
X102703333Y-74208952D01*
X102655714Y-74113714D01*
X102655714Y-73970857D01*
X102703333Y-73875619D01*
X102750952Y-73828000D01*
X102846190Y-73780380D01*
X103131904Y-73780380D01*
X103227142Y-73828000D01*
X103274761Y-73875619D01*
X103322380Y-73970857D01*
X103322380Y-74113714D01*
X103274761Y-72970857D02*
X103322380Y-73066095D01*
X103322380Y-73256571D01*
X103274761Y-73351809D01*
X103179523Y-73399428D01*
X102798571Y-73399428D01*
X102703333Y-73351809D01*
X102655714Y-73256571D01*
X102655714Y-73066095D01*
X102703333Y-72970857D01*
X102798571Y-72923238D01*
X102893809Y-72923238D01*
X102989047Y-73399428D01*
X103322380Y-72351809D02*
X103274761Y-72447047D01*
X103179523Y-72494666D01*
X102322380Y-72494666D01*
X103322380Y-71923238D02*
X103322380Y-71732761D01*
X103274761Y-71637523D01*
X103227142Y-71589904D01*
X103084285Y-71494666D01*
X102893809Y-71447047D01*
X102512857Y-71447047D01*
X102417619Y-71494666D01*
X102370000Y-71542285D01*
X102322380Y-71637523D01*
X102322380Y-71828000D01*
X102370000Y-71923238D01*
X102417619Y-71970857D01*
X102512857Y-72018476D01*
X102750952Y-72018476D01*
X102846190Y-71970857D01*
X102893809Y-71923238D01*
X102941428Y-71828000D01*
X102941428Y-71637523D01*
X102893809Y-71542285D01*
X102846190Y-71494666D01*
X102750952Y-71447047D01*
X102322380Y-70589904D02*
X102322380Y-70780380D01*
X102370000Y-70875619D01*
X102417619Y-70923238D01*
X102560476Y-71018476D01*
X102750952Y-71066095D01*
X103131904Y-71066095D01*
X103227142Y-71018476D01*
X103274761Y-70970857D01*
X103322380Y-70875619D01*
X103322380Y-70685142D01*
X103274761Y-70589904D01*
X103227142Y-70542285D01*
X103131904Y-70494666D01*
X102893809Y-70494666D01*
X102798571Y-70542285D01*
X102750952Y-70589904D01*
X102703333Y-70685142D01*
X102703333Y-70875619D01*
X102750952Y-70970857D01*
X102798571Y-71018476D01*
X102893809Y-71066095D01*
D11*
X103568571Y-67098428D02*
X102068571Y-67098428D01*
X102068571Y-66527000D01*
X102140000Y-66384142D01*
X102211428Y-66312714D01*
X102354285Y-66241285D01*
X102568571Y-66241285D01*
X102711428Y-66312714D01*
X102782857Y-66384142D01*
X102854285Y-66527000D01*
X102854285Y-67098428D01*
X103425714Y-64741285D02*
X103497142Y-64812714D01*
X103568571Y-65027000D01*
X103568571Y-65169857D01*
X103497142Y-65384142D01*
X103354285Y-65527000D01*
X103211428Y-65598428D01*
X102925714Y-65669857D01*
X102711428Y-65669857D01*
X102425714Y-65598428D01*
X102282857Y-65527000D01*
X102140000Y-65384142D01*
X102068571Y-65169857D01*
X102068571Y-65027000D01*
X102140000Y-64812714D01*
X102211428Y-64741285D01*
X102782857Y-63598428D02*
X102854285Y-63384142D01*
X102925714Y-63312714D01*
X103068571Y-63241285D01*
X103282857Y-63241285D01*
X103425714Y-63312714D01*
X103497142Y-63384142D01*
X103568571Y-63527000D01*
X103568571Y-64098428D01*
X102068571Y-64098428D01*
X102068571Y-63598428D01*
X102140000Y-63455571D01*
X102211428Y-63384142D01*
X102354285Y-63312714D01*
X102497142Y-63312714D01*
X102640000Y-63384142D01*
X102711428Y-63455571D01*
X102782857Y-63598428D01*
X102782857Y-64098428D01*
X103568571Y-60812714D02*
X102068571Y-60812714D01*
X103497142Y-60812714D02*
X103568571Y-60955571D01*
X103568571Y-61241285D01*
X103497142Y-61384142D01*
X103425714Y-61455571D01*
X103282857Y-61527000D01*
X102854285Y-61527000D01*
X102711428Y-61455571D01*
X102640000Y-61384142D01*
X102568571Y-61241285D01*
X102568571Y-60955571D01*
X102640000Y-60812714D01*
X103497142Y-59527000D02*
X103568571Y-59669857D01*
X103568571Y-59955571D01*
X103497142Y-60098428D01*
X103354285Y-60169857D01*
X102782857Y-60169857D01*
X102640000Y-60098428D01*
X102568571Y-59955571D01*
X102568571Y-59669857D01*
X102640000Y-59527000D01*
X102782857Y-59455571D01*
X102925714Y-59455571D01*
X103068571Y-60169857D01*
X103497142Y-58884142D02*
X103568571Y-58741285D01*
X103568571Y-58455571D01*
X103497142Y-58312714D01*
X103354285Y-58241285D01*
X103282857Y-58241285D01*
X103140000Y-58312714D01*
X103068571Y-58455571D01*
X103068571Y-58669857D01*
X102997142Y-58812714D01*
X102854285Y-58884142D01*
X102782857Y-58884142D01*
X102640000Y-58812714D01*
X102568571Y-58669857D01*
X102568571Y-58455571D01*
X102640000Y-58312714D01*
X103568571Y-57598428D02*
X102568571Y-57598428D01*
X102068571Y-57598428D02*
X102140000Y-57669857D01*
X102211428Y-57598428D01*
X102140000Y-57527000D01*
X102068571Y-57598428D01*
X102211428Y-57598428D01*
X102568571Y-56241285D02*
X103782857Y-56241285D01*
X103925714Y-56312714D01*
X103997142Y-56384142D01*
X104068571Y-56527000D01*
X104068571Y-56741285D01*
X103997142Y-56884142D01*
X103497142Y-56241285D02*
X103568571Y-56384142D01*
X103568571Y-56669857D01*
X103497142Y-56812714D01*
X103425714Y-56884142D01*
X103282857Y-56955571D01*
X102854285Y-56955571D01*
X102711428Y-56884142D01*
X102640000Y-56812714D01*
X102568571Y-56669857D01*
X102568571Y-56384142D01*
X102640000Y-56241285D01*
X102568571Y-55527000D02*
X103568571Y-55527000D01*
X102711428Y-55527000D02*
X102640000Y-55455571D01*
X102568571Y-55312714D01*
X102568571Y-55098428D01*
X102640000Y-54955571D01*
X102782857Y-54884142D01*
X103568571Y-54884142D01*
X103497142Y-53598428D02*
X103568571Y-53741285D01*
X103568571Y-54027000D01*
X103497142Y-54169857D01*
X103354285Y-54241285D01*
X102782857Y-54241285D01*
X102640000Y-54169857D01*
X102568571Y-54027000D01*
X102568571Y-53741285D01*
X102640000Y-53598428D01*
X102782857Y-53527000D01*
X102925714Y-53527000D01*
X103068571Y-54241285D01*
X103568571Y-52241285D02*
X102068571Y-52241285D01*
X103497142Y-52241285D02*
X103568571Y-52384142D01*
X103568571Y-52669857D01*
X103497142Y-52812714D01*
X103425714Y-52884142D01*
X103282857Y-52955571D01*
X102854285Y-52955571D01*
X102711428Y-52884142D01*
X102640000Y-52812714D01*
X102568571Y-52669857D01*
X102568571Y-52384142D01*
X102640000Y-52241285D01*
X103568571Y-50384142D02*
X102068571Y-50384142D01*
X102640000Y-50384142D02*
X102568571Y-50241285D01*
X102568571Y-49955571D01*
X102640000Y-49812714D01*
X102711428Y-49741285D01*
X102854285Y-49669857D01*
X103282857Y-49669857D01*
X103425714Y-49741285D01*
X103497142Y-49812714D01*
X103568571Y-49955571D01*
X103568571Y-50241285D01*
X103497142Y-50384142D01*
X102568571Y-49169857D02*
X103568571Y-48812714D01*
X102568571Y-48455571D02*
X103568571Y-48812714D01*
X103925714Y-48955571D01*
X103997142Y-49027000D01*
X104068571Y-49169857D01*
X106068571Y-64777000D02*
X104568571Y-64777000D01*
X106068571Y-63919857D02*
X105211428Y-64562714D01*
X104568571Y-63919857D02*
X105425714Y-64777000D01*
X106068571Y-63277000D02*
X105068571Y-63277000D01*
X105354285Y-63277000D02*
X105211428Y-63205571D01*
X105140000Y-63134142D01*
X105068571Y-62991285D01*
X105068571Y-62848428D01*
X106068571Y-61705571D02*
X105282857Y-61705571D01*
X105140000Y-61777000D01*
X105068571Y-61919857D01*
X105068571Y-62205571D01*
X105140000Y-62348428D01*
X105997142Y-61705571D02*
X106068571Y-61848428D01*
X106068571Y-62205571D01*
X105997142Y-62348428D01*
X105854285Y-62419857D01*
X105711428Y-62419857D01*
X105568571Y-62348428D01*
X105497142Y-62205571D01*
X105497142Y-61848428D01*
X105425714Y-61705571D01*
X106068571Y-60991285D02*
X104568571Y-60991285D01*
X105497142Y-60848428D02*
X106068571Y-60419857D01*
X105068571Y-60419857D02*
X105640000Y-60991285D01*
X105997142Y-59205571D02*
X106068571Y-59348428D01*
X106068571Y-59634142D01*
X105997142Y-59777000D01*
X105854285Y-59848428D01*
X105282857Y-59848428D01*
X105140000Y-59777000D01*
X105068571Y-59634142D01*
X105068571Y-59348428D01*
X105140000Y-59205571D01*
X105282857Y-59134142D01*
X105425714Y-59134142D01*
X105568571Y-59848428D01*
X105068571Y-58491285D02*
X106068571Y-58491285D01*
X105211428Y-58491285D02*
X105140000Y-58419857D01*
X105068571Y-58277000D01*
X105068571Y-58062714D01*
X105140000Y-57919857D01*
X105282857Y-57848428D01*
X106068571Y-57848428D01*
X105497142Y-57134142D02*
X105497142Y-55991285D01*
X104568571Y-54848428D02*
X105640000Y-54848428D01*
X105854285Y-54919857D01*
X105997142Y-55062714D01*
X106068571Y-55277000D01*
X106068571Y-55419857D01*
X106068571Y-53919857D02*
X105997142Y-54062714D01*
X105925714Y-54134142D01*
X105782857Y-54205571D01*
X105354285Y-54205571D01*
X105211428Y-54134142D01*
X105140000Y-54062714D01*
X105068571Y-53919857D01*
X105068571Y-53705571D01*
X105140000Y-53562714D01*
X105211428Y-53491285D01*
X105354285Y-53419857D01*
X105782857Y-53419857D01*
X105925714Y-53491285D01*
X105997142Y-53562714D01*
X106068571Y-53705571D01*
X106068571Y-53919857D01*
X106068571Y-52777000D02*
X104568571Y-52777000D01*
X105497142Y-52634142D02*
X106068571Y-52205571D01*
X105068571Y-52205571D02*
X105640000Y-52777000D01*
X105997142Y-50991285D02*
X106068571Y-51134142D01*
X106068571Y-51419857D01*
X105997142Y-51562714D01*
X105854285Y-51634142D01*
X105282857Y-51634142D01*
X105140000Y-51562714D01*
X105068571Y-51419857D01*
X105068571Y-51134142D01*
X105140000Y-50991285D01*
X105282857Y-50919857D01*
X105425714Y-50919857D01*
X105568571Y-51634142D01*
X105997142Y-50348428D02*
X106068571Y-50205571D01*
X106068571Y-49919857D01*
X105997142Y-49777000D01*
X105854285Y-49705571D01*
X105782857Y-49705571D01*
X105640000Y-49777000D01*
X105568571Y-49919857D01*
X105568571Y-50134142D01*
X105497142Y-50277000D01*
X105354285Y-50348428D01*
X105282857Y-50348428D01*
X105140000Y-50277000D01*
X105068571Y-50134142D01*
X105068571Y-49919857D01*
X105140000Y-49777000D01*
D10*
%TO.C,D28*%
X112757245Y-97886640D02*
X112757245Y-92806640D01*
X112757245Y-92806640D02*
X111233245Y-92806640D01*
X111233245Y-92806640D02*
X111233245Y-97886640D01*
X111233245Y-97886640D02*
X112757245Y-97886640D01*
X112757245Y-97886640D02*
X112757245Y-97378640D01*
X112757245Y-93187640D02*
X111233245Y-93187640D01*
X111233245Y-93060640D02*
X112757245Y-93060640D01*
X112757245Y-92933640D02*
X111233245Y-92933640D01*
X111233245Y-93314640D02*
X112757245Y-93314640D01*
X112757245Y-93441640D02*
X111233245Y-93441640D01*
X112757245Y-93568640D02*
X111233245Y-93568640D01*
%TO.C,D27*%
X112665079Y-79032861D02*
X112665079Y-73952861D01*
X112665079Y-73952861D02*
X111141079Y-73952861D01*
X111141079Y-73952861D02*
X111141079Y-79032861D01*
X111141079Y-79032861D02*
X112665079Y-79032861D01*
X112665079Y-79032861D02*
X112665079Y-78524861D01*
X112665079Y-74333861D02*
X111141079Y-74333861D01*
X111141079Y-74206861D02*
X112665079Y-74206861D01*
X112665079Y-74079861D02*
X111141079Y-74079861D01*
X111141079Y-74460861D02*
X112665079Y-74460861D01*
X112665079Y-74587861D02*
X111141079Y-74587861D01*
X112665079Y-74714861D02*
X111141079Y-74714861D01*
%TO.C,D26*%
X112621426Y-59997964D02*
X112621426Y-54917964D01*
X112621426Y-54917964D02*
X111097426Y-54917964D01*
X111097426Y-54917964D02*
X111097426Y-59997964D01*
X111097426Y-59997964D02*
X112621426Y-59997964D01*
X112621426Y-59997964D02*
X112621426Y-59489964D01*
X112621426Y-55298964D02*
X111097426Y-55298964D01*
X111097426Y-55171964D02*
X112621426Y-55171964D01*
X112621426Y-55044964D02*
X111097426Y-55044964D01*
X111097426Y-55425964D02*
X112621426Y-55425964D01*
X112621426Y-55552964D02*
X111097426Y-55552964D01*
X112621426Y-55679964D02*
X111097426Y-55679964D01*
%TO.C,D25*%
X112849456Y-41035865D02*
X112849456Y-35955865D01*
X112849456Y-35955865D02*
X111325456Y-35955865D01*
X111325456Y-35955865D02*
X111325456Y-41035865D01*
X111325456Y-41035865D02*
X112849456Y-41035865D01*
X112849456Y-41035865D02*
X112849456Y-40527865D01*
X112849456Y-36336865D02*
X111325456Y-36336865D01*
X111325456Y-36209865D02*
X112849456Y-36209865D01*
X112849456Y-36082865D02*
X111325456Y-36082865D01*
X111325456Y-36463865D02*
X112849456Y-36463865D01*
X112849456Y-36590865D02*
X111325456Y-36590865D01*
X112849456Y-36717865D02*
X111325456Y-36717865D01*
%TO.C,D24*%
X131769609Y-96478162D02*
X131769609Y-91398162D01*
X131769609Y-91398162D02*
X130245609Y-91398162D01*
X130245609Y-91398162D02*
X130245609Y-96478162D01*
X130245609Y-96478162D02*
X131769609Y-96478162D01*
X131769609Y-96478162D02*
X131769609Y-95970162D01*
X131769609Y-91779162D02*
X130245609Y-91779162D01*
X130245609Y-91652162D02*
X131769609Y-91652162D01*
X131769609Y-91525162D02*
X130245609Y-91525162D01*
X130245609Y-91906162D02*
X131769609Y-91906162D01*
X131769609Y-92033162D02*
X130245609Y-92033162D01*
X131769609Y-92160162D02*
X130245609Y-92160162D01*
%TO.C,D23*%
X131931349Y-77401240D02*
X131931349Y-72321240D01*
X131931349Y-72321240D02*
X130407349Y-72321240D01*
X130407349Y-72321240D02*
X130407349Y-77401240D01*
X130407349Y-77401240D02*
X131931349Y-77401240D01*
X131931349Y-77401240D02*
X131931349Y-76893240D01*
X131931349Y-72702240D02*
X130407349Y-72702240D01*
X130407349Y-72575240D02*
X131931349Y-72575240D01*
X131931349Y-72448240D02*
X130407349Y-72448240D01*
X130407349Y-72829240D02*
X131931349Y-72829240D01*
X131931349Y-72956240D02*
X130407349Y-72956240D01*
X131931349Y-73083240D02*
X130407349Y-73083240D01*
%TO.C,D22*%
X131779392Y-58046155D02*
X131779392Y-52966155D01*
X131779392Y-52966155D02*
X130255392Y-52966155D01*
X130255392Y-52966155D02*
X130255392Y-58046155D01*
X130255392Y-58046155D02*
X131779392Y-58046155D01*
X131779392Y-58046155D02*
X131779392Y-57538155D01*
X131779392Y-53347155D02*
X130255392Y-53347155D01*
X130255392Y-53220155D02*
X131779392Y-53220155D01*
X131779392Y-53093155D02*
X130255392Y-53093155D01*
X130255392Y-53474155D02*
X131779392Y-53474155D01*
X131779392Y-53601155D02*
X130255392Y-53601155D01*
X131779392Y-53728155D02*
X130255392Y-53728155D01*
%TO.C,D21*%
X131819795Y-39422007D02*
X131819795Y-34342007D01*
X131819795Y-34342007D02*
X130295795Y-34342007D01*
X130295795Y-34342007D02*
X130295795Y-39422007D01*
X130295795Y-39422007D02*
X131819795Y-39422007D01*
X131819795Y-39422007D02*
X131819795Y-38914007D01*
X131819795Y-34723007D02*
X130295795Y-34723007D01*
X130295795Y-34596007D02*
X131819795Y-34596007D01*
X131819795Y-34469007D02*
X130295795Y-34469007D01*
X130295795Y-34850007D02*
X131819795Y-34850007D01*
X131819795Y-34977007D02*
X130295795Y-34977007D01*
X131819795Y-35104007D02*
X130295795Y-35104007D01*
%TO.C,D19*%
X150954403Y-90605988D02*
X150954403Y-85525988D01*
X150954403Y-85525988D02*
X149430403Y-85525988D01*
X149430403Y-85525988D02*
X149430403Y-90605988D01*
X149430403Y-90605988D02*
X150954403Y-90605988D01*
X150954403Y-90605988D02*
X150954403Y-90097988D01*
X150954403Y-85906988D02*
X149430403Y-85906988D01*
X149430403Y-85779988D02*
X150954403Y-85779988D01*
X150954403Y-85652988D02*
X149430403Y-85652988D01*
X149430403Y-86033988D02*
X150954403Y-86033988D01*
X150954403Y-86160988D02*
X149430403Y-86160988D01*
X150954403Y-86287988D02*
X149430403Y-86287988D01*
%TO.C,D18*%
X151048156Y-71762239D02*
X151048156Y-66682239D01*
X151048156Y-66682239D02*
X149524156Y-66682239D01*
X149524156Y-66682239D02*
X149524156Y-71762239D01*
X149524156Y-71762239D02*
X151048156Y-71762239D01*
X151048156Y-71762239D02*
X151048156Y-71254239D01*
X151048156Y-67063239D02*
X149524156Y-67063239D01*
X149524156Y-66936239D02*
X151048156Y-66936239D01*
X151048156Y-66809239D02*
X149524156Y-66809239D01*
X149524156Y-67190239D02*
X151048156Y-67190239D01*
X151048156Y-67317239D02*
X149524156Y-67317239D01*
X151048156Y-67444239D02*
X149524156Y-67444239D01*
%TO.C,D17*%
X162877500Y-52419250D02*
X157797500Y-52419250D01*
X157797500Y-52419250D02*
X157797500Y-53943250D01*
X157797500Y-53943250D02*
X162877500Y-53943250D01*
X162877500Y-53943250D02*
X162877500Y-52419250D01*
X162877500Y-52419250D02*
X162369500Y-52419250D01*
X158178500Y-52419250D02*
X158178500Y-53943250D01*
X158051500Y-53943250D02*
X158051500Y-52419250D01*
X157924500Y-52419250D02*
X157924500Y-53943250D01*
X158305500Y-53943250D02*
X158305500Y-52419250D01*
X158432500Y-52419250D02*
X158432500Y-53943250D01*
X158559500Y-52419250D02*
X158559500Y-53943250D01*
%TO.C,D16*%
X162083750Y-33369250D02*
X157003750Y-33369250D01*
X157003750Y-33369250D02*
X157003750Y-34893250D01*
X157003750Y-34893250D02*
X162083750Y-34893250D01*
X162083750Y-34893250D02*
X162083750Y-33369250D01*
X162083750Y-33369250D02*
X161575750Y-33369250D01*
X157384750Y-33369250D02*
X157384750Y-34893250D01*
X157257750Y-34893250D02*
X157257750Y-33369250D01*
X157130750Y-33369250D02*
X157130750Y-34893250D01*
X157511750Y-34893250D02*
X157511750Y-33369250D01*
X157638750Y-33369250D02*
X157638750Y-34893250D01*
X157765750Y-33369250D02*
X157765750Y-34893250D01*
%TO.C,D14*%
X169878409Y-94071959D02*
X169878409Y-88991959D01*
X169878409Y-88991959D02*
X168354409Y-88991959D01*
X168354409Y-88991959D02*
X168354409Y-94071959D01*
X168354409Y-94071959D02*
X169878409Y-94071959D01*
X169878409Y-94071959D02*
X169878409Y-93563959D01*
X169878409Y-89372959D02*
X168354409Y-89372959D01*
X168354409Y-89245959D02*
X169878409Y-89245959D01*
X169878409Y-89118959D02*
X168354409Y-89118959D01*
X168354409Y-89499959D02*
X169878409Y-89499959D01*
X169878409Y-89626959D02*
X168354409Y-89626959D01*
X169878409Y-89753959D02*
X168354409Y-89753959D01*
%TO.C,D13*%
X169907564Y-74765398D02*
X169907564Y-69685398D01*
X169907564Y-69685398D02*
X168383564Y-69685398D01*
X168383564Y-69685398D02*
X168383564Y-74765398D01*
X168383564Y-74765398D02*
X169907564Y-74765398D01*
X169907564Y-74765398D02*
X169907564Y-74257398D01*
X169907564Y-70066398D02*
X168383564Y-70066398D01*
X168383564Y-69939398D02*
X169907564Y-69939398D01*
X169907564Y-69812398D02*
X168383564Y-69812398D01*
X168383564Y-70193398D02*
X169907564Y-70193398D01*
X169907564Y-70320398D02*
X168383564Y-70320398D01*
X169907564Y-70447398D02*
X168383564Y-70447398D01*
%TO.C,D12*%
X181927500Y-56388000D02*
X176847500Y-56388000D01*
X176847500Y-56388000D02*
X176847500Y-57912000D01*
X176847500Y-57912000D02*
X181927500Y-57912000D01*
X181927500Y-57912000D02*
X181927500Y-56388000D01*
X181927500Y-56388000D02*
X181419500Y-56388000D01*
X177228500Y-56388000D02*
X177228500Y-57912000D01*
X177101500Y-57912000D02*
X177101500Y-56388000D01*
X176974500Y-56388000D02*
X176974500Y-57912000D01*
X177355500Y-57912000D02*
X177355500Y-56388000D01*
X177482500Y-56388000D02*
X177482500Y-57912000D01*
X177609500Y-56388000D02*
X177609500Y-57912000D01*
%TO.C,D11*%
X181133750Y-36544250D02*
X176053750Y-36544250D01*
X176053750Y-36544250D02*
X176053750Y-38068250D01*
X176053750Y-38068250D02*
X181133750Y-38068250D01*
X181133750Y-38068250D02*
X181133750Y-36544250D01*
X181133750Y-36544250D02*
X180625750Y-36544250D01*
X176434750Y-36544250D02*
X176434750Y-38068250D01*
X176307750Y-38068250D02*
X176307750Y-36544250D01*
X176180750Y-36544250D02*
X176180750Y-38068250D01*
X176561750Y-38068250D02*
X176561750Y-36544250D01*
X176688750Y-36544250D02*
X176688750Y-38068250D01*
X176815750Y-36544250D02*
X176815750Y-38068250D01*
%TO.C,D9*%
X188635952Y-103756766D02*
X188635952Y-98676766D01*
X188635952Y-98676766D02*
X187111952Y-98676766D01*
X187111952Y-98676766D02*
X187111952Y-103756766D01*
X187111952Y-103756766D02*
X188635952Y-103756766D01*
X188635952Y-103756766D02*
X188635952Y-103248766D01*
X188635952Y-99057766D02*
X187111952Y-99057766D01*
X187111952Y-98930766D02*
X188635952Y-98930766D01*
X188635952Y-98803766D02*
X187111952Y-98803766D01*
X187111952Y-99184766D02*
X188635952Y-99184766D01*
X188635952Y-99311766D02*
X187111952Y-99311766D01*
X188635952Y-99438766D02*
X187111952Y-99438766D01*
%TO.C,D8*%
X188961026Y-84432443D02*
X188961026Y-79352443D01*
X188961026Y-79352443D02*
X187437026Y-79352443D01*
X187437026Y-79352443D02*
X187437026Y-84432443D01*
X187437026Y-84432443D02*
X188961026Y-84432443D01*
X188961026Y-84432443D02*
X188961026Y-83924443D01*
X188961026Y-79733443D02*
X187437026Y-79733443D01*
X187437026Y-79606443D02*
X188961026Y-79606443D01*
X188961026Y-79479443D02*
X187437026Y-79479443D01*
X187437026Y-79860443D02*
X188961026Y-79860443D01*
X188961026Y-79987443D02*
X187437026Y-79987443D01*
X188961026Y-80114443D02*
X187437026Y-80114443D01*
%TO.C,D7*%
X188985421Y-64056973D02*
X188985421Y-58976973D01*
X188985421Y-58976973D02*
X187461421Y-58976973D01*
X187461421Y-58976973D02*
X187461421Y-64056973D01*
X187461421Y-64056973D02*
X188985421Y-64056973D01*
X188985421Y-64056973D02*
X188985421Y-63548973D01*
X188985421Y-59357973D02*
X187461421Y-59357973D01*
X187461421Y-59230973D02*
X188985421Y-59230973D01*
X188985421Y-59103973D02*
X187461421Y-59103973D01*
X187461421Y-59484973D02*
X188985421Y-59484973D01*
X188985421Y-59611973D02*
X187461421Y-59611973D01*
X188985421Y-59738973D02*
X187461421Y-59738973D01*
%TO.C,D6*%
X201044000Y-47117000D02*
X195964000Y-47117000D01*
X195964000Y-47117000D02*
X195964000Y-48641000D01*
X195964000Y-48641000D02*
X201044000Y-48641000D01*
X201044000Y-48641000D02*
X201044000Y-47117000D01*
X201044000Y-47117000D02*
X200536000Y-47117000D01*
X196345000Y-47117000D02*
X196345000Y-48641000D01*
X196218000Y-48641000D02*
X196218000Y-47117000D01*
X196091000Y-47117000D02*
X196091000Y-48641000D01*
X196472000Y-48641000D02*
X196472000Y-47117000D01*
X196599000Y-47117000D02*
X196599000Y-48641000D01*
X196726000Y-47117000D02*
X196726000Y-48641000D01*
%TO.C,U1*%
X168433750Y-47783750D02*
X150653750Y-47783750D01*
X168433750Y-17303750D02*
X168433750Y-47783750D01*
X163353750Y-17303750D02*
X168433750Y-17303750D01*
X163353750Y-14763750D02*
X163353750Y-17303750D01*
X155733750Y-14763750D02*
X163353750Y-14763750D01*
X155733750Y-17303750D02*
X155733750Y-14763750D01*
X150653750Y-17303750D02*
X155733750Y-17303750D01*
X150653750Y-17303750D02*
X150653750Y-47783750D01*
D12*
%TO.C,J1*%
X103449750Y-24835250D02*
X103449750Y-22835250D01*
X108449750Y-24835250D02*
X108449750Y-22835250D01*
X108449750Y-22835250D02*
X103449750Y-22835250D01*
X103449750Y-24835250D02*
X102849750Y-24835250D01*
X109049750Y-24835250D02*
X108449750Y-24835250D01*
X102849750Y-36935250D02*
X109049750Y-36935250D01*
X109049750Y-24835250D02*
X109049750Y-27210250D01*
X109049750Y-28860250D02*
X109049750Y-30210250D01*
X109049750Y-31860250D02*
X109049750Y-34260250D01*
X109049750Y-35810250D02*
X109049750Y-36935250D01*
X102849750Y-35360250D02*
X102849750Y-24835250D01*
X109049750Y-35810250D02*
X110449750Y-35810250D01*
X109049750Y-34260250D02*
X110449750Y-34260250D01*
%TD*%
%TO.C,D28*%
D10*
X113757149Y-96343468D02*
X112957149Y-96343468D01*
X112957149Y-96152992D01*
X112995245Y-96038706D01*
X113071435Y-95962516D01*
X113147625Y-95924420D01*
X113300006Y-95886325D01*
X113414292Y-95886325D01*
X113566673Y-95924420D01*
X113642864Y-95962516D01*
X113719054Y-96038706D01*
X113757149Y-96152992D01*
X113757149Y-96343468D01*
X113033340Y-95581563D02*
X112995245Y-95543468D01*
X112957149Y-95467278D01*
X112957149Y-95276801D01*
X112995245Y-95200611D01*
X113033340Y-95162516D01*
X113109530Y-95124420D01*
X113185721Y-95124420D01*
X113300006Y-95162516D01*
X113757149Y-95619659D01*
X113757149Y-95124420D01*
X113300006Y-94667278D02*
X113261911Y-94743468D01*
X113223816Y-94781563D01*
X113147625Y-94819659D01*
X113109530Y-94819659D01*
X113033340Y-94781563D01*
X112995245Y-94743468D01*
X112957149Y-94667278D01*
X112957149Y-94514897D01*
X112995245Y-94438706D01*
X113033340Y-94400611D01*
X113109530Y-94362516D01*
X113147625Y-94362516D01*
X113223816Y-94400611D01*
X113261911Y-94438706D01*
X113300006Y-94514897D01*
X113300006Y-94667278D01*
X113338102Y-94743468D01*
X113376197Y-94781563D01*
X113452387Y-94819659D01*
X113604768Y-94819659D01*
X113680959Y-94781563D01*
X113719054Y-94743468D01*
X113757149Y-94667278D01*
X113757149Y-94514897D01*
X113719054Y-94438706D01*
X113680959Y-94400611D01*
X113604768Y-94362516D01*
X113452387Y-94362516D01*
X113376197Y-94400611D01*
X113338102Y-94438706D01*
X113300006Y-94514897D01*
%TO.C,D27*%
X113664983Y-77489689D02*
X112864983Y-77489689D01*
X112864983Y-77299213D01*
X112903079Y-77184927D01*
X112979269Y-77108737D01*
X113055459Y-77070641D01*
X113207840Y-77032546D01*
X113322126Y-77032546D01*
X113474507Y-77070641D01*
X113550698Y-77108737D01*
X113626888Y-77184927D01*
X113664983Y-77299213D01*
X113664983Y-77489689D01*
X112941174Y-76727784D02*
X112903079Y-76689689D01*
X112864983Y-76613499D01*
X112864983Y-76423022D01*
X112903079Y-76346832D01*
X112941174Y-76308737D01*
X113017364Y-76270641D01*
X113093555Y-76270641D01*
X113207840Y-76308737D01*
X113664983Y-76765880D01*
X113664983Y-76270641D01*
X112864983Y-76003975D02*
X112864983Y-75470641D01*
X113664983Y-75813499D01*
%TO.C,D26*%
X113621330Y-58454792D02*
X112821330Y-58454792D01*
X112821330Y-58264316D01*
X112859426Y-58150030D01*
X112935616Y-58073840D01*
X113011806Y-58035744D01*
X113164187Y-57997649D01*
X113278473Y-57997649D01*
X113430854Y-58035744D01*
X113507045Y-58073840D01*
X113583235Y-58150030D01*
X113621330Y-58264316D01*
X113621330Y-58454792D01*
X112897521Y-57692887D02*
X112859426Y-57654792D01*
X112821330Y-57578602D01*
X112821330Y-57388125D01*
X112859426Y-57311935D01*
X112897521Y-57273840D01*
X112973711Y-57235744D01*
X113049902Y-57235744D01*
X113164187Y-57273840D01*
X113621330Y-57730983D01*
X113621330Y-57235744D01*
X112821330Y-56550030D02*
X112821330Y-56702411D01*
X112859426Y-56778602D01*
X112897521Y-56816697D01*
X113011806Y-56892887D01*
X113164187Y-56930983D01*
X113468949Y-56930983D01*
X113545140Y-56892887D01*
X113583235Y-56854792D01*
X113621330Y-56778602D01*
X113621330Y-56626221D01*
X113583235Y-56550030D01*
X113545140Y-56511935D01*
X113468949Y-56473840D01*
X113278473Y-56473840D01*
X113202283Y-56511935D01*
X113164187Y-56550030D01*
X113126092Y-56626221D01*
X113126092Y-56778602D01*
X113164187Y-56854792D01*
X113202283Y-56892887D01*
X113278473Y-56930983D01*
%TO.C,D25*%
X113849360Y-39492693D02*
X113049360Y-39492693D01*
X113049360Y-39302217D01*
X113087456Y-39187931D01*
X113163646Y-39111741D01*
X113239836Y-39073645D01*
X113392217Y-39035550D01*
X113506503Y-39035550D01*
X113658884Y-39073645D01*
X113735075Y-39111741D01*
X113811265Y-39187931D01*
X113849360Y-39302217D01*
X113849360Y-39492693D01*
X113125551Y-38730788D02*
X113087456Y-38692693D01*
X113049360Y-38616503D01*
X113049360Y-38426026D01*
X113087456Y-38349836D01*
X113125551Y-38311741D01*
X113201741Y-38273645D01*
X113277932Y-38273645D01*
X113392217Y-38311741D01*
X113849360Y-38768884D01*
X113849360Y-38273645D01*
X113049360Y-37549836D02*
X113049360Y-37930788D01*
X113430313Y-37968884D01*
X113392217Y-37930788D01*
X113354122Y-37854598D01*
X113354122Y-37664122D01*
X113392217Y-37587931D01*
X113430313Y-37549836D01*
X113506503Y-37511741D01*
X113696979Y-37511741D01*
X113773170Y-37549836D01*
X113811265Y-37587931D01*
X113849360Y-37664122D01*
X113849360Y-37854598D01*
X113811265Y-37930788D01*
X113773170Y-37968884D01*
%TO.C,D24*%
X132769513Y-94934990D02*
X131969513Y-94934990D01*
X131969513Y-94744514D01*
X132007609Y-94630228D01*
X132083799Y-94554038D01*
X132159989Y-94515942D01*
X132312370Y-94477847D01*
X132426656Y-94477847D01*
X132579037Y-94515942D01*
X132655228Y-94554038D01*
X132731418Y-94630228D01*
X132769513Y-94744514D01*
X132769513Y-94934990D01*
X132045704Y-94173085D02*
X132007609Y-94134990D01*
X131969513Y-94058800D01*
X131969513Y-93868323D01*
X132007609Y-93792133D01*
X132045704Y-93754038D01*
X132121894Y-93715942D01*
X132198085Y-93715942D01*
X132312370Y-93754038D01*
X132769513Y-94211181D01*
X132769513Y-93715942D01*
X132236180Y-93030228D02*
X132769513Y-93030228D01*
X131931418Y-93220704D02*
X132502847Y-93411181D01*
X132502847Y-92915942D01*
%TO.C,D23*%
X132931253Y-75858068D02*
X132131253Y-75858068D01*
X132131253Y-75667592D01*
X132169349Y-75553306D01*
X132245539Y-75477116D01*
X132321729Y-75439020D01*
X132474110Y-75400925D01*
X132588396Y-75400925D01*
X132740777Y-75439020D01*
X132816968Y-75477116D01*
X132893158Y-75553306D01*
X132931253Y-75667592D01*
X132931253Y-75858068D01*
X132207444Y-75096163D02*
X132169349Y-75058068D01*
X132131253Y-74981878D01*
X132131253Y-74791401D01*
X132169349Y-74715211D01*
X132207444Y-74677116D01*
X132283634Y-74639020D01*
X132359825Y-74639020D01*
X132474110Y-74677116D01*
X132931253Y-75134259D01*
X132931253Y-74639020D01*
X132131253Y-74372354D02*
X132131253Y-73877116D01*
X132436015Y-74143782D01*
X132436015Y-74029497D01*
X132474110Y-73953306D01*
X132512206Y-73915211D01*
X132588396Y-73877116D01*
X132778872Y-73877116D01*
X132855063Y-73915211D01*
X132893158Y-73953306D01*
X132931253Y-74029497D01*
X132931253Y-74258068D01*
X132893158Y-74334259D01*
X132855063Y-74372354D01*
%TO.C,D22*%
X132779296Y-56502983D02*
X131979296Y-56502983D01*
X131979296Y-56312507D01*
X132017392Y-56198221D01*
X132093582Y-56122031D01*
X132169772Y-56083935D01*
X132322153Y-56045840D01*
X132436439Y-56045840D01*
X132588820Y-56083935D01*
X132665011Y-56122031D01*
X132741201Y-56198221D01*
X132779296Y-56312507D01*
X132779296Y-56502983D01*
X132055487Y-55741078D02*
X132017392Y-55702983D01*
X131979296Y-55626793D01*
X131979296Y-55436316D01*
X132017392Y-55360126D01*
X132055487Y-55322031D01*
X132131677Y-55283935D01*
X132207868Y-55283935D01*
X132322153Y-55322031D01*
X132779296Y-55779174D01*
X132779296Y-55283935D01*
X132055487Y-54979174D02*
X132017392Y-54941078D01*
X131979296Y-54864888D01*
X131979296Y-54674412D01*
X132017392Y-54598221D01*
X132055487Y-54560126D01*
X132131677Y-54522031D01*
X132207868Y-54522031D01*
X132322153Y-54560126D01*
X132779296Y-55017269D01*
X132779296Y-54522031D01*
%TO.C,D21*%
X132819699Y-37878835D02*
X132019699Y-37878835D01*
X132019699Y-37688359D01*
X132057795Y-37574073D01*
X132133985Y-37497883D01*
X132210175Y-37459787D01*
X132362556Y-37421692D01*
X132476842Y-37421692D01*
X132629223Y-37459787D01*
X132705414Y-37497883D01*
X132781604Y-37574073D01*
X132819699Y-37688359D01*
X132819699Y-37878835D01*
X132095890Y-37116930D02*
X132057795Y-37078835D01*
X132019699Y-37002645D01*
X132019699Y-36812168D01*
X132057795Y-36735978D01*
X132095890Y-36697883D01*
X132172080Y-36659787D01*
X132248271Y-36659787D01*
X132362556Y-36697883D01*
X132819699Y-37155026D01*
X132819699Y-36659787D01*
X132819699Y-35897883D02*
X132819699Y-36355026D01*
X132819699Y-36126454D02*
X132019699Y-36126454D01*
X132133985Y-36202645D01*
X132210175Y-36278835D01*
X132248271Y-36355026D01*
%TO.C,D19*%
X151954307Y-89062816D02*
X151154307Y-89062816D01*
X151154307Y-88872340D01*
X151192403Y-88758054D01*
X151268593Y-88681864D01*
X151344783Y-88643768D01*
X151497164Y-88605673D01*
X151611450Y-88605673D01*
X151763831Y-88643768D01*
X151840022Y-88681864D01*
X151916212Y-88758054D01*
X151954307Y-88872340D01*
X151954307Y-89062816D01*
X151954307Y-87843768D02*
X151954307Y-88300911D01*
X151954307Y-88072340D02*
X151154307Y-88072340D01*
X151268593Y-88148530D01*
X151344783Y-88224721D01*
X151382879Y-88300911D01*
X151954307Y-87462816D02*
X151954307Y-87310435D01*
X151916212Y-87234245D01*
X151878117Y-87196149D01*
X151763831Y-87119959D01*
X151611450Y-87081864D01*
X151306688Y-87081864D01*
X151230498Y-87119959D01*
X151192403Y-87158054D01*
X151154307Y-87234245D01*
X151154307Y-87386626D01*
X151192403Y-87462816D01*
X151230498Y-87500911D01*
X151306688Y-87539007D01*
X151497164Y-87539007D01*
X151573355Y-87500911D01*
X151611450Y-87462816D01*
X151649545Y-87386626D01*
X151649545Y-87234245D01*
X151611450Y-87158054D01*
X151573355Y-87119959D01*
X151497164Y-87081864D01*
%TO.C,D18*%
X152048060Y-70219067D02*
X151248060Y-70219067D01*
X151248060Y-70028591D01*
X151286156Y-69914305D01*
X151362346Y-69838115D01*
X151438536Y-69800019D01*
X151590917Y-69761924D01*
X151705203Y-69761924D01*
X151857584Y-69800019D01*
X151933775Y-69838115D01*
X152009965Y-69914305D01*
X152048060Y-70028591D01*
X152048060Y-70219067D01*
X152048060Y-69000019D02*
X152048060Y-69457162D01*
X152048060Y-69228591D02*
X151248060Y-69228591D01*
X151362346Y-69304781D01*
X151438536Y-69380972D01*
X151476632Y-69457162D01*
X151590917Y-68542877D02*
X151552822Y-68619067D01*
X151514727Y-68657162D01*
X151438536Y-68695258D01*
X151400441Y-68695258D01*
X151324251Y-68657162D01*
X151286156Y-68619067D01*
X151248060Y-68542877D01*
X151248060Y-68390496D01*
X151286156Y-68314305D01*
X151324251Y-68276210D01*
X151400441Y-68238115D01*
X151438536Y-68238115D01*
X151514727Y-68276210D01*
X151552822Y-68314305D01*
X151590917Y-68390496D01*
X151590917Y-68542877D01*
X151629013Y-68619067D01*
X151667108Y-68657162D01*
X151743298Y-68695258D01*
X151895679Y-68695258D01*
X151971870Y-68657162D01*
X152009965Y-68619067D01*
X152048060Y-68542877D01*
X152048060Y-68390496D01*
X152009965Y-68314305D01*
X151971870Y-68276210D01*
X151895679Y-68238115D01*
X151743298Y-68238115D01*
X151667108Y-68276210D01*
X151629013Y-68314305D01*
X151590917Y-68390496D01*
%TO.C,D17*%
X159391471Y-52143154D02*
X159391471Y-51343154D01*
X159581947Y-51343154D01*
X159696233Y-51381250D01*
X159772423Y-51457440D01*
X159810519Y-51533630D01*
X159848614Y-51686011D01*
X159848614Y-51800297D01*
X159810519Y-51952678D01*
X159772423Y-52028869D01*
X159696233Y-52105059D01*
X159581947Y-52143154D01*
X159391471Y-52143154D01*
X160610519Y-52143154D02*
X160153376Y-52143154D01*
X160381947Y-52143154D02*
X160381947Y-51343154D01*
X160305757Y-51457440D01*
X160229566Y-51533630D01*
X160153376Y-51571726D01*
X160877185Y-51343154D02*
X161410519Y-51343154D01*
X161067661Y-52143154D01*
%TO.C,D16*%
X158597721Y-33093154D02*
X158597721Y-32293154D01*
X158788197Y-32293154D01*
X158902483Y-32331250D01*
X158978673Y-32407440D01*
X159016769Y-32483630D01*
X159054864Y-32636011D01*
X159054864Y-32750297D01*
X159016769Y-32902678D01*
X158978673Y-32978869D01*
X158902483Y-33055059D01*
X158788197Y-33093154D01*
X158597721Y-33093154D01*
X159816769Y-33093154D02*
X159359626Y-33093154D01*
X159588197Y-33093154D02*
X159588197Y-32293154D01*
X159512007Y-32407440D01*
X159435816Y-32483630D01*
X159359626Y-32521726D01*
X160502483Y-32293154D02*
X160350102Y-32293154D01*
X160273911Y-32331250D01*
X160235816Y-32369345D01*
X160159626Y-32483630D01*
X160121530Y-32636011D01*
X160121530Y-32940773D01*
X160159626Y-33016964D01*
X160197721Y-33055059D01*
X160273911Y-33093154D01*
X160426292Y-33093154D01*
X160502483Y-33055059D01*
X160540578Y-33016964D01*
X160578673Y-32940773D01*
X160578673Y-32750297D01*
X160540578Y-32674107D01*
X160502483Y-32636011D01*
X160426292Y-32597916D01*
X160273911Y-32597916D01*
X160197721Y-32636011D01*
X160159626Y-32674107D01*
X160121530Y-32750297D01*
%TO.C,D14*%
X170878313Y-92528787D02*
X170078313Y-92528787D01*
X170078313Y-92338311D01*
X170116409Y-92224025D01*
X170192599Y-92147835D01*
X170268789Y-92109739D01*
X170421170Y-92071644D01*
X170535456Y-92071644D01*
X170687837Y-92109739D01*
X170764028Y-92147835D01*
X170840218Y-92224025D01*
X170878313Y-92338311D01*
X170878313Y-92528787D01*
X170878313Y-91309739D02*
X170878313Y-91766882D01*
X170878313Y-91538311D02*
X170078313Y-91538311D01*
X170192599Y-91614501D01*
X170268789Y-91690692D01*
X170306885Y-91766882D01*
X170344980Y-90624025D02*
X170878313Y-90624025D01*
X170040218Y-90814501D02*
X170611647Y-91004978D01*
X170611647Y-90509739D01*
%TO.C,D13*%
X170907468Y-73222226D02*
X170107468Y-73222226D01*
X170107468Y-73031750D01*
X170145564Y-72917464D01*
X170221754Y-72841274D01*
X170297944Y-72803178D01*
X170450325Y-72765083D01*
X170564611Y-72765083D01*
X170716992Y-72803178D01*
X170793183Y-72841274D01*
X170869373Y-72917464D01*
X170907468Y-73031750D01*
X170907468Y-73222226D01*
X170907468Y-72003178D02*
X170907468Y-72460321D01*
X170907468Y-72231750D02*
X170107468Y-72231750D01*
X170221754Y-72307940D01*
X170297944Y-72384131D01*
X170336040Y-72460321D01*
X170107468Y-71736512D02*
X170107468Y-71241274D01*
X170412230Y-71507940D01*
X170412230Y-71393655D01*
X170450325Y-71317464D01*
X170488421Y-71279369D01*
X170564611Y-71241274D01*
X170755087Y-71241274D01*
X170831278Y-71279369D01*
X170869373Y-71317464D01*
X170907468Y-71393655D01*
X170907468Y-71622226D01*
X170869373Y-71698417D01*
X170831278Y-71736512D01*
%TO.C,D12*%
X178441471Y-56111904D02*
X178441471Y-55311904D01*
X178631947Y-55311904D01*
X178746233Y-55350000D01*
X178822423Y-55426190D01*
X178860519Y-55502380D01*
X178898614Y-55654761D01*
X178898614Y-55769047D01*
X178860519Y-55921428D01*
X178822423Y-55997619D01*
X178746233Y-56073809D01*
X178631947Y-56111904D01*
X178441471Y-56111904D01*
X179660519Y-56111904D02*
X179203376Y-56111904D01*
X179431947Y-56111904D02*
X179431947Y-55311904D01*
X179355757Y-55426190D01*
X179279566Y-55502380D01*
X179203376Y-55540476D01*
X179965280Y-55388095D02*
X180003376Y-55350000D01*
X180079566Y-55311904D01*
X180270042Y-55311904D01*
X180346233Y-55350000D01*
X180384328Y-55388095D01*
X180422423Y-55464285D01*
X180422423Y-55540476D01*
X180384328Y-55654761D01*
X179927185Y-56111904D01*
X180422423Y-56111904D01*
%TO.C,D11*%
X177647721Y-36268154D02*
X177647721Y-35468154D01*
X177838197Y-35468154D01*
X177952483Y-35506250D01*
X178028673Y-35582440D01*
X178066769Y-35658630D01*
X178104864Y-35811011D01*
X178104864Y-35925297D01*
X178066769Y-36077678D01*
X178028673Y-36153869D01*
X177952483Y-36230059D01*
X177838197Y-36268154D01*
X177647721Y-36268154D01*
X178866769Y-36268154D02*
X178409626Y-36268154D01*
X178638197Y-36268154D02*
X178638197Y-35468154D01*
X178562007Y-35582440D01*
X178485816Y-35658630D01*
X178409626Y-35696726D01*
X179628673Y-36268154D02*
X179171530Y-36268154D01*
X179400102Y-36268154D02*
X179400102Y-35468154D01*
X179323911Y-35582440D01*
X179247721Y-35658630D01*
X179171530Y-35696726D01*
%TO.C,D9*%
X189635856Y-101832642D02*
X188835856Y-101832642D01*
X188835856Y-101642166D01*
X188873952Y-101527880D01*
X188950142Y-101451689D01*
X189026332Y-101413594D01*
X189178713Y-101375499D01*
X189292999Y-101375499D01*
X189445380Y-101413594D01*
X189521571Y-101451689D01*
X189597761Y-101527880D01*
X189635856Y-101642166D01*
X189635856Y-101832642D01*
X189635856Y-100994546D02*
X189635856Y-100842166D01*
X189597761Y-100765975D01*
X189559666Y-100727880D01*
X189445380Y-100651689D01*
X189292999Y-100613594D01*
X188988237Y-100613594D01*
X188912047Y-100651689D01*
X188873952Y-100689785D01*
X188835856Y-100765975D01*
X188835856Y-100918356D01*
X188873952Y-100994546D01*
X188912047Y-101032642D01*
X188988237Y-101070737D01*
X189178713Y-101070737D01*
X189254904Y-101032642D01*
X189292999Y-100994546D01*
X189331094Y-100918356D01*
X189331094Y-100765975D01*
X189292999Y-100689785D01*
X189254904Y-100651689D01*
X189178713Y-100613594D01*
%TO.C,D8*%
X189960930Y-82508319D02*
X189160930Y-82508319D01*
X189160930Y-82317843D01*
X189199026Y-82203557D01*
X189275216Y-82127366D01*
X189351406Y-82089271D01*
X189503787Y-82051176D01*
X189618073Y-82051176D01*
X189770454Y-82089271D01*
X189846645Y-82127366D01*
X189922835Y-82203557D01*
X189960930Y-82317843D01*
X189960930Y-82508319D01*
X189503787Y-81594033D02*
X189465692Y-81670223D01*
X189427597Y-81708319D01*
X189351406Y-81746414D01*
X189313311Y-81746414D01*
X189237121Y-81708319D01*
X189199026Y-81670223D01*
X189160930Y-81594033D01*
X189160930Y-81441652D01*
X189199026Y-81365462D01*
X189237121Y-81327366D01*
X189313311Y-81289271D01*
X189351406Y-81289271D01*
X189427597Y-81327366D01*
X189465692Y-81365462D01*
X189503787Y-81441652D01*
X189503787Y-81594033D01*
X189541883Y-81670223D01*
X189579978Y-81708319D01*
X189656168Y-81746414D01*
X189808549Y-81746414D01*
X189884740Y-81708319D01*
X189922835Y-81670223D01*
X189960930Y-81594033D01*
X189960930Y-81441652D01*
X189922835Y-81365462D01*
X189884740Y-81327366D01*
X189808549Y-81289271D01*
X189656168Y-81289271D01*
X189579978Y-81327366D01*
X189541883Y-81365462D01*
X189503787Y-81441652D01*
%TO.C,D7*%
X189985325Y-62132849D02*
X189185325Y-62132849D01*
X189185325Y-61942373D01*
X189223421Y-61828087D01*
X189299611Y-61751896D01*
X189375801Y-61713801D01*
X189528182Y-61675706D01*
X189642468Y-61675706D01*
X189794849Y-61713801D01*
X189871040Y-61751896D01*
X189947230Y-61828087D01*
X189985325Y-61942373D01*
X189985325Y-62132849D01*
X189185325Y-61409039D02*
X189185325Y-60875706D01*
X189985325Y-61218563D01*
%TO.C,D6*%
X197938923Y-46840904D02*
X197938923Y-46040904D01*
X198129400Y-46040904D01*
X198243685Y-46079000D01*
X198319876Y-46155190D01*
X198357971Y-46231380D01*
X198396066Y-46383761D01*
X198396066Y-46498047D01*
X198357971Y-46650428D01*
X198319876Y-46726619D01*
X198243685Y-46802809D01*
X198129400Y-46840904D01*
X197938923Y-46840904D01*
X199081780Y-46040904D02*
X198929400Y-46040904D01*
X198853209Y-46079000D01*
X198815114Y-46117095D01*
X198738923Y-46231380D01*
X198700828Y-46383761D01*
X198700828Y-46688523D01*
X198738923Y-46764714D01*
X198777019Y-46802809D01*
X198853209Y-46840904D01*
X199005590Y-46840904D01*
X199081780Y-46802809D01*
X199119876Y-46764714D01*
X199157971Y-46688523D01*
X199157971Y-46498047D01*
X199119876Y-46421857D01*
X199081780Y-46383761D01*
X199005590Y-46345666D01*
X198853209Y-46345666D01*
X198777019Y-46383761D01*
X198738923Y-46421857D01*
X198700828Y-46498047D01*
%TO.C,H7*%
X105244995Y-99262080D02*
X105244995Y-98262080D01*
X105244995Y-98738271D02*
X105816423Y-98738271D01*
X105816423Y-99262080D02*
X105816423Y-98262080D01*
X106197376Y-98262080D02*
X106864042Y-98262080D01*
X106435471Y-99262080D01*
%TO.C,H6*%
X78486095Y-131126380D02*
X78486095Y-130126380D01*
X78486095Y-130602571D02*
X79057523Y-130602571D01*
X79057523Y-131126380D02*
X79057523Y-130126380D01*
X79962285Y-130126380D02*
X79771809Y-130126380D01*
X79676571Y-130174000D01*
X79628952Y-130221619D01*
X79533714Y-130364476D01*
X79486095Y-130554952D01*
X79486095Y-130935904D01*
X79533714Y-131031142D01*
X79581333Y-131078761D01*
X79676571Y-131126380D01*
X79867047Y-131126380D01*
X79962285Y-131078761D01*
X80009904Y-131031142D01*
X80057523Y-130935904D01*
X80057523Y-130697809D01*
X80009904Y-130602571D01*
X79962285Y-130554952D01*
X79867047Y-130507333D01*
X79676571Y-130507333D01*
X79581333Y-130554952D01*
X79533714Y-130602571D01*
X79486095Y-130697809D01*
%TO.C,H5*%
X140462095Y-96963380D02*
X140462095Y-95963380D01*
X140462095Y-96439571D02*
X141033523Y-96439571D01*
X141033523Y-96963380D02*
X141033523Y-95963380D01*
X141985904Y-95963380D02*
X141509714Y-95963380D01*
X141462095Y-96439571D01*
X141509714Y-96391952D01*
X141604952Y-96344333D01*
X141843047Y-96344333D01*
X141938285Y-96391952D01*
X141985904Y-96439571D01*
X142033523Y-96534809D01*
X142033523Y-96772904D01*
X141985904Y-96868142D01*
X141938285Y-96915761D01*
X141843047Y-96963380D01*
X141604952Y-96963380D01*
X141509714Y-96915761D01*
X141462095Y-96868142D01*
%TO.C,H4*%
X103632095Y-39432380D02*
X103632095Y-38432380D01*
X103632095Y-38908571D02*
X104203523Y-38908571D01*
X104203523Y-39432380D02*
X104203523Y-38432380D01*
X105108285Y-38765714D02*
X105108285Y-39432380D01*
X104870190Y-38384761D02*
X104632095Y-39099047D01*
X105251142Y-39099047D01*
%TO.C,H3*%
X149606095Y-51116380D02*
X149606095Y-50116380D01*
X149606095Y-50592571D02*
X150177523Y-50592571D01*
X150177523Y-51116380D02*
X150177523Y-50116380D01*
X150558476Y-50116380D02*
X151177523Y-50116380D01*
X150844190Y-50497333D01*
X150987047Y-50497333D01*
X151082285Y-50544952D01*
X151129904Y-50592571D01*
X151177523Y-50687809D01*
X151177523Y-50925904D01*
X151129904Y-51021142D01*
X151082285Y-51068761D01*
X150987047Y-51116380D01*
X150701333Y-51116380D01*
X150606095Y-51068761D01*
X150558476Y-51021142D01*
%TO.C,H2*%
X180848095Y-98995380D02*
X180848095Y-97995380D01*
X180848095Y-98471571D02*
X181419523Y-98471571D01*
X181419523Y-98995380D02*
X181419523Y-97995380D01*
X181848095Y-98090619D02*
X181895714Y-98043000D01*
X181990952Y-97995380D01*
X182229047Y-97995380D01*
X182324285Y-98043000D01*
X182371904Y-98090619D01*
X182419523Y-98185857D01*
X182419523Y-98281095D01*
X182371904Y-98423952D01*
X181800476Y-98995380D01*
X182419523Y-98995380D01*
%TO.C,H1*%
X187325095Y-45528380D02*
X187325095Y-44528380D01*
X187325095Y-45004571D02*
X187896523Y-45004571D01*
X187896523Y-45528380D02*
X187896523Y-44528380D01*
X188896523Y-45528380D02*
X188325095Y-45528380D01*
X188610809Y-45528380D02*
X188610809Y-44528380D01*
X188515571Y-44671238D01*
X188420333Y-44766476D01*
X188325095Y-44814095D01*
%TO.C,J1*%
X110752130Y-31593583D02*
X111466416Y-31593583D01*
X111609273Y-31641202D01*
X111704511Y-31736440D01*
X111752130Y-31879297D01*
X111752130Y-31974535D01*
X111752130Y-30593583D02*
X111752130Y-31165011D01*
X111752130Y-30879297D02*
X110752130Y-30879297D01*
X110894988Y-30974535D01*
X110990226Y-31069773D01*
X111037845Y-31165011D01*
%TD*%
M02*
