%TF.GenerationSoftware,KiCad,Pcbnew,(5.1.7)-1*%
%TF.CreationDate,2021-04-14T22:27:46+05:30*%
%TF.ProjectId,Pteron56v0,50746572-6f6e-4353-9676-302e6b696361,rev?*%
%TF.SameCoordinates,Original*%
%TF.FileFunction,Legend,Bot*%
%TF.FilePolarity,Positive*%
%FSLAX46Y46*%
G04 Gerber Fmt 4.6, Leading zero omitted, Abs format (unit mm)*
G04 Created by KiCad (PCBNEW (5.1.7)-1) date 2021-04-14 22:27:46*
%MOMM*%
%LPD*%
G01*
G04 APERTURE LIST*
%ADD10C,0.125000*%
%ADD11C,0.250000*%
%ADD12C,0.150000*%
%ADD13C,0.120000*%
G04 APERTURE END LIST*
D10*
X104112142Y-81736380D02*
X104040714Y-81760190D01*
X103921666Y-81760190D01*
X103874047Y-81736380D01*
X103850238Y-81712571D01*
X103826428Y-81664952D01*
X103826428Y-81617333D01*
X103850238Y-81569714D01*
X103874047Y-81545904D01*
X103921666Y-81522095D01*
X104016904Y-81498285D01*
X104064523Y-81474476D01*
X104088333Y-81450666D01*
X104112142Y-81403047D01*
X104112142Y-81355428D01*
X104088333Y-81307809D01*
X104064523Y-81284000D01*
X104016904Y-81260190D01*
X103897857Y-81260190D01*
X103826428Y-81284000D01*
X103612142Y-81760190D02*
X103612142Y-81260190D01*
X103493095Y-81260190D01*
X103421666Y-81284000D01*
X103374047Y-81331619D01*
X103350238Y-81379238D01*
X103326428Y-81474476D01*
X103326428Y-81545904D01*
X103350238Y-81641142D01*
X103374047Y-81688761D01*
X103421666Y-81736380D01*
X103493095Y-81760190D01*
X103612142Y-81760190D01*
X103135952Y-81617333D02*
X102897857Y-81617333D01*
X103183571Y-81760190D02*
X103016904Y-81260190D01*
X102850238Y-81760190D01*
D11*
X131995428Y-81089571D02*
X131995428Y-79589571D01*
X131424000Y-79589571D01*
X131281142Y-79661000D01*
X131209714Y-79732428D01*
X131138285Y-79875285D01*
X131138285Y-80089571D01*
X131209714Y-80232428D01*
X131281142Y-80303857D01*
X131424000Y-80375285D01*
X131995428Y-80375285D01*
X129638285Y-80946714D02*
X129709714Y-81018142D01*
X129924000Y-81089571D01*
X130066857Y-81089571D01*
X130281142Y-81018142D01*
X130424000Y-80875285D01*
X130495428Y-80732428D01*
X130566857Y-80446714D01*
X130566857Y-80232428D01*
X130495428Y-79946714D01*
X130424000Y-79803857D01*
X130281142Y-79661000D01*
X130066857Y-79589571D01*
X129924000Y-79589571D01*
X129709714Y-79661000D01*
X129638285Y-79732428D01*
X128495428Y-80303857D02*
X128281142Y-80375285D01*
X128209714Y-80446714D01*
X128138285Y-80589571D01*
X128138285Y-80803857D01*
X128209714Y-80946714D01*
X128281142Y-81018142D01*
X128424000Y-81089571D01*
X128995428Y-81089571D01*
X128995428Y-79589571D01*
X128495428Y-79589571D01*
X128352571Y-79661000D01*
X128281142Y-79732428D01*
X128209714Y-79875285D01*
X128209714Y-80018142D01*
X128281142Y-80161000D01*
X128352571Y-80232428D01*
X128495428Y-80303857D01*
X128995428Y-80303857D01*
X125709714Y-81089571D02*
X125709714Y-79589571D01*
X125709714Y-81018142D02*
X125852571Y-81089571D01*
X126138285Y-81089571D01*
X126281142Y-81018142D01*
X126352571Y-80946714D01*
X126424000Y-80803857D01*
X126424000Y-80375285D01*
X126352571Y-80232428D01*
X126281142Y-80161000D01*
X126138285Y-80089571D01*
X125852571Y-80089571D01*
X125709714Y-80161000D01*
X124424000Y-81018142D02*
X124566857Y-81089571D01*
X124852571Y-81089571D01*
X124995428Y-81018142D01*
X125066857Y-80875285D01*
X125066857Y-80303857D01*
X124995428Y-80161000D01*
X124852571Y-80089571D01*
X124566857Y-80089571D01*
X124424000Y-80161000D01*
X124352571Y-80303857D01*
X124352571Y-80446714D01*
X125066857Y-80589571D01*
X123781142Y-81018142D02*
X123638285Y-81089571D01*
X123352571Y-81089571D01*
X123209714Y-81018142D01*
X123138285Y-80875285D01*
X123138285Y-80803857D01*
X123209714Y-80661000D01*
X123352571Y-80589571D01*
X123566857Y-80589571D01*
X123709714Y-80518142D01*
X123781142Y-80375285D01*
X123781142Y-80303857D01*
X123709714Y-80161000D01*
X123566857Y-80089571D01*
X123352571Y-80089571D01*
X123209714Y-80161000D01*
X122495428Y-81089571D02*
X122495428Y-80089571D01*
X122495428Y-79589571D02*
X122566857Y-79661000D01*
X122495428Y-79732428D01*
X122424000Y-79661000D01*
X122495428Y-79589571D01*
X122495428Y-79732428D01*
X121138285Y-80089571D02*
X121138285Y-81303857D01*
X121209714Y-81446714D01*
X121281142Y-81518142D01*
X121424000Y-81589571D01*
X121638285Y-81589571D01*
X121781142Y-81518142D01*
X121138285Y-81018142D02*
X121281142Y-81089571D01*
X121566857Y-81089571D01*
X121709714Y-81018142D01*
X121781142Y-80946714D01*
X121852571Y-80803857D01*
X121852571Y-80375285D01*
X121781142Y-80232428D01*
X121709714Y-80161000D01*
X121566857Y-80089571D01*
X121281142Y-80089571D01*
X121138285Y-80161000D01*
X120424000Y-80089571D02*
X120424000Y-81089571D01*
X120424000Y-80232428D02*
X120352571Y-80161000D01*
X120209714Y-80089571D01*
X119995428Y-80089571D01*
X119852571Y-80161000D01*
X119781142Y-80303857D01*
X119781142Y-81089571D01*
X118495428Y-81018142D02*
X118638285Y-81089571D01*
X118924000Y-81089571D01*
X119066857Y-81018142D01*
X119138285Y-80875285D01*
X119138285Y-80303857D01*
X119066857Y-80161000D01*
X118924000Y-80089571D01*
X118638285Y-80089571D01*
X118495428Y-80161000D01*
X118424000Y-80303857D01*
X118424000Y-80446714D01*
X119138285Y-80589571D01*
X117138285Y-81089571D02*
X117138285Y-79589571D01*
X117138285Y-81018142D02*
X117281142Y-81089571D01*
X117566857Y-81089571D01*
X117709714Y-81018142D01*
X117781142Y-80946714D01*
X117852571Y-80803857D01*
X117852571Y-80375285D01*
X117781142Y-80232428D01*
X117709714Y-80161000D01*
X117566857Y-80089571D01*
X117281142Y-80089571D01*
X117138285Y-80161000D01*
X115281142Y-81089571D02*
X115281142Y-79589571D01*
X115281142Y-80161000D02*
X115138285Y-80089571D01*
X114852571Y-80089571D01*
X114709714Y-80161000D01*
X114638285Y-80232428D01*
X114566857Y-80375285D01*
X114566857Y-80803857D01*
X114638285Y-80946714D01*
X114709714Y-81018142D01*
X114852571Y-81089571D01*
X115138285Y-81089571D01*
X115281142Y-81018142D01*
X114066857Y-80089571D02*
X113709714Y-81089571D01*
X113352571Y-80089571D02*
X113709714Y-81089571D01*
X113852571Y-81446714D01*
X113924000Y-81518142D01*
X114066857Y-81589571D01*
X129674000Y-83589571D02*
X129674000Y-82089571D01*
X128816857Y-83589571D02*
X129459714Y-82732428D01*
X128816857Y-82089571D02*
X129674000Y-82946714D01*
X128174000Y-83589571D02*
X128174000Y-82589571D01*
X128174000Y-82875285D02*
X128102571Y-82732428D01*
X128031142Y-82661000D01*
X127888285Y-82589571D01*
X127745428Y-82589571D01*
X126602571Y-83589571D02*
X126602571Y-82803857D01*
X126674000Y-82661000D01*
X126816857Y-82589571D01*
X127102571Y-82589571D01*
X127245428Y-82661000D01*
X126602571Y-83518142D02*
X126745428Y-83589571D01*
X127102571Y-83589571D01*
X127245428Y-83518142D01*
X127316857Y-83375285D01*
X127316857Y-83232428D01*
X127245428Y-83089571D01*
X127102571Y-83018142D01*
X126745428Y-83018142D01*
X126602571Y-82946714D01*
X125888285Y-83589571D02*
X125888285Y-82089571D01*
X125745428Y-83018142D02*
X125316857Y-83589571D01*
X125316857Y-82589571D02*
X125888285Y-83161000D01*
X124102571Y-83518142D02*
X124245428Y-83589571D01*
X124531142Y-83589571D01*
X124674000Y-83518142D01*
X124745428Y-83375285D01*
X124745428Y-82803857D01*
X124674000Y-82661000D01*
X124531142Y-82589571D01*
X124245428Y-82589571D01*
X124102571Y-82661000D01*
X124031142Y-82803857D01*
X124031142Y-82946714D01*
X124745428Y-83089571D01*
X123388285Y-82589571D02*
X123388285Y-83589571D01*
X123388285Y-82732428D02*
X123316857Y-82661000D01*
X123174000Y-82589571D01*
X122959714Y-82589571D01*
X122816857Y-82661000D01*
X122745428Y-82803857D01*
X122745428Y-83589571D01*
X122031142Y-83018142D02*
X120888285Y-83018142D01*
X119745428Y-82089571D02*
X119745428Y-83161000D01*
X119816857Y-83375285D01*
X119959714Y-83518142D01*
X120174000Y-83589571D01*
X120316857Y-83589571D01*
X118816857Y-83589571D02*
X118959714Y-83518142D01*
X119031142Y-83446714D01*
X119102571Y-83303857D01*
X119102571Y-82875285D01*
X119031142Y-82732428D01*
X118959714Y-82661000D01*
X118816857Y-82589571D01*
X118602571Y-82589571D01*
X118459714Y-82661000D01*
X118388285Y-82732428D01*
X118316857Y-82875285D01*
X118316857Y-83303857D01*
X118388285Y-83446714D01*
X118459714Y-83518142D01*
X118602571Y-83589571D01*
X118816857Y-83589571D01*
X117674000Y-83589571D02*
X117674000Y-82089571D01*
X117531142Y-83018142D02*
X117102571Y-83589571D01*
X117102571Y-82589571D02*
X117674000Y-83161000D01*
X115888285Y-83518142D02*
X116031142Y-83589571D01*
X116316857Y-83589571D01*
X116459714Y-83518142D01*
X116531142Y-83375285D01*
X116531142Y-82803857D01*
X116459714Y-82661000D01*
X116316857Y-82589571D01*
X116031142Y-82589571D01*
X115888285Y-82661000D01*
X115816857Y-82803857D01*
X115816857Y-82946714D01*
X116531142Y-83089571D01*
X115245428Y-83518142D02*
X115102571Y-83589571D01*
X114816857Y-83589571D01*
X114674000Y-83518142D01*
X114602571Y-83375285D01*
X114602571Y-83303857D01*
X114674000Y-83161000D01*
X114816857Y-83089571D01*
X115031142Y-83089571D01*
X115174000Y-83018142D01*
X115245428Y-82875285D01*
X115245428Y-82803857D01*
X115174000Y-82661000D01*
X115031142Y-82589571D01*
X114816857Y-82589571D01*
X114674000Y-82661000D01*
D12*
X104036761Y-82178666D02*
X104084380Y-82321523D01*
X104084380Y-82559619D01*
X104036761Y-82654857D01*
X103989142Y-82702476D01*
X103893904Y-82750095D01*
X103798666Y-82750095D01*
X103703428Y-82702476D01*
X103655809Y-82654857D01*
X103608190Y-82559619D01*
X103560571Y-82369142D01*
X103512952Y-82273904D01*
X103465333Y-82226285D01*
X103370095Y-82178666D01*
X103274857Y-82178666D01*
X103179619Y-82226285D01*
X103132000Y-82273904D01*
X103084380Y-82369142D01*
X103084380Y-82607238D01*
X103132000Y-82750095D01*
X103417714Y-83178666D02*
X104417714Y-83178666D01*
X103465333Y-83178666D02*
X103417714Y-83273904D01*
X103417714Y-83464380D01*
X103465333Y-83559619D01*
X103512952Y-83607238D01*
X103608190Y-83654857D01*
X103893904Y-83654857D01*
X103989142Y-83607238D01*
X104036761Y-83559619D01*
X104084380Y-83464380D01*
X104084380Y-83273904D01*
X104036761Y-83178666D01*
X104084380Y-84226285D02*
X104036761Y-84131047D01*
X103941523Y-84083428D01*
X103084380Y-84083428D01*
X104084380Y-84607238D02*
X103417714Y-84607238D01*
X103084380Y-84607238D02*
X103132000Y-84559619D01*
X103179619Y-84607238D01*
X103132000Y-84654857D01*
X103084380Y-84607238D01*
X103179619Y-84607238D01*
X103417714Y-84940571D02*
X103417714Y-85321523D01*
X103084380Y-85083428D02*
X103941523Y-85083428D01*
X104036761Y-85131047D01*
X104084380Y-85226285D01*
X104084380Y-85321523D01*
X104084380Y-86416761D02*
X103084380Y-86416761D01*
X103084380Y-86797714D01*
X103132000Y-86892952D01*
X103179619Y-86940571D01*
X103274857Y-86988190D01*
X103417714Y-86988190D01*
X103512952Y-86940571D01*
X103560571Y-86892952D01*
X103608190Y-86797714D01*
X103608190Y-86416761D01*
X103989142Y-87988190D02*
X104036761Y-87940571D01*
X104084380Y-87797714D01*
X104084380Y-87702476D01*
X104036761Y-87559619D01*
X103941523Y-87464380D01*
X103846285Y-87416761D01*
X103655809Y-87369142D01*
X103512952Y-87369142D01*
X103322476Y-87416761D01*
X103227238Y-87464380D01*
X103132000Y-87559619D01*
X103084380Y-87702476D01*
X103084380Y-87797714D01*
X103132000Y-87940571D01*
X103179619Y-87988190D01*
X103560571Y-88750095D02*
X103608190Y-88892952D01*
X103655809Y-88940571D01*
X103751047Y-88988190D01*
X103893904Y-88988190D01*
X103989142Y-88940571D01*
X104036761Y-88892952D01*
X104084380Y-88797714D01*
X104084380Y-88416761D01*
X103084380Y-88416761D01*
X103084380Y-88750095D01*
X103132000Y-88845333D01*
X103179619Y-88892952D01*
X103274857Y-88940571D01*
X103370095Y-88940571D01*
X103465333Y-88892952D01*
X103512952Y-88845333D01*
X103560571Y-88750095D01*
X103560571Y-88416761D01*
X104084380Y-90607238D02*
X103084380Y-90607238D01*
X104036761Y-90607238D02*
X104084380Y-90511999D01*
X104084380Y-90321523D01*
X104036761Y-90226285D01*
X103989142Y-90178666D01*
X103893904Y-90131047D01*
X103608190Y-90131047D01*
X103512952Y-90178666D01*
X103465333Y-90226285D01*
X103417714Y-90321523D01*
X103417714Y-90511999D01*
X103465333Y-90607238D01*
X104036761Y-91464380D02*
X104084380Y-91369142D01*
X104084380Y-91178666D01*
X104036761Y-91083428D01*
X103941523Y-91035809D01*
X103560571Y-91035809D01*
X103465333Y-91083428D01*
X103417714Y-91178666D01*
X103417714Y-91369142D01*
X103465333Y-91464380D01*
X103560571Y-91511999D01*
X103655809Y-91511999D01*
X103751047Y-91035809D01*
X104036761Y-91892952D02*
X104084380Y-91988190D01*
X104084380Y-92178666D01*
X104036761Y-92273904D01*
X103941523Y-92321523D01*
X103893904Y-92321523D01*
X103798666Y-92273904D01*
X103751047Y-92178666D01*
X103751047Y-92035809D01*
X103703428Y-91940571D01*
X103608190Y-91892952D01*
X103560571Y-91892952D01*
X103465333Y-91940571D01*
X103417714Y-92035809D01*
X103417714Y-92178666D01*
X103465333Y-92273904D01*
X104084380Y-92750095D02*
X103417714Y-92750095D01*
X103084380Y-92750095D02*
X103132000Y-92702476D01*
X103179619Y-92750095D01*
X103132000Y-92797714D01*
X103084380Y-92750095D01*
X103179619Y-92750095D01*
X103417714Y-93654857D02*
X104227238Y-93654857D01*
X104322476Y-93607238D01*
X104370095Y-93559619D01*
X104417714Y-93464380D01*
X104417714Y-93321523D01*
X104370095Y-93226285D01*
X104036761Y-93654857D02*
X104084380Y-93559619D01*
X104084380Y-93369142D01*
X104036761Y-93273904D01*
X103989142Y-93226285D01*
X103893904Y-93178666D01*
X103608190Y-93178666D01*
X103512952Y-93226285D01*
X103465333Y-93273904D01*
X103417714Y-93369142D01*
X103417714Y-93559619D01*
X103465333Y-93654857D01*
X103417714Y-94131047D02*
X104084380Y-94131047D01*
X103512952Y-94131047D02*
X103465333Y-94178666D01*
X103417714Y-94273904D01*
X103417714Y-94416761D01*
X103465333Y-94511999D01*
X103560571Y-94559619D01*
X104084380Y-94559619D01*
X104036761Y-95416761D02*
X104084380Y-95321523D01*
X104084380Y-95131047D01*
X104036761Y-95035809D01*
X103941523Y-94988190D01*
X103560571Y-94988190D01*
X103465333Y-95035809D01*
X103417714Y-95131047D01*
X103417714Y-95321523D01*
X103465333Y-95416761D01*
X103560571Y-95464380D01*
X103655809Y-95464380D01*
X103751047Y-94988190D01*
X104084380Y-96321523D02*
X103084380Y-96321523D01*
X104036761Y-96321523D02*
X104084380Y-96226285D01*
X104084380Y-96035809D01*
X104036761Y-95940571D01*
X103989142Y-95892952D01*
X103893904Y-95845333D01*
X103608190Y-95845333D01*
X103512952Y-95892952D01*
X103465333Y-95940571D01*
X103417714Y-96035809D01*
X103417714Y-96226285D01*
X103465333Y-96321523D01*
X104084380Y-97559619D02*
X103084380Y-97559619D01*
X103465333Y-97559619D02*
X103417714Y-97654857D01*
X103417714Y-97845333D01*
X103465333Y-97940571D01*
X103512952Y-97988190D01*
X103608190Y-98035809D01*
X103893904Y-98035809D01*
X103989142Y-97988190D01*
X104036761Y-97940571D01*
X104084380Y-97845333D01*
X104084380Y-97654857D01*
X104036761Y-97559619D01*
X103417714Y-98369142D02*
X104084380Y-98607238D01*
X103417714Y-98845333D02*
X104084380Y-98607238D01*
X104322476Y-98511999D01*
X104370095Y-98464380D01*
X104417714Y-98369142D01*
X104084380Y-99988190D02*
X103084380Y-99988190D01*
X104084380Y-100416761D02*
X103560571Y-100416761D01*
X103465333Y-100369142D01*
X103417714Y-100273904D01*
X103417714Y-100131047D01*
X103465333Y-100035809D01*
X103512952Y-99988190D01*
X104084380Y-101321523D02*
X103560571Y-101321523D01*
X103465333Y-101273904D01*
X103417714Y-101178666D01*
X103417714Y-100988190D01*
X103465333Y-100892952D01*
X104036761Y-101321523D02*
X104084380Y-101226285D01*
X104084380Y-100988190D01*
X104036761Y-100892952D01*
X103941523Y-100845333D01*
X103846285Y-100845333D01*
X103751047Y-100892952D01*
X103703428Y-100988190D01*
X103703428Y-101226285D01*
X103655809Y-101321523D01*
X104084380Y-101797714D02*
X103417714Y-101797714D01*
X103608190Y-101797714D02*
X103512952Y-101845333D01*
X103465333Y-101892952D01*
X103417714Y-101988190D01*
X103417714Y-102083428D01*
X104036761Y-102369142D02*
X104084380Y-102464380D01*
X104084380Y-102654857D01*
X104036761Y-102750095D01*
X103941523Y-102797714D01*
X103893904Y-102797714D01*
X103798666Y-102750095D01*
X103751047Y-102654857D01*
X103751047Y-102511999D01*
X103703428Y-102416761D01*
X103608190Y-102369142D01*
X103560571Y-102369142D01*
X103465333Y-102416761D01*
X103417714Y-102511999D01*
X103417714Y-102654857D01*
X103465333Y-102750095D01*
X104084380Y-103226285D02*
X103084380Y-103226285D01*
X104084380Y-103654857D02*
X103560571Y-103654857D01*
X103465333Y-103607238D01*
X103417714Y-103511999D01*
X103417714Y-103369142D01*
X103465333Y-103273904D01*
X103512952Y-103226285D01*
X104084380Y-104131047D02*
X103417714Y-104131047D01*
X103084380Y-104131047D02*
X103132000Y-104083428D01*
X103179619Y-104131047D01*
X103132000Y-104178666D01*
X103084380Y-104131047D01*
X103179619Y-104131047D01*
X103417714Y-104464380D02*
X103417714Y-104845333D01*
X103084380Y-104607238D02*
X103941523Y-104607238D01*
X104036761Y-104654857D01*
X104084380Y-104750095D01*
X104084380Y-104845333D01*
X103417714Y-105607238D02*
X104227238Y-105607238D01*
X104322476Y-105559619D01*
X104370095Y-105511999D01*
X104417714Y-105416761D01*
X104417714Y-105273904D01*
X104370095Y-105178666D01*
X104036761Y-105607238D02*
X104084380Y-105511999D01*
X104084380Y-105321523D01*
X104036761Y-105226285D01*
X103989142Y-105178666D01*
X103893904Y-105131047D01*
X103608190Y-105131047D01*
X103512952Y-105178666D01*
X103465333Y-105226285D01*
X103417714Y-105321523D01*
X103417714Y-105511999D01*
X103465333Y-105607238D01*
X104084380Y-106226285D02*
X104036761Y-106131047D01*
X103989142Y-106083428D01*
X103893904Y-106035809D01*
X103608190Y-106035809D01*
X103512952Y-106083428D01*
X103465333Y-106131047D01*
X103417714Y-106226285D01*
X103417714Y-106369142D01*
X103465333Y-106464380D01*
X103512952Y-106511999D01*
X103608190Y-106559619D01*
X103893904Y-106559619D01*
X103989142Y-106511999D01*
X104036761Y-106464380D01*
X104084380Y-106369142D01*
X104084380Y-106226285D01*
X104036761Y-107369142D02*
X104084380Y-107273904D01*
X104084380Y-107083428D01*
X104036761Y-106988190D01*
X103941523Y-106940571D01*
X103560571Y-106940571D01*
X103465333Y-106988190D01*
X103417714Y-107083428D01*
X103417714Y-107273904D01*
X103465333Y-107369142D01*
X103560571Y-107416761D01*
X103655809Y-107416761D01*
X103751047Y-106940571D01*
X104084380Y-107988190D02*
X104036761Y-107892952D01*
X103941523Y-107845333D01*
X103084380Y-107845333D01*
X104084380Y-108416761D02*
X104084380Y-108607238D01*
X104036761Y-108702476D01*
X103989142Y-108750095D01*
X103846285Y-108845333D01*
X103655809Y-108892952D01*
X103274857Y-108892952D01*
X103179619Y-108845333D01*
X103132000Y-108797714D01*
X103084380Y-108702476D01*
X103084380Y-108511999D01*
X103132000Y-108416761D01*
X103179619Y-108369142D01*
X103274857Y-108321523D01*
X103512952Y-108321523D01*
X103608190Y-108369142D01*
X103655809Y-108416761D01*
X103703428Y-108511999D01*
X103703428Y-108702476D01*
X103655809Y-108797714D01*
X103608190Y-108845333D01*
X103512952Y-108892952D01*
X103084380Y-109750095D02*
X103084380Y-109559619D01*
X103132000Y-109464380D01*
X103179619Y-109416761D01*
X103322476Y-109321523D01*
X103512952Y-109273904D01*
X103893904Y-109273904D01*
X103989142Y-109321523D01*
X104036761Y-109369142D01*
X104084380Y-109464380D01*
X104084380Y-109654857D01*
X104036761Y-109750095D01*
X103989142Y-109797714D01*
X103893904Y-109845333D01*
X103655809Y-109845333D01*
X103560571Y-109797714D01*
X103512952Y-109750095D01*
X103465333Y-109654857D01*
X103465333Y-109464380D01*
X103512952Y-109369142D01*
X103560571Y-109321523D01*
X103655809Y-109273904D01*
D11*
X174735000Y-99758571D02*
X174735000Y-98258571D01*
X174163571Y-98258571D01*
X174020714Y-98330000D01*
X173949285Y-98401428D01*
X173877857Y-98544285D01*
X173877857Y-98758571D01*
X173949285Y-98901428D01*
X174020714Y-98972857D01*
X174163571Y-99044285D01*
X174735000Y-99044285D01*
X173449285Y-98758571D02*
X172877857Y-98758571D01*
X173235000Y-98258571D02*
X173235000Y-99544285D01*
X173163571Y-99687142D01*
X173020714Y-99758571D01*
X172877857Y-99758571D01*
X171806428Y-99687142D02*
X171949285Y-99758571D01*
X172235000Y-99758571D01*
X172377857Y-99687142D01*
X172449285Y-99544285D01*
X172449285Y-98972857D01*
X172377857Y-98830000D01*
X172235000Y-98758571D01*
X171949285Y-98758571D01*
X171806428Y-98830000D01*
X171735000Y-98972857D01*
X171735000Y-99115714D01*
X172449285Y-99258571D01*
X171092142Y-99758571D02*
X171092142Y-98758571D01*
X171092142Y-99044285D02*
X171020714Y-98901428D01*
X170949285Y-98830000D01*
X170806428Y-98758571D01*
X170663571Y-98758571D01*
X169949285Y-99758571D02*
X170092142Y-99687142D01*
X170163571Y-99615714D01*
X170235000Y-99472857D01*
X170235000Y-99044285D01*
X170163571Y-98901428D01*
X170092142Y-98830000D01*
X169949285Y-98758571D01*
X169735000Y-98758571D01*
X169592142Y-98830000D01*
X169520714Y-98901428D01*
X169449285Y-99044285D01*
X169449285Y-99472857D01*
X169520714Y-99615714D01*
X169592142Y-99687142D01*
X169735000Y-99758571D01*
X169949285Y-99758571D01*
X168806428Y-98758571D02*
X168806428Y-99758571D01*
X168806428Y-98901428D02*
X168735000Y-98830000D01*
X168592142Y-98758571D01*
X168377857Y-98758571D01*
X168235000Y-98830000D01*
X168163571Y-98972857D01*
X168163571Y-99758571D01*
X166306428Y-99758571D02*
X166306428Y-98258571D01*
X165449285Y-99758571D02*
X166092142Y-98901428D01*
X165449285Y-98258571D02*
X166306428Y-99115714D01*
X164235000Y-99687142D02*
X164377857Y-99758571D01*
X164663571Y-99758571D01*
X164806428Y-99687142D01*
X164877857Y-99544285D01*
X164877857Y-98972857D01*
X164806428Y-98830000D01*
X164663571Y-98758571D01*
X164377857Y-98758571D01*
X164235000Y-98830000D01*
X164163571Y-98972857D01*
X164163571Y-99115714D01*
X164877857Y-99258571D01*
X163663571Y-98758571D02*
X163306428Y-99758571D01*
X162949285Y-98758571D02*
X163306428Y-99758571D01*
X163449285Y-100115714D01*
X163520714Y-100187142D01*
X163663571Y-100258571D01*
X162377857Y-99758571D02*
X162377857Y-98258571D01*
X162377857Y-98830000D02*
X162235000Y-98758571D01*
X161949285Y-98758571D01*
X161806428Y-98830000D01*
X161735000Y-98901428D01*
X161663571Y-99044285D01*
X161663571Y-99472857D01*
X161735000Y-99615714D01*
X161806428Y-99687142D01*
X161949285Y-99758571D01*
X162235000Y-99758571D01*
X162377857Y-99687142D01*
X160806428Y-99758571D02*
X160949285Y-99687142D01*
X161020714Y-99615714D01*
X161092142Y-99472857D01*
X161092142Y-99044285D01*
X161020714Y-98901428D01*
X160949285Y-98830000D01*
X160806428Y-98758571D01*
X160592142Y-98758571D01*
X160449285Y-98830000D01*
X160377857Y-98901428D01*
X160306428Y-99044285D01*
X160306428Y-99472857D01*
X160377857Y-99615714D01*
X160449285Y-99687142D01*
X160592142Y-99758571D01*
X160806428Y-99758571D01*
X159020714Y-99758571D02*
X159020714Y-98972857D01*
X159092142Y-98830000D01*
X159235000Y-98758571D01*
X159520714Y-98758571D01*
X159663571Y-98830000D01*
X159020714Y-99687142D02*
X159163571Y-99758571D01*
X159520714Y-99758571D01*
X159663571Y-99687142D01*
X159735000Y-99544285D01*
X159735000Y-99401428D01*
X159663571Y-99258571D01*
X159520714Y-99187142D01*
X159163571Y-99187142D01*
X159020714Y-99115714D01*
X158306428Y-99758571D02*
X158306428Y-98758571D01*
X158306428Y-99044285D02*
X158235000Y-98901428D01*
X158163571Y-98830000D01*
X158020714Y-98758571D01*
X157877857Y-98758571D01*
X156735000Y-99758571D02*
X156735000Y-98258571D01*
X156735000Y-99687142D02*
X156877857Y-99758571D01*
X157163571Y-99758571D01*
X157306428Y-99687142D01*
X157377857Y-99615714D01*
X157449285Y-99472857D01*
X157449285Y-99044285D01*
X157377857Y-98901428D01*
X157306428Y-98830000D01*
X157163571Y-98758571D01*
X156877857Y-98758571D01*
X156735000Y-98830000D01*
X175485000Y-102258571D02*
X175485000Y-100758571D01*
X175485000Y-102187142D02*
X175627857Y-102258571D01*
X175913571Y-102258571D01*
X176056428Y-102187142D01*
X176127857Y-102115714D01*
X176199285Y-101972857D01*
X176199285Y-101544285D01*
X176127857Y-101401428D01*
X176056428Y-101330000D01*
X175913571Y-101258571D01*
X175627857Y-101258571D01*
X175485000Y-101330000D01*
X174199285Y-102187142D02*
X174342142Y-102258571D01*
X174627857Y-102258571D01*
X174770714Y-102187142D01*
X174842142Y-102044285D01*
X174842142Y-101472857D01*
X174770714Y-101330000D01*
X174627857Y-101258571D01*
X174342142Y-101258571D01*
X174199285Y-101330000D01*
X174127857Y-101472857D01*
X174127857Y-101615714D01*
X174842142Y-101758571D01*
X173556428Y-102187142D02*
X173413571Y-102258571D01*
X173127857Y-102258571D01*
X172985000Y-102187142D01*
X172913571Y-102044285D01*
X172913571Y-101972857D01*
X172985000Y-101830000D01*
X173127857Y-101758571D01*
X173342142Y-101758571D01*
X173485000Y-101687142D01*
X173556428Y-101544285D01*
X173556428Y-101472857D01*
X173485000Y-101330000D01*
X173342142Y-101258571D01*
X173127857Y-101258571D01*
X172985000Y-101330000D01*
X172270714Y-102258571D02*
X172270714Y-101258571D01*
X172270714Y-100758571D02*
X172342142Y-100830000D01*
X172270714Y-100901428D01*
X172199285Y-100830000D01*
X172270714Y-100758571D01*
X172270714Y-100901428D01*
X170913571Y-101258571D02*
X170913571Y-102472857D01*
X170985000Y-102615714D01*
X171056428Y-102687142D01*
X171199285Y-102758571D01*
X171413571Y-102758571D01*
X171556428Y-102687142D01*
X170913571Y-102187142D02*
X171056428Y-102258571D01*
X171342142Y-102258571D01*
X171485000Y-102187142D01*
X171556428Y-102115714D01*
X171627857Y-101972857D01*
X171627857Y-101544285D01*
X171556428Y-101401428D01*
X171485000Y-101330000D01*
X171342142Y-101258571D01*
X171056428Y-101258571D01*
X170913571Y-101330000D01*
X170199285Y-101258571D02*
X170199285Y-102258571D01*
X170199285Y-101401428D02*
X170127857Y-101330000D01*
X169985000Y-101258571D01*
X169770714Y-101258571D01*
X169627857Y-101330000D01*
X169556428Y-101472857D01*
X169556428Y-102258571D01*
X168270714Y-102187142D02*
X168413571Y-102258571D01*
X168699285Y-102258571D01*
X168842142Y-102187142D01*
X168913571Y-102044285D01*
X168913571Y-101472857D01*
X168842142Y-101330000D01*
X168699285Y-101258571D01*
X168413571Y-101258571D01*
X168270714Y-101330000D01*
X168199285Y-101472857D01*
X168199285Y-101615714D01*
X168913571Y-101758571D01*
X166913571Y-102258571D02*
X166913571Y-100758571D01*
X166913571Y-102187142D02*
X167056428Y-102258571D01*
X167342142Y-102258571D01*
X167485000Y-102187142D01*
X167556428Y-102115714D01*
X167627857Y-101972857D01*
X167627857Y-101544285D01*
X167556428Y-101401428D01*
X167485000Y-101330000D01*
X167342142Y-101258571D01*
X167056428Y-101258571D01*
X166913571Y-101330000D01*
X165056428Y-102258571D02*
X165056428Y-100758571D01*
X165056428Y-101330000D02*
X164913571Y-101258571D01*
X164627857Y-101258571D01*
X164485000Y-101330000D01*
X164413571Y-101401428D01*
X164342142Y-101544285D01*
X164342142Y-101972857D01*
X164413571Y-102115714D01*
X164485000Y-102187142D01*
X164627857Y-102258571D01*
X164913571Y-102258571D01*
X165056428Y-102187142D01*
X163842142Y-101258571D02*
X163485000Y-102258571D01*
X163127857Y-101258571D02*
X163485000Y-102258571D01*
X163627857Y-102615714D01*
X163699285Y-102687142D01*
X163842142Y-102758571D01*
X160913571Y-101472857D02*
X161413571Y-101472857D01*
X161413571Y-102258571D02*
X161413571Y-100758571D01*
X160699285Y-100758571D01*
X160199285Y-102187142D02*
X159985000Y-102258571D01*
X159627857Y-102258571D01*
X159485000Y-102187142D01*
X159413571Y-102115714D01*
X159342142Y-101972857D01*
X159342142Y-101830000D01*
X159413571Y-101687142D01*
X159485000Y-101615714D01*
X159627857Y-101544285D01*
X159913571Y-101472857D01*
X160056428Y-101401428D01*
X160127857Y-101330000D01*
X160199285Y-101187142D01*
X160199285Y-101044285D01*
X160127857Y-100901428D01*
X160056428Y-100830000D01*
X159913571Y-100758571D01*
X159556428Y-100758571D01*
X159342142Y-100830000D01*
X158056428Y-101258571D02*
X158056428Y-102258571D01*
X158699285Y-101258571D02*
X158699285Y-102044285D01*
X158627857Y-102187142D01*
X158485000Y-102258571D01*
X158270714Y-102258571D01*
X158127857Y-102187142D01*
X158056428Y-102115714D01*
X157342142Y-101258571D02*
X157342142Y-102258571D01*
X157342142Y-101401428D02*
X157270714Y-101330000D01*
X157127857Y-101258571D01*
X156913571Y-101258571D01*
X156770714Y-101330000D01*
X156699285Y-101472857D01*
X156699285Y-102258571D01*
X155342142Y-102258571D02*
X155342142Y-100758571D01*
X155342142Y-102187142D02*
X155485000Y-102258571D01*
X155770714Y-102258571D01*
X155913571Y-102187142D01*
X155985000Y-102115714D01*
X156056428Y-101972857D01*
X156056428Y-101544285D01*
X155985000Y-101401428D01*
X155913571Y-101330000D01*
X155770714Y-101258571D01*
X155485000Y-101258571D01*
X155342142Y-101330000D01*
D12*
X132483690Y-100788814D02*
X132483690Y-101598338D01*
X132531309Y-101693576D01*
X132578928Y-101741195D01*
X132674166Y-101788814D01*
X132817023Y-101788814D01*
X132912261Y-101741195D01*
X132483690Y-101407861D02*
X132578928Y-101455480D01*
X132769404Y-101455480D01*
X132864642Y-101407861D01*
X132912261Y-101360242D01*
X132959880Y-101265004D01*
X132959880Y-100979290D01*
X132912261Y-100884052D01*
X132864642Y-100836433D01*
X132769404Y-100788814D01*
X132578928Y-100788814D01*
X132483690Y-100836433D01*
X132007500Y-101455480D02*
X132007500Y-100788814D01*
X132007500Y-100455480D02*
X132055119Y-100503100D01*
X132007500Y-100550719D01*
X131959880Y-100503100D01*
X132007500Y-100455480D01*
X132007500Y-100550719D01*
X131674166Y-100788814D02*
X131293214Y-100788814D01*
X131531309Y-100455480D02*
X131531309Y-101312623D01*
X131483690Y-101407861D01*
X131388452Y-101455480D01*
X131293214Y-101455480D01*
X130959880Y-101455480D02*
X130959880Y-100455480D01*
X130531309Y-101455480D02*
X130531309Y-100931671D01*
X130578928Y-100836433D01*
X130674166Y-100788814D01*
X130817023Y-100788814D01*
X130912261Y-100836433D01*
X130959880Y-100884052D01*
X129626547Y-100788814D02*
X129626547Y-101455480D01*
X130055119Y-100788814D02*
X130055119Y-101312623D01*
X130007500Y-101407861D01*
X129912261Y-101455480D01*
X129769404Y-101455480D01*
X129674166Y-101407861D01*
X129626547Y-101360242D01*
X129150357Y-101455480D02*
X129150357Y-100455480D01*
X129150357Y-100836433D02*
X129055119Y-100788814D01*
X128864642Y-100788814D01*
X128769404Y-100836433D01*
X128721785Y-100884052D01*
X128674166Y-100979290D01*
X128674166Y-101265004D01*
X128721785Y-101360242D01*
X128769404Y-101407861D01*
X128864642Y-101455480D01*
X129055119Y-101455480D01*
X129150357Y-101407861D01*
X128245595Y-101360242D02*
X128197976Y-101407861D01*
X128245595Y-101455480D01*
X128293214Y-101407861D01*
X128245595Y-101360242D01*
X128245595Y-101455480D01*
X127340833Y-101407861D02*
X127436071Y-101455480D01*
X127626547Y-101455480D01*
X127721785Y-101407861D01*
X127769404Y-101360242D01*
X127817023Y-101265004D01*
X127817023Y-100979290D01*
X127769404Y-100884052D01*
X127721785Y-100836433D01*
X127626547Y-100788814D01*
X127436071Y-100788814D01*
X127340833Y-100836433D01*
X126769404Y-101455480D02*
X126864642Y-101407861D01*
X126912261Y-101360242D01*
X126959880Y-101265004D01*
X126959880Y-100979290D01*
X126912261Y-100884052D01*
X126864642Y-100836433D01*
X126769404Y-100788814D01*
X126626547Y-100788814D01*
X126531309Y-100836433D01*
X126483690Y-100884052D01*
X126436071Y-100979290D01*
X126436071Y-101265004D01*
X126483690Y-101360242D01*
X126531309Y-101407861D01*
X126626547Y-101455480D01*
X126769404Y-101455480D01*
X126007500Y-101455480D02*
X126007500Y-100788814D01*
X126007500Y-100884052D02*
X125959880Y-100836433D01*
X125864642Y-100788814D01*
X125721785Y-100788814D01*
X125626547Y-100836433D01*
X125578928Y-100931671D01*
X125578928Y-101455480D01*
X125578928Y-100931671D02*
X125531309Y-100836433D01*
X125436071Y-100788814D01*
X125293214Y-100788814D01*
X125197976Y-100836433D01*
X125150357Y-100931671D01*
X125150357Y-101455480D01*
X123959880Y-100407861D02*
X124817023Y-101693576D01*
X123626547Y-101455480D02*
X123626547Y-100455480D01*
X123531309Y-101074528D02*
X123245595Y-101455480D01*
X123245595Y-100788814D02*
X123626547Y-101169766D01*
X122817023Y-101455480D02*
X122817023Y-100788814D01*
X122817023Y-100979290D02*
X122769404Y-100884052D01*
X122721785Y-100836433D01*
X122626547Y-100788814D01*
X122531309Y-100788814D01*
X121769404Y-101455480D02*
X121769404Y-100931671D01*
X121817023Y-100836433D01*
X121912261Y-100788814D01*
X122102738Y-100788814D01*
X122197976Y-100836433D01*
X121769404Y-101407861D02*
X121864642Y-101455480D01*
X122102738Y-101455480D01*
X122197976Y-101407861D01*
X122245595Y-101312623D01*
X122245595Y-101217385D01*
X122197976Y-101122147D01*
X122102738Y-101074528D01*
X121864642Y-101074528D01*
X121769404Y-101026909D01*
X121293214Y-101455480D02*
X121293214Y-100455480D01*
X121197976Y-101074528D02*
X120912261Y-101455480D01*
X120912261Y-100788814D02*
X121293214Y-101169766D01*
X120102738Y-101407861D02*
X120197976Y-101455480D01*
X120388452Y-101455480D01*
X120483690Y-101407861D01*
X120531309Y-101312623D01*
X120531309Y-100931671D01*
X120483690Y-100836433D01*
X120388452Y-100788814D01*
X120197976Y-100788814D01*
X120102738Y-100836433D01*
X120055119Y-100931671D01*
X120055119Y-101026909D01*
X120531309Y-101122147D01*
X119626547Y-100788814D02*
X119626547Y-101455480D01*
X119626547Y-100884052D02*
X119578928Y-100836433D01*
X119483690Y-100788814D01*
X119340833Y-100788814D01*
X119245595Y-100836433D01*
X119197976Y-100931671D01*
X119197976Y-101455480D01*
X118721785Y-101074528D02*
X117959880Y-101074528D01*
X117483690Y-100788814D02*
X117483690Y-101645957D01*
X117531309Y-101741195D01*
X117626547Y-101788814D01*
X117674166Y-101788814D01*
X117483690Y-100455480D02*
X117531309Y-100503100D01*
X117483690Y-100550719D01*
X117436071Y-100503100D01*
X117483690Y-100455480D01*
X117483690Y-100550719D01*
X116864642Y-101455480D02*
X116959880Y-101407861D01*
X117007500Y-101360242D01*
X117055119Y-101265004D01*
X117055119Y-100979290D01*
X117007500Y-100884052D01*
X116959880Y-100836433D01*
X116864642Y-100788814D01*
X116721785Y-100788814D01*
X116626547Y-100836433D01*
X116578928Y-100884052D01*
X116531309Y-100979290D01*
X116531309Y-101265004D01*
X116578928Y-101360242D01*
X116626547Y-101407861D01*
X116721785Y-101455480D01*
X116864642Y-101455480D01*
X116102738Y-101455480D02*
X116102738Y-100455480D01*
X116007500Y-101074528D02*
X115721785Y-101455480D01*
X115721785Y-100788814D02*
X116102738Y-101169766D01*
X114912261Y-101407861D02*
X115007500Y-101455480D01*
X115197976Y-101455480D01*
X115293214Y-101407861D01*
X115340833Y-101312623D01*
X115340833Y-100931671D01*
X115293214Y-100836433D01*
X115197976Y-100788814D01*
X115007500Y-100788814D01*
X114912261Y-100836433D01*
X114864642Y-100931671D01*
X114864642Y-101026909D01*
X115340833Y-101122147D01*
X114483690Y-101407861D02*
X114388452Y-101455480D01*
X114197976Y-101455480D01*
X114102738Y-101407861D01*
X114055119Y-101312623D01*
X114055119Y-101265004D01*
X114102738Y-101169766D01*
X114197976Y-101122147D01*
X114340833Y-101122147D01*
X114436071Y-101074528D01*
X114483690Y-100979290D01*
X114483690Y-100931671D01*
X114436071Y-100836433D01*
X114340833Y-100788814D01*
X114197976Y-100788814D01*
X114102738Y-100836433D01*
X178830238Y-104306714D02*
X178830238Y-105116238D01*
X178877857Y-105211476D01*
X178925476Y-105259095D01*
X179020714Y-105306714D01*
X179163571Y-105306714D01*
X179258809Y-105259095D01*
X178830238Y-104925761D02*
X178925476Y-104973380D01*
X179115952Y-104973380D01*
X179211190Y-104925761D01*
X179258809Y-104878142D01*
X179306428Y-104782904D01*
X179306428Y-104497190D01*
X179258809Y-104401952D01*
X179211190Y-104354333D01*
X179115952Y-104306714D01*
X178925476Y-104306714D01*
X178830238Y-104354333D01*
X178354047Y-104973380D02*
X178354047Y-104306714D01*
X178354047Y-103973380D02*
X178401666Y-104021000D01*
X178354047Y-104068619D01*
X178306428Y-104021000D01*
X178354047Y-103973380D01*
X178354047Y-104068619D01*
X178020714Y-104306714D02*
X177639761Y-104306714D01*
X177877857Y-103973380D02*
X177877857Y-104830523D01*
X177830238Y-104925761D01*
X177735000Y-104973380D01*
X177639761Y-104973380D01*
X177306428Y-104973380D02*
X177306428Y-103973380D01*
X176877857Y-104973380D02*
X176877857Y-104449571D01*
X176925476Y-104354333D01*
X177020714Y-104306714D01*
X177163571Y-104306714D01*
X177258809Y-104354333D01*
X177306428Y-104401952D01*
X175973095Y-104306714D02*
X175973095Y-104973380D01*
X176401666Y-104306714D02*
X176401666Y-104830523D01*
X176354047Y-104925761D01*
X176258809Y-104973380D01*
X176115952Y-104973380D01*
X176020714Y-104925761D01*
X175973095Y-104878142D01*
X175496904Y-104973380D02*
X175496904Y-103973380D01*
X175496904Y-104354333D02*
X175401666Y-104306714D01*
X175211190Y-104306714D01*
X175115952Y-104354333D01*
X175068333Y-104401952D01*
X175020714Y-104497190D01*
X175020714Y-104782904D01*
X175068333Y-104878142D01*
X175115952Y-104925761D01*
X175211190Y-104973380D01*
X175401666Y-104973380D01*
X175496904Y-104925761D01*
X174592142Y-104878142D02*
X174544523Y-104925761D01*
X174592142Y-104973380D01*
X174639761Y-104925761D01*
X174592142Y-104878142D01*
X174592142Y-104973380D01*
X173687380Y-104925761D02*
X173782619Y-104973380D01*
X173973095Y-104973380D01*
X174068333Y-104925761D01*
X174115952Y-104878142D01*
X174163571Y-104782904D01*
X174163571Y-104497190D01*
X174115952Y-104401952D01*
X174068333Y-104354333D01*
X173973095Y-104306714D01*
X173782619Y-104306714D01*
X173687380Y-104354333D01*
X173115952Y-104973380D02*
X173211190Y-104925761D01*
X173258809Y-104878142D01*
X173306428Y-104782904D01*
X173306428Y-104497190D01*
X173258809Y-104401952D01*
X173211190Y-104354333D01*
X173115952Y-104306714D01*
X172973095Y-104306714D01*
X172877857Y-104354333D01*
X172830238Y-104401952D01*
X172782619Y-104497190D01*
X172782619Y-104782904D01*
X172830238Y-104878142D01*
X172877857Y-104925761D01*
X172973095Y-104973380D01*
X173115952Y-104973380D01*
X172354047Y-104973380D02*
X172354047Y-104306714D01*
X172354047Y-104401952D02*
X172306428Y-104354333D01*
X172211190Y-104306714D01*
X172068333Y-104306714D01*
X171973095Y-104354333D01*
X171925476Y-104449571D01*
X171925476Y-104973380D01*
X171925476Y-104449571D02*
X171877857Y-104354333D01*
X171782619Y-104306714D01*
X171639761Y-104306714D01*
X171544523Y-104354333D01*
X171496904Y-104449571D01*
X171496904Y-104973380D01*
X170306428Y-103925761D02*
X171163571Y-105211476D01*
X169639761Y-104449571D02*
X169973095Y-104449571D01*
X169973095Y-104973380D02*
X169973095Y-103973380D01*
X169496904Y-103973380D01*
X169163571Y-104925761D02*
X169020714Y-104973380D01*
X168782619Y-104973380D01*
X168687380Y-104925761D01*
X168639761Y-104878142D01*
X168592142Y-104782904D01*
X168592142Y-104687666D01*
X168639761Y-104592428D01*
X168687380Y-104544809D01*
X168782619Y-104497190D01*
X168973095Y-104449571D01*
X169068333Y-104401952D01*
X169115952Y-104354333D01*
X169163571Y-104259095D01*
X169163571Y-104163857D01*
X169115952Y-104068619D01*
X169068333Y-104021000D01*
X168973095Y-103973380D01*
X168735000Y-103973380D01*
X168592142Y-104021000D01*
X167735000Y-104306714D02*
X167735000Y-104973380D01*
X168163571Y-104306714D02*
X168163571Y-104830523D01*
X168115952Y-104925761D01*
X168020714Y-104973380D01*
X167877857Y-104973380D01*
X167782619Y-104925761D01*
X167735000Y-104878142D01*
X167258809Y-104306714D02*
X167258809Y-104973380D01*
X167258809Y-104401952D02*
X167211190Y-104354333D01*
X167115952Y-104306714D01*
X166973095Y-104306714D01*
X166877857Y-104354333D01*
X166830238Y-104449571D01*
X166830238Y-104973380D01*
X165925476Y-104973380D02*
X165925476Y-103973380D01*
X165925476Y-104925761D02*
X166020714Y-104973380D01*
X166211190Y-104973380D01*
X166306428Y-104925761D01*
X166354047Y-104878142D01*
X166401666Y-104782904D01*
X166401666Y-104497190D01*
X166354047Y-104401952D01*
X166306428Y-104354333D01*
X166211190Y-104306714D01*
X166020714Y-104306714D01*
X165925476Y-104354333D01*
X164735000Y-103925761D02*
X165592142Y-105211476D01*
X164401666Y-104306714D02*
X164401666Y-105306714D01*
X164401666Y-104354333D02*
X164306428Y-104306714D01*
X164115952Y-104306714D01*
X164020714Y-104354333D01*
X163973095Y-104401952D01*
X163925476Y-104497190D01*
X163925476Y-104782904D01*
X163973095Y-104878142D01*
X164020714Y-104925761D01*
X164115952Y-104973380D01*
X164306428Y-104973380D01*
X164401666Y-104925761D01*
X163639761Y-104306714D02*
X163258809Y-104306714D01*
X163496904Y-103973380D02*
X163496904Y-104830523D01*
X163449285Y-104925761D01*
X163354047Y-104973380D01*
X163258809Y-104973380D01*
X162544523Y-104925761D02*
X162639761Y-104973380D01*
X162830238Y-104973380D01*
X162925476Y-104925761D01*
X162973095Y-104830523D01*
X162973095Y-104449571D01*
X162925476Y-104354333D01*
X162830238Y-104306714D01*
X162639761Y-104306714D01*
X162544523Y-104354333D01*
X162496904Y-104449571D01*
X162496904Y-104544809D01*
X162973095Y-104640047D01*
X162068333Y-104973380D02*
X162068333Y-104306714D01*
X162068333Y-104497190D02*
X162020714Y-104401952D01*
X161973095Y-104354333D01*
X161877857Y-104306714D01*
X161782619Y-104306714D01*
X161306428Y-104973380D02*
X161401666Y-104925761D01*
X161449285Y-104878142D01*
X161496904Y-104782904D01*
X161496904Y-104497190D01*
X161449285Y-104401952D01*
X161401666Y-104354333D01*
X161306428Y-104306714D01*
X161163571Y-104306714D01*
X161068333Y-104354333D01*
X161020714Y-104401952D01*
X160973095Y-104497190D01*
X160973095Y-104782904D01*
X161020714Y-104878142D01*
X161068333Y-104925761D01*
X161163571Y-104973380D01*
X161306428Y-104973380D01*
X160544523Y-104306714D02*
X160544523Y-104973380D01*
X160544523Y-104401952D02*
X160496904Y-104354333D01*
X160401666Y-104306714D01*
X160258809Y-104306714D01*
X160163571Y-104354333D01*
X160115952Y-104449571D01*
X160115952Y-104973380D01*
X159639761Y-104592428D02*
X158877857Y-104592428D01*
X158401666Y-104973380D02*
X158401666Y-103973380D01*
X158306428Y-104592428D02*
X158020714Y-104973380D01*
X158020714Y-104306714D02*
X158401666Y-104687666D01*
X157211190Y-104925761D02*
X157306428Y-104973380D01*
X157496904Y-104973380D01*
X157592142Y-104925761D01*
X157639761Y-104830523D01*
X157639761Y-104449571D01*
X157592142Y-104354333D01*
X157496904Y-104306714D01*
X157306428Y-104306714D01*
X157211190Y-104354333D01*
X157163571Y-104449571D01*
X157163571Y-104544809D01*
X157639761Y-104640047D01*
X156830238Y-104306714D02*
X156592142Y-104973380D01*
X156354047Y-104306714D02*
X156592142Y-104973380D01*
X156687380Y-105211476D01*
X156735000Y-105259095D01*
X156830238Y-105306714D01*
X155973095Y-104973380D02*
X155973095Y-103973380D01*
X155973095Y-104354333D02*
X155877857Y-104306714D01*
X155687380Y-104306714D01*
X155592142Y-104354333D01*
X155544523Y-104401952D01*
X155496904Y-104497190D01*
X155496904Y-104782904D01*
X155544523Y-104878142D01*
X155592142Y-104925761D01*
X155687380Y-104973380D01*
X155877857Y-104973380D01*
X155973095Y-104925761D01*
X154925476Y-104973380D02*
X155020714Y-104925761D01*
X155068333Y-104878142D01*
X155115952Y-104782904D01*
X155115952Y-104497190D01*
X155068333Y-104401952D01*
X155020714Y-104354333D01*
X154925476Y-104306714D01*
X154782619Y-104306714D01*
X154687380Y-104354333D01*
X154639761Y-104401952D01*
X154592142Y-104497190D01*
X154592142Y-104782904D01*
X154639761Y-104878142D01*
X154687380Y-104925761D01*
X154782619Y-104973380D01*
X154925476Y-104973380D01*
X153735000Y-104973380D02*
X153735000Y-104449571D01*
X153782619Y-104354333D01*
X153877857Y-104306714D01*
X154068333Y-104306714D01*
X154163571Y-104354333D01*
X153735000Y-104925761D02*
X153830238Y-104973380D01*
X154068333Y-104973380D01*
X154163571Y-104925761D01*
X154211190Y-104830523D01*
X154211190Y-104735285D01*
X154163571Y-104640047D01*
X154068333Y-104592428D01*
X153830238Y-104592428D01*
X153735000Y-104544809D01*
X153258809Y-104973380D02*
X153258809Y-104306714D01*
X153258809Y-104497190D02*
X153211190Y-104401952D01*
X153163571Y-104354333D01*
X153068333Y-104306714D01*
X152973095Y-104306714D01*
X152211190Y-104973380D02*
X152211190Y-103973380D01*
X152211190Y-104925761D02*
X152306428Y-104973380D01*
X152496904Y-104973380D01*
X152592142Y-104925761D01*
X152639761Y-104878142D01*
X152687380Y-104782904D01*
X152687380Y-104497190D01*
X152639761Y-104401952D01*
X152592142Y-104354333D01*
X152496904Y-104306714D01*
X152306428Y-104306714D01*
X152211190Y-104354333D01*
X134732847Y-103493914D02*
X134351895Y-103493914D01*
X134589990Y-104160580D02*
X134589990Y-103303438D01*
X134542371Y-103208200D01*
X134447133Y-103160580D01*
X134351895Y-103160580D01*
X133589990Y-104160580D02*
X133589990Y-103636771D01*
X133637609Y-103541533D01*
X133732847Y-103493914D01*
X133923323Y-103493914D01*
X134018561Y-103541533D01*
X133589990Y-104112961D02*
X133685228Y-104160580D01*
X133923323Y-104160580D01*
X134018561Y-104112961D01*
X134066180Y-104017723D01*
X134066180Y-103922485D01*
X134018561Y-103827247D01*
X133923323Y-103779628D01*
X133685228Y-103779628D01*
X133589990Y-103732009D01*
X132685228Y-104112961D02*
X132780466Y-104160580D01*
X132970942Y-104160580D01*
X133066180Y-104112961D01*
X133113800Y-104065342D01*
X133161419Y-103970104D01*
X133161419Y-103684390D01*
X133113800Y-103589152D01*
X133066180Y-103541533D01*
X132970942Y-103493914D01*
X132780466Y-103493914D01*
X132685228Y-103541533D01*
X131875704Y-104112961D02*
X131970942Y-104160580D01*
X132161419Y-104160580D01*
X132256657Y-104112961D01*
X132304276Y-104017723D01*
X132304276Y-103636771D01*
X132256657Y-103541533D01*
X132161419Y-103493914D01*
X131970942Y-103493914D01*
X131875704Y-103541533D01*
X131828085Y-103636771D01*
X131828085Y-103732009D01*
X132304276Y-103827247D01*
X131399514Y-104160580D02*
X131399514Y-103160580D01*
X131399514Y-103541533D02*
X131304276Y-103493914D01*
X131113800Y-103493914D01*
X131018561Y-103541533D01*
X130970942Y-103589152D01*
X130923323Y-103684390D01*
X130923323Y-103970104D01*
X130970942Y-104065342D01*
X131018561Y-104112961D01*
X131113800Y-104160580D01*
X131304276Y-104160580D01*
X131399514Y-104112961D01*
X130351895Y-104160580D02*
X130447133Y-104112961D01*
X130494752Y-104065342D01*
X130542371Y-103970104D01*
X130542371Y-103684390D01*
X130494752Y-103589152D01*
X130447133Y-103541533D01*
X130351895Y-103493914D01*
X130209038Y-103493914D01*
X130113800Y-103541533D01*
X130066180Y-103589152D01*
X130018561Y-103684390D01*
X130018561Y-103970104D01*
X130066180Y-104065342D01*
X130113800Y-104112961D01*
X130209038Y-104160580D01*
X130351895Y-104160580D01*
X129447133Y-104160580D02*
X129542371Y-104112961D01*
X129589990Y-104065342D01*
X129637609Y-103970104D01*
X129637609Y-103684390D01*
X129589990Y-103589152D01*
X129542371Y-103541533D01*
X129447133Y-103493914D01*
X129304276Y-103493914D01*
X129209038Y-103541533D01*
X129161419Y-103589152D01*
X129113800Y-103684390D01*
X129113800Y-103970104D01*
X129161419Y-104065342D01*
X129209038Y-104112961D01*
X129304276Y-104160580D01*
X129447133Y-104160580D01*
X128685228Y-104160580D02*
X128685228Y-103160580D01*
X128589990Y-103779628D02*
X128304276Y-104160580D01*
X128304276Y-103493914D02*
X128685228Y-103874866D01*
X127875704Y-104065342D02*
X127828085Y-104112961D01*
X127875704Y-104160580D01*
X127923323Y-104112961D01*
X127875704Y-104065342D01*
X127875704Y-104160580D01*
X126970942Y-104112961D02*
X127066180Y-104160580D01*
X127256657Y-104160580D01*
X127351895Y-104112961D01*
X127399514Y-104065342D01*
X127447133Y-103970104D01*
X127447133Y-103684390D01*
X127399514Y-103589152D01*
X127351895Y-103541533D01*
X127256657Y-103493914D01*
X127066180Y-103493914D01*
X126970942Y-103541533D01*
X126399514Y-104160580D02*
X126494752Y-104112961D01*
X126542371Y-104065342D01*
X126589990Y-103970104D01*
X126589990Y-103684390D01*
X126542371Y-103589152D01*
X126494752Y-103541533D01*
X126399514Y-103493914D01*
X126256657Y-103493914D01*
X126161419Y-103541533D01*
X126113800Y-103589152D01*
X126066180Y-103684390D01*
X126066180Y-103970104D01*
X126113800Y-104065342D01*
X126161419Y-104112961D01*
X126256657Y-104160580D01*
X126399514Y-104160580D01*
X125637609Y-104160580D02*
X125637609Y-103493914D01*
X125637609Y-103589152D02*
X125589990Y-103541533D01*
X125494752Y-103493914D01*
X125351895Y-103493914D01*
X125256657Y-103541533D01*
X125209038Y-103636771D01*
X125209038Y-104160580D01*
X125209038Y-103636771D02*
X125161419Y-103541533D01*
X125066180Y-103493914D01*
X124923323Y-103493914D01*
X124828085Y-103541533D01*
X124780466Y-103636771D01*
X124780466Y-104160580D01*
X123589990Y-103112961D02*
X124447133Y-104398676D01*
X123256657Y-104160580D02*
X123256657Y-103493914D01*
X123256657Y-103589152D02*
X123209038Y-103541533D01*
X123113800Y-103493914D01*
X122970942Y-103493914D01*
X122875704Y-103541533D01*
X122828085Y-103636771D01*
X122828085Y-104160580D01*
X122828085Y-103636771D02*
X122780466Y-103541533D01*
X122685228Y-103493914D01*
X122542371Y-103493914D01*
X122447133Y-103541533D01*
X122399514Y-103636771D01*
X122399514Y-104160580D01*
X121780466Y-104160580D02*
X121875704Y-104112961D01*
X121923323Y-104065342D01*
X121970942Y-103970104D01*
X121970942Y-103684390D01*
X121923323Y-103589152D01*
X121875704Y-103541533D01*
X121780466Y-103493914D01*
X121637609Y-103493914D01*
X121542371Y-103541533D01*
X121494752Y-103589152D01*
X121447133Y-103684390D01*
X121447133Y-103970104D01*
X121494752Y-104065342D01*
X121542371Y-104112961D01*
X121637609Y-104160580D01*
X121780466Y-104160580D01*
X120875704Y-104160580D02*
X120970942Y-104112961D01*
X121018561Y-104065342D01*
X121066180Y-103970104D01*
X121066180Y-103684390D01*
X121018561Y-103589152D01*
X120970942Y-103541533D01*
X120875704Y-103493914D01*
X120732847Y-103493914D01*
X120637609Y-103541533D01*
X120589990Y-103589152D01*
X120542371Y-103684390D01*
X120542371Y-103970104D01*
X120589990Y-104065342D01*
X120637609Y-104112961D01*
X120732847Y-104160580D01*
X120875704Y-104160580D01*
X120113800Y-104160580D02*
X120113800Y-103493914D01*
X120113800Y-103684390D02*
X120066180Y-103589152D01*
X120018561Y-103541533D01*
X119923323Y-103493914D01*
X119828085Y-103493914D01*
X119113800Y-104112961D02*
X119209038Y-104160580D01*
X119399514Y-104160580D01*
X119494752Y-104112961D01*
X119542371Y-104017723D01*
X119542371Y-103636771D01*
X119494752Y-103541533D01*
X119399514Y-103493914D01*
X119209038Y-103493914D01*
X119113800Y-103541533D01*
X119066180Y-103636771D01*
X119066180Y-103732009D01*
X119542371Y-103827247D01*
X118637609Y-104160580D02*
X118637609Y-103160580D01*
X118542371Y-103779628D02*
X118256657Y-104160580D01*
X118256657Y-103493914D02*
X118637609Y-103874866D01*
X117447133Y-104112961D02*
X117542371Y-104160580D01*
X117732847Y-104160580D01*
X117828085Y-104112961D01*
X117875704Y-104017723D01*
X117875704Y-103636771D01*
X117828085Y-103541533D01*
X117732847Y-103493914D01*
X117542371Y-103493914D01*
X117447133Y-103541533D01*
X117399514Y-103636771D01*
X117399514Y-103732009D01*
X117875704Y-103827247D01*
X117066180Y-103493914D02*
X116828085Y-104160580D01*
X116589990Y-103493914D02*
X116828085Y-104160580D01*
X116923323Y-104398676D01*
X116970942Y-104446295D01*
X117066180Y-104493914D01*
X116209038Y-104160580D02*
X116209038Y-103160580D01*
X116209038Y-103541533D02*
X116113800Y-103493914D01*
X115923323Y-103493914D01*
X115828085Y-103541533D01*
X115780466Y-103589152D01*
X115732847Y-103684390D01*
X115732847Y-103970104D01*
X115780466Y-104065342D01*
X115828085Y-104112961D01*
X115923323Y-104160580D01*
X116113800Y-104160580D01*
X116209038Y-104112961D01*
X115161419Y-104160580D02*
X115256657Y-104112961D01*
X115304276Y-104065342D01*
X115351895Y-103970104D01*
X115351895Y-103684390D01*
X115304276Y-103589152D01*
X115256657Y-103541533D01*
X115161419Y-103493914D01*
X115018561Y-103493914D01*
X114923323Y-103541533D01*
X114875704Y-103589152D01*
X114828085Y-103684390D01*
X114828085Y-103970104D01*
X114875704Y-104065342D01*
X114923323Y-104112961D01*
X115018561Y-104160580D01*
X115161419Y-104160580D01*
X113970942Y-104160580D02*
X113970942Y-103636771D01*
X114018561Y-103541533D01*
X114113800Y-103493914D01*
X114304276Y-103493914D01*
X114399514Y-103541533D01*
X113970942Y-104112961D02*
X114066180Y-104160580D01*
X114304276Y-104160580D01*
X114399514Y-104112961D01*
X114447133Y-104017723D01*
X114447133Y-103922485D01*
X114399514Y-103827247D01*
X114304276Y-103779628D01*
X114066180Y-103779628D01*
X113970942Y-103732009D01*
X113494752Y-104160580D02*
X113494752Y-103493914D01*
X113494752Y-103684390D02*
X113447133Y-103589152D01*
X113399514Y-103541533D01*
X113304276Y-103493914D01*
X113209038Y-103493914D01*
X112447133Y-104160580D02*
X112447133Y-103160580D01*
X112447133Y-104112961D02*
X112542371Y-104160580D01*
X112732847Y-104160580D01*
X112828085Y-104112961D01*
X112875704Y-104065342D01*
X112923323Y-103970104D01*
X112923323Y-103684390D01*
X112875704Y-103589152D01*
X112828085Y-103541533D01*
X112732847Y-103493914D01*
X112542371Y-103493914D01*
X112447133Y-103541533D01*
X112018561Y-104112961D02*
X111923323Y-104160580D01*
X111732847Y-104160580D01*
X111637609Y-104112961D01*
X111589990Y-104017723D01*
X111589990Y-103970104D01*
X111637609Y-103874866D01*
X111732847Y-103827247D01*
X111875704Y-103827247D01*
X111970942Y-103779628D01*
X112018561Y-103684390D01*
X112018561Y-103636771D01*
X111970942Y-103541533D01*
X111875704Y-103493914D01*
X111732847Y-103493914D01*
X111637609Y-103541533D01*
%TO.C,D8*%
X196545200Y-86842600D02*
X196545200Y-85318600D01*
X196037200Y-86842600D02*
X196037200Y-85318600D01*
X196672200Y-86842600D02*
X196672200Y-85318600D01*
X195910200Y-85318600D02*
X200990200Y-85318600D01*
X195910200Y-86842600D02*
X195910200Y-85318600D01*
X196418200Y-85318600D02*
X196418200Y-86842600D01*
X196164200Y-85318600D02*
X196164200Y-86842600D01*
X200990200Y-86842600D02*
X200482200Y-86842600D01*
X200990200Y-86842600D02*
X195910200Y-86842600D01*
X200990200Y-85318600D02*
X200990200Y-86842600D01*
X196291200Y-86842600D02*
X196291200Y-85318600D01*
%TO.C,D28*%
X111233245Y-93441640D02*
X112757245Y-93441640D01*
X111233245Y-92933640D02*
X112757245Y-92933640D01*
X111233245Y-93568640D02*
X112757245Y-93568640D01*
X112757245Y-92806640D02*
X112757245Y-97886640D01*
X111233245Y-92806640D02*
X112757245Y-92806640D01*
X112757245Y-93314640D02*
X111233245Y-93314640D01*
X112757245Y-93060640D02*
X111233245Y-93060640D01*
X111233245Y-97886640D02*
X111233245Y-97378640D01*
X111233245Y-97886640D02*
X111233245Y-92806640D01*
X112757245Y-97886640D02*
X111233245Y-97886640D01*
X111233245Y-93187640D02*
X112757245Y-93187640D01*
%TO.C,D27*%
X111141079Y-74587861D02*
X112665079Y-74587861D01*
X111141079Y-74079861D02*
X112665079Y-74079861D01*
X111141079Y-74714861D02*
X112665079Y-74714861D01*
X112665079Y-73952861D02*
X112665079Y-79032861D01*
X111141079Y-73952861D02*
X112665079Y-73952861D01*
X112665079Y-74460861D02*
X111141079Y-74460861D01*
X112665079Y-74206861D02*
X111141079Y-74206861D01*
X111141079Y-79032861D02*
X111141079Y-78524861D01*
X111141079Y-79032861D02*
X111141079Y-73952861D01*
X112665079Y-79032861D02*
X111141079Y-79032861D01*
X111141079Y-74333861D02*
X112665079Y-74333861D01*
%TO.C,D26*%
X120116600Y-61899800D02*
X120116600Y-60375800D01*
X119608600Y-61899800D02*
X119608600Y-60375800D01*
X120243600Y-61899800D02*
X120243600Y-60375800D01*
X119481600Y-60375800D02*
X124561600Y-60375800D01*
X119481600Y-61899800D02*
X119481600Y-60375800D01*
X119989600Y-60375800D02*
X119989600Y-61899800D01*
X119735600Y-60375800D02*
X119735600Y-61899800D01*
X124561600Y-61899800D02*
X124053600Y-61899800D01*
X124561600Y-61899800D02*
X119481600Y-61899800D01*
X124561600Y-60375800D02*
X124561600Y-61899800D01*
X119862600Y-61899800D02*
X119862600Y-60375800D01*
%TO.C,D24*%
X130245609Y-92033162D02*
X131769609Y-92033162D01*
X130245609Y-91525162D02*
X131769609Y-91525162D01*
X130245609Y-92160162D02*
X131769609Y-92160162D01*
X131769609Y-91398162D02*
X131769609Y-96478162D01*
X130245609Y-91398162D02*
X131769609Y-91398162D01*
X131769609Y-91906162D02*
X130245609Y-91906162D01*
X131769609Y-91652162D02*
X130245609Y-91652162D01*
X130245609Y-96478162D02*
X130245609Y-95970162D01*
X130245609Y-96478162D02*
X130245609Y-91398162D01*
X131769609Y-96478162D02*
X130245609Y-96478162D01*
X130245609Y-91779162D02*
X131769609Y-91779162D01*
%TO.C,D23*%
X130407349Y-72956240D02*
X131931349Y-72956240D01*
X130407349Y-72448240D02*
X131931349Y-72448240D01*
X130407349Y-73083240D02*
X131931349Y-73083240D01*
X131931349Y-72321240D02*
X131931349Y-77401240D01*
X130407349Y-72321240D02*
X131931349Y-72321240D01*
X131931349Y-72829240D02*
X130407349Y-72829240D01*
X131931349Y-72575240D02*
X130407349Y-72575240D01*
X130407349Y-77401240D02*
X130407349Y-76893240D01*
X130407349Y-77401240D02*
X130407349Y-72321240D01*
X131931349Y-77401240D02*
X130407349Y-77401240D01*
X130407349Y-72702240D02*
X131931349Y-72702240D01*
%TO.C,D22*%
X130255392Y-53601155D02*
X131779392Y-53601155D01*
X130255392Y-53093155D02*
X131779392Y-53093155D01*
X130255392Y-53728155D02*
X131779392Y-53728155D01*
X131779392Y-52966155D02*
X131779392Y-58046155D01*
X130255392Y-52966155D02*
X131779392Y-52966155D01*
X131779392Y-53474155D02*
X130255392Y-53474155D01*
X131779392Y-53220155D02*
X130255392Y-53220155D01*
X130255392Y-58046155D02*
X130255392Y-57538155D01*
X130255392Y-58046155D02*
X130255392Y-52966155D01*
X131779392Y-58046155D02*
X130255392Y-58046155D01*
X130255392Y-53347155D02*
X131779392Y-53347155D01*
%TO.C,D20*%
X90881914Y-136814913D02*
X89954162Y-135605843D01*
X90781158Y-136892226D02*
X89853406Y-135683155D01*
X89752650Y-135760468D02*
X90680402Y-136969538D01*
X90378135Y-137201477D02*
X89450382Y-135992406D01*
X89551138Y-135915093D02*
X90478890Y-137124164D01*
X90579646Y-137046851D02*
X89651894Y-135837781D01*
X94307614Y-134186281D02*
X93904590Y-134495532D01*
X93379861Y-132977211D02*
X94307614Y-134186281D01*
X89349626Y-136069719D02*
X93379861Y-132977211D01*
X90277379Y-137278789D02*
X89349626Y-136069719D01*
X94307614Y-134186281D02*
X90277379Y-137278789D01*
%TO.C,D19*%
X149430403Y-86160988D02*
X150954403Y-86160988D01*
X149430403Y-85652988D02*
X150954403Y-85652988D01*
X149430403Y-86287988D02*
X150954403Y-86287988D01*
X150954403Y-85525988D02*
X150954403Y-90605988D01*
X149430403Y-85525988D02*
X150954403Y-85525988D01*
X150954403Y-86033988D02*
X149430403Y-86033988D01*
X150954403Y-85779988D02*
X149430403Y-85779988D01*
X149430403Y-90605988D02*
X149430403Y-90097988D01*
X149430403Y-90605988D02*
X149430403Y-85525988D01*
X150954403Y-90605988D02*
X149430403Y-90605988D01*
X149430403Y-85906988D02*
X150954403Y-85906988D01*
%TO.C,D18*%
X157492700Y-73342500D02*
X157492700Y-71818500D01*
X156984700Y-73342500D02*
X156984700Y-71818500D01*
X157619700Y-73342500D02*
X157619700Y-71818500D01*
X156857700Y-71818500D02*
X161937700Y-71818500D01*
X156857700Y-73342500D02*
X156857700Y-71818500D01*
X157365700Y-71818500D02*
X157365700Y-73342500D01*
X157111700Y-71818500D02*
X157111700Y-73342500D01*
X161937700Y-73342500D02*
X161429700Y-73342500D01*
X161937700Y-73342500D02*
X156857700Y-73342500D01*
X161937700Y-71818500D02*
X161937700Y-73342500D01*
X157238700Y-73342500D02*
X157238700Y-71818500D01*
%TO.C,D17*%
X158432500Y-53943250D02*
X158432500Y-52419250D01*
X157924500Y-53943250D02*
X157924500Y-52419250D01*
X158559500Y-53943250D02*
X158559500Y-52419250D01*
X157797500Y-52419250D02*
X162877500Y-52419250D01*
X157797500Y-53943250D02*
X157797500Y-52419250D01*
X158305500Y-52419250D02*
X158305500Y-53943250D01*
X158051500Y-52419250D02*
X158051500Y-53943250D01*
X162877500Y-53943250D02*
X162369500Y-53943250D01*
X162877500Y-53943250D02*
X157797500Y-53943250D01*
X162877500Y-52419250D02*
X162877500Y-53943250D01*
X158178500Y-53943250D02*
X158178500Y-52419250D01*
%TO.C,D15*%
X106896840Y-126791022D02*
X106252770Y-125409809D01*
X106781739Y-126844694D02*
X106137669Y-125463481D01*
X106022567Y-125517154D02*
X106666638Y-126898367D01*
X106321334Y-127059384D02*
X105677264Y-125678171D01*
X105792365Y-125624499D02*
X106436436Y-127005712D01*
X106551537Y-126952039D02*
X105907466Y-125570826D01*
X110810277Y-124966156D02*
X110349873Y-125180846D01*
X110166207Y-123584943D02*
X110810277Y-124966156D01*
X105562163Y-125731844D02*
X110166207Y-123584943D01*
X106206233Y-127113057D02*
X105562163Y-125731844D01*
X110810277Y-124966156D02*
X106206233Y-127113057D01*
%TO.C,D14*%
X168354409Y-89626959D02*
X169878409Y-89626959D01*
X168354409Y-89118959D02*
X169878409Y-89118959D01*
X168354409Y-89753959D02*
X169878409Y-89753959D01*
X169878409Y-88991959D02*
X169878409Y-94071959D01*
X168354409Y-88991959D02*
X169878409Y-88991959D01*
X169878409Y-89499959D02*
X168354409Y-89499959D01*
X169878409Y-89245959D02*
X168354409Y-89245959D01*
X168354409Y-94071959D02*
X168354409Y-93563959D01*
X168354409Y-94071959D02*
X168354409Y-88991959D01*
X169878409Y-94071959D02*
X168354409Y-94071959D01*
X168354409Y-89372959D02*
X169878409Y-89372959D01*
%TO.C,D13*%
X168383564Y-70320398D02*
X169907564Y-70320398D01*
X168383564Y-69812398D02*
X169907564Y-69812398D01*
X168383564Y-70447398D02*
X169907564Y-70447398D01*
X169907564Y-69685398D02*
X169907564Y-74765398D01*
X168383564Y-69685398D02*
X169907564Y-69685398D01*
X169907564Y-70193398D02*
X168383564Y-70193398D01*
X169907564Y-69939398D02*
X168383564Y-69939398D01*
X168383564Y-74765398D02*
X168383564Y-74257398D01*
X168383564Y-74765398D02*
X168383564Y-69685398D01*
X169907564Y-74765398D02*
X168383564Y-74765398D01*
X168383564Y-70066398D02*
X169907564Y-70066398D01*
%TO.C,D12*%
X177482500Y-57912000D02*
X177482500Y-56388000D01*
X176974500Y-57912000D02*
X176974500Y-56388000D01*
X177609500Y-57912000D02*
X177609500Y-56388000D01*
X176847500Y-56388000D02*
X181927500Y-56388000D01*
X176847500Y-57912000D02*
X176847500Y-56388000D01*
X177355500Y-56388000D02*
X177355500Y-57912000D01*
X177101500Y-56388000D02*
X177101500Y-57912000D01*
X181927500Y-57912000D02*
X181419500Y-57912000D01*
X181927500Y-57912000D02*
X176847500Y-57912000D01*
X181927500Y-56388000D02*
X181927500Y-57912000D01*
X177228500Y-57912000D02*
X177228500Y-56388000D01*
%TO.C,D10*%
X124811853Y-120582427D02*
X124481999Y-119094552D01*
X124687863Y-120609915D02*
X124358009Y-119122040D01*
X124234020Y-119149528D02*
X124563873Y-120637403D01*
X124191905Y-120719866D02*
X123862051Y-119231991D01*
X123986040Y-119204503D02*
X124315894Y-120692379D01*
X124439884Y-120664891D02*
X124110030Y-119177016D01*
X129027499Y-119647841D02*
X128531540Y-119757792D01*
X128697645Y-118159966D02*
X129027499Y-119647841D01*
X123738061Y-119259479D02*
X128697645Y-118159966D01*
X124067915Y-120747354D02*
X123738061Y-119259479D01*
X129027499Y-119647841D02*
X124067915Y-120747354D01*
%TO.C,D9*%
X187111952Y-99311766D02*
X188635952Y-99311766D01*
X187111952Y-98803766D02*
X188635952Y-98803766D01*
X187111952Y-99438766D02*
X188635952Y-99438766D01*
X188635952Y-98676766D02*
X188635952Y-103756766D01*
X187111952Y-98676766D02*
X188635952Y-98676766D01*
X188635952Y-99184766D02*
X187111952Y-99184766D01*
X188635952Y-98930766D02*
X187111952Y-98930766D01*
X187111952Y-103756766D02*
X187111952Y-103248766D01*
X187111952Y-103756766D02*
X187111952Y-98676766D01*
X188635952Y-103756766D02*
X187111952Y-103756766D01*
X187111952Y-99057766D02*
X188635952Y-99057766D01*
%TO.C,D7*%
X187461421Y-59611973D02*
X188985421Y-59611973D01*
X187461421Y-59103973D02*
X188985421Y-59103973D01*
X187461421Y-59738973D02*
X188985421Y-59738973D01*
X188985421Y-58976973D02*
X188985421Y-64056973D01*
X187461421Y-58976973D02*
X188985421Y-58976973D01*
X188985421Y-59484973D02*
X187461421Y-59484973D01*
X188985421Y-59230973D02*
X187461421Y-59230973D01*
X187461421Y-64056973D02*
X187461421Y-63548973D01*
X187461421Y-64056973D02*
X187461421Y-58976973D01*
X188985421Y-64056973D02*
X187461421Y-64056973D01*
X187461421Y-59357973D02*
X188985421Y-59357973D01*
%TO.C,U1*%
X108534200Y-74434700D02*
X90754200Y-74434700D01*
X90754200Y-74434700D02*
X90754200Y-43954700D01*
X90754200Y-43954700D02*
X95834200Y-43954700D01*
X95834200Y-43954700D02*
X95834200Y-41414700D01*
X95834200Y-41414700D02*
X103454200Y-41414700D01*
X103454200Y-41414700D02*
X103454200Y-43954700D01*
X103454200Y-43954700D02*
X108534200Y-43954700D01*
X108534200Y-43954700D02*
X108534200Y-74434700D01*
D13*
%TO.C,J2*%
X99443000Y-106097000D02*
X99443000Y-107497000D01*
X100993000Y-106097000D02*
X100993000Y-107497000D01*
X100543000Y-99897000D02*
X90018000Y-99897000D01*
X100993000Y-106097000D02*
X102118000Y-106097000D01*
X97043000Y-106097000D02*
X99443000Y-106097000D01*
X94043000Y-106097000D02*
X95393000Y-106097000D01*
X90018000Y-106097000D02*
X92393000Y-106097000D01*
X102118000Y-99897000D02*
X102118000Y-106097000D01*
X90018000Y-106097000D02*
X90018000Y-105497000D01*
X90018000Y-100497000D02*
X90018000Y-99897000D01*
X88018000Y-105497000D02*
X88018000Y-100497000D01*
X90018000Y-105497000D02*
X88018000Y-105497000D01*
X90018000Y-100497000D02*
X88018000Y-100497000D01*
%TD*%
%TO.C,D20*%
D12*
X93692036Y-135918982D02*
X93205027Y-135284299D01*
X93053912Y-135400253D01*
X92986434Y-135500049D01*
X92972370Y-135606877D01*
X92988529Y-135690514D01*
X93051070Y-135834597D01*
X93120642Y-135925266D01*
X93243629Y-136022967D01*
X93320234Y-136060222D01*
X93427061Y-136074286D01*
X93540921Y-136034936D01*
X93692036Y-135918982D01*
X92646949Y-135808563D02*
X92593535Y-135801531D01*
X92509898Y-135817690D01*
X92358784Y-135933644D01*
X92321528Y-136010249D01*
X92314496Y-136063663D01*
X92330655Y-136147300D01*
X92377037Y-136207746D01*
X92476833Y-136275224D01*
X93117800Y-136359609D01*
X92724901Y-136661091D01*
X91844993Y-136327890D02*
X91784547Y-136374272D01*
X91747292Y-136450877D01*
X91740260Y-136504290D01*
X91756419Y-136587927D01*
X91818959Y-136732010D01*
X91934914Y-136883125D01*
X92057900Y-136980826D01*
X92134505Y-137018081D01*
X92187919Y-137025113D01*
X92271556Y-137008954D01*
X92332002Y-136962573D01*
X92369257Y-136885968D01*
X92376289Y-136832554D01*
X92360130Y-136748917D01*
X92297590Y-136604834D01*
X92181635Y-136453719D01*
X92058648Y-136356018D01*
X91982044Y-136318763D01*
X91928630Y-136311731D01*
X91844993Y-136327890D01*
%TO.C,D15*%
X109834266Y-126524549D02*
X109496172Y-125799503D01*
X109323542Y-125880002D01*
X109236063Y-125962827D01*
X109199211Y-126064078D01*
X109196884Y-126149230D01*
X109226757Y-126303434D01*
X109275057Y-126407012D01*
X109373982Y-126529016D01*
X109440707Y-126581969D01*
X109541959Y-126618821D01*
X109661636Y-126605048D01*
X109834266Y-126524549D01*
X108729434Y-127039741D02*
X109143746Y-126846544D01*
X108936590Y-126943142D02*
X108598495Y-126218096D01*
X108715847Y-126289475D01*
X108817098Y-126326327D01*
X108902250Y-126328654D01*
X107735345Y-126620590D02*
X108080605Y-126459592D01*
X108276129Y-126788753D01*
X108225503Y-126770326D01*
X108140351Y-126768000D01*
X107967721Y-126848499D01*
X107914769Y-126915224D01*
X107896343Y-126965850D01*
X107894016Y-127051002D01*
X107974515Y-127223632D01*
X108041240Y-127276584D01*
X108091866Y-127295010D01*
X108177018Y-127297337D01*
X108349648Y-127216838D01*
X108402600Y-127150113D01*
X108421026Y-127099487D01*
%TO.C,D10*%
X127737325Y-120958047D02*
X127564173Y-120177010D01*
X127378212Y-120218237D01*
X127274881Y-120280165D01*
X127216987Y-120371040D01*
X127196285Y-120453670D01*
X127192074Y-120610684D01*
X127216810Y-120722261D01*
X127286984Y-120862784D01*
X127340667Y-120928924D01*
X127431542Y-120986817D01*
X127551364Y-120999274D01*
X127737325Y-120958047D01*
X126547174Y-121221897D02*
X126993480Y-121122953D01*
X126770327Y-121172425D02*
X126597175Y-120391389D01*
X126696296Y-120486475D01*
X126787171Y-120544368D01*
X126869801Y-120565070D01*
X125890523Y-120548050D02*
X125816138Y-120564540D01*
X125749999Y-120618223D01*
X125721052Y-120663661D01*
X125700351Y-120746290D01*
X125696140Y-120903305D01*
X125737366Y-121089266D01*
X125807540Y-121229789D01*
X125861223Y-121295929D01*
X125906660Y-121324875D01*
X125989290Y-121345577D01*
X126063675Y-121329086D01*
X126129814Y-121275404D01*
X126158761Y-121229966D01*
X126179462Y-121147336D01*
X126183673Y-120990322D01*
X126142447Y-120804361D01*
X126072273Y-120663837D01*
X126018590Y-120597698D01*
X125973153Y-120568751D01*
X125890523Y-120548050D01*
%TO.C,J2*%
X96776333Y-107799380D02*
X96776333Y-108513666D01*
X96823952Y-108656523D01*
X96919190Y-108751761D01*
X97062047Y-108799380D01*
X97157285Y-108799380D01*
X96347761Y-107894619D02*
X96300142Y-107847000D01*
X96204904Y-107799380D01*
X95966809Y-107799380D01*
X95871571Y-107847000D01*
X95823952Y-107894619D01*
X95776333Y-107989857D01*
X95776333Y-108085095D01*
X95823952Y-108227952D01*
X96395380Y-108799380D01*
X95776333Y-108799380D01*
%TD*%
M02*
