M48
; DRILL file {KiCad (5.1.7)-1} date 04/13/21 00:10:37
; FORMAT={-:-/ absolute / metric / decimal}
; #@! TF.CreationDate,2021-04-13T00:10:37+05:30
; #@! TF.GenerationSoftware,Kicad,Pcbnew,(5.1.7)-1
; #@! TF.FileFunction,Plated,1,2,PTH
FMAT,2
METRIC
T1C0.400
T2C1.000
T3C1.100
T4C1.500
%
G90
G05
T1
X105.496Y-35.009
X105.791Y-28.067
X106.131Y-36.256
X132.161Y-112.972
X144.526Y-38.481
X147.467Y-59.543
X147.918Y-75.919
X150.622Y-102.743
T2
X169.116Y-87.632
X169.116Y-95.432
X111.903Y-72.593
X111.903Y-80.393
X188.199Y-77.992
X188.199Y-85.792
X104.652Y-126.997
X111.721Y-123.701
X111.995Y-91.447
X111.995Y-99.247
X155.644Y-34.131
X163.444Y-34.131
X112.087Y-34.596
X112.087Y-42.396
X175.487Y-57.15
X183.287Y-57.15
X156.438Y-53.181
X164.237Y-53.181
X174.694Y-37.306
X182.494Y-37.306
X131.008Y-90.038
X131.008Y-97.838
X187.874Y-97.317
X187.874Y-105.117
X122.575Y-120.298
X130.19Y-118.61
X131.169Y-70.961
X131.169Y-78.761
X169.146Y-68.325
X169.146Y-76.125
X150.192Y-84.166
X150.192Y-91.966
X111.859Y-53.558
X111.859Y-61.358
X131.017Y-51.606
X131.017Y-59.406
X88.735Y-137.502
X94.923Y-132.754
X194.604Y-47.879
X202.404Y-47.879
X188.223Y-57.617
X188.223Y-65.417
X150.286Y-65.322
X150.286Y-73.122
X131.058Y-32.982
X131.058Y-40.782
T3
X151.924Y-18.574
X151.924Y-21.114
X151.924Y-23.654
X151.924Y-26.194
X151.924Y-28.734
X151.924Y-31.274
X151.924Y-33.814
X151.924Y-36.354
X151.924Y-38.894
X151.924Y-41.434
X151.924Y-43.974
X151.924Y-46.514
X167.164Y-18.574
X167.164Y-21.114
X167.164Y-23.654
X167.164Y-26.194
X167.164Y-28.734
X167.164Y-31.274
X167.164Y-33.814
X167.164Y-36.354
X167.164Y-38.894
X167.164Y-41.434
X167.164Y-43.974
X167.164Y-46.514
T4
X193.827Y-75.281
X195.097Y-72.741
X195.137Y-73.321
X195.137Y-73.821
X200.137Y-73.321
X200.137Y-73.821
X200.177Y-72.741
X201.447Y-75.281
X155.755Y-61.974
X157.025Y-59.434
X157.065Y-60.014
X157.065Y-60.514
X162.065Y-60.014
X162.065Y-60.514
X162.105Y-59.434
X163.375Y-61.974
X81.967Y-126.464
X82.352Y-126.9
X82.506Y-129.252
X82.656Y-127.296
X85.997Y-123.371
X86.318Y-123.856
X86.623Y-124.253
X88.551Y-124.613
X155.736Y-42.849
X157.006Y-40.309
X157.046Y-40.889
X157.046Y-41.389
X162.046Y-40.889
X162.046Y-41.389
X162.086Y-40.309
X163.356Y-42.849
X174.752Y-27.659
X176.022Y-25.119
X176.062Y-25.699
X176.062Y-26.199
X181.062Y-25.699
X181.062Y-26.199
X181.102Y-25.119
X182.372Y-27.659
X117.628Y-69.52
X118.898Y-66.98
X118.938Y-67.56
X118.938Y-68.06
X123.938Y-67.56
X123.938Y-68.06
X123.978Y-66.98
X125.248Y-69.52
X117.584Y-50.485
X118.854Y-47.945
X118.894Y-48.525
X118.894Y-49.025
X123.894Y-48.525
X123.894Y-49.025
X123.934Y-47.945
X125.204Y-50.485
X174.796Y-46.694
X176.066Y-44.154
X176.106Y-44.734
X176.106Y-45.234
X181.106Y-44.734
X181.106Y-45.234
X181.146Y-44.154
X182.416Y-46.694
X136.699Y-29.498
X137.969Y-26.958
X138.009Y-27.538
X138.009Y-28.038
X143.009Y-27.538
X143.009Y-28.038
X143.049Y-26.958
X144.319Y-29.498
X155.708Y-80.985
X156.978Y-78.445
X157.018Y-79.025
X157.018Y-79.525
X162.018Y-79.025
X162.018Y-79.525
X162.058Y-78.445
X163.328Y-80.985
X193.783Y-56.246
X195.053Y-53.706
X195.093Y-54.286
X195.093Y-54.786
X200.093Y-54.286
X200.093Y-54.786
X200.133Y-53.706
X201.403Y-56.246
X193.854Y-37.145
X195.124Y-34.605
X195.164Y-35.185
X195.164Y-35.685
X200.164Y-35.185
X200.164Y-35.685
X200.204Y-34.605
X201.474Y-37.145
X174.749Y-65.705
X176.019Y-63.165
X176.059Y-63.745
X176.059Y-64.245
X181.059Y-63.745
X181.059Y-64.245
X181.099Y-63.165
X182.369Y-65.705
X100.031Y-117.703
X100.109Y-114.864
X100.39Y-115.373
X100.602Y-115.826
X104.713Y-112.717
X104.922Y-113.26
X105.133Y-113.713
X106.937Y-114.482
X136.671Y-67.634
X137.941Y-65.094
X137.981Y-65.674
X137.981Y-66.174
X142.981Y-65.674
X142.981Y-66.174
X143.021Y-65.094
X144.291Y-67.634
X119.639Y-110.083
X120.329Y-107.329
X120.494Y-107.886
X120.602Y-108.375
X125.289Y-106.229
X125.375Y-106.804
X125.484Y-107.292
X127.079Y-108.434
X174.768Y-84.83
X176.038Y-82.29
X176.078Y-82.87
X176.078Y-83.37
X181.078Y-82.87
X181.078Y-83.37
X181.118Y-82.29
X182.388Y-84.83
X155.782Y-23.838
X157.052Y-21.298
X157.092Y-21.878
X157.092Y-22.378
X162.092Y-21.878
X162.092Y-22.378
X162.132Y-21.298
X163.402Y-23.838
X136.715Y-86.669
X137.985Y-84.129
X138.025Y-84.709
X138.025Y-85.209
X143.025Y-84.709
X143.025Y-85.209
X143.065Y-84.129
X144.335Y-86.669
X117.631Y-31.474
X118.901Y-28.934
X118.941Y-29.514
X118.941Y-30.014
X123.941Y-29.514
X123.941Y-30.014
X123.981Y-28.934
X125.251Y-31.474
X193.87Y-94.316
X195.14Y-91.776
X195.18Y-92.356
X195.18Y-92.856
X200.18Y-92.356
X200.18Y-92.856
X200.22Y-91.776
X201.49Y-94.316
X136.718Y-48.623
X137.988Y-46.083
X138.028Y-46.663
X138.028Y-47.163
X143.028Y-46.663
X143.028Y-47.163
X143.068Y-46.083
X144.338Y-48.623
X117.647Y-88.645
X118.917Y-86.105
X118.957Y-86.685
X118.957Y-87.185
X123.957Y-86.685
X123.957Y-87.185
X123.997Y-86.105
X125.267Y-88.645
T0
M30
