%TF.GenerationSoftware,KiCad,Pcbnew,(5.1.7)-1*%
%TF.CreationDate,2021-04-25T19:22:07+05:30*%
%TF.ProjectId,Pteron36v0,50746572-6f6e-4333-9676-302e6b696361,rev?*%
%TF.SameCoordinates,Original*%
%TF.FileFunction,Soldermask,Bot*%
%TF.FilePolarity,Negative*%
%FSLAX46Y46*%
G04 Gerber Fmt 4.6, Leading zero omitted, Abs format (unit mm)*
G04 Created by KiCad (PCBNEW (5.1.7)-1) date 2021-04-25 19:22:07*
%MOMM*%
%LPD*%
G01*
G04 APERTURE LIST*
%ADD10C,1.193800*%
%ADD11C,3.987800*%
%ADD12O,2.300000X3.337000*%
%ADD13C,2.286000*%
%ADD14C,1.200000*%
%ADD15C,2.200000*%
%ADD16C,2.500000*%
%ADD17C,1.900000*%
%ADD18C,3.400000*%
%ADD19O,1.600000X2.000000*%
%ADD20C,0.800000*%
%ADD21C,1.600000*%
%ADD22R,1.600000X1.600000*%
%ADD23R,2.000000X2.000000*%
%ADD24C,2.000000*%
%ADD25R,3.200000X2.000000*%
%ADD26R,1.600000X1.200000*%
%ADD27R,1.100000X1.800000*%
%ADD28O,3.759200X1.879600*%
%ADD29R,1.200000X1.600000*%
%ADD30C,0.100000*%
%ADD31R,1.270000X0.635000*%
%ADD32C,1.397000*%
G04 APERTURE END LIST*
D10*
%TO.C,SW19*%
X164597991Y-83524865D03*
X154437991Y-83524865D03*
D11*
X159517991Y-83524865D03*
D12*
X162037991Y-79024865D03*
X156997991Y-79024865D03*
D13*
X163327991Y-80984865D03*
X155707991Y-80984865D03*
D14*
X164643011Y-87724865D03*
D15*
X154423011Y-79724865D03*
D14*
X154297991Y-87724865D03*
D16*
X159517991Y-77624865D03*
D15*
X164517991Y-79724865D03*
D17*
X165017991Y-83524865D03*
X154017991Y-83524865D03*
D18*
X159517991Y-83524865D03*
%TD*%
D10*
%TO.C,SW7*%
X202673133Y-58786490D03*
X192513133Y-58786490D03*
D11*
X197593133Y-58786490D03*
D12*
X200113133Y-54286490D03*
X195073133Y-54286490D03*
D13*
X201403133Y-56246490D03*
X193783133Y-56246490D03*
D14*
X202718153Y-62986490D03*
D15*
X192498153Y-54986490D03*
D14*
X192373133Y-62986490D03*
D16*
X197593133Y-52886490D03*
D15*
X202593133Y-54986490D03*
D17*
X203093133Y-58786490D03*
X192093133Y-58786490D03*
D18*
X197593133Y-58786490D03*
%TD*%
D10*
%TO.C,SW8*%
X202716781Y-77821391D03*
X192556781Y-77821391D03*
D11*
X197636781Y-77821391D03*
D12*
X200156781Y-73321391D03*
X195116781Y-73321391D03*
D13*
X201446781Y-75281391D03*
X193826781Y-75281391D03*
D14*
X202761801Y-82021391D03*
D15*
X192541801Y-74021391D03*
D14*
X192416781Y-82021391D03*
D16*
X197636781Y-71921391D03*
D15*
X202636781Y-74021391D03*
D17*
X203136781Y-77821391D03*
X192136781Y-77821391D03*
D18*
X197636781Y-77821391D03*
%TD*%
D10*
%TO.C,SW9*%
X202760423Y-96856291D03*
X192600423Y-96856291D03*
D11*
X197680423Y-96856291D03*
D12*
X200200423Y-92356291D03*
X195160423Y-92356291D03*
D13*
X201490423Y-94316291D03*
X193870423Y-94316291D03*
D14*
X202805443Y-101056291D03*
D15*
X192585443Y-93056291D03*
D14*
X192460423Y-101056291D03*
D16*
X197680423Y-90956291D03*
D15*
X202680423Y-93056291D03*
D17*
X203180423Y-96856291D03*
X192180423Y-96856291D03*
D18*
X197680423Y-96856291D03*
%TD*%
D10*
%TO.C,SW10*%
X128868213Y-110639078D03*
X118949045Y-112838104D03*
D11*
X123908629Y-111738591D03*
G36*
G01*
X124384401Y-107554946D02*
X124159953Y-106542528D01*
G75*
G02*
X125033787Y-105170882I1122740J248906D01*
G01*
X125033787Y-105170882D01*
G75*
G02*
X126405433Y-106044716I248906J-1122740D01*
G01*
X126629881Y-107057134D01*
G75*
G02*
X125756047Y-108428780I-1122740J-248906D01*
G01*
X125756047Y-108428780D01*
G75*
G02*
X124384401Y-107554946I-248906J1122740D01*
G01*
G37*
G36*
G01*
X119463869Y-108645802D02*
X119239421Y-107633384D01*
G75*
G02*
X120113255Y-106261738I1122740J248906D01*
G01*
X120113255Y-106261738D01*
G75*
G02*
X121484901Y-107135572I248906J-1122740D01*
G01*
X121709349Y-108147990D01*
G75*
G02*
X120835515Y-109519636I-1122740J-248906D01*
G01*
X120835515Y-109519636D01*
G75*
G02*
X119463869Y-108645802I-248906J1122740D01*
G01*
G37*
D13*
X127078560Y-108434164D03*
X119639185Y-110083434D03*
D14*
X129821212Y-114729777D03*
D15*
X118111950Y-109131422D03*
D14*
X119721410Y-116968849D03*
D16*
X122631635Y-105978445D03*
D15*
X127967639Y-106946468D03*
D17*
X129278257Y-110548173D03*
X118539001Y-112929009D03*
D18*
X123908629Y-111738591D03*
%TD*%
D10*
%TO.C,SW12*%
X183685960Y-49234275D03*
X173525960Y-49234275D03*
D11*
X178605960Y-49234275D03*
D12*
X181125960Y-44734275D03*
X176085960Y-44734275D03*
D13*
X182415960Y-46694275D03*
X174795960Y-46694275D03*
D14*
X183730980Y-53434275D03*
D15*
X173510980Y-45434275D03*
D14*
X173385960Y-53434275D03*
D16*
X178605960Y-43334275D03*
D15*
X183605960Y-45434275D03*
D17*
X184105960Y-49234275D03*
X173105960Y-49234275D03*
D18*
X178605960Y-49234275D03*
%TD*%
D10*
%TO.C,SW13*%
X183639050Y-68244902D03*
X173479050Y-68244902D03*
D11*
X178559050Y-68244902D03*
D12*
X181079050Y-63744902D03*
X176039050Y-63744902D03*
D13*
X182369050Y-65704902D03*
X174749050Y-65704902D03*
D14*
X183684070Y-72444902D03*
D15*
X173464070Y-64444902D03*
D14*
X173339050Y-72444902D03*
D16*
X178559050Y-62344902D03*
D15*
X183559050Y-64444902D03*
D17*
X184059050Y-68244902D03*
X173059050Y-68244902D03*
D18*
X178559050Y-68244902D03*
%TD*%
D10*
%TO.C,SW14*%
X183658424Y-87370348D03*
X173498424Y-87370348D03*
D11*
X178578424Y-87370348D03*
D12*
X181098424Y-82870348D03*
X176058424Y-82870348D03*
D13*
X182388424Y-84830348D03*
X174768424Y-84830348D03*
D14*
X183703444Y-91570348D03*
D15*
X173483444Y-83570348D03*
D14*
X173358424Y-91570348D03*
D16*
X178578424Y-81470348D03*
D15*
X183578424Y-83570348D03*
D17*
X184078424Y-87370348D03*
X173078424Y-87370348D03*
D18*
X178578424Y-87370348D03*
%TD*%
D10*
%TO.C,SW15*%
X109161885Y-116247629D03*
X99953797Y-120541431D03*
D11*
X104557841Y-118394530D03*
G36*
G01*
X104116828Y-114207079D02*
X103678572Y-113267237D01*
G75*
G02*
X104234815Y-111738972I1042254J486011D01*
G01*
X104234815Y-111738972D01*
G75*
G02*
X105763080Y-112295215I486011J-1042254D01*
G01*
X106201336Y-113235057D01*
G75*
G02*
X105645093Y-114763322I-1042254J-486011D01*
G01*
X105645093Y-114763322D01*
G75*
G02*
X104116828Y-114207079I-486011J1042254D01*
G01*
G37*
G36*
G01*
X99549037Y-116337075D02*
X99110781Y-115397233D01*
G75*
G02*
X99667024Y-113868968I1042254J486011D01*
G01*
X99667024Y-113868968D01*
G75*
G02*
X101195289Y-114425211I486011J-1042254D01*
G01*
X101633545Y-115365053D01*
G75*
G02*
X101077302Y-116893318I-1042254J-486011D01*
G01*
X101077302Y-116893318D01*
G75*
G02*
X99549037Y-116337075I-486011J1042254D01*
G01*
G37*
D13*
X106937423Y-114482333D03*
X100031358Y-117702684D03*
D14*
X110977683Y-120035096D03*
D15*
X98334272Y-117103792D03*
D14*
X101601911Y-124407090D03*
D16*
X102064393Y-113047314D03*
D15*
X107483431Y-112837469D03*
D17*
X109542534Y-116070130D03*
X99573148Y-120718930D03*
D18*
X104557841Y-118394530D03*
%TD*%
D10*
%TO.C,SW17*%
X164625524Y-45388787D03*
X154465524Y-45388787D03*
D11*
X159545524Y-45388787D03*
D12*
X162065524Y-40888787D03*
X157025524Y-40888787D03*
D13*
X163355524Y-42848787D03*
X155735524Y-42848787D03*
D14*
X164670544Y-49588787D03*
D15*
X154450544Y-41588787D03*
D14*
X154325524Y-49588787D03*
D16*
X159545524Y-39488787D03*
D15*
X164545524Y-41588787D03*
D17*
X165045524Y-45388787D03*
X154045524Y-45388787D03*
D18*
X159545524Y-45388787D03*
%TD*%
D10*
%TO.C,SW18*%
X164644908Y-64514237D03*
X154484908Y-64514237D03*
D11*
X159564908Y-64514237D03*
D12*
X162084908Y-60014237D03*
X157044908Y-60014237D03*
D13*
X163374908Y-61974237D03*
X155754908Y-61974237D03*
D14*
X164689928Y-68714237D03*
D15*
X154469928Y-60714237D03*
D14*
X154344908Y-68714237D03*
D16*
X159564908Y-58614237D03*
D15*
X164564908Y-60714237D03*
D17*
X165064908Y-64514237D03*
X154064908Y-64514237D03*
D18*
X159564908Y-64514237D03*
%TD*%
D10*
%TO.C,SW20*%
X91104690Y-125855341D03*
X83044220Y-132040357D03*
D11*
X87074455Y-128947849D03*
G36*
G01*
X85737566Y-124955110D02*
X85106280Y-124132402D01*
G75*
G02*
X85318560Y-122519970I912356J700076D01*
G01*
X85318560Y-122519970D01*
G75*
G02*
X86930992Y-122732250I700076J-912356D01*
G01*
X87562278Y-123554958D01*
G75*
G02*
X87349998Y-125167390I-912356J-700076D01*
G01*
X87349998Y-125167390D01*
G75*
G02*
X85737566Y-124955110I-700076J912356D01*
G01*
G37*
G36*
G01*
X81739065Y-128023268D02*
X81107779Y-127200560D01*
G75*
G02*
X81320059Y-125588128I912356J700076D01*
G01*
X81320059Y-125588128D01*
G75*
G02*
X82932491Y-125800408I700076J-912356D01*
G01*
X83563777Y-126623116D01*
G75*
G02*
X83351497Y-128235548I-912356J-700076D01*
G01*
X83351497Y-128235548D01*
G75*
G02*
X81739065Y-128023268I-700076J912356D01*
G01*
G37*
D13*
X88550877Y-124613350D03*
X82505525Y-129252113D03*
D14*
X93697205Y-129160019D03*
D15*
X80719042Y-129034734D03*
D14*
X85489949Y-135457668D03*
D16*
X83482763Y-124267064D03*
D15*
X88727928Y-122889299D03*
D17*
X91437898Y-125599661D03*
X82711012Y-132296037D03*
D18*
X87074455Y-128947849D03*
%TD*%
D10*
%TO.C,SW22*%
X145607926Y-51163438D03*
X135447926Y-51163438D03*
D11*
X140527926Y-51163438D03*
D12*
X143047926Y-46663438D03*
X138007926Y-46663438D03*
D13*
X144337926Y-48623438D03*
X136717926Y-48623438D03*
D14*
X145652946Y-55363438D03*
D15*
X135432946Y-47363438D03*
D14*
X135307926Y-55363438D03*
D16*
X140527926Y-45263438D03*
D15*
X145527926Y-47363438D03*
D17*
X146027926Y-51163438D03*
X135027926Y-51163438D03*
D18*
X140527926Y-51163438D03*
%TD*%
D10*
%TO.C,SW23*%
X145561015Y-70174064D03*
X135401015Y-70174064D03*
D11*
X140481015Y-70174064D03*
D12*
X143001015Y-65674064D03*
X137961015Y-65674064D03*
D13*
X144291015Y-67634064D03*
X136671015Y-67634064D03*
D14*
X145606035Y-74374064D03*
D15*
X135386035Y-66374064D03*
D14*
X135261015Y-74374064D03*
D16*
X140481015Y-64274064D03*
D15*
X145481015Y-66374064D03*
D17*
X145981015Y-70174064D03*
X134981015Y-70174064D03*
D18*
X140481015Y-70174064D03*
%TD*%
D10*
%TO.C,SW24*%
X145604659Y-89208960D03*
X135444659Y-89208960D03*
D11*
X140524659Y-89208960D03*
D12*
X143044659Y-84708960D03*
X138004659Y-84708960D03*
D13*
X144334659Y-86668960D03*
X136714659Y-86668960D03*
D14*
X145649679Y-93408960D03*
D15*
X135429679Y-85408960D03*
D14*
X135304659Y-93408960D03*
D16*
X140524659Y-83308960D03*
D15*
X145524659Y-85408960D03*
D17*
X146024659Y-89208960D03*
X135024659Y-89208960D03*
D18*
X140524659Y-89208960D03*
%TD*%
D10*
%TO.C,SW26*%
X126474232Y-53024690D03*
X116314232Y-53024690D03*
D11*
X121394232Y-53024690D03*
D12*
X123914232Y-48524690D03*
X118874232Y-48524690D03*
D13*
X125204232Y-50484690D03*
X117584232Y-50484690D03*
D14*
X126519252Y-57224690D03*
D15*
X116299252Y-49224690D03*
D14*
X116174232Y-57224690D03*
D16*
X121394232Y-47124690D03*
D15*
X126394232Y-49224690D03*
D17*
X126894232Y-53024690D03*
X115894232Y-53024690D03*
D18*
X121394232Y-53024690D03*
%TD*%
D10*
%TO.C,SW27*%
X126517875Y-72059585D03*
X116357875Y-72059585D03*
D11*
X121437875Y-72059585D03*
D12*
X123957875Y-67559585D03*
X118917875Y-67559585D03*
D13*
X125247875Y-69519585D03*
X117627875Y-69519585D03*
D14*
X126562895Y-76259585D03*
D15*
X116342895Y-68259585D03*
D14*
X116217875Y-76259585D03*
D16*
X121437875Y-66159585D03*
D15*
X126437875Y-68259585D03*
D17*
X126937875Y-72059585D03*
X115937875Y-72059585D03*
D18*
X121437875Y-72059585D03*
%TD*%
D10*
%TO.C,SW28*%
X126537254Y-91185035D03*
X116377254Y-91185035D03*
D11*
X121457254Y-91185035D03*
D12*
X123977254Y-86685035D03*
X118937254Y-86685035D03*
D13*
X125267254Y-88645035D03*
X117647254Y-88645035D03*
D14*
X126582274Y-95385035D03*
D15*
X116362274Y-87385035D03*
D14*
X116237254Y-95385035D03*
D16*
X121457254Y-85285035D03*
D15*
X126457254Y-87385035D03*
D17*
X126957254Y-91185035D03*
X115957254Y-91185035D03*
D18*
X121457254Y-91185035D03*
%TD*%
D19*
%TO.C,J2*%
X83171000Y-50305000D03*
D20*
X85471000Y-45705000D03*
X85471000Y-52705000D03*
D19*
X83171000Y-47305000D03*
X83171000Y-54305000D03*
X87771000Y-55405000D03*
%TD*%
D21*
%TO.C,U1*%
X107264200Y-45224700D03*
X107264200Y-47764700D03*
X107264200Y-50304700D03*
X107264200Y-52844700D03*
X107264200Y-55384700D03*
X107264200Y-57924700D03*
X107264200Y-60464700D03*
X107264200Y-63004700D03*
X107264200Y-65544700D03*
X107264200Y-68084700D03*
X107264200Y-70624700D03*
X107264200Y-73164700D03*
X92024200Y-73164700D03*
X92024200Y-70624700D03*
X92024200Y-68084700D03*
X92024200Y-65544700D03*
X92024200Y-63004700D03*
X92024200Y-60464700D03*
X92024200Y-57924700D03*
X92024200Y-55384700D03*
X92024200Y-52844700D03*
X92024200Y-50304700D03*
X92024200Y-47764700D03*
D22*
X92024200Y-45224700D03*
%TD*%
D23*
%TO.C,RE1*%
X88011000Y-96266000D03*
D24*
X88011000Y-98766000D03*
X88011000Y-101266000D03*
D25*
X95511000Y-93166000D03*
X95511000Y-104366000D03*
D24*
X102511000Y-96266000D03*
X102511000Y-101266000D03*
%TD*%
D22*
%TO.C,D_RE1*%
X91731000Y-107950000D03*
D21*
X99531000Y-107950000D03*
D26*
X94231000Y-107950000D03*
X97031000Y-107950000D03*
%TD*%
D27*
%TO.C,RST2*%
X87448000Y-66727000D03*
X87448000Y-60527000D03*
X83748000Y-66727000D03*
X83748000Y-60527000D03*
%TD*%
D28*
%TO.C,PWM_PAD1*%
X111760000Y-60579000D03*
X111760000Y-58039000D03*
X111760000Y-55499000D03*
%TD*%
D19*
%TO.C,J1*%
X87771000Y-50269000D03*
D20*
X85471000Y-45669000D03*
X85471000Y-52669000D03*
D19*
X87771000Y-47269000D03*
X87771000Y-54269000D03*
X83171000Y-55369000D03*
%TD*%
D22*
%TO.C,D8*%
X194550200Y-86080600D03*
D21*
X202350200Y-86080600D03*
D26*
X197050200Y-86080600D03*
X199850200Y-86080600D03*
%TD*%
D22*
%TO.C,D28*%
X111995245Y-91446640D03*
D21*
X111995245Y-99246640D03*
D29*
X111995245Y-93946640D03*
X111995245Y-96746640D03*
%TD*%
D22*
%TO.C,D27*%
X111903079Y-72592861D03*
D21*
X111903079Y-80392861D03*
D29*
X111903079Y-75092861D03*
X111903079Y-77892861D03*
%TD*%
D22*
%TO.C,D26*%
X118121600Y-61137800D03*
D21*
X125921600Y-61137800D03*
D26*
X120621600Y-61137800D03*
X123421600Y-61137800D03*
%TD*%
D22*
%TO.C,D24*%
X131007609Y-90038162D03*
D21*
X131007609Y-97838162D03*
D29*
X131007609Y-92538162D03*
X131007609Y-95338162D03*
%TD*%
D22*
%TO.C,D23*%
X131169349Y-70961240D03*
D21*
X131169349Y-78761240D03*
D29*
X131169349Y-73461240D03*
X131169349Y-76261240D03*
%TD*%
D22*
%TO.C,D22*%
X131017392Y-51606155D03*
D21*
X131017392Y-59406155D03*
D29*
X131017392Y-54106155D03*
X131017392Y-56906155D03*
%TD*%
D30*
%TO.C,D20*%
G36*
X88882216Y-136380478D02*
G01*
X89856234Y-137649844D01*
X88586868Y-138623862D01*
X87612850Y-137354496D01*
X88882216Y-136380478D01*
G37*
D21*
X94922698Y-132753830D03*
D30*
G36*
X93208741Y-133312713D02*
G01*
X93939255Y-134264737D01*
X92669889Y-135238755D01*
X91939375Y-134286731D01*
X93208741Y-133312713D01*
G37*
G36*
X90987351Y-135017245D02*
G01*
X91717865Y-135969269D01*
X90448499Y-136943287D01*
X89717985Y-135991263D01*
X90987351Y-135017245D01*
G37*
%TD*%
D22*
%TO.C,D19*%
X150192403Y-84165988D03*
D21*
X150192403Y-91965988D03*
D29*
X150192403Y-86665988D03*
X150192403Y-89465988D03*
%TD*%
D22*
%TO.C,D18*%
X155497700Y-72580500D03*
D21*
X163297700Y-72580500D03*
D26*
X157997700Y-72580500D03*
X160797700Y-72580500D03*
%TD*%
D22*
%TO.C,D17*%
X156437500Y-53181250D03*
D21*
X164237500Y-53181250D03*
D26*
X158937500Y-53181250D03*
X161737500Y-53181250D03*
%TD*%
D30*
%TO.C,D15*%
G36*
X105038572Y-125934070D02*
G01*
X105714761Y-127384163D01*
X104264668Y-128060352D01*
X103588479Y-126610259D01*
X105038572Y-125934070D01*
G37*
D21*
X111720820Y-123700789D03*
D30*
G36*
X109926526Y-123875455D02*
G01*
X110433668Y-124963024D01*
X108983576Y-125639213D01*
X108476434Y-124551644D01*
X109926526Y-123875455D01*
G37*
G36*
X107388864Y-125058787D02*
G01*
X107896006Y-126146356D01*
X106445914Y-126822545D01*
X105938772Y-125734976D01*
X107388864Y-125058787D01*
G37*
%TD*%
D22*
%TO.C,D14*%
X169116409Y-87631959D03*
D21*
X169116409Y-95431959D03*
D29*
X169116409Y-90131959D03*
X169116409Y-92931959D03*
%TD*%
D22*
%TO.C,D13*%
X169145564Y-68325398D03*
D21*
X169145564Y-76125398D03*
D29*
X169145564Y-70825398D03*
X169145564Y-73625398D03*
%TD*%
D22*
%TO.C,D12*%
X175487500Y-57150000D03*
D21*
X183287500Y-57150000D03*
D26*
X177987500Y-57150000D03*
X180787500Y-57150000D03*
%TD*%
D30*
%TO.C,D10*%
G36*
X123183111Y-119343586D02*
G01*
X123529414Y-120905659D01*
X121967341Y-121251962D01*
X121621038Y-119689889D01*
X123183111Y-119343586D01*
G37*
D21*
X130190334Y-118609546D03*
D30*
G36*
X128400767Y-118391716D02*
G01*
X128660495Y-119563271D01*
X127098421Y-119909574D01*
X126838693Y-118738019D01*
X128400767Y-118391716D01*
G37*
G36*
X125667139Y-118997746D02*
G01*
X125926867Y-120169301D01*
X124364793Y-120515604D01*
X124105065Y-119344049D01*
X125667139Y-118997746D01*
G37*
%TD*%
D22*
%TO.C,D9*%
X187873952Y-97316766D03*
D21*
X187873952Y-105116766D03*
D29*
X187873952Y-99816766D03*
X187873952Y-102616766D03*
%TD*%
D22*
%TO.C,D7*%
X188223421Y-57616973D03*
D21*
X188223421Y-65416973D03*
D29*
X188223421Y-60116973D03*
X188223421Y-62916973D03*
%TD*%
D31*
%TO.C,JP5*%
X102235000Y-77284580D03*
X102235000Y-76385420D03*
%TD*%
%TO.C,JP8*%
X94742000Y-77284580D03*
X94742000Y-76385420D03*
%TD*%
%TO.C,JP7*%
X97028000Y-77284580D03*
X97028000Y-76385420D03*
%TD*%
%TO.C,JP6*%
X99695000Y-77284580D03*
X99695000Y-76385420D03*
%TD*%
D32*
%TO.C,J3*%
X95885000Y-80264000D03*
X98425000Y-80264000D03*
X100965000Y-80264000D03*
X103505000Y-80264000D03*
%TD*%
M02*
