%TF.GenerationSoftware,KiCad,Pcbnew,(5.1.7)-1*%
%TF.CreationDate,2021-07-10T14:06:06+05:30*%
%TF.ProjectId,Pteron36v0,50746572-6f6e-4333-9676-302e6b696361,rev?*%
%TF.SameCoordinates,Original*%
%TF.FileFunction,Soldermask,Top*%
%TF.FilePolarity,Negative*%
%FSLAX46Y46*%
G04 Gerber Fmt 4.6, Leading zero omitted, Abs format (unit mm)*
G04 Created by KiCad (PCBNEW (5.1.7)-1) date 2021-07-10 14:06:06*
%MOMM*%
%LPD*%
G01*
G04 APERTURE LIST*
%ADD10C,2.200000*%
%ADD11C,1.000000*%
%ADD12O,1.500000X2.500000*%
%ADD13C,1.900000*%
%ADD14C,4.000000*%
%ADD15C,1.700000*%
%ADD16C,2.700000*%
%ADD17O,1.500000X3.000000*%
%ADD18C,1.600000*%
%ADD19R,1.600000X1.600000*%
%ADD20O,1.600000X2.000000*%
%ADD21C,0.800000*%
%ADD22R,2.000000X2.000000*%
%ADD23C,2.000000*%
%ADD24R,3.200000X2.000000*%
%ADD25R,1.600000X1.200000*%
%ADD26O,3.759200X1.879600*%
%ADD27R,1.100000X1.800000*%
%ADD28R,1.200000X1.600000*%
%ADD29C,0.100000*%
%ADD30R,1.270000X0.635000*%
%ADD31C,1.397000*%
G04 APERTURE END LIST*
D10*
%TO.C,H6*%
X86605654Y-119133530D03*
%TD*%
%TO.C,H5*%
X139685269Y-65463330D03*
%TD*%
%TO.C,H4*%
X101515454Y-58783130D03*
%TD*%
%TO.C,H3*%
X139685269Y-106331930D03*
%TD*%
%TO.C,H2*%
X177782678Y-63482130D03*
%TD*%
%TO.C,H1*%
X177782678Y-106331929D03*
%TD*%
D11*
%TO.C,SW13*%
X182983305Y-77329232D03*
D12*
X177763305Y-67229232D03*
G36*
G01*
X182085488Y-68451415D02*
X182085488Y-68451415D01*
G75*
G02*
X182934016Y-68451415I424264J-424264D01*
G01*
X183641122Y-69158521D01*
G75*
G02*
X183641122Y-70007049I-424264J-424264D01*
G01*
X183641122Y-70007049D01*
G75*
G02*
X182792594Y-70007049I-424264J424264D01*
G01*
X182085488Y-69299943D01*
G75*
G02*
X182085488Y-68451415I424264J424264D01*
G01*
G37*
G36*
G01*
X171885488Y-70007049D02*
X171885488Y-70007049D01*
G75*
G02*
X171885488Y-69158521I424264J424264D01*
G01*
X172592594Y-68451415D01*
G75*
G02*
X173441122Y-68451415I424264J-424264D01*
G01*
X173441122Y-68451415D01*
G75*
G02*
X173441122Y-69299943I-424264J-424264D01*
G01*
X172734016Y-70007049D01*
G75*
G02*
X171885488Y-70007049I-424264J424264D01*
G01*
G37*
D13*
X183263305Y-73129232D03*
X172263305Y-73129232D03*
G36*
G01*
X172963356Y-71579181D02*
X172963356Y-71579181D01*
G75*
G02*
X172963356Y-70518521I530330J530330D01*
G01*
X173882594Y-69599283D01*
G75*
G02*
X174943254Y-69599283I530330J-530330D01*
G01*
X174943254Y-69599283D01*
G75*
G02*
X174943254Y-70659943I-530330J-530330D01*
G01*
X174024016Y-71579181D01*
G75*
G02*
X172963356Y-71579181I-530330J530330D01*
G01*
G37*
D14*
X177763305Y-73129232D03*
D15*
X172683305Y-73129232D03*
X182843305Y-73129232D03*
G36*
G01*
X180583356Y-69599283D02*
X180583356Y-69599283D01*
G75*
G02*
X181644016Y-69599283I530330J-530330D01*
G01*
X182563254Y-70518521D01*
G75*
G02*
X182563254Y-71579181I-530330J-530330D01*
G01*
X182563254Y-71579181D01*
G75*
G02*
X181502594Y-71579181I-530330J530330D01*
G01*
X180583356Y-70659943D01*
G75*
G02*
X180583356Y-69599283I530330J530330D01*
G01*
G37*
D16*
X175223305Y-68049232D03*
X180303305Y-68049232D03*
D11*
X172543305Y-77329232D03*
G36*
G01*
X173605111Y-71318668D02*
X172207869Y-69921426D01*
G75*
G02*
X172207869Y-68843796I538815J538815D01*
G01*
X172207869Y-68843796D01*
G75*
G02*
X173285499Y-68843796I538815J-538815D01*
G01*
X174682741Y-70241038D01*
G75*
G02*
X174682741Y-71318668I-538815J-538815D01*
G01*
X174682741Y-71318668D01*
G75*
G02*
X173605111Y-71318668I-538815J538815D01*
G01*
G37*
G36*
G01*
X172870315Y-69324592D02*
X174974665Y-67220242D01*
G75*
G02*
X176052295Y-67220242I538815J-538815D01*
G01*
X176052295Y-67220242D01*
G75*
G02*
X176052295Y-68297872I-538815J-538815D01*
G01*
X173947945Y-70402222D01*
G75*
G02*
X172870315Y-70402222I-538815J538815D01*
G01*
X172870315Y-70402222D01*
G75*
G02*
X172870315Y-69324592I538815J538815D01*
G01*
G37*
G36*
G01*
X180170949Y-68766204D02*
X177374423Y-67748352D01*
G75*
G02*
X176918996Y-66771687I260619J716046D01*
G01*
X176918996Y-66771687D01*
G75*
G02*
X177895661Y-66316260I716046J-260619D01*
G01*
X180692187Y-67334112D01*
G75*
G02*
X181147614Y-68310777I-260619J-716046D01*
G01*
X181147614Y-68310777D01*
G75*
G02*
X180170949Y-68766204I-716046J260619D01*
G01*
G37*
G36*
G01*
X181578665Y-71672222D02*
X179474315Y-69567872D01*
G75*
G02*
X179474315Y-68490242I538815J538815D01*
G01*
X179474315Y-68490242D01*
G75*
G02*
X180551945Y-68490242I538815J-538815D01*
G01*
X182656295Y-70594592D01*
G75*
G02*
X182656295Y-71672222I-538815J-538815D01*
G01*
X182656295Y-71672222D01*
G75*
G02*
X181578665Y-71672222I-538815J538815D01*
G01*
G37*
D17*
X180303305Y-68557232D03*
%TD*%
D11*
%TO.C,SW8*%
X202061035Y-86905722D03*
D12*
X196841035Y-76805722D03*
G36*
G01*
X201163218Y-78027905D02*
X201163218Y-78027905D01*
G75*
G02*
X202011746Y-78027905I424264J-424264D01*
G01*
X202718852Y-78735011D01*
G75*
G02*
X202718852Y-79583539I-424264J-424264D01*
G01*
X202718852Y-79583539D01*
G75*
G02*
X201870324Y-79583539I-424264J424264D01*
G01*
X201163218Y-78876433D01*
G75*
G02*
X201163218Y-78027905I424264J424264D01*
G01*
G37*
G36*
G01*
X190963218Y-79583539D02*
X190963218Y-79583539D01*
G75*
G02*
X190963218Y-78735011I424264J424264D01*
G01*
X191670324Y-78027905D01*
G75*
G02*
X192518852Y-78027905I424264J-424264D01*
G01*
X192518852Y-78027905D01*
G75*
G02*
X192518852Y-78876433I-424264J-424264D01*
G01*
X191811746Y-79583539D01*
G75*
G02*
X190963218Y-79583539I-424264J424264D01*
G01*
G37*
D13*
X202341035Y-82705722D03*
X191341035Y-82705722D03*
G36*
G01*
X192041086Y-81155671D02*
X192041086Y-81155671D01*
G75*
G02*
X192041086Y-80095011I530330J530330D01*
G01*
X192960324Y-79175773D01*
G75*
G02*
X194020984Y-79175773I530330J-530330D01*
G01*
X194020984Y-79175773D01*
G75*
G02*
X194020984Y-80236433I-530330J-530330D01*
G01*
X193101746Y-81155671D01*
G75*
G02*
X192041086Y-81155671I-530330J530330D01*
G01*
G37*
D14*
X196841035Y-82705722D03*
D15*
X191761035Y-82705722D03*
X201921035Y-82705722D03*
G36*
G01*
X199661086Y-79175773D02*
X199661086Y-79175773D01*
G75*
G02*
X200721746Y-79175773I530330J-530330D01*
G01*
X201640984Y-80095011D01*
G75*
G02*
X201640984Y-81155671I-530330J-530330D01*
G01*
X201640984Y-81155671D01*
G75*
G02*
X200580324Y-81155671I-530330J530330D01*
G01*
X199661086Y-80236433D01*
G75*
G02*
X199661086Y-79175773I530330J530330D01*
G01*
G37*
D16*
X194301035Y-77625722D03*
X199381035Y-77625722D03*
D11*
X191621035Y-86905722D03*
G36*
G01*
X192682841Y-80895158D02*
X191285599Y-79497916D01*
G75*
G02*
X191285599Y-78420286I538815J538815D01*
G01*
X191285599Y-78420286D01*
G75*
G02*
X192363229Y-78420286I538815J-538815D01*
G01*
X193760471Y-79817528D01*
G75*
G02*
X193760471Y-80895158I-538815J-538815D01*
G01*
X193760471Y-80895158D01*
G75*
G02*
X192682841Y-80895158I-538815J538815D01*
G01*
G37*
G36*
G01*
X191948045Y-78901082D02*
X194052395Y-76796732D01*
G75*
G02*
X195130025Y-76796732I538815J-538815D01*
G01*
X195130025Y-76796732D01*
G75*
G02*
X195130025Y-77874362I-538815J-538815D01*
G01*
X193025675Y-79978712D01*
G75*
G02*
X191948045Y-79978712I-538815J538815D01*
G01*
X191948045Y-79978712D01*
G75*
G02*
X191948045Y-78901082I538815J538815D01*
G01*
G37*
G36*
G01*
X199248679Y-78342694D02*
X196452153Y-77324842D01*
G75*
G02*
X195996726Y-76348177I260619J716046D01*
G01*
X195996726Y-76348177D01*
G75*
G02*
X196973391Y-75892750I716046J-260619D01*
G01*
X199769917Y-76910602D01*
G75*
G02*
X200225344Y-77887267I-260619J-716046D01*
G01*
X200225344Y-77887267D01*
G75*
G02*
X199248679Y-78342694I-716046J260619D01*
G01*
G37*
G36*
G01*
X200656395Y-81248712D02*
X198552045Y-79144362D01*
G75*
G02*
X198552045Y-78066732I538815J538815D01*
G01*
X198552045Y-78066732D01*
G75*
G02*
X199629675Y-78066732I538815J-538815D01*
G01*
X201734025Y-80171082D01*
G75*
G02*
X201734025Y-81248712I-538815J-538815D01*
G01*
X201734025Y-81248712D01*
G75*
G02*
X200656395Y-81248712I-538815J538815D01*
G01*
G37*
D17*
X199381035Y-78133722D03*
%TD*%
D11*
%TO.C,SW7*%
X202017387Y-67870820D03*
D12*
X196797387Y-57770820D03*
G36*
G01*
X201119570Y-58993003D02*
X201119570Y-58993003D01*
G75*
G02*
X201968098Y-58993003I424264J-424264D01*
G01*
X202675204Y-59700109D01*
G75*
G02*
X202675204Y-60548637I-424264J-424264D01*
G01*
X202675204Y-60548637D01*
G75*
G02*
X201826676Y-60548637I-424264J424264D01*
G01*
X201119570Y-59841531D01*
G75*
G02*
X201119570Y-58993003I424264J424264D01*
G01*
G37*
G36*
G01*
X190919570Y-60548637D02*
X190919570Y-60548637D01*
G75*
G02*
X190919570Y-59700109I424264J424264D01*
G01*
X191626676Y-58993003D01*
G75*
G02*
X192475204Y-58993003I424264J-424264D01*
G01*
X192475204Y-58993003D01*
G75*
G02*
X192475204Y-59841531I-424264J-424264D01*
G01*
X191768098Y-60548637D01*
G75*
G02*
X190919570Y-60548637I-424264J424264D01*
G01*
G37*
D13*
X202297387Y-63670820D03*
X191297387Y-63670820D03*
G36*
G01*
X191997438Y-62120769D02*
X191997438Y-62120769D01*
G75*
G02*
X191997438Y-61060109I530330J530330D01*
G01*
X192916676Y-60140871D01*
G75*
G02*
X193977336Y-60140871I530330J-530330D01*
G01*
X193977336Y-60140871D01*
G75*
G02*
X193977336Y-61201531I-530330J-530330D01*
G01*
X193058098Y-62120769D01*
G75*
G02*
X191997438Y-62120769I-530330J530330D01*
G01*
G37*
D14*
X196797387Y-63670820D03*
D15*
X191717387Y-63670820D03*
X201877387Y-63670820D03*
G36*
G01*
X199617438Y-60140871D02*
X199617438Y-60140871D01*
G75*
G02*
X200678098Y-60140871I530330J-530330D01*
G01*
X201597336Y-61060109D01*
G75*
G02*
X201597336Y-62120769I-530330J-530330D01*
G01*
X201597336Y-62120769D01*
G75*
G02*
X200536676Y-62120769I-530330J530330D01*
G01*
X199617438Y-61201531D01*
G75*
G02*
X199617438Y-60140871I530330J530330D01*
G01*
G37*
D16*
X194257387Y-58590820D03*
X199337387Y-58590820D03*
D11*
X191577387Y-67870820D03*
G36*
G01*
X192639193Y-61860256D02*
X191241951Y-60463014D01*
G75*
G02*
X191241951Y-59385384I538815J538815D01*
G01*
X191241951Y-59385384D01*
G75*
G02*
X192319581Y-59385384I538815J-538815D01*
G01*
X193716823Y-60782626D01*
G75*
G02*
X193716823Y-61860256I-538815J-538815D01*
G01*
X193716823Y-61860256D01*
G75*
G02*
X192639193Y-61860256I-538815J538815D01*
G01*
G37*
G36*
G01*
X191904397Y-59866180D02*
X194008747Y-57761830D01*
G75*
G02*
X195086377Y-57761830I538815J-538815D01*
G01*
X195086377Y-57761830D01*
G75*
G02*
X195086377Y-58839460I-538815J-538815D01*
G01*
X192982027Y-60943810D01*
G75*
G02*
X191904397Y-60943810I-538815J538815D01*
G01*
X191904397Y-60943810D01*
G75*
G02*
X191904397Y-59866180I538815J538815D01*
G01*
G37*
G36*
G01*
X199205031Y-59307792D02*
X196408505Y-58289940D01*
G75*
G02*
X195953078Y-57313275I260619J716046D01*
G01*
X195953078Y-57313275D01*
G75*
G02*
X196929743Y-56857848I716046J-260619D01*
G01*
X199726269Y-57875700D01*
G75*
G02*
X200181696Y-58852365I-260619J-716046D01*
G01*
X200181696Y-58852365D01*
G75*
G02*
X199205031Y-59307792I-716046J260619D01*
G01*
G37*
G36*
G01*
X200612747Y-62213810D02*
X198508397Y-60109460D01*
G75*
G02*
X198508397Y-59031830I538815J538815D01*
G01*
X198508397Y-59031830D01*
G75*
G02*
X199586027Y-59031830I538815J-538815D01*
G01*
X201690377Y-61136180D01*
G75*
G02*
X201690377Y-62213810I-538815J-538815D01*
G01*
X201690377Y-62213810D01*
G75*
G02*
X200612747Y-62213810I-538815J538815D01*
G01*
G37*
D17*
X199337387Y-59098820D03*
%TD*%
D11*
%TO.C,SW12*%
X183030215Y-58318605D03*
D12*
X177810215Y-48218605D03*
G36*
G01*
X182132398Y-49440788D02*
X182132398Y-49440788D01*
G75*
G02*
X182980926Y-49440788I424264J-424264D01*
G01*
X183688032Y-50147894D01*
G75*
G02*
X183688032Y-50996422I-424264J-424264D01*
G01*
X183688032Y-50996422D01*
G75*
G02*
X182839504Y-50996422I-424264J424264D01*
G01*
X182132398Y-50289316D01*
G75*
G02*
X182132398Y-49440788I424264J424264D01*
G01*
G37*
G36*
G01*
X171932398Y-50996422D02*
X171932398Y-50996422D01*
G75*
G02*
X171932398Y-50147894I424264J424264D01*
G01*
X172639504Y-49440788D01*
G75*
G02*
X173488032Y-49440788I424264J-424264D01*
G01*
X173488032Y-49440788D01*
G75*
G02*
X173488032Y-50289316I-424264J-424264D01*
G01*
X172780926Y-50996422D01*
G75*
G02*
X171932398Y-50996422I-424264J424264D01*
G01*
G37*
D13*
X183310215Y-54118605D03*
X172310215Y-54118605D03*
G36*
G01*
X173010266Y-52568554D02*
X173010266Y-52568554D01*
G75*
G02*
X173010266Y-51507894I530330J530330D01*
G01*
X173929504Y-50588656D01*
G75*
G02*
X174990164Y-50588656I530330J-530330D01*
G01*
X174990164Y-50588656D01*
G75*
G02*
X174990164Y-51649316I-530330J-530330D01*
G01*
X174070926Y-52568554D01*
G75*
G02*
X173010266Y-52568554I-530330J530330D01*
G01*
G37*
D14*
X177810215Y-54118605D03*
D15*
X172730215Y-54118605D03*
X182890215Y-54118605D03*
G36*
G01*
X180630266Y-50588656D02*
X180630266Y-50588656D01*
G75*
G02*
X181690926Y-50588656I530330J-530330D01*
G01*
X182610164Y-51507894D01*
G75*
G02*
X182610164Y-52568554I-530330J-530330D01*
G01*
X182610164Y-52568554D01*
G75*
G02*
X181549504Y-52568554I-530330J530330D01*
G01*
X180630266Y-51649316D01*
G75*
G02*
X180630266Y-50588656I530330J530330D01*
G01*
G37*
D16*
X175270215Y-49038605D03*
X180350215Y-49038605D03*
D11*
X172590215Y-58318605D03*
G36*
G01*
X173652021Y-52308041D02*
X172254779Y-50910799D01*
G75*
G02*
X172254779Y-49833169I538815J538815D01*
G01*
X172254779Y-49833169D01*
G75*
G02*
X173332409Y-49833169I538815J-538815D01*
G01*
X174729651Y-51230411D01*
G75*
G02*
X174729651Y-52308041I-538815J-538815D01*
G01*
X174729651Y-52308041D01*
G75*
G02*
X173652021Y-52308041I-538815J538815D01*
G01*
G37*
G36*
G01*
X172917225Y-50313965D02*
X175021575Y-48209615D01*
G75*
G02*
X176099205Y-48209615I538815J-538815D01*
G01*
X176099205Y-48209615D01*
G75*
G02*
X176099205Y-49287245I-538815J-538815D01*
G01*
X173994855Y-51391595D01*
G75*
G02*
X172917225Y-51391595I-538815J538815D01*
G01*
X172917225Y-51391595D01*
G75*
G02*
X172917225Y-50313965I538815J538815D01*
G01*
G37*
G36*
G01*
X180217859Y-49755577D02*
X177421333Y-48737725D01*
G75*
G02*
X176965906Y-47761060I260619J716046D01*
G01*
X176965906Y-47761060D01*
G75*
G02*
X177942571Y-47305633I716046J-260619D01*
G01*
X180739097Y-48323485D01*
G75*
G02*
X181194524Y-49300150I-260619J-716046D01*
G01*
X181194524Y-49300150D01*
G75*
G02*
X180217859Y-49755577I-716046J260619D01*
G01*
G37*
G36*
G01*
X181625575Y-52661595D02*
X179521225Y-50557245D01*
G75*
G02*
X179521225Y-49479615I538815J538815D01*
G01*
X179521225Y-49479615D01*
G75*
G02*
X180598855Y-49479615I538815J-538815D01*
G01*
X182703205Y-51583965D01*
G75*
G02*
X182703205Y-52661595I-538815J-538815D01*
G01*
X182703205Y-52661595D01*
G75*
G02*
X181625575Y-52661595I-538815J538815D01*
G01*
G37*
D17*
X180350215Y-49546605D03*
%TD*%
D11*
%TO.C,SW22*%
X144952181Y-60247769D03*
D12*
X139732181Y-50147769D03*
G36*
G01*
X144054364Y-51369952D02*
X144054364Y-51369952D01*
G75*
G02*
X144902892Y-51369952I424264J-424264D01*
G01*
X145609998Y-52077058D01*
G75*
G02*
X145609998Y-52925586I-424264J-424264D01*
G01*
X145609998Y-52925586D01*
G75*
G02*
X144761470Y-52925586I-424264J424264D01*
G01*
X144054364Y-52218480D01*
G75*
G02*
X144054364Y-51369952I424264J424264D01*
G01*
G37*
G36*
G01*
X133854364Y-52925586D02*
X133854364Y-52925586D01*
G75*
G02*
X133854364Y-52077058I424264J424264D01*
G01*
X134561470Y-51369952D01*
G75*
G02*
X135409998Y-51369952I424264J-424264D01*
G01*
X135409998Y-51369952D01*
G75*
G02*
X135409998Y-52218480I-424264J-424264D01*
G01*
X134702892Y-52925586D01*
G75*
G02*
X133854364Y-52925586I-424264J424264D01*
G01*
G37*
D13*
X145232181Y-56047769D03*
X134232181Y-56047769D03*
G36*
G01*
X134932232Y-54497718D02*
X134932232Y-54497718D01*
G75*
G02*
X134932232Y-53437058I530330J530330D01*
G01*
X135851470Y-52517820D01*
G75*
G02*
X136912130Y-52517820I530330J-530330D01*
G01*
X136912130Y-52517820D01*
G75*
G02*
X136912130Y-53578480I-530330J-530330D01*
G01*
X135992892Y-54497718D01*
G75*
G02*
X134932232Y-54497718I-530330J530330D01*
G01*
G37*
D14*
X139732181Y-56047769D03*
D15*
X134652181Y-56047769D03*
X144812181Y-56047769D03*
G36*
G01*
X142552232Y-52517820D02*
X142552232Y-52517820D01*
G75*
G02*
X143612892Y-52517820I530330J-530330D01*
G01*
X144532130Y-53437058D01*
G75*
G02*
X144532130Y-54497718I-530330J-530330D01*
G01*
X144532130Y-54497718D01*
G75*
G02*
X143471470Y-54497718I-530330J530330D01*
G01*
X142552232Y-53578480D01*
G75*
G02*
X142552232Y-52517820I530330J530330D01*
G01*
G37*
D16*
X137192181Y-50967769D03*
X142272181Y-50967769D03*
D11*
X134512181Y-60247769D03*
G36*
G01*
X135573987Y-54237205D02*
X134176745Y-52839963D01*
G75*
G02*
X134176745Y-51762333I538815J538815D01*
G01*
X134176745Y-51762333D01*
G75*
G02*
X135254375Y-51762333I538815J-538815D01*
G01*
X136651617Y-53159575D01*
G75*
G02*
X136651617Y-54237205I-538815J-538815D01*
G01*
X136651617Y-54237205D01*
G75*
G02*
X135573987Y-54237205I-538815J538815D01*
G01*
G37*
G36*
G01*
X134839191Y-52243129D02*
X136943541Y-50138779D01*
G75*
G02*
X138021171Y-50138779I538815J-538815D01*
G01*
X138021171Y-50138779D01*
G75*
G02*
X138021171Y-51216409I-538815J-538815D01*
G01*
X135916821Y-53320759D01*
G75*
G02*
X134839191Y-53320759I-538815J538815D01*
G01*
X134839191Y-53320759D01*
G75*
G02*
X134839191Y-52243129I538815J538815D01*
G01*
G37*
G36*
G01*
X142139825Y-51684741D02*
X139343299Y-50666889D01*
G75*
G02*
X138887872Y-49690224I260619J716046D01*
G01*
X138887872Y-49690224D01*
G75*
G02*
X139864537Y-49234797I716046J-260619D01*
G01*
X142661063Y-50252649D01*
G75*
G02*
X143116490Y-51229314I-260619J-716046D01*
G01*
X143116490Y-51229314D01*
G75*
G02*
X142139825Y-51684741I-716046J260619D01*
G01*
G37*
G36*
G01*
X143547541Y-54590759D02*
X141443191Y-52486409D01*
G75*
G02*
X141443191Y-51408779I538815J538815D01*
G01*
X141443191Y-51408779D01*
G75*
G02*
X142520821Y-51408779I538815J-538815D01*
G01*
X144625171Y-53513129D01*
G75*
G02*
X144625171Y-54590759I-538815J-538815D01*
G01*
X144625171Y-54590759D01*
G75*
G02*
X143547541Y-54590759I-538815J538815D01*
G01*
G37*
D17*
X142272181Y-51475769D03*
%TD*%
D11*
%TO.C,SW26*%
X125818486Y-62109020D03*
D12*
X120598486Y-52009020D03*
G36*
G01*
X124920669Y-53231203D02*
X124920669Y-53231203D01*
G75*
G02*
X125769197Y-53231203I424264J-424264D01*
G01*
X126476303Y-53938309D01*
G75*
G02*
X126476303Y-54786837I-424264J-424264D01*
G01*
X126476303Y-54786837D01*
G75*
G02*
X125627775Y-54786837I-424264J424264D01*
G01*
X124920669Y-54079731D01*
G75*
G02*
X124920669Y-53231203I424264J424264D01*
G01*
G37*
G36*
G01*
X114720669Y-54786837D02*
X114720669Y-54786837D01*
G75*
G02*
X114720669Y-53938309I424264J424264D01*
G01*
X115427775Y-53231203D01*
G75*
G02*
X116276303Y-53231203I424264J-424264D01*
G01*
X116276303Y-53231203D01*
G75*
G02*
X116276303Y-54079731I-424264J-424264D01*
G01*
X115569197Y-54786837D01*
G75*
G02*
X114720669Y-54786837I-424264J424264D01*
G01*
G37*
D13*
X126098486Y-57909020D03*
X115098486Y-57909020D03*
G36*
G01*
X115798537Y-56358969D02*
X115798537Y-56358969D01*
G75*
G02*
X115798537Y-55298309I530330J530330D01*
G01*
X116717775Y-54379071D01*
G75*
G02*
X117778435Y-54379071I530330J-530330D01*
G01*
X117778435Y-54379071D01*
G75*
G02*
X117778435Y-55439731I-530330J-530330D01*
G01*
X116859197Y-56358969D01*
G75*
G02*
X115798537Y-56358969I-530330J530330D01*
G01*
G37*
D14*
X120598486Y-57909020D03*
D15*
X115518486Y-57909020D03*
X125678486Y-57909020D03*
G36*
G01*
X123418537Y-54379071D02*
X123418537Y-54379071D01*
G75*
G02*
X124479197Y-54379071I530330J-530330D01*
G01*
X125398435Y-55298309D01*
G75*
G02*
X125398435Y-56358969I-530330J-530330D01*
G01*
X125398435Y-56358969D01*
G75*
G02*
X124337775Y-56358969I-530330J530330D01*
G01*
X123418537Y-55439731D01*
G75*
G02*
X123418537Y-54379071I530330J530330D01*
G01*
G37*
D16*
X118058486Y-52829020D03*
X123138486Y-52829020D03*
D11*
X115378486Y-62109020D03*
G36*
G01*
X116440292Y-56098456D02*
X115043050Y-54701214D01*
G75*
G02*
X115043050Y-53623584I538815J538815D01*
G01*
X115043050Y-53623584D01*
G75*
G02*
X116120680Y-53623584I538815J-538815D01*
G01*
X117517922Y-55020826D01*
G75*
G02*
X117517922Y-56098456I-538815J-538815D01*
G01*
X117517922Y-56098456D01*
G75*
G02*
X116440292Y-56098456I-538815J538815D01*
G01*
G37*
G36*
G01*
X115705496Y-54104380D02*
X117809846Y-52000030D01*
G75*
G02*
X118887476Y-52000030I538815J-538815D01*
G01*
X118887476Y-52000030D01*
G75*
G02*
X118887476Y-53077660I-538815J-538815D01*
G01*
X116783126Y-55182010D01*
G75*
G02*
X115705496Y-55182010I-538815J538815D01*
G01*
X115705496Y-55182010D01*
G75*
G02*
X115705496Y-54104380I538815J538815D01*
G01*
G37*
G36*
G01*
X123006130Y-53545992D02*
X120209604Y-52528140D01*
G75*
G02*
X119754177Y-51551475I260619J716046D01*
G01*
X119754177Y-51551475D01*
G75*
G02*
X120730842Y-51096048I716046J-260619D01*
G01*
X123527368Y-52113900D01*
G75*
G02*
X123982795Y-53090565I-260619J-716046D01*
G01*
X123982795Y-53090565D01*
G75*
G02*
X123006130Y-53545992I-716046J260619D01*
G01*
G37*
G36*
G01*
X124413846Y-56452010D02*
X122309496Y-54347660D01*
G75*
G02*
X122309496Y-53270030I538815J538815D01*
G01*
X122309496Y-53270030D01*
G75*
G02*
X123387126Y-53270030I538815J-538815D01*
G01*
X125491476Y-55374380D01*
G75*
G02*
X125491476Y-56452010I-538815J-538815D01*
G01*
X125491476Y-56452010D01*
G75*
G02*
X124413846Y-56452010I-538815J538815D01*
G01*
G37*
D17*
X123138486Y-53337020D03*
%TD*%
D11*
%TO.C,SW28*%
X125881509Y-100269365D03*
D12*
X120661509Y-90169365D03*
G36*
G01*
X124983692Y-91391548D02*
X124983692Y-91391548D01*
G75*
G02*
X125832220Y-91391548I424264J-424264D01*
G01*
X126539326Y-92098654D01*
G75*
G02*
X126539326Y-92947182I-424264J-424264D01*
G01*
X126539326Y-92947182D01*
G75*
G02*
X125690798Y-92947182I-424264J424264D01*
G01*
X124983692Y-92240076D01*
G75*
G02*
X124983692Y-91391548I424264J424264D01*
G01*
G37*
G36*
G01*
X114783692Y-92947182D02*
X114783692Y-92947182D01*
G75*
G02*
X114783692Y-92098654I424264J424264D01*
G01*
X115490798Y-91391548D01*
G75*
G02*
X116339326Y-91391548I424264J-424264D01*
G01*
X116339326Y-91391548D01*
G75*
G02*
X116339326Y-92240076I-424264J-424264D01*
G01*
X115632220Y-92947182D01*
G75*
G02*
X114783692Y-92947182I-424264J424264D01*
G01*
G37*
D13*
X126161509Y-96069365D03*
X115161509Y-96069365D03*
G36*
G01*
X115861560Y-94519314D02*
X115861560Y-94519314D01*
G75*
G02*
X115861560Y-93458654I530330J530330D01*
G01*
X116780798Y-92539416D01*
G75*
G02*
X117841458Y-92539416I530330J-530330D01*
G01*
X117841458Y-92539416D01*
G75*
G02*
X117841458Y-93600076I-530330J-530330D01*
G01*
X116922220Y-94519314D01*
G75*
G02*
X115861560Y-94519314I-530330J530330D01*
G01*
G37*
D14*
X120661509Y-96069365D03*
D15*
X115581509Y-96069365D03*
X125741509Y-96069365D03*
G36*
G01*
X123481560Y-92539416D02*
X123481560Y-92539416D01*
G75*
G02*
X124542220Y-92539416I530330J-530330D01*
G01*
X125461458Y-93458654D01*
G75*
G02*
X125461458Y-94519314I-530330J-530330D01*
G01*
X125461458Y-94519314D01*
G75*
G02*
X124400798Y-94519314I-530330J530330D01*
G01*
X123481560Y-93600076D01*
G75*
G02*
X123481560Y-92539416I530330J530330D01*
G01*
G37*
D16*
X118121509Y-90989365D03*
X123201509Y-90989365D03*
D11*
X115441509Y-100269365D03*
G36*
G01*
X116503315Y-94258801D02*
X115106073Y-92861559D01*
G75*
G02*
X115106073Y-91783929I538815J538815D01*
G01*
X115106073Y-91783929D01*
G75*
G02*
X116183703Y-91783929I538815J-538815D01*
G01*
X117580945Y-93181171D01*
G75*
G02*
X117580945Y-94258801I-538815J-538815D01*
G01*
X117580945Y-94258801D01*
G75*
G02*
X116503315Y-94258801I-538815J538815D01*
G01*
G37*
G36*
G01*
X115768519Y-92264725D02*
X117872869Y-90160375D01*
G75*
G02*
X118950499Y-90160375I538815J-538815D01*
G01*
X118950499Y-90160375D01*
G75*
G02*
X118950499Y-91238005I-538815J-538815D01*
G01*
X116846149Y-93342355D01*
G75*
G02*
X115768519Y-93342355I-538815J538815D01*
G01*
X115768519Y-93342355D01*
G75*
G02*
X115768519Y-92264725I538815J538815D01*
G01*
G37*
G36*
G01*
X123069153Y-91706337D02*
X120272627Y-90688485D01*
G75*
G02*
X119817200Y-89711820I260619J716046D01*
G01*
X119817200Y-89711820D01*
G75*
G02*
X120793865Y-89256393I716046J-260619D01*
G01*
X123590391Y-90274245D01*
G75*
G02*
X124045818Y-91250910I-260619J-716046D01*
G01*
X124045818Y-91250910D01*
G75*
G02*
X123069153Y-91706337I-716046J260619D01*
G01*
G37*
G36*
G01*
X124476869Y-94612355D02*
X122372519Y-92508005D01*
G75*
G02*
X122372519Y-91430375I538815J538815D01*
G01*
X122372519Y-91430375D01*
G75*
G02*
X123450149Y-91430375I538815J-538815D01*
G01*
X125554499Y-93534725D01*
G75*
G02*
X125554499Y-94612355I-538815J-538815D01*
G01*
X125554499Y-94612355D01*
G75*
G02*
X124476869Y-94612355I-538815J538815D01*
G01*
G37*
D17*
X123201509Y-91497365D03*
%TD*%
D11*
%TO.C,SW27*%
X125862130Y-81143915D03*
D12*
X120642130Y-71043915D03*
G36*
G01*
X124964313Y-72266098D02*
X124964313Y-72266098D01*
G75*
G02*
X125812841Y-72266098I424264J-424264D01*
G01*
X126519947Y-72973204D01*
G75*
G02*
X126519947Y-73821732I-424264J-424264D01*
G01*
X126519947Y-73821732D01*
G75*
G02*
X125671419Y-73821732I-424264J424264D01*
G01*
X124964313Y-73114626D01*
G75*
G02*
X124964313Y-72266098I424264J424264D01*
G01*
G37*
G36*
G01*
X114764313Y-73821732D02*
X114764313Y-73821732D01*
G75*
G02*
X114764313Y-72973204I424264J424264D01*
G01*
X115471419Y-72266098D01*
G75*
G02*
X116319947Y-72266098I424264J-424264D01*
G01*
X116319947Y-72266098D01*
G75*
G02*
X116319947Y-73114626I-424264J-424264D01*
G01*
X115612841Y-73821732D01*
G75*
G02*
X114764313Y-73821732I-424264J424264D01*
G01*
G37*
D13*
X126142130Y-76943915D03*
X115142130Y-76943915D03*
G36*
G01*
X115842181Y-75393864D02*
X115842181Y-75393864D01*
G75*
G02*
X115842181Y-74333204I530330J530330D01*
G01*
X116761419Y-73413966D01*
G75*
G02*
X117822079Y-73413966I530330J-530330D01*
G01*
X117822079Y-73413966D01*
G75*
G02*
X117822079Y-74474626I-530330J-530330D01*
G01*
X116902841Y-75393864D01*
G75*
G02*
X115842181Y-75393864I-530330J530330D01*
G01*
G37*
D14*
X120642130Y-76943915D03*
D15*
X115562130Y-76943915D03*
X125722130Y-76943915D03*
G36*
G01*
X123462181Y-73413966D02*
X123462181Y-73413966D01*
G75*
G02*
X124522841Y-73413966I530330J-530330D01*
G01*
X125442079Y-74333204D01*
G75*
G02*
X125442079Y-75393864I-530330J-530330D01*
G01*
X125442079Y-75393864D01*
G75*
G02*
X124381419Y-75393864I-530330J530330D01*
G01*
X123462181Y-74474626D01*
G75*
G02*
X123462181Y-73413966I530330J530330D01*
G01*
G37*
D16*
X118102130Y-71863915D03*
X123182130Y-71863915D03*
D11*
X115422130Y-81143915D03*
G36*
G01*
X116483936Y-75133351D02*
X115086694Y-73736109D01*
G75*
G02*
X115086694Y-72658479I538815J538815D01*
G01*
X115086694Y-72658479D01*
G75*
G02*
X116164324Y-72658479I538815J-538815D01*
G01*
X117561566Y-74055721D01*
G75*
G02*
X117561566Y-75133351I-538815J-538815D01*
G01*
X117561566Y-75133351D01*
G75*
G02*
X116483936Y-75133351I-538815J538815D01*
G01*
G37*
G36*
G01*
X115749140Y-73139275D02*
X117853490Y-71034925D01*
G75*
G02*
X118931120Y-71034925I538815J-538815D01*
G01*
X118931120Y-71034925D01*
G75*
G02*
X118931120Y-72112555I-538815J-538815D01*
G01*
X116826770Y-74216905D01*
G75*
G02*
X115749140Y-74216905I-538815J538815D01*
G01*
X115749140Y-74216905D01*
G75*
G02*
X115749140Y-73139275I538815J538815D01*
G01*
G37*
G36*
G01*
X123049774Y-72580887D02*
X120253248Y-71563035D01*
G75*
G02*
X119797821Y-70586370I260619J716046D01*
G01*
X119797821Y-70586370D01*
G75*
G02*
X120774486Y-70130943I716046J-260619D01*
G01*
X123571012Y-71148795D01*
G75*
G02*
X124026439Y-72125460I-260619J-716046D01*
G01*
X124026439Y-72125460D01*
G75*
G02*
X123049774Y-72580887I-716046J260619D01*
G01*
G37*
G36*
G01*
X124457490Y-75486905D02*
X122353140Y-73382555D01*
G75*
G02*
X122353140Y-72304925I538815J538815D01*
G01*
X122353140Y-72304925D01*
G75*
G02*
X123430770Y-72304925I538815J-538815D01*
G01*
X125535120Y-74409275D01*
G75*
G02*
X125535120Y-75486905I-538815J-538815D01*
G01*
X125535120Y-75486905D01*
G75*
G02*
X124457490Y-75486905I-538815J538815D01*
G01*
G37*
D17*
X123182130Y-72371915D03*
%TD*%
D11*
%TO.C,SW24*%
X144948913Y-98293290D03*
D12*
X139728913Y-88193290D03*
G36*
G01*
X144051096Y-89415473D02*
X144051096Y-89415473D01*
G75*
G02*
X144899624Y-89415473I424264J-424264D01*
G01*
X145606730Y-90122579D01*
G75*
G02*
X145606730Y-90971107I-424264J-424264D01*
G01*
X145606730Y-90971107D01*
G75*
G02*
X144758202Y-90971107I-424264J424264D01*
G01*
X144051096Y-90264001D01*
G75*
G02*
X144051096Y-89415473I424264J424264D01*
G01*
G37*
G36*
G01*
X133851096Y-90971107D02*
X133851096Y-90971107D01*
G75*
G02*
X133851096Y-90122579I424264J424264D01*
G01*
X134558202Y-89415473D01*
G75*
G02*
X135406730Y-89415473I424264J-424264D01*
G01*
X135406730Y-89415473D01*
G75*
G02*
X135406730Y-90264001I-424264J-424264D01*
G01*
X134699624Y-90971107D01*
G75*
G02*
X133851096Y-90971107I-424264J424264D01*
G01*
G37*
D13*
X145228913Y-94093290D03*
X134228913Y-94093290D03*
G36*
G01*
X134928964Y-92543239D02*
X134928964Y-92543239D01*
G75*
G02*
X134928964Y-91482579I530330J530330D01*
G01*
X135848202Y-90563341D01*
G75*
G02*
X136908862Y-90563341I530330J-530330D01*
G01*
X136908862Y-90563341D01*
G75*
G02*
X136908862Y-91624001I-530330J-530330D01*
G01*
X135989624Y-92543239D01*
G75*
G02*
X134928964Y-92543239I-530330J530330D01*
G01*
G37*
D14*
X139728913Y-94093290D03*
D15*
X134648913Y-94093290D03*
X144808913Y-94093290D03*
G36*
G01*
X142548964Y-90563341D02*
X142548964Y-90563341D01*
G75*
G02*
X143609624Y-90563341I530330J-530330D01*
G01*
X144528862Y-91482579D01*
G75*
G02*
X144528862Y-92543239I-530330J-530330D01*
G01*
X144528862Y-92543239D01*
G75*
G02*
X143468202Y-92543239I-530330J530330D01*
G01*
X142548964Y-91624001D01*
G75*
G02*
X142548964Y-90563341I530330J530330D01*
G01*
G37*
D16*
X137188913Y-89013290D03*
X142268913Y-89013290D03*
D11*
X134508913Y-98293290D03*
G36*
G01*
X135570719Y-92282726D02*
X134173477Y-90885484D01*
G75*
G02*
X134173477Y-89807854I538815J538815D01*
G01*
X134173477Y-89807854D01*
G75*
G02*
X135251107Y-89807854I538815J-538815D01*
G01*
X136648349Y-91205096D01*
G75*
G02*
X136648349Y-92282726I-538815J-538815D01*
G01*
X136648349Y-92282726D01*
G75*
G02*
X135570719Y-92282726I-538815J538815D01*
G01*
G37*
G36*
G01*
X134835923Y-90288650D02*
X136940273Y-88184300D01*
G75*
G02*
X138017903Y-88184300I538815J-538815D01*
G01*
X138017903Y-88184300D01*
G75*
G02*
X138017903Y-89261930I-538815J-538815D01*
G01*
X135913553Y-91366280D01*
G75*
G02*
X134835923Y-91366280I-538815J538815D01*
G01*
X134835923Y-91366280D01*
G75*
G02*
X134835923Y-90288650I538815J538815D01*
G01*
G37*
G36*
G01*
X142136557Y-89730262D02*
X139340031Y-88712410D01*
G75*
G02*
X138884604Y-87735745I260619J716046D01*
G01*
X138884604Y-87735745D01*
G75*
G02*
X139861269Y-87280318I716046J-260619D01*
G01*
X142657795Y-88298170D01*
G75*
G02*
X143113222Y-89274835I-260619J-716046D01*
G01*
X143113222Y-89274835D01*
G75*
G02*
X142136557Y-89730262I-716046J260619D01*
G01*
G37*
G36*
G01*
X143544273Y-92636280D02*
X141439923Y-90531930D01*
G75*
G02*
X141439923Y-89454300I538815J538815D01*
G01*
X141439923Y-89454300D01*
G75*
G02*
X142517553Y-89454300I538815J-538815D01*
G01*
X144621903Y-91558650D01*
G75*
G02*
X144621903Y-92636280I-538815J-538815D01*
G01*
X144621903Y-92636280D01*
G75*
G02*
X143544273Y-92636280I-538815J538815D01*
G01*
G37*
D17*
X142268913Y-89521290D03*
%TD*%
D11*
%TO.C,SW23*%
X144905269Y-79258394D03*
D12*
X139685269Y-69158394D03*
G36*
G01*
X144007452Y-70380577D02*
X144007452Y-70380577D01*
G75*
G02*
X144855980Y-70380577I424264J-424264D01*
G01*
X145563086Y-71087683D01*
G75*
G02*
X145563086Y-71936211I-424264J-424264D01*
G01*
X145563086Y-71936211D01*
G75*
G02*
X144714558Y-71936211I-424264J424264D01*
G01*
X144007452Y-71229105D01*
G75*
G02*
X144007452Y-70380577I424264J424264D01*
G01*
G37*
G36*
G01*
X133807452Y-71936211D02*
X133807452Y-71936211D01*
G75*
G02*
X133807452Y-71087683I424264J424264D01*
G01*
X134514558Y-70380577D01*
G75*
G02*
X135363086Y-70380577I424264J-424264D01*
G01*
X135363086Y-70380577D01*
G75*
G02*
X135363086Y-71229105I-424264J-424264D01*
G01*
X134655980Y-71936211D01*
G75*
G02*
X133807452Y-71936211I-424264J424264D01*
G01*
G37*
D13*
X145185269Y-75058394D03*
X134185269Y-75058394D03*
G36*
G01*
X134885320Y-73508343D02*
X134885320Y-73508343D01*
G75*
G02*
X134885320Y-72447683I530330J530330D01*
G01*
X135804558Y-71528445D01*
G75*
G02*
X136865218Y-71528445I530330J-530330D01*
G01*
X136865218Y-71528445D01*
G75*
G02*
X136865218Y-72589105I-530330J-530330D01*
G01*
X135945980Y-73508343D01*
G75*
G02*
X134885320Y-73508343I-530330J530330D01*
G01*
G37*
D14*
X139685269Y-75058394D03*
D15*
X134605269Y-75058394D03*
X144765269Y-75058394D03*
G36*
G01*
X142505320Y-71528445D02*
X142505320Y-71528445D01*
G75*
G02*
X143565980Y-71528445I530330J-530330D01*
G01*
X144485218Y-72447683D01*
G75*
G02*
X144485218Y-73508343I-530330J-530330D01*
G01*
X144485218Y-73508343D01*
G75*
G02*
X143424558Y-73508343I-530330J530330D01*
G01*
X142505320Y-72589105D01*
G75*
G02*
X142505320Y-71528445I530330J530330D01*
G01*
G37*
D16*
X137145269Y-69978394D03*
X142225269Y-69978394D03*
D11*
X134465269Y-79258394D03*
G36*
G01*
X135527075Y-73247830D02*
X134129833Y-71850588D01*
G75*
G02*
X134129833Y-70772958I538815J538815D01*
G01*
X134129833Y-70772958D01*
G75*
G02*
X135207463Y-70772958I538815J-538815D01*
G01*
X136604705Y-72170200D01*
G75*
G02*
X136604705Y-73247830I-538815J-538815D01*
G01*
X136604705Y-73247830D01*
G75*
G02*
X135527075Y-73247830I-538815J538815D01*
G01*
G37*
G36*
G01*
X134792279Y-71253754D02*
X136896629Y-69149404D01*
G75*
G02*
X137974259Y-69149404I538815J-538815D01*
G01*
X137974259Y-69149404D01*
G75*
G02*
X137974259Y-70227034I-538815J-538815D01*
G01*
X135869909Y-72331384D01*
G75*
G02*
X134792279Y-72331384I-538815J538815D01*
G01*
X134792279Y-72331384D01*
G75*
G02*
X134792279Y-71253754I538815J538815D01*
G01*
G37*
G36*
G01*
X142092913Y-70695366D02*
X139296387Y-69677514D01*
G75*
G02*
X138840960Y-68700849I260619J716046D01*
G01*
X138840960Y-68700849D01*
G75*
G02*
X139817625Y-68245422I716046J-260619D01*
G01*
X142614151Y-69263274D01*
G75*
G02*
X143069578Y-70239939I-260619J-716046D01*
G01*
X143069578Y-70239939D01*
G75*
G02*
X142092913Y-70695366I-716046J260619D01*
G01*
G37*
G36*
G01*
X143500629Y-73601384D02*
X141396279Y-71497034D01*
G75*
G02*
X141396279Y-70419404I538815J538815D01*
G01*
X141396279Y-70419404D01*
G75*
G02*
X142473909Y-70419404I538815J-538815D01*
G01*
X144578259Y-72523754D01*
G75*
G02*
X144578259Y-73601384I-538815J-538815D01*
G01*
X144578259Y-73601384D01*
G75*
G02*
X143500629Y-73601384I-538815J538815D01*
G01*
G37*
D17*
X142225269Y-70486394D03*
%TD*%
D11*
%TO.C,SW20*%
X92976811Y-133986528D03*
G36*
G01*
X83447969Y-130143086D02*
X83447969Y-130143086D01*
G75*
G02*
X82396383Y-130004642I-456571J595015D01*
G01*
X81787621Y-129211288D01*
G75*
G02*
X81926065Y-128159702I595015J456571D01*
G01*
X81926065Y-128159702D01*
G75*
G02*
X82977651Y-128298146I456571J-595015D01*
G01*
X83586413Y-129091500D01*
G75*
G02*
X83447969Y-130143086I-595015J-456571D01*
G01*
G37*
G36*
G01*
X86860052Y-127489839D02*
X86860052Y-127489839D01*
G75*
G02*
X87533235Y-126973288I594867J-78316D01*
G01*
X88524679Y-127103814D01*
G75*
G02*
X89041230Y-127776997I-78316J-594867D01*
G01*
X89041230Y-127776997D01*
G75*
G02*
X88368047Y-128293548I-594867J78316D01*
G01*
X87376603Y-128163022D01*
G75*
G02*
X86860052Y-127489839I78316J594867D01*
G01*
G37*
G36*
G01*
X79714858Y-134933373D02*
X79714858Y-134933373D01*
G75*
G02*
X79198307Y-134260190I78316J594867D01*
G01*
X79328833Y-133268746D01*
G75*
G02*
X80002016Y-132752195I594867J-78316D01*
G01*
X80002016Y-132752195D01*
G75*
G02*
X80518567Y-133425378I-78316J-594867D01*
G01*
X80388041Y-134416822D01*
G75*
G02*
X79714858Y-134933373I-594867J78316D01*
G01*
G37*
D13*
X90642152Y-130483991D03*
X81915266Y-137180367D03*
G36*
G01*
X81527042Y-135524466D02*
X81527042Y-135524466D01*
G75*
G02*
X80881353Y-134682987I97895J743584D01*
G01*
X81051037Y-133394109D01*
G75*
G02*
X81892516Y-132748420I743584J-97895D01*
G01*
X81892516Y-132748420D01*
G75*
G02*
X82538205Y-133589899I-97895J-743584D01*
G01*
X82368521Y-134878777D01*
G75*
G02*
X81527042Y-135524466I-743584J97895D01*
G01*
G37*
D14*
X86278709Y-133832179D03*
D15*
X82248474Y-136924687D03*
X90308944Y-130739671D03*
G36*
G01*
X86367108Y-129314943D02*
X86367108Y-129314943D01*
G75*
G02*
X87208587Y-128669254I743584J-97895D01*
G01*
X88497465Y-128838938D01*
G75*
G02*
X89143154Y-129680417I-97895J-743584D01*
G01*
X89143154Y-129680417D01*
G75*
G02*
X88301675Y-130326106I-743584J97895D01*
G01*
X87012797Y-130156422D01*
G75*
G02*
X86367108Y-129314943I97895J743584D01*
G01*
G37*
D16*
X81171083Y-131348198D03*
X85201318Y-128255690D03*
D11*
X84694203Y-140341998D03*
G36*
G01*
X81877591Y-134927111D02*
X79918495Y-134669191D01*
G75*
G02*
X79262475Y-133814249I99461J755481D01*
G01*
X79262475Y-133814249D01*
G75*
G02*
X80117417Y-133158229I755481J-99461D01*
G01*
X82076513Y-133416149D01*
G75*
G02*
X82732533Y-134271091I-99461J-755481D01*
G01*
X82732533Y-134271091D01*
G75*
G02*
X81877591Y-134927111I-755481J99461D01*
G01*
G37*
G36*
G01*
X80080720Y-133792419D02*
X80469166Y-130841879D01*
G75*
G02*
X81324108Y-130185859I755481J-99461D01*
G01*
X81324108Y-130185859D01*
G75*
G02*
X81980128Y-131040801I-99461J-755481D01*
G01*
X81591682Y-133991341D01*
G75*
G02*
X80736740Y-134647361I-755481J99461D01*
G01*
X80736740Y-134647361D01*
G75*
G02*
X80080720Y-133792419I99461J755481D01*
G01*
G37*
G36*
G01*
X85532778Y-128905076D02*
X82694516Y-129799976D01*
G75*
G02*
X81738646Y-129302382I-229138J726732D01*
G01*
X81738646Y-129302382D01*
G75*
G02*
X82236240Y-128346512I726732J229138D01*
G01*
X85074502Y-127451612D01*
G75*
G02*
X86030372Y-127949206I229138J-726732D01*
G01*
X86030372Y-127949206D01*
G75*
G02*
X85532778Y-128905076I-726732J-229138D01*
G01*
G37*
G36*
G01*
X88418666Y-130353612D02*
X85468126Y-129965166D01*
G75*
G02*
X84812106Y-129110224I99461J755481D01*
G01*
X84812106Y-129110224D01*
G75*
G02*
X85667048Y-128454204I755481J-99461D01*
G01*
X88617588Y-128842650D01*
G75*
G02*
X89273608Y-129697592I-99461J-755481D01*
G01*
X89273608Y-129697592D01*
G75*
G02*
X88418666Y-130353612I-755481J99461D01*
G01*
G37*
G36*
G01*
X85372125Y-129710299D02*
X84458983Y-128520269D01*
G75*
G02*
X84597427Y-127468683I595015J456571D01*
G01*
X84597427Y-127468683D01*
G75*
G02*
X85649013Y-127607127I456571J-595015D01*
G01*
X86562155Y-128797157D01*
G75*
G02*
X86423711Y-129848743I-595015J-456571D01*
G01*
X86423711Y-129848743D01*
G75*
G02*
X85372125Y-129710299I-456571J595015D01*
G01*
G37*
%TD*%
%TO.C,SW19*%
X163942246Y-92609196D03*
D12*
X158722246Y-82509196D03*
G36*
G01*
X163044429Y-83731379D02*
X163044429Y-83731379D01*
G75*
G02*
X163892957Y-83731379I424264J-424264D01*
G01*
X164600063Y-84438485D01*
G75*
G02*
X164600063Y-85287013I-424264J-424264D01*
G01*
X164600063Y-85287013D01*
G75*
G02*
X163751535Y-85287013I-424264J424264D01*
G01*
X163044429Y-84579907D01*
G75*
G02*
X163044429Y-83731379I424264J424264D01*
G01*
G37*
G36*
G01*
X152844429Y-85287013D02*
X152844429Y-85287013D01*
G75*
G02*
X152844429Y-84438485I424264J424264D01*
G01*
X153551535Y-83731379D01*
G75*
G02*
X154400063Y-83731379I424264J-424264D01*
G01*
X154400063Y-83731379D01*
G75*
G02*
X154400063Y-84579907I-424264J-424264D01*
G01*
X153692957Y-85287013D01*
G75*
G02*
X152844429Y-85287013I-424264J424264D01*
G01*
G37*
D13*
X164222246Y-88409196D03*
X153222246Y-88409196D03*
G36*
G01*
X153922297Y-86859145D02*
X153922297Y-86859145D01*
G75*
G02*
X153922297Y-85798485I530330J530330D01*
G01*
X154841535Y-84879247D01*
G75*
G02*
X155902195Y-84879247I530330J-530330D01*
G01*
X155902195Y-84879247D01*
G75*
G02*
X155902195Y-85939907I-530330J-530330D01*
G01*
X154982957Y-86859145D01*
G75*
G02*
X153922297Y-86859145I-530330J530330D01*
G01*
G37*
D14*
X158722246Y-88409196D03*
D15*
X153642246Y-88409196D03*
X163802246Y-88409196D03*
G36*
G01*
X161542297Y-84879247D02*
X161542297Y-84879247D01*
G75*
G02*
X162602957Y-84879247I530330J-530330D01*
G01*
X163522195Y-85798485D01*
G75*
G02*
X163522195Y-86859145I-530330J-530330D01*
G01*
X163522195Y-86859145D01*
G75*
G02*
X162461535Y-86859145I-530330J530330D01*
G01*
X161542297Y-85939907D01*
G75*
G02*
X161542297Y-84879247I530330J530330D01*
G01*
G37*
D16*
X156182246Y-83329196D03*
X161262246Y-83329196D03*
D11*
X153502246Y-92609196D03*
G36*
G01*
X154564052Y-86598632D02*
X153166810Y-85201390D01*
G75*
G02*
X153166810Y-84123760I538815J538815D01*
G01*
X153166810Y-84123760D01*
G75*
G02*
X154244440Y-84123760I538815J-538815D01*
G01*
X155641682Y-85521002D01*
G75*
G02*
X155641682Y-86598632I-538815J-538815D01*
G01*
X155641682Y-86598632D01*
G75*
G02*
X154564052Y-86598632I-538815J538815D01*
G01*
G37*
G36*
G01*
X153829256Y-84604556D02*
X155933606Y-82500206D01*
G75*
G02*
X157011236Y-82500206I538815J-538815D01*
G01*
X157011236Y-82500206D01*
G75*
G02*
X157011236Y-83577836I-538815J-538815D01*
G01*
X154906886Y-85682186D01*
G75*
G02*
X153829256Y-85682186I-538815J538815D01*
G01*
X153829256Y-85682186D01*
G75*
G02*
X153829256Y-84604556I538815J538815D01*
G01*
G37*
G36*
G01*
X161129890Y-84046168D02*
X158333364Y-83028316D01*
G75*
G02*
X157877937Y-82051651I260619J716046D01*
G01*
X157877937Y-82051651D01*
G75*
G02*
X158854602Y-81596224I716046J-260619D01*
G01*
X161651128Y-82614076D01*
G75*
G02*
X162106555Y-83590741I-260619J-716046D01*
G01*
X162106555Y-83590741D01*
G75*
G02*
X161129890Y-84046168I-716046J260619D01*
G01*
G37*
G36*
G01*
X162537606Y-86952186D02*
X160433256Y-84847836D01*
G75*
G02*
X160433256Y-83770206I538815J538815D01*
G01*
X160433256Y-83770206D01*
G75*
G02*
X161510886Y-83770206I538815J-538815D01*
G01*
X163615236Y-85874556D01*
G75*
G02*
X163615236Y-86952186I-538815J-538815D01*
G01*
X163615236Y-86952186D01*
G75*
G02*
X162537606Y-86952186I-538815J538815D01*
G01*
G37*
D17*
X161262246Y-83837196D03*
%TD*%
D11*
%TO.C,SW18*%
X163989162Y-73598567D03*
D12*
X158769162Y-63498567D03*
G36*
G01*
X163091345Y-64720750D02*
X163091345Y-64720750D01*
G75*
G02*
X163939873Y-64720750I424264J-424264D01*
G01*
X164646979Y-65427856D01*
G75*
G02*
X164646979Y-66276384I-424264J-424264D01*
G01*
X164646979Y-66276384D01*
G75*
G02*
X163798451Y-66276384I-424264J424264D01*
G01*
X163091345Y-65569278D01*
G75*
G02*
X163091345Y-64720750I424264J424264D01*
G01*
G37*
G36*
G01*
X152891345Y-66276384D02*
X152891345Y-66276384D01*
G75*
G02*
X152891345Y-65427856I424264J424264D01*
G01*
X153598451Y-64720750D01*
G75*
G02*
X154446979Y-64720750I424264J-424264D01*
G01*
X154446979Y-64720750D01*
G75*
G02*
X154446979Y-65569278I-424264J-424264D01*
G01*
X153739873Y-66276384D01*
G75*
G02*
X152891345Y-66276384I-424264J424264D01*
G01*
G37*
D13*
X164269162Y-69398567D03*
X153269162Y-69398567D03*
G36*
G01*
X153969213Y-67848516D02*
X153969213Y-67848516D01*
G75*
G02*
X153969213Y-66787856I530330J530330D01*
G01*
X154888451Y-65868618D01*
G75*
G02*
X155949111Y-65868618I530330J-530330D01*
G01*
X155949111Y-65868618D01*
G75*
G02*
X155949111Y-66929278I-530330J-530330D01*
G01*
X155029873Y-67848516D01*
G75*
G02*
X153969213Y-67848516I-530330J530330D01*
G01*
G37*
D14*
X158769162Y-69398567D03*
D15*
X153689162Y-69398567D03*
X163849162Y-69398567D03*
G36*
G01*
X161589213Y-65868618D02*
X161589213Y-65868618D01*
G75*
G02*
X162649873Y-65868618I530330J-530330D01*
G01*
X163569111Y-66787856D01*
G75*
G02*
X163569111Y-67848516I-530330J-530330D01*
G01*
X163569111Y-67848516D01*
G75*
G02*
X162508451Y-67848516I-530330J530330D01*
G01*
X161589213Y-66929278D01*
G75*
G02*
X161589213Y-65868618I530330J530330D01*
G01*
G37*
D16*
X156229162Y-64318567D03*
X161309162Y-64318567D03*
D11*
X153549162Y-73598567D03*
G36*
G01*
X154610968Y-67588003D02*
X153213726Y-66190761D01*
G75*
G02*
X153213726Y-65113131I538815J538815D01*
G01*
X153213726Y-65113131D01*
G75*
G02*
X154291356Y-65113131I538815J-538815D01*
G01*
X155688598Y-66510373D01*
G75*
G02*
X155688598Y-67588003I-538815J-538815D01*
G01*
X155688598Y-67588003D01*
G75*
G02*
X154610968Y-67588003I-538815J538815D01*
G01*
G37*
G36*
G01*
X153876172Y-65593927D02*
X155980522Y-63489577D01*
G75*
G02*
X157058152Y-63489577I538815J-538815D01*
G01*
X157058152Y-63489577D01*
G75*
G02*
X157058152Y-64567207I-538815J-538815D01*
G01*
X154953802Y-66671557D01*
G75*
G02*
X153876172Y-66671557I-538815J538815D01*
G01*
X153876172Y-66671557D01*
G75*
G02*
X153876172Y-65593927I538815J538815D01*
G01*
G37*
G36*
G01*
X161176806Y-65035539D02*
X158380280Y-64017687D01*
G75*
G02*
X157924853Y-63041022I260619J716046D01*
G01*
X157924853Y-63041022D01*
G75*
G02*
X158901518Y-62585595I716046J-260619D01*
G01*
X161698044Y-63603447D01*
G75*
G02*
X162153471Y-64580112I-260619J-716046D01*
G01*
X162153471Y-64580112D01*
G75*
G02*
X161176806Y-65035539I-716046J260619D01*
G01*
G37*
G36*
G01*
X162584522Y-67941557D02*
X160480172Y-65837207D01*
G75*
G02*
X160480172Y-64759577I538815J538815D01*
G01*
X160480172Y-64759577D01*
G75*
G02*
X161557802Y-64759577I538815J-538815D01*
G01*
X163662152Y-66863927D01*
G75*
G02*
X163662152Y-67941557I-538815J-538815D01*
G01*
X163662152Y-67941557D01*
G75*
G02*
X162584522Y-67941557I-538815J538815D01*
G01*
G37*
D17*
X161309162Y-64826567D03*
%TD*%
D11*
%TO.C,SW17*%
X163969779Y-54473116D03*
D12*
X158749779Y-44373116D03*
G36*
G01*
X163071962Y-45595299D02*
X163071962Y-45595299D01*
G75*
G02*
X163920490Y-45595299I424264J-424264D01*
G01*
X164627596Y-46302405D01*
G75*
G02*
X164627596Y-47150933I-424264J-424264D01*
G01*
X164627596Y-47150933D01*
G75*
G02*
X163779068Y-47150933I-424264J424264D01*
G01*
X163071962Y-46443827D01*
G75*
G02*
X163071962Y-45595299I424264J424264D01*
G01*
G37*
G36*
G01*
X152871962Y-47150933D02*
X152871962Y-47150933D01*
G75*
G02*
X152871962Y-46302405I424264J424264D01*
G01*
X153579068Y-45595299D01*
G75*
G02*
X154427596Y-45595299I424264J-424264D01*
G01*
X154427596Y-45595299D01*
G75*
G02*
X154427596Y-46443827I-424264J-424264D01*
G01*
X153720490Y-47150933D01*
G75*
G02*
X152871962Y-47150933I-424264J424264D01*
G01*
G37*
D13*
X164249779Y-50273116D03*
X153249779Y-50273116D03*
G36*
G01*
X153949830Y-48723065D02*
X153949830Y-48723065D01*
G75*
G02*
X153949830Y-47662405I530330J530330D01*
G01*
X154869068Y-46743167D01*
G75*
G02*
X155929728Y-46743167I530330J-530330D01*
G01*
X155929728Y-46743167D01*
G75*
G02*
X155929728Y-47803827I-530330J-530330D01*
G01*
X155010490Y-48723065D01*
G75*
G02*
X153949830Y-48723065I-530330J530330D01*
G01*
G37*
D14*
X158749779Y-50273116D03*
D15*
X153669779Y-50273116D03*
X163829779Y-50273116D03*
G36*
G01*
X161569830Y-46743167D02*
X161569830Y-46743167D01*
G75*
G02*
X162630490Y-46743167I530330J-530330D01*
G01*
X163549728Y-47662405D01*
G75*
G02*
X163549728Y-48723065I-530330J-530330D01*
G01*
X163549728Y-48723065D01*
G75*
G02*
X162489068Y-48723065I-530330J530330D01*
G01*
X161569830Y-47803827D01*
G75*
G02*
X161569830Y-46743167I530330J530330D01*
G01*
G37*
D16*
X156209779Y-45193116D03*
X161289779Y-45193116D03*
D11*
X153529779Y-54473116D03*
G36*
G01*
X154591585Y-48462552D02*
X153194343Y-47065310D01*
G75*
G02*
X153194343Y-45987680I538815J538815D01*
G01*
X153194343Y-45987680D01*
G75*
G02*
X154271973Y-45987680I538815J-538815D01*
G01*
X155669215Y-47384922D01*
G75*
G02*
X155669215Y-48462552I-538815J-538815D01*
G01*
X155669215Y-48462552D01*
G75*
G02*
X154591585Y-48462552I-538815J538815D01*
G01*
G37*
G36*
G01*
X153856789Y-46468476D02*
X155961139Y-44364126D01*
G75*
G02*
X157038769Y-44364126I538815J-538815D01*
G01*
X157038769Y-44364126D01*
G75*
G02*
X157038769Y-45441756I-538815J-538815D01*
G01*
X154934419Y-47546106D01*
G75*
G02*
X153856789Y-47546106I-538815J538815D01*
G01*
X153856789Y-47546106D01*
G75*
G02*
X153856789Y-46468476I538815J538815D01*
G01*
G37*
G36*
G01*
X161157423Y-45910088D02*
X158360897Y-44892236D01*
G75*
G02*
X157905470Y-43915571I260619J716046D01*
G01*
X157905470Y-43915571D01*
G75*
G02*
X158882135Y-43460144I716046J-260619D01*
G01*
X161678661Y-44477996D01*
G75*
G02*
X162134088Y-45454661I-260619J-716046D01*
G01*
X162134088Y-45454661D01*
G75*
G02*
X161157423Y-45910088I-716046J260619D01*
G01*
G37*
G36*
G01*
X162565139Y-48816106D02*
X160460789Y-46711756D01*
G75*
G02*
X160460789Y-45634126I538815J538815D01*
G01*
X160460789Y-45634126D01*
G75*
G02*
X161538419Y-45634126I538815J-538815D01*
G01*
X163642769Y-47738476D01*
G75*
G02*
X163642769Y-48816106I-538815J-538815D01*
G01*
X163642769Y-48816106D01*
G75*
G02*
X162565139Y-48816106I-538815J538815D01*
G01*
G37*
D17*
X161289779Y-45701116D03*
%TD*%
D11*
%TO.C,SW15*%
X110268018Y-124879285D03*
G36*
G01*
X101796920Y-119064529D02*
X101796920Y-119064529D01*
G75*
G02*
X100800225Y-118701762I-316964J679731D01*
G01*
X100377607Y-117795454D01*
G75*
G02*
X100740374Y-116798759I679731J316964D01*
G01*
X100740374Y-116798759D01*
G75*
G02*
X101737069Y-117161526I316964J-679731D01*
G01*
X102159687Y-118067834D01*
G75*
G02*
X101796920Y-119064529I-679731J-316964D01*
G01*
G37*
G36*
G01*
X105702391Y-117212684D02*
X105702391Y-117212684D01*
G75*
G02*
X106471419Y-116854080I563816J-205212D01*
G01*
X107411111Y-117196100D01*
G75*
G02*
X107769715Y-117965128I-205212J-563816D01*
G01*
X107769715Y-117965128D01*
G75*
G02*
X107000687Y-118323732I-563816J205212D01*
G01*
X106060995Y-117981712D01*
G75*
G02*
X105702391Y-117212684I205212J563816D01*
G01*
G37*
G36*
G01*
X97115492Y-122933275D02*
X97115492Y-122933275D01*
G75*
G02*
X96756888Y-122164247I205212J563816D01*
G01*
X97098908Y-121224555D01*
G75*
G02*
X97867936Y-120865951I563816J-205212D01*
G01*
X97867936Y-120865951D01*
G75*
G02*
X98226540Y-121634979I-205212J-563816D01*
G01*
X97884520Y-122574671D01*
G75*
G02*
X97115492Y-122933275I-563816J205212D01*
G01*
G37*
D13*
X108746788Y-120954460D03*
X98777402Y-125603260D03*
G36*
G01*
X98756784Y-123902583D02*
X98756784Y-123902583D01*
G75*
G02*
X98308530Y-122941299I256515J704769D01*
G01*
X98753156Y-121719699D01*
G75*
G02*
X99714440Y-121271445I704769J-256515D01*
G01*
X99714440Y-121271445D01*
G75*
G02*
X100162694Y-122232729I-256515J-704769D01*
G01*
X99718068Y-123454329D01*
G75*
G02*
X98756784Y-123902583I-704769J256515D01*
G01*
G37*
D14*
X103762095Y-123278860D03*
D15*
X99158051Y-125425761D03*
X108366139Y-121131959D03*
G36*
G01*
X104826108Y-118887835D02*
X104826108Y-118887835D01*
G75*
G02*
X105787392Y-118439581I704769J-256515D01*
G01*
X107008992Y-118884207D01*
G75*
G02*
X107457246Y-119845491I-256515J-704769D01*
G01*
X107457246Y-119845491D01*
G75*
G02*
X106495962Y-120293745I-704769J256515D01*
G01*
X105274362Y-119849119D01*
G75*
G02*
X104826108Y-118887835I256515J704769D01*
G01*
G37*
D16*
X99313172Y-119748267D03*
X103917216Y-117601366D03*
D11*
X100806165Y-129291420D03*
G36*
G01*
X99228315Y-123395262D02*
X97371483Y-122719430D01*
G75*
G02*
X96916056Y-121742765I260619J716046D01*
G01*
X96916056Y-121742765D01*
G75*
G02*
X97892721Y-121287338I716046J-260619D01*
G01*
X99749553Y-121963170D01*
G75*
G02*
X100204980Y-122939835I-260619J-716046D01*
G01*
X100204980Y-122939835D01*
G75*
G02*
X99228315Y-123395262I-716046J260619D01*
G01*
G37*
G36*
G01*
X97719629Y-121898552D02*
X98737481Y-119102026D01*
G75*
G02*
X99714146Y-118646599I716046J-260619D01*
G01*
X99714146Y-118646599D01*
G75*
G02*
X100169573Y-119623264I-260619J-716046D01*
G01*
X99151721Y-122419790D01*
G75*
G02*
X98175056Y-122875217I-716046J260619D01*
G01*
X98175056Y-122875217D01*
G75*
G02*
X97719629Y-121898552I260619J716046D01*
G01*
G37*
G36*
G01*
X104100266Y-118307099D02*
X101135590Y-118566475D01*
G75*
G02*
X100310077Y-117873788I-66413J759100D01*
G01*
X100310077Y-117873788D01*
G75*
G02*
X101002764Y-117048275I759100J66413D01*
G01*
X103967440Y-116788899D01*
G75*
G02*
X104792953Y-117481586I66413J-759100D01*
G01*
X104792953Y-117481586D01*
G75*
G02*
X104100266Y-118307099I-759100J-66413D01*
G01*
G37*
G36*
G01*
X106604227Y-120345920D02*
X103807701Y-119328068D01*
G75*
G02*
X103352274Y-118351403I260619J716046D01*
G01*
X103352274Y-118351403D01*
G75*
G02*
X104328939Y-117895976I716046J-260619D01*
G01*
X107125465Y-118913828D01*
G75*
G02*
X107580892Y-119890493I-260619J-716046D01*
G01*
X107580892Y-119890493D01*
G75*
G02*
X106604227Y-120345920I-716046J260619D01*
G01*
G37*
G36*
G01*
X103769139Y-119058465D02*
X103135211Y-117699003D01*
G75*
G02*
X103497978Y-116702308I679731J316964D01*
G01*
X103497978Y-116702308D01*
G75*
G02*
X104494673Y-117065075I316964J-679731D01*
G01*
X105128601Y-118424537D01*
G75*
G02*
X104765834Y-119421232I-679731J-316964D01*
G01*
X104765834Y-119421232D01*
G75*
G02*
X103769139Y-119058465I-316964J679731D01*
G01*
G37*
%TD*%
%TO.C,SW14*%
X183002678Y-96454677D03*
D12*
X177782678Y-86354677D03*
G36*
G01*
X182104861Y-87576860D02*
X182104861Y-87576860D01*
G75*
G02*
X182953389Y-87576860I424264J-424264D01*
G01*
X183660495Y-88283966D01*
G75*
G02*
X183660495Y-89132494I-424264J-424264D01*
G01*
X183660495Y-89132494D01*
G75*
G02*
X182811967Y-89132494I-424264J424264D01*
G01*
X182104861Y-88425388D01*
G75*
G02*
X182104861Y-87576860I424264J424264D01*
G01*
G37*
G36*
G01*
X171904861Y-89132494D02*
X171904861Y-89132494D01*
G75*
G02*
X171904861Y-88283966I424264J424264D01*
G01*
X172611967Y-87576860D01*
G75*
G02*
X173460495Y-87576860I424264J-424264D01*
G01*
X173460495Y-87576860D01*
G75*
G02*
X173460495Y-88425388I-424264J-424264D01*
G01*
X172753389Y-89132494D01*
G75*
G02*
X171904861Y-89132494I-424264J424264D01*
G01*
G37*
D13*
X183282678Y-92254677D03*
X172282678Y-92254677D03*
G36*
G01*
X172982729Y-90704626D02*
X172982729Y-90704626D01*
G75*
G02*
X172982729Y-89643966I530330J530330D01*
G01*
X173901967Y-88724728D01*
G75*
G02*
X174962627Y-88724728I530330J-530330D01*
G01*
X174962627Y-88724728D01*
G75*
G02*
X174962627Y-89785388I-530330J-530330D01*
G01*
X174043389Y-90704626D01*
G75*
G02*
X172982729Y-90704626I-530330J530330D01*
G01*
G37*
D14*
X177782678Y-92254677D03*
D15*
X172702678Y-92254677D03*
X182862678Y-92254677D03*
G36*
G01*
X180602729Y-88724728D02*
X180602729Y-88724728D01*
G75*
G02*
X181663389Y-88724728I530330J-530330D01*
G01*
X182582627Y-89643966D01*
G75*
G02*
X182582627Y-90704626I-530330J-530330D01*
G01*
X182582627Y-90704626D01*
G75*
G02*
X181521967Y-90704626I-530330J530330D01*
G01*
X180602729Y-89785388D01*
G75*
G02*
X180602729Y-88724728I530330J530330D01*
G01*
G37*
D16*
X175242678Y-87174677D03*
X180322678Y-87174677D03*
D11*
X172562678Y-96454677D03*
G36*
G01*
X173624484Y-90444113D02*
X172227242Y-89046871D01*
G75*
G02*
X172227242Y-87969241I538815J538815D01*
G01*
X172227242Y-87969241D01*
G75*
G02*
X173304872Y-87969241I538815J-538815D01*
G01*
X174702114Y-89366483D01*
G75*
G02*
X174702114Y-90444113I-538815J-538815D01*
G01*
X174702114Y-90444113D01*
G75*
G02*
X173624484Y-90444113I-538815J538815D01*
G01*
G37*
G36*
G01*
X172889688Y-88450037D02*
X174994038Y-86345687D01*
G75*
G02*
X176071668Y-86345687I538815J-538815D01*
G01*
X176071668Y-86345687D01*
G75*
G02*
X176071668Y-87423317I-538815J-538815D01*
G01*
X173967318Y-89527667D01*
G75*
G02*
X172889688Y-89527667I-538815J538815D01*
G01*
X172889688Y-89527667D01*
G75*
G02*
X172889688Y-88450037I538815J538815D01*
G01*
G37*
G36*
G01*
X180190322Y-87891649D02*
X177393796Y-86873797D01*
G75*
G02*
X176938369Y-85897132I260619J716046D01*
G01*
X176938369Y-85897132D01*
G75*
G02*
X177915034Y-85441705I716046J-260619D01*
G01*
X180711560Y-86459557D01*
G75*
G02*
X181166987Y-87436222I-260619J-716046D01*
G01*
X181166987Y-87436222D01*
G75*
G02*
X180190322Y-87891649I-716046J260619D01*
G01*
G37*
G36*
G01*
X181598038Y-90797667D02*
X179493688Y-88693317D01*
G75*
G02*
X179493688Y-87615687I538815J538815D01*
G01*
X179493688Y-87615687D01*
G75*
G02*
X180571318Y-87615687I538815J-538815D01*
G01*
X182675668Y-89720037D01*
G75*
G02*
X182675668Y-90797667I-538815J-538815D01*
G01*
X182675668Y-90797667D01*
G75*
G02*
X181598038Y-90797667I-538815J538815D01*
G01*
G37*
D17*
X180322678Y-87682677D03*
%TD*%
D11*
%TO.C,SW10*%
X129118196Y-119593549D03*
G36*
G01*
X122106440Y-112083145D02*
X122106440Y-112083145D01*
G75*
G02*
X121211888Y-111513253I-162330J732222D01*
G01*
X120995448Y-110536957D01*
G75*
G02*
X121565340Y-109642405I732222J162330D01*
G01*
X121565340Y-109642405D01*
G75*
G02*
X122459892Y-110212297I162330J-732222D01*
G01*
X122676332Y-111188593D01*
G75*
G02*
X122106440Y-112083145I-732222J-162330D01*
G01*
G37*
G36*
G01*
X126320148Y-111120495D02*
X126320148Y-111120495D01*
G75*
G02*
X127148563Y-110936840I506035J-322380D01*
G01*
X127991955Y-111474140D01*
G75*
G02*
X128175610Y-112302555I-322380J-506035D01*
G01*
X128175610Y-112302555D01*
G75*
G02*
X127347195Y-112486210I-506035J322380D01*
G01*
X126503803Y-111948910D01*
G75*
G02*
X126320148Y-111120495I322380J506035D01*
G01*
G37*
G36*
G01*
X116698630Y-114846940D02*
X116698630Y-114846940D01*
G75*
G02*
X116514975Y-114018525I322380J506035D01*
G01*
X117052275Y-113175133D01*
G75*
G02*
X117880690Y-112991478I506035J-322380D01*
G01*
X117880690Y-112991478D01*
G75*
G02*
X118064345Y-113819893I-322380J-506035D01*
G01*
X117527045Y-114663285D01*
G75*
G02*
X116698630Y-114846940I-506035J322380D01*
G01*
G37*
D13*
X128482512Y-115432503D03*
X117743256Y-117813339D03*
G36*
G01*
X118091220Y-116148512D02*
X118091220Y-116148512D01*
G75*
G02*
X117861651Y-115112993I402975J632544D01*
G01*
X118560141Y-114016585D01*
G75*
G02*
X119595660Y-113787016I632544J-402975D01*
G01*
X119595660Y-113787016D01*
G75*
G02*
X119825229Y-114822535I-402975J-632544D01*
G01*
X119126739Y-115918943D01*
G75*
G02*
X118091220Y-116148512I-632544J402975D01*
G01*
G37*
D14*
X123112884Y-116622921D03*
D15*
X118153300Y-117722434D03*
X128072468Y-115523408D03*
G36*
G01*
X125102067Y-112566274D02*
X125102067Y-112566274D01*
G75*
G02*
X126137586Y-112336705I632544J-402975D01*
G01*
X127233994Y-113035195D01*
G75*
G02*
X127463563Y-114070714I-402975J-632544D01*
G01*
X127463563Y-114070714D01*
G75*
G02*
X126428044Y-114300283I-632544J402975D01*
G01*
X125331636Y-113601793D01*
G75*
G02*
X125102067Y-112566274I402975J632544D01*
G01*
G37*
D16*
X119533579Y-112213094D03*
X124493163Y-111113581D03*
D11*
X118925665Y-121853179D03*
G36*
G01*
X118661379Y-115755273D02*
X116994837Y-114693569D01*
G75*
G02*
X116761595Y-113641483I409422J642664D01*
G01*
X116761595Y-113641483D01*
G75*
G02*
X117813681Y-113408241I642664J-409422D01*
G01*
X119480223Y-114469945D01*
G75*
G02*
X119713465Y-115522031I-409422J-642664D01*
G01*
X119713465Y-115522031D01*
G75*
G02*
X118661379Y-115755273I-642664J409422D01*
G01*
G37*
G36*
G01*
X117512402Y-113967502D02*
X119111406Y-111457570D01*
G75*
G02*
X120163492Y-111224328I642664J-409422D01*
G01*
X120163492Y-111224328D01*
G75*
G02*
X120396734Y-112276414I-409422J-642664D01*
G01*
X118797730Y-114786346D01*
G75*
G02*
X117745644Y-115019588I-642664J409422D01*
G01*
X117745644Y-115019588D01*
G75*
G02*
X117512402Y-113967502I409422J642664D01*
G01*
G37*
G36*
G01*
X124519124Y-111842205D02*
X121568584Y-111453759D01*
G75*
G02*
X120912564Y-110598817I99461J755481D01*
G01*
X120912564Y-110598817D01*
G75*
G02*
X121767506Y-109942797I755481J-99461D01*
G01*
X124718046Y-110331243D01*
G75*
G02*
X125374066Y-111186185I-99461J-755481D01*
G01*
X125374066Y-111186185D01*
G75*
G02*
X124519124Y-111842205I-755481J99461D01*
G01*
G37*
G36*
G01*
X126522449Y-114374653D02*
X124012517Y-112775649D01*
G75*
G02*
X123779275Y-111723563I409422J642664D01*
G01*
X123779275Y-111723563D01*
G75*
G02*
X124831361Y-111490321I642664J-409422D01*
G01*
X127341293Y-113089325D01*
G75*
G02*
X127574535Y-114141411I-409422J-642664D01*
G01*
X127574535Y-114141411D01*
G75*
G02*
X126522449Y-114374653I-642664J409422D01*
G01*
G37*
G36*
G01*
X124033222Y-112504091D02*
X123708562Y-111039647D01*
G75*
G02*
X124278454Y-110145095I732222J162330D01*
G01*
X124278454Y-110145095D01*
G75*
G02*
X125173006Y-110714987I162330J-732222D01*
G01*
X125497666Y-112179431D01*
G75*
G02*
X124927774Y-113073983I-732222J-162330D01*
G01*
X124927774Y-113073983D01*
G75*
G02*
X124033222Y-112504091I-162330J732222D01*
G01*
G37*
%TD*%
%TO.C,SW9*%
X202104677Y-105940622D03*
D12*
X196884677Y-95840622D03*
G36*
G01*
X201206860Y-97062805D02*
X201206860Y-97062805D01*
G75*
G02*
X202055388Y-97062805I424264J-424264D01*
G01*
X202762494Y-97769911D01*
G75*
G02*
X202762494Y-98618439I-424264J-424264D01*
G01*
X202762494Y-98618439D01*
G75*
G02*
X201913966Y-98618439I-424264J424264D01*
G01*
X201206860Y-97911333D01*
G75*
G02*
X201206860Y-97062805I424264J424264D01*
G01*
G37*
G36*
G01*
X191006860Y-98618439D02*
X191006860Y-98618439D01*
G75*
G02*
X191006860Y-97769911I424264J424264D01*
G01*
X191713966Y-97062805D01*
G75*
G02*
X192562494Y-97062805I424264J-424264D01*
G01*
X192562494Y-97062805D01*
G75*
G02*
X192562494Y-97911333I-424264J-424264D01*
G01*
X191855388Y-98618439D01*
G75*
G02*
X191006860Y-98618439I-424264J424264D01*
G01*
G37*
D13*
X202384677Y-101740622D03*
X191384677Y-101740622D03*
G36*
G01*
X192084728Y-100190571D02*
X192084728Y-100190571D01*
G75*
G02*
X192084728Y-99129911I530330J530330D01*
G01*
X193003966Y-98210673D01*
G75*
G02*
X194064626Y-98210673I530330J-530330D01*
G01*
X194064626Y-98210673D01*
G75*
G02*
X194064626Y-99271333I-530330J-530330D01*
G01*
X193145388Y-100190571D01*
G75*
G02*
X192084728Y-100190571I-530330J530330D01*
G01*
G37*
D14*
X196884677Y-101740622D03*
D15*
X191804677Y-101740622D03*
X201964677Y-101740622D03*
G36*
G01*
X199704728Y-98210673D02*
X199704728Y-98210673D01*
G75*
G02*
X200765388Y-98210673I530330J-530330D01*
G01*
X201684626Y-99129911D01*
G75*
G02*
X201684626Y-100190571I-530330J-530330D01*
G01*
X201684626Y-100190571D01*
G75*
G02*
X200623966Y-100190571I-530330J530330D01*
G01*
X199704728Y-99271333D01*
G75*
G02*
X199704728Y-98210673I530330J530330D01*
G01*
G37*
D16*
X194344677Y-96660622D03*
X199424677Y-96660622D03*
D11*
X191664677Y-105940622D03*
G36*
G01*
X192726483Y-99930058D02*
X191329241Y-98532816D01*
G75*
G02*
X191329241Y-97455186I538815J538815D01*
G01*
X191329241Y-97455186D01*
G75*
G02*
X192406871Y-97455186I538815J-538815D01*
G01*
X193804113Y-98852428D01*
G75*
G02*
X193804113Y-99930058I-538815J-538815D01*
G01*
X193804113Y-99930058D01*
G75*
G02*
X192726483Y-99930058I-538815J538815D01*
G01*
G37*
G36*
G01*
X191991687Y-97935982D02*
X194096037Y-95831632D01*
G75*
G02*
X195173667Y-95831632I538815J-538815D01*
G01*
X195173667Y-95831632D01*
G75*
G02*
X195173667Y-96909262I-538815J-538815D01*
G01*
X193069317Y-99013612D01*
G75*
G02*
X191991687Y-99013612I-538815J538815D01*
G01*
X191991687Y-99013612D01*
G75*
G02*
X191991687Y-97935982I538815J538815D01*
G01*
G37*
G36*
G01*
X199292321Y-97377594D02*
X196495795Y-96359742D01*
G75*
G02*
X196040368Y-95383077I260619J716046D01*
G01*
X196040368Y-95383077D01*
G75*
G02*
X197017033Y-94927650I716046J-260619D01*
G01*
X199813559Y-95945502D01*
G75*
G02*
X200268986Y-96922167I-260619J-716046D01*
G01*
X200268986Y-96922167D01*
G75*
G02*
X199292321Y-97377594I-716046J260619D01*
G01*
G37*
G36*
G01*
X200700037Y-100283612D02*
X198595687Y-98179262D01*
G75*
G02*
X198595687Y-97101632I538815J538815D01*
G01*
X198595687Y-97101632D01*
G75*
G02*
X199673317Y-97101632I538815J-538815D01*
G01*
X201777667Y-99205982D01*
G75*
G02*
X201777667Y-100283612I-538815J-538815D01*
G01*
X201777667Y-100283612D01*
G75*
G02*
X200700037Y-100283612I-538815J538815D01*
G01*
G37*
D17*
X199424677Y-97168622D03*
%TD*%
D18*
%TO.C,U1*%
X106468454Y-50109031D03*
X106468454Y-52649031D03*
X106468454Y-55189031D03*
X106468454Y-57729031D03*
X106468454Y-60269031D03*
X106468454Y-62809031D03*
X106468454Y-65349031D03*
X106468454Y-67889031D03*
X106468454Y-70429031D03*
X106468454Y-72969031D03*
X106468454Y-75509031D03*
X106468454Y-78049031D03*
X91228454Y-78049031D03*
X91228454Y-75509031D03*
X91228454Y-72969031D03*
X91228454Y-70429031D03*
X91228454Y-67889031D03*
X91228454Y-65349031D03*
X91228454Y-62809031D03*
X91228454Y-60269031D03*
X91228454Y-57729031D03*
X91228454Y-55189031D03*
X91228454Y-52649031D03*
D19*
X91228454Y-50109031D03*
%TD*%
D20*
%TO.C,J2*%
X82375254Y-55189330D03*
D21*
X84675254Y-50589330D03*
X84675254Y-57589330D03*
D20*
X82375254Y-52189330D03*
X82375254Y-59189330D03*
X86975254Y-60289330D03*
%TD*%
D22*
%TO.C,RE1*%
X87215254Y-101150330D03*
D23*
X87215254Y-103650330D03*
X87215254Y-106150330D03*
D24*
X94715254Y-98050330D03*
X94715254Y-109250330D03*
D23*
X101715254Y-101150330D03*
X101715254Y-106150330D03*
%TD*%
D19*
%TO.C,D_RE1*%
X90935254Y-112834330D03*
D18*
X98735254Y-112834330D03*
D25*
X96235254Y-112834330D03*
X93435254Y-112834330D03*
%TD*%
D26*
%TO.C,PWM_PAD2*%
X110964255Y-65463330D03*
X110964255Y-62923330D03*
X110964255Y-60383330D03*
%TD*%
D27*
%TO.C,RST1*%
X86652255Y-65411330D03*
X86652255Y-71611330D03*
X82952255Y-65411330D03*
X82952255Y-71611330D03*
%TD*%
D20*
%TO.C,J1*%
X86975255Y-55153330D03*
D21*
X84675255Y-50553330D03*
X84675255Y-57553330D03*
D20*
X86975255Y-52153330D03*
X86975255Y-59153330D03*
X82375255Y-60253330D03*
%TD*%
D19*
%TO.C,D8*%
X187427675Y-78805722D03*
D18*
X187427675Y-86605722D03*
D28*
X187427675Y-84105722D03*
X187427675Y-81305722D03*
%TD*%
D19*
%TO.C,D28*%
X111199500Y-96330970D03*
D18*
X111199500Y-104130970D03*
D28*
X111199500Y-101630970D03*
X111199500Y-98830970D03*
%TD*%
D19*
%TO.C,D27*%
X111107333Y-77477191D03*
D18*
X111107333Y-85277191D03*
D28*
X111107333Y-82777191D03*
X111107333Y-79977191D03*
%TD*%
D19*
%TO.C,D26*%
X117325855Y-66022130D03*
D18*
X125125855Y-66022130D03*
D25*
X122625855Y-66022130D03*
X119825855Y-66022130D03*
%TD*%
D19*
%TO.C,D24*%
X130211863Y-94922492D03*
D18*
X130211863Y-102722492D03*
D28*
X130211863Y-100222492D03*
X130211863Y-97422492D03*
%TD*%
D19*
%TO.C,D23*%
X130373603Y-75845570D03*
D18*
X130373603Y-83645570D03*
D28*
X130373603Y-81145570D03*
X130373603Y-78345570D03*
%TD*%
D19*
%TO.C,D22*%
X130221646Y-56490485D03*
D18*
X130221646Y-64290485D03*
D28*
X130221646Y-61790485D03*
X130221646Y-58990485D03*
%TD*%
D29*
%TO.C,D20*%
G36*
X78723777Y-136176927D02*
G01*
X77454411Y-137150945D01*
X76480393Y-135881579D01*
X77749759Y-134907561D01*
X78723777Y-136176927D01*
G37*
D18*
X82350425Y-142217409D03*
D29*
G36*
X80087010Y-138282062D02*
G01*
X79134986Y-139012576D01*
X78160968Y-137743210D01*
X79112992Y-137012696D01*
X80087010Y-138282062D01*
G37*
G36*
X81791542Y-140503452D02*
G01*
X80839518Y-141233966D01*
X79865500Y-139964600D01*
X80817524Y-139234086D01*
X81791542Y-140503452D01*
G37*
%TD*%
D19*
%TO.C,D19*%
X149396657Y-89050318D03*
D18*
X149396657Y-96850318D03*
D28*
X149396657Y-94350318D03*
X149396657Y-91550318D03*
%TD*%
D19*
%TO.C,D18*%
X149191255Y-69945330D03*
D18*
X149191255Y-77745330D03*
D28*
X149191255Y-75245330D03*
X149191255Y-72445330D03*
%TD*%
D19*
%TO.C,D17*%
X149191254Y-53308330D03*
D18*
X149191254Y-61108330D03*
D28*
X149191254Y-58608330D03*
X149191254Y-55808330D03*
%TD*%
D29*
%TO.C,D15*%
G36*
X94885184Y-124799682D02*
G01*
X93435091Y-125475871D01*
X92758902Y-124025778D01*
X94208995Y-123349589D01*
X94885184Y-124799682D01*
G37*
D18*
X97118465Y-131481930D03*
D29*
G36*
X95760467Y-127149974D02*
G01*
X94672898Y-127657116D01*
X93996709Y-126207024D01*
X95084278Y-125699882D01*
X95760467Y-127149974D01*
G37*
G36*
X96943799Y-129687636D02*
G01*
X95856230Y-130194778D01*
X95180041Y-128744686D01*
X96267610Y-128237544D01*
X96943799Y-129687636D01*
G37*
%TD*%
D19*
%TO.C,D14*%
X168320664Y-92516290D03*
D18*
X168320664Y-100316290D03*
D28*
X168320664Y-97816290D03*
X168320664Y-95016290D03*
%TD*%
D19*
%TO.C,D13*%
X168349819Y-73209728D03*
D18*
X168349819Y-81009728D03*
D28*
X168349819Y-78509728D03*
X168349819Y-75709728D03*
%TD*%
D19*
%TO.C,D12*%
X168349818Y-53867130D03*
D18*
X168349818Y-61667130D03*
D28*
X168349818Y-59167130D03*
X168349818Y-56367130D03*
%TD*%
D29*
%TO.C,D10*%
G36*
X114122328Y-115984660D02*
G01*
X112560255Y-116330963D01*
X112213952Y-114768890D01*
X113776025Y-114422587D01*
X114122328Y-115984660D01*
G37*
D18*
X114856368Y-122991883D03*
D29*
G36*
X114468168Y-118468688D02*
G01*
X113296613Y-118728416D01*
X112950310Y-117166342D01*
X114121865Y-116906614D01*
X114468168Y-118468688D01*
G37*
G36*
X115074198Y-121202316D02*
G01*
X113902643Y-121462044D01*
X113556340Y-119899970D01*
X114727895Y-119640242D01*
X115074198Y-121202316D01*
G37*
%TD*%
D19*
%TO.C,D9*%
X187427675Y-97840622D03*
D18*
X187427675Y-105640622D03*
D28*
X187427675Y-103140622D03*
X187427675Y-100340622D03*
%TD*%
D19*
%TO.C,D7*%
X187427675Y-62501302D03*
D18*
X187427675Y-70301302D03*
D28*
X187427675Y-67801302D03*
X187427675Y-65001302D03*
%TD*%
D30*
%TO.C,JP4*%
X95114655Y-82219711D03*
X95114655Y-81320551D03*
%TD*%
%TO.C,JP3*%
X97400655Y-82219711D03*
X97400655Y-81320551D03*
%TD*%
%TO.C,JP2*%
X100067654Y-82219711D03*
X100067654Y-81320551D03*
%TD*%
%TO.C,JP1*%
X102607654Y-82219710D03*
X102607654Y-81320550D03*
%TD*%
D31*
%TO.C,J3*%
X95089254Y-85148330D03*
X97629254Y-85148330D03*
X100169254Y-85148330D03*
X102709254Y-85148330D03*
%TD*%
M02*
