%TF.GenerationSoftware,KiCad,Pcbnew,(5.1.7)-1*%
%TF.CreationDate,2021-04-13T00:10:30+05:30*%
%TF.ProjectId,Pteron56v0,50746572-6f6e-4353-9676-302e6b696361,rev?*%
%TF.SameCoordinates,Original*%
%TF.FileFunction,Profile,NP*%
%FSLAX46Y46*%
G04 Gerber Fmt 4.6, Leading zero omitted, Abs format (unit mm)*
G04 Created by KiCad (PCBNEW (5.1.7)-1) date 2021-04-13 00:10:30*
%MOMM*%
%LPD*%
G01*
G04 APERTURE LIST*
%TA.AperFunction,Profile*%
%ADD10C,0.050000*%
%TD*%
G04 APERTURE END LIST*
D10*
X71082345Y-130213421D02*
X83878669Y-144009293D01*
X83878669Y-144009292D02*
G75*
G02*
X85763282Y-142153111I60291731J-59330408D01*
G01*
X71082345Y-130213420D02*
G75*
G02*
X73826181Y-127569855I73062655J-73088180D01*
G01*
X169037000Y-17653000D02*
X169037000Y-20066000D01*
X134730000Y-118618000D02*
X134730000Y-117983000D01*
X85763281Y-142153110D02*
G75*
G02*
X133968001Y-119380001I58381719J-61173890D01*
G01*
X135492000Y-106299000D02*
X145542000Y-106299000D01*
X181610000Y-106299000D02*
X206375000Y-106299000D01*
X205613000Y-30353000D02*
X206375000Y-30353000D01*
X206375000Y-30353000D02*
G75*
G02*
X207137000Y-31115000I0J-762000D01*
G01*
X207137000Y-105537000D02*
G75*
G02*
X206375000Y-106299000I-762000J0D01*
G01*
X145542000Y-106299000D02*
X181610000Y-106299000D01*
X134730000Y-107061000D02*
X134730000Y-117983000D01*
X134730000Y-107061000D02*
G75*
G02*
X135492000Y-106299000I762000J0D01*
G01*
X134730000Y-118618000D02*
G75*
G02*
X133968000Y-119380000I-762000J0D01*
G01*
X207137000Y-105537000D02*
X207137000Y-31115000D01*
X100838000Y-101727000D02*
X100838000Y-109474000D01*
X73826180Y-127569854D02*
G75*
G02*
X100838001Y-109474001I70318820J-75757146D01*
G01*
X100838000Y-101092000D02*
X100838000Y-101727000D01*
X100838000Y-25400000D02*
X100838000Y-101092000D01*
X101600000Y-24638000D02*
X103251000Y-24638000D01*
X100838000Y-25400000D02*
G75*
G02*
X101600000Y-24638000I762000J0D01*
G01*
X130302000Y-24638000D02*
X103251000Y-24638000D01*
X150114000Y-21844000D02*
X150114000Y-17653000D01*
X131826000Y-22606000D02*
X149352000Y-22606000D01*
X131064000Y-23368000D02*
X131064000Y-23876000D01*
X131064000Y-23876000D02*
G75*
G02*
X130302000Y-24638000I-762000J0D01*
G01*
X131064000Y-23368000D02*
G75*
G02*
X131826000Y-22606000I762000J0D01*
G01*
X150114000Y-21844000D02*
G75*
G02*
X149352000Y-22606000I-762000J0D01*
G01*
X150114000Y-17653000D02*
G75*
G02*
X150876000Y-16891000I762000J0D01*
G01*
X168275000Y-16891000D02*
X150876000Y-16891000D01*
X168275000Y-16891000D02*
G75*
G02*
X169037000Y-17653000I0J-762000D01*
G01*
X169799000Y-20828000D02*
G75*
G02*
X169037000Y-20066000I0J762000D01*
G01*
X187198000Y-20828000D02*
X169799000Y-20828000D01*
X187198000Y-20828000D02*
G75*
G02*
X187960000Y-21590000I0J-762000D01*
G01*
X187960000Y-29591000D02*
X187960000Y-21590000D01*
X188722000Y-30353000D02*
X189357000Y-30353000D01*
X188722000Y-30353000D02*
G75*
G02*
X187960000Y-29591000I0J762000D01*
G01*
X205613000Y-30353000D02*
X189357000Y-30353000D01*
M02*
