M48
; DRILL file {KiCad (5.1.7)-1} date 07/06/21 19:24:24
; FORMAT={-:-/ absolute / metric / decimal}
; #@! TF.CreationDate,2021-07-06T19:24:24+05:30
; #@! TF.GenerationSoftware,Kicad,Pcbnew,(5.1.7)-1
; #@! TF.FileFunction,Plated,1,2,PTH
FMAT,2
METRIC
T1C0.400
T2C0.813
T3C0.900
T4C1.000
T5C1.100
T6C1.200
T7C1.500
%
G90
G05
T1
X83.748Y-63.953
X87.448Y-63.555
X92.583Y-85.09
X99.568Y-71.628
X100.203Y-75.184
X101.346Y-74.422
X102.108Y-73.66
X104.013Y-77.47
X110.236Y-100.19
X111.76Y-58.039
X112.268Y-52.832
X114.681Y-102.489
X114.681Y-105.283
X114.808Y-60.96
X119.113Y-103.467
X127.216Y-79.426
X127.94Y-80.848
X145.609Y-72.517
X148.387Y-93.193
X167.119Y-93.51
X186.723Y-85.311
X200.914Y-82.372
T2
X95.885Y-80.264
X98.425Y-80.264
X100.965Y-80.264
X103.505Y-80.264
T4
X113.964Y-110.492
X115.652Y-118.108
X131.008Y-90.038
X131.008Y-97.838
X149.987Y-48.424
X149.987Y-56.224
X188.223Y-57.617
X188.223Y-65.417
X91.731Y-107.95
X99.531Y-107.95
X118.122Y-61.138
X125.922Y-61.138
X150.192Y-84.166
X150.192Y-91.966
X170.053Y-48.932
X170.053Y-56.732
X88.011Y-96.266
X88.011Y-98.766
X88.011Y-101.266
X102.511Y-96.266
X102.511Y-101.266
X169.116Y-87.632
X169.116Y-95.432
X131.017Y-51.606
X131.017Y-59.406
X169.146Y-68.325
X169.146Y-76.125
X111.903Y-72.593
X111.903Y-80.393
X194.55Y-86.081
X202.35Y-86.081
X187.874Y-97.317
X187.874Y-105.117
X94.618Y-119.528
X97.914Y-126.598
X149.987Y-65.061
X149.987Y-72.861
X131.169Y-70.961
X131.169Y-78.761
X78.398Y-131.145
X83.146Y-137.333
X111.995Y-91.447
X111.995Y-99.247
T5
X92.024Y-45.225
X92.024Y-47.765
X92.024Y-50.305
X92.024Y-52.845
X92.024Y-55.385
X92.024Y-57.925
X92.024Y-60.465
X92.024Y-63.005
X92.024Y-65.545
X92.024Y-68.085
X92.024Y-70.625
X92.024Y-73.165
X107.264Y-45.225
X107.264Y-47.765
X107.264Y-50.305
X107.264Y-52.845
X107.264Y-55.385
X107.264Y-57.925
X107.264Y-60.465
X107.264Y-63.005
X107.264Y-65.545
X107.264Y-68.085
X107.264Y-70.625
X107.264Y-73.165
T6
X140.525Y-83.309
X83.483Y-124.267
X121.394Y-47.125
X121.438Y-66.16
X140.528Y-45.263
X159.546Y-39.489
X178.559Y-62.345
X122.632Y-105.978
X102.064Y-113.047
X197.637Y-71.921
X159.565Y-58.614
X121.457Y-85.285
X178.606Y-43.334
X197.593Y-52.886
X197.68Y-90.956
X140.481Y-64.274
X159.518Y-77.625
X178.578Y-81.47
T7
X137.985Y-84.129
X143.065Y-84.129
X144.335Y-86.669
X81.967Y-126.464
X85.997Y-123.371
X88.551Y-124.613
X118.854Y-47.945
X123.934Y-47.945
X125.204Y-50.485
X118.898Y-66.98
X123.978Y-66.98
X125.248Y-69.52
X137.988Y-46.083
X143.068Y-46.083
X144.338Y-48.623
X157.006Y-40.309
X162.086Y-40.309
X163.356Y-42.849
X176.019Y-63.165
X181.099Y-63.165
X182.369Y-65.705
X120.329Y-107.329
X125.289Y-106.229
X127.079Y-108.434
X100.109Y-114.864
X104.713Y-112.717
X106.937Y-114.482
X195.097Y-72.741
X200.177Y-72.741
X201.447Y-75.281
X157.025Y-59.434
X162.105Y-59.434
X163.375Y-61.974
X118.917Y-86.105
X123.997Y-86.105
X125.267Y-88.645
X176.066Y-44.154
X181.146Y-44.154
X182.416Y-46.694
X195.053Y-53.706
X200.133Y-53.706
X201.403Y-56.246
X195.14Y-91.776
X200.22Y-91.776
X201.49Y-94.316
X137.941Y-65.094
X143.021Y-65.094
X144.291Y-67.634
X156.978Y-78.445
X162.058Y-78.445
X163.328Y-80.985
X176.038Y-82.29
X181.118Y-82.29
X182.388Y-84.83
T3
G00X83.171Y-47.505
M15
G01X83.171Y-47.105
M16
G05
G00X83.171Y-50.505
M15
G01X83.171Y-50.105
M16
G05
G00X83.171Y-54.505
M15
G01X83.171Y-54.105
M16
G05
G00X87.771Y-55.605
M15
G01X87.771Y-55.205
M16
G05
G00X83.171Y-55.169
M15
G01X83.171Y-55.569
M16
G05
G00X87.771Y-47.069
M15
G01X87.771Y-47.469
M16
G05
G00X87.771Y-50.069
M15
G01X87.771Y-50.469
M16
G05
G00X87.771Y-54.069
M15
G01X87.771Y-54.469
M16
G05
T6
G00X135.425Y-85.309
M15
G01X135.425Y-85.309
M16
G05
G00X145.625Y-85.309
M15
G01X145.625Y-85.309
M16
G05
G00X80.654Y-128.958
M15
G01X80.654Y-128.958
M16
G05
G00X88.746Y-122.749
M15
G01X88.746Y-122.749
M16
G05
G00X116.294Y-49.125
M15
G01X116.294Y-49.125
M16
G05
G00X126.494Y-49.125
M15
G01X126.494Y-49.125
M16
G05
G00X116.338Y-68.16
M15
G01X116.338Y-68.16
M16
G05
G00X126.538Y-68.16
M15
G01X126.538Y-68.16
M16
G05
G00X135.428Y-47.263
M15
G01X135.428Y-47.263
M16
G05
G00X145.628Y-47.263
M15
G01X145.628Y-47.263
M16
G05
G00X154.446Y-41.489
M15
G01X154.446Y-41.489
M16
G05
G00X164.646Y-41.489
M15
G01X164.646Y-41.489
M16
G05
G00X173.459Y-64.345
M15
G01X173.459Y-64.345
M16
G05
G00X183.659Y-64.345
M15
G01X183.659Y-64.345
M16
G05
G00X118.085Y-109.035
M15
G01X118.085Y-109.035
M16
G05
G00X128.044Y-106.827
M15
G01X128.044Y-106.827
M16
G05
G00X98.287Y-117.015
M15
G01X98.287Y-117.015
M16
G05
G00X107.532Y-112.705
M15
G01X107.532Y-112.705
M16
G05
G00X192.537Y-73.921
M15
G01X192.537Y-73.921
M16
G05
G00X202.737Y-73.921
M15
G01X202.737Y-73.921
M16
G05
G00X154.465Y-60.614
M15
G01X154.465Y-60.614
M16
G05
G00X164.665Y-60.614
M15
G01X164.665Y-60.614
M16
G05
G00X116.357Y-87.285
M15
G01X116.357Y-87.285
M16
G05
G00X126.557Y-87.285
M15
G01X126.557Y-87.285
M16
G05
G00X173.506Y-45.334
M15
G01X173.506Y-45.334
M16
G05
G00X183.706Y-45.334
M15
G01X183.706Y-45.334
M16
G05
G00X192.493Y-54.886
M15
G01X192.493Y-54.886
M16
G05
G00X202.693Y-54.886
M15
G01X202.693Y-54.886
M16
G05
G00X192.58Y-92.956
M15
G01X192.58Y-92.956
M16
G05
G00X202.78Y-92.956
M15
G01X202.78Y-92.956
M16
G05
G00X135.381Y-66.274
M15
G01X135.381Y-66.274
M16
G05
G00X145.581Y-66.274
M15
G01X145.581Y-66.274
M16
G05
G00X154.418Y-79.625
M15
G01X154.418Y-79.625
M16
G05
G00X164.618Y-79.625
M15
G01X164.618Y-79.625
M16
G05
G00X173.478Y-83.47
M15
G01X173.478Y-83.47
M16
G05
G00X183.678Y-83.47
M15
G01X183.678Y-83.47
M16
G05
T7
G00X136.715Y-86.669
M15
G01X136.715Y-86.669
M16
G05
G00X82.506Y-129.252
M15
G01X82.506Y-129.252
M16
G05
G00X117.584Y-50.485
M15
G01X117.584Y-50.485
M16
G05
G00X117.628Y-69.52
M15
G01X117.628Y-69.52
M16
G05
G00X136.718Y-48.623
M15
G01X136.718Y-48.623
M16
G05
G00X155.736Y-42.849
M15
G01X155.736Y-42.849
M16
G05
G00X174.749Y-65.705
M15
G01X174.749Y-65.705
M16
G05
G00X119.639Y-110.083
M15
G01X119.639Y-110.083
M16
G05
G00X100.031Y-117.703
M15
G01X100.031Y-117.703
M16
G05
G00X193.827Y-75.281
M15
G01X193.827Y-75.281
M16
G05
G00X155.755Y-61.974
M15
G01X155.755Y-61.974
M16
G05
G00X117.647Y-88.645
M15
G01X117.647Y-88.645
M16
G05
G00X174.796Y-46.694
M15
G01X174.796Y-46.694
M16
G05
G00X193.783Y-56.246
M15
G01X193.783Y-56.246
M16
G05
G00X193.87Y-94.316
M15
G01X193.87Y-94.316
M16
G05
G00X136.671Y-67.634
M15
G01X136.671Y-67.634
M16
G05
G00X94.861Y-93.166
M15
G01X96.161Y-93.166
M16
G05
G00X94.861Y-104.366
M15
G01X96.161Y-104.366
M16
G05
G00X155.708Y-80.985
M15
G01X155.708Y-80.985
M16
G05
G00X174.768Y-84.83
M15
G01X174.768Y-84.83
M16
G05
T0
M30
