%TF.GenerationSoftware,KiCad,Pcbnew,(5.1.7)-1*%
%TF.CreationDate,2021-04-13T00:10:30+05:30*%
%TF.ProjectId,Pteron56v0,50746572-6f6e-4353-9676-302e6b696361,rev?*%
%TF.SameCoordinates,Original*%
%TF.FileFunction,Soldermask,Top*%
%TF.FilePolarity,Negative*%
%FSLAX46Y46*%
G04 Gerber Fmt 4.6, Leading zero omitted, Abs format (unit mm)*
G04 Created by KiCad (PCBNEW (5.1.7)-1) date 2021-04-13 00:10:30*
%MOMM*%
%LPD*%
G01*
G04 APERTURE LIST*
%ADD10R,1.600000X1.600000*%
%ADD11C,1.600000*%
%ADD12R,1.200000X1.600000*%
%ADD13C,0.100000*%
%ADD14R,1.600000X1.200000*%
%ADD15C,3.200000*%
%ADD16C,2.000000*%
%ADD17C,1.500000*%
%ADD18R,2.500000X1.200000*%
G04 APERTURE END LIST*
D10*
%TO.C,D28*%
X111995245Y-91446640D03*
D11*
X111995245Y-99246640D03*
D12*
X111995245Y-96746640D03*
X111995245Y-93946640D03*
%TD*%
D10*
%TO.C,D27*%
X111903079Y-72592861D03*
D11*
X111903079Y-80392861D03*
D12*
X111903079Y-77892861D03*
X111903079Y-75092861D03*
%TD*%
D10*
%TO.C,D26*%
X111859426Y-53557964D03*
D11*
X111859426Y-61357964D03*
D12*
X111859426Y-58857964D03*
X111859426Y-56057964D03*
%TD*%
D10*
%TO.C,D25*%
X112087456Y-34595865D03*
D11*
X112087456Y-42395865D03*
D12*
X112087456Y-39895865D03*
X112087456Y-37095865D03*
%TD*%
D10*
%TO.C,D24*%
X131007609Y-90038162D03*
D11*
X131007609Y-97838162D03*
D12*
X131007609Y-95338162D03*
X131007609Y-92538162D03*
%TD*%
D10*
%TO.C,D23*%
X131169349Y-70961240D03*
D11*
X131169349Y-78761240D03*
D12*
X131169349Y-76261240D03*
X131169349Y-73461240D03*
%TD*%
D10*
%TO.C,D22*%
X131017392Y-51606155D03*
D11*
X131017392Y-59406155D03*
D12*
X131017392Y-56906155D03*
X131017392Y-54106155D03*
%TD*%
D10*
%TO.C,D21*%
X131057795Y-32982007D03*
D11*
X131057795Y-40782007D03*
D12*
X131057795Y-38282007D03*
X131057795Y-35482007D03*
%TD*%
D13*
%TO.C,D20*%
G36*
X88882216Y-136380478D02*
G01*
X89856234Y-137649844D01*
X88586868Y-138623862D01*
X87612850Y-137354496D01*
X88882216Y-136380478D01*
G37*
D11*
X94922698Y-132753830D03*
D13*
G36*
X90987351Y-135017245D02*
G01*
X91717865Y-135969269D01*
X90448499Y-136943287D01*
X89717985Y-135991263D01*
X90987351Y-135017245D01*
G37*
G36*
X93208741Y-133312713D02*
G01*
X93939255Y-134264737D01*
X92669889Y-135238755D01*
X91939375Y-134286731D01*
X93208741Y-133312713D01*
G37*
%TD*%
D10*
%TO.C,D19*%
X150192403Y-84165988D03*
D11*
X150192403Y-91965988D03*
D12*
X150192403Y-89465988D03*
X150192403Y-86665988D03*
%TD*%
D10*
%TO.C,D18*%
X150286156Y-65322239D03*
D11*
X150286156Y-73122239D03*
D12*
X150286156Y-70622239D03*
X150286156Y-67822239D03*
%TD*%
D10*
%TO.C,D17*%
X156437500Y-53181250D03*
D11*
X164237500Y-53181250D03*
D14*
X161737500Y-53181250D03*
X158937500Y-53181250D03*
%TD*%
D10*
%TO.C,D16*%
X155643750Y-34131250D03*
D11*
X163443750Y-34131250D03*
D14*
X160943750Y-34131250D03*
X158143750Y-34131250D03*
%TD*%
D13*
%TO.C,D15*%
G36*
X105038572Y-125934070D02*
G01*
X105714761Y-127384163D01*
X104264668Y-128060352D01*
X103588479Y-126610259D01*
X105038572Y-125934070D01*
G37*
D11*
X111720820Y-123700789D03*
D13*
G36*
X107388864Y-125058787D02*
G01*
X107896006Y-126146356D01*
X106445914Y-126822545D01*
X105938772Y-125734976D01*
X107388864Y-125058787D01*
G37*
G36*
X109926526Y-123875455D02*
G01*
X110433668Y-124963024D01*
X108983576Y-125639213D01*
X108476434Y-124551644D01*
X109926526Y-123875455D01*
G37*
%TD*%
D10*
%TO.C,D14*%
X169116409Y-87631959D03*
D11*
X169116409Y-95431959D03*
D12*
X169116409Y-92931959D03*
X169116409Y-90131959D03*
%TD*%
D10*
%TO.C,D13*%
X169145564Y-68325398D03*
D11*
X169145564Y-76125398D03*
D12*
X169145564Y-73625398D03*
X169145564Y-70825398D03*
%TD*%
D10*
%TO.C,D12*%
X175487500Y-57150000D03*
D11*
X183287500Y-57150000D03*
D14*
X180787500Y-57150000D03*
X177987500Y-57150000D03*
%TD*%
D10*
%TO.C,D11*%
X174693750Y-37306250D03*
D11*
X182493750Y-37306250D03*
D14*
X179993750Y-37306250D03*
X177193750Y-37306250D03*
%TD*%
D13*
%TO.C,D10*%
G36*
X123183111Y-119343586D02*
G01*
X123529414Y-120905659D01*
X121967341Y-121251962D01*
X121621038Y-119689889D01*
X123183111Y-119343586D01*
G37*
D11*
X130190334Y-118609546D03*
D13*
G36*
X125667139Y-118997746D02*
G01*
X125926867Y-120169301D01*
X124364793Y-120515604D01*
X124105065Y-119344049D01*
X125667139Y-118997746D01*
G37*
G36*
X128400767Y-118391716D02*
G01*
X128660495Y-119563271D01*
X127098421Y-119909574D01*
X126838693Y-118738019D01*
X128400767Y-118391716D01*
G37*
%TD*%
D10*
%TO.C,D9*%
X187873952Y-97316766D03*
D11*
X187873952Y-105116766D03*
D12*
X187873952Y-102616766D03*
X187873952Y-99816766D03*
%TD*%
D10*
%TO.C,D8*%
X188199026Y-77992443D03*
D11*
X188199026Y-85792443D03*
D12*
X188199026Y-83292443D03*
X188199026Y-80492443D03*
%TD*%
D10*
%TO.C,D7*%
X188223421Y-57616973D03*
D11*
X188223421Y-65416973D03*
D12*
X188223421Y-62916973D03*
X188223421Y-60116973D03*
%TD*%
D10*
%TO.C,D6*%
X194604000Y-47879000D03*
D11*
X202404000Y-47879000D03*
D14*
X199904000Y-47879000D03*
X197104000Y-47879000D03*
%TD*%
D11*
%TO.C,U1*%
X167163750Y-18573750D03*
X167163750Y-21113750D03*
X167163750Y-23653750D03*
X167163750Y-26193750D03*
X167163750Y-28733750D03*
X167163750Y-31273750D03*
X167163750Y-33813750D03*
X167163750Y-36353750D03*
X167163750Y-38893750D03*
X167163750Y-41433750D03*
X167163750Y-43973750D03*
X167163750Y-46513750D03*
X151923750Y-46513750D03*
X151923750Y-43973750D03*
X151923750Y-41433750D03*
X151923750Y-38893750D03*
X151923750Y-36353750D03*
X151923750Y-33813750D03*
X151923750Y-31273750D03*
X151923750Y-28733750D03*
X151923750Y-26193750D03*
X151923750Y-23653750D03*
X151923750Y-21113750D03*
D10*
X151923750Y-18573750D03*
%TD*%
D15*
%TO.C,H7*%
X106006900Y-103009700D03*
%TD*%
%TO.C,H6*%
X79248000Y-134874000D03*
%TD*%
%TO.C,H5*%
X141224000Y-100711000D03*
%TD*%
%TO.C,H4*%
X104394000Y-43180000D03*
%TD*%
%TO.C,H3*%
X150368000Y-54864000D03*
%TD*%
%TO.C,H2*%
X181610000Y-102743000D03*
%TD*%
%TO.C,H1*%
X188087000Y-49276000D03*
%TD*%
%TO.C,SW17*%
G36*
G01*
X162975918Y-40553992D02*
X164285908Y-42014000D01*
G75*
G02*
X164190310Y-43779180I-930389J-834791D01*
G01*
X164190310Y-43779180D01*
G75*
G02*
X162425130Y-43683582I-834791J930389D01*
G01*
X161115140Y-42223574D01*
G75*
G02*
X161210738Y-40458394I930389J834791D01*
G01*
X161210738Y-40458394D01*
G75*
G02*
X162975918Y-40553992I834791J-930389D01*
G01*
G37*
G36*
G01*
X155798568Y-40975983D02*
X155758487Y-40394786D01*
G75*
G02*
X156919526Y-39061749I1247038J85999D01*
G01*
X156919526Y-39061749D01*
G75*
G02*
X158252563Y-40222788I85999J-1247038D01*
G01*
X158292561Y-40802788D01*
G75*
G02*
X157131522Y-42135825I-1247038J-85999D01*
G01*
X157131522Y-42135825D01*
G75*
G02*
X155798485Y-40974786I-85999J1247038D01*
G01*
G37*
G36*
G01*
X157975908Y-42223574D02*
X156665918Y-43683582D01*
G75*
G02*
X154900738Y-43779180I-930389J834791D01*
G01*
X154900738Y-43779180D01*
G75*
G02*
X154805140Y-42014000I834791J930389D01*
G01*
X156115130Y-40553992D01*
G75*
G02*
X157880310Y-40458394I930389J-834791D01*
G01*
X157880310Y-40458394D01*
G75*
G02*
X157975908Y-42223574I-834791J-930389D01*
G01*
G37*
D16*
X157005524Y-40308787D03*
X157045524Y-40888787D03*
X163355524Y-42848787D03*
X162045524Y-41388787D03*
X155735524Y-42848787D03*
X157045524Y-41388787D03*
X162085524Y-40308787D03*
X162045524Y-40888787D03*
G36*
G01*
X160798570Y-40801591D02*
X160838485Y-40222788D01*
G75*
G02*
X162171522Y-39061749I1247038J-85999D01*
G01*
X162171522Y-39061749D01*
G75*
G02*
X163332561Y-40394786I-85999J-1247038D01*
G01*
X163292563Y-40974786D01*
G75*
G02*
X161959526Y-42135825I-1247038J85999D01*
G01*
X161959526Y-42135825D01*
G75*
G02*
X160798487Y-40802788I85999J1247038D01*
G01*
G37*
%TD*%
D17*
%TO.C,J2*%
X105949750Y-33435250D03*
X105949750Y-26435250D03*
%TD*%
%TO.C,J1*%
X105949750Y-33435250D03*
X105949750Y-26435250D03*
D18*
X109199750Y-28035250D03*
X109199750Y-31035250D03*
X109199750Y-35035250D03*
X102699750Y-36135250D03*
%TD*%
%TO.C,SW28*%
G36*
G01*
X124887648Y-86350240D02*
X126197638Y-87810248D01*
G75*
G02*
X126102040Y-89575428I-930389J-834791D01*
G01*
X126102040Y-89575428D01*
G75*
G02*
X124336860Y-89479830I-834791J930389D01*
G01*
X123026870Y-88019822D01*
G75*
G02*
X123122468Y-86254642I930389J834791D01*
G01*
X123122468Y-86254642D01*
G75*
G02*
X124887648Y-86350240I834791J-930389D01*
G01*
G37*
G36*
G01*
X117710298Y-86772231D02*
X117670217Y-86191034D01*
G75*
G02*
X118831256Y-84857997I1247038J85999D01*
G01*
X118831256Y-84857997D01*
G75*
G02*
X120164293Y-86019036I85999J-1247038D01*
G01*
X120204291Y-86599036D01*
G75*
G02*
X119043252Y-87932073I-1247038J-85999D01*
G01*
X119043252Y-87932073D01*
G75*
G02*
X117710215Y-86771034I-85999J1247038D01*
G01*
G37*
G36*
G01*
X119887638Y-88019822D02*
X118577648Y-89479830D01*
G75*
G02*
X116812468Y-89575428I-930389J834791D01*
G01*
X116812468Y-89575428D01*
G75*
G02*
X116716870Y-87810248I834791J930389D01*
G01*
X118026860Y-86350240D01*
G75*
G02*
X119792040Y-86254642I930389J-834791D01*
G01*
X119792040Y-86254642D01*
G75*
G02*
X119887638Y-88019822I-834791J-930389D01*
G01*
G37*
D16*
X118917254Y-86105035D03*
X118957254Y-86685035D03*
X125267254Y-88645035D03*
X123957254Y-87185035D03*
X117647254Y-88645035D03*
X118957254Y-87185035D03*
X123997254Y-86105035D03*
X123957254Y-86685035D03*
G36*
G01*
X122710300Y-86597839D02*
X122750215Y-86019036D01*
G75*
G02*
X124083252Y-84857997I1247038J-85999D01*
G01*
X124083252Y-84857997D01*
G75*
G02*
X125244291Y-86191034I-85999J-1247038D01*
G01*
X125204293Y-86771034D01*
G75*
G02*
X123871256Y-87932073I-1247038J85999D01*
G01*
X123871256Y-87932073D01*
G75*
G02*
X122710217Y-86599036I85999J1247038D01*
G01*
G37*
%TD*%
%TO.C,SW27*%
G36*
G01*
X124868269Y-67224790D02*
X126178259Y-68684798D01*
G75*
G02*
X126082661Y-70449978I-930389J-834791D01*
G01*
X126082661Y-70449978D01*
G75*
G02*
X124317481Y-70354380I-834791J930389D01*
G01*
X123007491Y-68894372D01*
G75*
G02*
X123103089Y-67129192I930389J834791D01*
G01*
X123103089Y-67129192D01*
G75*
G02*
X124868269Y-67224790I834791J-930389D01*
G01*
G37*
G36*
G01*
X117690919Y-67646781D02*
X117650838Y-67065584D01*
G75*
G02*
X118811877Y-65732547I1247038J85999D01*
G01*
X118811877Y-65732547D01*
G75*
G02*
X120144914Y-66893586I85999J-1247038D01*
G01*
X120184912Y-67473586D01*
G75*
G02*
X119023873Y-68806623I-1247038J-85999D01*
G01*
X119023873Y-68806623D01*
G75*
G02*
X117690836Y-67645584I-85999J1247038D01*
G01*
G37*
G36*
G01*
X119868259Y-68894372D02*
X118558269Y-70354380D01*
G75*
G02*
X116793089Y-70449978I-930389J834791D01*
G01*
X116793089Y-70449978D01*
G75*
G02*
X116697491Y-68684798I834791J930389D01*
G01*
X118007481Y-67224790D01*
G75*
G02*
X119772661Y-67129192I930389J-834791D01*
G01*
X119772661Y-67129192D01*
G75*
G02*
X119868259Y-68894372I-834791J-930389D01*
G01*
G37*
X118897875Y-66979585D03*
X118937875Y-67559585D03*
X125247875Y-69519585D03*
X123937875Y-68059585D03*
X117627875Y-69519585D03*
X118937875Y-68059585D03*
X123977875Y-66979585D03*
X123937875Y-67559585D03*
G36*
G01*
X122690921Y-67472389D02*
X122730836Y-66893586D01*
G75*
G02*
X124063873Y-65732547I1247038J-85999D01*
G01*
X124063873Y-65732547D01*
G75*
G02*
X125224912Y-67065584I-85999J-1247038D01*
G01*
X125184914Y-67645584D01*
G75*
G02*
X123851877Y-68806623I-1247038J85999D01*
G01*
X123851877Y-68806623D01*
G75*
G02*
X122690838Y-67473586I85999J1247038D01*
G01*
G37*
%TD*%
%TO.C,SW26*%
G36*
G01*
X124824626Y-48189895D02*
X126134616Y-49649903D01*
G75*
G02*
X126039018Y-51415083I-930389J-834791D01*
G01*
X126039018Y-51415083D01*
G75*
G02*
X124273838Y-51319485I-834791J930389D01*
G01*
X122963848Y-49859477D01*
G75*
G02*
X123059446Y-48094297I930389J834791D01*
G01*
X123059446Y-48094297D01*
G75*
G02*
X124824626Y-48189895I834791J-930389D01*
G01*
G37*
G36*
G01*
X117647276Y-48611886D02*
X117607195Y-48030689D01*
G75*
G02*
X118768234Y-46697652I1247038J85999D01*
G01*
X118768234Y-46697652D01*
G75*
G02*
X120101271Y-47858691I85999J-1247038D01*
G01*
X120141269Y-48438691D01*
G75*
G02*
X118980230Y-49771728I-1247038J-85999D01*
G01*
X118980230Y-49771728D01*
G75*
G02*
X117647193Y-48610689I-85999J1247038D01*
G01*
G37*
G36*
G01*
X119824616Y-49859477D02*
X118514626Y-51319485D01*
G75*
G02*
X116749446Y-51415083I-930389J834791D01*
G01*
X116749446Y-51415083D01*
G75*
G02*
X116653848Y-49649903I834791J930389D01*
G01*
X117963838Y-48189895D01*
G75*
G02*
X119729018Y-48094297I930389J-834791D01*
G01*
X119729018Y-48094297D01*
G75*
G02*
X119824616Y-49859477I-834791J-930389D01*
G01*
G37*
X118854232Y-47944690D03*
X118894232Y-48524690D03*
X125204232Y-50484690D03*
X123894232Y-49024690D03*
X117584232Y-50484690D03*
X118894232Y-49024690D03*
X123934232Y-47944690D03*
X123894232Y-48524690D03*
G36*
G01*
X122647278Y-48437494D02*
X122687193Y-47858691D01*
G75*
G02*
X124020230Y-46697652I1247038J-85999D01*
G01*
X124020230Y-46697652D01*
G75*
G02*
X125181269Y-48030689I-85999J-1247038D01*
G01*
X125141271Y-48610689D01*
G75*
G02*
X123808234Y-49771728I-1247038J85999D01*
G01*
X123808234Y-49771728D01*
G75*
G02*
X122647195Y-48438691I85999J1247038D01*
G01*
G37*
%TD*%
%TO.C,SW25*%
G36*
G01*
X124871536Y-29179267D02*
X126181526Y-30639275D01*
G75*
G02*
X126085928Y-32404455I-930389J-834791D01*
G01*
X126085928Y-32404455D01*
G75*
G02*
X124320748Y-32308857I-834791J930389D01*
G01*
X123010758Y-30848849D01*
G75*
G02*
X123106356Y-29083669I930389J834791D01*
G01*
X123106356Y-29083669D01*
G75*
G02*
X124871536Y-29179267I834791J-930389D01*
G01*
G37*
G36*
G01*
X117694186Y-29601258D02*
X117654105Y-29020061D01*
G75*
G02*
X118815144Y-27687024I1247038J85999D01*
G01*
X118815144Y-27687024D01*
G75*
G02*
X120148181Y-28848063I85999J-1247038D01*
G01*
X120188179Y-29428063D01*
G75*
G02*
X119027140Y-30761100I-1247038J-85999D01*
G01*
X119027140Y-30761100D01*
G75*
G02*
X117694103Y-29600061I-85999J1247038D01*
G01*
G37*
G36*
G01*
X119871526Y-30848849D02*
X118561536Y-32308857D01*
G75*
G02*
X116796356Y-32404455I-930389J834791D01*
G01*
X116796356Y-32404455D01*
G75*
G02*
X116700758Y-30639275I834791J930389D01*
G01*
X118010748Y-29179267D01*
G75*
G02*
X119775928Y-29083669I930389J-834791D01*
G01*
X119775928Y-29083669D01*
G75*
G02*
X119871526Y-30848849I-834791J-930389D01*
G01*
G37*
X118901142Y-28934062D03*
X118941142Y-29514062D03*
X125251142Y-31474062D03*
X123941142Y-30014062D03*
X117631142Y-31474062D03*
X118941142Y-30014062D03*
X123981142Y-28934062D03*
X123941142Y-29514062D03*
G36*
G01*
X122694188Y-29426866D02*
X122734103Y-28848063D01*
G75*
G02*
X124067140Y-27687024I1247038J-85999D01*
G01*
X124067140Y-27687024D01*
G75*
G02*
X125228179Y-29020061I-85999J-1247038D01*
G01*
X125188181Y-29600061D01*
G75*
G02*
X123855144Y-30761100I-1247038J85999D01*
G01*
X123855144Y-30761100D01*
G75*
G02*
X122694105Y-29428063I85999J1247038D01*
G01*
G37*
%TD*%
%TO.C,SW24*%
G36*
G01*
X143955053Y-84374165D02*
X145265043Y-85834173D01*
G75*
G02*
X145169445Y-87599353I-930389J-834791D01*
G01*
X145169445Y-87599353D01*
G75*
G02*
X143404265Y-87503755I-834791J930389D01*
G01*
X142094275Y-86043747D01*
G75*
G02*
X142189873Y-84278567I930389J834791D01*
G01*
X142189873Y-84278567D01*
G75*
G02*
X143955053Y-84374165I834791J-930389D01*
G01*
G37*
G36*
G01*
X136777703Y-84796156D02*
X136737622Y-84214959D01*
G75*
G02*
X137898661Y-82881922I1247038J85999D01*
G01*
X137898661Y-82881922D01*
G75*
G02*
X139231698Y-84042961I85999J-1247038D01*
G01*
X139271696Y-84622961D01*
G75*
G02*
X138110657Y-85955998I-1247038J-85999D01*
G01*
X138110657Y-85955998D01*
G75*
G02*
X136777620Y-84794959I-85999J1247038D01*
G01*
G37*
G36*
G01*
X138955043Y-86043747D02*
X137645053Y-87503755D01*
G75*
G02*
X135879873Y-87599353I-930389J834791D01*
G01*
X135879873Y-87599353D01*
G75*
G02*
X135784275Y-85834173I834791J930389D01*
G01*
X137094265Y-84374165D01*
G75*
G02*
X138859445Y-84278567I930389J-834791D01*
G01*
X138859445Y-84278567D01*
G75*
G02*
X138955043Y-86043747I-834791J-930389D01*
G01*
G37*
X137984659Y-84128960D03*
X138024659Y-84708960D03*
X144334659Y-86668960D03*
X143024659Y-85208960D03*
X136714659Y-86668960D03*
X138024659Y-85208960D03*
X143064659Y-84128960D03*
X143024659Y-84708960D03*
G36*
G01*
X141777705Y-84621764D02*
X141817620Y-84042961D01*
G75*
G02*
X143150657Y-82881922I1247038J-85999D01*
G01*
X143150657Y-82881922D01*
G75*
G02*
X144311696Y-84214959I-85999J-1247038D01*
G01*
X144271698Y-84794959D01*
G75*
G02*
X142938661Y-85955998I-1247038J85999D01*
G01*
X142938661Y-85955998D01*
G75*
G02*
X141777622Y-84622961I85999J1247038D01*
G01*
G37*
%TD*%
%TO.C,SW23*%
G36*
G01*
X143911409Y-65339269D02*
X145221399Y-66799277D01*
G75*
G02*
X145125801Y-68564457I-930389J-834791D01*
G01*
X145125801Y-68564457D01*
G75*
G02*
X143360621Y-68468859I-834791J930389D01*
G01*
X142050631Y-67008851D01*
G75*
G02*
X142146229Y-65243671I930389J834791D01*
G01*
X142146229Y-65243671D01*
G75*
G02*
X143911409Y-65339269I834791J-930389D01*
G01*
G37*
G36*
G01*
X136734059Y-65761260D02*
X136693978Y-65180063D01*
G75*
G02*
X137855017Y-63847026I1247038J85999D01*
G01*
X137855017Y-63847026D01*
G75*
G02*
X139188054Y-65008065I85999J-1247038D01*
G01*
X139228052Y-65588065D01*
G75*
G02*
X138067013Y-66921102I-1247038J-85999D01*
G01*
X138067013Y-66921102D01*
G75*
G02*
X136733976Y-65760063I-85999J1247038D01*
G01*
G37*
G36*
G01*
X138911399Y-67008851D02*
X137601409Y-68468859D01*
G75*
G02*
X135836229Y-68564457I-930389J834791D01*
G01*
X135836229Y-68564457D01*
G75*
G02*
X135740631Y-66799277I834791J930389D01*
G01*
X137050621Y-65339269D01*
G75*
G02*
X138815801Y-65243671I930389J-834791D01*
G01*
X138815801Y-65243671D01*
G75*
G02*
X138911399Y-67008851I-834791J-930389D01*
G01*
G37*
X137941015Y-65094064D03*
X137981015Y-65674064D03*
X144291015Y-67634064D03*
X142981015Y-66174064D03*
X136671015Y-67634064D03*
X137981015Y-66174064D03*
X143021015Y-65094064D03*
X142981015Y-65674064D03*
G36*
G01*
X141734061Y-65586868D02*
X141773976Y-65008065D01*
G75*
G02*
X143107013Y-63847026I1247038J-85999D01*
G01*
X143107013Y-63847026D01*
G75*
G02*
X144268052Y-65180063I-85999J-1247038D01*
G01*
X144228054Y-65760063D01*
G75*
G02*
X142895017Y-66921102I-1247038J85999D01*
G01*
X142895017Y-66921102D01*
G75*
G02*
X141733978Y-65588065I85999J1247038D01*
G01*
G37*
%TD*%
%TO.C,SW22*%
G36*
G01*
X143958320Y-46328643D02*
X145268310Y-47788651D01*
G75*
G02*
X145172712Y-49553831I-930389J-834791D01*
G01*
X145172712Y-49553831D01*
G75*
G02*
X143407532Y-49458233I-834791J930389D01*
G01*
X142097542Y-47998225D01*
G75*
G02*
X142193140Y-46233045I930389J834791D01*
G01*
X142193140Y-46233045D01*
G75*
G02*
X143958320Y-46328643I834791J-930389D01*
G01*
G37*
G36*
G01*
X136780970Y-46750634D02*
X136740889Y-46169437D01*
G75*
G02*
X137901928Y-44836400I1247038J85999D01*
G01*
X137901928Y-44836400D01*
G75*
G02*
X139234965Y-45997439I85999J-1247038D01*
G01*
X139274963Y-46577439D01*
G75*
G02*
X138113924Y-47910476I-1247038J-85999D01*
G01*
X138113924Y-47910476D01*
G75*
G02*
X136780887Y-46749437I-85999J1247038D01*
G01*
G37*
G36*
G01*
X138958310Y-47998225D02*
X137648320Y-49458233D01*
G75*
G02*
X135883140Y-49553831I-930389J834791D01*
G01*
X135883140Y-49553831D01*
G75*
G02*
X135787542Y-47788651I834791J930389D01*
G01*
X137097532Y-46328643D01*
G75*
G02*
X138862712Y-46233045I930389J-834791D01*
G01*
X138862712Y-46233045D01*
G75*
G02*
X138958310Y-47998225I-834791J-930389D01*
G01*
G37*
X137987926Y-46083438D03*
X138027926Y-46663438D03*
X144337926Y-48623438D03*
X143027926Y-47163438D03*
X136717926Y-48623438D03*
X138027926Y-47163438D03*
X143067926Y-46083438D03*
X143027926Y-46663438D03*
G36*
G01*
X141780972Y-46576242D02*
X141820887Y-45997439D01*
G75*
G02*
X143153924Y-44836400I1247038J-85999D01*
G01*
X143153924Y-44836400D01*
G75*
G02*
X144314963Y-46169437I-85999J-1247038D01*
G01*
X144274965Y-46749437D01*
G75*
G02*
X142941928Y-47910476I-1247038J85999D01*
G01*
X142941928Y-47910476D01*
G75*
G02*
X141780889Y-46577439I85999J1247038D01*
G01*
G37*
%TD*%
%TO.C,SW21*%
G36*
G01*
X143938944Y-27203190D02*
X145248934Y-28663198D01*
G75*
G02*
X145153336Y-30428378I-930389J-834791D01*
G01*
X145153336Y-30428378D01*
G75*
G02*
X143388156Y-30332780I-834791J930389D01*
G01*
X142078166Y-28872772D01*
G75*
G02*
X142173764Y-27107592I930389J834791D01*
G01*
X142173764Y-27107592D01*
G75*
G02*
X143938944Y-27203190I834791J-930389D01*
G01*
G37*
G36*
G01*
X136761594Y-27625181D02*
X136721513Y-27043984D01*
G75*
G02*
X137882552Y-25710947I1247038J85999D01*
G01*
X137882552Y-25710947D01*
G75*
G02*
X139215589Y-26871986I85999J-1247038D01*
G01*
X139255587Y-27451986D01*
G75*
G02*
X138094548Y-28785023I-1247038J-85999D01*
G01*
X138094548Y-28785023D01*
G75*
G02*
X136761511Y-27623984I-85999J1247038D01*
G01*
G37*
G36*
G01*
X138938934Y-28872772D02*
X137628944Y-30332780D01*
G75*
G02*
X135863764Y-30428378I-930389J834791D01*
G01*
X135863764Y-30428378D01*
G75*
G02*
X135768166Y-28663198I834791J930389D01*
G01*
X137078156Y-27203190D01*
G75*
G02*
X138843336Y-27107592I930389J-834791D01*
G01*
X138843336Y-27107592D01*
G75*
G02*
X138938934Y-28872772I-834791J-930389D01*
G01*
G37*
X137968550Y-26957985D03*
X138008550Y-27537985D03*
X144318550Y-29497985D03*
X143008550Y-28037985D03*
X136698550Y-29497985D03*
X138008550Y-28037985D03*
X143048550Y-26957985D03*
X143008550Y-27537985D03*
G36*
G01*
X141761596Y-27450789D02*
X141801511Y-26871986D01*
G75*
G02*
X143134548Y-25710947I1247038J-85999D01*
G01*
X143134548Y-25710947D01*
G75*
G02*
X144295587Y-27043984I-85999J-1247038D01*
G01*
X144255589Y-27623984D01*
G75*
G02*
X142922552Y-28785023I-1247038J85999D01*
G01*
X142922552Y-28785023D01*
G75*
G02*
X141761513Y-27451986I85999J1247038D01*
G01*
G37*
%TD*%
%TO.C,SW20*%
G36*
G01*
X86852733Y-123023857D02*
X88780815Y-123384687D01*
G75*
G02*
X89779545Y-124843295I-229939J-1228669D01*
G01*
X89779545Y-124843295D01*
G75*
G02*
X88320937Y-125842025I-1228669J229939D01*
G01*
X86392855Y-125481195D01*
G75*
G02*
X85394125Y-124022587I229939J1228669D01*
G01*
X85394125Y-124022587D01*
G75*
G02*
X86852733Y-123023857I1228669J-229939D01*
G01*
G37*
G36*
G01*
X81415449Y-127727938D02*
X81029841Y-127291243D01*
G75*
G02*
X81139454Y-125526878I936989J827376D01*
G01*
X81139454Y-125526878D01*
G75*
G02*
X82903819Y-125636491I827376J-936989D01*
G01*
X83288633Y-126072287D01*
G75*
G02*
X83179020Y-127836652I-936989J-827376D01*
G01*
X83179020Y-127836652D01*
G75*
G02*
X81414655Y-127727039I-827376J936989D01*
G01*
G37*
G36*
G01*
X83902335Y-127392238D02*
X83751847Y-129348012D01*
G75*
G02*
X82409632Y-130498429I-1246316J95899D01*
G01*
X82409632Y-130498429D01*
G75*
G02*
X81259215Y-129156214I95899J1246316D01*
G01*
X81409703Y-127200440D01*
G75*
G02*
X82751918Y-126050023I1246316J-95899D01*
G01*
X82751918Y-126050023D01*
G75*
G02*
X83902335Y-127392238I-95899J-1246316D01*
G01*
G37*
X81966829Y-126463868D03*
X82351645Y-126899663D03*
X88550877Y-124613350D03*
X86622793Y-124252532D03*
X82505525Y-129252113D03*
X82656026Y-127296339D03*
X85997064Y-123371360D03*
X86318412Y-123855855D03*
G36*
G01*
X85277261Y-124547594D02*
X84955368Y-124062283D01*
G75*
G02*
X85306141Y-122329666I1041695J690922D01*
G01*
X85306141Y-122329666D01*
G75*
G02*
X87038758Y-122680439I690922J-1041695D01*
G01*
X87360108Y-123164933D01*
G75*
G02*
X87009335Y-124897550I-1041695J-690922D01*
G01*
X87009335Y-124897550D01*
G75*
G02*
X85276718Y-124546777I-690922J1041695D01*
G01*
G37*
%TD*%
%TO.C,SW19*%
G36*
G01*
X162948385Y-78690070D02*
X164258375Y-80150078D01*
G75*
G02*
X164162777Y-81915258I-930389J-834791D01*
G01*
X164162777Y-81915258D01*
G75*
G02*
X162397597Y-81819660I-834791J930389D01*
G01*
X161087607Y-80359652D01*
G75*
G02*
X161183205Y-78594472I930389J834791D01*
G01*
X161183205Y-78594472D01*
G75*
G02*
X162948385Y-78690070I834791J-930389D01*
G01*
G37*
G36*
G01*
X155771035Y-79112061D02*
X155730954Y-78530864D01*
G75*
G02*
X156891993Y-77197827I1247038J85999D01*
G01*
X156891993Y-77197827D01*
G75*
G02*
X158225030Y-78358866I85999J-1247038D01*
G01*
X158265028Y-78938866D01*
G75*
G02*
X157103989Y-80271903I-1247038J-85999D01*
G01*
X157103989Y-80271903D01*
G75*
G02*
X155770952Y-79110864I-85999J1247038D01*
G01*
G37*
G36*
G01*
X157948375Y-80359652D02*
X156638385Y-81819660D01*
G75*
G02*
X154873205Y-81915258I-930389J834791D01*
G01*
X154873205Y-81915258D01*
G75*
G02*
X154777607Y-80150078I834791J930389D01*
G01*
X156087597Y-78690070D01*
G75*
G02*
X157852777Y-78594472I930389J-834791D01*
G01*
X157852777Y-78594472D01*
G75*
G02*
X157948375Y-80359652I-834791J-930389D01*
G01*
G37*
X156977991Y-78444865D03*
X157017991Y-79024865D03*
X163327991Y-80984865D03*
X162017991Y-79524865D03*
X155707991Y-80984865D03*
X157017991Y-79524865D03*
X162057991Y-78444865D03*
X162017991Y-79024865D03*
G36*
G01*
X160771037Y-78937669D02*
X160810952Y-78358866D01*
G75*
G02*
X162143989Y-77197827I1247038J-85999D01*
G01*
X162143989Y-77197827D01*
G75*
G02*
X163305028Y-78530864I-85999J-1247038D01*
G01*
X163265030Y-79110864D01*
G75*
G02*
X161931993Y-80271903I-1247038J85999D01*
G01*
X161931993Y-80271903D01*
G75*
G02*
X160770954Y-78938866I85999J1247038D01*
G01*
G37*
%TD*%
%TO.C,SW18*%
G36*
G01*
X162995302Y-59679442D02*
X164305292Y-61139450D01*
G75*
G02*
X164209694Y-62904630I-930389J-834791D01*
G01*
X164209694Y-62904630D01*
G75*
G02*
X162444514Y-62809032I-834791J930389D01*
G01*
X161134524Y-61349024D01*
G75*
G02*
X161230122Y-59583844I930389J834791D01*
G01*
X161230122Y-59583844D01*
G75*
G02*
X162995302Y-59679442I834791J-930389D01*
G01*
G37*
G36*
G01*
X155817952Y-60101433D02*
X155777871Y-59520236D01*
G75*
G02*
X156938910Y-58187199I1247038J85999D01*
G01*
X156938910Y-58187199D01*
G75*
G02*
X158271947Y-59348238I85999J-1247038D01*
G01*
X158311945Y-59928238D01*
G75*
G02*
X157150906Y-61261275I-1247038J-85999D01*
G01*
X157150906Y-61261275D01*
G75*
G02*
X155817869Y-60100236I-85999J1247038D01*
G01*
G37*
G36*
G01*
X157995292Y-61349024D02*
X156685302Y-62809032D01*
G75*
G02*
X154920122Y-62904630I-930389J834791D01*
G01*
X154920122Y-62904630D01*
G75*
G02*
X154824524Y-61139450I834791J930389D01*
G01*
X156134514Y-59679442D01*
G75*
G02*
X157899694Y-59583844I930389J-834791D01*
G01*
X157899694Y-59583844D01*
G75*
G02*
X157995292Y-61349024I-834791J-930389D01*
G01*
G37*
X157024908Y-59434237D03*
X157064908Y-60014237D03*
X163374908Y-61974237D03*
X162064908Y-60514237D03*
X155754908Y-61974237D03*
X157064908Y-60514237D03*
X162104908Y-59434237D03*
X162064908Y-60014237D03*
G36*
G01*
X160817954Y-59927041D02*
X160857869Y-59348238D01*
G75*
G02*
X162190906Y-58187199I1247038J-85999D01*
G01*
X162190906Y-58187199D01*
G75*
G02*
X163351945Y-59520236I-85999J-1247038D01*
G01*
X163311947Y-60100236D01*
G75*
G02*
X161978910Y-61261275I-1247038J85999D01*
G01*
X161978910Y-61261275D01*
G75*
G02*
X160817871Y-59928238I85999J1247038D01*
G01*
G37*
%TD*%
%TO.C,SW16*%
G36*
G01*
X163022830Y-21543361D02*
X164332820Y-23003369D01*
G75*
G02*
X164237222Y-24768549I-930389J-834791D01*
G01*
X164237222Y-24768549D01*
G75*
G02*
X162472042Y-24672951I-834791J930389D01*
G01*
X161162052Y-23212943D01*
G75*
G02*
X161257650Y-21447763I930389J834791D01*
G01*
X161257650Y-21447763D01*
G75*
G02*
X163022830Y-21543361I834791J-930389D01*
G01*
G37*
G36*
G01*
X155845480Y-21965352D02*
X155805399Y-21384155D01*
G75*
G02*
X156966438Y-20051118I1247038J85999D01*
G01*
X156966438Y-20051118D01*
G75*
G02*
X158299475Y-21212157I85999J-1247038D01*
G01*
X158339473Y-21792157D01*
G75*
G02*
X157178434Y-23125194I-1247038J-85999D01*
G01*
X157178434Y-23125194D01*
G75*
G02*
X155845397Y-21964155I-85999J1247038D01*
G01*
G37*
G36*
G01*
X158022820Y-23212943D02*
X156712830Y-24672951D01*
G75*
G02*
X154947650Y-24768549I-930389J834791D01*
G01*
X154947650Y-24768549D01*
G75*
G02*
X154852052Y-23003369I834791J930389D01*
G01*
X156162042Y-21543361D01*
G75*
G02*
X157927222Y-21447763I930389J-834791D01*
G01*
X157927222Y-21447763D01*
G75*
G02*
X158022820Y-23212943I-834791J-930389D01*
G01*
G37*
X157052436Y-21298156D03*
X157092436Y-21878156D03*
X163402436Y-23838156D03*
X162092436Y-22378156D03*
X155782436Y-23838156D03*
X157092436Y-22378156D03*
X162132436Y-21298156D03*
X162092436Y-21878156D03*
G36*
G01*
X160845482Y-21790960D02*
X160885397Y-21212157D01*
G75*
G02*
X162218434Y-20051118I1247038J-85999D01*
G01*
X162218434Y-20051118D01*
G75*
G02*
X163379473Y-21384155I-85999J-1247038D01*
G01*
X163339475Y-21964155D01*
G75*
G02*
X162006438Y-23125194I-1247038J85999D01*
G01*
X162006438Y-23125194D01*
G75*
G02*
X160845399Y-21792157I85999J1247038D01*
G01*
G37*
%TD*%
%TO.C,SW15*%
G36*
G01*
X105623560Y-112562970D02*
X107427842Y-113332562D01*
G75*
G02*
X108087198Y-114972760I-490421J-1149777D01*
G01*
X108087198Y-114972760D01*
G75*
G02*
X106447000Y-115632116I-1149777J490421D01*
G01*
X104642718Y-114862524D01*
G75*
G02*
X103983362Y-113222326I490421J1149777D01*
G01*
X103983362Y-113222326D01*
G75*
G02*
X105623560Y-112562970I1149777J-490421D01*
G01*
G37*
G36*
G01*
X99297014Y-115978703D02*
X99015063Y-115468899D01*
G75*
G02*
X99503957Y-113770081I1093856J604962D01*
G01*
X99503957Y-113770081D01*
G75*
G02*
X101202775Y-114258975I604962J-1093856D01*
G01*
X101484145Y-114767729D01*
G75*
G02*
X100995251Y-116466547I-1093856J-604962D01*
G01*
X100995251Y-116466547D01*
G75*
G02*
X99296433Y-115977653I-604962J1093856D01*
G01*
G37*
G36*
G01*
X101797609Y-116189220D02*
X101227381Y-118066064D01*
G75*
G02*
X99667986Y-118898703I-1196017J363378D01*
G01*
X99667986Y-118898703D01*
G75*
G02*
X98835347Y-117339308I363378J1196017D01*
G01*
X99405575Y-115462464D01*
G75*
G02*
X100964970Y-114629825I1196017J-363378D01*
G01*
X100964970Y-114629825D01*
G75*
G02*
X101797609Y-116189220I-363378J-1196017D01*
G01*
G37*
X100108918Y-114863937D03*
X100390289Y-115372691D03*
X106937423Y-114482333D03*
X105133137Y-113712753D03*
X100031358Y-117702684D03*
X100601598Y-115825845D03*
X104712962Y-112717036D03*
X104921828Y-113259599D03*
G36*
G01*
X103755637Y-113709595D02*
X103546416Y-113166117D01*
G75*
G02*
X104263881Y-111550492I1166545J449080D01*
G01*
X104263881Y-111550492D01*
G75*
G02*
X105879506Y-112267957I449080J-1166545D01*
G01*
X106088374Y-112810519D01*
G75*
G02*
X105370909Y-114426144I-1166545J-449080D01*
G01*
X105370909Y-114426144D01*
G75*
G02*
X103755284Y-113708679I-449080J1166545D01*
G01*
G37*
%TD*%
%TO.C,SW14*%
G36*
G01*
X182008818Y-82535553D02*
X183318808Y-83995561D01*
G75*
G02*
X183223210Y-85760741I-930389J-834791D01*
G01*
X183223210Y-85760741D01*
G75*
G02*
X181458030Y-85665143I-834791J930389D01*
G01*
X180148040Y-84205135D01*
G75*
G02*
X180243638Y-82439955I930389J834791D01*
G01*
X180243638Y-82439955D01*
G75*
G02*
X182008818Y-82535553I834791J-930389D01*
G01*
G37*
G36*
G01*
X174831468Y-82957544D02*
X174791387Y-82376347D01*
G75*
G02*
X175952426Y-81043310I1247038J85999D01*
G01*
X175952426Y-81043310D01*
G75*
G02*
X177285463Y-82204349I85999J-1247038D01*
G01*
X177325461Y-82784349D01*
G75*
G02*
X176164422Y-84117386I-1247038J-85999D01*
G01*
X176164422Y-84117386D01*
G75*
G02*
X174831385Y-82956347I-85999J1247038D01*
G01*
G37*
G36*
G01*
X177008808Y-84205135D02*
X175698818Y-85665143D01*
G75*
G02*
X173933638Y-85760741I-930389J834791D01*
G01*
X173933638Y-85760741D01*
G75*
G02*
X173838040Y-83995561I834791J930389D01*
G01*
X175148030Y-82535553D01*
G75*
G02*
X176913210Y-82439955I930389J-834791D01*
G01*
X176913210Y-82439955D01*
G75*
G02*
X177008808Y-84205135I-834791J-930389D01*
G01*
G37*
X176038424Y-82290348D03*
X176078424Y-82870348D03*
X182388424Y-84830348D03*
X181078424Y-83370348D03*
X174768424Y-84830348D03*
X176078424Y-83370348D03*
X181118424Y-82290348D03*
X181078424Y-82870348D03*
G36*
G01*
X179831470Y-82783152D02*
X179871385Y-82204349D01*
G75*
G02*
X181204422Y-81043310I1247038J-85999D01*
G01*
X181204422Y-81043310D01*
G75*
G02*
X182365461Y-82376347I-85999J-1247038D01*
G01*
X182325463Y-82956347D01*
G75*
G02*
X180992426Y-84117386I-1247038J85999D01*
G01*
X180992426Y-84117386D01*
G75*
G02*
X179831387Y-82784349I85999J1247038D01*
G01*
G37*
%TD*%
%TO.C,SW13*%
G36*
G01*
X181989444Y-63410107D02*
X183299434Y-64870115D01*
G75*
G02*
X183203836Y-66635295I-930389J-834791D01*
G01*
X183203836Y-66635295D01*
G75*
G02*
X181438656Y-66539697I-834791J930389D01*
G01*
X180128666Y-65079689D01*
G75*
G02*
X180224264Y-63314509I930389J834791D01*
G01*
X180224264Y-63314509D01*
G75*
G02*
X181989444Y-63410107I834791J-930389D01*
G01*
G37*
G36*
G01*
X174812094Y-63832098D02*
X174772013Y-63250901D01*
G75*
G02*
X175933052Y-61917864I1247038J85999D01*
G01*
X175933052Y-61917864D01*
G75*
G02*
X177266089Y-63078903I85999J-1247038D01*
G01*
X177306087Y-63658903D01*
G75*
G02*
X176145048Y-64991940I-1247038J-85999D01*
G01*
X176145048Y-64991940D01*
G75*
G02*
X174812011Y-63830901I-85999J1247038D01*
G01*
G37*
G36*
G01*
X176989434Y-65079689D02*
X175679444Y-66539697D01*
G75*
G02*
X173914264Y-66635295I-930389J834791D01*
G01*
X173914264Y-66635295D01*
G75*
G02*
X173818666Y-64870115I834791J930389D01*
G01*
X175128656Y-63410107D01*
G75*
G02*
X176893836Y-63314509I930389J-834791D01*
G01*
X176893836Y-63314509D01*
G75*
G02*
X176989434Y-65079689I-834791J-930389D01*
G01*
G37*
X176019050Y-63164902D03*
X176059050Y-63744902D03*
X182369050Y-65704902D03*
X181059050Y-64244902D03*
X174749050Y-65704902D03*
X176059050Y-64244902D03*
X181099050Y-63164902D03*
X181059050Y-63744902D03*
G36*
G01*
X179812096Y-63657706D02*
X179852011Y-63078903D01*
G75*
G02*
X181185048Y-61917864I1247038J-85999D01*
G01*
X181185048Y-61917864D01*
G75*
G02*
X182346087Y-63250901I-85999J-1247038D01*
G01*
X182306089Y-63830901D01*
G75*
G02*
X180973052Y-64991940I-1247038J85999D01*
G01*
X180973052Y-64991940D01*
G75*
G02*
X179812013Y-63658903I85999J1247038D01*
G01*
G37*
%TD*%
%TO.C,SW12*%
G36*
G01*
X182036354Y-44399480D02*
X183346344Y-45859488D01*
G75*
G02*
X183250746Y-47624668I-930389J-834791D01*
G01*
X183250746Y-47624668D01*
G75*
G02*
X181485566Y-47529070I-834791J930389D01*
G01*
X180175576Y-46069062D01*
G75*
G02*
X180271174Y-44303882I930389J834791D01*
G01*
X180271174Y-44303882D01*
G75*
G02*
X182036354Y-44399480I834791J-930389D01*
G01*
G37*
G36*
G01*
X174859004Y-44821471D02*
X174818923Y-44240274D01*
G75*
G02*
X175979962Y-42907237I1247038J85999D01*
G01*
X175979962Y-42907237D01*
G75*
G02*
X177312999Y-44068276I85999J-1247038D01*
G01*
X177352997Y-44648276D01*
G75*
G02*
X176191958Y-45981313I-1247038J-85999D01*
G01*
X176191958Y-45981313D01*
G75*
G02*
X174858921Y-44820274I-85999J1247038D01*
G01*
G37*
G36*
G01*
X177036344Y-46069062D02*
X175726354Y-47529070D01*
G75*
G02*
X173961174Y-47624668I-930389J834791D01*
G01*
X173961174Y-47624668D01*
G75*
G02*
X173865576Y-45859488I834791J930389D01*
G01*
X175175566Y-44399480D01*
G75*
G02*
X176940746Y-44303882I930389J-834791D01*
G01*
X176940746Y-44303882D01*
G75*
G02*
X177036344Y-46069062I-834791J-930389D01*
G01*
G37*
X176065960Y-44154275D03*
X176105960Y-44734275D03*
X182415960Y-46694275D03*
X181105960Y-45234275D03*
X174795960Y-46694275D03*
X176105960Y-45234275D03*
X181145960Y-44154275D03*
X181105960Y-44734275D03*
G36*
G01*
X179859006Y-44647079D02*
X179898921Y-44068276D01*
G75*
G02*
X181231958Y-42907237I1247038J-85999D01*
G01*
X181231958Y-42907237D01*
G75*
G02*
X182392997Y-44240274I-85999J-1247038D01*
G01*
X182352999Y-44820274D01*
G75*
G02*
X181019962Y-45981313I-1247038J85999D01*
G01*
X181019962Y-45981313D01*
G75*
G02*
X179858923Y-44648276I85999J1247038D01*
G01*
G37*
%TD*%
%TO.C,SW11*%
G36*
G01*
X181992705Y-25364583D02*
X183302695Y-26824591D01*
G75*
G02*
X183207097Y-28589771I-930389J-834791D01*
G01*
X183207097Y-28589771D01*
G75*
G02*
X181441917Y-28494173I-834791J930389D01*
G01*
X180131927Y-27034165D01*
G75*
G02*
X180227525Y-25268985I930389J834791D01*
G01*
X180227525Y-25268985D01*
G75*
G02*
X181992705Y-25364583I834791J-930389D01*
G01*
G37*
G36*
G01*
X174815355Y-25786574D02*
X174775274Y-25205377D01*
G75*
G02*
X175936313Y-23872340I1247038J85999D01*
G01*
X175936313Y-23872340D01*
G75*
G02*
X177269350Y-25033379I85999J-1247038D01*
G01*
X177309348Y-25613379D01*
G75*
G02*
X176148309Y-26946416I-1247038J-85999D01*
G01*
X176148309Y-26946416D01*
G75*
G02*
X174815272Y-25785377I-85999J1247038D01*
G01*
G37*
G36*
G01*
X176992695Y-27034165D02*
X175682705Y-28494173D01*
G75*
G02*
X173917525Y-28589771I-930389J834791D01*
G01*
X173917525Y-28589771D01*
G75*
G02*
X173821927Y-26824591I834791J930389D01*
G01*
X175131917Y-25364583D01*
G75*
G02*
X176897097Y-25268985I930389J-834791D01*
G01*
X176897097Y-25268985D01*
G75*
G02*
X176992695Y-27034165I-834791J-930389D01*
G01*
G37*
X176022311Y-25119378D03*
X176062311Y-25699378D03*
X182372311Y-27659378D03*
X181062311Y-26199378D03*
X174752311Y-27659378D03*
X176062311Y-26199378D03*
X181102311Y-25119378D03*
X181062311Y-25699378D03*
G36*
G01*
X179815357Y-25612182D02*
X179855272Y-25033379D01*
G75*
G02*
X181188309Y-23872340I1247038J-85999D01*
G01*
X181188309Y-23872340D01*
G75*
G02*
X182349348Y-25205377I-85999J-1247038D01*
G01*
X182309350Y-25785377D01*
G75*
G02*
X180976313Y-26946416I-1247038J85999D01*
G01*
X180976313Y-26946416D01*
G75*
G02*
X179815274Y-25613379I85999J1247038D01*
G01*
G37*
%TD*%
%TO.C,SW10*%
G36*
G01*
X126211268Y-106275927D02*
X127806210Y-107417793D01*
G75*
G02*
X128094932Y-109161823I-727654J-1016376D01*
G01*
X128094932Y-109161823D01*
G75*
G02*
X126350902Y-109450545I-1016376J727654D01*
G01*
X124755960Y-108308679D01*
G75*
G02*
X124467238Y-106564649I727654J1016376D01*
G01*
X124467238Y-106564649D01*
G75*
G02*
X126211268Y-106275927I1016376J-727654D01*
G01*
G37*
G36*
G01*
X119295385Y-108241377D02*
X119130459Y-107682633D01*
G75*
G02*
X119975455Y-106129899I1198865J353869D01*
G01*
X119975455Y-106129899D01*
G75*
G02*
X121528189Y-106974895I353869J-1198865D01*
G01*
X121692775Y-107532489D01*
G75*
G02*
X120847779Y-109085223I-1198865J-353869D01*
G01*
X120847779Y-109085223D01*
G75*
G02*
X119295045Y-108240227I-353869J1198865D01*
G01*
G37*
G36*
G01*
X121691143Y-108988133D02*
X120728207Y-110697067D01*
G75*
G02*
X119025560Y-111172454I-1089017J613630D01*
G01*
X119025560Y-111172454D01*
G75*
G02*
X118550173Y-109469807I613630J1089017D01*
G01*
X119513109Y-107760873D01*
G75*
G02*
X121215756Y-107285486I1089017J-613630D01*
G01*
X121215756Y-107285486D01*
G75*
G02*
X121691143Y-108988133I-613630J-1089017D01*
G01*
G37*
X120329324Y-107328764D03*
X120493911Y-107886358D03*
X127078560Y-108434164D03*
X125483611Y-107292308D03*
X119639185Y-110083434D03*
X120602131Y-108374506D03*
X125288908Y-106229251D03*
X125375391Y-106804160D03*
G36*
G01*
X124139447Y-106991079D02*
X124052814Y-106415198D01*
G75*
G02*
X125102958Y-104993158I1236092J185948D01*
G01*
X125102958Y-104993158D01*
G75*
G02*
X126524998Y-106043302I185948J-1236092D01*
G01*
X126611484Y-106618212D01*
G75*
G02*
X125561340Y-108040252I-1236092J-185948D01*
G01*
X125561340Y-108040252D01*
G75*
G02*
X124139300Y-106990108I-185948J1236092D01*
G01*
G37*
%TD*%
%TO.C,SW9*%
G36*
G01*
X201110817Y-92021496D02*
X202420807Y-93481504D01*
G75*
G02*
X202325209Y-95246684I-930389J-834791D01*
G01*
X202325209Y-95246684D01*
G75*
G02*
X200560029Y-95151086I-834791J930389D01*
G01*
X199250039Y-93691078D01*
G75*
G02*
X199345637Y-91925898I930389J834791D01*
G01*
X199345637Y-91925898D01*
G75*
G02*
X201110817Y-92021496I834791J-930389D01*
G01*
G37*
G36*
G01*
X193933467Y-92443487D02*
X193893386Y-91862290D01*
G75*
G02*
X195054425Y-90529253I1247038J85999D01*
G01*
X195054425Y-90529253D01*
G75*
G02*
X196387462Y-91690292I85999J-1247038D01*
G01*
X196427460Y-92270292D01*
G75*
G02*
X195266421Y-93603329I-1247038J-85999D01*
G01*
X195266421Y-93603329D01*
G75*
G02*
X193933384Y-92442290I-85999J1247038D01*
G01*
G37*
G36*
G01*
X196110807Y-93691078D02*
X194800817Y-95151086D01*
G75*
G02*
X193035637Y-95246684I-930389J834791D01*
G01*
X193035637Y-95246684D01*
G75*
G02*
X192940039Y-93481504I834791J930389D01*
G01*
X194250029Y-92021496D01*
G75*
G02*
X196015209Y-91925898I930389J-834791D01*
G01*
X196015209Y-91925898D01*
G75*
G02*
X196110807Y-93691078I-834791J-930389D01*
G01*
G37*
X195140423Y-91776291D03*
X195180423Y-92356291D03*
X201490423Y-94316291D03*
X200180423Y-92856291D03*
X193870423Y-94316291D03*
X195180423Y-92856291D03*
X200220423Y-91776291D03*
X200180423Y-92356291D03*
G36*
G01*
X198933469Y-92269095D02*
X198973384Y-91690292D01*
G75*
G02*
X200306421Y-90529253I1247038J-85999D01*
G01*
X200306421Y-90529253D01*
G75*
G02*
X201467460Y-91862290I-85999J-1247038D01*
G01*
X201427462Y-92442290D01*
G75*
G02*
X200094425Y-93603329I-1247038J85999D01*
G01*
X200094425Y-93603329D01*
G75*
G02*
X198933386Y-92270292I85999J1247038D01*
G01*
G37*
%TD*%
%TO.C,SW8*%
G36*
G01*
X201067175Y-72986596D02*
X202377165Y-74446604D01*
G75*
G02*
X202281567Y-76211784I-930389J-834791D01*
G01*
X202281567Y-76211784D01*
G75*
G02*
X200516387Y-76116186I-834791J930389D01*
G01*
X199206397Y-74656178D01*
G75*
G02*
X199301995Y-72890998I930389J834791D01*
G01*
X199301995Y-72890998D01*
G75*
G02*
X201067175Y-72986596I834791J-930389D01*
G01*
G37*
G36*
G01*
X193889825Y-73408587D02*
X193849744Y-72827390D01*
G75*
G02*
X195010783Y-71494353I1247038J85999D01*
G01*
X195010783Y-71494353D01*
G75*
G02*
X196343820Y-72655392I85999J-1247038D01*
G01*
X196383818Y-73235392D01*
G75*
G02*
X195222779Y-74568429I-1247038J-85999D01*
G01*
X195222779Y-74568429D01*
G75*
G02*
X193889742Y-73407390I-85999J1247038D01*
G01*
G37*
G36*
G01*
X196067165Y-74656178D02*
X194757175Y-76116186D01*
G75*
G02*
X192991995Y-76211784I-930389J834791D01*
G01*
X192991995Y-76211784D01*
G75*
G02*
X192896397Y-74446604I834791J930389D01*
G01*
X194206387Y-72986596D01*
G75*
G02*
X195971567Y-72890998I930389J-834791D01*
G01*
X195971567Y-72890998D01*
G75*
G02*
X196067165Y-74656178I-834791J-930389D01*
G01*
G37*
X195096781Y-72741391D03*
X195136781Y-73321391D03*
X201446781Y-75281391D03*
X200136781Y-73821391D03*
X193826781Y-75281391D03*
X195136781Y-73821391D03*
X200176781Y-72741391D03*
X200136781Y-73321391D03*
G36*
G01*
X198889827Y-73234195D02*
X198929742Y-72655392D01*
G75*
G02*
X200262779Y-71494353I1247038J-85999D01*
G01*
X200262779Y-71494353D01*
G75*
G02*
X201423818Y-72827390I-85999J-1247038D01*
G01*
X201383820Y-73407390D01*
G75*
G02*
X200050783Y-74568429I-1247038J85999D01*
G01*
X200050783Y-74568429D01*
G75*
G02*
X198889744Y-73235392I85999J1247038D01*
G01*
G37*
%TD*%
%TO.C,SW7*%
G36*
G01*
X201023527Y-53951695D02*
X202333517Y-55411703D01*
G75*
G02*
X202237919Y-57176883I-930389J-834791D01*
G01*
X202237919Y-57176883D01*
G75*
G02*
X200472739Y-57081285I-834791J930389D01*
G01*
X199162749Y-55621277D01*
G75*
G02*
X199258347Y-53856097I930389J834791D01*
G01*
X199258347Y-53856097D01*
G75*
G02*
X201023527Y-53951695I834791J-930389D01*
G01*
G37*
G36*
G01*
X193846177Y-54373686D02*
X193806096Y-53792489D01*
G75*
G02*
X194967135Y-52459452I1247038J85999D01*
G01*
X194967135Y-52459452D01*
G75*
G02*
X196300172Y-53620491I85999J-1247038D01*
G01*
X196340170Y-54200491D01*
G75*
G02*
X195179131Y-55533528I-1247038J-85999D01*
G01*
X195179131Y-55533528D01*
G75*
G02*
X193846094Y-54372489I-85999J1247038D01*
G01*
G37*
G36*
G01*
X196023517Y-55621277D02*
X194713527Y-57081285D01*
G75*
G02*
X192948347Y-57176883I-930389J834791D01*
G01*
X192948347Y-57176883D01*
G75*
G02*
X192852749Y-55411703I834791J930389D01*
G01*
X194162739Y-53951695D01*
G75*
G02*
X195927919Y-53856097I930389J-834791D01*
G01*
X195927919Y-53856097D01*
G75*
G02*
X196023517Y-55621277I-834791J-930389D01*
G01*
G37*
X195053133Y-53706490D03*
X195093133Y-54286490D03*
X201403133Y-56246490D03*
X200093133Y-54786490D03*
X193783133Y-56246490D03*
X195093133Y-54786490D03*
X200133133Y-53706490D03*
X200093133Y-54286490D03*
G36*
G01*
X198846179Y-54199294D02*
X198886094Y-53620491D01*
G75*
G02*
X200219131Y-52459452I1247038J-85999D01*
G01*
X200219131Y-52459452D01*
G75*
G02*
X201380170Y-53792489I-85999J-1247038D01*
G01*
X201340172Y-54372489D01*
G75*
G02*
X200007135Y-55533528I-1247038J85999D01*
G01*
X200007135Y-55533528D01*
G75*
G02*
X198846096Y-54200491I85999J1247038D01*
G01*
G37*
%TD*%
%TO.C,SW6*%
G36*
G01*
X201094704Y-34850519D02*
X202404694Y-36310527D01*
G75*
G02*
X202309096Y-38075707I-930389J-834791D01*
G01*
X202309096Y-38075707D01*
G75*
G02*
X200543916Y-37980109I-834791J930389D01*
G01*
X199233926Y-36520101D01*
G75*
G02*
X199329524Y-34754921I930389J834791D01*
G01*
X199329524Y-34754921D01*
G75*
G02*
X201094704Y-34850519I834791J-930389D01*
G01*
G37*
G36*
G01*
X193917354Y-35272510D02*
X193877273Y-34691313D01*
G75*
G02*
X195038312Y-33358276I1247038J85999D01*
G01*
X195038312Y-33358276D01*
G75*
G02*
X196371349Y-34519315I85999J-1247038D01*
G01*
X196411347Y-35099315D01*
G75*
G02*
X195250308Y-36432352I-1247038J-85999D01*
G01*
X195250308Y-36432352D01*
G75*
G02*
X193917271Y-35271313I-85999J1247038D01*
G01*
G37*
G36*
G01*
X196094694Y-36520101D02*
X194784704Y-37980109D01*
G75*
G02*
X193019524Y-38075707I-930389J834791D01*
G01*
X193019524Y-38075707D01*
G75*
G02*
X192923926Y-36310527I834791J930389D01*
G01*
X194233916Y-34850519D01*
G75*
G02*
X195999096Y-34754921I930389J-834791D01*
G01*
X195999096Y-34754921D01*
G75*
G02*
X196094694Y-36520101I-834791J-930389D01*
G01*
G37*
X195124310Y-34605314D03*
X195164310Y-35185314D03*
X201474310Y-37145314D03*
X200164310Y-35685314D03*
X193854310Y-37145314D03*
X195164310Y-35685314D03*
X200204310Y-34605314D03*
X200164310Y-35185314D03*
G36*
G01*
X198917356Y-35098118D02*
X198957271Y-34519315D01*
G75*
G02*
X200290308Y-33358276I1247038J-85999D01*
G01*
X200290308Y-33358276D01*
G75*
G02*
X201451347Y-34691313I-85999J-1247038D01*
G01*
X201411349Y-35271313D01*
G75*
G02*
X200078312Y-36432352I-1247038J85999D01*
G01*
X200078312Y-36432352D01*
G75*
G02*
X198917273Y-35099315I85999J1247038D01*
G01*
G37*
%TD*%
M02*
