M48
; DRILL file {KiCad (5.1.7)-1} date 04/15/21 20:57:21
; FORMAT={-:-/ absolute / metric / decimal}
; #@! TF.CreationDate,2021-04-15T20:57:21+05:30
; #@! TF.GenerationSoftware,Kicad,Pcbnew,(5.1.7)-1
; #@! TF.FileFunction,Plated,1,2,PTH
FMAT,2
METRIC
T1C0.400
T2C0.813
T3C0.900
T4C1.000
T5C1.100
T6C1.500
%
G90
G05
T1
X79.248Y-129.921
X83.748Y-63.953
X87.448Y-63.555
X92.583Y-85.09
X97.142Y-113.614
X99.568Y-71.628
X100.203Y-75.184
X101.346Y-74.422
X102.108Y-73.66
X104.013Y-77.47
X110.236Y-100.19
X111.76Y-58.039
X112.268Y-52.832
X114.681Y-102.489
X114.808Y-60.96
X119.113Y-103.467
X127.216Y-79.426
X127.94Y-80.848
X148.387Y-93.193
X165.202Y-78.759
X167.119Y-93.51
X185.546Y-87.25
X200.914Y-82.372
T2
X95.885Y-80.264
X98.425Y-80.264
X100.965Y-80.264
X103.505Y-80.264
T4
X169.116Y-87.632
X169.116Y-95.432
X131.169Y-70.961
X131.169Y-78.761
X169.146Y-68.325
X169.146Y-76.125
X131.017Y-51.606
X131.017Y-59.406
X88.735Y-137.502
X94.923Y-132.754
X104.652Y-126.997
X111.721Y-123.701
X131.008Y-90.038
X131.008Y-97.838
X150.192Y-84.166
X150.192Y-91.966
X155.498Y-72.581
X163.298Y-72.581
X111.995Y-91.447
X111.995Y-99.247
X118.122Y-61.138
X125.922Y-61.138
X188.223Y-57.617
X188.223Y-65.417
X175.487Y-57.15
X183.287Y-57.15
X194.55Y-86.081
X202.35Y-86.081
X111.903Y-72.593
X111.903Y-80.393
X122.575Y-120.298
X130.19Y-118.61
X156.438Y-53.181
X164.237Y-53.181
X187.874Y-97.317
X187.874Y-105.117
T5
X92.024Y-45.225
X92.024Y-47.765
X92.024Y-50.305
X92.024Y-52.845
X92.024Y-55.385
X92.024Y-57.925
X92.024Y-60.465
X92.024Y-63.005
X92.024Y-65.545
X92.024Y-68.085
X92.024Y-70.625
X92.024Y-73.165
X107.264Y-45.225
X107.264Y-47.765
X107.264Y-50.305
X107.264Y-52.845
X107.264Y-55.385
X107.264Y-57.925
X107.264Y-60.465
X107.264Y-63.005
X107.264Y-65.545
X107.264Y-68.085
X107.264Y-70.625
X107.264Y-73.165
T6
X117.647Y-88.645
X118.917Y-86.105
X118.957Y-86.685
X118.957Y-87.185
X123.957Y-86.685
X123.957Y-87.185
X123.997Y-86.105
X125.267Y-88.645
X155.755Y-61.974
X157.025Y-59.434
X157.065Y-60.014
X157.065Y-60.514
X162.065Y-60.014
X162.065Y-60.514
X162.105Y-59.434
X163.375Y-61.974
X174.749Y-65.705
X176.019Y-63.165
X176.059Y-63.745
X176.059Y-64.245
X181.059Y-63.745
X181.059Y-64.245
X181.099Y-63.165
X182.369Y-65.705
X193.827Y-75.281
X195.097Y-72.741
X195.137Y-73.321
X195.137Y-73.821
X200.137Y-73.321
X200.137Y-73.821
X200.177Y-72.741
X201.447Y-75.281
X193.87Y-94.316
X195.14Y-91.776
X195.18Y-92.356
X195.18Y-92.856
X200.18Y-92.356
X200.18Y-92.856
X200.22Y-91.776
X201.49Y-94.316
X136.671Y-67.634
X137.941Y-65.094
X137.981Y-65.674
X137.981Y-66.174
X142.981Y-65.674
X142.981Y-66.174
X143.021Y-65.094
X144.291Y-67.634
X81.967Y-126.464
X82.352Y-126.9
X82.506Y-129.252
X82.656Y-127.296
X85.997Y-123.371
X86.318Y-123.856
X86.623Y-124.253
X88.551Y-124.613
X155.736Y-42.849
X157.006Y-40.309
X157.046Y-40.889
X157.046Y-41.389
X162.046Y-40.889
X162.046Y-41.389
X162.086Y-40.309
X163.356Y-42.849
X174.796Y-46.694
X176.066Y-44.154
X176.106Y-44.734
X176.106Y-45.234
X181.106Y-44.734
X181.106Y-45.234
X181.146Y-44.154
X182.416Y-46.694
X136.715Y-86.669
X137.985Y-84.129
X138.025Y-84.709
X138.025Y-85.209
X143.025Y-84.709
X143.025Y-85.209
X143.065Y-84.129
X144.335Y-86.669
X174.768Y-84.83
X176.038Y-82.29
X176.078Y-82.87
X176.078Y-83.37
X181.078Y-82.87
X181.078Y-83.37
X181.118Y-82.29
X182.388Y-84.83
X193.783Y-56.246
X195.053Y-53.706
X195.093Y-54.286
X195.093Y-54.786
X200.093Y-54.286
X200.093Y-54.786
X200.133Y-53.706
X201.403Y-56.246
X117.584Y-50.485
X118.854Y-47.945
X118.894Y-48.525
X118.894Y-49.025
X123.894Y-48.525
X123.894Y-49.025
X123.934Y-47.945
X125.204Y-50.485
X136.718Y-48.623
X137.988Y-46.083
X138.028Y-46.663
X138.028Y-47.163
X143.028Y-46.663
X143.028Y-47.163
X143.068Y-46.083
X144.338Y-48.623
X155.708Y-80.985
X156.978Y-78.445
X157.018Y-79.025
X157.018Y-79.525
X162.018Y-79.025
X162.018Y-79.525
X162.058Y-78.445
X163.328Y-80.985
X117.628Y-69.52
X118.898Y-66.98
X118.938Y-67.56
X118.938Y-68.06
X123.938Y-67.56
X123.938Y-68.06
X123.978Y-66.98
X125.248Y-69.52
X100.031Y-117.703
X100.109Y-114.864
X100.39Y-115.373
X100.602Y-115.826
X104.713Y-112.717
X104.922Y-113.26
X105.133Y-113.713
X106.937Y-114.482
X119.639Y-110.083
X120.329Y-107.329
X120.494Y-107.886
X120.602Y-108.375
X125.289Y-106.229
X125.375Y-106.804
X125.484Y-107.292
X127.079Y-108.434
T3
G00X83.171Y-47.505
M15
G01X83.171Y-47.105
M16
G05
G00X83.171Y-50.505
M15
G01X83.171Y-50.105
M16
G05
G00X83.171Y-54.505
M15
G01X83.171Y-54.105
M16
G05
G00X87.771Y-55.605
M15
G01X87.771Y-55.205
M16
G05
G00X83.171Y-55.169
M15
G01X83.171Y-55.569
M16
G05
G00X87.771Y-47.069
M15
G01X87.771Y-47.469
M16
G05
G00X87.771Y-50.069
M15
G01X87.771Y-50.469
M16
G05
G00X87.771Y-54.069
M15
G01X87.771Y-54.469
M16
G05
T0
M30
