%TF.GenerationSoftware,KiCad,Pcbnew,(5.1.7)-1*%
%TF.CreationDate,2021-04-16T23:41:49+05:30*%
%TF.ProjectId,Pteron56v0,50746572-6f6e-4353-9676-302e6b696361,rev?*%
%TF.SameCoordinates,Original*%
%TF.FileFunction,Legend,Top*%
%TF.FilePolarity,Positive*%
%FSLAX46Y46*%
G04 Gerber Fmt 4.6, Leading zero omitted, Abs format (unit mm)*
G04 Created by KiCad (PCBNEW (5.1.7)-1) date 2021-04-16 23:41:49*
%MOMM*%
%LPD*%
G01*
G04 APERTURE LIST*
%ADD10C,0.150000*%
%ADD11C,0.125000*%
%ADD12C,0.250000*%
%ADD13C,0.010000*%
%ADD14C,0.066040*%
%ADD15C,0.120000*%
%ADD16C,0.203200*%
%ADD17C,0.100000*%
G04 APERTURE END LIST*
D10*
X85480142Y-98718714D02*
X85480142Y-99528238D01*
X85432523Y-99623476D01*
X85384904Y-99671095D01*
X85289666Y-99718714D01*
X85146809Y-99718714D01*
X85051571Y-99671095D01*
X85480142Y-99337761D02*
X85384904Y-99385380D01*
X85194428Y-99385380D01*
X85099190Y-99337761D01*
X85051571Y-99290142D01*
X85003952Y-99194904D01*
X85003952Y-98909190D01*
X85051571Y-98813952D01*
X85099190Y-98766333D01*
X85194428Y-98718714D01*
X85384904Y-98718714D01*
X85480142Y-98766333D01*
X85956333Y-99385380D02*
X85956333Y-98718714D01*
X85956333Y-98385380D02*
X85908714Y-98433000D01*
X85956333Y-98480619D01*
X86003952Y-98433000D01*
X85956333Y-98385380D01*
X85956333Y-98480619D01*
X86289666Y-98718714D02*
X86670619Y-98718714D01*
X86432523Y-98385380D02*
X86432523Y-99242523D01*
X86480142Y-99337761D01*
X86575380Y-99385380D01*
X86670619Y-99385380D01*
X87003952Y-99385380D02*
X87003952Y-98385380D01*
X87432523Y-99385380D02*
X87432523Y-98861571D01*
X87384904Y-98766333D01*
X87289666Y-98718714D01*
X87146809Y-98718714D01*
X87051571Y-98766333D01*
X87003952Y-98813952D01*
X88337285Y-98718714D02*
X88337285Y-99385380D01*
X87908714Y-98718714D02*
X87908714Y-99242523D01*
X87956333Y-99337761D01*
X88051571Y-99385380D01*
X88194428Y-99385380D01*
X88289666Y-99337761D01*
X88337285Y-99290142D01*
X88813476Y-99385380D02*
X88813476Y-98385380D01*
X88813476Y-98766333D02*
X88908714Y-98718714D01*
X89099190Y-98718714D01*
X89194428Y-98766333D01*
X89242047Y-98813952D01*
X89289666Y-98909190D01*
X89289666Y-99194904D01*
X89242047Y-99290142D01*
X89194428Y-99337761D01*
X89099190Y-99385380D01*
X88908714Y-99385380D01*
X88813476Y-99337761D01*
X89718238Y-99290142D02*
X89765857Y-99337761D01*
X89718238Y-99385380D01*
X89670619Y-99337761D01*
X89718238Y-99290142D01*
X89718238Y-99385380D01*
X90623000Y-99337761D02*
X90527761Y-99385380D01*
X90337285Y-99385380D01*
X90242047Y-99337761D01*
X90194428Y-99290142D01*
X90146809Y-99194904D01*
X90146809Y-98909190D01*
X90194428Y-98813952D01*
X90242047Y-98766333D01*
X90337285Y-98718714D01*
X90527761Y-98718714D01*
X90623000Y-98766333D01*
X91194428Y-99385380D02*
X91099190Y-99337761D01*
X91051571Y-99290142D01*
X91003952Y-99194904D01*
X91003952Y-98909190D01*
X91051571Y-98813952D01*
X91099190Y-98766333D01*
X91194428Y-98718714D01*
X91337285Y-98718714D01*
X91432523Y-98766333D01*
X91480142Y-98813952D01*
X91527761Y-98909190D01*
X91527761Y-99194904D01*
X91480142Y-99290142D01*
X91432523Y-99337761D01*
X91337285Y-99385380D01*
X91194428Y-99385380D01*
X91956333Y-99385380D02*
X91956333Y-98718714D01*
X91956333Y-98813952D02*
X92003952Y-98766333D01*
X92099190Y-98718714D01*
X92242047Y-98718714D01*
X92337285Y-98766333D01*
X92384904Y-98861571D01*
X92384904Y-99385380D01*
X92384904Y-98861571D02*
X92432523Y-98766333D01*
X92527761Y-98718714D01*
X92670619Y-98718714D01*
X92765857Y-98766333D01*
X92813476Y-98861571D01*
X92813476Y-99385380D01*
X94003952Y-98337761D02*
X93146809Y-99623476D01*
X94337285Y-99385380D02*
X94337285Y-98385380D01*
X94765857Y-99385380D02*
X94765857Y-98861571D01*
X94718238Y-98766333D01*
X94623000Y-98718714D01*
X94480142Y-98718714D01*
X94384904Y-98766333D01*
X94337285Y-98813952D01*
X95670619Y-99385380D02*
X95670619Y-98861571D01*
X95623000Y-98766333D01*
X95527761Y-98718714D01*
X95337285Y-98718714D01*
X95242047Y-98766333D01*
X95670619Y-99337761D02*
X95575380Y-99385380D01*
X95337285Y-99385380D01*
X95242047Y-99337761D01*
X95194428Y-99242523D01*
X95194428Y-99147285D01*
X95242047Y-99052047D01*
X95337285Y-99004428D01*
X95575380Y-99004428D01*
X95670619Y-98956809D01*
X96146809Y-99385380D02*
X96146809Y-98718714D01*
X96146809Y-98909190D02*
X96194428Y-98813952D01*
X96242047Y-98766333D01*
X96337285Y-98718714D01*
X96432523Y-98718714D01*
X96718238Y-99337761D02*
X96813476Y-99385380D01*
X97003952Y-99385380D01*
X97099190Y-99337761D01*
X97146809Y-99242523D01*
X97146809Y-99194904D01*
X97099190Y-99099666D01*
X97003952Y-99052047D01*
X96861095Y-99052047D01*
X96765857Y-99004428D01*
X96718238Y-98909190D01*
X96718238Y-98861571D01*
X96765857Y-98766333D01*
X96861095Y-98718714D01*
X97003952Y-98718714D01*
X97099190Y-98766333D01*
X97575380Y-99385380D02*
X97575380Y-98385380D01*
X98003952Y-99385380D02*
X98003952Y-98861571D01*
X97956333Y-98766333D01*
X97861095Y-98718714D01*
X97718238Y-98718714D01*
X97623000Y-98766333D01*
X97575380Y-98813952D01*
X98480142Y-99385380D02*
X98480142Y-98718714D01*
X98480142Y-98385380D02*
X98432523Y-98433000D01*
X98480142Y-98480619D01*
X98527761Y-98433000D01*
X98480142Y-98385380D01*
X98480142Y-98480619D01*
X98813476Y-98718714D02*
X99194428Y-98718714D01*
X98956333Y-98385380D02*
X98956333Y-99242523D01*
X99003952Y-99337761D01*
X99099190Y-99385380D01*
X99194428Y-99385380D01*
X99956333Y-98718714D02*
X99956333Y-99528238D01*
X99908714Y-99623476D01*
X99861095Y-99671095D01*
X99765857Y-99718714D01*
X99623000Y-99718714D01*
X99527761Y-99671095D01*
X99956333Y-99337761D02*
X99861095Y-99385380D01*
X99670619Y-99385380D01*
X99575380Y-99337761D01*
X99527761Y-99290142D01*
X99480142Y-99194904D01*
X99480142Y-98909190D01*
X99527761Y-98813952D01*
X99575380Y-98766333D01*
X99670619Y-98718714D01*
X99861095Y-98718714D01*
X99956333Y-98766333D01*
X100575380Y-99385380D02*
X100480142Y-99337761D01*
X100432523Y-99290142D01*
X100384904Y-99194904D01*
X100384904Y-98909190D01*
X100432523Y-98813952D01*
X100480142Y-98766333D01*
X100575380Y-98718714D01*
X100718238Y-98718714D01*
X100813476Y-98766333D01*
X100861095Y-98813952D01*
X100908714Y-98909190D01*
X100908714Y-99194904D01*
X100861095Y-99290142D01*
X100813476Y-99337761D01*
X100718238Y-99385380D01*
X100575380Y-99385380D01*
X101718238Y-99337761D02*
X101623000Y-99385380D01*
X101432523Y-99385380D01*
X101337285Y-99337761D01*
X101289666Y-99242523D01*
X101289666Y-98861571D01*
X101337285Y-98766333D01*
X101432523Y-98718714D01*
X101623000Y-98718714D01*
X101718238Y-98766333D01*
X101765857Y-98861571D01*
X101765857Y-98956809D01*
X101289666Y-99052047D01*
X102337285Y-99385380D02*
X102242047Y-99337761D01*
X102194428Y-99242523D01*
X102194428Y-98385380D01*
X102765857Y-99385380D02*
X102956333Y-99385380D01*
X103051571Y-99337761D01*
X103099190Y-99290142D01*
X103194428Y-99147285D01*
X103242047Y-98956809D01*
X103242047Y-98575857D01*
X103194428Y-98480619D01*
X103146809Y-98433000D01*
X103051571Y-98385380D01*
X102861095Y-98385380D01*
X102765857Y-98433000D01*
X102718238Y-98480619D01*
X102670619Y-98575857D01*
X102670619Y-98813952D01*
X102718238Y-98909190D01*
X102765857Y-98956809D01*
X102861095Y-99004428D01*
X103051571Y-99004428D01*
X103146809Y-98956809D01*
X103194428Y-98909190D01*
X103242047Y-98813952D01*
X104099190Y-98385380D02*
X103908714Y-98385380D01*
X103813476Y-98433000D01*
X103765857Y-98480619D01*
X103670619Y-98623476D01*
X103623000Y-98813952D01*
X103623000Y-99194904D01*
X103670619Y-99290142D01*
X103718238Y-99337761D01*
X103813476Y-99385380D01*
X104003952Y-99385380D01*
X104099190Y-99337761D01*
X104146809Y-99290142D01*
X104194428Y-99194904D01*
X104194428Y-98956809D01*
X104146809Y-98861571D01*
X104099190Y-98813952D01*
X104003952Y-98766333D01*
X103813476Y-98766333D01*
X103718238Y-98813952D01*
X103670619Y-98861571D01*
X103623000Y-98956809D01*
X105337285Y-98337761D02*
X104480142Y-99623476D01*
D11*
X115042190Y-61372666D02*
X115542190Y-61206000D01*
X115042190Y-61039333D01*
X115494571Y-60586952D02*
X115518380Y-60610761D01*
X115542190Y-60682190D01*
X115542190Y-60729809D01*
X115518380Y-60801238D01*
X115470761Y-60848857D01*
X115423142Y-60872666D01*
X115327904Y-60896476D01*
X115256476Y-60896476D01*
X115161238Y-60872666D01*
X115113619Y-60848857D01*
X115066000Y-60801238D01*
X115042190Y-60729809D01*
X115042190Y-60682190D01*
X115066000Y-60610761D01*
X115089809Y-60586952D01*
X115494571Y-60086952D02*
X115518380Y-60110761D01*
X115542190Y-60182190D01*
X115542190Y-60229809D01*
X115518380Y-60301238D01*
X115470761Y-60348857D01*
X115423142Y-60372666D01*
X115327904Y-60396476D01*
X115256476Y-60396476D01*
X115161238Y-60372666D01*
X115113619Y-60348857D01*
X115066000Y-60301238D01*
X115042190Y-60229809D01*
X115042190Y-60182190D01*
X115066000Y-60110761D01*
X115089809Y-60086952D01*
X114962809Y-57336619D02*
X115462809Y-57336619D01*
X115462809Y-57527095D01*
X115439000Y-57574714D01*
X115415190Y-57598523D01*
X115367571Y-57622333D01*
X115296142Y-57622333D01*
X115248523Y-57598523D01*
X115224714Y-57574714D01*
X115200904Y-57527095D01*
X115200904Y-57336619D01*
X115462809Y-57789000D02*
X114962809Y-57908047D01*
X115319952Y-58003285D01*
X114962809Y-58098523D01*
X115462809Y-58217571D01*
X114962809Y-58408047D02*
X115462809Y-58408047D01*
X115105666Y-58574714D01*
X115462809Y-58741380D01*
X114962809Y-58741380D01*
X114939000Y-55879952D02*
X114915190Y-55927571D01*
X114915190Y-55999000D01*
X114939000Y-56070428D01*
X114986619Y-56118047D01*
X115034238Y-56141857D01*
X115129476Y-56165666D01*
X115200904Y-56165666D01*
X115296142Y-56141857D01*
X115343761Y-56118047D01*
X115391380Y-56070428D01*
X115415190Y-55999000D01*
X115415190Y-55951380D01*
X115391380Y-55879952D01*
X115367571Y-55856142D01*
X115200904Y-55856142D01*
X115200904Y-55951380D01*
X115415190Y-55641857D02*
X114915190Y-55641857D01*
X115415190Y-55356142D01*
X114915190Y-55356142D01*
X115415190Y-55118047D02*
X114915190Y-55118047D01*
X114915190Y-54999000D01*
X114939000Y-54927571D01*
X114986619Y-54879952D01*
X115034238Y-54856142D01*
X115129476Y-54832333D01*
X115200904Y-54832333D01*
X115296142Y-54856142D01*
X115343761Y-54879952D01*
X115391380Y-54927571D01*
X115415190Y-54999000D01*
X115415190Y-55118047D01*
X95277857Y-82625380D02*
X95349285Y-82649190D01*
X95468333Y-82649190D01*
X95515952Y-82625380D01*
X95539761Y-82601571D01*
X95563571Y-82553952D01*
X95563571Y-82506333D01*
X95539761Y-82458714D01*
X95515952Y-82434904D01*
X95468333Y-82411095D01*
X95373095Y-82387285D01*
X95325476Y-82363476D01*
X95301666Y-82339666D01*
X95277857Y-82292047D01*
X95277857Y-82244428D01*
X95301666Y-82196809D01*
X95325476Y-82173000D01*
X95373095Y-82149190D01*
X95492142Y-82149190D01*
X95563571Y-82173000D01*
X95777857Y-82649190D02*
X95777857Y-82149190D01*
X95896904Y-82149190D01*
X95968333Y-82173000D01*
X96015952Y-82220619D01*
X96039761Y-82268238D01*
X96063571Y-82363476D01*
X96063571Y-82434904D01*
X96039761Y-82530142D01*
X96015952Y-82577761D01*
X95968333Y-82625380D01*
X95896904Y-82649190D01*
X95777857Y-82649190D01*
X96254047Y-82506333D02*
X96492142Y-82506333D01*
X96206428Y-82649190D02*
X96373095Y-82149190D01*
X96539761Y-82649190D01*
D10*
X134406809Y-100242714D02*
X134406809Y-101052238D01*
X134359190Y-101147476D01*
X134311571Y-101195095D01*
X134216333Y-101242714D01*
X134073476Y-101242714D01*
X133978238Y-101195095D01*
X134406809Y-100861761D02*
X134311571Y-100909380D01*
X134121095Y-100909380D01*
X134025857Y-100861761D01*
X133978238Y-100814142D01*
X133930619Y-100718904D01*
X133930619Y-100433190D01*
X133978238Y-100337952D01*
X134025857Y-100290333D01*
X134121095Y-100242714D01*
X134311571Y-100242714D01*
X134406809Y-100290333D01*
X134883000Y-100909380D02*
X134883000Y-100242714D01*
X134883000Y-99909380D02*
X134835380Y-99957000D01*
X134883000Y-100004619D01*
X134930619Y-99957000D01*
X134883000Y-99909380D01*
X134883000Y-100004619D01*
X135216333Y-100242714D02*
X135597285Y-100242714D01*
X135359190Y-99909380D02*
X135359190Y-100766523D01*
X135406809Y-100861761D01*
X135502047Y-100909380D01*
X135597285Y-100909380D01*
X135930619Y-100909380D02*
X135930619Y-99909380D01*
X136359190Y-100909380D02*
X136359190Y-100385571D01*
X136311571Y-100290333D01*
X136216333Y-100242714D01*
X136073476Y-100242714D01*
X135978238Y-100290333D01*
X135930619Y-100337952D01*
X137263952Y-100242714D02*
X137263952Y-100909380D01*
X136835380Y-100242714D02*
X136835380Y-100766523D01*
X136883000Y-100861761D01*
X136978238Y-100909380D01*
X137121095Y-100909380D01*
X137216333Y-100861761D01*
X137263952Y-100814142D01*
X137740142Y-100909380D02*
X137740142Y-99909380D01*
X137740142Y-100290333D02*
X137835380Y-100242714D01*
X138025857Y-100242714D01*
X138121095Y-100290333D01*
X138168714Y-100337952D01*
X138216333Y-100433190D01*
X138216333Y-100718904D01*
X138168714Y-100814142D01*
X138121095Y-100861761D01*
X138025857Y-100909380D01*
X137835380Y-100909380D01*
X137740142Y-100861761D01*
X138644904Y-100814142D02*
X138692523Y-100861761D01*
X138644904Y-100909380D01*
X138597285Y-100861761D01*
X138644904Y-100814142D01*
X138644904Y-100909380D01*
X139549666Y-100861761D02*
X139454428Y-100909380D01*
X139263952Y-100909380D01*
X139168714Y-100861761D01*
X139121095Y-100814142D01*
X139073476Y-100718904D01*
X139073476Y-100433190D01*
X139121095Y-100337952D01*
X139168714Y-100290333D01*
X139263952Y-100242714D01*
X139454428Y-100242714D01*
X139549666Y-100290333D01*
X140121095Y-100909380D02*
X140025857Y-100861761D01*
X139978238Y-100814142D01*
X139930619Y-100718904D01*
X139930619Y-100433190D01*
X139978238Y-100337952D01*
X140025857Y-100290333D01*
X140121095Y-100242714D01*
X140263952Y-100242714D01*
X140359190Y-100290333D01*
X140406809Y-100337952D01*
X140454428Y-100433190D01*
X140454428Y-100718904D01*
X140406809Y-100814142D01*
X140359190Y-100861761D01*
X140263952Y-100909380D01*
X140121095Y-100909380D01*
X140883000Y-100909380D02*
X140883000Y-100242714D01*
X140883000Y-100337952D02*
X140930619Y-100290333D01*
X141025857Y-100242714D01*
X141168714Y-100242714D01*
X141263952Y-100290333D01*
X141311571Y-100385571D01*
X141311571Y-100909380D01*
X141311571Y-100385571D02*
X141359190Y-100290333D01*
X141454428Y-100242714D01*
X141597285Y-100242714D01*
X141692523Y-100290333D01*
X141740142Y-100385571D01*
X141740142Y-100909380D01*
X142930619Y-99861761D02*
X142073476Y-101147476D01*
X143263952Y-100909380D02*
X143263952Y-99909380D01*
X143359190Y-100528428D02*
X143644904Y-100909380D01*
X143644904Y-100242714D02*
X143263952Y-100623666D01*
X144073476Y-100909380D02*
X144073476Y-100242714D01*
X144073476Y-100433190D02*
X144121095Y-100337952D01*
X144168714Y-100290333D01*
X144263952Y-100242714D01*
X144359190Y-100242714D01*
X145121095Y-100909380D02*
X145121095Y-100385571D01*
X145073476Y-100290333D01*
X144978238Y-100242714D01*
X144787761Y-100242714D01*
X144692523Y-100290333D01*
X145121095Y-100861761D02*
X145025857Y-100909380D01*
X144787761Y-100909380D01*
X144692523Y-100861761D01*
X144644904Y-100766523D01*
X144644904Y-100671285D01*
X144692523Y-100576047D01*
X144787761Y-100528428D01*
X145025857Y-100528428D01*
X145121095Y-100480809D01*
X145597285Y-100909380D02*
X145597285Y-99909380D01*
X145692523Y-100528428D02*
X145978238Y-100909380D01*
X145978238Y-100242714D02*
X145597285Y-100623666D01*
X146787761Y-100861761D02*
X146692523Y-100909380D01*
X146502047Y-100909380D01*
X146406809Y-100861761D01*
X146359190Y-100766523D01*
X146359190Y-100385571D01*
X146406809Y-100290333D01*
X146502047Y-100242714D01*
X146692523Y-100242714D01*
X146787761Y-100290333D01*
X146835380Y-100385571D01*
X146835380Y-100480809D01*
X146359190Y-100576047D01*
X147263952Y-100242714D02*
X147263952Y-100909380D01*
X147263952Y-100337952D02*
X147311571Y-100290333D01*
X147406809Y-100242714D01*
X147549666Y-100242714D01*
X147644904Y-100290333D01*
X147692523Y-100385571D01*
X147692523Y-100909380D01*
X148168714Y-100528428D02*
X148930619Y-100528428D01*
X149406809Y-100242714D02*
X149406809Y-101099857D01*
X149359190Y-101195095D01*
X149263952Y-101242714D01*
X149216333Y-101242714D01*
X149406809Y-99909380D02*
X149359190Y-99957000D01*
X149406809Y-100004619D01*
X149454428Y-99957000D01*
X149406809Y-99909380D01*
X149406809Y-100004619D01*
X150025857Y-100909380D02*
X149930619Y-100861761D01*
X149883000Y-100814142D01*
X149835380Y-100718904D01*
X149835380Y-100433190D01*
X149883000Y-100337952D01*
X149930619Y-100290333D01*
X150025857Y-100242714D01*
X150168714Y-100242714D01*
X150263952Y-100290333D01*
X150311571Y-100337952D01*
X150359190Y-100433190D01*
X150359190Y-100718904D01*
X150311571Y-100814142D01*
X150263952Y-100861761D01*
X150168714Y-100909380D01*
X150025857Y-100909380D01*
X150787761Y-100909380D02*
X150787761Y-99909380D01*
X150883000Y-100528428D02*
X151168714Y-100909380D01*
X151168714Y-100242714D02*
X150787761Y-100623666D01*
X151978238Y-100861761D02*
X151883000Y-100909380D01*
X151692523Y-100909380D01*
X151597285Y-100861761D01*
X151549666Y-100766523D01*
X151549666Y-100385571D01*
X151597285Y-100290333D01*
X151692523Y-100242714D01*
X151883000Y-100242714D01*
X151978238Y-100290333D01*
X152025857Y-100385571D01*
X152025857Y-100480809D01*
X151549666Y-100576047D01*
X152406809Y-100861761D02*
X152502047Y-100909380D01*
X152692523Y-100909380D01*
X152787761Y-100861761D01*
X152835380Y-100766523D01*
X152835380Y-100718904D01*
X152787761Y-100623666D01*
X152692523Y-100576047D01*
X152549666Y-100576047D01*
X152454428Y-100528428D01*
X152406809Y-100433190D01*
X152406809Y-100385571D01*
X152454428Y-100290333D01*
X152549666Y-100242714D01*
X152692523Y-100242714D01*
X152787761Y-100290333D01*
X133287952Y-101893714D02*
X133668904Y-101893714D01*
X133430809Y-102560380D02*
X133430809Y-101703238D01*
X133478428Y-101608000D01*
X133573666Y-101560380D01*
X133668904Y-101560380D01*
X134430809Y-102560380D02*
X134430809Y-102036571D01*
X134383190Y-101941333D01*
X134287952Y-101893714D01*
X134097476Y-101893714D01*
X134002238Y-101941333D01*
X134430809Y-102512761D02*
X134335571Y-102560380D01*
X134097476Y-102560380D01*
X134002238Y-102512761D01*
X133954619Y-102417523D01*
X133954619Y-102322285D01*
X134002238Y-102227047D01*
X134097476Y-102179428D01*
X134335571Y-102179428D01*
X134430809Y-102131809D01*
X135335571Y-102512761D02*
X135240333Y-102560380D01*
X135049857Y-102560380D01*
X134954619Y-102512761D01*
X134907000Y-102465142D01*
X134859380Y-102369904D01*
X134859380Y-102084190D01*
X134907000Y-101988952D01*
X134954619Y-101941333D01*
X135049857Y-101893714D01*
X135240333Y-101893714D01*
X135335571Y-101941333D01*
X136145095Y-102512761D02*
X136049857Y-102560380D01*
X135859380Y-102560380D01*
X135764142Y-102512761D01*
X135716523Y-102417523D01*
X135716523Y-102036571D01*
X135764142Y-101941333D01*
X135859380Y-101893714D01*
X136049857Y-101893714D01*
X136145095Y-101941333D01*
X136192714Y-102036571D01*
X136192714Y-102131809D01*
X135716523Y-102227047D01*
X136621285Y-102560380D02*
X136621285Y-101560380D01*
X136621285Y-101941333D02*
X136716523Y-101893714D01*
X136907000Y-101893714D01*
X137002238Y-101941333D01*
X137049857Y-101988952D01*
X137097476Y-102084190D01*
X137097476Y-102369904D01*
X137049857Y-102465142D01*
X137002238Y-102512761D01*
X136907000Y-102560380D01*
X136716523Y-102560380D01*
X136621285Y-102512761D01*
X137668904Y-102560380D02*
X137573666Y-102512761D01*
X137526047Y-102465142D01*
X137478428Y-102369904D01*
X137478428Y-102084190D01*
X137526047Y-101988952D01*
X137573666Y-101941333D01*
X137668904Y-101893714D01*
X137811761Y-101893714D01*
X137907000Y-101941333D01*
X137954619Y-101988952D01*
X138002238Y-102084190D01*
X138002238Y-102369904D01*
X137954619Y-102465142D01*
X137907000Y-102512761D01*
X137811761Y-102560380D01*
X137668904Y-102560380D01*
X138573666Y-102560380D02*
X138478428Y-102512761D01*
X138430809Y-102465142D01*
X138383190Y-102369904D01*
X138383190Y-102084190D01*
X138430809Y-101988952D01*
X138478428Y-101941333D01*
X138573666Y-101893714D01*
X138716523Y-101893714D01*
X138811761Y-101941333D01*
X138859380Y-101988952D01*
X138907000Y-102084190D01*
X138907000Y-102369904D01*
X138859380Y-102465142D01*
X138811761Y-102512761D01*
X138716523Y-102560380D01*
X138573666Y-102560380D01*
X139335571Y-102560380D02*
X139335571Y-101560380D01*
X139430809Y-102179428D02*
X139716523Y-102560380D01*
X139716523Y-101893714D02*
X139335571Y-102274666D01*
X140145095Y-102465142D02*
X140192714Y-102512761D01*
X140145095Y-102560380D01*
X140097476Y-102512761D01*
X140145095Y-102465142D01*
X140145095Y-102560380D01*
X141049857Y-102512761D02*
X140954619Y-102560380D01*
X140764142Y-102560380D01*
X140668904Y-102512761D01*
X140621285Y-102465142D01*
X140573666Y-102369904D01*
X140573666Y-102084190D01*
X140621285Y-101988952D01*
X140668904Y-101941333D01*
X140764142Y-101893714D01*
X140954619Y-101893714D01*
X141049857Y-101941333D01*
X141621285Y-102560380D02*
X141526047Y-102512761D01*
X141478428Y-102465142D01*
X141430809Y-102369904D01*
X141430809Y-102084190D01*
X141478428Y-101988952D01*
X141526047Y-101941333D01*
X141621285Y-101893714D01*
X141764142Y-101893714D01*
X141859380Y-101941333D01*
X141907000Y-101988952D01*
X141954619Y-102084190D01*
X141954619Y-102369904D01*
X141907000Y-102465142D01*
X141859380Y-102512761D01*
X141764142Y-102560380D01*
X141621285Y-102560380D01*
X142383190Y-102560380D02*
X142383190Y-101893714D01*
X142383190Y-101988952D02*
X142430809Y-101941333D01*
X142526047Y-101893714D01*
X142668904Y-101893714D01*
X142764142Y-101941333D01*
X142811761Y-102036571D01*
X142811761Y-102560380D01*
X142811761Y-102036571D02*
X142859380Y-101941333D01*
X142954619Y-101893714D01*
X143097476Y-101893714D01*
X143192714Y-101941333D01*
X143240333Y-102036571D01*
X143240333Y-102560380D01*
X144430809Y-101512761D02*
X143573666Y-102798476D01*
X144764142Y-102560380D02*
X144764142Y-101893714D01*
X144764142Y-101988952D02*
X144811761Y-101941333D01*
X144907000Y-101893714D01*
X145049857Y-101893714D01*
X145145095Y-101941333D01*
X145192714Y-102036571D01*
X145192714Y-102560380D01*
X145192714Y-102036571D02*
X145240333Y-101941333D01*
X145335571Y-101893714D01*
X145478428Y-101893714D01*
X145573666Y-101941333D01*
X145621285Y-102036571D01*
X145621285Y-102560380D01*
X146240333Y-102560380D02*
X146145095Y-102512761D01*
X146097476Y-102465142D01*
X146049857Y-102369904D01*
X146049857Y-102084190D01*
X146097476Y-101988952D01*
X146145095Y-101941333D01*
X146240333Y-101893714D01*
X146383190Y-101893714D01*
X146478428Y-101941333D01*
X146526047Y-101988952D01*
X146573666Y-102084190D01*
X146573666Y-102369904D01*
X146526047Y-102465142D01*
X146478428Y-102512761D01*
X146383190Y-102560380D01*
X146240333Y-102560380D01*
X147145095Y-102560380D02*
X147049857Y-102512761D01*
X147002238Y-102465142D01*
X146954619Y-102369904D01*
X146954619Y-102084190D01*
X147002238Y-101988952D01*
X147049857Y-101941333D01*
X147145095Y-101893714D01*
X147287952Y-101893714D01*
X147383190Y-101941333D01*
X147430809Y-101988952D01*
X147478428Y-102084190D01*
X147478428Y-102369904D01*
X147430809Y-102465142D01*
X147383190Y-102512761D01*
X147287952Y-102560380D01*
X147145095Y-102560380D01*
X147907000Y-102560380D02*
X147907000Y-101893714D01*
X147907000Y-102084190D02*
X147954619Y-101988952D01*
X148002238Y-101941333D01*
X148097476Y-101893714D01*
X148192714Y-101893714D01*
X148907000Y-102512761D02*
X148811761Y-102560380D01*
X148621285Y-102560380D01*
X148526047Y-102512761D01*
X148478428Y-102417523D01*
X148478428Y-102036571D01*
X148526047Y-101941333D01*
X148621285Y-101893714D01*
X148811761Y-101893714D01*
X148907000Y-101941333D01*
X148954619Y-102036571D01*
X148954619Y-102131809D01*
X148478428Y-102227047D01*
X149383190Y-102560380D02*
X149383190Y-101560380D01*
X149478428Y-102179428D02*
X149764142Y-102560380D01*
X149764142Y-101893714D02*
X149383190Y-102274666D01*
X150573666Y-102512761D02*
X150478428Y-102560380D01*
X150287952Y-102560380D01*
X150192714Y-102512761D01*
X150145095Y-102417523D01*
X150145095Y-102036571D01*
X150192714Y-101941333D01*
X150287952Y-101893714D01*
X150478428Y-101893714D01*
X150573666Y-101941333D01*
X150621285Y-102036571D01*
X150621285Y-102131809D01*
X150145095Y-102227047D01*
X150954619Y-101893714D02*
X151192714Y-102560380D01*
X151430809Y-101893714D02*
X151192714Y-102560380D01*
X151097476Y-102798476D01*
X151049857Y-102846095D01*
X150954619Y-102893714D01*
X151811761Y-102560380D02*
X151811761Y-101560380D01*
X151811761Y-101941333D02*
X151907000Y-101893714D01*
X152097476Y-101893714D01*
X152192714Y-101941333D01*
X152240333Y-101988952D01*
X152287952Y-102084190D01*
X152287952Y-102369904D01*
X152240333Y-102465142D01*
X152192714Y-102512761D01*
X152097476Y-102560380D01*
X151907000Y-102560380D01*
X151811761Y-102512761D01*
X152859380Y-102560380D02*
X152764142Y-102512761D01*
X152716523Y-102465142D01*
X152668904Y-102369904D01*
X152668904Y-102084190D01*
X152716523Y-101988952D01*
X152764142Y-101941333D01*
X152859380Y-101893714D01*
X153002238Y-101893714D01*
X153097476Y-101941333D01*
X153145095Y-101988952D01*
X153192714Y-102084190D01*
X153192714Y-102369904D01*
X153145095Y-102465142D01*
X153097476Y-102512761D01*
X153002238Y-102560380D01*
X152859380Y-102560380D01*
X154049857Y-102560380D02*
X154049857Y-102036571D01*
X154002238Y-101941333D01*
X153907000Y-101893714D01*
X153716523Y-101893714D01*
X153621285Y-101941333D01*
X154049857Y-102512761D02*
X153954619Y-102560380D01*
X153716523Y-102560380D01*
X153621285Y-102512761D01*
X153573666Y-102417523D01*
X153573666Y-102322285D01*
X153621285Y-102227047D01*
X153716523Y-102179428D01*
X153954619Y-102179428D01*
X154049857Y-102131809D01*
X154526047Y-102560380D02*
X154526047Y-101893714D01*
X154526047Y-102084190D02*
X154573666Y-101988952D01*
X154621285Y-101941333D01*
X154716523Y-101893714D01*
X154811761Y-101893714D01*
X155573666Y-102560380D02*
X155573666Y-101560380D01*
X155573666Y-102512761D02*
X155478428Y-102560380D01*
X155287952Y-102560380D01*
X155192714Y-102512761D01*
X155145095Y-102465142D01*
X155097476Y-102369904D01*
X155097476Y-102084190D01*
X155145095Y-101988952D01*
X155192714Y-101941333D01*
X155287952Y-101893714D01*
X155478428Y-101893714D01*
X155573666Y-101941333D01*
X156002238Y-102512761D02*
X156097476Y-102560380D01*
X156287952Y-102560380D01*
X156383190Y-102512761D01*
X156430809Y-102417523D01*
X156430809Y-102369904D01*
X156383190Y-102274666D01*
X156287952Y-102227047D01*
X156145095Y-102227047D01*
X156049857Y-102179428D01*
X156002238Y-102084190D01*
X156002238Y-102036571D01*
X156049857Y-101941333D01*
X156145095Y-101893714D01*
X156287952Y-101893714D01*
X156383190Y-101941333D01*
X159243761Y-104433714D02*
X159243761Y-105243238D01*
X159196142Y-105338476D01*
X159148523Y-105386095D01*
X159053285Y-105433714D01*
X158910428Y-105433714D01*
X158815190Y-105386095D01*
X159243761Y-105052761D02*
X159148523Y-105100380D01*
X158958047Y-105100380D01*
X158862809Y-105052761D01*
X158815190Y-105005142D01*
X158767571Y-104909904D01*
X158767571Y-104624190D01*
X158815190Y-104528952D01*
X158862809Y-104481333D01*
X158958047Y-104433714D01*
X159148523Y-104433714D01*
X159243761Y-104481333D01*
X159719952Y-105100380D02*
X159719952Y-104433714D01*
X159719952Y-104100380D02*
X159672333Y-104148000D01*
X159719952Y-104195619D01*
X159767571Y-104148000D01*
X159719952Y-104100380D01*
X159719952Y-104195619D01*
X160053285Y-104433714D02*
X160434238Y-104433714D01*
X160196142Y-104100380D02*
X160196142Y-104957523D01*
X160243761Y-105052761D01*
X160339000Y-105100380D01*
X160434238Y-105100380D01*
X160767571Y-105100380D02*
X160767571Y-104100380D01*
X161196142Y-105100380D02*
X161196142Y-104576571D01*
X161148523Y-104481333D01*
X161053285Y-104433714D01*
X160910428Y-104433714D01*
X160815190Y-104481333D01*
X160767571Y-104528952D01*
X162100904Y-104433714D02*
X162100904Y-105100380D01*
X161672333Y-104433714D02*
X161672333Y-104957523D01*
X161719952Y-105052761D01*
X161815190Y-105100380D01*
X161958047Y-105100380D01*
X162053285Y-105052761D01*
X162100904Y-105005142D01*
X162577095Y-105100380D02*
X162577095Y-104100380D01*
X162577095Y-104481333D02*
X162672333Y-104433714D01*
X162862809Y-104433714D01*
X162958047Y-104481333D01*
X163005666Y-104528952D01*
X163053285Y-104624190D01*
X163053285Y-104909904D01*
X163005666Y-105005142D01*
X162958047Y-105052761D01*
X162862809Y-105100380D01*
X162672333Y-105100380D01*
X162577095Y-105052761D01*
X163481857Y-105005142D02*
X163529476Y-105052761D01*
X163481857Y-105100380D01*
X163434238Y-105052761D01*
X163481857Y-105005142D01*
X163481857Y-105100380D01*
X164386619Y-105052761D02*
X164291380Y-105100380D01*
X164100904Y-105100380D01*
X164005666Y-105052761D01*
X163958047Y-105005142D01*
X163910428Y-104909904D01*
X163910428Y-104624190D01*
X163958047Y-104528952D01*
X164005666Y-104481333D01*
X164100904Y-104433714D01*
X164291380Y-104433714D01*
X164386619Y-104481333D01*
X164958047Y-105100380D02*
X164862809Y-105052761D01*
X164815190Y-105005142D01*
X164767571Y-104909904D01*
X164767571Y-104624190D01*
X164815190Y-104528952D01*
X164862809Y-104481333D01*
X164958047Y-104433714D01*
X165100904Y-104433714D01*
X165196142Y-104481333D01*
X165243761Y-104528952D01*
X165291380Y-104624190D01*
X165291380Y-104909904D01*
X165243761Y-105005142D01*
X165196142Y-105052761D01*
X165100904Y-105100380D01*
X164958047Y-105100380D01*
X165719952Y-105100380D02*
X165719952Y-104433714D01*
X165719952Y-104528952D02*
X165767571Y-104481333D01*
X165862809Y-104433714D01*
X166005666Y-104433714D01*
X166100904Y-104481333D01*
X166148523Y-104576571D01*
X166148523Y-105100380D01*
X166148523Y-104576571D02*
X166196142Y-104481333D01*
X166291380Y-104433714D01*
X166434238Y-104433714D01*
X166529476Y-104481333D01*
X166577095Y-104576571D01*
X166577095Y-105100380D01*
X167767571Y-104052761D02*
X166910428Y-105338476D01*
X168434238Y-104576571D02*
X168100904Y-104576571D01*
X168100904Y-105100380D02*
X168100904Y-104100380D01*
X168577095Y-104100380D01*
X168910428Y-105052761D02*
X169053285Y-105100380D01*
X169291380Y-105100380D01*
X169386619Y-105052761D01*
X169434238Y-105005142D01*
X169481857Y-104909904D01*
X169481857Y-104814666D01*
X169434238Y-104719428D01*
X169386619Y-104671809D01*
X169291380Y-104624190D01*
X169100904Y-104576571D01*
X169005666Y-104528952D01*
X168958047Y-104481333D01*
X168910428Y-104386095D01*
X168910428Y-104290857D01*
X168958047Y-104195619D01*
X169005666Y-104148000D01*
X169100904Y-104100380D01*
X169338999Y-104100380D01*
X169481857Y-104148000D01*
X170338999Y-104433714D02*
X170338999Y-105100380D01*
X169910428Y-104433714D02*
X169910428Y-104957523D01*
X169958047Y-105052761D01*
X170053285Y-105100380D01*
X170196142Y-105100380D01*
X170291380Y-105052761D01*
X170338999Y-105005142D01*
X170815190Y-104433714D02*
X170815190Y-105100380D01*
X170815190Y-104528952D02*
X170862809Y-104481333D01*
X170958047Y-104433714D01*
X171100904Y-104433714D01*
X171196142Y-104481333D01*
X171243761Y-104576571D01*
X171243761Y-105100380D01*
X172148523Y-105100380D02*
X172148523Y-104100380D01*
X172148523Y-105052761D02*
X172053285Y-105100380D01*
X171862809Y-105100380D01*
X171767571Y-105052761D01*
X171719952Y-105005142D01*
X171672333Y-104909904D01*
X171672333Y-104624190D01*
X171719952Y-104528952D01*
X171767571Y-104481333D01*
X171862809Y-104433714D01*
X172053285Y-104433714D01*
X172148523Y-104481333D01*
X173338999Y-104052761D02*
X172481857Y-105338476D01*
X173672333Y-104433714D02*
X173672333Y-105433714D01*
X173672333Y-104481333D02*
X173767571Y-104433714D01*
X173958047Y-104433714D01*
X174053285Y-104481333D01*
X174100904Y-104528952D01*
X174148523Y-104624190D01*
X174148523Y-104909904D01*
X174100904Y-105005142D01*
X174053285Y-105052761D01*
X173958047Y-105100380D01*
X173767571Y-105100380D01*
X173672333Y-105052761D01*
X174434238Y-104433714D02*
X174815190Y-104433714D01*
X174577095Y-104100380D02*
X174577095Y-104957523D01*
X174624714Y-105052761D01*
X174719952Y-105100380D01*
X174815190Y-105100380D01*
X175529476Y-105052761D02*
X175434238Y-105100380D01*
X175243761Y-105100380D01*
X175148523Y-105052761D01*
X175100904Y-104957523D01*
X175100904Y-104576571D01*
X175148523Y-104481333D01*
X175243761Y-104433714D01*
X175434238Y-104433714D01*
X175529476Y-104481333D01*
X175577095Y-104576571D01*
X175577095Y-104671809D01*
X175100904Y-104767047D01*
X176005666Y-105100380D02*
X176005666Y-104433714D01*
X176005666Y-104624190D02*
X176053285Y-104528952D01*
X176100904Y-104481333D01*
X176196142Y-104433714D01*
X176291380Y-104433714D01*
X176767571Y-105100380D02*
X176672333Y-105052761D01*
X176624714Y-105005142D01*
X176577095Y-104909904D01*
X176577095Y-104624190D01*
X176624714Y-104528952D01*
X176672333Y-104481333D01*
X176767571Y-104433714D01*
X176910428Y-104433714D01*
X177005666Y-104481333D01*
X177053285Y-104528952D01*
X177100904Y-104624190D01*
X177100904Y-104909904D01*
X177053285Y-105005142D01*
X177005666Y-105052761D01*
X176910428Y-105100380D01*
X176767571Y-105100380D01*
X177529476Y-104433714D02*
X177529476Y-105100380D01*
X177529476Y-104528952D02*
X177577095Y-104481333D01*
X177672333Y-104433714D01*
X177815190Y-104433714D01*
X177910428Y-104481333D01*
X177958047Y-104576571D01*
X177958047Y-105100380D01*
X178434238Y-104719428D02*
X179196142Y-104719428D01*
X179672333Y-105100380D02*
X179672333Y-104100380D01*
X179767571Y-104719428D02*
X180053285Y-105100380D01*
X180053285Y-104433714D02*
X179672333Y-104814666D01*
X180862809Y-105052761D02*
X180767571Y-105100380D01*
X180577095Y-105100380D01*
X180481857Y-105052761D01*
X180434238Y-104957523D01*
X180434238Y-104576571D01*
X180481857Y-104481333D01*
X180577095Y-104433714D01*
X180767571Y-104433714D01*
X180862809Y-104481333D01*
X180910428Y-104576571D01*
X180910428Y-104671809D01*
X180434238Y-104767047D01*
X181243761Y-104433714D02*
X181481857Y-105100380D01*
X181719952Y-104433714D02*
X181481857Y-105100380D01*
X181386619Y-105338476D01*
X181338999Y-105386095D01*
X181243761Y-105433714D01*
X182100904Y-105100380D02*
X182100904Y-104100380D01*
X182100904Y-104481333D02*
X182196142Y-104433714D01*
X182386619Y-104433714D01*
X182481857Y-104481333D01*
X182529476Y-104528952D01*
X182577095Y-104624190D01*
X182577095Y-104909904D01*
X182529476Y-105005142D01*
X182481857Y-105052761D01*
X182386619Y-105100380D01*
X182196142Y-105100380D01*
X182100904Y-105052761D01*
X183148523Y-105100380D02*
X183053285Y-105052761D01*
X183005666Y-105005142D01*
X182958047Y-104909904D01*
X182958047Y-104624190D01*
X183005666Y-104528952D01*
X183053285Y-104481333D01*
X183148523Y-104433714D01*
X183291380Y-104433714D01*
X183386619Y-104481333D01*
X183434238Y-104528952D01*
X183481857Y-104624190D01*
X183481857Y-104909904D01*
X183434238Y-105005142D01*
X183386619Y-105052761D01*
X183291380Y-105100380D01*
X183148523Y-105100380D01*
X184338999Y-105100380D02*
X184338999Y-104576571D01*
X184291380Y-104481333D01*
X184196142Y-104433714D01*
X184005666Y-104433714D01*
X183910428Y-104481333D01*
X184338999Y-105052761D02*
X184243761Y-105100380D01*
X184005666Y-105100380D01*
X183910428Y-105052761D01*
X183862809Y-104957523D01*
X183862809Y-104862285D01*
X183910428Y-104767047D01*
X184005666Y-104719428D01*
X184243761Y-104719428D01*
X184338999Y-104671809D01*
X184815190Y-105100380D02*
X184815190Y-104433714D01*
X184815190Y-104624190D02*
X184862809Y-104528952D01*
X184910428Y-104481333D01*
X185005666Y-104433714D01*
X185100904Y-104433714D01*
X185862809Y-105100380D02*
X185862809Y-104100380D01*
X185862809Y-105052761D02*
X185767571Y-105100380D01*
X185577095Y-105100380D01*
X185481857Y-105052761D01*
X185434238Y-105005142D01*
X185386619Y-104909904D01*
X185386619Y-104624190D01*
X185434238Y-104528952D01*
X185481857Y-104481333D01*
X185577095Y-104433714D01*
X185767571Y-104433714D01*
X185862809Y-104481333D01*
D12*
X162958000Y-100012571D02*
X162958000Y-98512571D01*
X163529428Y-98512571D01*
X163672285Y-98584000D01*
X163743714Y-98655428D01*
X163815142Y-98798285D01*
X163815142Y-99012571D01*
X163743714Y-99155428D01*
X163672285Y-99226857D01*
X163529428Y-99298285D01*
X162958000Y-99298285D01*
X164243714Y-99012571D02*
X164815142Y-99012571D01*
X164458000Y-98512571D02*
X164458000Y-99798285D01*
X164529428Y-99941142D01*
X164672285Y-100012571D01*
X164815142Y-100012571D01*
X165886571Y-99941142D02*
X165743714Y-100012571D01*
X165458000Y-100012571D01*
X165315142Y-99941142D01*
X165243714Y-99798285D01*
X165243714Y-99226857D01*
X165315142Y-99084000D01*
X165458000Y-99012571D01*
X165743714Y-99012571D01*
X165886571Y-99084000D01*
X165958000Y-99226857D01*
X165958000Y-99369714D01*
X165243714Y-99512571D01*
X166600857Y-100012571D02*
X166600857Y-99012571D01*
X166600857Y-99298285D02*
X166672285Y-99155428D01*
X166743714Y-99084000D01*
X166886571Y-99012571D01*
X167029428Y-99012571D01*
X167743714Y-100012571D02*
X167600857Y-99941142D01*
X167529428Y-99869714D01*
X167458000Y-99726857D01*
X167458000Y-99298285D01*
X167529428Y-99155428D01*
X167600857Y-99084000D01*
X167743714Y-99012571D01*
X167958000Y-99012571D01*
X168100857Y-99084000D01*
X168172285Y-99155428D01*
X168243714Y-99298285D01*
X168243714Y-99726857D01*
X168172285Y-99869714D01*
X168100857Y-99941142D01*
X167958000Y-100012571D01*
X167743714Y-100012571D01*
X168886571Y-99012571D02*
X168886571Y-100012571D01*
X168886571Y-99155428D02*
X168958000Y-99084000D01*
X169100857Y-99012571D01*
X169315142Y-99012571D01*
X169458000Y-99084000D01*
X169529428Y-99226857D01*
X169529428Y-100012571D01*
X171386571Y-100012571D02*
X171386571Y-98512571D01*
X172243714Y-100012571D02*
X171600857Y-99155428D01*
X172243714Y-98512571D02*
X171386571Y-99369714D01*
X173458000Y-99941142D02*
X173315142Y-100012571D01*
X173029428Y-100012571D01*
X172886571Y-99941142D01*
X172815142Y-99798285D01*
X172815142Y-99226857D01*
X172886571Y-99084000D01*
X173029428Y-99012571D01*
X173315142Y-99012571D01*
X173458000Y-99084000D01*
X173529428Y-99226857D01*
X173529428Y-99369714D01*
X172815142Y-99512571D01*
X174029428Y-99012571D02*
X174386571Y-100012571D01*
X174743714Y-99012571D02*
X174386571Y-100012571D01*
X174243714Y-100369714D01*
X174172285Y-100441142D01*
X174029428Y-100512571D01*
X175315142Y-100012571D02*
X175315142Y-98512571D01*
X175315142Y-99084000D02*
X175458000Y-99012571D01*
X175743714Y-99012571D01*
X175886571Y-99084000D01*
X175958000Y-99155428D01*
X176029428Y-99298285D01*
X176029428Y-99726857D01*
X175958000Y-99869714D01*
X175886571Y-99941142D01*
X175743714Y-100012571D01*
X175458000Y-100012571D01*
X175315142Y-99941142D01*
X176886571Y-100012571D02*
X176743714Y-99941142D01*
X176672285Y-99869714D01*
X176600857Y-99726857D01*
X176600857Y-99298285D01*
X176672285Y-99155428D01*
X176743714Y-99084000D01*
X176886571Y-99012571D01*
X177100857Y-99012571D01*
X177243714Y-99084000D01*
X177315142Y-99155428D01*
X177386571Y-99298285D01*
X177386571Y-99726857D01*
X177315142Y-99869714D01*
X177243714Y-99941142D01*
X177100857Y-100012571D01*
X176886571Y-100012571D01*
X178672285Y-100012571D02*
X178672285Y-99226857D01*
X178600857Y-99084000D01*
X178458000Y-99012571D01*
X178172285Y-99012571D01*
X178029428Y-99084000D01*
X178672285Y-99941142D02*
X178529428Y-100012571D01*
X178172285Y-100012571D01*
X178029428Y-99941142D01*
X177958000Y-99798285D01*
X177958000Y-99655428D01*
X178029428Y-99512571D01*
X178172285Y-99441142D01*
X178529428Y-99441142D01*
X178672285Y-99369714D01*
X179386571Y-100012571D02*
X179386571Y-99012571D01*
X179386571Y-99298285D02*
X179458000Y-99155428D01*
X179529428Y-99084000D01*
X179672285Y-99012571D01*
X179815142Y-99012571D01*
X180958000Y-100012571D02*
X180958000Y-98512571D01*
X180958000Y-99941142D02*
X180815142Y-100012571D01*
X180529428Y-100012571D01*
X180386571Y-99941142D01*
X180315142Y-99869714D01*
X180243714Y-99726857D01*
X180243714Y-99298285D01*
X180315142Y-99155428D01*
X180386571Y-99084000D01*
X180529428Y-99012571D01*
X180815142Y-99012571D01*
X180958000Y-99084000D01*
X162208000Y-102512571D02*
X162208000Y-101012571D01*
X162208000Y-102441142D02*
X162065142Y-102512571D01*
X161779428Y-102512571D01*
X161636571Y-102441142D01*
X161565142Y-102369714D01*
X161493714Y-102226857D01*
X161493714Y-101798285D01*
X161565142Y-101655428D01*
X161636571Y-101584000D01*
X161779428Y-101512571D01*
X162065142Y-101512571D01*
X162208000Y-101584000D01*
X163493714Y-102441142D02*
X163350857Y-102512571D01*
X163065142Y-102512571D01*
X162922285Y-102441142D01*
X162850857Y-102298285D01*
X162850857Y-101726857D01*
X162922285Y-101584000D01*
X163065142Y-101512571D01*
X163350857Y-101512571D01*
X163493714Y-101584000D01*
X163565142Y-101726857D01*
X163565142Y-101869714D01*
X162850857Y-102012571D01*
X164136571Y-102441142D02*
X164279428Y-102512571D01*
X164565142Y-102512571D01*
X164708000Y-102441142D01*
X164779428Y-102298285D01*
X164779428Y-102226857D01*
X164708000Y-102084000D01*
X164565142Y-102012571D01*
X164350857Y-102012571D01*
X164208000Y-101941142D01*
X164136571Y-101798285D01*
X164136571Y-101726857D01*
X164208000Y-101584000D01*
X164350857Y-101512571D01*
X164565142Y-101512571D01*
X164708000Y-101584000D01*
X165422285Y-102512571D02*
X165422285Y-101512571D01*
X165422285Y-101012571D02*
X165350857Y-101084000D01*
X165422285Y-101155428D01*
X165493714Y-101084000D01*
X165422285Y-101012571D01*
X165422285Y-101155428D01*
X166779428Y-101512571D02*
X166779428Y-102726857D01*
X166708000Y-102869714D01*
X166636571Y-102941142D01*
X166493714Y-103012571D01*
X166279428Y-103012571D01*
X166136571Y-102941142D01*
X166779428Y-102441142D02*
X166636571Y-102512571D01*
X166350857Y-102512571D01*
X166208000Y-102441142D01*
X166136571Y-102369714D01*
X166065142Y-102226857D01*
X166065142Y-101798285D01*
X166136571Y-101655428D01*
X166208000Y-101584000D01*
X166350857Y-101512571D01*
X166636571Y-101512571D01*
X166779428Y-101584000D01*
X167493714Y-101512571D02*
X167493714Y-102512571D01*
X167493714Y-101655428D02*
X167565142Y-101584000D01*
X167708000Y-101512571D01*
X167922285Y-101512571D01*
X168065142Y-101584000D01*
X168136571Y-101726857D01*
X168136571Y-102512571D01*
X169422285Y-102441142D02*
X169279428Y-102512571D01*
X168993714Y-102512571D01*
X168850857Y-102441142D01*
X168779428Y-102298285D01*
X168779428Y-101726857D01*
X168850857Y-101584000D01*
X168993714Y-101512571D01*
X169279428Y-101512571D01*
X169422285Y-101584000D01*
X169493714Y-101726857D01*
X169493714Y-101869714D01*
X168779428Y-102012571D01*
X170779428Y-102512571D02*
X170779428Y-101012571D01*
X170779428Y-102441142D02*
X170636571Y-102512571D01*
X170350857Y-102512571D01*
X170208000Y-102441142D01*
X170136571Y-102369714D01*
X170065142Y-102226857D01*
X170065142Y-101798285D01*
X170136571Y-101655428D01*
X170208000Y-101584000D01*
X170350857Y-101512571D01*
X170636571Y-101512571D01*
X170779428Y-101584000D01*
X172636571Y-102512571D02*
X172636571Y-101012571D01*
X172636571Y-101584000D02*
X172779428Y-101512571D01*
X173065142Y-101512571D01*
X173208000Y-101584000D01*
X173279428Y-101655428D01*
X173350857Y-101798285D01*
X173350857Y-102226857D01*
X173279428Y-102369714D01*
X173208000Y-102441142D01*
X173065142Y-102512571D01*
X172779428Y-102512571D01*
X172636571Y-102441142D01*
X173850857Y-101512571D02*
X174208000Y-102512571D01*
X174565142Y-101512571D02*
X174208000Y-102512571D01*
X174065142Y-102869714D01*
X173993714Y-102941142D01*
X173850857Y-103012571D01*
X176779428Y-101726857D02*
X176279428Y-101726857D01*
X176279428Y-102512571D02*
X176279428Y-101012571D01*
X176993714Y-101012571D01*
X177493714Y-102441142D02*
X177708000Y-102512571D01*
X178065142Y-102512571D01*
X178208000Y-102441142D01*
X178279428Y-102369714D01*
X178350857Y-102226857D01*
X178350857Y-102084000D01*
X178279428Y-101941142D01*
X178208000Y-101869714D01*
X178065142Y-101798285D01*
X177779428Y-101726857D01*
X177636571Y-101655428D01*
X177565142Y-101584000D01*
X177493714Y-101441142D01*
X177493714Y-101298285D01*
X177565142Y-101155428D01*
X177636571Y-101084000D01*
X177779428Y-101012571D01*
X178136571Y-101012571D01*
X178350857Y-101084000D01*
X179636571Y-101512571D02*
X179636571Y-102512571D01*
X178993714Y-101512571D02*
X178993714Y-102298285D01*
X179065142Y-102441142D01*
X179208000Y-102512571D01*
X179422285Y-102512571D01*
X179565142Y-102441142D01*
X179636571Y-102369714D01*
X180350857Y-101512571D02*
X180350857Y-102512571D01*
X180350857Y-101655428D02*
X180422285Y-101584000D01*
X180565142Y-101512571D01*
X180779428Y-101512571D01*
X180922285Y-101584000D01*
X180993714Y-101726857D01*
X180993714Y-102512571D01*
X182350857Y-102512571D02*
X182350857Y-101012571D01*
X182350857Y-102441142D02*
X182208000Y-102512571D01*
X181922285Y-102512571D01*
X181779428Y-102441142D01*
X181708000Y-102369714D01*
X181636571Y-102226857D01*
X181636571Y-101798285D01*
X181708000Y-101655428D01*
X181779428Y-101584000D01*
X181922285Y-101512571D01*
X182208000Y-101512571D01*
X182350857Y-101584000D01*
D10*
X81281809Y-97051761D02*
X81424666Y-97099380D01*
X81662761Y-97099380D01*
X81758000Y-97051761D01*
X81805619Y-97004142D01*
X81853238Y-96908904D01*
X81853238Y-96813666D01*
X81805619Y-96718428D01*
X81758000Y-96670809D01*
X81662761Y-96623190D01*
X81472285Y-96575571D01*
X81377047Y-96527952D01*
X81329428Y-96480333D01*
X81281809Y-96385095D01*
X81281809Y-96289857D01*
X81329428Y-96194619D01*
X81377047Y-96147000D01*
X81472285Y-96099380D01*
X81710380Y-96099380D01*
X81853238Y-96147000D01*
X82281809Y-96432714D02*
X82281809Y-97432714D01*
X82281809Y-96480333D02*
X82377047Y-96432714D01*
X82567523Y-96432714D01*
X82662761Y-96480333D01*
X82710380Y-96527952D01*
X82758000Y-96623190D01*
X82758000Y-96908904D01*
X82710380Y-97004142D01*
X82662761Y-97051761D01*
X82567523Y-97099380D01*
X82377047Y-97099380D01*
X82281809Y-97051761D01*
X83329428Y-97099380D02*
X83234190Y-97051761D01*
X83186571Y-96956523D01*
X83186571Y-96099380D01*
X83710380Y-97099380D02*
X83710380Y-96432714D01*
X83710380Y-96099380D02*
X83662761Y-96147000D01*
X83710380Y-96194619D01*
X83758000Y-96147000D01*
X83710380Y-96099380D01*
X83710380Y-96194619D01*
X84043714Y-96432714D02*
X84424666Y-96432714D01*
X84186571Y-96099380D02*
X84186571Y-96956523D01*
X84234190Y-97051761D01*
X84329428Y-97099380D01*
X84424666Y-97099380D01*
X85519904Y-97099380D02*
X85519904Y-96099380D01*
X85900857Y-96099380D01*
X85996095Y-96147000D01*
X86043714Y-96194619D01*
X86091333Y-96289857D01*
X86091333Y-96432714D01*
X86043714Y-96527952D01*
X85996095Y-96575571D01*
X85900857Y-96623190D01*
X85519904Y-96623190D01*
X87091333Y-97004142D02*
X87043714Y-97051761D01*
X86900857Y-97099380D01*
X86805619Y-97099380D01*
X86662761Y-97051761D01*
X86567523Y-96956523D01*
X86519904Y-96861285D01*
X86472285Y-96670809D01*
X86472285Y-96527952D01*
X86519904Y-96337476D01*
X86567523Y-96242238D01*
X86662761Y-96147000D01*
X86805619Y-96099380D01*
X86900857Y-96099380D01*
X87043714Y-96147000D01*
X87091333Y-96194619D01*
X87853238Y-96575571D02*
X87996095Y-96623190D01*
X88043714Y-96670809D01*
X88091333Y-96766047D01*
X88091333Y-96908904D01*
X88043714Y-97004142D01*
X87996095Y-97051761D01*
X87900857Y-97099380D01*
X87519904Y-97099380D01*
X87519904Y-96099380D01*
X87853238Y-96099380D01*
X87948476Y-96147000D01*
X87996095Y-96194619D01*
X88043714Y-96289857D01*
X88043714Y-96385095D01*
X87996095Y-96480333D01*
X87948476Y-96527952D01*
X87853238Y-96575571D01*
X87519904Y-96575571D01*
X89710380Y-97099380D02*
X89710380Y-96099380D01*
X89710380Y-97051761D02*
X89615142Y-97099380D01*
X89424666Y-97099380D01*
X89329428Y-97051761D01*
X89281809Y-97004142D01*
X89234190Y-96908904D01*
X89234190Y-96623190D01*
X89281809Y-96527952D01*
X89329428Y-96480333D01*
X89424666Y-96432714D01*
X89615142Y-96432714D01*
X89710380Y-96480333D01*
X90567523Y-97051761D02*
X90472285Y-97099380D01*
X90281809Y-97099380D01*
X90186571Y-97051761D01*
X90138952Y-96956523D01*
X90138952Y-96575571D01*
X90186571Y-96480333D01*
X90281809Y-96432714D01*
X90472285Y-96432714D01*
X90567523Y-96480333D01*
X90615142Y-96575571D01*
X90615142Y-96670809D01*
X90138952Y-96766047D01*
X90996095Y-97051761D02*
X91091333Y-97099380D01*
X91281809Y-97099380D01*
X91377047Y-97051761D01*
X91424666Y-96956523D01*
X91424666Y-96908904D01*
X91377047Y-96813666D01*
X91281809Y-96766047D01*
X91138952Y-96766047D01*
X91043714Y-96718428D01*
X90996095Y-96623190D01*
X90996095Y-96575571D01*
X91043714Y-96480333D01*
X91138952Y-96432714D01*
X91281809Y-96432714D01*
X91377047Y-96480333D01*
X91853238Y-97099380D02*
X91853238Y-96432714D01*
X91853238Y-96099380D02*
X91805619Y-96147000D01*
X91853238Y-96194619D01*
X91900857Y-96147000D01*
X91853238Y-96099380D01*
X91853238Y-96194619D01*
X92758000Y-96432714D02*
X92758000Y-97242238D01*
X92710380Y-97337476D01*
X92662761Y-97385095D01*
X92567523Y-97432714D01*
X92424666Y-97432714D01*
X92329428Y-97385095D01*
X92758000Y-97051761D02*
X92662761Y-97099380D01*
X92472285Y-97099380D01*
X92377047Y-97051761D01*
X92329428Y-97004142D01*
X92281809Y-96908904D01*
X92281809Y-96623190D01*
X92329428Y-96527952D01*
X92377047Y-96480333D01*
X92472285Y-96432714D01*
X92662761Y-96432714D01*
X92758000Y-96480333D01*
X93234190Y-96432714D02*
X93234190Y-97099380D01*
X93234190Y-96527952D02*
X93281809Y-96480333D01*
X93377047Y-96432714D01*
X93519904Y-96432714D01*
X93615142Y-96480333D01*
X93662761Y-96575571D01*
X93662761Y-97099380D01*
X94519904Y-97051761D02*
X94424666Y-97099380D01*
X94234190Y-97099380D01*
X94138952Y-97051761D01*
X94091333Y-96956523D01*
X94091333Y-96575571D01*
X94138952Y-96480333D01*
X94234190Y-96432714D01*
X94424666Y-96432714D01*
X94519904Y-96480333D01*
X94567523Y-96575571D01*
X94567523Y-96670809D01*
X94091333Y-96766047D01*
X95424666Y-97099380D02*
X95424666Y-96099380D01*
X95424666Y-97051761D02*
X95329428Y-97099380D01*
X95138952Y-97099380D01*
X95043714Y-97051761D01*
X94996095Y-97004142D01*
X94948476Y-96908904D01*
X94948476Y-96623190D01*
X94996095Y-96527952D01*
X95043714Y-96480333D01*
X95138952Y-96432714D01*
X95329428Y-96432714D01*
X95424666Y-96480333D01*
X96519904Y-96432714D02*
X96900857Y-96432714D01*
X96662761Y-97099380D02*
X96662761Y-96242238D01*
X96710380Y-96147000D01*
X96805619Y-96099380D01*
X96900857Y-96099380D01*
X97377047Y-97099380D02*
X97281809Y-97051761D01*
X97234190Y-97004142D01*
X97186571Y-96908904D01*
X97186571Y-96623190D01*
X97234190Y-96527952D01*
X97281809Y-96480333D01*
X97377047Y-96432714D01*
X97519904Y-96432714D01*
X97615142Y-96480333D01*
X97662761Y-96527952D01*
X97710380Y-96623190D01*
X97710380Y-96908904D01*
X97662761Y-97004142D01*
X97615142Y-97051761D01*
X97519904Y-97099380D01*
X97377047Y-97099380D01*
X98138952Y-97099380D02*
X98138952Y-96432714D01*
X98138952Y-96623190D02*
X98186571Y-96527952D01*
X98234190Y-96480333D01*
X98329428Y-96432714D01*
X98424666Y-96432714D01*
X99519904Y-97099380D02*
X99519904Y-96432714D01*
X99519904Y-96527952D02*
X99567523Y-96480333D01*
X99662761Y-96432714D01*
X99805619Y-96432714D01*
X99900857Y-96480333D01*
X99948476Y-96575571D01*
X99948476Y-97099380D01*
X99948476Y-96575571D02*
X99996095Y-96480333D01*
X100091333Y-96432714D01*
X100234190Y-96432714D01*
X100329428Y-96480333D01*
X100377047Y-96575571D01*
X100377047Y-97099380D01*
X100853238Y-97099380D02*
X100853238Y-96432714D01*
X100853238Y-96099380D02*
X100805619Y-96147000D01*
X100853238Y-96194619D01*
X100900857Y-96147000D01*
X100853238Y-96099380D01*
X100853238Y-96194619D01*
X101329428Y-97099380D02*
X101329428Y-96432714D01*
X101329428Y-96623190D02*
X101377047Y-96527952D01*
X101424666Y-96480333D01*
X101519904Y-96432714D01*
X101615142Y-96432714D01*
X101853238Y-96432714D02*
X102091333Y-97099380D01*
X102329428Y-96432714D02*
X102091333Y-97099380D01*
X101996095Y-97337476D01*
X101948476Y-97385095D01*
X101853238Y-97432714D01*
X102853238Y-97099380D02*
X102758000Y-97051761D01*
X102710380Y-97004142D01*
X102662761Y-96908904D01*
X102662761Y-96623190D01*
X102710380Y-96527952D01*
X102758000Y-96480333D01*
X102853238Y-96432714D01*
X102996095Y-96432714D01*
X103091333Y-96480333D01*
X103138952Y-96527952D01*
X103186571Y-96623190D01*
X103186571Y-96908904D01*
X103138952Y-97004142D01*
X103091333Y-97051761D01*
X102996095Y-97099380D01*
X102853238Y-97099380D01*
X103615142Y-97099380D02*
X103615142Y-96099380D01*
X103710380Y-96718428D02*
X103996095Y-97099380D01*
X103996095Y-96432714D02*
X103615142Y-96813666D01*
X104853238Y-96432714D02*
X104853238Y-97099380D01*
X104424666Y-96432714D02*
X104424666Y-96956523D01*
X104472285Y-97051761D01*
X104567523Y-97099380D01*
X104710380Y-97099380D01*
X104805619Y-97051761D01*
X104853238Y-97004142D01*
X106234190Y-97099380D02*
X106138952Y-97051761D01*
X106091333Y-96956523D01*
X106091333Y-96099380D01*
X107043714Y-97099380D02*
X107043714Y-96575571D01*
X106996095Y-96480333D01*
X106900857Y-96432714D01*
X106710380Y-96432714D01*
X106615142Y-96480333D01*
X107043714Y-97051761D02*
X106948476Y-97099380D01*
X106710380Y-97099380D01*
X106615142Y-97051761D01*
X106567523Y-96956523D01*
X106567523Y-96861285D01*
X106615142Y-96766047D01*
X106710380Y-96718428D01*
X106948476Y-96718428D01*
X107043714Y-96670809D01*
X107424666Y-96432714D02*
X107662761Y-97099380D01*
X107900857Y-96432714D02*
X107662761Y-97099380D01*
X107567523Y-97337476D01*
X107519904Y-97385095D01*
X107424666Y-97432714D01*
X108424666Y-97099380D02*
X108329428Y-97051761D01*
X108281809Y-97004142D01*
X108234190Y-96908904D01*
X108234190Y-96623190D01*
X108281809Y-96527952D01*
X108329428Y-96480333D01*
X108424666Y-96432714D01*
X108567523Y-96432714D01*
X108662761Y-96480333D01*
X108710380Y-96527952D01*
X108757999Y-96623190D01*
X108757999Y-96908904D01*
X108710380Y-97004142D01*
X108662761Y-97051761D01*
X108567523Y-97099380D01*
X108424666Y-97099380D01*
X109615142Y-96432714D02*
X109615142Y-97099380D01*
X109186571Y-96432714D02*
X109186571Y-96956523D01*
X109234190Y-97051761D01*
X109329428Y-97099380D01*
X109472285Y-97099380D01*
X109567523Y-97051761D01*
X109615142Y-97004142D01*
X109948476Y-96432714D02*
X110329428Y-96432714D01*
X110091333Y-96099380D02*
X110091333Y-96956523D01*
X110138952Y-97051761D01*
X110234190Y-97099380D01*
X110329428Y-97099380D01*
D12*
X133919428Y-95797857D02*
X134133714Y-95869285D01*
X134205142Y-95940714D01*
X134276571Y-96083571D01*
X134276571Y-96297857D01*
X134205142Y-96440714D01*
X134133714Y-96512142D01*
X133990857Y-96583571D01*
X133419428Y-96583571D01*
X133419428Y-95083571D01*
X133919428Y-95083571D01*
X134062285Y-95155000D01*
X134133714Y-95226428D01*
X134205142Y-95369285D01*
X134205142Y-95512142D01*
X134133714Y-95655000D01*
X134062285Y-95726428D01*
X133919428Y-95797857D01*
X133419428Y-95797857D01*
X135562285Y-96583571D02*
X135562285Y-95797857D01*
X135490857Y-95655000D01*
X135348000Y-95583571D01*
X135062285Y-95583571D01*
X134919428Y-95655000D01*
X135562285Y-96512142D02*
X135419428Y-96583571D01*
X135062285Y-96583571D01*
X134919428Y-96512142D01*
X134848000Y-96369285D01*
X134848000Y-96226428D01*
X134919428Y-96083571D01*
X135062285Y-96012142D01*
X135419428Y-96012142D01*
X135562285Y-95940714D01*
X136205142Y-96512142D02*
X136348000Y-96583571D01*
X136633714Y-96583571D01*
X136776571Y-96512142D01*
X136848000Y-96369285D01*
X136848000Y-96297857D01*
X136776571Y-96155000D01*
X136633714Y-96083571D01*
X136419428Y-96083571D01*
X136276571Y-96012142D01*
X136205142Y-95869285D01*
X136205142Y-95797857D01*
X136276571Y-95655000D01*
X136419428Y-95583571D01*
X136633714Y-95583571D01*
X136776571Y-95655000D01*
X138062285Y-96512142D02*
X137919428Y-96583571D01*
X137633714Y-96583571D01*
X137490857Y-96512142D01*
X137419428Y-96369285D01*
X137419428Y-95797857D01*
X137490857Y-95655000D01*
X137633714Y-95583571D01*
X137919428Y-95583571D01*
X138062285Y-95655000D01*
X138133714Y-95797857D01*
X138133714Y-95940714D01*
X137419428Y-96083571D01*
X139419428Y-96583571D02*
X139419428Y-95083571D01*
X139419428Y-96512142D02*
X139276571Y-96583571D01*
X138990857Y-96583571D01*
X138848000Y-96512142D01*
X138776571Y-96440714D01*
X138705142Y-96297857D01*
X138705142Y-95869285D01*
X138776571Y-95726428D01*
X138848000Y-95655000D01*
X138990857Y-95583571D01*
X139276571Y-95583571D01*
X139419428Y-95655000D01*
X141490857Y-96583571D02*
X141348000Y-96512142D01*
X141276571Y-96440714D01*
X141205142Y-96297857D01*
X141205142Y-95869285D01*
X141276571Y-95726428D01*
X141348000Y-95655000D01*
X141490857Y-95583571D01*
X141705142Y-95583571D01*
X141848000Y-95655000D01*
X141919428Y-95726428D01*
X141990857Y-95869285D01*
X141990857Y-96297857D01*
X141919428Y-96440714D01*
X141848000Y-96512142D01*
X141705142Y-96583571D01*
X141490857Y-96583571D01*
X142633714Y-95583571D02*
X142633714Y-96583571D01*
X142633714Y-95726428D02*
X142705142Y-95655000D01*
X142848000Y-95583571D01*
X143062285Y-95583571D01*
X143205142Y-95655000D01*
X143276571Y-95797857D01*
X143276571Y-96583571D01*
X145133714Y-96583571D02*
X145133714Y-95083571D01*
X145705142Y-95083571D01*
X145848000Y-95155000D01*
X145919428Y-95226428D01*
X145990857Y-95369285D01*
X145990857Y-95583571D01*
X145919428Y-95726428D01*
X145848000Y-95797857D01*
X145705142Y-95869285D01*
X145133714Y-95869285D01*
X147490857Y-96440714D02*
X147419428Y-96512142D01*
X147205142Y-96583571D01*
X147062285Y-96583571D01*
X146848000Y-96512142D01*
X146705142Y-96369285D01*
X146633714Y-96226428D01*
X146562285Y-95940714D01*
X146562285Y-95726428D01*
X146633714Y-95440714D01*
X146705142Y-95297857D01*
X146848000Y-95155000D01*
X147062285Y-95083571D01*
X147205142Y-95083571D01*
X147419428Y-95155000D01*
X147490857Y-95226428D01*
X148633714Y-95797857D02*
X148848000Y-95869285D01*
X148919428Y-95940714D01*
X148990857Y-96083571D01*
X148990857Y-96297857D01*
X148919428Y-96440714D01*
X148848000Y-96512142D01*
X148705142Y-96583571D01*
X148133714Y-96583571D01*
X148133714Y-95083571D01*
X148633714Y-95083571D01*
X148776571Y-95155000D01*
X148848000Y-95226428D01*
X148919428Y-95369285D01*
X148919428Y-95512142D01*
X148848000Y-95655000D01*
X148776571Y-95726428D01*
X148633714Y-95797857D01*
X148133714Y-95797857D01*
X151419428Y-96583571D02*
X151419428Y-95083571D01*
X151419428Y-96512142D02*
X151276571Y-96583571D01*
X150990857Y-96583571D01*
X150848000Y-96512142D01*
X150776571Y-96440714D01*
X150705142Y-96297857D01*
X150705142Y-95869285D01*
X150776571Y-95726428D01*
X150848000Y-95655000D01*
X150990857Y-95583571D01*
X151276571Y-95583571D01*
X151419428Y-95655000D01*
X152705142Y-96512142D02*
X152562285Y-96583571D01*
X152276571Y-96583571D01*
X152133714Y-96512142D01*
X152062285Y-96369285D01*
X152062285Y-95797857D01*
X152133714Y-95655000D01*
X152276571Y-95583571D01*
X152562285Y-95583571D01*
X152705142Y-95655000D01*
X152776571Y-95797857D01*
X152776571Y-95940714D01*
X152062285Y-96083571D01*
X153348000Y-96512142D02*
X153490857Y-96583571D01*
X153776571Y-96583571D01*
X153919428Y-96512142D01*
X153990857Y-96369285D01*
X153990857Y-96297857D01*
X153919428Y-96155000D01*
X153776571Y-96083571D01*
X153562285Y-96083571D01*
X153419428Y-96012142D01*
X153348000Y-95869285D01*
X153348000Y-95797857D01*
X153419428Y-95655000D01*
X153562285Y-95583571D01*
X153776571Y-95583571D01*
X153919428Y-95655000D01*
X154633714Y-96583571D02*
X154633714Y-95583571D01*
X154633714Y-95083571D02*
X154562285Y-95155000D01*
X154633714Y-95226428D01*
X154705142Y-95155000D01*
X154633714Y-95083571D01*
X154633714Y-95226428D01*
X155990857Y-95583571D02*
X155990857Y-96797857D01*
X155919428Y-96940714D01*
X155848000Y-97012142D01*
X155705142Y-97083571D01*
X155490857Y-97083571D01*
X155348000Y-97012142D01*
X155990857Y-96512142D02*
X155848000Y-96583571D01*
X155562285Y-96583571D01*
X155419428Y-96512142D01*
X155348000Y-96440714D01*
X155276571Y-96297857D01*
X155276571Y-95869285D01*
X155348000Y-95726428D01*
X155419428Y-95655000D01*
X155562285Y-95583571D01*
X155848000Y-95583571D01*
X155990857Y-95655000D01*
X156705142Y-95583571D02*
X156705142Y-96583571D01*
X156705142Y-95726428D02*
X156776571Y-95655000D01*
X156919428Y-95583571D01*
X157133714Y-95583571D01*
X157276571Y-95655000D01*
X157348000Y-95797857D01*
X157348000Y-96583571D01*
X158633714Y-96512142D02*
X158490857Y-96583571D01*
X158205142Y-96583571D01*
X158062285Y-96512142D01*
X157990857Y-96369285D01*
X157990857Y-95797857D01*
X158062285Y-95655000D01*
X158205142Y-95583571D01*
X158490857Y-95583571D01*
X158633714Y-95655000D01*
X158705142Y-95797857D01*
X158705142Y-95940714D01*
X157990857Y-96083571D01*
X159990857Y-96583571D02*
X159990857Y-95083571D01*
X159990857Y-96512142D02*
X159848000Y-96583571D01*
X159562285Y-96583571D01*
X159419428Y-96512142D01*
X159348000Y-96440714D01*
X159276571Y-96297857D01*
X159276571Y-95869285D01*
X159348000Y-95726428D01*
X159419428Y-95655000D01*
X159562285Y-95583571D01*
X159848000Y-95583571D01*
X159990857Y-95655000D01*
X161848000Y-96583571D02*
X161848000Y-95083571D01*
X161848000Y-95655000D02*
X161990857Y-95583571D01*
X162276571Y-95583571D01*
X162419428Y-95655000D01*
X162490857Y-95726428D01*
X162562285Y-95869285D01*
X162562285Y-96297857D01*
X162490857Y-96440714D01*
X162419428Y-96512142D01*
X162276571Y-96583571D01*
X161990857Y-96583571D01*
X161848000Y-96512142D01*
X163062285Y-95583571D02*
X163419428Y-96583571D01*
X163776571Y-95583571D02*
X163419428Y-96583571D01*
X163276571Y-96940714D01*
X163205142Y-97012142D01*
X163062285Y-97083571D01*
X141598000Y-99083571D02*
X141598000Y-97583571D01*
X142455142Y-99083571D02*
X141812285Y-98226428D01*
X142455142Y-97583571D02*
X141598000Y-98440714D01*
X143098000Y-99083571D02*
X143098000Y-98083571D01*
X143098000Y-98369285D02*
X143169428Y-98226428D01*
X143240857Y-98155000D01*
X143383714Y-98083571D01*
X143526571Y-98083571D01*
X144669428Y-99083571D02*
X144669428Y-98297857D01*
X144598000Y-98155000D01*
X144455142Y-98083571D01*
X144169428Y-98083571D01*
X144026571Y-98155000D01*
X144669428Y-99012142D02*
X144526571Y-99083571D01*
X144169428Y-99083571D01*
X144026571Y-99012142D01*
X143955142Y-98869285D01*
X143955142Y-98726428D01*
X144026571Y-98583571D01*
X144169428Y-98512142D01*
X144526571Y-98512142D01*
X144669428Y-98440714D01*
X145383714Y-99083571D02*
X145383714Y-97583571D01*
X145526571Y-98512142D02*
X145955142Y-99083571D01*
X145955142Y-98083571D02*
X145383714Y-98655000D01*
X147169428Y-99012142D02*
X147026571Y-99083571D01*
X146740857Y-99083571D01*
X146598000Y-99012142D01*
X146526571Y-98869285D01*
X146526571Y-98297857D01*
X146598000Y-98155000D01*
X146740857Y-98083571D01*
X147026571Y-98083571D01*
X147169428Y-98155000D01*
X147240857Y-98297857D01*
X147240857Y-98440714D01*
X146526571Y-98583571D01*
X147883714Y-98083571D02*
X147883714Y-99083571D01*
X147883714Y-98226428D02*
X147955142Y-98155000D01*
X148098000Y-98083571D01*
X148312285Y-98083571D01*
X148455142Y-98155000D01*
X148526571Y-98297857D01*
X148526571Y-99083571D01*
X149240857Y-98512142D02*
X150383714Y-98512142D01*
X151526571Y-97583571D02*
X151526571Y-98655000D01*
X151455142Y-98869285D01*
X151312285Y-99012142D01*
X151098000Y-99083571D01*
X150955142Y-99083571D01*
X152455142Y-99083571D02*
X152312285Y-99012142D01*
X152240857Y-98940714D01*
X152169428Y-98797857D01*
X152169428Y-98369285D01*
X152240857Y-98226428D01*
X152312285Y-98155000D01*
X152455142Y-98083571D01*
X152669428Y-98083571D01*
X152812285Y-98155000D01*
X152883714Y-98226428D01*
X152955142Y-98369285D01*
X152955142Y-98797857D01*
X152883714Y-98940714D01*
X152812285Y-99012142D01*
X152669428Y-99083571D01*
X152455142Y-99083571D01*
X153598000Y-99083571D02*
X153598000Y-97583571D01*
X153740857Y-98512142D02*
X154169428Y-99083571D01*
X154169428Y-98083571D02*
X153598000Y-98655000D01*
X155383714Y-99012142D02*
X155240857Y-99083571D01*
X154955142Y-99083571D01*
X154812285Y-99012142D01*
X154740857Y-98869285D01*
X154740857Y-98297857D01*
X154812285Y-98155000D01*
X154955142Y-98083571D01*
X155240857Y-98083571D01*
X155383714Y-98155000D01*
X155455142Y-98297857D01*
X155455142Y-98440714D01*
X154740857Y-98583571D01*
X156026571Y-99012142D02*
X156169428Y-99083571D01*
X156455142Y-99083571D01*
X156598000Y-99012142D01*
X156669428Y-98869285D01*
X156669428Y-98797857D01*
X156598000Y-98655000D01*
X156455142Y-98583571D01*
X156240857Y-98583571D01*
X156098000Y-98512142D01*
X156026571Y-98369285D01*
X156026571Y-98297857D01*
X156098000Y-98155000D01*
X156240857Y-98083571D01*
X156455142Y-98083571D01*
X156598000Y-98155000D01*
D13*
%TO.C,LOGO2*%
G36*
X89694446Y-88962613D02*
G01*
X89789064Y-88976700D01*
X89898318Y-88995708D01*
X90010591Y-89017452D01*
X90114268Y-89039744D01*
X90197732Y-89060401D01*
X90249365Y-89077235D01*
X90258900Y-89082764D01*
X90260377Y-89112343D01*
X90230011Y-89150804D01*
X90182012Y-89185589D01*
X90130591Y-89204141D01*
X90120793Y-89204800D01*
X90088251Y-89224393D01*
X90032145Y-89278923D01*
X89958472Y-89362014D01*
X89873229Y-89467288D01*
X89869951Y-89471500D01*
X89662687Y-89738200D01*
X90571826Y-89738200D01*
X90792300Y-89484756D01*
X91055600Y-89687599D01*
X91318900Y-89890441D01*
X91208000Y-89940763D01*
X91135819Y-89970784D01*
X91080246Y-89989087D01*
X91065350Y-89991642D01*
X91056666Y-90002342D01*
X91049605Y-90036764D01*
X91044031Y-90098890D01*
X91039804Y-90192702D01*
X91036787Y-90322183D01*
X91034841Y-90491316D01*
X91033829Y-90704084D01*
X91033600Y-90907841D01*
X91033600Y-91823483D01*
X90925650Y-91872484D01*
X90835901Y-91903565D01*
X90744841Y-91920832D01*
X90722450Y-91922042D01*
X90659988Y-91918886D01*
X90633242Y-91900493D01*
X90627238Y-91854970D01*
X90627200Y-91846400D01*
X90627200Y-91770200D01*
X90297000Y-91770200D01*
X90297000Y-92770325D01*
X90297410Y-92994133D01*
X90298579Y-93204669D01*
X90300417Y-93395901D01*
X90302830Y-93561802D01*
X90305728Y-93696341D01*
X90309019Y-93793489D01*
X90312611Y-93847217D01*
X90313447Y-93852686D01*
X90320473Y-93884781D01*
X90330269Y-93912119D01*
X90346665Y-93935059D01*
X90373492Y-93953958D01*
X90414580Y-93969173D01*
X90473761Y-93981062D01*
X90554864Y-93989984D01*
X90661721Y-93996295D01*
X90798162Y-94000353D01*
X90968018Y-94002516D01*
X91175120Y-94003141D01*
X91423297Y-94002586D01*
X91716382Y-94001209D01*
X91894064Y-94000252D01*
X92197291Y-93998496D01*
X92453834Y-93996693D01*
X92667809Y-93994700D01*
X92843331Y-93992372D01*
X92984516Y-93989564D01*
X93095480Y-93986132D01*
X93180338Y-93981930D01*
X93243206Y-93976815D01*
X93288201Y-93970641D01*
X93319437Y-93963264D01*
X93341030Y-93954540D01*
X93350373Y-93949058D01*
X93396888Y-93902407D01*
X93443591Y-93821276D01*
X93492264Y-93701436D01*
X93544687Y-93538657D01*
X93587452Y-93386171D01*
X93623193Y-93259883D01*
X93651810Y-93177328D01*
X93674210Y-93139597D01*
X93691299Y-93147777D01*
X93703983Y-93202959D01*
X93713170Y-93306232D01*
X93719767Y-93458685D01*
X93722242Y-93548119D01*
X93731435Y-93925057D01*
X93798567Y-93941807D01*
X93891770Y-93984838D01*
X93943879Y-94055718D01*
X93954599Y-94119700D01*
X93945078Y-94183034D01*
X93913599Y-94235250D01*
X93855792Y-94277773D01*
X93767286Y-94312028D01*
X93643708Y-94339438D01*
X93480688Y-94361430D01*
X93273854Y-94379427D01*
X93129100Y-94388772D01*
X93002729Y-94394356D01*
X92833362Y-94399068D01*
X92628795Y-94402826D01*
X92396824Y-94405550D01*
X92145245Y-94407158D01*
X91881857Y-94407568D01*
X91614455Y-94406700D01*
X91490800Y-94405837D01*
X91208316Y-94403313D01*
X90971950Y-94400674D01*
X90777021Y-94397734D01*
X90618847Y-94394306D01*
X90492745Y-94390203D01*
X90394034Y-94385238D01*
X90318032Y-94379226D01*
X90260057Y-94371978D01*
X90215428Y-94363309D01*
X90181208Y-94353614D01*
X90050897Y-94292398D01*
X89962769Y-94207050D01*
X89915393Y-94104884D01*
X89909723Y-94059636D01*
X89904607Y-93968235D01*
X89900140Y-93835325D01*
X89896417Y-93665551D01*
X89893532Y-93463558D01*
X89891582Y-93233991D01*
X89890661Y-92981494D01*
X89890600Y-92894317D01*
X89890600Y-91770200D01*
X89715576Y-91770200D01*
X89540552Y-91770199D01*
X89522972Y-92055950D01*
X89490333Y-92448052D01*
X89442445Y-92796305D01*
X89377621Y-93105817D01*
X89294172Y-93381695D01*
X89190412Y-93629046D01*
X89064651Y-93852978D01*
X88915204Y-94058599D01*
X88827816Y-94159709D01*
X88740211Y-94250336D01*
X88643914Y-94341282D01*
X88547581Y-94425336D01*
X88459865Y-94495287D01*
X88389423Y-94543924D01*
X88344909Y-94564035D01*
X88342332Y-94564200D01*
X88309035Y-94544019D01*
X88300928Y-94529601D01*
X88309547Y-94495321D01*
X88343725Y-94432307D01*
X88397188Y-94351413D01*
X88429418Y-94307351D01*
X88598951Y-94054037D01*
X88740049Y-93778675D01*
X88854239Y-93476439D01*
X88943050Y-93142506D01*
X89008010Y-92772050D01*
X89050647Y-92360246D01*
X89051992Y-92341700D01*
X89064950Y-92149944D01*
X89072989Y-92003641D01*
X89076112Y-91897683D01*
X89074324Y-91826959D01*
X89067628Y-91786362D01*
X89056028Y-91770784D01*
X89052400Y-91770200D01*
X89034676Y-91792299D01*
X89027008Y-91845667D01*
X89027000Y-91847641D01*
X89020122Y-91899322D01*
X88991103Y-91935290D01*
X88927368Y-91970275D01*
X88919050Y-91974084D01*
X88829301Y-92005165D01*
X88738241Y-92022432D01*
X88715850Y-92023642D01*
X88620600Y-92024200D01*
X88620600Y-90830400D01*
X89027000Y-90830400D01*
X89027000Y-91592400D01*
X89636600Y-91592400D01*
X89636600Y-90830400D01*
X90017600Y-90830400D01*
X90017600Y-91592400D01*
X90627200Y-91592400D01*
X90627200Y-90830400D01*
X90017600Y-90830400D01*
X89636600Y-90830400D01*
X89027000Y-90830400D01*
X88620600Y-90830400D01*
X88620600Y-90792300D01*
X88621085Y-90505114D01*
X88622506Y-90250654D01*
X88624808Y-90031701D01*
X88626811Y-89916000D01*
X89027000Y-89916000D01*
X89027000Y-90652600D01*
X89636600Y-90652600D01*
X89636600Y-89916000D01*
X90017600Y-89916000D01*
X90017600Y-90652600D01*
X90627200Y-90652600D01*
X90627200Y-89916000D01*
X90017600Y-89916000D01*
X89636600Y-89916000D01*
X89027000Y-89916000D01*
X88626811Y-89916000D01*
X88627936Y-89851037D01*
X88631837Y-89711444D01*
X88636457Y-89615702D01*
X88641741Y-89566596D01*
X88644592Y-89560400D01*
X88677344Y-89570341D01*
X88743805Y-89596834D01*
X88831681Y-89634886D01*
X88865732Y-89650242D01*
X88968971Y-89695190D01*
X89047784Y-89721333D01*
X89122995Y-89732954D01*
X89215429Y-89734335D01*
X89267189Y-89732792D01*
X89471500Y-89725500D01*
X89525086Y-89350180D01*
X89544955Y-89217494D01*
X89563839Y-89103079D01*
X89580071Y-89016196D01*
X89591988Y-88966107D01*
X89595585Y-88957947D01*
X89626081Y-88955634D01*
X89694446Y-88962613D01*
G37*
X89694446Y-88962613D02*
X89789064Y-88976700D01*
X89898318Y-88995708D01*
X90010591Y-89017452D01*
X90114268Y-89039744D01*
X90197732Y-89060401D01*
X90249365Y-89077235D01*
X90258900Y-89082764D01*
X90260377Y-89112343D01*
X90230011Y-89150804D01*
X90182012Y-89185589D01*
X90130591Y-89204141D01*
X90120793Y-89204800D01*
X90088251Y-89224393D01*
X90032145Y-89278923D01*
X89958472Y-89362014D01*
X89873229Y-89467288D01*
X89869951Y-89471500D01*
X89662687Y-89738200D01*
X90571826Y-89738200D01*
X90792300Y-89484756D01*
X91055600Y-89687599D01*
X91318900Y-89890441D01*
X91208000Y-89940763D01*
X91135819Y-89970784D01*
X91080246Y-89989087D01*
X91065350Y-89991642D01*
X91056666Y-90002342D01*
X91049605Y-90036764D01*
X91044031Y-90098890D01*
X91039804Y-90192702D01*
X91036787Y-90322183D01*
X91034841Y-90491316D01*
X91033829Y-90704084D01*
X91033600Y-90907841D01*
X91033600Y-91823483D01*
X90925650Y-91872484D01*
X90835901Y-91903565D01*
X90744841Y-91920832D01*
X90722450Y-91922042D01*
X90659988Y-91918886D01*
X90633242Y-91900493D01*
X90627238Y-91854970D01*
X90627200Y-91846400D01*
X90627200Y-91770200D01*
X90297000Y-91770200D01*
X90297000Y-92770325D01*
X90297410Y-92994133D01*
X90298579Y-93204669D01*
X90300417Y-93395901D01*
X90302830Y-93561802D01*
X90305728Y-93696341D01*
X90309019Y-93793489D01*
X90312611Y-93847217D01*
X90313447Y-93852686D01*
X90320473Y-93884781D01*
X90330269Y-93912119D01*
X90346665Y-93935059D01*
X90373492Y-93953958D01*
X90414580Y-93969173D01*
X90473761Y-93981062D01*
X90554864Y-93989984D01*
X90661721Y-93996295D01*
X90798162Y-94000353D01*
X90968018Y-94002516D01*
X91175120Y-94003141D01*
X91423297Y-94002586D01*
X91716382Y-94001209D01*
X91894064Y-94000252D01*
X92197291Y-93998496D01*
X92453834Y-93996693D01*
X92667809Y-93994700D01*
X92843331Y-93992372D01*
X92984516Y-93989564D01*
X93095480Y-93986132D01*
X93180338Y-93981930D01*
X93243206Y-93976815D01*
X93288201Y-93970641D01*
X93319437Y-93963264D01*
X93341030Y-93954540D01*
X93350373Y-93949058D01*
X93396888Y-93902407D01*
X93443591Y-93821276D01*
X93492264Y-93701436D01*
X93544687Y-93538657D01*
X93587452Y-93386171D01*
X93623193Y-93259883D01*
X93651810Y-93177328D01*
X93674210Y-93139597D01*
X93691299Y-93147777D01*
X93703983Y-93202959D01*
X93713170Y-93306232D01*
X93719767Y-93458685D01*
X93722242Y-93548119D01*
X93731435Y-93925057D01*
X93798567Y-93941807D01*
X93891770Y-93984838D01*
X93943879Y-94055718D01*
X93954599Y-94119700D01*
X93945078Y-94183034D01*
X93913599Y-94235250D01*
X93855792Y-94277773D01*
X93767286Y-94312028D01*
X93643708Y-94339438D01*
X93480688Y-94361430D01*
X93273854Y-94379427D01*
X93129100Y-94388772D01*
X93002729Y-94394356D01*
X92833362Y-94399068D01*
X92628795Y-94402826D01*
X92396824Y-94405550D01*
X92145245Y-94407158D01*
X91881857Y-94407568D01*
X91614455Y-94406700D01*
X91490800Y-94405837D01*
X91208316Y-94403313D01*
X90971950Y-94400674D01*
X90777021Y-94397734D01*
X90618847Y-94394306D01*
X90492745Y-94390203D01*
X90394034Y-94385238D01*
X90318032Y-94379226D01*
X90260057Y-94371978D01*
X90215428Y-94363309D01*
X90181208Y-94353614D01*
X90050897Y-94292398D01*
X89962769Y-94207050D01*
X89915393Y-94104884D01*
X89909723Y-94059636D01*
X89904607Y-93968235D01*
X89900140Y-93835325D01*
X89896417Y-93665551D01*
X89893532Y-93463558D01*
X89891582Y-93233991D01*
X89890661Y-92981494D01*
X89890600Y-92894317D01*
X89890600Y-91770200D01*
X89715576Y-91770200D01*
X89540552Y-91770199D01*
X89522972Y-92055950D01*
X89490333Y-92448052D01*
X89442445Y-92796305D01*
X89377621Y-93105817D01*
X89294172Y-93381695D01*
X89190412Y-93629046D01*
X89064651Y-93852978D01*
X88915204Y-94058599D01*
X88827816Y-94159709D01*
X88740211Y-94250336D01*
X88643914Y-94341282D01*
X88547581Y-94425336D01*
X88459865Y-94495287D01*
X88389423Y-94543924D01*
X88344909Y-94564035D01*
X88342332Y-94564200D01*
X88309035Y-94544019D01*
X88300928Y-94529601D01*
X88309547Y-94495321D01*
X88343725Y-94432307D01*
X88397188Y-94351413D01*
X88429418Y-94307351D01*
X88598951Y-94054037D01*
X88740049Y-93778675D01*
X88854239Y-93476439D01*
X88943050Y-93142506D01*
X89008010Y-92772050D01*
X89050647Y-92360246D01*
X89051992Y-92341700D01*
X89064950Y-92149944D01*
X89072989Y-92003641D01*
X89076112Y-91897683D01*
X89074324Y-91826959D01*
X89067628Y-91786362D01*
X89056028Y-91770784D01*
X89052400Y-91770200D01*
X89034676Y-91792299D01*
X89027008Y-91845667D01*
X89027000Y-91847641D01*
X89020122Y-91899322D01*
X88991103Y-91935290D01*
X88927368Y-91970275D01*
X88919050Y-91974084D01*
X88829301Y-92005165D01*
X88738241Y-92022432D01*
X88715850Y-92023642D01*
X88620600Y-92024200D01*
X88620600Y-90830400D01*
X89027000Y-90830400D01*
X89027000Y-91592400D01*
X89636600Y-91592400D01*
X89636600Y-90830400D01*
X90017600Y-90830400D01*
X90017600Y-91592400D01*
X90627200Y-91592400D01*
X90627200Y-90830400D01*
X90017600Y-90830400D01*
X89636600Y-90830400D01*
X89027000Y-90830400D01*
X88620600Y-90830400D01*
X88620600Y-90792300D01*
X88621085Y-90505114D01*
X88622506Y-90250654D01*
X88624808Y-90031701D01*
X88626811Y-89916000D01*
X89027000Y-89916000D01*
X89027000Y-90652600D01*
X89636600Y-90652600D01*
X89636600Y-89916000D01*
X90017600Y-89916000D01*
X90017600Y-90652600D01*
X90627200Y-90652600D01*
X90627200Y-89916000D01*
X90017600Y-89916000D01*
X89636600Y-89916000D01*
X89027000Y-89916000D01*
X88626811Y-89916000D01*
X88627936Y-89851037D01*
X88631837Y-89711444D01*
X88636457Y-89615702D01*
X88641741Y-89566596D01*
X88644592Y-89560400D01*
X88677344Y-89570341D01*
X88743805Y-89596834D01*
X88831681Y-89634886D01*
X88865732Y-89650242D01*
X88968971Y-89695190D01*
X89047784Y-89721333D01*
X89122995Y-89732954D01*
X89215429Y-89734335D01*
X89267189Y-89732792D01*
X89471500Y-89725500D01*
X89525086Y-89350180D01*
X89544955Y-89217494D01*
X89563839Y-89103079D01*
X89580071Y-89016196D01*
X89591988Y-88966107D01*
X89595585Y-88957947D01*
X89626081Y-88955634D01*
X89694446Y-88962613D01*
G36*
X96872167Y-88952281D02*
G01*
X96942011Y-88956288D01*
X97038532Y-88965017D01*
X97150054Y-88977017D01*
X97264897Y-88990839D01*
X97371384Y-89005032D01*
X97457837Y-89018149D01*
X97512576Y-89028739D01*
X97525432Y-89033366D01*
X97522481Y-89060724D01*
X97489475Y-89101145D01*
X97440384Y-89142344D01*
X97389178Y-89172038D01*
X97359354Y-89179399D01*
X97339585Y-89181631D01*
X97325593Y-89193306D01*
X97316380Y-89221896D01*
X97310951Y-89274871D01*
X97308311Y-89359701D01*
X97307463Y-89483857D01*
X97307400Y-89569148D01*
X97306202Y-89733819D01*
X97302928Y-89907942D01*
X97298049Y-90072602D01*
X97292041Y-90208889D01*
X97290840Y-90229548D01*
X97274280Y-90500200D01*
X98954137Y-90500200D01*
X99092862Y-90346904D01*
X99231586Y-90193609D01*
X99489510Y-90414302D01*
X99583938Y-90497602D01*
X99661498Y-90570822D01*
X99715286Y-90627074D01*
X99738401Y-90659472D01*
X99738646Y-90662847D01*
X99711069Y-90685914D01*
X99650771Y-90713341D01*
X99610828Y-90726928D01*
X99491800Y-90763156D01*
X99491635Y-90892028D01*
X99489636Y-90996972D01*
X99484225Y-91142762D01*
X99475966Y-91319598D01*
X99465427Y-91517681D01*
X99453173Y-91727212D01*
X99439771Y-91938393D01*
X99425786Y-92141425D01*
X99411785Y-92326509D01*
X99402027Y-92442997D01*
X99365613Y-92810535D01*
X99325158Y-93131500D01*
X99279940Y-93410008D01*
X99229234Y-93650178D01*
X99172317Y-93856126D01*
X99134403Y-93966270D01*
X99042556Y-94142472D01*
X98912599Y-94287846D01*
X98748997Y-94399277D01*
X98556216Y-94473650D01*
X98360067Y-94506433D01*
X98171000Y-94520732D01*
X98170905Y-94421816D01*
X98160193Y-94324241D01*
X98124987Y-94242558D01*
X98060370Y-94173194D01*
X97961425Y-94112578D01*
X97823236Y-94057137D01*
X97640887Y-94003299D01*
X97570039Y-93985240D01*
X97450372Y-93954190D01*
X97372459Y-93929614D01*
X97328233Y-93908045D01*
X97309631Y-93886018D01*
X97307400Y-93872369D01*
X97313963Y-93843049D01*
X97342448Y-93832849D01*
X97406049Y-93837678D01*
X97415350Y-93838897D01*
X97535336Y-93852657D01*
X97686432Y-93866691D01*
X97853128Y-93879887D01*
X98019913Y-93891132D01*
X98171279Y-93899313D01*
X98291715Y-93903318D01*
X98316166Y-93903537D01*
X98415300Y-93901724D01*
X98480735Y-93892748D01*
X98529514Y-93871825D01*
X98578681Y-93834173D01*
X98585956Y-93827830D01*
X98641720Y-93761096D01*
X98693056Y-93661647D01*
X98740235Y-93527660D01*
X98783527Y-93357312D01*
X98823200Y-93148781D01*
X98859524Y-92900246D01*
X98892769Y-92609883D01*
X98923204Y-92275871D01*
X98951099Y-91896387D01*
X98976722Y-91469609D01*
X98998232Y-91039950D01*
X99014911Y-90678000D01*
X97256600Y-90678000D01*
X97256600Y-90751869D01*
X97251121Y-90853392D01*
X97235977Y-90992216D01*
X97213102Y-91156185D01*
X97184431Y-91333143D01*
X97151900Y-91510933D01*
X97117444Y-91677400D01*
X97092091Y-91785174D01*
X96971487Y-92187366D01*
X96819423Y-92553709D01*
X96632116Y-92890951D01*
X96405783Y-93205841D01*
X96136643Y-93505126D01*
X96117163Y-93524611D01*
X95996989Y-93640014D01*
X95868451Y-93756638D01*
X95744441Y-93863203D01*
X95637853Y-93948430D01*
X95605600Y-93972164D01*
X95468377Y-94065345D01*
X95308532Y-94166753D01*
X95138964Y-94268809D01*
X94972575Y-94363935D01*
X94822264Y-94444552D01*
X94704542Y-94501493D01*
X94625934Y-94534117D01*
X94579230Y-94545582D01*
X94551011Y-94537674D01*
X94536877Y-94523783D01*
X94522619Y-94505412D01*
X94518589Y-94488806D01*
X94530510Y-94468600D01*
X94564105Y-94439428D01*
X94625099Y-94395927D01*
X94719215Y-94332730D01*
X94792800Y-94283899D01*
X95183230Y-93999554D01*
X95527531Y-93694758D01*
X95826553Y-93368379D01*
X96081152Y-93019284D01*
X96292179Y-92646339D01*
X96460489Y-92248412D01*
X96557003Y-91941012D01*
X96608404Y-91728597D01*
X96656539Y-91487049D01*
X96697646Y-91238029D01*
X96727964Y-91003204D01*
X96737712Y-90900250D01*
X96755585Y-90678000D01*
X94848569Y-90678000D01*
X94820684Y-90598009D01*
X94801714Y-90541197D01*
X94792881Y-90510027D01*
X94792800Y-90509109D01*
X94817290Y-90507139D01*
X94887127Y-90505320D01*
X94996857Y-90503701D01*
X95141024Y-90502332D01*
X95314176Y-90501261D01*
X95510858Y-90500539D01*
X95725618Y-90500213D01*
X95780275Y-90500199D01*
X96767751Y-90500199D01*
X96805235Y-88950799D01*
X96872167Y-88952281D01*
G37*
X96872167Y-88952281D02*
X96942011Y-88956288D01*
X97038532Y-88965017D01*
X97150054Y-88977017D01*
X97264897Y-88990839D01*
X97371384Y-89005032D01*
X97457837Y-89018149D01*
X97512576Y-89028739D01*
X97525432Y-89033366D01*
X97522481Y-89060724D01*
X97489475Y-89101145D01*
X97440384Y-89142344D01*
X97389178Y-89172038D01*
X97359354Y-89179399D01*
X97339585Y-89181631D01*
X97325593Y-89193306D01*
X97316380Y-89221896D01*
X97310951Y-89274871D01*
X97308311Y-89359701D01*
X97307463Y-89483857D01*
X97307400Y-89569148D01*
X97306202Y-89733819D01*
X97302928Y-89907942D01*
X97298049Y-90072602D01*
X97292041Y-90208889D01*
X97290840Y-90229548D01*
X97274280Y-90500200D01*
X98954137Y-90500200D01*
X99092862Y-90346904D01*
X99231586Y-90193609D01*
X99489510Y-90414302D01*
X99583938Y-90497602D01*
X99661498Y-90570822D01*
X99715286Y-90627074D01*
X99738401Y-90659472D01*
X99738646Y-90662847D01*
X99711069Y-90685914D01*
X99650771Y-90713341D01*
X99610828Y-90726928D01*
X99491800Y-90763156D01*
X99491635Y-90892028D01*
X99489636Y-90996972D01*
X99484225Y-91142762D01*
X99475966Y-91319598D01*
X99465427Y-91517681D01*
X99453173Y-91727212D01*
X99439771Y-91938393D01*
X99425786Y-92141425D01*
X99411785Y-92326509D01*
X99402027Y-92442997D01*
X99365613Y-92810535D01*
X99325158Y-93131500D01*
X99279940Y-93410008D01*
X99229234Y-93650178D01*
X99172317Y-93856126D01*
X99134403Y-93966270D01*
X99042556Y-94142472D01*
X98912599Y-94287846D01*
X98748997Y-94399277D01*
X98556216Y-94473650D01*
X98360067Y-94506433D01*
X98171000Y-94520732D01*
X98170905Y-94421816D01*
X98160193Y-94324241D01*
X98124987Y-94242558D01*
X98060370Y-94173194D01*
X97961425Y-94112578D01*
X97823236Y-94057137D01*
X97640887Y-94003299D01*
X97570039Y-93985240D01*
X97450372Y-93954190D01*
X97372459Y-93929614D01*
X97328233Y-93908045D01*
X97309631Y-93886018D01*
X97307400Y-93872369D01*
X97313963Y-93843049D01*
X97342448Y-93832849D01*
X97406049Y-93837678D01*
X97415350Y-93838897D01*
X97535336Y-93852657D01*
X97686432Y-93866691D01*
X97853128Y-93879887D01*
X98019913Y-93891132D01*
X98171279Y-93899313D01*
X98291715Y-93903318D01*
X98316166Y-93903537D01*
X98415300Y-93901724D01*
X98480735Y-93892748D01*
X98529514Y-93871825D01*
X98578681Y-93834173D01*
X98585956Y-93827830D01*
X98641720Y-93761096D01*
X98693056Y-93661647D01*
X98740235Y-93527660D01*
X98783527Y-93357312D01*
X98823200Y-93148781D01*
X98859524Y-92900246D01*
X98892769Y-92609883D01*
X98923204Y-92275871D01*
X98951099Y-91896387D01*
X98976722Y-91469609D01*
X98998232Y-91039950D01*
X99014911Y-90678000D01*
X97256600Y-90678000D01*
X97256600Y-90751869D01*
X97251121Y-90853392D01*
X97235977Y-90992216D01*
X97213102Y-91156185D01*
X97184431Y-91333143D01*
X97151900Y-91510933D01*
X97117444Y-91677400D01*
X97092091Y-91785174D01*
X96971487Y-92187366D01*
X96819423Y-92553709D01*
X96632116Y-92890951D01*
X96405783Y-93205841D01*
X96136643Y-93505126D01*
X96117163Y-93524611D01*
X95996989Y-93640014D01*
X95868451Y-93756638D01*
X95744441Y-93863203D01*
X95637853Y-93948430D01*
X95605600Y-93972164D01*
X95468377Y-94065345D01*
X95308532Y-94166753D01*
X95138964Y-94268809D01*
X94972575Y-94363935D01*
X94822264Y-94444552D01*
X94704542Y-94501493D01*
X94625934Y-94534117D01*
X94579230Y-94545582D01*
X94551011Y-94537674D01*
X94536877Y-94523783D01*
X94522619Y-94505412D01*
X94518589Y-94488806D01*
X94530510Y-94468600D01*
X94564105Y-94439428D01*
X94625099Y-94395927D01*
X94719215Y-94332730D01*
X94792800Y-94283899D01*
X95183230Y-93999554D01*
X95527531Y-93694758D01*
X95826553Y-93368379D01*
X96081152Y-93019284D01*
X96292179Y-92646339D01*
X96460489Y-92248412D01*
X96557003Y-91941012D01*
X96608404Y-91728597D01*
X96656539Y-91487049D01*
X96697646Y-91238029D01*
X96727964Y-91003204D01*
X96737712Y-90900250D01*
X96755585Y-90678000D01*
X94848569Y-90678000D01*
X94820684Y-90598009D01*
X94801714Y-90541197D01*
X94792881Y-90510027D01*
X94792800Y-90509109D01*
X94817290Y-90507139D01*
X94887127Y-90505320D01*
X94996857Y-90503701D01*
X95141024Y-90502332D01*
X95314176Y-90501261D01*
X95510858Y-90500539D01*
X95725618Y-90500213D01*
X95780275Y-90500199D01*
X96767751Y-90500199D01*
X96805235Y-88950799D01*
X96872167Y-88952281D01*
G36*
X92335350Y-89002553D02*
G01*
X92405535Y-89006782D01*
X92501180Y-89016515D01*
X92609946Y-89029994D01*
X92719496Y-89045460D01*
X92817491Y-89061155D01*
X92891592Y-89075320D01*
X92929463Y-89086196D01*
X92931321Y-89087499D01*
X92928717Y-89114967D01*
X92895178Y-89154468D01*
X92844720Y-89194370D01*
X92791359Y-89223041D01*
X92759383Y-89230200D01*
X92740392Y-89232993D01*
X92727008Y-89246394D01*
X92718257Y-89277935D01*
X92713160Y-89335150D01*
X92710743Y-89425569D01*
X92710028Y-89556726D01*
X92710000Y-89611200D01*
X92710000Y-89992200D01*
X92881711Y-89992199D01*
X93053422Y-89992199D01*
X93188861Y-89814605D01*
X93242978Y-89742427D01*
X93283809Y-89693364D01*
X93319661Y-89668717D01*
X93358843Y-89669788D01*
X93409661Y-89697876D01*
X93480423Y-89754284D01*
X93579437Y-89840311D01*
X93629084Y-89883541D01*
X93711785Y-89958061D01*
X93777614Y-90022754D01*
X93818373Y-90069238D01*
X93827600Y-90086525D01*
X93819498Y-90113455D01*
X93791615Y-90134152D01*
X93738580Y-90149353D01*
X93655025Y-90159797D01*
X93535580Y-90166219D01*
X93374876Y-90169357D01*
X93219669Y-90170000D01*
X92710000Y-90170000D01*
X92710000Y-91033600D01*
X92932250Y-91033426D01*
X93039089Y-91032716D01*
X93107596Y-91028331D01*
X93150238Y-91016588D01*
X93179482Y-90993801D01*
X93207795Y-90956286D01*
X93211544Y-90950876D01*
X93264249Y-90879531D01*
X93328864Y-90798188D01*
X93352240Y-90770204D01*
X93435891Y-90671909D01*
X93680892Y-90877905D01*
X93775256Y-90958104D01*
X93855190Y-91027655D01*
X93912708Y-91079492D01*
X93939822Y-91106554D01*
X93940480Y-91107503D01*
X93936436Y-91141677D01*
X93914919Y-91171252D01*
X93893780Y-91185418D01*
X93858136Y-91195904D01*
X93801112Y-91203225D01*
X93715830Y-91207898D01*
X93595417Y-91210438D01*
X93432995Y-91211361D01*
X93379574Y-91211400D01*
X92884376Y-91211400D01*
X92902002Y-91268550D01*
X92934700Y-91345126D01*
X92991821Y-91449853D01*
X93066151Y-91571135D01*
X93150478Y-91697374D01*
X93237590Y-91816975D01*
X93264748Y-91851791D01*
X93489796Y-92097443D01*
X93750835Y-92316652D01*
X93859350Y-92392292D01*
X93932531Y-92444620D01*
X93984932Y-92489865D01*
X94005393Y-92518371D01*
X94005399Y-92518668D01*
X93988302Y-92555093D01*
X93946583Y-92603889D01*
X93941041Y-92609206D01*
X93895643Y-92671794D01*
X93850080Y-92768821D01*
X93822595Y-92847738D01*
X93768508Y-93025807D01*
X93617945Y-92861553D01*
X93450651Y-92666674D01*
X93304230Y-92467474D01*
X93174398Y-92255759D01*
X93056873Y-92023331D01*
X92947369Y-91761996D01*
X92841604Y-91463557D01*
X92772030Y-91243150D01*
X92746387Y-91213585D01*
X92736197Y-91211400D01*
X92729099Y-91235582D01*
X92723133Y-91308375D01*
X92718292Y-91430148D01*
X92714567Y-91601271D01*
X92711950Y-91822113D01*
X92710432Y-92093044D01*
X92710000Y-92377534D01*
X92710000Y-93543668D01*
X92600380Y-93596734D01*
X92507923Y-93630050D01*
X92410813Y-93648497D01*
X92384818Y-93649800D01*
X92278875Y-93649800D01*
X92272187Y-92795620D01*
X92265500Y-91941440D01*
X92134606Y-92141570D01*
X92050605Y-92262004D01*
X91952030Y-92390806D01*
X91847976Y-92517203D01*
X91747537Y-92630420D01*
X91659806Y-92719682D01*
X91610807Y-92762158D01*
X91540315Y-92816297D01*
X91641506Y-92914500D01*
X91711294Y-92992186D01*
X91773153Y-93077478D01*
X91794549Y-93114339D01*
X91836740Y-93231505D01*
X91845719Y-93342217D01*
X91825420Y-93438759D01*
X91779775Y-93513415D01*
X91712715Y-93558469D01*
X91628174Y-93566205D01*
X91572316Y-93550402D01*
X91527846Y-93525832D01*
X91499428Y-93488209D01*
X91478609Y-93422925D01*
X91467059Y-93368535D01*
X91447996Y-93289151D01*
X91428308Y-93234605D01*
X91414679Y-93218000D01*
X91384289Y-93227714D01*
X91316584Y-93254376D01*
X91220654Y-93294258D01*
X91105587Y-93343636D01*
X91066707Y-93360615D01*
X90904084Y-93435906D01*
X90780566Y-93501698D01*
X90699996Y-93555853D01*
X90678000Y-93576744D01*
X90634187Y-93623850D01*
X90605135Y-93648521D01*
X90601800Y-93649613D01*
X90585519Y-93628277D01*
X90551785Y-93571275D01*
X90506131Y-93488242D01*
X90471660Y-93422907D01*
X90416062Y-93313357D01*
X90386380Y-93240888D01*
X90384634Y-93197753D01*
X90412842Y-93176205D01*
X90473023Y-93168497D01*
X90538300Y-93167157D01*
X90603002Y-93160706D01*
X90644000Y-93147652D01*
X90667727Y-93107195D01*
X90691290Y-93016394D01*
X90714608Y-92875702D01*
X90737605Y-92685576D01*
X90754951Y-92506800D01*
X90766840Y-92377290D01*
X90778281Y-92259365D01*
X90787973Y-92166034D01*
X90794615Y-92110306D01*
X90794616Y-92110303D01*
X90805968Y-92031307D01*
X91078534Y-92079634D01*
X91219575Y-92104836D01*
X91316491Y-92123837D01*
X91375137Y-92139526D01*
X91401368Y-92154793D01*
X91401038Y-92172525D01*
X91380003Y-92195614D01*
X91356033Y-92216561D01*
X91296606Y-92257734D01*
X91244411Y-92277814D01*
X91238834Y-92278200D01*
X91198778Y-92300397D01*
X91159170Y-92369139D01*
X91147186Y-92398850D01*
X91118842Y-92469352D01*
X91075388Y-92572318D01*
X91022724Y-92693959D01*
X90966752Y-92820487D01*
X90966336Y-92821417D01*
X90831199Y-93123334D01*
X91025178Y-93105756D01*
X91129853Y-93095256D01*
X91223504Y-93084099D01*
X91287105Y-93074568D01*
X91290405Y-93073928D01*
X91361655Y-93059678D01*
X91295970Y-92929289D01*
X91249641Y-92842356D01*
X91203175Y-92762990D01*
X91180938Y-92728945D01*
X91150602Y-92679664D01*
X91151579Y-92654753D01*
X91169033Y-92644622D01*
X91212998Y-92646753D01*
X91279850Y-92668973D01*
X91309525Y-92682827D01*
X91376008Y-92714526D01*
X91423674Y-92733246D01*
X91433934Y-92735400D01*
X91459035Y-92714007D01*
X91501185Y-92655715D01*
X91555302Y-92569348D01*
X91616306Y-92463732D01*
X91679113Y-92347693D01*
X91738642Y-92230057D01*
X91789811Y-92119648D01*
X91793858Y-92110309D01*
X91851141Y-91969295D01*
X91909810Y-91811241D01*
X91965291Y-91649807D01*
X92013012Y-91498654D01*
X92048399Y-91371444D01*
X92062886Y-91306650D01*
X92080653Y-91211399D01*
X91674389Y-91211400D01*
X91522496Y-91211169D01*
X91413789Y-91209790D01*
X91340654Y-91206229D01*
X91295477Y-91199456D01*
X91270643Y-91188436D01*
X91258539Y-91172140D01*
X91252809Y-91154250D01*
X91242507Y-91114229D01*
X91239988Y-91084203D01*
X91251254Y-91062738D01*
X91282308Y-91048398D01*
X91339151Y-91039749D01*
X91427786Y-91035356D01*
X91554216Y-91033783D01*
X91724441Y-91033597D01*
X91757500Y-91033600D01*
X92278200Y-91033600D01*
X92278200Y-90170000D01*
X91368769Y-90170000D01*
X91340884Y-90090009D01*
X91321914Y-90033197D01*
X91313081Y-90002027D01*
X91313000Y-90001109D01*
X91337099Y-89998335D01*
X91404197Y-89995913D01*
X91506491Y-89993987D01*
X91636182Y-89992702D01*
X91785466Y-89992201D01*
X91795600Y-89992200D01*
X92278200Y-89992200D01*
X92278200Y-89001600D01*
X92335350Y-89002553D01*
G37*
X92335350Y-89002553D02*
X92405535Y-89006782D01*
X92501180Y-89016515D01*
X92609946Y-89029994D01*
X92719496Y-89045460D01*
X92817491Y-89061155D01*
X92891592Y-89075320D01*
X92929463Y-89086196D01*
X92931321Y-89087499D01*
X92928717Y-89114967D01*
X92895178Y-89154468D01*
X92844720Y-89194370D01*
X92791359Y-89223041D01*
X92759383Y-89230200D01*
X92740392Y-89232993D01*
X92727008Y-89246394D01*
X92718257Y-89277935D01*
X92713160Y-89335150D01*
X92710743Y-89425569D01*
X92710028Y-89556726D01*
X92710000Y-89611200D01*
X92710000Y-89992200D01*
X92881711Y-89992199D01*
X93053422Y-89992199D01*
X93188861Y-89814605D01*
X93242978Y-89742427D01*
X93283809Y-89693364D01*
X93319661Y-89668717D01*
X93358843Y-89669788D01*
X93409661Y-89697876D01*
X93480423Y-89754284D01*
X93579437Y-89840311D01*
X93629084Y-89883541D01*
X93711785Y-89958061D01*
X93777614Y-90022754D01*
X93818373Y-90069238D01*
X93827600Y-90086525D01*
X93819498Y-90113455D01*
X93791615Y-90134152D01*
X93738580Y-90149353D01*
X93655025Y-90159797D01*
X93535580Y-90166219D01*
X93374876Y-90169357D01*
X93219669Y-90170000D01*
X92710000Y-90170000D01*
X92710000Y-91033600D01*
X92932250Y-91033426D01*
X93039089Y-91032716D01*
X93107596Y-91028331D01*
X93150238Y-91016588D01*
X93179482Y-90993801D01*
X93207795Y-90956286D01*
X93211544Y-90950876D01*
X93264249Y-90879531D01*
X93328864Y-90798188D01*
X93352240Y-90770204D01*
X93435891Y-90671909D01*
X93680892Y-90877905D01*
X93775256Y-90958104D01*
X93855190Y-91027655D01*
X93912708Y-91079492D01*
X93939822Y-91106554D01*
X93940480Y-91107503D01*
X93936436Y-91141677D01*
X93914919Y-91171252D01*
X93893780Y-91185418D01*
X93858136Y-91195904D01*
X93801112Y-91203225D01*
X93715830Y-91207898D01*
X93595417Y-91210438D01*
X93432995Y-91211361D01*
X93379574Y-91211400D01*
X92884376Y-91211400D01*
X92902002Y-91268550D01*
X92934700Y-91345126D01*
X92991821Y-91449853D01*
X93066151Y-91571135D01*
X93150478Y-91697374D01*
X93237590Y-91816975D01*
X93264748Y-91851791D01*
X93489796Y-92097443D01*
X93750835Y-92316652D01*
X93859350Y-92392292D01*
X93932531Y-92444620D01*
X93984932Y-92489865D01*
X94005393Y-92518371D01*
X94005399Y-92518668D01*
X93988302Y-92555093D01*
X93946583Y-92603889D01*
X93941041Y-92609206D01*
X93895643Y-92671794D01*
X93850080Y-92768821D01*
X93822595Y-92847738D01*
X93768508Y-93025807D01*
X93617945Y-92861553D01*
X93450651Y-92666674D01*
X93304230Y-92467474D01*
X93174398Y-92255759D01*
X93056873Y-92023331D01*
X92947369Y-91761996D01*
X92841604Y-91463557D01*
X92772030Y-91243150D01*
X92746387Y-91213585D01*
X92736197Y-91211400D01*
X92729099Y-91235582D01*
X92723133Y-91308375D01*
X92718292Y-91430148D01*
X92714567Y-91601271D01*
X92711950Y-91822113D01*
X92710432Y-92093044D01*
X92710000Y-92377534D01*
X92710000Y-93543668D01*
X92600380Y-93596734D01*
X92507923Y-93630050D01*
X92410813Y-93648497D01*
X92384818Y-93649800D01*
X92278875Y-93649800D01*
X92272187Y-92795620D01*
X92265500Y-91941440D01*
X92134606Y-92141570D01*
X92050605Y-92262004D01*
X91952030Y-92390806D01*
X91847976Y-92517203D01*
X91747537Y-92630420D01*
X91659806Y-92719682D01*
X91610807Y-92762158D01*
X91540315Y-92816297D01*
X91641506Y-92914500D01*
X91711294Y-92992186D01*
X91773153Y-93077478D01*
X91794549Y-93114339D01*
X91836740Y-93231505D01*
X91845719Y-93342217D01*
X91825420Y-93438759D01*
X91779775Y-93513415D01*
X91712715Y-93558469D01*
X91628174Y-93566205D01*
X91572316Y-93550402D01*
X91527846Y-93525832D01*
X91499428Y-93488209D01*
X91478609Y-93422925D01*
X91467059Y-93368535D01*
X91447996Y-93289151D01*
X91428308Y-93234605D01*
X91414679Y-93218000D01*
X91384289Y-93227714D01*
X91316584Y-93254376D01*
X91220654Y-93294258D01*
X91105587Y-93343636D01*
X91066707Y-93360615D01*
X90904084Y-93435906D01*
X90780566Y-93501698D01*
X90699996Y-93555853D01*
X90678000Y-93576744D01*
X90634187Y-93623850D01*
X90605135Y-93648521D01*
X90601800Y-93649613D01*
X90585519Y-93628277D01*
X90551785Y-93571275D01*
X90506131Y-93488242D01*
X90471660Y-93422907D01*
X90416062Y-93313357D01*
X90386380Y-93240888D01*
X90384634Y-93197753D01*
X90412842Y-93176205D01*
X90473023Y-93168497D01*
X90538300Y-93167157D01*
X90603002Y-93160706D01*
X90644000Y-93147652D01*
X90667727Y-93107195D01*
X90691290Y-93016394D01*
X90714608Y-92875702D01*
X90737605Y-92685576D01*
X90754951Y-92506800D01*
X90766840Y-92377290D01*
X90778281Y-92259365D01*
X90787973Y-92166034D01*
X90794615Y-92110306D01*
X90794616Y-92110303D01*
X90805968Y-92031307D01*
X91078534Y-92079634D01*
X91219575Y-92104836D01*
X91316491Y-92123837D01*
X91375137Y-92139526D01*
X91401368Y-92154793D01*
X91401038Y-92172525D01*
X91380003Y-92195614D01*
X91356033Y-92216561D01*
X91296606Y-92257734D01*
X91244411Y-92277814D01*
X91238834Y-92278200D01*
X91198778Y-92300397D01*
X91159170Y-92369139D01*
X91147186Y-92398850D01*
X91118842Y-92469352D01*
X91075388Y-92572318D01*
X91022724Y-92693959D01*
X90966752Y-92820487D01*
X90966336Y-92821417D01*
X90831199Y-93123334D01*
X91025178Y-93105756D01*
X91129853Y-93095256D01*
X91223504Y-93084099D01*
X91287105Y-93074568D01*
X91290405Y-93073928D01*
X91361655Y-93059678D01*
X91295970Y-92929289D01*
X91249641Y-92842356D01*
X91203175Y-92762990D01*
X91180938Y-92728945D01*
X91150602Y-92679664D01*
X91151579Y-92654753D01*
X91169033Y-92644622D01*
X91212998Y-92646753D01*
X91279850Y-92668973D01*
X91309525Y-92682827D01*
X91376008Y-92714526D01*
X91423674Y-92733246D01*
X91433934Y-92735400D01*
X91459035Y-92714007D01*
X91501185Y-92655715D01*
X91555302Y-92569348D01*
X91616306Y-92463732D01*
X91679113Y-92347693D01*
X91738642Y-92230057D01*
X91789811Y-92119648D01*
X91793858Y-92110309D01*
X91851141Y-91969295D01*
X91909810Y-91811241D01*
X91965291Y-91649807D01*
X92013012Y-91498654D01*
X92048399Y-91371444D01*
X92062886Y-91306650D01*
X92080653Y-91211399D01*
X91674389Y-91211400D01*
X91522496Y-91211169D01*
X91413789Y-91209790D01*
X91340654Y-91206229D01*
X91295477Y-91199456D01*
X91270643Y-91188436D01*
X91258539Y-91172140D01*
X91252809Y-91154250D01*
X91242507Y-91114229D01*
X91239988Y-91084203D01*
X91251254Y-91062738D01*
X91282308Y-91048398D01*
X91339151Y-91039749D01*
X91427786Y-91035356D01*
X91554216Y-91033783D01*
X91724441Y-91033597D01*
X91757500Y-91033600D01*
X92278200Y-91033600D01*
X92278200Y-90170000D01*
X91368769Y-90170000D01*
X91340884Y-90090009D01*
X91321914Y-90033197D01*
X91313081Y-90002027D01*
X91313000Y-90001109D01*
X91337099Y-89998335D01*
X91404197Y-89995913D01*
X91506491Y-89993987D01*
X91636182Y-89992702D01*
X91785466Y-89992201D01*
X91795600Y-89992200D01*
X92278200Y-89992200D01*
X92278200Y-89001600D01*
X92335350Y-89002553D01*
D14*
%TO.C,PWM_PAD2*%
X111506000Y-55245000D02*
X112014000Y-55245000D01*
X112014000Y-55245000D02*
X112014000Y-55753000D01*
X111506000Y-55753000D02*
X112014000Y-55753000D01*
X111506000Y-55245000D02*
X111506000Y-55753000D01*
X111506000Y-57785000D02*
X112014000Y-57785000D01*
X112014000Y-57785000D02*
X112014000Y-58293000D01*
X111506000Y-58293000D02*
X112014000Y-58293000D01*
X111506000Y-57785000D02*
X111506000Y-58293000D01*
X111506000Y-60325000D02*
X112014000Y-60325000D01*
X112014000Y-60325000D02*
X112014000Y-60833000D01*
X111506000Y-60833000D02*
X112014000Y-60833000D01*
X111506000Y-60325000D02*
X111506000Y-60833000D01*
D15*
%TO.C,RST1*%
X88318000Y-62177000D02*
X87828000Y-61687000D01*
X88318000Y-65077000D02*
X88318000Y-62177000D01*
X88318000Y-65077000D02*
X87828000Y-65567000D01*
X82878000Y-65077000D02*
X82878000Y-62177000D01*
X82878000Y-65077000D02*
X83368000Y-65567000D01*
X86638000Y-60907000D02*
X84558000Y-60907000D01*
X82878000Y-62177000D02*
X83368000Y-61687000D01*
X86638000Y-66347000D02*
X84558000Y-66347000D01*
D16*
%TO.C,PWM_PAD1*%
X111125000Y-61849000D02*
X112395000Y-61849000D01*
X111125000Y-54229000D02*
X112395000Y-54229000D01*
D10*
%TO.C,J1*%
X88271000Y-42069000D02*
X82671000Y-42069000D01*
X82671000Y-44069000D02*
X82671000Y-42069000D01*
X88271000Y-44069000D02*
X88271000Y-42069000D01*
X82421000Y-44069000D02*
X82421000Y-56169000D01*
X88521000Y-44069000D02*
X88521000Y-56169000D01*
X88521000Y-56169000D02*
X82421000Y-56169000D01*
X88521000Y-44069000D02*
X82421000Y-44069000D01*
%TO.C,D8*%
X196672200Y-85318600D02*
X196672200Y-86842600D01*
X196545200Y-85318600D02*
X196545200Y-86842600D01*
X196418200Y-86842600D02*
X196418200Y-85318600D01*
X196037200Y-85318600D02*
X196037200Y-86842600D01*
X196164200Y-86842600D02*
X196164200Y-85318600D01*
X196291200Y-85318600D02*
X196291200Y-86842600D01*
X200990200Y-85318600D02*
X200482200Y-85318600D01*
X200990200Y-86842600D02*
X200990200Y-85318600D01*
X195910200Y-86842600D02*
X200990200Y-86842600D01*
X195910200Y-85318600D02*
X195910200Y-86842600D01*
X200990200Y-85318600D02*
X195910200Y-85318600D01*
%TO.C,D28*%
X112757245Y-93568640D02*
X111233245Y-93568640D01*
X112757245Y-93441640D02*
X111233245Y-93441640D01*
X111233245Y-93314640D02*
X112757245Y-93314640D01*
X112757245Y-92933640D02*
X111233245Y-92933640D01*
X111233245Y-93060640D02*
X112757245Y-93060640D01*
X112757245Y-93187640D02*
X111233245Y-93187640D01*
X112757245Y-97886640D02*
X112757245Y-97378640D01*
X111233245Y-97886640D02*
X112757245Y-97886640D01*
X111233245Y-92806640D02*
X111233245Y-97886640D01*
X112757245Y-92806640D02*
X111233245Y-92806640D01*
X112757245Y-97886640D02*
X112757245Y-92806640D01*
%TO.C,D27*%
X112665079Y-74714861D02*
X111141079Y-74714861D01*
X112665079Y-74587861D02*
X111141079Y-74587861D01*
X111141079Y-74460861D02*
X112665079Y-74460861D01*
X112665079Y-74079861D02*
X111141079Y-74079861D01*
X111141079Y-74206861D02*
X112665079Y-74206861D01*
X112665079Y-74333861D02*
X111141079Y-74333861D01*
X112665079Y-79032861D02*
X112665079Y-78524861D01*
X111141079Y-79032861D02*
X112665079Y-79032861D01*
X111141079Y-73952861D02*
X111141079Y-79032861D01*
X112665079Y-73952861D02*
X111141079Y-73952861D01*
X112665079Y-79032861D02*
X112665079Y-73952861D01*
%TO.C,D26*%
X120243600Y-60375800D02*
X120243600Y-61899800D01*
X120116600Y-60375800D02*
X120116600Y-61899800D01*
X119989600Y-61899800D02*
X119989600Y-60375800D01*
X119608600Y-60375800D02*
X119608600Y-61899800D01*
X119735600Y-61899800D02*
X119735600Y-60375800D01*
X119862600Y-60375800D02*
X119862600Y-61899800D01*
X124561600Y-60375800D02*
X124053600Y-60375800D01*
X124561600Y-61899800D02*
X124561600Y-60375800D01*
X119481600Y-61899800D02*
X124561600Y-61899800D01*
X119481600Y-60375800D02*
X119481600Y-61899800D01*
X124561600Y-60375800D02*
X119481600Y-60375800D01*
%TO.C,D24*%
X131769609Y-92160162D02*
X130245609Y-92160162D01*
X131769609Y-92033162D02*
X130245609Y-92033162D01*
X130245609Y-91906162D02*
X131769609Y-91906162D01*
X131769609Y-91525162D02*
X130245609Y-91525162D01*
X130245609Y-91652162D02*
X131769609Y-91652162D01*
X131769609Y-91779162D02*
X130245609Y-91779162D01*
X131769609Y-96478162D02*
X131769609Y-95970162D01*
X130245609Y-96478162D02*
X131769609Y-96478162D01*
X130245609Y-91398162D02*
X130245609Y-96478162D01*
X131769609Y-91398162D02*
X130245609Y-91398162D01*
X131769609Y-96478162D02*
X131769609Y-91398162D01*
%TO.C,D23*%
X131931349Y-73083240D02*
X130407349Y-73083240D01*
X131931349Y-72956240D02*
X130407349Y-72956240D01*
X130407349Y-72829240D02*
X131931349Y-72829240D01*
X131931349Y-72448240D02*
X130407349Y-72448240D01*
X130407349Y-72575240D02*
X131931349Y-72575240D01*
X131931349Y-72702240D02*
X130407349Y-72702240D01*
X131931349Y-77401240D02*
X131931349Y-76893240D01*
X130407349Y-77401240D02*
X131931349Y-77401240D01*
X130407349Y-72321240D02*
X130407349Y-77401240D01*
X131931349Y-72321240D02*
X130407349Y-72321240D01*
X131931349Y-77401240D02*
X131931349Y-72321240D01*
%TO.C,D22*%
X131779392Y-53728155D02*
X130255392Y-53728155D01*
X131779392Y-53601155D02*
X130255392Y-53601155D01*
X130255392Y-53474155D02*
X131779392Y-53474155D01*
X131779392Y-53093155D02*
X130255392Y-53093155D01*
X130255392Y-53220155D02*
X131779392Y-53220155D01*
X131779392Y-53347155D02*
X130255392Y-53347155D01*
X131779392Y-58046155D02*
X131779392Y-57538155D01*
X130255392Y-58046155D02*
X131779392Y-58046155D01*
X130255392Y-52966155D02*
X130255392Y-58046155D01*
X131779392Y-52966155D02*
X130255392Y-52966155D01*
X131779392Y-58046155D02*
X131779392Y-52966155D01*
%TO.C,D20*%
X89853406Y-135683155D02*
X90781158Y-136892226D01*
X89450382Y-135992406D02*
X90378135Y-137201477D01*
X89954162Y-135605843D02*
X90881914Y-136814913D01*
X90277379Y-137278789D02*
X94307614Y-134186281D01*
X89349626Y-136069719D02*
X90277379Y-137278789D01*
X90680402Y-136969538D02*
X89752650Y-135760468D01*
X90478890Y-137124164D02*
X89551138Y-135915093D01*
X93379861Y-132977211D02*
X92976838Y-133286462D01*
X93379861Y-132977211D02*
X89349626Y-136069719D01*
X94307614Y-134186281D02*
X93379861Y-132977211D01*
X89651894Y-135837781D02*
X90579646Y-137046851D01*
%TO.C,D19*%
X150954403Y-86287988D02*
X149430403Y-86287988D01*
X150954403Y-86160988D02*
X149430403Y-86160988D01*
X149430403Y-86033988D02*
X150954403Y-86033988D01*
X150954403Y-85652988D02*
X149430403Y-85652988D01*
X149430403Y-85779988D02*
X150954403Y-85779988D01*
X150954403Y-85906988D02*
X149430403Y-85906988D01*
X150954403Y-90605988D02*
X150954403Y-90097988D01*
X149430403Y-90605988D02*
X150954403Y-90605988D01*
X149430403Y-85525988D02*
X149430403Y-90605988D01*
X150954403Y-85525988D02*
X149430403Y-85525988D01*
X150954403Y-90605988D02*
X150954403Y-85525988D01*
%TO.C,D18*%
X157619700Y-71818500D02*
X157619700Y-73342500D01*
X157492700Y-71818500D02*
X157492700Y-73342500D01*
X157365700Y-73342500D02*
X157365700Y-71818500D01*
X156984700Y-71818500D02*
X156984700Y-73342500D01*
X157111700Y-73342500D02*
X157111700Y-71818500D01*
X157238700Y-71818500D02*
X157238700Y-73342500D01*
X161937700Y-71818500D02*
X161429700Y-71818500D01*
X161937700Y-73342500D02*
X161937700Y-71818500D01*
X156857700Y-73342500D02*
X161937700Y-73342500D01*
X156857700Y-71818500D02*
X156857700Y-73342500D01*
X161937700Y-71818500D02*
X156857700Y-71818500D01*
%TO.C,D17*%
X158559500Y-52419250D02*
X158559500Y-53943250D01*
X158432500Y-52419250D02*
X158432500Y-53943250D01*
X158305500Y-53943250D02*
X158305500Y-52419250D01*
X157924500Y-52419250D02*
X157924500Y-53943250D01*
X158051500Y-53943250D02*
X158051500Y-52419250D01*
X158178500Y-52419250D02*
X158178500Y-53943250D01*
X162877500Y-52419250D02*
X162369500Y-52419250D01*
X162877500Y-53943250D02*
X162877500Y-52419250D01*
X157797500Y-53943250D02*
X162877500Y-53943250D01*
X157797500Y-52419250D02*
X157797500Y-53943250D01*
X162877500Y-52419250D02*
X157797500Y-52419250D01*
%TO.C,D15*%
X106137669Y-125463481D02*
X106781739Y-126844694D01*
X105677264Y-125678171D02*
X106321334Y-127059384D01*
X106252770Y-125409809D02*
X106896840Y-126791022D01*
X106206233Y-127113057D02*
X110810277Y-124966156D01*
X105562163Y-125731844D02*
X106206233Y-127113057D01*
X106666638Y-126898367D02*
X106022567Y-125517154D01*
X106436436Y-127005712D02*
X105792365Y-125624499D01*
X110166207Y-123584943D02*
X109705802Y-123799633D01*
X110166207Y-123584943D02*
X105562163Y-125731844D01*
X110810277Y-124966156D02*
X110166207Y-123584943D01*
X105907466Y-125570826D02*
X106551537Y-126952039D01*
%TO.C,D14*%
X169878409Y-89753959D02*
X168354409Y-89753959D01*
X169878409Y-89626959D02*
X168354409Y-89626959D01*
X168354409Y-89499959D02*
X169878409Y-89499959D01*
X169878409Y-89118959D02*
X168354409Y-89118959D01*
X168354409Y-89245959D02*
X169878409Y-89245959D01*
X169878409Y-89372959D02*
X168354409Y-89372959D01*
X169878409Y-94071959D02*
X169878409Y-93563959D01*
X168354409Y-94071959D02*
X169878409Y-94071959D01*
X168354409Y-88991959D02*
X168354409Y-94071959D01*
X169878409Y-88991959D02*
X168354409Y-88991959D01*
X169878409Y-94071959D02*
X169878409Y-88991959D01*
%TO.C,D13*%
X169907564Y-70447398D02*
X168383564Y-70447398D01*
X169907564Y-70320398D02*
X168383564Y-70320398D01*
X168383564Y-70193398D02*
X169907564Y-70193398D01*
X169907564Y-69812398D02*
X168383564Y-69812398D01*
X168383564Y-69939398D02*
X169907564Y-69939398D01*
X169907564Y-70066398D02*
X168383564Y-70066398D01*
X169907564Y-74765398D02*
X169907564Y-74257398D01*
X168383564Y-74765398D02*
X169907564Y-74765398D01*
X168383564Y-69685398D02*
X168383564Y-74765398D01*
X169907564Y-69685398D02*
X168383564Y-69685398D01*
X169907564Y-74765398D02*
X169907564Y-69685398D01*
%TO.C,D12*%
X177609500Y-56388000D02*
X177609500Y-57912000D01*
X177482500Y-56388000D02*
X177482500Y-57912000D01*
X177355500Y-57912000D02*
X177355500Y-56388000D01*
X176974500Y-56388000D02*
X176974500Y-57912000D01*
X177101500Y-57912000D02*
X177101500Y-56388000D01*
X177228500Y-56388000D02*
X177228500Y-57912000D01*
X181927500Y-56388000D02*
X181419500Y-56388000D01*
X181927500Y-57912000D02*
X181927500Y-56388000D01*
X176847500Y-57912000D02*
X181927500Y-57912000D01*
X176847500Y-56388000D02*
X176847500Y-57912000D01*
X181927500Y-56388000D02*
X176847500Y-56388000D01*
%TO.C,D10*%
X124358009Y-119122040D02*
X124687863Y-120609915D01*
X123862051Y-119231991D02*
X124191905Y-120719866D01*
X124481999Y-119094552D02*
X124811853Y-120582427D01*
X124067915Y-120747354D02*
X129027499Y-119647841D01*
X123738061Y-119259479D02*
X124067915Y-120747354D01*
X124563873Y-120637403D02*
X124234020Y-119149528D01*
X124315894Y-120692379D02*
X123986040Y-119204503D01*
X128697645Y-118159966D02*
X128201687Y-118269917D01*
X128697645Y-118159966D02*
X123738061Y-119259479D01*
X129027499Y-119647841D02*
X128697645Y-118159966D01*
X124110030Y-119177016D02*
X124439884Y-120664891D01*
%TO.C,D9*%
X188635952Y-99438766D02*
X187111952Y-99438766D01*
X188635952Y-99311766D02*
X187111952Y-99311766D01*
X187111952Y-99184766D02*
X188635952Y-99184766D01*
X188635952Y-98803766D02*
X187111952Y-98803766D01*
X187111952Y-98930766D02*
X188635952Y-98930766D01*
X188635952Y-99057766D02*
X187111952Y-99057766D01*
X188635952Y-103756766D02*
X188635952Y-103248766D01*
X187111952Y-103756766D02*
X188635952Y-103756766D01*
X187111952Y-98676766D02*
X187111952Y-103756766D01*
X188635952Y-98676766D02*
X187111952Y-98676766D01*
X188635952Y-103756766D02*
X188635952Y-98676766D01*
%TO.C,D7*%
X188985421Y-59738973D02*
X187461421Y-59738973D01*
X188985421Y-59611973D02*
X187461421Y-59611973D01*
X187461421Y-59484973D02*
X188985421Y-59484973D01*
X188985421Y-59103973D02*
X187461421Y-59103973D01*
X187461421Y-59230973D02*
X188985421Y-59230973D01*
X188985421Y-59357973D02*
X187461421Y-59357973D01*
X188985421Y-64056973D02*
X188985421Y-63548973D01*
X187461421Y-64056973D02*
X188985421Y-64056973D01*
X187461421Y-58976973D02*
X187461421Y-64056973D01*
X188985421Y-58976973D02*
X187461421Y-58976973D01*
X188985421Y-64056973D02*
X188985421Y-58976973D01*
%TO.C,U1*%
X90754200Y-43954700D02*
X90754200Y-74434700D01*
X90754200Y-43954700D02*
X95834200Y-43954700D01*
X95834200Y-43954700D02*
X95834200Y-41414700D01*
X95834200Y-41414700D02*
X103454200Y-41414700D01*
X103454200Y-41414700D02*
X103454200Y-43954700D01*
X103454200Y-43954700D02*
X108534200Y-43954700D01*
X108534200Y-43954700D02*
X108534200Y-74434700D01*
X108534200Y-74434700D02*
X90754200Y-74434700D01*
%TD*%
D17*
%TO.C,J3*%
X96533500Y-80264000D02*
G75*
G03*
X96533500Y-80264000I-648500J0D01*
G01*
X99073500Y-80264000D02*
G75*
G03*
X99073500Y-80264000I-648500J0D01*
G01*
X101613500Y-80264000D02*
G75*
G03*
X101613500Y-80264000I-648500J0D01*
G01*
X104153500Y-80264000D02*
G75*
G03*
X104153500Y-80264000I-648500J0D01*
G01*
%TD*%
%TO.C,RST1*%
D10*
X85914666Y-64243666D02*
X85581333Y-64477000D01*
X85914666Y-64643666D02*
X85214666Y-64643666D01*
X85214666Y-64377000D01*
X85248000Y-64310333D01*
X85281333Y-64277000D01*
X85348000Y-64243666D01*
X85448000Y-64243666D01*
X85514666Y-64277000D01*
X85548000Y-64310333D01*
X85581333Y-64377000D01*
X85581333Y-64643666D01*
X85881333Y-63977000D02*
X85914666Y-63877000D01*
X85914666Y-63710333D01*
X85881333Y-63643666D01*
X85848000Y-63610333D01*
X85781333Y-63577000D01*
X85714666Y-63577000D01*
X85648000Y-63610333D01*
X85614666Y-63643666D01*
X85581333Y-63710333D01*
X85548000Y-63843666D01*
X85514666Y-63910333D01*
X85481333Y-63943666D01*
X85414666Y-63977000D01*
X85348000Y-63977000D01*
X85281333Y-63943666D01*
X85248000Y-63910333D01*
X85214666Y-63843666D01*
X85214666Y-63677000D01*
X85248000Y-63577000D01*
X85214666Y-63377000D02*
X85214666Y-62977000D01*
X85914666Y-63177000D02*
X85214666Y-63177000D01*
X85914666Y-62377000D02*
X85914666Y-62777000D01*
X85914666Y-62577000D02*
X85214666Y-62577000D01*
X85314666Y-62643666D01*
X85381333Y-62710333D01*
X85414666Y-62777000D01*
%TO.C,D8*%
X197885123Y-85042504D02*
X197885123Y-84242504D01*
X198075600Y-84242504D01*
X198189885Y-84280600D01*
X198266076Y-84356790D01*
X198304171Y-84432980D01*
X198342266Y-84585361D01*
X198342266Y-84699647D01*
X198304171Y-84852028D01*
X198266076Y-84928219D01*
X198189885Y-85004409D01*
X198075600Y-85042504D01*
X197885123Y-85042504D01*
X198799409Y-84585361D02*
X198723219Y-84547266D01*
X198685123Y-84509171D01*
X198647028Y-84432980D01*
X198647028Y-84394885D01*
X198685123Y-84318695D01*
X198723219Y-84280600D01*
X198799409Y-84242504D01*
X198951790Y-84242504D01*
X199027980Y-84280600D01*
X199066076Y-84318695D01*
X199104171Y-84394885D01*
X199104171Y-84432980D01*
X199066076Y-84509171D01*
X199027980Y-84547266D01*
X198951790Y-84585361D01*
X198799409Y-84585361D01*
X198723219Y-84623457D01*
X198685123Y-84661552D01*
X198647028Y-84737742D01*
X198647028Y-84890123D01*
X198685123Y-84966314D01*
X198723219Y-85004409D01*
X198799409Y-85042504D01*
X198951790Y-85042504D01*
X199027980Y-85004409D01*
X199066076Y-84966314D01*
X199104171Y-84890123D01*
X199104171Y-84737742D01*
X199066076Y-84661552D01*
X199027980Y-84623457D01*
X198951790Y-84585361D01*
%TO.C,D28*%
X113757149Y-96343468D02*
X112957149Y-96343468D01*
X112957149Y-96152992D01*
X112995245Y-96038706D01*
X113071435Y-95962516D01*
X113147625Y-95924420D01*
X113300006Y-95886325D01*
X113414292Y-95886325D01*
X113566673Y-95924420D01*
X113642864Y-95962516D01*
X113719054Y-96038706D01*
X113757149Y-96152992D01*
X113757149Y-96343468D01*
X113033340Y-95581563D02*
X112995245Y-95543468D01*
X112957149Y-95467278D01*
X112957149Y-95276801D01*
X112995245Y-95200611D01*
X113033340Y-95162516D01*
X113109530Y-95124420D01*
X113185721Y-95124420D01*
X113300006Y-95162516D01*
X113757149Y-95619659D01*
X113757149Y-95124420D01*
X113300006Y-94667278D02*
X113261911Y-94743468D01*
X113223816Y-94781563D01*
X113147625Y-94819659D01*
X113109530Y-94819659D01*
X113033340Y-94781563D01*
X112995245Y-94743468D01*
X112957149Y-94667278D01*
X112957149Y-94514897D01*
X112995245Y-94438706D01*
X113033340Y-94400611D01*
X113109530Y-94362516D01*
X113147625Y-94362516D01*
X113223816Y-94400611D01*
X113261911Y-94438706D01*
X113300006Y-94514897D01*
X113300006Y-94667278D01*
X113338102Y-94743468D01*
X113376197Y-94781563D01*
X113452387Y-94819659D01*
X113604768Y-94819659D01*
X113680959Y-94781563D01*
X113719054Y-94743468D01*
X113757149Y-94667278D01*
X113757149Y-94514897D01*
X113719054Y-94438706D01*
X113680959Y-94400611D01*
X113604768Y-94362516D01*
X113452387Y-94362516D01*
X113376197Y-94400611D01*
X113338102Y-94438706D01*
X113300006Y-94514897D01*
%TO.C,D27*%
X113664983Y-77489689D02*
X112864983Y-77489689D01*
X112864983Y-77299213D01*
X112903079Y-77184927D01*
X112979269Y-77108737D01*
X113055459Y-77070641D01*
X113207840Y-77032546D01*
X113322126Y-77032546D01*
X113474507Y-77070641D01*
X113550698Y-77108737D01*
X113626888Y-77184927D01*
X113664983Y-77299213D01*
X113664983Y-77489689D01*
X112941174Y-76727784D02*
X112903079Y-76689689D01*
X112864983Y-76613499D01*
X112864983Y-76423022D01*
X112903079Y-76346832D01*
X112941174Y-76308737D01*
X113017364Y-76270641D01*
X113093555Y-76270641D01*
X113207840Y-76308737D01*
X113664983Y-76765880D01*
X113664983Y-76270641D01*
X112864983Y-76003975D02*
X112864983Y-75470641D01*
X113664983Y-75813499D01*
%TO.C,D26*%
X121075571Y-60099704D02*
X121075571Y-59299704D01*
X121266047Y-59299704D01*
X121380333Y-59337800D01*
X121456523Y-59413990D01*
X121494619Y-59490180D01*
X121532714Y-59642561D01*
X121532714Y-59756847D01*
X121494619Y-59909228D01*
X121456523Y-59985419D01*
X121380333Y-60061609D01*
X121266047Y-60099704D01*
X121075571Y-60099704D01*
X121837476Y-59375895D02*
X121875571Y-59337800D01*
X121951761Y-59299704D01*
X122142238Y-59299704D01*
X122218428Y-59337800D01*
X122256523Y-59375895D01*
X122294619Y-59452085D01*
X122294619Y-59528276D01*
X122256523Y-59642561D01*
X121799380Y-60099704D01*
X122294619Y-60099704D01*
X122980333Y-59299704D02*
X122827952Y-59299704D01*
X122751761Y-59337800D01*
X122713666Y-59375895D01*
X122637476Y-59490180D01*
X122599380Y-59642561D01*
X122599380Y-59947323D01*
X122637476Y-60023514D01*
X122675571Y-60061609D01*
X122751761Y-60099704D01*
X122904142Y-60099704D01*
X122980333Y-60061609D01*
X123018428Y-60023514D01*
X123056523Y-59947323D01*
X123056523Y-59756847D01*
X123018428Y-59680657D01*
X122980333Y-59642561D01*
X122904142Y-59604466D01*
X122751761Y-59604466D01*
X122675571Y-59642561D01*
X122637476Y-59680657D01*
X122599380Y-59756847D01*
%TO.C,D24*%
X132769513Y-94934990D02*
X131969513Y-94934990D01*
X131969513Y-94744514D01*
X132007609Y-94630228D01*
X132083799Y-94554038D01*
X132159989Y-94515942D01*
X132312370Y-94477847D01*
X132426656Y-94477847D01*
X132579037Y-94515942D01*
X132655228Y-94554038D01*
X132731418Y-94630228D01*
X132769513Y-94744514D01*
X132769513Y-94934990D01*
X132045704Y-94173085D02*
X132007609Y-94134990D01*
X131969513Y-94058800D01*
X131969513Y-93868323D01*
X132007609Y-93792133D01*
X132045704Y-93754038D01*
X132121894Y-93715942D01*
X132198085Y-93715942D01*
X132312370Y-93754038D01*
X132769513Y-94211181D01*
X132769513Y-93715942D01*
X132236180Y-93030228D02*
X132769513Y-93030228D01*
X131931418Y-93220704D02*
X132502847Y-93411181D01*
X132502847Y-92915942D01*
%TO.C,D23*%
X132931253Y-75858068D02*
X132131253Y-75858068D01*
X132131253Y-75667592D01*
X132169349Y-75553306D01*
X132245539Y-75477116D01*
X132321729Y-75439020D01*
X132474110Y-75400925D01*
X132588396Y-75400925D01*
X132740777Y-75439020D01*
X132816968Y-75477116D01*
X132893158Y-75553306D01*
X132931253Y-75667592D01*
X132931253Y-75858068D01*
X132207444Y-75096163D02*
X132169349Y-75058068D01*
X132131253Y-74981878D01*
X132131253Y-74791401D01*
X132169349Y-74715211D01*
X132207444Y-74677116D01*
X132283634Y-74639020D01*
X132359825Y-74639020D01*
X132474110Y-74677116D01*
X132931253Y-75134259D01*
X132931253Y-74639020D01*
X132131253Y-74372354D02*
X132131253Y-73877116D01*
X132436015Y-74143782D01*
X132436015Y-74029497D01*
X132474110Y-73953306D01*
X132512206Y-73915211D01*
X132588396Y-73877116D01*
X132778872Y-73877116D01*
X132855063Y-73915211D01*
X132893158Y-73953306D01*
X132931253Y-74029497D01*
X132931253Y-74258068D01*
X132893158Y-74334259D01*
X132855063Y-74372354D01*
%TO.C,D22*%
X132779296Y-56502983D02*
X131979296Y-56502983D01*
X131979296Y-56312507D01*
X132017392Y-56198221D01*
X132093582Y-56122031D01*
X132169772Y-56083935D01*
X132322153Y-56045840D01*
X132436439Y-56045840D01*
X132588820Y-56083935D01*
X132665011Y-56122031D01*
X132741201Y-56198221D01*
X132779296Y-56312507D01*
X132779296Y-56502983D01*
X132055487Y-55741078D02*
X132017392Y-55702983D01*
X131979296Y-55626793D01*
X131979296Y-55436316D01*
X132017392Y-55360126D01*
X132055487Y-55322031D01*
X132131677Y-55283935D01*
X132207868Y-55283935D01*
X132322153Y-55322031D01*
X132779296Y-55779174D01*
X132779296Y-55283935D01*
X132055487Y-54979174D02*
X132017392Y-54941078D01*
X131979296Y-54864888D01*
X131979296Y-54674412D01*
X132017392Y-54598221D01*
X132055487Y-54560126D01*
X132131677Y-54522031D01*
X132207868Y-54522031D01*
X132322153Y-54560126D01*
X132779296Y-55017269D01*
X132779296Y-54522031D01*
%TO.C,D19*%
X151954307Y-89062816D02*
X151154307Y-89062816D01*
X151154307Y-88872340D01*
X151192403Y-88758054D01*
X151268593Y-88681864D01*
X151344783Y-88643768D01*
X151497164Y-88605673D01*
X151611450Y-88605673D01*
X151763831Y-88643768D01*
X151840022Y-88681864D01*
X151916212Y-88758054D01*
X151954307Y-88872340D01*
X151954307Y-89062816D01*
X151954307Y-87843768D02*
X151954307Y-88300911D01*
X151954307Y-88072340D02*
X151154307Y-88072340D01*
X151268593Y-88148530D01*
X151344783Y-88224721D01*
X151382879Y-88300911D01*
X151954307Y-87462816D02*
X151954307Y-87310435D01*
X151916212Y-87234245D01*
X151878117Y-87196149D01*
X151763831Y-87119959D01*
X151611450Y-87081864D01*
X151306688Y-87081864D01*
X151230498Y-87119959D01*
X151192403Y-87158054D01*
X151154307Y-87234245D01*
X151154307Y-87386626D01*
X151192403Y-87462816D01*
X151230498Y-87500911D01*
X151306688Y-87539007D01*
X151497164Y-87539007D01*
X151573355Y-87500911D01*
X151611450Y-87462816D01*
X151649545Y-87386626D01*
X151649545Y-87234245D01*
X151611450Y-87158054D01*
X151573355Y-87119959D01*
X151497164Y-87081864D01*
%TO.C,D18*%
X158451671Y-71542404D02*
X158451671Y-70742404D01*
X158642147Y-70742404D01*
X158756433Y-70780500D01*
X158832623Y-70856690D01*
X158870719Y-70932880D01*
X158908814Y-71085261D01*
X158908814Y-71199547D01*
X158870719Y-71351928D01*
X158832623Y-71428119D01*
X158756433Y-71504309D01*
X158642147Y-71542404D01*
X158451671Y-71542404D01*
X159670719Y-71542404D02*
X159213576Y-71542404D01*
X159442147Y-71542404D02*
X159442147Y-70742404D01*
X159365957Y-70856690D01*
X159289766Y-70932880D01*
X159213576Y-70970976D01*
X160127861Y-71085261D02*
X160051671Y-71047166D01*
X160013576Y-71009071D01*
X159975480Y-70932880D01*
X159975480Y-70894785D01*
X160013576Y-70818595D01*
X160051671Y-70780500D01*
X160127861Y-70742404D01*
X160280242Y-70742404D01*
X160356433Y-70780500D01*
X160394528Y-70818595D01*
X160432623Y-70894785D01*
X160432623Y-70932880D01*
X160394528Y-71009071D01*
X160356433Y-71047166D01*
X160280242Y-71085261D01*
X160127861Y-71085261D01*
X160051671Y-71123357D01*
X160013576Y-71161452D01*
X159975480Y-71237642D01*
X159975480Y-71390023D01*
X160013576Y-71466214D01*
X160051671Y-71504309D01*
X160127861Y-71542404D01*
X160280242Y-71542404D01*
X160356433Y-71504309D01*
X160394528Y-71466214D01*
X160432623Y-71390023D01*
X160432623Y-71237642D01*
X160394528Y-71161452D01*
X160356433Y-71123357D01*
X160280242Y-71085261D01*
%TO.C,D17*%
X159391471Y-52143154D02*
X159391471Y-51343154D01*
X159581947Y-51343154D01*
X159696233Y-51381250D01*
X159772423Y-51457440D01*
X159810519Y-51533630D01*
X159848614Y-51686011D01*
X159848614Y-51800297D01*
X159810519Y-51952678D01*
X159772423Y-52028869D01*
X159696233Y-52105059D01*
X159581947Y-52143154D01*
X159391471Y-52143154D01*
X160610519Y-52143154D02*
X160153376Y-52143154D01*
X160381947Y-52143154D02*
X160381947Y-51343154D01*
X160305757Y-51457440D01*
X160229566Y-51533630D01*
X160153376Y-51571726D01*
X160877185Y-51343154D02*
X161410519Y-51343154D01*
X161067661Y-52143154D01*
%TO.C,D14*%
X170878313Y-92528787D02*
X170078313Y-92528787D01*
X170078313Y-92338311D01*
X170116409Y-92224025D01*
X170192599Y-92147835D01*
X170268789Y-92109739D01*
X170421170Y-92071644D01*
X170535456Y-92071644D01*
X170687837Y-92109739D01*
X170764028Y-92147835D01*
X170840218Y-92224025D01*
X170878313Y-92338311D01*
X170878313Y-92528787D01*
X170878313Y-91309739D02*
X170878313Y-91766882D01*
X170878313Y-91538311D02*
X170078313Y-91538311D01*
X170192599Y-91614501D01*
X170268789Y-91690692D01*
X170306885Y-91766882D01*
X170344980Y-90624025D02*
X170878313Y-90624025D01*
X170040218Y-90814501D02*
X170611647Y-91004978D01*
X170611647Y-90509739D01*
%TO.C,D13*%
X170907468Y-73222226D02*
X170107468Y-73222226D01*
X170107468Y-73031750D01*
X170145564Y-72917464D01*
X170221754Y-72841274D01*
X170297944Y-72803178D01*
X170450325Y-72765083D01*
X170564611Y-72765083D01*
X170716992Y-72803178D01*
X170793183Y-72841274D01*
X170869373Y-72917464D01*
X170907468Y-73031750D01*
X170907468Y-73222226D01*
X170907468Y-72003178D02*
X170907468Y-72460321D01*
X170907468Y-72231750D02*
X170107468Y-72231750D01*
X170221754Y-72307940D01*
X170297944Y-72384131D01*
X170336040Y-72460321D01*
X170107468Y-71736512D02*
X170107468Y-71241274D01*
X170412230Y-71507940D01*
X170412230Y-71393655D01*
X170450325Y-71317464D01*
X170488421Y-71279369D01*
X170564611Y-71241274D01*
X170755087Y-71241274D01*
X170831278Y-71279369D01*
X170869373Y-71317464D01*
X170907468Y-71393655D01*
X170907468Y-71622226D01*
X170869373Y-71698417D01*
X170831278Y-71736512D01*
%TO.C,D12*%
X178441471Y-56111904D02*
X178441471Y-55311904D01*
X178631947Y-55311904D01*
X178746233Y-55350000D01*
X178822423Y-55426190D01*
X178860519Y-55502380D01*
X178898614Y-55654761D01*
X178898614Y-55769047D01*
X178860519Y-55921428D01*
X178822423Y-55997619D01*
X178746233Y-56073809D01*
X178631947Y-56111904D01*
X178441471Y-56111904D01*
X179660519Y-56111904D02*
X179203376Y-56111904D01*
X179431947Y-56111904D02*
X179431947Y-55311904D01*
X179355757Y-55426190D01*
X179279566Y-55502380D01*
X179203376Y-55540476D01*
X179965280Y-55388095D02*
X180003376Y-55350000D01*
X180079566Y-55311904D01*
X180270042Y-55311904D01*
X180346233Y-55350000D01*
X180384328Y-55388095D01*
X180422423Y-55464285D01*
X180422423Y-55540476D01*
X180384328Y-55654761D01*
X179927185Y-56111904D01*
X180422423Y-56111904D01*
%TO.C,D9*%
X189635856Y-101832642D02*
X188835856Y-101832642D01*
X188835856Y-101642166D01*
X188873952Y-101527880D01*
X188950142Y-101451689D01*
X189026332Y-101413594D01*
X189178713Y-101375499D01*
X189292999Y-101375499D01*
X189445380Y-101413594D01*
X189521571Y-101451689D01*
X189597761Y-101527880D01*
X189635856Y-101642166D01*
X189635856Y-101832642D01*
X189635856Y-100994546D02*
X189635856Y-100842166D01*
X189597761Y-100765975D01*
X189559666Y-100727880D01*
X189445380Y-100651689D01*
X189292999Y-100613594D01*
X188988237Y-100613594D01*
X188912047Y-100651689D01*
X188873952Y-100689785D01*
X188835856Y-100765975D01*
X188835856Y-100918356D01*
X188873952Y-100994546D01*
X188912047Y-101032642D01*
X188988237Y-101070737D01*
X189178713Y-101070737D01*
X189254904Y-101032642D01*
X189292999Y-100994546D01*
X189331094Y-100918356D01*
X189331094Y-100765975D01*
X189292999Y-100689785D01*
X189254904Y-100651689D01*
X189178713Y-100613594D01*
%TO.C,D7*%
X189985325Y-62132849D02*
X189185325Y-62132849D01*
X189185325Y-61942373D01*
X189223421Y-61828087D01*
X189299611Y-61751896D01*
X189375801Y-61713801D01*
X189528182Y-61675706D01*
X189642468Y-61675706D01*
X189794849Y-61713801D01*
X189871040Y-61751896D01*
X189947230Y-61828087D01*
X189985325Y-61942373D01*
X189985325Y-62132849D01*
X189185325Y-61409039D02*
X189185325Y-60875706D01*
X189985325Y-61218563D01*
%TO.C,J3*%
X104974895Y-78604933D02*
X105555466Y-78604933D01*
X105671580Y-78643638D01*
X105748990Y-78721047D01*
X105787695Y-78837161D01*
X105787695Y-78914571D01*
X104974895Y-78295295D02*
X104974895Y-77792133D01*
X105284533Y-78063066D01*
X105284533Y-77946952D01*
X105323238Y-77869542D01*
X105361942Y-77830838D01*
X105439352Y-77792133D01*
X105632876Y-77792133D01*
X105710285Y-77830838D01*
X105748990Y-77869542D01*
X105787695Y-77946952D01*
X105787695Y-78179180D01*
X105748990Y-78256590D01*
X105710285Y-78295295D01*
%TD*%
M02*
