%TF.GenerationSoftware,KiCad,Pcbnew,(5.1.7)-1*%
%TF.CreationDate,2021-07-10T14:06:06+05:30*%
%TF.ProjectId,Pteron36v0,50746572-6f6e-4333-9676-302e6b696361,rev?*%
%TF.SameCoordinates,Original*%
%TF.FileFunction,Paste,Top*%
%TF.FilePolarity,Positive*%
%FSLAX46Y46*%
G04 Gerber Fmt 4.6, Leading zero omitted, Abs format (unit mm)*
G04 Created by KiCad (PCBNEW (5.1.7)-1) date 2021-07-10 14:06:06*
%MOMM*%
%LPD*%
G01*
G04 APERTURE LIST*
%ADD10O,1.500000X3.000000*%
%ADD11R,1.600000X1.200000*%
%ADD12O,3.759200X1.879600*%
%ADD13R,1.100000X1.800000*%
%ADD14R,1.200000X1.600000*%
%ADD15C,0.100000*%
%ADD16R,1.270000X0.635000*%
G04 APERTURE END LIST*
%TO.C,SW13*%
G36*
G01*
X173605111Y-71318668D02*
X172207869Y-69921426D01*
G75*
G02*
X172207869Y-68843796I538815J538815D01*
G01*
X172207869Y-68843796D01*
G75*
G02*
X173285499Y-68843796I538815J-538815D01*
G01*
X174682741Y-70241038D01*
G75*
G02*
X174682741Y-71318668I-538815J-538815D01*
G01*
X174682741Y-71318668D01*
G75*
G02*
X173605111Y-71318668I-538815J538815D01*
G01*
G37*
G36*
G01*
X172870315Y-69324592D02*
X174974665Y-67220242D01*
G75*
G02*
X176052295Y-67220242I538815J-538815D01*
G01*
X176052295Y-67220242D01*
G75*
G02*
X176052295Y-68297872I-538815J-538815D01*
G01*
X173947945Y-70402222D01*
G75*
G02*
X172870315Y-70402222I-538815J538815D01*
G01*
X172870315Y-70402222D01*
G75*
G02*
X172870315Y-69324592I538815J538815D01*
G01*
G37*
G36*
G01*
X180170949Y-68766204D02*
X177374423Y-67748352D01*
G75*
G02*
X176918996Y-66771687I260619J716046D01*
G01*
X176918996Y-66771687D01*
G75*
G02*
X177895661Y-66316260I716046J-260619D01*
G01*
X180692187Y-67334112D01*
G75*
G02*
X181147614Y-68310777I-260619J-716046D01*
G01*
X181147614Y-68310777D01*
G75*
G02*
X180170949Y-68766204I-716046J260619D01*
G01*
G37*
G36*
G01*
X181578665Y-71672222D02*
X179474315Y-69567872D01*
G75*
G02*
X179474315Y-68490242I538815J538815D01*
G01*
X179474315Y-68490242D01*
G75*
G02*
X180551945Y-68490242I538815J-538815D01*
G01*
X182656295Y-70594592D01*
G75*
G02*
X182656295Y-71672222I-538815J-538815D01*
G01*
X182656295Y-71672222D01*
G75*
G02*
X181578665Y-71672222I-538815J538815D01*
G01*
G37*
D10*
X180303305Y-68557232D03*
%TD*%
%TO.C,SW8*%
G36*
G01*
X192682841Y-80895158D02*
X191285599Y-79497916D01*
G75*
G02*
X191285599Y-78420286I538815J538815D01*
G01*
X191285599Y-78420286D01*
G75*
G02*
X192363229Y-78420286I538815J-538815D01*
G01*
X193760471Y-79817528D01*
G75*
G02*
X193760471Y-80895158I-538815J-538815D01*
G01*
X193760471Y-80895158D01*
G75*
G02*
X192682841Y-80895158I-538815J538815D01*
G01*
G37*
G36*
G01*
X191948045Y-78901082D02*
X194052395Y-76796732D01*
G75*
G02*
X195130025Y-76796732I538815J-538815D01*
G01*
X195130025Y-76796732D01*
G75*
G02*
X195130025Y-77874362I-538815J-538815D01*
G01*
X193025675Y-79978712D01*
G75*
G02*
X191948045Y-79978712I-538815J538815D01*
G01*
X191948045Y-79978712D01*
G75*
G02*
X191948045Y-78901082I538815J538815D01*
G01*
G37*
G36*
G01*
X199248679Y-78342694D02*
X196452153Y-77324842D01*
G75*
G02*
X195996726Y-76348177I260619J716046D01*
G01*
X195996726Y-76348177D01*
G75*
G02*
X196973391Y-75892750I716046J-260619D01*
G01*
X199769917Y-76910602D01*
G75*
G02*
X200225344Y-77887267I-260619J-716046D01*
G01*
X200225344Y-77887267D01*
G75*
G02*
X199248679Y-78342694I-716046J260619D01*
G01*
G37*
G36*
G01*
X200656395Y-81248712D02*
X198552045Y-79144362D01*
G75*
G02*
X198552045Y-78066732I538815J538815D01*
G01*
X198552045Y-78066732D01*
G75*
G02*
X199629675Y-78066732I538815J-538815D01*
G01*
X201734025Y-80171082D01*
G75*
G02*
X201734025Y-81248712I-538815J-538815D01*
G01*
X201734025Y-81248712D01*
G75*
G02*
X200656395Y-81248712I-538815J538815D01*
G01*
G37*
X199381035Y-78133722D03*
%TD*%
%TO.C,SW7*%
G36*
G01*
X192639193Y-61860256D02*
X191241951Y-60463014D01*
G75*
G02*
X191241951Y-59385384I538815J538815D01*
G01*
X191241951Y-59385384D01*
G75*
G02*
X192319581Y-59385384I538815J-538815D01*
G01*
X193716823Y-60782626D01*
G75*
G02*
X193716823Y-61860256I-538815J-538815D01*
G01*
X193716823Y-61860256D01*
G75*
G02*
X192639193Y-61860256I-538815J538815D01*
G01*
G37*
G36*
G01*
X191904397Y-59866180D02*
X194008747Y-57761830D01*
G75*
G02*
X195086377Y-57761830I538815J-538815D01*
G01*
X195086377Y-57761830D01*
G75*
G02*
X195086377Y-58839460I-538815J-538815D01*
G01*
X192982027Y-60943810D01*
G75*
G02*
X191904397Y-60943810I-538815J538815D01*
G01*
X191904397Y-60943810D01*
G75*
G02*
X191904397Y-59866180I538815J538815D01*
G01*
G37*
G36*
G01*
X199205031Y-59307792D02*
X196408505Y-58289940D01*
G75*
G02*
X195953078Y-57313275I260619J716046D01*
G01*
X195953078Y-57313275D01*
G75*
G02*
X196929743Y-56857848I716046J-260619D01*
G01*
X199726269Y-57875700D01*
G75*
G02*
X200181696Y-58852365I-260619J-716046D01*
G01*
X200181696Y-58852365D01*
G75*
G02*
X199205031Y-59307792I-716046J260619D01*
G01*
G37*
G36*
G01*
X200612747Y-62213810D02*
X198508397Y-60109460D01*
G75*
G02*
X198508397Y-59031830I538815J538815D01*
G01*
X198508397Y-59031830D01*
G75*
G02*
X199586027Y-59031830I538815J-538815D01*
G01*
X201690377Y-61136180D01*
G75*
G02*
X201690377Y-62213810I-538815J-538815D01*
G01*
X201690377Y-62213810D01*
G75*
G02*
X200612747Y-62213810I-538815J538815D01*
G01*
G37*
X199337387Y-59098820D03*
%TD*%
%TO.C,SW12*%
G36*
G01*
X173652021Y-52308041D02*
X172254779Y-50910799D01*
G75*
G02*
X172254779Y-49833169I538815J538815D01*
G01*
X172254779Y-49833169D01*
G75*
G02*
X173332409Y-49833169I538815J-538815D01*
G01*
X174729651Y-51230411D01*
G75*
G02*
X174729651Y-52308041I-538815J-538815D01*
G01*
X174729651Y-52308041D01*
G75*
G02*
X173652021Y-52308041I-538815J538815D01*
G01*
G37*
G36*
G01*
X172917225Y-50313965D02*
X175021575Y-48209615D01*
G75*
G02*
X176099205Y-48209615I538815J-538815D01*
G01*
X176099205Y-48209615D01*
G75*
G02*
X176099205Y-49287245I-538815J-538815D01*
G01*
X173994855Y-51391595D01*
G75*
G02*
X172917225Y-51391595I-538815J538815D01*
G01*
X172917225Y-51391595D01*
G75*
G02*
X172917225Y-50313965I538815J538815D01*
G01*
G37*
G36*
G01*
X180217859Y-49755577D02*
X177421333Y-48737725D01*
G75*
G02*
X176965906Y-47761060I260619J716046D01*
G01*
X176965906Y-47761060D01*
G75*
G02*
X177942571Y-47305633I716046J-260619D01*
G01*
X180739097Y-48323485D01*
G75*
G02*
X181194524Y-49300150I-260619J-716046D01*
G01*
X181194524Y-49300150D01*
G75*
G02*
X180217859Y-49755577I-716046J260619D01*
G01*
G37*
G36*
G01*
X181625575Y-52661595D02*
X179521225Y-50557245D01*
G75*
G02*
X179521225Y-49479615I538815J538815D01*
G01*
X179521225Y-49479615D01*
G75*
G02*
X180598855Y-49479615I538815J-538815D01*
G01*
X182703205Y-51583965D01*
G75*
G02*
X182703205Y-52661595I-538815J-538815D01*
G01*
X182703205Y-52661595D01*
G75*
G02*
X181625575Y-52661595I-538815J538815D01*
G01*
G37*
X180350215Y-49546605D03*
%TD*%
%TO.C,SW22*%
G36*
G01*
X135573987Y-54237205D02*
X134176745Y-52839963D01*
G75*
G02*
X134176745Y-51762333I538815J538815D01*
G01*
X134176745Y-51762333D01*
G75*
G02*
X135254375Y-51762333I538815J-538815D01*
G01*
X136651617Y-53159575D01*
G75*
G02*
X136651617Y-54237205I-538815J-538815D01*
G01*
X136651617Y-54237205D01*
G75*
G02*
X135573987Y-54237205I-538815J538815D01*
G01*
G37*
G36*
G01*
X134839191Y-52243129D02*
X136943541Y-50138779D01*
G75*
G02*
X138021171Y-50138779I538815J-538815D01*
G01*
X138021171Y-50138779D01*
G75*
G02*
X138021171Y-51216409I-538815J-538815D01*
G01*
X135916821Y-53320759D01*
G75*
G02*
X134839191Y-53320759I-538815J538815D01*
G01*
X134839191Y-53320759D01*
G75*
G02*
X134839191Y-52243129I538815J538815D01*
G01*
G37*
G36*
G01*
X142139825Y-51684741D02*
X139343299Y-50666889D01*
G75*
G02*
X138887872Y-49690224I260619J716046D01*
G01*
X138887872Y-49690224D01*
G75*
G02*
X139864537Y-49234797I716046J-260619D01*
G01*
X142661063Y-50252649D01*
G75*
G02*
X143116490Y-51229314I-260619J-716046D01*
G01*
X143116490Y-51229314D01*
G75*
G02*
X142139825Y-51684741I-716046J260619D01*
G01*
G37*
G36*
G01*
X143547541Y-54590759D02*
X141443191Y-52486409D01*
G75*
G02*
X141443191Y-51408779I538815J538815D01*
G01*
X141443191Y-51408779D01*
G75*
G02*
X142520821Y-51408779I538815J-538815D01*
G01*
X144625171Y-53513129D01*
G75*
G02*
X144625171Y-54590759I-538815J-538815D01*
G01*
X144625171Y-54590759D01*
G75*
G02*
X143547541Y-54590759I-538815J538815D01*
G01*
G37*
X142272181Y-51475769D03*
%TD*%
%TO.C,SW26*%
G36*
G01*
X116440292Y-56098456D02*
X115043050Y-54701214D01*
G75*
G02*
X115043050Y-53623584I538815J538815D01*
G01*
X115043050Y-53623584D01*
G75*
G02*
X116120680Y-53623584I538815J-538815D01*
G01*
X117517922Y-55020826D01*
G75*
G02*
X117517922Y-56098456I-538815J-538815D01*
G01*
X117517922Y-56098456D01*
G75*
G02*
X116440292Y-56098456I-538815J538815D01*
G01*
G37*
G36*
G01*
X115705496Y-54104380D02*
X117809846Y-52000030D01*
G75*
G02*
X118887476Y-52000030I538815J-538815D01*
G01*
X118887476Y-52000030D01*
G75*
G02*
X118887476Y-53077660I-538815J-538815D01*
G01*
X116783126Y-55182010D01*
G75*
G02*
X115705496Y-55182010I-538815J538815D01*
G01*
X115705496Y-55182010D01*
G75*
G02*
X115705496Y-54104380I538815J538815D01*
G01*
G37*
G36*
G01*
X123006130Y-53545992D02*
X120209604Y-52528140D01*
G75*
G02*
X119754177Y-51551475I260619J716046D01*
G01*
X119754177Y-51551475D01*
G75*
G02*
X120730842Y-51096048I716046J-260619D01*
G01*
X123527368Y-52113900D01*
G75*
G02*
X123982795Y-53090565I-260619J-716046D01*
G01*
X123982795Y-53090565D01*
G75*
G02*
X123006130Y-53545992I-716046J260619D01*
G01*
G37*
G36*
G01*
X124413846Y-56452010D02*
X122309496Y-54347660D01*
G75*
G02*
X122309496Y-53270030I538815J538815D01*
G01*
X122309496Y-53270030D01*
G75*
G02*
X123387126Y-53270030I538815J-538815D01*
G01*
X125491476Y-55374380D01*
G75*
G02*
X125491476Y-56452010I-538815J-538815D01*
G01*
X125491476Y-56452010D01*
G75*
G02*
X124413846Y-56452010I-538815J538815D01*
G01*
G37*
X123138486Y-53337020D03*
%TD*%
%TO.C,SW28*%
G36*
G01*
X116503315Y-94258801D02*
X115106073Y-92861559D01*
G75*
G02*
X115106073Y-91783929I538815J538815D01*
G01*
X115106073Y-91783929D01*
G75*
G02*
X116183703Y-91783929I538815J-538815D01*
G01*
X117580945Y-93181171D01*
G75*
G02*
X117580945Y-94258801I-538815J-538815D01*
G01*
X117580945Y-94258801D01*
G75*
G02*
X116503315Y-94258801I-538815J538815D01*
G01*
G37*
G36*
G01*
X115768519Y-92264725D02*
X117872869Y-90160375D01*
G75*
G02*
X118950499Y-90160375I538815J-538815D01*
G01*
X118950499Y-90160375D01*
G75*
G02*
X118950499Y-91238005I-538815J-538815D01*
G01*
X116846149Y-93342355D01*
G75*
G02*
X115768519Y-93342355I-538815J538815D01*
G01*
X115768519Y-93342355D01*
G75*
G02*
X115768519Y-92264725I538815J538815D01*
G01*
G37*
G36*
G01*
X123069153Y-91706337D02*
X120272627Y-90688485D01*
G75*
G02*
X119817200Y-89711820I260619J716046D01*
G01*
X119817200Y-89711820D01*
G75*
G02*
X120793865Y-89256393I716046J-260619D01*
G01*
X123590391Y-90274245D01*
G75*
G02*
X124045818Y-91250910I-260619J-716046D01*
G01*
X124045818Y-91250910D01*
G75*
G02*
X123069153Y-91706337I-716046J260619D01*
G01*
G37*
G36*
G01*
X124476869Y-94612355D02*
X122372519Y-92508005D01*
G75*
G02*
X122372519Y-91430375I538815J538815D01*
G01*
X122372519Y-91430375D01*
G75*
G02*
X123450149Y-91430375I538815J-538815D01*
G01*
X125554499Y-93534725D01*
G75*
G02*
X125554499Y-94612355I-538815J-538815D01*
G01*
X125554499Y-94612355D01*
G75*
G02*
X124476869Y-94612355I-538815J538815D01*
G01*
G37*
X123201509Y-91497365D03*
%TD*%
%TO.C,SW27*%
G36*
G01*
X116483936Y-75133351D02*
X115086694Y-73736109D01*
G75*
G02*
X115086694Y-72658479I538815J538815D01*
G01*
X115086694Y-72658479D01*
G75*
G02*
X116164324Y-72658479I538815J-538815D01*
G01*
X117561566Y-74055721D01*
G75*
G02*
X117561566Y-75133351I-538815J-538815D01*
G01*
X117561566Y-75133351D01*
G75*
G02*
X116483936Y-75133351I-538815J538815D01*
G01*
G37*
G36*
G01*
X115749140Y-73139275D02*
X117853490Y-71034925D01*
G75*
G02*
X118931120Y-71034925I538815J-538815D01*
G01*
X118931120Y-71034925D01*
G75*
G02*
X118931120Y-72112555I-538815J-538815D01*
G01*
X116826770Y-74216905D01*
G75*
G02*
X115749140Y-74216905I-538815J538815D01*
G01*
X115749140Y-74216905D01*
G75*
G02*
X115749140Y-73139275I538815J538815D01*
G01*
G37*
G36*
G01*
X123049774Y-72580887D02*
X120253248Y-71563035D01*
G75*
G02*
X119797821Y-70586370I260619J716046D01*
G01*
X119797821Y-70586370D01*
G75*
G02*
X120774486Y-70130943I716046J-260619D01*
G01*
X123571012Y-71148795D01*
G75*
G02*
X124026439Y-72125460I-260619J-716046D01*
G01*
X124026439Y-72125460D01*
G75*
G02*
X123049774Y-72580887I-716046J260619D01*
G01*
G37*
G36*
G01*
X124457490Y-75486905D02*
X122353140Y-73382555D01*
G75*
G02*
X122353140Y-72304925I538815J538815D01*
G01*
X122353140Y-72304925D01*
G75*
G02*
X123430770Y-72304925I538815J-538815D01*
G01*
X125535120Y-74409275D01*
G75*
G02*
X125535120Y-75486905I-538815J-538815D01*
G01*
X125535120Y-75486905D01*
G75*
G02*
X124457490Y-75486905I-538815J538815D01*
G01*
G37*
X123182130Y-72371915D03*
%TD*%
%TO.C,SW24*%
G36*
G01*
X135570719Y-92282726D02*
X134173477Y-90885484D01*
G75*
G02*
X134173477Y-89807854I538815J538815D01*
G01*
X134173477Y-89807854D01*
G75*
G02*
X135251107Y-89807854I538815J-538815D01*
G01*
X136648349Y-91205096D01*
G75*
G02*
X136648349Y-92282726I-538815J-538815D01*
G01*
X136648349Y-92282726D01*
G75*
G02*
X135570719Y-92282726I-538815J538815D01*
G01*
G37*
G36*
G01*
X134835923Y-90288650D02*
X136940273Y-88184300D01*
G75*
G02*
X138017903Y-88184300I538815J-538815D01*
G01*
X138017903Y-88184300D01*
G75*
G02*
X138017903Y-89261930I-538815J-538815D01*
G01*
X135913553Y-91366280D01*
G75*
G02*
X134835923Y-91366280I-538815J538815D01*
G01*
X134835923Y-91366280D01*
G75*
G02*
X134835923Y-90288650I538815J538815D01*
G01*
G37*
G36*
G01*
X142136557Y-89730262D02*
X139340031Y-88712410D01*
G75*
G02*
X138884604Y-87735745I260619J716046D01*
G01*
X138884604Y-87735745D01*
G75*
G02*
X139861269Y-87280318I716046J-260619D01*
G01*
X142657795Y-88298170D01*
G75*
G02*
X143113222Y-89274835I-260619J-716046D01*
G01*
X143113222Y-89274835D01*
G75*
G02*
X142136557Y-89730262I-716046J260619D01*
G01*
G37*
G36*
G01*
X143544273Y-92636280D02*
X141439923Y-90531930D01*
G75*
G02*
X141439923Y-89454300I538815J538815D01*
G01*
X141439923Y-89454300D01*
G75*
G02*
X142517553Y-89454300I538815J-538815D01*
G01*
X144621903Y-91558650D01*
G75*
G02*
X144621903Y-92636280I-538815J-538815D01*
G01*
X144621903Y-92636280D01*
G75*
G02*
X143544273Y-92636280I-538815J538815D01*
G01*
G37*
X142268913Y-89521290D03*
%TD*%
%TO.C,SW23*%
G36*
G01*
X135527075Y-73247830D02*
X134129833Y-71850588D01*
G75*
G02*
X134129833Y-70772958I538815J538815D01*
G01*
X134129833Y-70772958D01*
G75*
G02*
X135207463Y-70772958I538815J-538815D01*
G01*
X136604705Y-72170200D01*
G75*
G02*
X136604705Y-73247830I-538815J-538815D01*
G01*
X136604705Y-73247830D01*
G75*
G02*
X135527075Y-73247830I-538815J538815D01*
G01*
G37*
G36*
G01*
X134792279Y-71253754D02*
X136896629Y-69149404D01*
G75*
G02*
X137974259Y-69149404I538815J-538815D01*
G01*
X137974259Y-69149404D01*
G75*
G02*
X137974259Y-70227034I-538815J-538815D01*
G01*
X135869909Y-72331384D01*
G75*
G02*
X134792279Y-72331384I-538815J538815D01*
G01*
X134792279Y-72331384D01*
G75*
G02*
X134792279Y-71253754I538815J538815D01*
G01*
G37*
G36*
G01*
X142092913Y-70695366D02*
X139296387Y-69677514D01*
G75*
G02*
X138840960Y-68700849I260619J716046D01*
G01*
X138840960Y-68700849D01*
G75*
G02*
X139817625Y-68245422I716046J-260619D01*
G01*
X142614151Y-69263274D01*
G75*
G02*
X143069578Y-70239939I-260619J-716046D01*
G01*
X143069578Y-70239939D01*
G75*
G02*
X142092913Y-70695366I-716046J260619D01*
G01*
G37*
G36*
G01*
X143500629Y-73601384D02*
X141396279Y-71497034D01*
G75*
G02*
X141396279Y-70419404I538815J538815D01*
G01*
X141396279Y-70419404D01*
G75*
G02*
X142473909Y-70419404I538815J-538815D01*
G01*
X144578259Y-72523754D01*
G75*
G02*
X144578259Y-73601384I-538815J-538815D01*
G01*
X144578259Y-73601384D01*
G75*
G02*
X143500629Y-73601384I-538815J538815D01*
G01*
G37*
X142225269Y-70486394D03*
%TD*%
%TO.C,SW20*%
G36*
G01*
X81877591Y-134927111D02*
X79918495Y-134669191D01*
G75*
G02*
X79262475Y-133814249I99461J755481D01*
G01*
X79262475Y-133814249D01*
G75*
G02*
X80117417Y-133158229I755481J-99461D01*
G01*
X82076513Y-133416149D01*
G75*
G02*
X82732533Y-134271091I-99461J-755481D01*
G01*
X82732533Y-134271091D01*
G75*
G02*
X81877591Y-134927111I-755481J99461D01*
G01*
G37*
G36*
G01*
X80080720Y-133792419D02*
X80469166Y-130841879D01*
G75*
G02*
X81324108Y-130185859I755481J-99461D01*
G01*
X81324108Y-130185859D01*
G75*
G02*
X81980128Y-131040801I-99461J-755481D01*
G01*
X81591682Y-133991341D01*
G75*
G02*
X80736740Y-134647361I-755481J99461D01*
G01*
X80736740Y-134647361D01*
G75*
G02*
X80080720Y-133792419I99461J755481D01*
G01*
G37*
G36*
G01*
X85532778Y-128905076D02*
X82694516Y-129799976D01*
G75*
G02*
X81738646Y-129302382I-229138J726732D01*
G01*
X81738646Y-129302382D01*
G75*
G02*
X82236240Y-128346512I726732J229138D01*
G01*
X85074502Y-127451612D01*
G75*
G02*
X86030372Y-127949206I229138J-726732D01*
G01*
X86030372Y-127949206D01*
G75*
G02*
X85532778Y-128905076I-726732J-229138D01*
G01*
G37*
G36*
G01*
X88418666Y-130353612D02*
X85468126Y-129965166D01*
G75*
G02*
X84812106Y-129110224I99461J755481D01*
G01*
X84812106Y-129110224D01*
G75*
G02*
X85667048Y-128454204I755481J-99461D01*
G01*
X88617588Y-128842650D01*
G75*
G02*
X89273608Y-129697592I-99461J-755481D01*
G01*
X89273608Y-129697592D01*
G75*
G02*
X88418666Y-130353612I-755481J99461D01*
G01*
G37*
G36*
G01*
X85372125Y-129710299D02*
X84458983Y-128520269D01*
G75*
G02*
X84597427Y-127468683I595015J456571D01*
G01*
X84597427Y-127468683D01*
G75*
G02*
X85649013Y-127607127I456571J-595015D01*
G01*
X86562155Y-128797157D01*
G75*
G02*
X86423711Y-129848743I-595015J-456571D01*
G01*
X86423711Y-129848743D01*
G75*
G02*
X85372125Y-129710299I-456571J595015D01*
G01*
G37*
%TD*%
%TO.C,SW19*%
G36*
G01*
X154564052Y-86598632D02*
X153166810Y-85201390D01*
G75*
G02*
X153166810Y-84123760I538815J538815D01*
G01*
X153166810Y-84123760D01*
G75*
G02*
X154244440Y-84123760I538815J-538815D01*
G01*
X155641682Y-85521002D01*
G75*
G02*
X155641682Y-86598632I-538815J-538815D01*
G01*
X155641682Y-86598632D01*
G75*
G02*
X154564052Y-86598632I-538815J538815D01*
G01*
G37*
G36*
G01*
X153829256Y-84604556D02*
X155933606Y-82500206D01*
G75*
G02*
X157011236Y-82500206I538815J-538815D01*
G01*
X157011236Y-82500206D01*
G75*
G02*
X157011236Y-83577836I-538815J-538815D01*
G01*
X154906886Y-85682186D01*
G75*
G02*
X153829256Y-85682186I-538815J538815D01*
G01*
X153829256Y-85682186D01*
G75*
G02*
X153829256Y-84604556I538815J538815D01*
G01*
G37*
G36*
G01*
X161129890Y-84046168D02*
X158333364Y-83028316D01*
G75*
G02*
X157877937Y-82051651I260619J716046D01*
G01*
X157877937Y-82051651D01*
G75*
G02*
X158854602Y-81596224I716046J-260619D01*
G01*
X161651128Y-82614076D01*
G75*
G02*
X162106555Y-83590741I-260619J-716046D01*
G01*
X162106555Y-83590741D01*
G75*
G02*
X161129890Y-84046168I-716046J260619D01*
G01*
G37*
G36*
G01*
X162537606Y-86952186D02*
X160433256Y-84847836D01*
G75*
G02*
X160433256Y-83770206I538815J538815D01*
G01*
X160433256Y-83770206D01*
G75*
G02*
X161510886Y-83770206I538815J-538815D01*
G01*
X163615236Y-85874556D01*
G75*
G02*
X163615236Y-86952186I-538815J-538815D01*
G01*
X163615236Y-86952186D01*
G75*
G02*
X162537606Y-86952186I-538815J538815D01*
G01*
G37*
X161262246Y-83837196D03*
%TD*%
%TO.C,SW18*%
G36*
G01*
X154610968Y-67588003D02*
X153213726Y-66190761D01*
G75*
G02*
X153213726Y-65113131I538815J538815D01*
G01*
X153213726Y-65113131D01*
G75*
G02*
X154291356Y-65113131I538815J-538815D01*
G01*
X155688598Y-66510373D01*
G75*
G02*
X155688598Y-67588003I-538815J-538815D01*
G01*
X155688598Y-67588003D01*
G75*
G02*
X154610968Y-67588003I-538815J538815D01*
G01*
G37*
G36*
G01*
X153876172Y-65593927D02*
X155980522Y-63489577D01*
G75*
G02*
X157058152Y-63489577I538815J-538815D01*
G01*
X157058152Y-63489577D01*
G75*
G02*
X157058152Y-64567207I-538815J-538815D01*
G01*
X154953802Y-66671557D01*
G75*
G02*
X153876172Y-66671557I-538815J538815D01*
G01*
X153876172Y-66671557D01*
G75*
G02*
X153876172Y-65593927I538815J538815D01*
G01*
G37*
G36*
G01*
X161176806Y-65035539D02*
X158380280Y-64017687D01*
G75*
G02*
X157924853Y-63041022I260619J716046D01*
G01*
X157924853Y-63041022D01*
G75*
G02*
X158901518Y-62585595I716046J-260619D01*
G01*
X161698044Y-63603447D01*
G75*
G02*
X162153471Y-64580112I-260619J-716046D01*
G01*
X162153471Y-64580112D01*
G75*
G02*
X161176806Y-65035539I-716046J260619D01*
G01*
G37*
G36*
G01*
X162584522Y-67941557D02*
X160480172Y-65837207D01*
G75*
G02*
X160480172Y-64759577I538815J538815D01*
G01*
X160480172Y-64759577D01*
G75*
G02*
X161557802Y-64759577I538815J-538815D01*
G01*
X163662152Y-66863927D01*
G75*
G02*
X163662152Y-67941557I-538815J-538815D01*
G01*
X163662152Y-67941557D01*
G75*
G02*
X162584522Y-67941557I-538815J538815D01*
G01*
G37*
X161309162Y-64826567D03*
%TD*%
%TO.C,SW17*%
G36*
G01*
X154591585Y-48462552D02*
X153194343Y-47065310D01*
G75*
G02*
X153194343Y-45987680I538815J538815D01*
G01*
X153194343Y-45987680D01*
G75*
G02*
X154271973Y-45987680I538815J-538815D01*
G01*
X155669215Y-47384922D01*
G75*
G02*
X155669215Y-48462552I-538815J-538815D01*
G01*
X155669215Y-48462552D01*
G75*
G02*
X154591585Y-48462552I-538815J538815D01*
G01*
G37*
G36*
G01*
X153856789Y-46468476D02*
X155961139Y-44364126D01*
G75*
G02*
X157038769Y-44364126I538815J-538815D01*
G01*
X157038769Y-44364126D01*
G75*
G02*
X157038769Y-45441756I-538815J-538815D01*
G01*
X154934419Y-47546106D01*
G75*
G02*
X153856789Y-47546106I-538815J538815D01*
G01*
X153856789Y-47546106D01*
G75*
G02*
X153856789Y-46468476I538815J538815D01*
G01*
G37*
G36*
G01*
X161157423Y-45910088D02*
X158360897Y-44892236D01*
G75*
G02*
X157905470Y-43915571I260619J716046D01*
G01*
X157905470Y-43915571D01*
G75*
G02*
X158882135Y-43460144I716046J-260619D01*
G01*
X161678661Y-44477996D01*
G75*
G02*
X162134088Y-45454661I-260619J-716046D01*
G01*
X162134088Y-45454661D01*
G75*
G02*
X161157423Y-45910088I-716046J260619D01*
G01*
G37*
G36*
G01*
X162565139Y-48816106D02*
X160460789Y-46711756D01*
G75*
G02*
X160460789Y-45634126I538815J538815D01*
G01*
X160460789Y-45634126D01*
G75*
G02*
X161538419Y-45634126I538815J-538815D01*
G01*
X163642769Y-47738476D01*
G75*
G02*
X163642769Y-48816106I-538815J-538815D01*
G01*
X163642769Y-48816106D01*
G75*
G02*
X162565139Y-48816106I-538815J538815D01*
G01*
G37*
X161289779Y-45701116D03*
%TD*%
%TO.C,SW15*%
G36*
G01*
X99228315Y-123395262D02*
X97371483Y-122719430D01*
G75*
G02*
X96916056Y-121742765I260619J716046D01*
G01*
X96916056Y-121742765D01*
G75*
G02*
X97892721Y-121287338I716046J-260619D01*
G01*
X99749553Y-121963170D01*
G75*
G02*
X100204980Y-122939835I-260619J-716046D01*
G01*
X100204980Y-122939835D01*
G75*
G02*
X99228315Y-123395262I-716046J260619D01*
G01*
G37*
G36*
G01*
X97719629Y-121898552D02*
X98737481Y-119102026D01*
G75*
G02*
X99714146Y-118646599I716046J-260619D01*
G01*
X99714146Y-118646599D01*
G75*
G02*
X100169573Y-119623264I-260619J-716046D01*
G01*
X99151721Y-122419790D01*
G75*
G02*
X98175056Y-122875217I-716046J260619D01*
G01*
X98175056Y-122875217D01*
G75*
G02*
X97719629Y-121898552I260619J716046D01*
G01*
G37*
G36*
G01*
X104100266Y-118307099D02*
X101135590Y-118566475D01*
G75*
G02*
X100310077Y-117873788I-66413J759100D01*
G01*
X100310077Y-117873788D01*
G75*
G02*
X101002764Y-117048275I759100J66413D01*
G01*
X103967440Y-116788899D01*
G75*
G02*
X104792953Y-117481586I66413J-759100D01*
G01*
X104792953Y-117481586D01*
G75*
G02*
X104100266Y-118307099I-759100J-66413D01*
G01*
G37*
G36*
G01*
X106604227Y-120345920D02*
X103807701Y-119328068D01*
G75*
G02*
X103352274Y-118351403I260619J716046D01*
G01*
X103352274Y-118351403D01*
G75*
G02*
X104328939Y-117895976I716046J-260619D01*
G01*
X107125465Y-118913828D01*
G75*
G02*
X107580892Y-119890493I-260619J-716046D01*
G01*
X107580892Y-119890493D01*
G75*
G02*
X106604227Y-120345920I-716046J260619D01*
G01*
G37*
G36*
G01*
X103769139Y-119058465D02*
X103135211Y-117699003D01*
G75*
G02*
X103497978Y-116702308I679731J316964D01*
G01*
X103497978Y-116702308D01*
G75*
G02*
X104494673Y-117065075I316964J-679731D01*
G01*
X105128601Y-118424537D01*
G75*
G02*
X104765834Y-119421232I-679731J-316964D01*
G01*
X104765834Y-119421232D01*
G75*
G02*
X103769139Y-119058465I-316964J679731D01*
G01*
G37*
%TD*%
%TO.C,SW14*%
G36*
G01*
X173624484Y-90444113D02*
X172227242Y-89046871D01*
G75*
G02*
X172227242Y-87969241I538815J538815D01*
G01*
X172227242Y-87969241D01*
G75*
G02*
X173304872Y-87969241I538815J-538815D01*
G01*
X174702114Y-89366483D01*
G75*
G02*
X174702114Y-90444113I-538815J-538815D01*
G01*
X174702114Y-90444113D01*
G75*
G02*
X173624484Y-90444113I-538815J538815D01*
G01*
G37*
G36*
G01*
X172889688Y-88450037D02*
X174994038Y-86345687D01*
G75*
G02*
X176071668Y-86345687I538815J-538815D01*
G01*
X176071668Y-86345687D01*
G75*
G02*
X176071668Y-87423317I-538815J-538815D01*
G01*
X173967318Y-89527667D01*
G75*
G02*
X172889688Y-89527667I-538815J538815D01*
G01*
X172889688Y-89527667D01*
G75*
G02*
X172889688Y-88450037I538815J538815D01*
G01*
G37*
G36*
G01*
X180190322Y-87891649D02*
X177393796Y-86873797D01*
G75*
G02*
X176938369Y-85897132I260619J716046D01*
G01*
X176938369Y-85897132D01*
G75*
G02*
X177915034Y-85441705I716046J-260619D01*
G01*
X180711560Y-86459557D01*
G75*
G02*
X181166987Y-87436222I-260619J-716046D01*
G01*
X181166987Y-87436222D01*
G75*
G02*
X180190322Y-87891649I-716046J260619D01*
G01*
G37*
G36*
G01*
X181598038Y-90797667D02*
X179493688Y-88693317D01*
G75*
G02*
X179493688Y-87615687I538815J538815D01*
G01*
X179493688Y-87615687D01*
G75*
G02*
X180571318Y-87615687I538815J-538815D01*
G01*
X182675668Y-89720037D01*
G75*
G02*
X182675668Y-90797667I-538815J-538815D01*
G01*
X182675668Y-90797667D01*
G75*
G02*
X181598038Y-90797667I-538815J538815D01*
G01*
G37*
X180322678Y-87682677D03*
%TD*%
%TO.C,SW10*%
G36*
G01*
X118661379Y-115755273D02*
X116994837Y-114693569D01*
G75*
G02*
X116761595Y-113641483I409422J642664D01*
G01*
X116761595Y-113641483D01*
G75*
G02*
X117813681Y-113408241I642664J-409422D01*
G01*
X119480223Y-114469945D01*
G75*
G02*
X119713465Y-115522031I-409422J-642664D01*
G01*
X119713465Y-115522031D01*
G75*
G02*
X118661379Y-115755273I-642664J409422D01*
G01*
G37*
G36*
G01*
X117512402Y-113967502D02*
X119111406Y-111457570D01*
G75*
G02*
X120163492Y-111224328I642664J-409422D01*
G01*
X120163492Y-111224328D01*
G75*
G02*
X120396734Y-112276414I-409422J-642664D01*
G01*
X118797730Y-114786346D01*
G75*
G02*
X117745644Y-115019588I-642664J409422D01*
G01*
X117745644Y-115019588D01*
G75*
G02*
X117512402Y-113967502I409422J642664D01*
G01*
G37*
G36*
G01*
X124519124Y-111842205D02*
X121568584Y-111453759D01*
G75*
G02*
X120912564Y-110598817I99461J755481D01*
G01*
X120912564Y-110598817D01*
G75*
G02*
X121767506Y-109942797I755481J-99461D01*
G01*
X124718046Y-110331243D01*
G75*
G02*
X125374066Y-111186185I-99461J-755481D01*
G01*
X125374066Y-111186185D01*
G75*
G02*
X124519124Y-111842205I-755481J99461D01*
G01*
G37*
G36*
G01*
X126522449Y-114374653D02*
X124012517Y-112775649D01*
G75*
G02*
X123779275Y-111723563I409422J642664D01*
G01*
X123779275Y-111723563D01*
G75*
G02*
X124831361Y-111490321I642664J-409422D01*
G01*
X127341293Y-113089325D01*
G75*
G02*
X127574535Y-114141411I-409422J-642664D01*
G01*
X127574535Y-114141411D01*
G75*
G02*
X126522449Y-114374653I-642664J409422D01*
G01*
G37*
G36*
G01*
X124033222Y-112504091D02*
X123708562Y-111039647D01*
G75*
G02*
X124278454Y-110145095I732222J162330D01*
G01*
X124278454Y-110145095D01*
G75*
G02*
X125173006Y-110714987I162330J-732222D01*
G01*
X125497666Y-112179431D01*
G75*
G02*
X124927774Y-113073983I-732222J-162330D01*
G01*
X124927774Y-113073983D01*
G75*
G02*
X124033222Y-112504091I-162330J732222D01*
G01*
G37*
%TD*%
%TO.C,SW9*%
G36*
G01*
X192726483Y-99930058D02*
X191329241Y-98532816D01*
G75*
G02*
X191329241Y-97455186I538815J538815D01*
G01*
X191329241Y-97455186D01*
G75*
G02*
X192406871Y-97455186I538815J-538815D01*
G01*
X193804113Y-98852428D01*
G75*
G02*
X193804113Y-99930058I-538815J-538815D01*
G01*
X193804113Y-99930058D01*
G75*
G02*
X192726483Y-99930058I-538815J538815D01*
G01*
G37*
G36*
G01*
X191991687Y-97935982D02*
X194096037Y-95831632D01*
G75*
G02*
X195173667Y-95831632I538815J-538815D01*
G01*
X195173667Y-95831632D01*
G75*
G02*
X195173667Y-96909262I-538815J-538815D01*
G01*
X193069317Y-99013612D01*
G75*
G02*
X191991687Y-99013612I-538815J538815D01*
G01*
X191991687Y-99013612D01*
G75*
G02*
X191991687Y-97935982I538815J538815D01*
G01*
G37*
G36*
G01*
X199292321Y-97377594D02*
X196495795Y-96359742D01*
G75*
G02*
X196040368Y-95383077I260619J716046D01*
G01*
X196040368Y-95383077D01*
G75*
G02*
X197017033Y-94927650I716046J-260619D01*
G01*
X199813559Y-95945502D01*
G75*
G02*
X200268986Y-96922167I-260619J-716046D01*
G01*
X200268986Y-96922167D01*
G75*
G02*
X199292321Y-97377594I-716046J260619D01*
G01*
G37*
G36*
G01*
X200700037Y-100283612D02*
X198595687Y-98179262D01*
G75*
G02*
X198595687Y-97101632I538815J538815D01*
G01*
X198595687Y-97101632D01*
G75*
G02*
X199673317Y-97101632I538815J-538815D01*
G01*
X201777667Y-99205982D01*
G75*
G02*
X201777667Y-100283612I-538815J-538815D01*
G01*
X201777667Y-100283612D01*
G75*
G02*
X200700037Y-100283612I-538815J538815D01*
G01*
G37*
X199424677Y-97168622D03*
%TD*%
D11*
%TO.C,D_RE1*%
X96235254Y-112834330D03*
X93435254Y-112834330D03*
%TD*%
D12*
%TO.C,PWM_PAD2*%
X110964255Y-65463330D03*
X110964255Y-62923330D03*
X110964255Y-60383330D03*
%TD*%
D13*
%TO.C,RST1*%
X86652255Y-65411330D03*
X86652255Y-71611330D03*
X82952255Y-65411330D03*
X82952255Y-71611330D03*
%TD*%
D14*
%TO.C,D8*%
X187427675Y-84105722D03*
X187427675Y-81305722D03*
%TD*%
%TO.C,D28*%
X111199500Y-101630970D03*
X111199500Y-98830970D03*
%TD*%
%TO.C,D27*%
X111107333Y-82777191D03*
X111107333Y-79977191D03*
%TD*%
D11*
%TO.C,D26*%
X122625855Y-66022130D03*
X119825855Y-66022130D03*
%TD*%
D14*
%TO.C,D24*%
X130211863Y-100222492D03*
X130211863Y-97422492D03*
%TD*%
%TO.C,D23*%
X130373603Y-81145570D03*
X130373603Y-78345570D03*
%TD*%
%TO.C,D22*%
X130221646Y-61790485D03*
X130221646Y-58990485D03*
%TD*%
D15*
%TO.C,D20*%
G36*
X80087010Y-138282062D02*
G01*
X79134986Y-139012576D01*
X78160968Y-137743210D01*
X79112992Y-137012696D01*
X80087010Y-138282062D01*
G37*
G36*
X81791542Y-140503452D02*
G01*
X80839518Y-141233966D01*
X79865500Y-139964600D01*
X80817524Y-139234086D01*
X81791542Y-140503452D01*
G37*
%TD*%
D14*
%TO.C,D19*%
X149396657Y-94350318D03*
X149396657Y-91550318D03*
%TD*%
%TO.C,D18*%
X149191255Y-75245330D03*
X149191255Y-72445330D03*
%TD*%
%TO.C,D17*%
X149191254Y-58608330D03*
X149191254Y-55808330D03*
%TD*%
D15*
%TO.C,D15*%
G36*
X95760467Y-127149974D02*
G01*
X94672898Y-127657116D01*
X93996709Y-126207024D01*
X95084278Y-125699882D01*
X95760467Y-127149974D01*
G37*
G36*
X96943799Y-129687636D02*
G01*
X95856230Y-130194778D01*
X95180041Y-128744686D01*
X96267610Y-128237544D01*
X96943799Y-129687636D01*
G37*
%TD*%
D14*
%TO.C,D14*%
X168320664Y-97816290D03*
X168320664Y-95016290D03*
%TD*%
%TO.C,D13*%
X168349819Y-78509728D03*
X168349819Y-75709728D03*
%TD*%
%TO.C,D12*%
X168349818Y-59167130D03*
X168349818Y-56367130D03*
%TD*%
D15*
%TO.C,D10*%
G36*
X114468168Y-118468688D02*
G01*
X113296613Y-118728416D01*
X112950310Y-117166342D01*
X114121865Y-116906614D01*
X114468168Y-118468688D01*
G37*
G36*
X115074198Y-121202316D02*
G01*
X113902643Y-121462044D01*
X113556340Y-119899970D01*
X114727895Y-119640242D01*
X115074198Y-121202316D01*
G37*
%TD*%
D14*
%TO.C,D9*%
X187427675Y-103140622D03*
X187427675Y-100340622D03*
%TD*%
%TO.C,D7*%
X187427675Y-67801302D03*
X187427675Y-65001302D03*
%TD*%
D16*
%TO.C,JP4*%
X95114655Y-82219711D03*
X95114655Y-81320551D03*
%TD*%
%TO.C,JP3*%
X97400655Y-82219711D03*
X97400655Y-81320551D03*
%TD*%
%TO.C,JP2*%
X100067654Y-82219711D03*
X100067654Y-81320551D03*
%TD*%
%TO.C,JP1*%
X102607654Y-82219710D03*
X102607654Y-81320550D03*
%TD*%
M02*
