<?xml version="1.0" encoding="UTF-8" standalone="no"?>
<svg
   xmlns:dc="http://purl.org/dc/elements/1.1/"
   xmlns:cc="http://creativecommons.org/ns#"
   xmlns:rdf="http://www.w3.org/1999/02/22-rdf-syntax-ns#"
   xmlns:svg="http://www.w3.org/2000/svg"
   xmlns="http://www.w3.org/2000/svg"
   xmlns:sodipodi="http://sodipodi.sourceforge.net/DTD/sodipodi-0.dtd"
   xmlns:inkscape="http://www.inkscape.org/namespaces/inkscape"
   version="1.1"
   width="14.010640cm"
   height="10.810240cm"
   viewBox="0 0 55160 42560"
   id="svg4574"
   sodipodi:docname="Pteron56v0-brd.svg"
   inkscape:version="1.0.2-2 (e86c870879, 2021-01-15)">
  <metadata
     id="metadata4580">
    <rdf:RDF>
      <cc:Work
         rdf:about="">
        <dc:format>image/svg+xml</dc:format>
        <dc:type
           rdf:resource="http://purl.org/dc/dcmitype/StillImage" />
        <dc:title>SVG Picture created as Pteron56v0-brd.svg date 2021/04/13 17:14:45 </dc:title>
      </cc:Work>
    </rdf:RDF>
  </metadata>
  <defs
     id="defs4578" />
  <sodipodi:namedview
     pagecolor="#ffffff"
     bordercolor="#666666"
     borderopacity="1"
     objecttolerance="10"
     gridtolerance="10"
     guidetolerance="10"
     inkscape:pageopacity="0"
     inkscape:pageshadow="2"
     inkscape:window-width="1920"
     inkscape:window-height="1017"
     id="namedview4576"
     showgrid="false"
     inkscape:zoom="1.4710624"
     inkscape:cx="423.97216"
     inkscape:cy="249.17956"
     inkscape:window-x="-8"
     inkscape:window-y="-8"
     inkscape:window-maximized="1"
     inkscape:current-layer="svg4574"
     inkscape:document-rotation="0" />
  <title
     id="title2296">SVG Picture created as Pteron56v0-brd.svg date 2021/04/13 17:14:45 </title>
  <desc
     id="desc2298">Picture generated by PCBNEW </desc>
  <g
     style="fill:#000000;fill-opacity:1;stroke:#000000;stroke-linecap:round;stroke-linejoin:round;stroke-opacity:1"
     id="g2300" />
  <g
     style="fill:#000000;fill-opacity:0;stroke:#000000;stroke-width:-0.000393701;stroke-linecap:round;stroke-linejoin:round;stroke-opacity:1"
     id="g2302" />
  <g
     style="fill:#000000;fill-opacity:0;stroke:#000000;stroke-width:59.0551;stroke-linecap:round;stroke-linejoin:round;stroke-opacity:1"
     id="g2996" />
  <path
     d="m 9757,2164 h 3000 v 1000 h 2000 V 15164 H 7757 V 3164 h 2000 z"
     id="path2896"
     style="fill:#000000;fill-opacity:0;stroke:#000000;stroke-width:59.0551;stroke-linecap:round;stroke-linejoin:round;stroke-opacity:1"
     sodipodi:nodetypes="ccccccccc" />
  <path
     d="m 53334.14,4820.4709 h 65.038 v 156.8651 h 236.324 v -156.8651 h 65.037 v 382.679 h -65.037 v -182.2403 h -236.324 v 182.2403 h -65.038 z"
     style="font-size:524.934px;text-anchor:middle;opacity:0;fill:#000000;fill-opacity:0;stroke:#000000;stroke-width:59.0551;stroke-linecap:round;stroke-linejoin:round;stroke-opacity:1"
     id="path5424"
     sodipodi:nodetypes="ccccccccccccc" />
  <path
     d="m 53974.856,5021.4222 c -30.909,0 -55.272,6.5788 -73.087,19.7363 -17.601,13.1575 -26.401,31.2705 -26.401,54.3389 0,23.0684 8.8,41.1814 26.401,54.3389 17.815,13.1575 42.178,19.7363 73.087,19.7363 30.909,0 55.271,-6.5788 73.086,-19.7363 17.816,-13.3284 26.724,-31.4414 26.724,-54.3389 0,-23.0684 -8.908,-41.1814 -26.724,-54.3389 -17.601,-13.1575 -41.963,-19.7363 -73.086,-19.7363 z m -65.038,-22.0431 c -27.904,-5.4681 -49.69,-15.8061 -65.359,-31.0141 -15.455,-15.2081 -23.182,-33.7482 -23.182,-55.6205 0,-30.587 13.63,-54.7661 40.89,-72.5373 27.475,-17.7712 65.038,-26.6568 112.689,-26.6568 47.865,0 85.428,8.8856 112.688,26.6568 27.26,17.7712 40.89,41.9503 40.89,72.5373 0,21.8723 -7.834,40.4124 -23.503,55.6205 -15.455,15.208 -37.027,25.546 -64.716,31.0141 31.338,5.8098 55.7,17.1731 73.087,34.09 17.601,16.9168 26.401,37.5929 26.401,62.0283 0,37.0803 -14.274,65.5314 -42.822,85.3531 -28.333,19.8217 -69.008,29.7326 -122.025,29.7326 -53.017,0 -93.8,-9.9109 -122.348,-29.7326 -28.333,-19.8217 -42.5,-48.2728 -42.5,-85.3531 0,-24.4354 8.801,-45.1115 26.402,-62.0283 17.601,-16.9169 42.07,-28.2802 73.408,-34.09 z m -23.825,-81.7646 c 0,19.8217 7.727,35.2861 23.181,46.3931 15.669,11.107 37.563,16.6605 65.682,16.6605 27.903,0 49.69,-5.5535 65.359,-16.6605 15.884,-11.107 23.826,-26.5714 23.826,-46.3931 0,-19.8217 -7.942,-35.2861 -23.826,-46.3931 -15.669,-11.107 -37.456,-16.6605 -65.359,-16.6605 -28.119,0 -50.013,5.5535 -65.682,16.6605 -15.454,11.107 -23.181,26.5714 -23.181,46.3931 z"
     style="font-size:524.934px;text-anchor:middle;opacity:0;fill:#000000;fill-opacity:0;stroke:#000000;stroke-width:59.0551;stroke-linecap:round;stroke-linejoin:round;stroke-opacity:1"
     id="path5426"
     sodipodi:nodetypes="scscscscsccscssscccscscsscscscscscs" />
  <path
     d="m 53427,4884 h 225 l -112.5,300 z"
     id="path2910"
     style="fill:#000000;fill-opacity:0;stroke:#000000;stroke-width:59.0551;stroke-linecap:round;stroke-linejoin:round;stroke-opacity:1"
     sodipodi:nodetypes="cccc" />
  <path
     d="m 53858,4940 -19,-19 -19,-37 v -19 l 19,-37 19,-19 37,-19 h 75 l 38,19 19,19 18,37 v 19 l -18,37 -19,19 -38,19 h -75 l -37,19 -19,18 -19,38 v 75 l 19,37 19,19 37,19 h 75 l 38,-19 19,-19 18,-37 v -75 l -18,-38 -19,-18 -75.5,-19 z"
     id="path2916"
     style="fill:#000000;fill-opacity:0;stroke:#000000;stroke-width:59.0551;stroke-linecap:round;stroke-linejoin:round;stroke-opacity:1"
     sodipodi:nodetypes="cccccccccccccccccccccccccccccccc" />
  <path
     d="m 13391.11,24575.52 h 61.401 v 156.865 h 223.111 v -156.865 h 61.4 v 382.679 h -61.4 v -182.24 h -223.111 v 182.24 h -61.401 z"
     style="font-size:524.934px;text-anchor:middle;opacity:0;fill:#000000;fill-opacity:0;stroke:#000000;stroke-width:59.0551;stroke-linecap:round;stroke-linejoin:round;stroke-opacity:1"
     id="path5429"
     sodipodi:nodetypes="ccccccccccccc" />
  <path
     d="m 13849.186,24575.52 h 291.806 v 22.043 l -164.749,360.636 h -64.137 l 155.023,-339.105 h -217.943 z"
     style="font-size:524.934px;text-anchor:middle;opacity:0;fill:#000000;fill-opacity:0;stroke:#000000;stroke-width:59.0551;stroke-linecap:round;stroke-linejoin:round;stroke-opacity:1"
     id="path5431"
     sodipodi:nodetypes="cccccccc" />
  <path
     d="m 13462,24639 225,197 75,-291 h 337 l -403,394 z"
     id="path2920"
     style="fill:#000000;fill-opacity:0;stroke:#000000;stroke-width:59.0551;stroke-linecap:round;stroke-linejoin:round;stroke-opacity:1"
     sodipodi:nodetypes="cccccc" />
  <path
     d="m 2856.0806,37120.52 h 61.4009 v 156.865 h 223.1105 v -156.865 h 61.4009 v 382.679 h -61.4009 v -182.24 h -223.1105 v 182.24 h -61.4009 z"
     style="font-size:524.934px;text-anchor:middle;opacity:0;fill:#000000;fill-opacity:0;stroke:#000000;stroke-width:59.0551;stroke-linecap:round;stroke-linejoin:round;stroke-opacity:1"
     id="path5434"
     sodipodi:nodetypes="ccccccccccccc" />
  <path
     d="m 3468.5704,37291.226 c -27.5595,0 -49.445,7.946 -65.6565,23.838 -16.0088,15.891 -24.0132,37.678 -24.0132,65.36 0,27.511 8.0044,49.298 24.0132,65.361 16.2115,15.891 38.097,23.837 65.6565,23.837 27.5595,0 49.3437,-7.946 65.3525,-23.837 16.2115,-16.063 24.3172,-37.85 24.3172,-65.361 0,-27.682 -8.1057,-49.469 -24.3172,-65.36 -16.0088,-15.892 -37.793,-23.838 -65.3525,-23.838 z m 121.8901,-162.247 v 47.162 c -15.4009,-6.152 -31.0045,-10.851 -46.8107,-14.098 -15.6035,-3.247 -31.1058,-4.87 -46.5067,-4.87 -40.5287,0 -71.5331,11.534 -93.0133,34.603 -21.2775,23.069 -33.4361,57.928 -36.4758,104.577 11.9559,-14.867 26.9515,-26.23 44.9868,-34.09 18.0353,-8.031 37.8943,-12.047 59.5772,-12.047 45.5948,0 81.564,11.705 107.9076,35.115 26.5463,23.239 39.8195,54.937 39.8195,95.093 0,39.302 -13.7798,70.829 -41.3393,94.581 -27.5595,23.751 -64.238,35.627 -110.0354,35.627 -52.4847,0 -92.6081,-16.917 -120.3702,-50.75 -27.7621,-34.005 -41.6432,-83.217 -41.6432,-147.638 0,-60.49 17.022,-108.677 51.0661,-144.562 34.0441,-36.055 79.7402,-54.082 137.0883,-54.082 15.4009,0 30.9032,1.281 46.5067,3.844 15.8062,2.563 32.2203,6.408 49.2424,11.535 z"
     style="font-size:524.934px;text-anchor:middle;opacity:0;fill:#000000;fill-opacity:0;stroke:#000000;stroke-width:59.0551;stroke-linecap:round;stroke-linejoin:round;stroke-opacity:1"
     id="path5436"
     sodipodi:nodetypes="scscscscscccscccscssscscscc" />
  <path
     d="m 3039.5,37484 -112.5,-300 309,112.5 103,-18.5 19,-19 37,-19 h 75 l 38,19 19,19 18,37 v 94 l -18,37 -19,19 -38,19 h -75 l -37,-19 -19,-19 -19,-37 v -150 l 19,-75 38,-56 18,-19 38,-19 h -103 z"
     id="path2934"
     style="fill:#000000;fill-opacity:0;stroke:#000000;stroke-width:59.0551;stroke-linecap:round;stroke-linejoin:round;stroke-opacity:1"
     sodipodi:nodetypes="ccccccccccccccccccccccccc" />
  <path
     d="m 30656.11,24370.52 h 61.401 v 156.865 h 223.111 v -156.865 h 61.4 v 382.679 h -61.4 v -182.24 h -223.111 v 182.24 h -61.401 z"
     style="font-size:524.934px;text-anchor:middle;opacity:0;fill:#000000;fill-opacity:0;stroke:#000000;stroke-width:59.0551;stroke-linecap:round;stroke-linejoin:round;stroke-opacity:1"
     id="path5439"
     sodipodi:nodetypes="ccccccccccccc" />
  <path
     d="m 31130.296,24370.52 h 241.044 v 43.574 h -184.811 v 93.811 c 8.917,-2.563 17.833,-4.442 26.749,-5.639 8.917,-1.367 17.833,-2.05 26.749,-2.05 50.661,0 90.785,11.705 120.37,35.115 29.586,23.41 44.379,55.108 44.379,95.093 0,41.181 -15.198,73.221 -45.594,96.118 -30.397,22.727 -73.256,34.09 -128.578,34.09 -19.048,0 -38.502,-1.367 -58.361,-4.101 -19.657,-2.734 -40.022,-6.835 -61.097,-12.303 v -52.032 c 18.238,8.373 37.084,14.61 56.538,18.711 19.453,4.101 40.021,6.152 61.704,6.152 35.057,0 62.82,-7.775 83.287,-23.325 20.467,-15.55 30.7,-36.653 30.7,-63.31 0,-26.657 -10.233,-47.76 -30.7,-63.31 -20.467,-15.549 -48.23,-23.324 -83.287,-23.324 -16.414,0 -32.828,1.538 -49.242,4.613 -16.211,3.076 -32.828,7.861 -49.85,14.354 z"
     style="font-size:524.934px;text-anchor:middle;opacity:0;fill:#000000;fill-opacity:0;stroke:#000000;stroke-width:59.0551;stroke-linecap:round;stroke-linejoin:round;stroke-opacity:1"
     id="path5441"
     sodipodi:nodetypes="ccccccssscscccssssssccc" />
  <path
     d="m 30727,24434 h 225 l 84,281 h 103 l 38,19 h 93 l 38,-19 19,-19 18,-37 v -94 l -18,-37 -19,-19 -38,-19 h -93 l -38,19 -19,19 19,-188 -112,197 z"
     id="path2940"
     style="fill:#000000;fill-opacity:0;stroke:#000000;stroke-width:59.0551;stroke-linecap:round;stroke-linejoin:round;stroke-opacity:1"
     sodipodi:nodetypes="ccccccccccccccccccc" />
  <path
     d="m 10806.11,3270.4709 h 61.401 v 156.8651 h 223.111 v -156.8651 h 61.4 v 382.679 h -61.4 v -182.2403 h -223.111 v 182.2403 h -61.401 z"
     style="font-size:524.934px;text-anchor:middle;opacity:0;fill:#000000;fill-opacity:0;stroke:#000000;stroke-width:59.0551;stroke-linecap:round;stroke-linejoin:round;stroke-opacity:1"
     id="path5444"
     sodipodi:nodetypes="ccccccccccccc" />
  <path
     d="m 11448.389,3315.5825 -155.023,204.2834 h 155.023 z m -16.111,-45.1116 h 77.208 v 249.395 h 64.744 v 43.061 h -64.744 v 90.223 h -61.097 v -90.223 h -204.873 v -49.9815 z"
     style="font-size:524.934px;text-anchor:middle;opacity:0;fill:#000000;fill-opacity:0;stroke:#000000;stroke-width:59.0551;stroke-linecap:round;stroke-linejoin:round;stroke-opacity:1"
     id="path5446"
     sodipodi:nodetypes="cccccccccccccccc" />
  <path
     d="m 10877,3334 h 225 l -112.5,300 z"
     id="path2950"
     style="fill:#000000;fill-opacity:0;stroke:#000000;stroke-width:59.0551;stroke-linecap:round;stroke-linejoin:round;stroke-opacity:1"
     sodipodi:nodetypes="cccc" />
  <path
     d="m 11486,3568.5 -216,-65.5 141,-207 z"
     id="path2956"
     style="fill:#000000;fill-opacity:0;stroke:#000000;stroke-width:59.0551;stroke-linecap:round;stroke-linejoin:round;stroke-opacity:1"
     sodipodi:nodetypes="cccc" />
  <path
     d="m 30706.11,13140.421 h 61.401 v 156.865 h 223.111 v -156.865 h 61.4 v 382.679 h -61.4 v -182.241 h -223.111 v 182.241 h -61.401 z"
     style="font-size:524.934px;text-anchor:middle;opacity:0;fill:#000000;fill-opacity:0;stroke:#000000;stroke-width:59.0551;stroke-linecap:round;stroke-linejoin:round;stroke-opacity:1"
     id="path5449"
     sodipodi:nodetypes="ccccccccccccc" />
  <path
     d="m 31365.715,13316.766 c 29.383,5.297 52.282,16.318 68.696,33.064 16.617,16.746 24.925,37.422 24.925,62.029 0,37.763 -15.401,66.983 -46.203,87.66 -30.802,20.676 -74.573,31.014 -131.313,31.014 -19.049,0 -38.705,-1.623 -58.969,-4.87 -20.062,-3.076 -40.833,-7.775 -62.313,-14.098 v -49.981 c 17.022,8.373 35.665,14.695 55.93,18.967 20.264,4.272 41.44,6.408 63.528,6.408 38.503,0 67.785,-6.408 87.846,-19.224 20.265,-12.815 30.397,-31.441 30.397,-55.876 0,-22.556 -9.423,-40.156 -28.269,-52.801 -18.643,-12.816 -44.683,-19.224 -78.119,-19.224 h -52.89 v -42.548 h 55.322 c 30.194,0 53.295,-5.041 69.304,-15.123 16.009,-10.253 24.013,-24.948 24.013,-44.086 0,-19.651 -8.308,-34.688 -24.925,-45.112 -16.414,-10.594 -40.022,-15.891 -70.824,-15.891 -16.819,0 -34.855,1.538 -54.106,4.613 -19.251,3.076 -40.427,7.861 -63.529,14.354 v -46.137 c 23.304,-5.468 45.088,-9.569 65.353,-12.303 20.467,-2.734 39.718,-4.101 57.753,-4.101 46.608,0 83.489,8.971 110.644,26.913 27.154,17.771 40.731,41.865 40.731,72.281 0,21.189 -7.194,39.131 -21.581,53.826 -14.388,14.525 -34.855,24.607 -61.401,30.246 z"
     style="font-size:524.934px;text-anchor:middle;opacity:0;fill:#000000;fill-opacity:0;stroke:#000000;stroke-width:59.0551;stroke-linecap:round;stroke-linejoin:round;stroke-opacity:1"
     id="path5451"
     sodipodi:nodetypes="ccssscccsscscsccscscsscccscscc" />
  <path
     d="m 30777,13204 112.5,197 z"
     id="path2962"
     style="fill:#000000;fill-opacity:0;stroke:#000000;stroke-width:59.0551;stroke-linecap:round;stroke-linejoin:round;stroke-opacity:1"
     sodipodi:nodetypes="ccc" />
  <path
     d="m 31077,13110 h 318 l -131,150 h 56 l 38,19 19,19 18,37 v 94 l -18,37 -19,19 -38,19 h -112 l -38,-19 h -93 z"
     id="path2966"
     style="fill:#000000;fill-opacity:0;stroke:#000000;stroke-width:59.0551;stroke-linecap:round;stroke-linejoin:round;stroke-opacity:1"
     sodipodi:nodetypes="ccccccccccccccc" />
  <path
     d="m 53406.112,24520.52 h 61.401 v 156.865 h 223.11 v -156.865 h 61.401 v 382.679 h -61.401 v -182.24 h -223.11 v 182.24 h -61.401 z"
     style="font-size:524.934px;text-anchor:middle;opacity:0;fill:#000000;fill-opacity:0;stroke:#000000;stroke-width:59.0551;stroke-linecap:round;stroke-linejoin:round;stroke-opacity:1"
     id="path5454"
     sodipodi:nodetypes="ccccccccccccc" />
  <path
     d="m 53932.58,24859.626 h 214.295 v 43.573 h -288.159 v -43.573 c 23.304,-20.335 55.018,-47.59 95.141,-81.765 40.326,-34.346 65.657,-56.475 75.992,-66.386 19.656,-18.625 33.334,-34.346 41.035,-47.162 7.903,-12.987 11.855,-25.717 11.855,-38.191 0,-20.334 -8.511,-36.909 -25.534,-49.725 -16.819,-12.816 -38.806,-19.224 -65.96,-19.224 -19.251,0 -39.617,2.82 -61.097,8.459 -21.277,5.639 -44.075,14.182 -68.392,25.631 v -52.288 c 24.723,-8.373 47.824,-14.695 69.304,-18.967 21.48,-4.272 41.136,-6.408 58.969,-6.408 47.013,0 84.502,9.911 112.467,29.732 27.965,19.822 41.947,46.308 41.947,79.458 0,15.721 -3.546,30.672 -10.638,44.855 -6.89,14.012 -19.555,30.587 -37.996,49.726 -5.066,4.955 -21.176,19.309 -48.33,43.061 -27.155,23.581 -65.454,56.645 -114.899,99.194 z"
     style="font-size:524.934px;text-anchor:middle;opacity:0;fill:#000000;fill-opacity:0;stroke:#000000;stroke-width:59.0551;stroke-linecap:round;stroke-linejoin:round;stroke-opacity:1"
     id="path5456"
     sodipodi:nodetypes="cccccsccscscccsssscccc" />
  <path
     d="m 53477,24584 225,197 84,-272 h 103 l 38,-19 h 93 l 38,19 19,19 18,37 v 38 l -18,56 -225,225 h -66 z"
     id="path2972"
     style="fill:#000000;fill-opacity:0;stroke:#000000;stroke-width:59.0551;stroke-linecap:round;stroke-linejoin:round;stroke-opacity:1"
     sodipodi:nodetypes="cccccccccccccc" />
  <path
     d="m 45611.112,14655.421 h 61.401 v 156.865 h 223.11 v -156.865 h 61.401 v 382.679 h -61.401 v -182.241 h -223.11 v 182.241 h -61.401 z"
     style="font-size:524.934px;text-anchor:middle;opacity:0;fill:#000000;fill-opacity:0;stroke:#000000;stroke-width:59.0551;stroke-linecap:round;stroke-linejoin:round;stroke-opacity:1"
     id="path5459"
     sodipodi:nodetypes="ccccccccccccc" />
  <path
     d="m 46095.329,14994.526 h 100.308 v -291.943 l -109.123,18.454 v -47.162 l 108.515,-18.454 h 61.401 v 339.105 h 100.309 v 43.574 h -261.41 z"
     style="font-size:524.934px;text-anchor:middle;opacity:0;fill:#000000;fill-opacity:0;stroke:#000000;stroke-width:59.0551;stroke-linecap:round;stroke-linejoin:round;stroke-opacity:1"
     id="path5461"
     sodipodi:nodetypes="cccccccccccc" />
  <path
     d="m 45682,14719 309,56.5 122,-56.5 37,-38 38,-56 56,394 h -253 l -196.5,-197 z"
     id="path2982"
     style="fill:#000000;fill-opacity:0;stroke:#000000;stroke-width:59.0551;stroke-linecap:round;stroke-linejoin:round;stroke-opacity:1"
     sodipodi:nodetypes="ccccccccc" />
  <path
     d="m 53277,5309 h -300 -6400 l -249.95,0.42 c -165.635,0.42 -299.95,-133.8946 -300,-300 v -3150 c 0.05,-165.2654 -134.265,-299.58 -300,-300 h -6850 c -165.635,0.42 -299.95,-133.8946 -300,-300 V 309.4215 c 0.05,-165.26396 -134.265,-299.57859 -300,-300.000045 l -6850,0 c -165.635,0.421455 -299.95,134.736085 -300,300.000045 V 1959.42 c 0.05,166.1054 -134.265,300.42 -300,300 h -6900 c -165.635,0.42 -299.95,134.7346 -300,300 v 200 c 0.05,166.1054 -134.265,300.42 -300,300 L 12677,3059 l -4960.78,0.42 c -165.4654,0.42 -299.78,134.7346 -300,300 V 31274.4 C 4729.1646,32930.263 2243.5931,34892.72 9.421415,37122.3 L 5050.085,42556.2 c 243.5841,-247.252 490.9376,-490.882 742.055,-730.6 5193.844,-4956.782 11850.91,-8101.745 18978.26,-8965.8 165.685,0 300,-134.315 299.8,-300.4 l -0.2,-250.4 0.2,-4299.6 c 0.2,-165.285 134.515,-299.6 300,-300 l 3956.8,-0.4 h 14200 9750 l 1574.45,0.4 c 166.135,0.4 300.45,-133.915 300,-300 V 5609.42 c 0.45,-165.2654 -133.865,-299.58 -300,-300 z"
     id="path3070"
     style="fill:#000000;fill-opacity:0;stroke:#000000;stroke-width:19.685;stroke-linecap:round;stroke-linejoin:round;stroke-opacity:1"
     sodipodi:nodetypes="ccccccccccccccccccccccccccccccccccccccc" />
  <path
     d="m 16970.45,24121.35 -157.25,0 c -65.023,0.344 -117.9,-52.527 -118.05,-118.05 l 0,-984.15 c 0.156,-65.073 53.027,-117.95 118.05,-118.05 h 157.25 c 65.673,0.1 118.544,-52.777 118.05,-118.05 V 20735.4 c 0.5,-64.823 -52.377,-117.694 -118.05,-118.05 h -157.25 c -65.023,0.344 -117.9,-52.527 -118.05,-118.05 l 0,-984.1 c 0.156,-65.023 53.027,-117.9 118.05,-118.05 h 157.25 c 65.712,0.15 118.6,-52.788 118.05,-118.1 v -157.7 c 0.506,-64.873 53.377,-117.75 118.55,-118.05 h 5275.3 c 65.573,0.306 118.45,53.177 118.05,118.05 v 157.7 c 0.35,65.312 53.238,118.244 118.05,118.1 h 157.75 c 65.423,0.156 118.3,53.027 118.05,118.05 v 984.1 c 0.244,65.523 -52.627,118.4 -118.05,118.05 h -157.75 c -64.773,0.35 -117.644,53.227 -118.05,118.05 l 0,2047.65 c 0.4,65.273 53.277,118.144 118.05,118.05 l 157.75,0 c 65.423,0.106 118.3,52.977 118.05,118.05 v 984.15 c 0.244,65.523 -52.627,118.4 -118.05,118.05 h -157.75 c -64.773,0.35 -117.644,53.227 -118.05,118.05 l 0,157.75 c 0.394,65.373 -52.477,118.25 -118.05,118.05 l -5275.3,0 c -65.173,0.194 -118.05,-52.677 -118.55,-118.05 v -157.75 c 0.5,-64.823 -52.377,-117.694 -118.05,-118.05 z"
     id="path3090"
     style="fill:#000000;fill-opacity:0;stroke:#000000;stroke-width:39.3701;stroke-linecap:round;stroke-linejoin:round;stroke-opacity:1"
     sodipodi:nodetypes="ccccccccccccccccccccccccccccccccccccccccc" />
  <path
     d="m 22711.15,16591.5 c -65.073,0.5 -117.944,53.377 -118.05,118.55 l 0,157.25 c 0.09,65.523 -52.777,118.4 -118.05,118.05 h -5275.8 c -64.973,0.344 -117.85,-52.527 -118.05,-118.05 v -157.25 c 0.2,-65.212 -52.738,-118.1 -118.1,-118.55 h -157.7 c -64.823,0.494 -117.7,-52.377 -118.05,-118.05 v -984.15 c 0.356,-64.923 53.227,-117.8 118.05,-118.05 h 157.7 c 65.362,0.3 118.294,-52.588 118.1,-118.05 v -2047.15 c 0.2,-65.212 -52.738,-118.1 -118.1,-118.05 h -157.7 c -64.823,-0 -117.7,-52.877 -118.05,-118.55 v -984.1 c 0.356,-64.873 53.227,-117.75 118.05,-118.05 h 157.7 c 65.401,0.35 118.35,-52.599 118.1,-118.1 v -157.7 c 0.206,-64.723 53.077,-117.6 118.05,-118.05 h 5275.8 c 65.273,0.456 118.15,53.327 118.05,118.05 v 157.7 c 0.05,65.462 52.938,118.394 118.05,118.1 h 157.25 c 65.623,0.306 118.5,53.177 118.05,118.05 v 984.1 c 0.444,65.673 -52.427,118.55 -118.05,118.55 h -157.25 c -65.073,0 -117.944,52.877 -118.05,118.05 v 2047.15 c 0.1,65.423 52.977,118.294 118.05,118.05 h 157.25 c 65.623,0.256 118.5,53.127 118.05,118.05 v 984.15 c 0.444,65.673 -52.427,118.55 -118.05,118.05 z"
     id="path3218"
     style="fill:#000000;fill-opacity:0;stroke:#000000;stroke-width:39.3701;stroke-linecap:round;stroke-linejoin:round;stroke-opacity:1"
     sodipodi:nodetypes="ccccccccccccccccccccccccccccccccccccccccc" />
  <path
     d="m 22576,4097.91 c 0,-65.2264 -52.874,-118.1045 -118.1,-118.11 l -0.9,-0.8 h -5275 l 0.3,0.8 c -65.226,0.01 -118.1,52.8836 -118.1,118.11 l -0.2,-0.91 v 158 l 0.2,0.39 c 0,65.2264 -52.874,118.1045 -118.1,118.11 l -0.1,-0.5 h -158 l 0.6,0.5 c -65.226,0.01 -118.1,52.8836 -118.1,118.11 l -0.5,-0.61 v 984 l 0.5,0.86 c 0,65.2264 52.874,118.1045 118.1,118.11 l -0.6,-0.97 h 158 l 0.1,0.97 c 65.226,0.01 118.1,52.8836 118.1,118.11 l -0.2,-0.08 v 2047 l 0.2,0.33 c 0,65.2264 -52.874,118.1045 -118.1,118.11 l -0.1,-0.44 h -158 l 0.6,0.44 c -65.226,0.01 -118.1,52.8836 -118.1,118.11 l -0.5,-0.55 v 984 l 0.5,0.8 c 0,65.2264 52.874,118.1045 118.1,118.11 l -0.6,-0.91 h 158 l 0.1,0.91 c 65.226,0.01 118.1,52.8836 118.1,118.11 l -0.2,-0.02 v 157 l 0.2,0.5 c 0,65.2264 52.874,118.1045 118.1,118.11 l -0.3,-0.61 h 5275 l 0.9,0.61 c 65.226,-0.01 118.1,-52.8836 118.1,-118.11 l -1,-0.5 v -157 l 1,0.02 c 0,-65.2264 52.874,-118.1045 118.1,-118.11 l -0.1,-0.91 h 157 l 0.6,0.91 c 65.226,-0.01 118.1,-52.8836 118.1,-118.11 l -0.7,-0.8 v -984 l 0.7,0.55 c 0,-65.2264 -52.874,-118.1045 -118.1,-118.11 l -0.6,-0.44 h -157 l 0.1,0.44 c -65.226,-0.01 -118.1,-52.8836 -118.1,-118.11 l -1,-0.33 V 5712 l 1,0.08 c 0,-65.2264 52.874,-118.1045 118.1,-118.11 l -0.1,-0.97 h 157 l 0.6,0.97 c 65.226,-0.01 118.1,-52.8836 118.1,-118.11 l -0.7,-0.86 v -984 l 0.7,0.61 c 0,-65.2264 -52.874,-118.1045 -118.1,-118.11 l -0.6,-0.5 h -157 l 0.1,0.5 c -65.226,-0.01 -118.1,-52.8836 -118.1,-118.11 l -1,-0.39 v -158 z"
     id="path3270"
     style="fill:#000000;fill-opacity:0;stroke:#000000;stroke-width:39.3701;stroke-linecap:round;stroke-linejoin:round;stroke-opacity:1"
     sodipodi:nodetypes="ccccccccccccccccccccccccccccccccccccccccccccccccccccccccccccccccccccccccccccccccc" />
  <path
     d="m 24477.35,19839.35 h -157.25 c -65.123,0.344 -118,-52.527 -118.05,-118.05 v -984.1 c 0.06,-65.023 52.927,-117.9 118.05,-118.05 h 157.25 c 65.573,0.15 118.444,-52.727 118.05,-118.05 l 0,-157.75 c 0.406,-64.873 53.277,-117.75 118.05,-118.05 h 5275.8 c 65.473,0.306 118.35,53.177 118.05,118.05 v 157.75 c 0.3,65.362 53.238,118.25 118.1,118.05 h 157.7 c 65.323,0.156 118.2,53.027 118.05,118.05 v 984.1 c 0.144,65.523 -52.727,118.4 -118.05,118.05 h -157.7 c -64.901,0.3 -117.85,53.249 -118.1,118.1 v 2047.6 c 0.3,65.312 53.238,118.2 118.1,118.05 h 157.7 c 65.323,0.106 118.2,52.977 118.05,118.05 v 984.15 c 0.144,65.523 -52.727,118.4 -118.05,118.05 h -157.7 c -64.862,0.3 -117.794,53.188 -118.1,118.05 v 157.75 c 0.294,65.373 -52.577,118.25 -118.05,118.05 l -5275.8,0 c -64.773,0.194 -117.65,-52.677 -118.05,-118.05 v -157.75 c 0.4,-64.823 -52.477,-117.694 -118.05,-118.05 l -157.25,0 c -65.123,0.344 -118,-52.527 -118.05,-118.05 v -984.15 c 0.06,-65.073 52.927,-117.95 118.05,-118.05 h 157.25 c 65.573,0.1 118.444,-52.777 118.05,-118.05 v -2047.6 c 0.45,-64.812 -52.438,-117.744 -118.05,-118.1 z"
     id="path3352"
     style="fill:#000000;fill-opacity:0;stroke:#000000;stroke-width:39.3701;stroke-linecap:round;stroke-linejoin:round;stroke-opacity:1"
     sodipodi:nodetypes="ccccccccccccccccccccccccccccccccccccccccc" />
  <path
     d="m 24184.5,11243.15 c 0.506,-65.073 53.377,-117.95 118.55,-118.05 h 157.2 c 65.512,0.15 118.444,-52.738 118.1,-118.05 v -157.75 c 0.356,-64.923 53.227,-117.8 118.05,-118.05 h 5275.8 c 65.423,0.256 118.3,53.127 118.05,118.05 v 157.75 c 0.25,65.273 53.127,118.144 118.05,118.05 h 157.75 c 65.273,0.106 118.15,52.977 118.05,118.05 v 984.15 c 0.09,65.523 -52.777,118.4 -118.05,118.05 h -157.75 c -64.923,0.35 -117.794,53.227 -118.05,118.05 V 14511 c 0.2,65.262 53.088,118.194 118.05,118.1 h 157.75 c 65.273,0.106 118.15,52.977 118.05,118.05 v 984.1 c 0.09,65.473 -52.777,118.35 -118.05,118.05 h -157.75 c -64.923,0.3 -117.794,53.177 -118.05,118.05 v 157.75 c 0.244,65.323 -52.627,118.2 -118.05,118.05 h -5275.8 c -64.823,0.144 -117.7,-52.727 -118.05,-118.05 v -157.75 c 0.35,-64.912 -52.588,-117.8 -118.1,-118.05 h -157.2 c -65.173,0.294 -118.05,-52.577 -118.55,-118.05 v -984.1 c 0.506,-65.073 53.377,-117.95 118.55,-118.05 h 157.2 c 65.551,0.15 118.5,-52.799 118.1,-118.1 v -2047.6 c 0.35,-64.862 -52.588,-117.75 -118.1,-118.05 h -157.2 c -65.173,0.344 -118.05,-52.527 -118.55,-118.05 z"
     id="path3412"
     style="fill:#000000;fill-opacity:0;stroke:#000000;stroke-width:39.3701;stroke-linecap:round;stroke-linejoin:round;stroke-opacity:1"
     sodipodi:nodetypes="ccccccccccccccccccccccccccccccccccccccccc" />
  <path
     d="m 29990.8,8758.83 c 65.226,-0.01 118.1,-52.8836 118.1,-118.11 l -0.9,-0.72 v -157 l 0.9,0.24 c 0,-65.2264 52.874,-118.1045 118.1,-118.11 V 8365 h 157 l 0.5,0.13 c 65.226,-0.01 118.1,-52.8836 118.1,-118.11 l -0.6,-0.02 v -985 l 0.6,0.77 c 0,-65.2264 -52.874,-118.1045 -118.1,-118.11 l -0.5,-0.66 h -157 v 0.66 c -65.226,-0.01 -118.1,-52.8836 -118.1,-118.11 L 30108,7026 V 4979 l 0.9,0.31 c 0,-65.2264 52.874,-118.1045 118.1,-118.11 v -0.2 h 157 l 0.5,0.2 c 65.226,-0.01 118.1,-52.8836 118.1,-118.11 l -0.6,-0.09 v -985 l 0.6,0.83 c 0,-65.2264 -52.874,-118.1045 -118.1,-118.11 l -0.5,-0.72 h -157 v 0.72 c -65.226,-0.01 -118.1,-52.8836 -118.1,-118.11 l -0.9,-0.61 v -157 l 0.9,0.13 c 0,-65.2264 -52.874,-118.1045 -118.1,-118.11 l -0.8,-0.02 h -5275 l 0.2,0.02 c -65.226,0.01 -118.1,52.8836 -118.1,118.11 l -0.1,-0.13 v 157 l 0.1,0.61 c 0,65.2264 -52.874,118.1045 -118.1,118.11 V 3640 h -158 l 0.5,0.72 c -65.226,0.01 -118.1,52.8836 -118.1,118.11 l -0.4,-0.83 v 985 l 0.4,0.09 c 0,65.2264 52.874,118.1045 118.1,118.11 l -0.5,-0.2 h 158 v 0.2 c 65.226,0.01 118.1,52.8836 118.1,118.11 l -0.1,-0.31 v 2047 l 0.1,0.55 c 0,65.2264 -52.874,118.1045 -118.1,118.11 V 7144 h -158 l 0.5,0.66 c -65.226,0.01 -118.1,52.8836 -118.1,118.11 l -0.4,-0.77 v 985 l 0.4,0.02 c 0,65.2264 52.874,118.1045 118.1,118.11 l -0.5,-0.13 h 158 v 0.13 c 65.226,0.01 118.1,52.8836 118.1,118.11 l -0.1,-0.24 v 157 l 0.1,0.72 c 0,65.2264 52.874,118.1045 118.1,118.11 l -0.2,-0.83 h 5275 z"
     id="path3506"
     style="fill:#000000;fill-opacity:0;stroke:#000000;stroke-width:39.3701;stroke-linecap:round;stroke-linejoin:round;stroke-opacity:1"
     sodipodi:nodetypes="ccccccccccccccccccccccccccccccccccccccccccccccccccccccccccccccccccccccccccccccccc" />
  <path
     d="m 8040.08,33709.45 c 39.7876,52.2 30.0276,126.34 -21.9,165.8 l -124.97,95.9 c -51.5376,39.86 -61.2976,114 -21.9,165.3 l 1246.14,1624.6 c 40.1608,51.804 114.3088,61.564 165.805,21.4 l 124.965,-95.4 c 51.9712,-39.664 126.1192,-29.904 165.805,21.4 l 599.075,780.9 c 39.808,52.1 30.048,126.24 -21.9,165.8 l -124.95,95.95 c -51.4976,39.81 -61.2576,113.95 -21.9,165.3 l 95.9,124.95 c 39.958,52.1 30.198,126.24 -21.9,165.8 l -4185.18,3211.3 c -51.5812,40.164 -125.7292,30.404 -165.805,-21.4 l -95.93,-124.95 c -39.2758,-51.654 -113.4238,-61.414 -165.305,-21.9 l -124.965,95.9 c -51.5862,39.814 -125.7342,30.054 -165.805,-21.9 l -599.085,-780.9 c -39.4326,-51.45 -29.6726,-125.59 21.9,-165.8 l 124.97,-95.45 c 51.8926,-39.66 61.6526,-113.8 21.9,-165.8 l -1246.64,-1624.1 c -39.3058,-51.604 -113.4538,-61.364 -165.305,-21.9 l -124.97,95.95 c -51.6195,39.908 -125.7599,30.148 -165.8,-21.9 l -599.09,-780.95 c -39.4654,-51.402 -29.7008,-125.543 21.905,-165.3 l 124.965,-95.95 c 51.8608,-39.607 61.6254,-113.748 21.905,-165.8 l -95.935,-124.95 c -39.6276,-51.4 -29.8676,-125.54 21.4,-165.3 l 4185.705,-3211.8 c 51.9345,-39.458 126.0749,-29.698 165.3,21.9 l 95.935,125 c 40.1301,51.898 114.2705,61.658 165.8,21.9 l 124.97,-95.95 c 51.9412,-39.614 126.0892,-29.854 165.305,21.4 z"
     id="path3610"
     style="fill:#000000;fill-opacity:0;stroke:#000000;stroke-width:39.3701;stroke-linecap:round;stroke-linejoin:round;stroke-opacity:1"
     sodipodi:nodetypes="ccccccccccccccccccccccccccccccccccccccccc" />
  <path
     d="m 37979,20987.35 v -984.1 c 0,-64.973 -52.877,-117.844 -118.55,-118.05 l -157.25,0 c -65.023,0.194 -117.9,-52.677 -118.05,-118.05 V 17720 c 0.156,-65.223 53.027,-118.1 118.05,-118.55 h 157.25 c 65.673,0.45 118.544,-52.427 118.55,-118.05 v -984.1 c 0.05,-64.962 -52.838,-117.894 -118.55,-118.1 l -157.25,0 c -65.023,0.194 -117.9,-52.677 -118.05,-118.05 v -157.7 c 0.2,-64.812 -52.688,-117.744 -118.05,-118.1 h -5275.8 c -64.962,0.35 -117.85,53.288 -118.05,118.1 v 157.7 c 0.244,65.373 -52.627,118.25 -118.05,118.05 h -157.75 c -64.812,0.2 -117.7,53.138 -118.05,118.1 v 984.1 c 0.4,65.623 53.277,118.494 118.05,118.05 l 157.75,0 c 65.423,0.456 118.3,53.327 118.05,118.55 v 2047.15 c 0.244,65.373 -52.627,118.25 -118.05,118.05 h -157.75 c -64.773,0.2 -117.644,53.077 -118.05,118.05 v 984.1 c 0.35,65.612 53.238,118.544 118.05,118.1 h 157.75 c 65.423,0.456 118.3,53.327 118.05,118.05 v 157.7 c 0.2,65.462 53.088,118.394 118.05,118.1 l 5275.8,0 c 65.362,0.3 118.25,-52.638 118.05,-118.1 l 0,-157.7 c 0.156,-64.723 53.027,-117.6 118.05,-118.05 h 157.25 c 65.712,0.45 118.6,-52.488 118.55,-118.1 z"
     id="path3640"
     style="fill:#000000;fill-opacity:0;stroke:#000000;stroke-width:39.3701;stroke-linecap:round;stroke-linejoin:round;stroke-opacity:1"
     sodipodi:nodetypes="ccccccccccccccccccccccccccccccccccccccccc" />
  <path
     d="m 32091.5,13739.25 c 0.5,-64.973 -52.377,-117.844 -118.05,-118.05 l -157.25,0 c -65.062,0.194 -117.95,-52.738 -118.05,-118.1 v -984.6 c 0.156,-64.723 53.027,-117.6 118.05,-118.05 h 157.25 c 65.673,0.45 118.544,-52.427 118.05,-118.05 v -2047.15 c 0.5,-64.973 -52.377,-117.844 -118.05,-118.05 h -157.25 c -65.019,0.194 -117.89,-52.671 -118.05,-118.045 v -984.13 c 0.15,-65.2014 53.024,-118.075 118.05,-118.555 h 157.25 c 65.676,0.46 118.55,-52.4136 118.05,-118.055 v -157.24 c 0.5,-65.0514 53.374,-117.925 118.55,-118.055 h 5275.3 c 65.576,0.1255 118.45,53.0036 118.05,118.055 v 157.24 c 0.4,65.6414 53.274,118.5195 118.05,118.055 h 157.75 c 65.426,0.4755 118.3,53.3536 118.05,118.555 v 984.13 c 0.239,65.374 -52.631,118.245 -118.05,118.045 h -157.75 c -64.773,0.2 -117.644,53.077 -118.05,118.05 v 2047.15 c 0.4,65.623 53.277,118.494 118.05,118.05 h 157.75 c 65.423,0.456 118.3,53.327 118.05,118.05 v 984.6 c 0.3,65.362 -52.588,118.3 -118.05,118.1 h -157.75 c -64.773,0.2 -117.644,53.077 -118.05,118.05 v 157.2 c 0.45,65.712 -52.438,118.65 -118.05,118.6 h -5275.3 c -65.212,0.04 -118.1,-52.888 -118.55,-118.6 z"
     id="path3758"
     style="fill:#000000;fill-opacity:0;stroke:#000000;stroke-width:39.3701;stroke-linecap:round;stroke-linejoin:round;stroke-opacity:1"
     sodipodi:nodetypes="ccccccccccccccccccccccccccccccccccccccccc" />
  <path
     d="m 32202.5,6485.35 c -65.226,-0.01 -118.1,-52.8836 -118.1,-118.11 l -0.4,-0.24 v -158 l 0.4,0.76 c 0,-65.2264 -52.874,-118.1045 -118.1,-118.11 l -0.3,-0.65 h -158 l 0.8,0.65 c -65.226,-0.01 -118.1,-52.8836 -118.1,-118.11 l -0.7,-0.54 v -984 l 0.7,0.29 c 0,-65.2264 52.874,-118.1 118.1,-118.11 l -0.8,-0.18 h 158 l 0.3,0.18 c 65.226,-0.01 118.1,-52.8836 118.1,-118.11 L 32084,4753 V 2705 l 0.4,0.82 c 0,-65.2264 -52.874,-118.1045 -118.1,-118.11 l -0.3,-0.71 h -158 l 0.8,0.71 c -65.226,-0.01 -118.1,-52.8836 -118.1,-118.11 l -0.7,-0.6 v -984 l 0.7,0.35 c 0,-65.2264 52.874,-118.1 118.1,-118.11 l -0.8,-0.24 h 158 l 0.3,0.24 c 65.226,-0.01 118.1,-52.8836 118.1,-118.11 l -0.4,-0.13 v -158 l 0.4,0.65 c 0,-65.2268 52.873,-118.105 118.1,-118.111 L 32202,973 h 5276 l 0.1,0.539 c 65.227,0.006 118.1,52.8842 118.1,118.111 l -0.2,-0.65 v 158 l 0.2,0.13 c 0,65.2264 52.874,118.1045 118.1,118.11 l -0.3,-0.24 h 157 l 0.8,0.24 c 65.226,0.01 118.1,52.8836 118.1,118.11 l -0.9,-0.35 v 984 l 0.9,0.6 c 0,65.2264 -52.874,118.1 -118.1,118.11 l -0.8,-0.71 h -157 l 0.3,0.71 c -65.226,0.01 -118.1,52.8836 -118.1,118.11 l -0.2,-0.82 v 2048 l 0.2,0.07 c 0,65.2264 52.874,118.1045 118.1,118.11 l -0.3,-0.18 h 157 l 0.8,0.18 c 65.226,0.01 118.1,52.8836 118.1,118.11 l -0.9,-0.29 v 984 l 0.9,0.54 c 0,65.2264 -52.874,118.1 -118.1,118.11 l -0.8,-0.65 h -157 l 0.3,0.65 c -65.226,0.01 -118.1,52.8836 -118.1,118.11 l -0.2,-0.76 v 158 l 0.2,0.24 c 0,65.2264 -52.874,118.1 -118.1,118.11 z"
     id="path3834"
     style="fill:#000000;fill-opacity:0;stroke:#000000;stroke-width:39.3701;stroke-linecap:round;stroke-linejoin:round;stroke-opacity:1"
     sodipodi:nodetypes="ccccccccccccccccccccccccccccccccccccccccccccccccccccccccccccccccccccccccccccccc" />
  <path
     d="M 37478,6485 H 32202 Z"
     id="path3836"
     style="fill:#000000;fill-opacity:0;stroke:#000000;stroke-width:39.3701;stroke-linecap:round;stroke-linejoin:round;stroke-opacity:1"
     sodipodi:nodetypes="ccc" />
  <path
     d="m 15256.35,30379.2 c -27.181,-58.896 -1.624,-129.122 57.05,-156.95 l 142.85,-66.8 c 59.362,-27.09 84.968,-97.327 57.1,-156.95 l -416,-892.05 c -27.229,-58.681 -97.528,-84.249 -157,-57.05 l -142.35,66.8 c -59.149,27.785 -129.459,2.169 -157,-57.1 l -66.75,-142.85 c -27.329,-58.881 -97.628,-84.449 -157,-57.05 l -4781.135,2229.25 c -59.0274,28.017 -84.6096,98.32 -57.065,157 l 66.275,142.85 c 27.919,59.43 2.337,129.732 -57.065,157 l -142.86,66.75 c -58.7424,27.617 -84.3246,97.92 -57.065,157 l 415.98,892 c 27.8558,59.196 98.1368,84.809 156.98,57.1 l 142.855,-66.8 c 59.272,-27.249 129.571,-1.681 157,57.05 l 865.1,1855.75 c 27.781,59.246 2.224,129.472 -57.05,156.95 l -142.9,66.3 c -58.774,27.978 -84.331,98.204 -57.05,156.95 l 416,892.05 c 27.828,59.474 98.054,85.031 156.95,57.05 l 142.85,-66.25 c 59.172,-27.399 129.471,-1.831 157,57.05 l 66.3,142.85 c 27.928,59.174 98.154,84.731 156.95,57.05 l 4781.15,-2229.75 c 59.619,-27.141 85.235,-97.451 57.6,-157 l -66.8,-142.35 c -27.348,-59.072 -1.78,-129.371 57.05,-157 l 142.9,-66.75 c 59.331,-27.279 84.899,-97.578 57.05,-157 l -416,-892 c -27.328,-58.774 -97.554,-84.331 -156.95,-57.05 l -142.9,66.75 c -58.696,27.531 -128.922,1.974 -156.95,-57.55 z"
     id="path3934"
     style="fill:#000000;fill-opacity:0;stroke:#000000;stroke-width:39.3701;stroke-linecap:round;stroke-linejoin:round;stroke-opacity:1"
     sodipodi:nodetypes="ccccccccccccccccccccccccccccccccccccccccc" />
  <path
     d="m 39183.45,18013.25 c 0.456,-64.973 53.327,-117.85 118.55,-118.05 h 157.25 c 65.473,0.2 118.344,-52.677 118.05,-118.05 v -157.75 c 0.306,-64.823 53.177,-117.7 118.05,-118.05 h 5275.8 c 65.373,0.356 118.25,53.227 118.05,118.05 v 157.75 c 0.2,65.412 53.138,118.3 118.1,118.05 l 157.7,0 c 65.223,0.206 118.1,53.077 118.05,118.05 v 984.15 c 0.04,65.623 -52.827,118.5 -118.05,118.05 h -157.7 c -64.962,0.4 -117.894,53.288 -118.1,118.05 v 2047.6 c 0.2,65.362 53.138,118.25 118.1,118.05 h 157.7 c 65.262,0.156 118.15,53.088 118.05,118.1 v 984.1 c 0.04,65.573 -52.827,118.45 -118.05,118.05 h -157.7 c -64.962,0.35 -117.894,53.238 -118.1,118.05 v 157.75 c 0.194,65.423 -52.677,118.3 -118.05,118.05 h -5275.8 c -64.873,0.244 -117.75,-52.627 -118.05,-118.05 v -157.75 c 0.3,-64.773 -52.577,-117.644 -118.05,-118.05 H 39302 c -65.223,0.394 -118.1,-52.477 -118.55,-118.05 v -984.1 c 0.4,-65.012 53.288,-117.95 118.55,-118.1 h 157.25 c 65.473,0.15 118.344,-52.727 118.05,-118.05 v -2047.6 c 0.3,-64.723 -52.577,-117.594 -118.05,-118.05 l -157.25,0 c -65.223,0.444 -118.1,-52.427 -118.55,-118.05 z"
     id="path4002"
     style="fill:#000000;fill-opacity:0;stroke:#000000;stroke-width:39.3701;stroke-linecap:round;stroke-linejoin:round;stroke-opacity:1"
     sodipodi:nodetypes="ccccccccccccccccccccccccccccccccccccccccc" />
  <path
     d="m 39570,10247.3 v -157.25 c 0.01,-65.169 52.881,-118.03 118.05,-118.045 h 5275.3 c 65.569,0.011 118.44,52.876 118.05,118.045 v 157.25 c 0.4,65.523 53.277,118.394 118.05,118.05 l 157.75,0 c 65.423,0.356 118.3,53.227 118.05,118.05 v 984.65 c 0.244,65.273 -52.627,118.15 -118.05,118.05 h -157.75 c -64.773,0.1 -117.644,52.977 -118.05,118.05 v 2047.1 c 0.4,65.473 53.277,118.344 118.05,118.05 l 157.75,0 c 65.462,0.306 118.35,53.238 118.05,118.1 v 984.6 c 0.244,65.223 -52.627,118.1 -118.05,118.05 h -157.75 c -64.773,0.05 -117.644,52.927 -118.05,118.05 l 0,157.25 c 0.394,65.573 -52.477,118.45 -118.05,118.05 h -5275.3 c -65.173,0.394 -118.05,-52.477 -118.05,-118.05 v -157.25 c 0,-65.123 -52.877,-117.994 -118.55,-118.05 h -157.25 c -65.023,0.04 -117.9,-52.827 -118.05,-118.05 v -984.6 c 0.1,-64.862 52.988,-117.8 118.05,-118.1 h 157.25 c 65.673,0.3 118.544,-52.577 118.55,-118.05 v -2047.1 c 0,-65.073 -52.877,-117.944 -118.55,-118.05 l -157.25,0 c -65.023,0.09 -117.9,-52.777 -118.05,-118.05 v -984.65 c 0.156,-64.823 53.027,-117.7 118.05,-118.05 h 157.25 c 65.673,0.35 118.544,-52.527 118.55,-118.05 z"
     id="path4048"
     style="fill:#000000;fill-opacity:0;stroke:#000000;stroke-width:39.3701;stroke-linecap:round;stroke-linejoin:round;stroke-opacity:1"
     sodipodi:nodetypes="ccccccccccccccccccccccccccccccccccccccccc" />
  <path
     d="m 45493.5,2999.16 c 0.5,-65.0664 -52.374,-117.9445 -118.05,-118.055 h -157.25 c -65.026,0.099 -117.9,-52.7786 -118.05,-118.055 v -157.74 c 0.15,-64.9164 -52.724,-117.7945 -118.05,-118.055 l -5275.8,0 c -64.926,0.265 -117.8,53.1386 -118.05,118.055 v 157.74 c 0.25,65.2764 -52.624,118.15 -118.05,118.055 h -157.75 c -64.776,0.115 -117.65,52.9886 -118.05,118.055 v 984.125 c 0.4,65.5114 53.274,118.3895 118.05,118.055 h 157.75 c 65.426,0.3455 118.3,53.2236 118.05,118.055 V 6267.02 c 0.25,65.2464 -52.624,118.12 -118.05,118.055 h -157.75 c -64.776,0.085 -117.65,52.9586 -118.05,118.055 v 984.125 c 0.4,65.4814 53.274,118.3595 118.05,118.055 h 157.75 c 65.426,0.3155 118.3,53.1936 118.05,118.055 v 157.74 c 0.25,65.3314 53.124,118.2095 118.05,118.055 h 5275.8 c 65.326,0.15 118.2,-52.7236 118.05,-118.055 l 0,-157.74 c 0.15,-64.8614 53.024,-117.735 118.05,-118.055 h 157.25 c 65.676,0.3 118.55,-52.5736 118.05,-118.055 V 6503.13 c 0.5,-65.0964 -52.374,-117.9745 -118.05,-118.055 l -157.25,0 c -65.026,0.07 -117.9,-52.8086 -118.05,-118.055 V 4219.395 c 0.15,-64.8314 53.024,-117.705 118.05,-118.055 h 157.25 c 65.676,0.33 118.55,-52.5436 118.05,-118.055 z"
     id="path4170"
     style="fill:#000000;fill-opacity:0;stroke:#000000;stroke-width:39.3701;stroke-linecap:round;stroke-linejoin:round;stroke-opacity:1"
     sodipodi:nodetypes="ccccccccccccccccccccccccccccccccccccccccc" />
  <path
     d="m 17603.1,29392.45 c -63.576,14.519 -126.605,-25.68 -140.9,-89.4 l -213.05,-960.95 c -13.982,-63.61 26.232,-126.707 89.9,-140.95 l 153.35,-34 c 64.118,-13.943 104.332,-77.04 89.9,-140.95 l -34.05,-153.9 c -13.824,-63.344 26.32,-126.359 89.85,-140.9 l 5150.3,-1141.95 c 64.11,-13.682 127.207,26.532 140.95,89.9 l 34,153.85 c 14.443,63.918 77.54,104.132 140.95,89.9 l 153.9,-34.05 c 63.844,-14.024 126.859,26.12 140.9,89.35 l 213.05,960.95 c 14.282,64.06 -25.932,127.157 -89.9,140.95 l -153.85,34.05 c -63.318,14.443 -103.532,77.54 -89.4,140.95 l 443.05,1998.85 c 14.19,63.828 77.272,103.987 140.95,89.85 l 153.4,-34.55 c 64.076,-13.619 127.105,26.58 140.9,89.9 l 213.05,960.95 c 14.482,64.01 -25.732,127.107 -89.9,140.95 l -153.35,34.05 c -63.57,14.395 -103.769,77.424 -89.9,140.9 l 34.05,153.9 c 14.387,63.778 -25.772,126.86 -89.85,140.95 l -5150.3,1141.4 c -63.578,14.587 -126.66,-25.572 -140.95,-89.35 l -34,-153.9 c -13.99,-63.478 -77.072,-103.637 -140.95,-89.85 l -153.9,34.05 c -63.376,14.469 -126.405,-25.73 -140.9,-89.4 l -213.05,-960.95 c -13.782,-63.66 26.432,-126.757 89.9,-140.95 l 153.85,-34.05 c 63.77,-14.045 103.969,-77.074 89.4,-140.9 l -443.05,-1998.9 c -13.69,-63.428 -76.772,-103.587 -140.95,-89.85 z"
     id="path4272"
     style="fill:#000000;fill-opacity:0;stroke:#000000;stroke-width:39.3701;stroke-linecap:round;stroke-linejoin:round;stroke-opacity:1"
     sodipodi:nodetypes="ccccccccccccccccccccccccccccccccccccccccc" />
  <path
     d="M 47098.05,25015.45 V 22968.3 c 0.05,-64.923 -52.827,-117.794 -118.55,-118.05 h -157.25 c -64.973,0.244 -117.85,-52.627 -118.05,-118.05 v -984.15 c 0.206,-65.173 53.077,-118.05 118.05,-118.05 h 157.25 c 65.723,0 118.594,-52.877 118.55,-118.55 v -157.25 c 0.06,-65.023 52.927,-117.9 118.05,-118.05 h 5275.3 c 65.623,0.156 118.5,53.027 118.05,118.05 v 157.25 c 0.45,65.673 53.327,118.544 118.55,118.55 h 157.25 c 65.473,0 118.35,52.877 118.05,118.05 v 984.15 c 0.294,65.423 -52.577,118.3 -118.05,118.05 H 52728 c -65.223,0.25 -118.094,53.127 -118.55,118.05 v 2047.15 c 0.45,65.673 53.327,118.544 118.55,118.05 h 157.25 c 65.473,0.506 118.35,53.377 118.05,118.55 v 984.1 c 0.294,65.373 -52.577,118.25 -118.05,118.05 H 52728 c -65.262,0.2 -118.15,53.138 -118.55,118.1 v 157.7 c 0.444,65.223 -52.427,118.1 -118.05,118.05 h -5275.3 c -65.123,0.04 -118,-52.827 -118.05,-118.05 v -157.7 c 0.1,-64.962 -52.788,-117.894 -118.55,-118.1 h -157.25 c -64.973,0.194 -117.85,-52.677 -118.05,-118.05 v -984.1 c 0.206,-65.173 53.077,-118.05 118.05,-118.55 h 157.25 c 65.723,0.5 118.594,-52.377 118.55,-118.05 z"
     id="path4294"
     style="fill:#000000;fill-opacity:0;stroke:#000000;stroke-width:39.3701;stroke-linecap:round;stroke-linejoin:round;stroke-opacity:1"
     sodipodi:nodetypes="ccccccccccccccccccccccccccccccccccccccccc" />
  <path
     d="m 47080.45,18978.25 c 0.45,-64.973 -52.427,-117.844 -118.05,-118.05 l -157.25,0 c -65.073,0.194 -117.95,-52.677 -118.05,-118.05 V 17758 c 0.106,-65.223 52.977,-118.1 118.05,-118.55 h 157.25 c 65.623,0.45 118.494,-52.427 118.05,-118.05 v -2047.1 c 0.45,-64.923 -52.427,-117.794 -118.05,-118.05 h -157.25 c -65.112,0.244 -118,-52.688 -118.05,-118.1 v -984.1 c 0.106,-65.173 52.977,-118.05 118.05,-118.55 h 157.25 c 65.623,0.5 118.494,-52.377 118.05,-118.05 v -157.25 c 0.456,-65.023 53.327,-117.9 118.55,-118.05 h 5275.3 c 65.523,0.156 118.4,53.027 118.05,118.05 v 157.25 c 0.35,65.673 53.227,118.544 118.05,118.05 h 157.75 c 65.373,0.506 118.25,53.377 118.05,118.55 v 984.1 c 0.25,65.412 -52.638,118.35 -118.05,118.1 h -157.75 c -64.823,0.25 -117.694,53.127 -118.05,118.05 v 2047.1 c 0.35,65.623 53.227,118.494 118.05,118.05 l 157.75,0 c 65.373,0.456 118.25,53.327 118.05,118.55 v 984.15 c 0.194,65.373 -52.677,118.25 -118.05,118.05 h -157.75 c -64.823,0.2 -117.694,53.077 -118.05,118.05 v 157.25 c 0.344,65.723 -52.527,118.6 -118.05,118.55 H 47199 c -65.223,0.04 -118.1,-52.827 -118.55,-118.55 z"
     id="path4366"
     style="fill:#000000;fill-opacity:0;stroke:#000000;stroke-width:39.3701;stroke-linecap:round;stroke-linejoin:round;stroke-opacity:1"
     sodipodi:nodetypes="ccccccccccccccccccccccccccccccccccccccccc" />
  <path
     d="m 52851.05,6641.465 c 65.315,0.4153 118.25,53.3095 118.1,118.555 l 0,984.125 c 0.15,65.4105 -52.785,118.305 -118.1,118.055 h -157.7 c -64.876,0.21 -117.75,53.0836 -118.05,118.055 V 10027.4 c 0.3,65.623 53.177,118.494 118.05,118.05 h 157.7 c 65.312,0.4 118.25,53.288 118.1,118.05 l 0,984.6 c 0.144,65.362 -52.788,118.25 -118.1,118.05 h -157.7 c -64.873,0.15 -117.744,53.027 -118.05,118.05 l -0.05,157.25 c 0.244,65.673 -52.627,118.55 -118.05,118.55 h -5275.8 c -64.823,-0 -117.7,-52.877 -118.05,-118.55 v -157.25 c 0.35,-65.023 -52.527,-117.894 -118.05,-118.05 h -157.25 c -65.173,0.144 -118.05,-52.727 -118.05,-118.05 v -984.6 c 0,-64.723 52.877,-117.6 118.05,-118.05 h 157.25 c 65.523,0.45 118.394,-52.427 118.05,-118.05 V 7980.255 c 0.35,-64.9714 -52.524,-117.8495 -118.05,-118.055 h -157.25 c -65.176,0.1945 -118.05,-52.6836 -118.05,-118.055 V 6760.02 c 0,-65.2064 52.874,-118.08 118.05,-118.555 h 157.25 c 65.526,0.455 118.4,-52.4186 118.05,-118.055 v -157.24 c 0.344,-65.0604 53.22,-117.94 118.05,-118.06 h 5275.8 c 65.43,0.1155 118.3,52.9996 118.05,118.06 l 0.05,157.24 c 0.3,65.6364 53.174,118.5145 118.05,118.055 z"
     id="path4488"
     style="fill:#000000;fill-opacity:0;stroke:#000000;stroke-width:39.3701;stroke-linecap:round;stroke-linejoin:round;stroke-opacity:1"
     sodipodi:nodetypes="ccccccccccccccccccccccccccccccccccccccccc" />
</svg>
