  0
SECTION
  2
HEADER
  9
$ACADVER
  1
AC1014
  9
$HANDSEED
  5
FFFF
  9
$MEASUREMENT
 70
     1
  0
ENDSEC
  0
SECTION
  2
TABLES
  0
TABLE
  2
VPORT
  5
8
330
0
100
AcDbSymbolTable
 70
     4
  0
VPORT
  5
2E
330
8
100
AcDbSymbolTableRecord
100
AcDbViewportTableRecord
  2
*ACTIVE
 70
     0
 10
0.0
 20
0.0
 11
1.0
 21
1.0
 12
210.0
 22
148.5
 13
0.0
 23
0.0
 14
10.0
 24
10.0
 15
10.0
 25
10.0
 16
0.0
 26
0.0
 36
1.0
 17
0.0
 27
0.0
 37
0.0
 40
341.0
 41
1.24
 42
50.0
 43
0.0
 44
0.0
 50
0.0
 51
0.0
 71
     0
 72
   100
 73
     1
 74
     3
 75
     0
 76
     0
 77
     0
 78
     0
  0
ENDTAB
  0
TABLE
  2
LTYPE
  5
5
330
0
100
AcDbSymbolTable
 70
     1
  0
LTYPE
  5
14
330
5
100
AcDbSymbolTableRecord
100
AcDbLinetypeTableRecord
  2
BYBLOCK
 70
     0
  3

 72
    65
 73
     0
 40
0.0
  0
LTYPE
  5
15
330
5
100
AcDbSymbolTableRecord
100
AcDbLinetypeTableRecord
  2
BYLAYER
 70
     0
  3

 72
    65
 73
     0
 40
0.0
  0
LTYPE
  5
16
330
5
100
AcDbSymbolTableRecord
100
AcDbLinetypeTableRecord
  2
CONTINUOUS
 70
     0
  3
Solid line
 72
    65
 73
     0
 40
0.0
  0
ENDTAB
  0
TABLE
  2
LAYER
  5
2
100
AcDbSymbolTable
 70
1
  0
LAYER
  5
50
100
AcDbSymbolTableRecord
100
AcDbLayerTableRecord
  2
0
 70
0
  6
CONTINUOUS
  0
ENDTAB
  0
TABLE
  2
STYLE
  5
3
330
0
100
AcDbSymbolTable
 70
     1
  0
STYLE
  5
11
330
3
100
AcDbSymbolTableRecord
100
AcDbTextStyleTableRecord
  2
STANDARD
 70
     0
 40
0.0
 41
1.0
 50
0.0
 71
     0
 42
2.5
  3
txt
  4

  0
ENDTAB
  0
TABLE
  2
VIEW
  5
6
330
0
100
AcDbSymbolTable
 70
     0
  0
ENDTAB
  0
TABLE
  2
UCS
  5
7
330
0
100
AcDbSymbolTable
 70
     0
  0
ENDTAB
  0
TABLE
  2
APPID
  5
9
330
0
100
AcDbSymbolTable
 70
     2
  0
APPID
  5
12
330
9
100
AcDbSymbolTableRecord
100
AcDbRegAppTableRecord
  2
ACAD
 70
     0
  0
ENDTAB
  0
TABLE
  2
DIMSTYLE
  5
A
330
0
100
AcDbSymbolTable
 70
     1
  0
DIMSTYLE
105
27
330
A
100
AcDbSymbolTableRecord
100
AcDbDimStyleTableRecord
  2
ISO-25
 70
     0
  3

  4

  5

  6

  7

 40
1.0
 41
2.5
 42
0.625
 43
3.75
 44
1.25
 45
0.0
 46
0.0
 47
0.0
 48
0.0
140
2.5
141
2.5
142
0.0
143
0.03937007874016
144
1.0
145
0.0
146
1.0
147
0.625
 71
     0
 72
     0
 73
     0
 74
     0
 75
     0
 76
     0
 77
     1
 78
     8
170
     0
171
     3
172
     1
173
     0
174
     0
175
     0
176
     0
177
     0
178
     0
270
     2
271
     2
272
     2
273
     2
274
     3
340
11
275
     0
280
     0
281
     0
282
     0
283
     0
284
     8
285
     0
286
     0
287
     3
288
     0
  0
ENDTAB
  0
TABLE
  2
BLOCK_RECORD
  5
1
330
0
100
AcDbSymbolTable
 70
     1
  0
BLOCK_RECORD
  5
1F
330
1
100
AcDbSymbolTableRecord
100
AcDbBlockTableRecord
  2
*MODEL_SPACE
  0
BLOCK_RECORD
  5
1B
330
1
100
AcDbSymbolTableRecord
100
AcDbBlockTableRecord
  2
*PAPER_SPACE
  0
ENDTAB
  0
ENDSEC
  0
SECTION
  2
BLOCKS
  0
BLOCK
  5
20
330
1F
100
AcDbEntity
  8
0
100
AcDbBlockBegin
  2
*MODEL_SPACE
 70
     0
 10
0.0
 20
0.0
 30
0.0
  3
*MODEL_SPACE
  1

  0
ENDBLK
  5
21
330
1F
100
AcDbEntity
  8
0
100
AcDbBlockEnd
  0
BLOCK
  5
1C
330
1B
100
AcDbEntity
 67
     1
  8
0
100
AcDbBlockBegin
  2
*PAPER_SPACE
  1

  0
ENDBLK
  5
1D
330
1B
100
AcDbEntity
 67
     1
  8
0
100
AcDbBlockEnd
  0
ENDSEC
  0
SECTION
  2
ENTITIES
  0
LINE
  5
100
100
AcDbEntity
  8
0
 62
7
100
AcDbLine
 10
11.635740
 20
-5.149657
 30
0.0
 11
17.236440
 21
-5.149657
 31
0.0
  0
LINE
  5
101
100
AcDbEntity
  8
0
 62
7
100
AcDbLine
 10
17.236440
 20
-7.151177
 30
0.0
 11
17.236440
 21
-5.149657
 31
0.0
  0
LINE
  5
102
100
AcDbEntity
  8
0
 62
7
100
AcDbLine
 10
11.635740
 20
-7.151177
 30
0.0
 11
11.635740
 21
-5.149657
 31
0.0
  0
LINE
  5
103
100
AcDbEntity
  8
0
 62
7
100
AcDbLine
 10
17.485360
 20
-7.151177
 30
0.0
 11
17.485360
 21
-19.249197
 31
0.0
  0
LINE
  5
104
100
AcDbEntity
  8
0
 62
7
100
AcDbLine
 10
11.386820
 20
-7.151177
 30
0.0
 11
11.386820
 21
-19.249197
 31
0.0
  0
LINE
  5
105
100
AcDbEntity
  8
0
 62
7
100
AcDbLine
 10
11.386820
 20
-19.249197
 30
0.0
 11
17.485360
 21
-19.249197
 31
0.0
  0
LINE
  5
106
100
AcDbEntity
  8
0
 62
7
100
AcDbLine
 10
11.386820
 20
-7.151177
 30
0.0
 11
17.485360
 21
-7.151177
 31
0.0
  0
LINE
  5
107
100
AcDbEntity
  8
0
 62
7
100
AcDbLine
 10
56.452623
 20
-83.391060
 30
0.0
 11
56.583502
 21
-83.981414
 31
0.0
  0
LINE
  5
108
100
AcDbEntity
  8
0
 62
7
100
AcDbLine
 10
56.583502
 20
-83.981414
 30
0.0
 11
56.462270
 21
-84.008290
 31
0.0
  0
SPLINE
  5
109
100
AcDbEntity
  8
0
 62
7
100
AcDbSpline
 70
8
 71
3
 72
8
 73
4
 74
0
 40
0
 40
0
 40
0
 40
0
 40
1
 40
1
 40
1
 40
1
 10
56.462270
 20
-84.008290
 30
0.0
 10
56.359917
 20
-84.030981
 30
0.0
 10
56.279796
 20
-84.023848
 30
0.0
 10
56.221908
 20
-83.986891
 30
0.0
  0
SPLINE
  5
10a
100
AcDbEntity
  8
0
 62
7
100
AcDbSpline
 70
8
 71
3
 72
8
 73
4
 74
0
 40
0
 40
0
 40
0
 40
0
 40
1
 40
1
 40
1
 40
1
 10
56.221908
 20
-83.986891
 30
0.0
 10
56.163688
 20
-83.950006
 30
0.0
 10
56.123231
 20
-83.880376
 30
0.0
 10
56.100535
 20
-83.778002
 30
0.0
  0
SPLINE
  5
10b
100
AcDbEntity
  8
0
 62
7
100
AcDbSpline
 70
8
 71
3
 72
8
 73
4
 74
0
 40
0
 40
0
 40
0
 40
0
 40
1
 40
1
 40
1
 40
1
 10
56.100535
 20
-83.778002
 30
0.0
 10
56.077989
 20
-83.676304
 30
0.0
 10
56.085342
 20
-83.596608
 30
0.0
 10
56.122594
 20
-83.538914
 30
0.0
  0
SPLINE
  5
10c
100
AcDbEntity
  8
0
 62
7
100
AcDbSpline
 70
8
 71
3
 72
8
 73
4
 74
0
 40
0
 40
0
 40
0
 40
0
 40
1
 40
1
 40
1
 40
1
 10
56.122594
 20
-83.538914
 30
0.0
 10
56.159439
 20
-83.480953
 30
0.0
 10
56.229038
 20
-83.440627
 30
0.0
 10
56.331391
 20
-83.417936
 30
0.0
  0
LINE
  5
10d
100
AcDbEntity
  8
0
 62
7
100
AcDbLine
 10
56.331391
 20
-83.417936
 30
0.0
 11
56.452623
 21
-83.391060
 31
0.0
  0
LINE
  5
10e
100
AcDbEntity
  8
0
 62
7
100
AcDbLine
 10
56.534275
 20
-83.284402
 30
0.0
 11
56.328080
 21
-83.330115
 31
0.0
  0
SPLINE
  5
10f
100
AcDbEntity
  8
0
 62
7
100
AcDbSpline
 70
8
 71
3
 72
8
 73
4
 74
0
 40
0
 40
0
 40
0
 40
0
 40
1
 40
1
 40
1
 40
1
 10
56.328080
 20
-83.330115
 30
0.0
 10
56.184324
 20
-83.361985
 30
0.0
 10
56.085625
 20
-83.416052
 30
0.0
 10
56.031986
 20
-83.492316
 30
0.0
  0
SPLINE
  5
110
100
AcDbEntity
  8
0
 62
7
100
AcDbSpline
 70
8
 71
3
 72
8
 73
4
 74
0
 40
0
 40
0
 40
0
 40
0
 40
1
 40
1
 40
1
 40
1
 10
56.031986
 20
-83.492316
 30
0.0
 10
55.978273
 20
-83.568242
 30
0.0
 10
55.965846
 20
-83.671291
 30
0.0
 10
55.994705
 20
-83.801464
 30
0.0
  0
SPLINE
  5
111
100
AcDbEntity
  8
0
 62
7
100
AcDbSpline
 70
8
 71
3
 72
8
 73
4
 74
0
 40
0
 40
0
 40
0
 40
0
 40
1
 40
1
 40
1
 40
1
 10
55.994705
 20
-83.801464
 30
0.0
 10
56.023714
 20
-83.932314
 30
0.0
 10
56.078806
 20
-84.020928
 30
0.0
 10
56.159981
 20
-84.067304
 30
0.0
  0
SPLINE
  5
112
100
AcDbEntity
  8
0
 62
7
100
AcDbSpline
 70
8
 71
3
 72
8
 73
4
 74
0
 40
0
 40
0
 40
0
 40
0
 40
1
 40
1
 40
1
 40
1
 10
56.159981
 20
-84.067304
 30
0.0
 10
56.241156
 20
-84.113681
 30
0.0
 10
56.353291
 20
-84.121009
 30
0.0
 10
56.496385
 20
-84.089286
 30
0.0
  0
LINE
  5
113
100
AcDbEntity
  8
0
 62
7
100
AcDbLine
 10
56.496385
 20
-84.089286
 30
0.0
 11
56.702580
 21
-84.043573
 31
0.0
  0
LINE
  5
114
100
AcDbEntity
  8
0
 62
7
100
AcDbLine
 10
56.702580
 20
-84.043573
 30
0.0
 11
56.534275
 21
-83.284402
 31
0.0
  0
LINE
  5
115
100
AcDbEntity
  8
0
 62
7
100
AcDbLine
 10
55.873540
 20
-84.136675
 30
0.0
 11
55.709579
 21
-84.173025
 31
0.0
  0
LINE
  5
116
100
AcDbEntity
  8
0
 62
7
100
AcDbLine
 10
55.709579
 20
-84.173025
 30
0.0
 11
55.581180
 21
-83.593857
 31
0.0
  0
LINE
  5
117
100
AcDbEntity
  8
0
 62
7
100
AcDbLine
 10
55.581180
 20
-83.593857
 30
0.0
 11
55.767668
 21
-83.590925
 31
0.0
  0
LINE
  5
118
100
AcDbEntity
  8
0
 62
7
100
AcDbLine
 10
55.767668
 20
-83.590925
 30
0.0
 11
55.746927
 21
-83.497365
 31
0.0
  0
LINE
  5
119
100
AcDbEntity
  8
0
 62
7
100
AcDbLine
 10
55.746927
 20
-83.497365
 30
0.0
 11
55.561433
 21
-83.500077
 31
0.0
  0
LINE
  5
11a
100
AcDbEntity
  8
0
 62
7
100
AcDbLine
 10
55.561433
 20
-83.500077
 30
0.0
 11
55.461066
 21
-83.522327
 31
0.0
  0
LINE
  5
11b
100
AcDbEntity
  8
0
 62
7
100
AcDbLine
 10
55.461066
 20
-83.522327
 30
0.0
 11
55.610206
 21
-84.195055
 31
0.0
  0
LINE
  5
11c
100
AcDbEntity
  8
0
 62
7
100
AcDbLine
 10
55.610206
 20
-84.195055
 30
0.0
 11
55.446245
 21
-84.231405
 31
0.0
  0
LINE
  5
11d
100
AcDbEntity
  8
0
 62
7
100
AcDbLine
 10
55.446245
 20
-84.231405
 30
0.0
 11
55.465409
 21
-84.317848
 31
0.0
  0
LINE
  5
11e
100
AcDbEntity
  8
0
 62
7
100
AcDbLine
 10
55.465409
 20
-84.317848
 30
0.0
 11
55.892704
 21
-84.223118
 31
0.0
  0
LINE
  5
11f
100
AcDbEntity
  8
0
 62
7
100
AcDbLine
 10
55.892704
 20
-84.223118
 30
0.0
 11
55.873540
 21
-84.136675
 31
0.0
  0
SPLINE
  5
120
100
AcDbEntity
  8
0
 62
7
100
AcDbSpline
 70
8
 71
3
 72
8
 73
4
 74
0
 40
0
 40
0
 40
0
 40
0
 40
1
 40
1
 40
1
 40
1
 10
54.894739
 20
-83.718832
 30
0.0
 10
54.946411
 20
-83.707377
 30
0.0
 10
54.991118
 20
-83.724851
 30
0.0
 10
55.028860
 20
-83.771254
 30
0.0
  0
SPLINE
  5
121
100
AcDbEntity
  8
0
 62
7
100
AcDbSpline
 70
8
 71
3
 72
8
 73
4
 74
0
 40
0
 40
0
 40
0
 40
0
 40
1
 40
1
 40
1
 40
1
 10
55.028860
 20
-83.771254
 30
0.0
 10
55.066194
 20
-83.817392
 30
0.0
 10
55.096435
 20
-83.892665
 30
0.0
 10
55.119582
 20
-83.997074
 30
0.0
  0
SPLINE
  5
122
100
AcDbEntity
  8
0
 62
7
100
AcDbSpline
 70
8
 71
3
 72
8
 73
4
 74
0
 40
0
 40
0
 40
0
 40
0
 40
1
 40
1
 40
1
 40
1
 10
55.119582
 20
-83.997074
 30
0.0
 10
55.142654
 20
-84.101145
 30
0.0
 10
55.147059
 20
-84.182146
 30
0.0
 10
55.132796
 20
-84.240078
 30
0.0
  0
SPLINE
  5
123
100
AcDbEntity
  8
0
 62
7
100
AcDbSpline
 70
8
 71
3
 72
8
 73
4
 74
0
 40
0
 40
0
 40
0
 40
0
 40
1
 40
1
 40
1
 40
1
 10
55.132796
 20
-84.240078
 30
0.0
 10
55.118126
 20
-84.297745
 30
0.0
 10
55.084955
 20
-84.332307
 30
0.0
 10
55.033282
 20
-84.343762
 30
0.0
  0
SPLINE
  5
124
100
AcDbEntity
  8
0
 62
7
100
AcDbSpline
 70
8
 71
3
 72
8
 73
4
 74
0
 40
0
 40
0
 40
0
 40
0
 40
1
 40
1
 40
1
 40
1
 10
55.033282
 20
-84.343762
 30
0.0
 10
54.981278
 20
-84.355291
 30
0.0
 10
54.936608
 20
-84.337987
 30
0.0
 10
54.899274
 20
-84.291849
 30
0.0
  0
SPLINE
  5
125
100
AcDbEntity
  8
0
 62
7
100
AcDbSpline
 70
8
 71
3
 72
8
 73
4
 74
0
 40
0
 40
0
 40
0
 40
0
 40
1
 40
1
 40
1
 40
1
 10
54.899274
 20
-84.291849
 30
0.0
 10
54.861532
 20
-84.245446
 30
0.0
 10
54.831125
 20
-84.170209
 30
0.0
 10
54.808053
 20
-84.066139
 30
0.0
  0
SPLINE
  5
126
100
AcDbEntity
  8
0
 62
7
100
AcDbSpline
 70
8
 71
3
 72
8
 73
4
 74
0
 40
0
 40
0
 40
0
 40
0
 40
1
 40
1
 40
1
 40
1
 10
54.808053
 20
-84.066139
 30
0.0
 10
54.784906
 20
-83.961730
 30
0.0
 10
54.780668
 20
-83.880691
 30
0.0
 10
54.795338
 20
-83.823024
 30
0.0
  0
SPLINE
  5
127
100
AcDbEntity
  8
0
 62
7
100
AcDbSpline
 70
8
 71
3
 72
8
 73
4
 74
0
 40
0
 40
0
 40
0
 40
0
 40
1
 40
1
 40
1
 40
1
 10
54.795338
 20
-83.823024
 30
0.0
 10
54.809600
 20
-83.765092
 30
0.0
 10
54.842734
 20
-83.730361
 30
0.0
 10
54.894739
 20
-83.718832
 30
0.0
  0
LINE
  5
128
100
AcDbEntity
  8
0
 62
7
100
AcDbLine
 10
54.894739
 20
-83.718832
 30
0.0
 11
54.894739
 21
-83.718832
 31
0.0
  0
SPLINE
  5
129
100
AcDbEntity
  8
0
 62
7
100
AcDbSpline
 70
8
 71
3
 72
8
 73
4
 74
0
 40
0
 40
0
 40
0
 40
0
 40
1
 40
1
 40
1
 40
1
 10
54.876702
 20
-83.637473
 30
0.0
 10
54.793561
 20
-83.655905
 30
0.0
 10
54.737606
 20
-83.703697
 30
0.0
 10
54.708838
 20
-83.780851
 30
0.0
  0
SPLINE
  5
12a
100
AcDbEntity
  8
0
 62
7
100
AcDbSpline
 70
8
 71
3
 72
8
 73
4
 74
0
 40
0
 40
0
 40
0
 40
0
 40
1
 40
1
 40
1
 40
1
 10
54.708838
 20
-83.780851
 30
0.0
 10
54.679664
 20
-83.857737
 30
0.0
 10
54.679281
 20
-83.960250
 30
0.0
 10
54.707689
 20
-84.088389
 30
0.0
  0
SPLINE
  5
12b
100
AcDbEntity
  8
0
 62
7
100
AcDbSpline
 70
8
 71
3
 72
8
 73
4
 74
0
 40
0
 40
0
 40
0
 40
0
 40
1
 40
1
 40
1
 40
1
 10
54.707689
 20
-84.088389
 30
0.0
 10
54.736021
 20
-84.216189
 30
0.0
 10
54.779692
 20
-84.308935
 30
0.0
 10
54.838702
 20
-84.366627
 30
0.0
  0
SPLINE
  5
12c
100
AcDbEntity
  8
0
 62
7
100
AcDbSpline
 70
8
 71
3
 72
8
 73
4
 74
0
 40
0
 40
0
 40
0
 40
0
 40
1
 40
1
 40
1
 40
1
 10
54.838702
 20
-84.366627
 30
0.0
 10
54.897306
 20
-84.424054
 30
0.0
 10
54.968178
 20
-84.443551
 30
0.0
 10
55.051319
 20
-84.425119
 30
0.0
  0
SPLINE
  5
12d
100
AcDbEntity
  8
0
 62
7
100
AcDbSpline
 70
8
 71
3
 72
8
 73
4
 74
0
 40
0
 40
0
 40
0
 40
0
 40
1
 40
1
 40
1
 40
1
 10
55.051319
 20
-84.425119
 30
0.0
 10
55.134460
 20
-84.406687
 30
0.0
 10
55.190617
 20
-84.359028
 30
0.0
 10
55.219791
 20
-84.282142
 30
0.0
  0
SPLINE
  5
12e
100
AcDbEntity
  8
0
 62
7
100
AcDbSpline
 70
8
 71
3
 72
8
 73
4
 74
0
 40
0
 40
0
 40
0
 40
0
 40
1
 40
1
 40
1
 40
1
 10
55.219791
 20
-84.282142
 30
0.0
 10
55.248560
 20
-84.204990
 30
0.0
 10
55.248778
 20
-84.102514
 30
0.0
 10
55.220445
 20
-83.974713
 30
0.0
  0
SPLINE
  5
12f
100
AcDbEntity
  8
0
 62
7
100
AcDbSpline
 70
8
 71
3
 72
8
 73
4
 74
0
 40
0
 40
0
 40
0
 40
0
 40
1
 40
1
 40
1
 40
1
 10
55.220445
 20
-83.974713
 30
0.0
 10
55.192037
 20
-83.846574
 30
0.0
 10
55.148531
 20
-83.753792
 30
0.0
 10
55.089928
 20
-83.696365
 30
0.0
  0
SPLINE
  5
130
100
AcDbEntity
  8
0
 62
7
100
AcDbSpline
 70
8
 71
3
 72
8
 73
4
 74
0
 40
0
 40
0
 40
0
 40
0
 40
1
 40
1
 40
1
 40
1
 10
55.089928
 20
-83.696365
 30
0.0
 10
55.030918
 20
-83.638672
 30
0.0
 10
54.959842
 20
-83.619041
 30
0.0
 10
54.876702
 20
-83.637473
 30
0.0
  0
LINE
  5
131
100
AcDbEntity
  8
0
 62
7
100
AcDbLine
 10
54.876702
 20
-83.637473
 30
0.0
 11
54.876702
 21
-83.637473
 31
0.0
  0
LINE
  5
132
100
AcDbEntity
  8
0
 62
7
100
AcDbLine
 10
81.526380
 20
-1.448877
 30
0.0
 11
95.496380
 21
-1.448877
 31
0.0
  0
LINE
  5
133
100
AcDbEntity
  8
0
 62
7
100
AcDbLine
 10
95.496380
 20
-1.448877
 30
0.0
 11
95.496380
 21
-15.418877
 31
0.0
  0
LINE
  5
134
100
AcDbEntity
  8
0
 62
7
100
AcDbLine
 10
95.496380
 20
-15.418877
 30
0.0
 11
81.526380
 21
-15.418877
 31
0.0
  0
LINE
  5
135
100
AcDbEntity
  8
0
 62
7
100
AcDbLine
 10
81.526380
 20
-15.418877
 30
0.0
 11
81.526380
 21
-1.448877
 31
0.0
  0
LINE
  5
136
100
AcDbEntity
  8
0
 62
7
100
AcDbLine
 10
43.436540
 20
-61.215077
 30
0.0
 11
43.436540
 21
-47.245077
 31
0.0
  0
LINE
  5
137
100
AcDbEntity
  8
0
 62
7
100
AcDbLine
 10
43.436540
 20
-47.245077
 30
0.0
 11
57.406540
 21
-47.245077
 31
0.0
  0
LINE
  5
138
100
AcDbEntity
  8
0
 62
7
100
AcDbLine
 10
57.406540
 20
-47.245077
 30
0.0
 11
57.406540
 21
-61.215077
 31
0.0
  0
LINE
  5
139
100
AcDbEntity
  8
0
 62
7
100
AcDbLine
 10
57.406540
 20
-61.215077
 30
0.0
 11
43.436540
 21
-61.215077
 31
0.0
  0
LINE
  5
13a
100
AcDbEntity
  8
0
 62
7
100
AcDbLine
 10
57.388760
 20
-28.118877
 30
0.0
 11
57.388760
 21
-42.088877
 31
0.0
  0
LINE
  5
13b
100
AcDbEntity
  8
0
 62
7
100
AcDbLine
 10
57.388760
 20
-42.088877
 30
0.0
 11
43.418760
 21
-42.088877
 31
0.0
  0
LINE
  5
13c
100
AcDbEntity
  8
0
 62
7
100
AcDbLine
 10
43.418760
 20
-42.088877
 30
0.0
 11
43.418760
 21
-28.118877
 31
0.0
  0
LINE
  5
13d
100
AcDbEntity
  8
0
 62
7
100
AcDbLine
 10
43.418760
 20
-28.118877
 30
0.0
 11
57.388760
 21
-28.118877
 31
0.0
  0
LINE
  5
13e
100
AcDbEntity
  8
0
 62
7
100
AcDbLine
 10
57.343040
 20
-23.054117
 30
0.0
 11
43.373040
 21
-23.054117
 31
0.0
  0
LINE
  5
13f
100
AcDbEntity
  8
0
 62
7
100
AcDbLine
 10
43.373040
 20
-23.054117
 30
0.0
 11
43.373040
 21
-9.084117
 31
0.0
  0
LINE
  5
140
100
AcDbEntity
  8
0
 62
7
100
AcDbLine
 10
43.373040
 20
-9.084117
 30
0.0
 11
57.343040
 21
-9.084117
 31
0.0
  0
LINE
  5
141
100
AcDbEntity
  8
0
 62
7
100
AcDbLine
 10
57.343040
 20
-9.084117
 30
0.0
 11
57.343040
 21
-23.054117
 31
0.0
  0
LINE
  5
142
100
AcDbEntity
  8
0
 62
7
100
AcDbLine
 10
76.474320
 20
-45.268957
 30
0.0
 11
76.474320
 21
-59.238957
 31
0.0
  0
LINE
  5
143
100
AcDbEntity
  8
0
 62
7
100
AcDbLine
 10
76.474320
 20
-59.238957
 30
0.0
 11
62.504320
 21
-59.238957
 31
0.0
  0
LINE
  5
144
100
AcDbEntity
  8
0
 62
7
100
AcDbLine
 10
62.504320
 20
-59.238957
 30
0.0
 11
62.504320
 21
-45.268957
 31
0.0
  0
LINE
  5
145
100
AcDbEntity
  8
0
 62
7
100
AcDbLine
 10
62.504320
 20
-45.268957
 30
0.0
 11
76.474320
 21
-45.268957
 31
0.0
  0
LINE
  5
146
100
AcDbEntity
  8
0
 62
7
100
AcDbLine
 10
62.461140
 20
-26.234197
 30
0.0
 11
76.431140
 21
-26.234197
 31
0.0
  0
LINE
  5
147
100
AcDbEntity
  8
0
 62
7
100
AcDbLine
 10
76.431140
 20
-26.234197
 30
0.0
 11
76.431140
 21
-40.204197
 31
0.0
  0
LINE
  5
148
100
AcDbEntity
  8
0
 62
7
100
AcDbLine
 10
76.431140
 20
-40.204197
 30
0.0
 11
62.461140
 21
-40.204197
 31
0.0
  0
LINE
  5
149
100
AcDbEntity
  8
0
 62
7
100
AcDbLine
 10
62.461140
 20
-40.204197
 30
0.0
 11
62.461140
 21
-26.234197
 31
0.0
  0
LINE
  5
14a
100
AcDbEntity
  8
0
 62
7
100
AcDbLine
 10
62.506860
 20
-7.222297
 30
0.0
 11
76.476860
 21
-7.222297
 31
0.0
  0
LINE
  5
14b
100
AcDbEntity
  8
0
 62
7
100
AcDbLine
 10
76.476860
 20
-7.222297
 30
0.0
 11
76.476860
 21
-21.192297
 31
0.0
  0
LINE
  5
14c
100
AcDbEntity
  8
0
 62
7
100
AcDbLine
 10
76.476860
 20
-21.192297
 30
0.0
 11
62.506860
 21
-21.192297
 31
0.0
  0
LINE
  5
14d
100
AcDbEntity
  8
0
 62
7
100
AcDbLine
 10
62.506860
 20
-21.192297
 30
0.0
 11
62.506860
 21
-7.222297
 31
0.0
  0
LINE
  5
14e
100
AcDbEntity
  8
0
 62
7
100
AcDbLine
 10
25.834340
 20
-93.282577
 30
0.0
 11
14.749780
 21
-101.786497
 31
0.0
  0
LINE
  5
14f
100
AcDbEntity
  8
0
 62
7
100
AcDbLine
 10
14.749780
 20
-101.786497
 30
0.0
 11
6.245860
 21
-90.704477
 31
0.0
  0
LINE
  5
150
100
AcDbEntity
  8
0
 62
7
100
AcDbLine
 10
6.245860
 20
-90.704477
 30
0.0
 11
17.327880
 21
-82.198017
 31
0.0
  0
LINE
  5
151
100
AcDbEntity
  8
0
 62
7
100
AcDbLine
 10
17.327880
 20
-82.198017
 30
0.0
 11
25.834340
 21
-93.282577
 31
0.0
  0
LINE
  5
152
100
AcDbEntity
  8
0
 62
7
100
AcDbLine
 10
95.468440
 20
-39.584437
 30
0.0
 11
95.468440
 21
-53.554437
 31
0.0
  0
LINE
  5
153
100
AcDbEntity
  8
0
 62
7
100
AcDbLine
 10
95.468440
 20
-53.554437
 30
0.0
 11
81.498440
 21
-53.554437
 31
0.0
  0
LINE
  5
154
100
AcDbEntity
  8
0
 62
7
100
AcDbLine
 10
81.498440
 20
-53.554437
 30
0.0
 11
81.498440
 21
-39.584437
 31
0.0
  0
LINE
  5
155
100
AcDbEntity
  8
0
 62
7
100
AcDbLine
 10
81.498440
 20
-39.584437
 30
0.0
 11
95.468440
 21
-39.584437
 31
0.0
  0
LINE
  5
156
100
AcDbEntity
  8
0
 62
7
100
AcDbLine
 10
81.544160
 20
-20.575077
 30
0.0
 11
95.514160
 21
-20.575077
 31
0.0
  0
LINE
  5
157
100
AcDbEntity
  8
0
 62
7
100
AcDbLine
 10
95.514160
 20
-20.575077
 30
0.0
 11
95.514160
 21
-34.545077
 31
0.0
  0
LINE
  5
158
100
AcDbEntity
  8
0
 62
7
100
AcDbLine
 10
95.514160
 20
-34.545077
 30
0.0
 11
81.544160
 21
-34.545077
 31
0.0
  0
LINE
  5
159
100
AcDbEntity
  8
0
 62
7
100
AcDbLine
 10
81.544160
 20
-34.545077
 30
0.0
 11
81.544160
 21
-20.575077
 31
0.0
  0
LINE
  5
15a
100
AcDbEntity
  8
0
 62
7
100
AcDbLine
 10
24.239220
 20
-78.060357
 30
0.0
 11
36.901120
 21
-72.157397
 31
0.0
  0
LINE
  5
15b
100
AcDbEntity
  8
0
 62
7
100
AcDbLine
 10
36.901120
 20
-72.157397
 30
0.0
 11
42.804080
 21
-84.819297
 31
0.0
  0
LINE
  5
15c
100
AcDbEntity
  8
0
 62
7
100
AcDbLine
 10
42.804080
 20
-84.819297
 30
0.0
 11
30.144720
 21
-90.722257
 31
0.0
  0
LINE
  5
15d
100
AcDbEntity
  8
0
 62
7
100
AcDbLine
 10
30.144720
 20
-90.722257
 30
0.0
 11
24.239220
 21
-78.060357
 31
0.0
  0
LINE
  5
15e
100
AcDbEntity
  8
0
 62
7
100
AcDbLine
 10
100.558600
 20
-57.399997
 30
0.0
 11
100.558600
 21
-43.429997
 31
0.0
  0
LINE
  5
15f
100
AcDbEntity
  8
0
 62
7
100
AcDbLine
 10
100.558600
 20
-43.429997
 30
0.0
 11
114.528600
 21
-43.429997
 31
0.0
  0
LINE
  5
160
100
AcDbEntity
  8
0
 62
7
100
AcDbLine
 10
114.528600
 20
-43.429997
 30
0.0
 11
114.528600
 21
-57.399997
 31
0.0
  0
LINE
  5
161
100
AcDbEntity
  8
0
 62
7
100
AcDbLine
 10
114.528600
 20
-57.399997
 30
0.0
 11
100.558600
 21
-57.399997
 31
0.0
  0
LINE
  5
162
100
AcDbEntity
  8
0
 62
7
100
AcDbLine
 10
114.508280
 20
-24.303797
 30
0.0
 11
114.508280
 21
-38.273797
 31
0.0
  0
LINE
  5
163
100
AcDbEntity
  8
0
 62
7
100
AcDbLine
 10
114.508280
 20
-38.273797
 30
0.0
 11
100.538280
 21
-38.273797
 31
0.0
  0
LINE
  5
164
100
AcDbEntity
  8
0
 62
7
100
AcDbLine
 10
100.538280
 20
-38.273797
 30
0.0
 11
100.538280
 21
-24.303797
 31
0.0
  0
LINE
  5
165
100
AcDbEntity
  8
0
 62
7
100
AcDbLine
 10
100.538280
 20
-24.303797
 30
0.0
 11
114.508280
 21
-24.303797
 31
0.0
  0
LINE
  5
166
100
AcDbEntity
  8
0
 62
7
100
AcDbLine
 10
114.556540
 20
-5.294437
 30
0.0
 11
114.556540
 21
-19.264437
 31
0.0
  0
LINE
  5
167
100
AcDbEntity
  8
0
 62
7
100
AcDbLine
 10
114.556540
 20
-19.264437
 30
0.0
 11
100.586540
 21
-19.264437
 31
0.0
  0
LINE
  5
168
100
AcDbEntity
  8
0
 62
7
100
AcDbLine
 10
100.586540
 20
-19.264437
 30
0.0
 11
100.586540
 21
-5.294437
 31
0.0
  0
LINE
  5
169
100
AcDbEntity
  8
0
 62
7
100
AcDbLine
 10
100.586540
 20
-5.294437
 30
0.0
 11
114.556540
 21
-5.294437
 31
0.0
  0
LINE
  5
16a
100
AcDbEntity
  8
0
 62
7
100
AcDbLine
 10
47.566580
 20
-83.114957
 30
0.0
 11
44.541440
 21
-69.475157
 31
0.0
  0
LINE
  5
16b
100
AcDbEntity
  8
0
 62
7
100
AcDbLine
 10
44.541440
 20
-69.475157
 30
0.0
 11
58.181240
 21
-66.452557
 31
0.0
  0
LINE
  5
16c
100
AcDbEntity
  8
0
 62
7
100
AcDbLine
 10
58.181240
 20
-66.452557
 30
0.0
 11
61.203840
 21
-80.092357
 31
0.0
  0
LINE
  5
16d
100
AcDbEntity
  8
0
 62
7
100
AcDbLine
 10
61.203840
 20
-80.092357
 30
0.0
 11
47.566580
 21
-83.114957
 31
0.0
  0
LINE
  5
16e
100
AcDbEntity
  8
0
 62
7
100
AcDbLine
 10
133.629400
 20
-66.886897
 30
0.0
 11
119.659400
 21
-66.886897
 31
0.0
  0
LINE
  5
16f
100
AcDbEntity
  8
0
 62
7
100
AcDbLine
 10
119.659400
 20
-66.886897
 30
0.0
 11
119.659400
 21
-52.916897
 31
0.0
  0
LINE
  5
170
100
AcDbEntity
  8
0
 62
7
100
AcDbLine
 10
119.659400
 20
-52.916897
 30
0.0
 11
133.629400
 21
-52.916897
 31
0.0
  0
LINE
  5
171
100
AcDbEntity
  8
0
 62
7
100
AcDbLine
 10
133.629400
 20
-52.916897
 30
0.0
 11
133.629400
 21
-66.886897
 31
0.0
  0
LINE
  5
172
100
AcDbEntity
  8
0
 62
7
100
AcDbLine
 10
119.616220
 20
-33.882137
 30
0.0
 11
133.586220
 21
-33.882137
 31
0.0
  0
LINE
  5
173
100
AcDbEntity
  8
0
 62
7
100
AcDbLine
 10
133.586220
 20
-33.882137
 30
0.0
 11
133.586220
 21
-47.852137
 31
0.0
  0
LINE
  5
174
100
AcDbEntity
  8
0
 62
7
100
AcDbLine
 10
133.586220
 20
-47.852137
 30
0.0
 11
119.616220
 21
-47.852137
 31
0.0
  0
LINE
  5
175
100
AcDbEntity
  8
0
 62
7
100
AcDbLine
 10
119.616220
 20
-47.852137
 30
0.0
 11
119.616220
 21
-33.882137
 31
0.0
  0
LINE
  5
176
100
AcDbEntity
  8
0
 62
7
100
AcDbLine
 10
133.543040
 20
-14.847377
 30
0.0
 11
133.543040
 21
-28.817377
 31
0.0
  0
LINE
  5
177
100
AcDbEntity
  8
0
 62
7
100
AcDbLine
 10
133.543040
 20
-28.817377
 30
0.0
 11
119.573040
 21
-28.817377
 31
0.0
  0
LINE
  5
178
100
AcDbEntity
  8
0
 62
7
100
AcDbLine
 10
119.573040
 20
-28.817377
 30
0.0
 11
119.573040
 21
-14.847377
 31
0.0
  0
LINE
  5
179
100
AcDbEntity
  8
0
 62
7
100
AcDbLine
 10
119.573040
 20
-14.847377
 30
0.0
 11
133.543040
 21
-14.847377
 31
0.0
  0
LINE
  5
17a
100
AcDbEntity
  8
0
 62
7
100
AcDbLine
 10
37.498020
 20
-37.478777
 30
0.0
 11
19.718020
 21
-37.478777
 31
0.0
  0
LINE
  5
17b
100
AcDbEntity
  8
0
 62
7
100
AcDbLine
 10
19.718020
 20
-37.478777
 30
0.0
 11
19.718020
 21
-6.998777
 31
0.0
  0
LINE
  5
17c
100
AcDbEntity
  8
0
 62
7
100
AcDbLine
 10
19.718020
 20
-6.998777
 30
0.0
 11
24.798020
 21
-6.998777
 31
0.0
  0
LINE
  5
17d
100
AcDbEntity
  8
0
 62
7
100
AcDbLine
 10
24.798020
 20
-6.998777
 30
0.0
 11
24.798020
 21
-4.458777
 31
0.0
  0
LINE
  5
17e
100
AcDbEntity
  8
0
 62
7
100
AcDbLine
 10
24.798020
 20
-4.458777
 30
0.0
 11
32.418020
 21
-4.458777
 31
0.0
  0
LINE
  5
17f
100
AcDbEntity
  8
0
 62
7
100
AcDbLine
 10
32.418020
 20
-4.458777
 30
0.0
 11
32.418020
 21
-6.998777
 31
0.0
  0
LINE
  5
180
100
AcDbEntity
  8
0
 62
7
100
AcDbLine
 10
32.418020
 20
-6.998777
 30
0.0
 11
37.498020
 21
-6.998777
 31
0.0
  0
LINE
  5
181
100
AcDbEntity
  8
0
 62
7
100
AcDbLine
 10
37.498020
 20
-6.998777
 30
0.0
 11
37.498020
 21
-37.478777
 31
0.0
  0
LINE
  5
182
100
AcDbEntity
  8
0
 62
7
100
AcDbLine
 10
19.616420
 20
-6.732077
 30
0.0
 11
32.214820
 21
-6.732077
 31
0.0
  0
SPLINE
  5
183
100
AcDbEntity
  8
0
 62
7
100
AcDbSpline
 70
8
 71
3
 72
8
 73
4
 74
0
 40
0
 40
0
 40
0
 40
0
 40
1
 40
1
 40
1
 40
1
 10
10.615905
 20
-6.733144
 30
0.0
 10
10.196308
 20
-6.734211
 30
0.0
 10
9.855149
 20
-7.075370
 30
0.0
 10
9.853905
 20
-7.495144
 30
0.0
  0
LINE
  5
184
100
AcDbEntity
  8
0
 62
7
100
AcDbLine
 10
9.853905
 20
-7.495144
 30
0.0
 11
9.852660
 21
-78.398177
 31
0.0
  0
LINE
  5
185
100
AcDbEntity
  8
0
 62
7
100
AcDbLine
 10
9.852660
 20
-78.398177
 30
0.0
 11
9.853905
 21
-84.584093
 31
0.0
  0
SPLINE
  5
186
100
AcDbEntity
  8
0
 62
7
100
AcDbSpline
 70
8
 71
3
 72
8
 73
4
 74
0
 40
0
 40
0
 40
0
 40
0
 40
1
 40
1
 40
1
 40
1
 10
9.853905
 20
-84.584093
 30
0.0
 10
6.398930
 20
-87.258256
 30
0.0
 10
3.115631
 20
-90.147795
 30
0.0
 10
0.023931
 20
-93.235333
 30
0.0
  0
LINE
  5
187
100
AcDbEntity
  8
0
 62
7
100
AcDbLine
 10
0.023931
 20
-93.235333
 30
0.0
 11
0.040640
 21
-93.252097
 31
0.0
  0
LINE
  5
188
100
AcDbEntity
  8
0
 62
7
100
AcDbLine
 10
0.040640
 20
-93.252097
 30
0.0
 11
12.844805
 21
-107.054965
 31
0.0
  0
SPLINE
  5
189
100
AcDbEntity
  8
0
 62
7
100
AcDbSpline
 70
8
 71
3
 72
8
 73
4
 74
0
 40
0
 40
0
 40
0
 40
0
 40
1
 40
1
 40
1
 40
1
 10
12.844805
 20
-107.054965
 30
0.0
 10
13.463319
 20
-106.426945
 30
0.0
 10
14.091596
 20
-105.808125
 30
0.0
 10
14.729435
 20
-105.199241
 30
0.0
  0
SPLINE
  5
18a
100
AcDbEntity
  8
0
 62
7
100
AcDbSpline
 70
8
 71
3
 72
8
 73
4
 74
0
 40
0
 40
0
 40
0
 40
0
 40
1
 40
1
 40
1
 40
1
 10
14.729435
 20
-105.199241
 30
0.0
 10
27.921765
 20
-92.609040
 30
0.0
 10
44.830665
 20
-84.620837
 30
0.0
 10
62.934088
 20
-82.426109
 30
0.0
  0
SPLINE
  5
18b
100
AcDbEntity
  8
0
 62
7
100
AcDbSpline
 70
8
 71
3
 72
8
 73
4
 74
0
 40
0
 40
0
 40
0
 40
0
 40
1
 40
1
 40
1
 40
1
 10
62.934088
 20
-82.426109
 30
0.0
 10
63.354928
 20
-82.426109
 30
0.0
 10
63.696088
 20
-82.084949
 30
0.0
 10
63.695834
 20
-81.663093
 30
0.0
  0
LINE
  5
18c
100
AcDbEntity
  8
0
 62
7
100
AcDbLine
 10
63.695834
 20
-81.663093
 30
0.0
 11
63.695580
 21
-81.027077
 31
0.0
  0
LINE
  5
18d
100
AcDbEntity
  8
0
 62
7
100
AcDbLine
 10
63.695580
 20
-81.027077
 30
0.0
 11
63.695834
 21
-70.106093
 31
0.0
  0
SPLINE
  5
18e
100
AcDbEntity
  8
0
 62
7
100
AcDbSpline
 70
8
 71
3
 72
8
 73
4
 74
0
 40
0
 40
0
 40
0
 40
0
 40
1
 40
1
 40
1
 40
1
 10
63.695834
 20
-70.106093
 30
0.0
 10
63.696088
 20
-69.686269
 30
0.0
 10
64.037248
 20
-69.345109
 30
0.0
 10
64.457834
 20
-69.344093
 30
0.0
  0
LINE
  5
18f
100
AcDbEntity
  8
0
 62
7
100
AcDbLine
 10
64.457834
 20
-69.344093
 30
0.0
 11
74.505820
 21
-69.343077
 31
0.0
  0
LINE
  5
190
100
AcDbEntity
  8
0
 62
7
100
AcDbLine
 10
74.505820
 20
-69.343077
 30
0.0
 11
110.573820
 21
-69.343077
 31
0.0
  0
LINE
  5
191
100
AcDbEntity
  8
0
 62
7
100
AcDbLine
 10
110.573820
 20
-69.343077
 30
0.0
 11
135.338820
 21
-69.343077
 31
0.0
  0
LINE
  5
192
100
AcDbEntity
  8
0
 62
7
100
AcDbLine
 10
135.338820
 20
-69.343077
 30
0.0
 11
139.340209
 21
-69.344093
 31
0.0
  0
SPLINE
  5
193
100
AcDbEntity
  8
0
 62
7
100
AcDbSpline
 70
8
 71
3
 72
8
 73
4
 74
0
 40
0
 40
0
 40
0
 40
0
 40
1
 40
1
 40
1
 40
1
 10
139.340209
 20
-69.344093
 30
0.0
 10
139.761938
 20
-69.345109
 30
0.0
 10
140.103098
 20
-69.003949
 30
0.0
 10
140.102209
 20
-68.582093
 30
0.0
  0
LINE
  5
194
100
AcDbEntity
  8
0
 62
7
100
AcDbLine
 10
140.102209
 20
-68.582093
 30
0.0
 11
140.102209
 21
-13.210144
 31
0.0
  0
SPLINE
  5
195
100
AcDbEntity
  8
0
 62
7
100
AcDbSpline
 70
8
 71
3
 72
8
 73
4
 74
0
 40
0
 40
0
 40
0
 40
0
 40
1
 40
1
 40
1
 40
1
 10
140.102209
 20
-13.210144
 30
0.0
 10
140.103098
 20
-12.790370
 30
0.0
 10
139.761938
 20
-12.449211
 30
0.0
 10
139.340209
 20
-12.448144
 30
0.0
  0
LINE
  5
196
100
AcDbEntity
  8
0
 62
7
100
AcDbLine
 10
139.340209
 20
-12.448144
 30
0.0
 11
135.338820
 21
-12.447077
 31
0.0
  0
LINE
  5
197
100
AcDbEntity
  8
0
 62
7
100
AcDbLine
 10
135.338820
 20
-12.447077
 30
0.0
 11
134.576820
 21
-12.447077
 31
0.0
  0
LINE
  5
198
100
AcDbEntity
  8
0
 62
7
100
AcDbLine
 10
134.576820
 20
-12.447077
 30
0.0
 11
118.320820
 21
-12.447077
 31
0.0
  0
LINE
  5
199
100
AcDbEntity
  8
0
 62
7
100
AcDbLine
 10
118.320820
 20
-12.447077
 30
0.0
 11
117.686963
 21
-12.448144
 31
0.0
  0
SPLINE
  5
19a
100
AcDbEntity
  8
0
 62
7
100
AcDbSpline
 70
8
 71
3
 72
8
 73
4
 74
0
 40
0
 40
0
 40
0
 40
0
 40
1
 40
1
 40
1
 40
1
 10
117.686963
 20
-12.448144
 30
0.0
 10
117.267266
 20
-12.449211
 30
0.0
 10
116.926106
 20
-12.108051
 30
0.0
 10
116.924963
 20
-11.686144
 30
0.0
  0
LINE
  5
19b
100
AcDbEntity
  8
0
 62
7
100
AcDbLine
 10
116.924963
 20
-11.686144
 30
0.0
 11
116.924963
 21
-3.685144
 31
0.0
  0
SPLINE
  5
19c
100
AcDbEntity
  8
0
 62
7
100
AcDbSpline
 70
8
 71
3
 72
8
 73
4
 74
0
 40
0
 40
0
 40
0
 40
0
 40
1
 40
1
 40
1
 40
1
 10
116.924963
 20
-3.685144
 30
0.0
 10
116.926106
 20
-3.265370
 30
0.0
 10
116.584946
 20
-2.924211
 30
0.0
 10
116.162963
 20
-2.923144
 30
0.0
  0
LINE
  5
19d
100
AcDbEntity
  8
0
 62
7
100
AcDbLine
 10
116.162963
 20
-2.923144
 30
0.0
 11
98.763963
 21
-2.923144
 31
0.0
  0
SPLINE
  5
19e
100
AcDbEntity
  8
0
 62
7
100
AcDbSpline
 70
8
 71
3
 72
8
 73
4
 74
0
 40
0
 40
0
 40
0
 40
0
 40
1
 40
1
 40
1
 40
1
 10
98.763963
 20
-2.923144
 30
0.0
 10
98.344266
 20
-2.924211
 30
0.0
 10
98.003106
 20
-2.583051
 30
0.0
 10
98.001963
 20
-2.161144
 30
0.0
  0
LINE
  5
19f
100
AcDbEntity
  8
0
 62
7
100
AcDbLine
 10
98.001963
 20
-2.161144
 30
0.0
 11
98.001963
 21
0.251852
 31
0.0
  0
SPLINE
  5
1a0
100
AcDbEntity
  8
0
 62
7
100
AcDbSpline
 70
8
 71
3
 72
8
 73
4
 74
0
 40
0
 40
0
 40
0
 40
0
 40
1
 40
1
 40
1
 40
1
 10
98.001963
 20
0.251852
 30
0.0
 10
98.003106
 20
0.671623
 30
0.0
 10
97.661946
 20
1.012782
 30
0.0
 10
97.239963
 20
1.013853
 30
0.0
  0
LINE
  5
1a1
100
AcDbEntity
  8
0
 62
7
100
AcDbLine
 10
97.239963
 20
1.013853
 30
0.0
 11
79.840963
 21
1.013853
 31
0.0
  0
SPLINE
  5
1a2
100
AcDbEntity
  8
0
 62
7
100
AcDbSpline
 70
8
 71
3
 72
8
 73
4
 74
0
 40
0
 40
0
 40
0
 40
0
 40
1
 40
1
 40
1
 40
1
 10
79.840963
 20
1.013853
 30
0.0
 10
79.421266
 20
1.012782
 30
0.0
 10
79.080106
 20
0.671623
 30
0.0
 10
79.078963
 20
0.251852
 30
0.0
  0
LINE
  5
1a3
100
AcDbEntity
  8
0
 62
7
100
AcDbLine
 10
79.078963
 20
0.251852
 30
0.0
 11
79.078963
 21
-3.939144
 31
0.0
  0
SPLINE
  5
1a4
100
AcDbEntity
  8
0
 62
7
100
AcDbSpline
 70
8
 71
3
 72
8
 73
4
 74
0
 40
0
 40
0
 40
0
 40
0
 40
1
 40
1
 40
1
 40
1
 10
79.078963
 20
-3.939144
 30
0.0
 10
79.080106
 20
-4.361051
 30
0.0
 10
78.738946
 20
-4.702211
 30
0.0
 10
78.316963
 20
-4.701144
 30
0.0
  0
LINE
  5
1a5
100
AcDbEntity
  8
0
 62
7
100
AcDbLine
 10
78.316963
 20
-4.701144
 30
0.0
 11
60.790963
 21
-4.701144
 31
0.0
  0
SPLINE
  5
1a6
100
AcDbEntity
  8
0
 62
7
100
AcDbSpline
 70
8
 71
3
 72
8
 73
4
 74
0
 40
0
 40
0
 40
0
 40
0
 40
1
 40
1
 40
1
 40
1
 10
60.790963
 20
-4.701144
 30
0.0
 10
60.371266
 20
-4.702211
 30
0.0
 10
60.030106
 20
-5.043370
 30
0.0
 10
60.028963
 20
-5.463144
 30
0.0
  0
LINE
  5
1a7
100
AcDbEntity
  8
0
 62
7
100
AcDbLine
 10
60.028963
 20
-5.463144
 30
0.0
 11
60.028963
 21
-5.971144
 31
0.0
  0
SPLINE
  5
1a8
100
AcDbEntity
  8
0
 62
7
100
AcDbSpline
 70
8
 71
3
 72
8
 73
4
 74
0
 40
0
 40
0
 40
0
 40
0
 40
1
 40
1
 40
1
 40
1
 10
60.028963
 20
-5.971144
 30
0.0
 10
60.030106
 20
-6.393051
 30
0.0
 10
59.688946
 20
-6.734211
 30
0.0
 10
59.266963
 20
-6.733144
 30
0.0
  0
LINE
  5
1a9
100
AcDbEntity
  8
0
 62
7
100
AcDbLine
 10
59.266963
 20
-6.733144
 30
0.0
 11
25.915620
 21
-6.732077
 31
0.0
  0
LINE
  5
1aa
100
AcDbEntity
  8
0
 62
7
100
AcDbLine
 10
25.915620
 20
-6.732077
 30
0.0
 11
10.615905
 21
-6.733144
 31
0.0
  0
ENDSEC
  0
SECTION
  2
OBJECTS
  0
DICTIONARY
  5
C
330
0
100
AcDbDictionary
  3
ACAD_GROUP
350
D
  3
ACAD_MLINESTYLE
350
17
  0
DICTIONARY
  5
D
330
C
100
AcDbDictionary
  0
DICTIONARY
  5
1A
330
C
100
AcDbDictionary
  0
DICTIONARY
  5
17
330
C
100
AcDbDictionary
  3
STANDARD
350
18
  0
DICTIONARY
  5
19
330
C
100
AcDbDictionary
  0
ENDSEC
  0
EOF
