%TF.GenerationSoftware,KiCad,Pcbnew,(5.1.7)-1*%
%TF.CreationDate,2021-07-26T00:39:18+05:30*%
%TF.ProjectId,Pteron36v0,50746572-6f6e-4333-9676-302e6b696361,rev?*%
%TF.SameCoordinates,Original*%
%TF.FileFunction,Legend,Top*%
%TF.FilePolarity,Positive*%
%FSLAX46Y46*%
G04 Gerber Fmt 4.6, Leading zero omitted, Abs format (unit mm)*
G04 Created by KiCad (PCBNEW (5.1.7)-1) date 2021-07-26 00:39:18*
%MOMM*%
%LPD*%
G01*
G04 APERTURE LIST*
%ADD10C,0.125000*%
%ADD11C,0.150000*%
G04 APERTURE END LIST*
D10*
X114246444Y-66256996D02*
X114746444Y-66090330D01*
X114246444Y-65923663D01*
X114698825Y-65471282D02*
X114722634Y-65495091D01*
X114746444Y-65566520D01*
X114746444Y-65614139D01*
X114722634Y-65685568D01*
X114675015Y-65733187D01*
X114627396Y-65756996D01*
X114532158Y-65780806D01*
X114460730Y-65780806D01*
X114365492Y-65756996D01*
X114317873Y-65733187D01*
X114270254Y-65685568D01*
X114246444Y-65614139D01*
X114246444Y-65566520D01*
X114270254Y-65495091D01*
X114294063Y-65471282D01*
X114698825Y-64971282D02*
X114722634Y-64995091D01*
X114746444Y-65066520D01*
X114746444Y-65114139D01*
X114722634Y-65185568D01*
X114675015Y-65233187D01*
X114627396Y-65256996D01*
X114532158Y-65280806D01*
X114460730Y-65280806D01*
X114365492Y-65256996D01*
X114317873Y-65233187D01*
X114270254Y-65185568D01*
X114246444Y-65114139D01*
X114246444Y-65066520D01*
X114270254Y-64995091D01*
X114294063Y-64971282D01*
X114167063Y-62220950D02*
X114667063Y-62220950D01*
X114667063Y-62411426D01*
X114643254Y-62459045D01*
X114619444Y-62482854D01*
X114571825Y-62506664D01*
X114500396Y-62506664D01*
X114452777Y-62482854D01*
X114428968Y-62459045D01*
X114405158Y-62411426D01*
X114405158Y-62220950D01*
X114667063Y-62673331D02*
X114167063Y-62792378D01*
X114524206Y-62887616D01*
X114167063Y-62982854D01*
X114667063Y-63101902D01*
X114167063Y-63292378D02*
X114667063Y-63292378D01*
X114309920Y-63459045D01*
X114667063Y-63625711D01*
X114167063Y-63625711D01*
X114143255Y-60764282D02*
X114119445Y-60811901D01*
X114119445Y-60883330D01*
X114143255Y-60954758D01*
X114190874Y-61002377D01*
X114238493Y-61026187D01*
X114333731Y-61049996D01*
X114405159Y-61049996D01*
X114500397Y-61026187D01*
X114548016Y-61002377D01*
X114595635Y-60954758D01*
X114619445Y-60883330D01*
X114619445Y-60835710D01*
X114595635Y-60764282D01*
X114571826Y-60740472D01*
X114405159Y-60740472D01*
X114405159Y-60835710D01*
X114619445Y-60526187D02*
X114119445Y-60526187D01*
X114619445Y-60240472D01*
X114119445Y-60240472D01*
X114619445Y-60002377D02*
X114119445Y-60002377D01*
X114119445Y-59883330D01*
X114143255Y-59811901D01*
X114190874Y-59764282D01*
X114238493Y-59740472D01*
X114333731Y-59716663D01*
X114405159Y-59716663D01*
X114500397Y-59740472D01*
X114548016Y-59764282D01*
X114595635Y-59811901D01*
X114619445Y-59883330D01*
X114619445Y-60002377D01*
%TO.C,RE1*%
D11*
X89396206Y-96902710D02*
X89062873Y-96426520D01*
X88824777Y-96902710D02*
X88824777Y-95902710D01*
X89205730Y-95902710D01*
X89300968Y-95950330D01*
X89348587Y-95997949D01*
X89396206Y-96093187D01*
X89396206Y-96236044D01*
X89348587Y-96331282D01*
X89300968Y-96378901D01*
X89205730Y-96426520D01*
X88824777Y-96426520D01*
X89824777Y-96378901D02*
X90158111Y-96378901D01*
X90300968Y-96902710D02*
X89824777Y-96902710D01*
X89824777Y-95902710D01*
X90300968Y-95902710D01*
X91253349Y-96902710D02*
X90681920Y-96902710D01*
X90967634Y-96902710D02*
X90967634Y-95902710D01*
X90872396Y-96045568D01*
X90777158Y-96140806D01*
X90681920Y-96188425D01*
%TD*%
M02*
