%TF.GenerationSoftware,KiCad,Pcbnew,(5.1.7)-1*%
%TF.CreationDate,2021-07-26T00:39:18+05:30*%
%TF.ProjectId,Pteron36v0,50746572-6f6e-4333-9676-302e6b696361,rev?*%
%TF.SameCoordinates,Original*%
%TF.FileFunction,Legend,Bot*%
%TF.FilePolarity,Positive*%
%FSLAX46Y46*%
G04 Gerber Fmt 4.6, Leading zero omitted, Abs format (unit mm)*
G04 Created by KiCad (PCBNEW (5.1.7)-1) date 2021-07-26 00:39:18*
%MOMM*%
%LPD*%
G01*
G04 APERTURE LIST*
%ADD10C,0.125000*%
G04 APERTURE END LIST*
D10*
X114794064Y-66129996D02*
X114294064Y-65963330D01*
X114794064Y-65796663D01*
X114341683Y-65344282D02*
X114317874Y-65368091D01*
X114294064Y-65439520D01*
X114294064Y-65487139D01*
X114317874Y-65558568D01*
X114365493Y-65606187D01*
X114413112Y-65629996D01*
X114508350Y-65653806D01*
X114579778Y-65653806D01*
X114675016Y-65629996D01*
X114722635Y-65606187D01*
X114770255Y-65558568D01*
X114794064Y-65487139D01*
X114794064Y-65439520D01*
X114770255Y-65368091D01*
X114746445Y-65344282D01*
X114341683Y-64844282D02*
X114317874Y-64868091D01*
X114294064Y-64939520D01*
X114294064Y-64987139D01*
X114317874Y-65058568D01*
X114365493Y-65106187D01*
X114413112Y-65129996D01*
X114508350Y-65153806D01*
X114579778Y-65153806D01*
X114675016Y-65129996D01*
X114722635Y-65106187D01*
X114770255Y-65058568D01*
X114794064Y-64987139D01*
X114794064Y-64939520D01*
X114770255Y-64868091D01*
X114746445Y-64844282D01*
X114167063Y-63498710D02*
X114667063Y-63498710D01*
X114667063Y-63308234D01*
X114643254Y-63260615D01*
X114619444Y-63236806D01*
X114571825Y-63212996D01*
X114500396Y-63212996D01*
X114452777Y-63236806D01*
X114428968Y-63260615D01*
X114405158Y-63308234D01*
X114405158Y-63498710D01*
X114667063Y-63046330D02*
X114167063Y-62927282D01*
X114524206Y-62832044D01*
X114167063Y-62736806D01*
X114667063Y-62617758D01*
X114167063Y-62427282D02*
X114667063Y-62427282D01*
X114309920Y-62260615D01*
X114667063Y-62093949D01*
X114167063Y-62093949D01*
X114643254Y-61018282D02*
X114667063Y-61065901D01*
X114667063Y-61137330D01*
X114643254Y-61208758D01*
X114595634Y-61256377D01*
X114548015Y-61280187D01*
X114452777Y-61303996D01*
X114381349Y-61303996D01*
X114286111Y-61280187D01*
X114238492Y-61256377D01*
X114190873Y-61208758D01*
X114167063Y-61137330D01*
X114167063Y-61089710D01*
X114190873Y-61018282D01*
X114214682Y-60994472D01*
X114381349Y-60994472D01*
X114381349Y-61089710D01*
X114167063Y-60780187D02*
X114667063Y-60780187D01*
X114167063Y-60494472D01*
X114667063Y-60494472D01*
X114167063Y-60256377D02*
X114667063Y-60256377D01*
X114667063Y-60137330D01*
X114643254Y-60065901D01*
X114595634Y-60018282D01*
X114548015Y-59994472D01*
X114452777Y-59970663D01*
X114381349Y-59970663D01*
X114286111Y-59994472D01*
X114238492Y-60018282D01*
X114190873Y-60065901D01*
X114167063Y-60137330D01*
X114167063Y-60256377D01*
M02*
