%TF.GenerationSoftware,KiCad,Pcbnew,(5.1.7)-1*%
%TF.CreationDate,2021-04-13T17:15:28+05:30*%
%TF.ProjectId,Pteron56v0,50746572-6f6e-4353-9676-302e6b696361,rev?*%
%TF.SameCoordinates,Original*%
%TF.FileFunction,Profile,NP*%
%FSLAX46Y46*%
G04 Gerber Fmt 4.6, Leading zero omitted, Abs format (unit mm)*
G04 Created by KiCad (PCBNEW (5.1.7)-1) date 2021-04-13 17:15:28*
%MOMM*%
%LPD*%
G01*
G04 APERTURE LIST*
%TA.AperFunction,Profile*%
%ADD10C,0.050000*%
%TD*%
%TA.AperFunction,Profile*%
%ADD11C,0.100000*%
%TD*%
G04 APERTURE END LIST*
D10*
X206375000Y-106299000D02*
X210375000Y-106299000D01*
X206375000Y-49403000D02*
X210375000Y-49403000D01*
X71076237Y-130207471D02*
X83878669Y-144009293D01*
X71076237Y-130207471D02*
G75*
G02*
X89889001Y-115354101I73030663J-73157629D01*
G01*
X89889000Y-44450000D02*
X89889000Y-115354100D01*
X90651000Y-43688000D02*
X103251000Y-43688000D01*
X211137000Y-50165000D02*
X211137000Y-105537000D01*
X83878669Y-144009292D02*
G75*
G02*
X85763282Y-142153111I60291731J-59330408D01*
G01*
X169037000Y-36703000D02*
X169037000Y-39116000D01*
X134730000Y-118618000D02*
X134730000Y-117983000D01*
X85763281Y-142153110D02*
G75*
G02*
X133968001Y-119380001I58381719J-61173890D01*
G01*
X135492000Y-106299000D02*
X145542000Y-106299000D01*
X181610000Y-106299000D02*
X206375000Y-106299000D01*
X205613000Y-49403000D02*
X206375000Y-49403000D01*
X210375000Y-49403000D02*
G75*
G02*
X211137000Y-50165000I0J-762000D01*
G01*
X211137000Y-105537000D02*
G75*
G02*
X210375000Y-106299000I-762000J0D01*
G01*
X145542000Y-106299000D02*
X181610000Y-106299000D01*
X134730000Y-107061000D02*
X134730000Y-117983000D01*
X134730000Y-107061000D02*
G75*
G02*
X135492000Y-106299000I762000J0D01*
G01*
X134730000Y-118618000D02*
G75*
G02*
X133968000Y-119380000I-762000J0D01*
G01*
X89889000Y-44450000D02*
G75*
G02*
X90651000Y-43688000I762000J0D01*
G01*
X130302000Y-43688000D02*
X103251000Y-43688000D01*
X150114000Y-40894000D02*
X150114000Y-36703000D01*
X131826000Y-41656000D02*
X149352000Y-41656000D01*
X131064000Y-42418000D02*
X131064000Y-42926000D01*
X131064000Y-42926000D02*
G75*
G02*
X130302000Y-43688000I-762000J0D01*
G01*
X131064000Y-42418000D02*
G75*
G02*
X131826000Y-41656000I762000J0D01*
G01*
X150114000Y-40894000D02*
G75*
G02*
X149352000Y-41656000I-762000J0D01*
G01*
X150114000Y-36703000D02*
G75*
G02*
X150876000Y-35941000I762000J0D01*
G01*
X168275000Y-35941000D02*
X150876000Y-35941000D01*
X168275000Y-35941000D02*
G75*
G02*
X169037000Y-36703000I0J-762000D01*
G01*
X169799000Y-39878000D02*
G75*
G02*
X169037000Y-39116000I0J762000D01*
G01*
X187198000Y-39878000D02*
X169799000Y-39878000D01*
X187198000Y-39878000D02*
G75*
G02*
X187960000Y-40640000I0J-762000D01*
G01*
X187960000Y-48641000D02*
X187960000Y-40640000D01*
X188722000Y-49403000D02*
X189357000Y-49403000D01*
X188722000Y-49403000D02*
G75*
G02*
X187960000Y-48641000I0J762000D01*
G01*
X205613000Y-49403000D02*
X189357000Y-49403000D01*
D11*
%TO.C,SW28*%
X113457254Y-85485035D02*
G75*
G02*
X113757254Y-85185035I300000J0D01*
G01*
X113457254Y-94385035D02*
G75*
G02*
X113757254Y-94085035I300000J0D01*
G01*
X129457254Y-96885035D02*
G75*
G02*
X129157254Y-97185035I-300000J0D01*
G01*
X129457254Y-87985035D02*
G75*
G02*
X129157254Y-88285035I-300000J0D01*
G01*
X113757254Y-88285035D02*
G75*
G02*
X113457254Y-87985035I0J300000D01*
G01*
X114157254Y-88285035D02*
G75*
G02*
X114457254Y-88585035I0J-300000D01*
G01*
X114457254Y-84885035D02*
G75*
G02*
X114157254Y-85185035I-300000J0D01*
G01*
X114157254Y-97185035D02*
G75*
G02*
X114457254Y-97485035I0J-300000D01*
G01*
X113757254Y-97185035D02*
G75*
G02*
X113457254Y-96885035I0J300000D01*
G01*
X114457254Y-93785035D02*
G75*
G02*
X114157254Y-94085035I-300000J0D01*
G01*
X128457254Y-97485035D02*
G75*
G02*
X128757254Y-97185035I300000J0D01*
G01*
X129157254Y-94085035D02*
G75*
G02*
X129457254Y-94385035I0J-300000D01*
G01*
X128757254Y-94085035D02*
G75*
G02*
X128457254Y-93785035I0J300000D01*
G01*
X129157254Y-85185035D02*
G75*
G02*
X129457254Y-85485035I0J-300000D01*
G01*
X128757254Y-85185035D02*
G75*
G02*
X128457254Y-84885035I0J300000D01*
G01*
X128457254Y-97885035D02*
G75*
G02*
X128157254Y-98185035I-300000J0D01*
G01*
X128457254Y-88585035D02*
G75*
G02*
X128757254Y-88285035I300000J0D01*
G01*
X128157254Y-84185035D02*
G75*
G02*
X128457254Y-84485035I0J-300000D01*
G01*
X114457254Y-84485035D02*
G75*
G02*
X114757254Y-84185035I300000J0D01*
G01*
X114757254Y-98185035D02*
G75*
G02*
X114457254Y-97885035I0J300000D01*
G01*
X128157254Y-98185035D02*
X114757254Y-98185035D01*
X114457254Y-97885035D02*
X114457254Y-97485035D01*
X128157254Y-84185035D02*
X114757254Y-84185035D01*
X114457254Y-88585035D02*
X114457254Y-93785035D01*
X114457254Y-84885035D02*
X114457254Y-84485035D01*
X128457254Y-97485035D02*
X128457254Y-97885035D01*
X128757254Y-85185035D02*
X129157254Y-85185035D01*
X129457254Y-87985035D02*
X129457254Y-85485035D01*
X129157254Y-88285035D02*
X128757254Y-88285035D01*
X128457254Y-93785035D02*
X128457254Y-88585035D01*
X128457254Y-84485035D02*
X128457254Y-84885035D01*
X129157254Y-97185035D02*
X128757254Y-97185035D01*
X129457254Y-96885035D02*
X129457254Y-94385035D01*
X128757254Y-94085035D02*
X129157254Y-94085035D01*
X114157254Y-97185035D02*
X113757254Y-97185035D01*
X113457254Y-94385035D02*
X113457254Y-96885035D01*
X113757254Y-94085035D02*
X114157254Y-94085035D01*
X113757254Y-85185035D02*
X114157254Y-85185035D01*
X114157254Y-88285035D02*
X113757254Y-88285035D01*
X113457254Y-85485035D02*
X113457254Y-87985035D01*
%TO.C,SW27*%
X113437875Y-66359585D02*
G75*
G02*
X113737875Y-66059585I300000J0D01*
G01*
X113437875Y-75259585D02*
G75*
G02*
X113737875Y-74959585I300000J0D01*
G01*
X129437875Y-77759585D02*
G75*
G02*
X129137875Y-78059585I-300000J0D01*
G01*
X129437875Y-68859585D02*
G75*
G02*
X129137875Y-69159585I-300000J0D01*
G01*
X113737875Y-69159585D02*
G75*
G02*
X113437875Y-68859585I0J300000D01*
G01*
X114137875Y-69159585D02*
G75*
G02*
X114437875Y-69459585I0J-300000D01*
G01*
X114437875Y-65759585D02*
G75*
G02*
X114137875Y-66059585I-300000J0D01*
G01*
X114137875Y-78059585D02*
G75*
G02*
X114437875Y-78359585I0J-300000D01*
G01*
X113737875Y-78059585D02*
G75*
G02*
X113437875Y-77759585I0J300000D01*
G01*
X114437875Y-74659585D02*
G75*
G02*
X114137875Y-74959585I-300000J0D01*
G01*
X128437875Y-78359585D02*
G75*
G02*
X128737875Y-78059585I300000J0D01*
G01*
X129137875Y-74959585D02*
G75*
G02*
X129437875Y-75259585I0J-300000D01*
G01*
X128737875Y-74959585D02*
G75*
G02*
X128437875Y-74659585I0J300000D01*
G01*
X129137875Y-66059585D02*
G75*
G02*
X129437875Y-66359585I0J-300000D01*
G01*
X128737875Y-66059585D02*
G75*
G02*
X128437875Y-65759585I0J300000D01*
G01*
X128437875Y-78759585D02*
G75*
G02*
X128137875Y-79059585I-300000J0D01*
G01*
X128437875Y-69459585D02*
G75*
G02*
X128737875Y-69159585I300000J0D01*
G01*
X128137875Y-65059585D02*
G75*
G02*
X128437875Y-65359585I0J-300000D01*
G01*
X114437875Y-65359585D02*
G75*
G02*
X114737875Y-65059585I300000J0D01*
G01*
X114737875Y-79059585D02*
G75*
G02*
X114437875Y-78759585I0J300000D01*
G01*
X128137875Y-79059585D02*
X114737875Y-79059585D01*
X114437875Y-78759585D02*
X114437875Y-78359585D01*
X128137875Y-65059585D02*
X114737875Y-65059585D01*
X114437875Y-69459585D02*
X114437875Y-74659585D01*
X114437875Y-65759585D02*
X114437875Y-65359585D01*
X128437875Y-78359585D02*
X128437875Y-78759585D01*
X128737875Y-66059585D02*
X129137875Y-66059585D01*
X129437875Y-68859585D02*
X129437875Y-66359585D01*
X129137875Y-69159585D02*
X128737875Y-69159585D01*
X128437875Y-74659585D02*
X128437875Y-69459585D01*
X128437875Y-65359585D02*
X128437875Y-65759585D01*
X129137875Y-78059585D02*
X128737875Y-78059585D01*
X129437875Y-77759585D02*
X129437875Y-75259585D01*
X128737875Y-74959585D02*
X129137875Y-74959585D01*
X114137875Y-78059585D02*
X113737875Y-78059585D01*
X113437875Y-75259585D02*
X113437875Y-77759585D01*
X113737875Y-74959585D02*
X114137875Y-74959585D01*
X113737875Y-66059585D02*
X114137875Y-66059585D01*
X114137875Y-69159585D02*
X113737875Y-69159585D01*
X113437875Y-66359585D02*
X113437875Y-68859585D01*
%TO.C,SW26*%
X113394232Y-47324690D02*
G75*
G02*
X113694232Y-47024690I300000J0D01*
G01*
X113394232Y-56224690D02*
G75*
G02*
X113694232Y-55924690I300000J0D01*
G01*
X129394232Y-58724690D02*
G75*
G02*
X129094232Y-59024690I-300000J0D01*
G01*
X129394232Y-49824690D02*
G75*
G02*
X129094232Y-50124690I-300000J0D01*
G01*
X113694232Y-50124690D02*
G75*
G02*
X113394232Y-49824690I0J300000D01*
G01*
X114094232Y-50124690D02*
G75*
G02*
X114394232Y-50424690I0J-300000D01*
G01*
X114394232Y-46724690D02*
G75*
G02*
X114094232Y-47024690I-300000J0D01*
G01*
X114094232Y-59024690D02*
G75*
G02*
X114394232Y-59324690I0J-300000D01*
G01*
X113694232Y-59024690D02*
G75*
G02*
X113394232Y-58724690I0J300000D01*
G01*
X114394232Y-55624690D02*
G75*
G02*
X114094232Y-55924690I-300000J0D01*
G01*
X128394232Y-59324690D02*
G75*
G02*
X128694232Y-59024690I300000J0D01*
G01*
X129094232Y-55924690D02*
G75*
G02*
X129394232Y-56224690I0J-300000D01*
G01*
X128694232Y-55924690D02*
G75*
G02*
X128394232Y-55624690I0J300000D01*
G01*
X129094232Y-47024690D02*
G75*
G02*
X129394232Y-47324690I0J-300000D01*
G01*
X128694232Y-47024690D02*
G75*
G02*
X128394232Y-46724690I0J300000D01*
G01*
X128394232Y-59724690D02*
G75*
G02*
X128094232Y-60024690I-300000J0D01*
G01*
X128394232Y-50424690D02*
G75*
G02*
X128694232Y-50124690I300000J0D01*
G01*
X128094232Y-46024690D02*
G75*
G02*
X128394232Y-46324690I0J-300000D01*
G01*
X114394232Y-46324690D02*
G75*
G02*
X114694232Y-46024690I300000J0D01*
G01*
X114694232Y-60024690D02*
G75*
G02*
X114394232Y-59724690I0J300000D01*
G01*
X128094232Y-60024690D02*
X114694232Y-60024690D01*
X114394232Y-59724690D02*
X114394232Y-59324690D01*
X128094232Y-46024690D02*
X114694232Y-46024690D01*
X114394232Y-50424690D02*
X114394232Y-55624690D01*
X114394232Y-46724690D02*
X114394232Y-46324690D01*
X128394232Y-59324690D02*
X128394232Y-59724690D01*
X128694232Y-47024690D02*
X129094232Y-47024690D01*
X129394232Y-49824690D02*
X129394232Y-47324690D01*
X129094232Y-50124690D02*
X128694232Y-50124690D01*
X128394232Y-55624690D02*
X128394232Y-50424690D01*
X128394232Y-46324690D02*
X128394232Y-46724690D01*
X129094232Y-59024690D02*
X128694232Y-59024690D01*
X129394232Y-58724690D02*
X129394232Y-56224690D01*
X128694232Y-55924690D02*
X129094232Y-55924690D01*
X114094232Y-59024690D02*
X113694232Y-59024690D01*
X113394232Y-56224690D02*
X113394232Y-58724690D01*
X113694232Y-55924690D02*
X114094232Y-55924690D01*
X113694232Y-47024690D02*
X114094232Y-47024690D01*
X114094232Y-50124690D02*
X113694232Y-50124690D01*
X113394232Y-47324690D02*
X113394232Y-49824690D01*
%TO.C,SW24*%
X132524659Y-83508960D02*
G75*
G02*
X132824659Y-83208960I300000J0D01*
G01*
X132524659Y-92408960D02*
G75*
G02*
X132824659Y-92108960I300000J0D01*
G01*
X148524659Y-94908960D02*
G75*
G02*
X148224659Y-95208960I-300000J0D01*
G01*
X148524659Y-86008960D02*
G75*
G02*
X148224659Y-86308960I-300000J0D01*
G01*
X132824659Y-86308960D02*
G75*
G02*
X132524659Y-86008960I0J300000D01*
G01*
X133224659Y-86308960D02*
G75*
G02*
X133524659Y-86608960I0J-300000D01*
G01*
X133524659Y-82908960D02*
G75*
G02*
X133224659Y-83208960I-300000J0D01*
G01*
X133224659Y-95208960D02*
G75*
G02*
X133524659Y-95508960I0J-300000D01*
G01*
X132824659Y-95208960D02*
G75*
G02*
X132524659Y-94908960I0J300000D01*
G01*
X133524659Y-91808960D02*
G75*
G02*
X133224659Y-92108960I-300000J0D01*
G01*
X147524659Y-95508960D02*
G75*
G02*
X147824659Y-95208960I300000J0D01*
G01*
X148224659Y-92108960D02*
G75*
G02*
X148524659Y-92408960I0J-300000D01*
G01*
X147824659Y-92108960D02*
G75*
G02*
X147524659Y-91808960I0J300000D01*
G01*
X148224659Y-83208960D02*
G75*
G02*
X148524659Y-83508960I0J-300000D01*
G01*
X147824659Y-83208960D02*
G75*
G02*
X147524659Y-82908960I0J300000D01*
G01*
X147524659Y-95908960D02*
G75*
G02*
X147224659Y-96208960I-300000J0D01*
G01*
X147524659Y-86608960D02*
G75*
G02*
X147824659Y-86308960I300000J0D01*
G01*
X147224659Y-82208960D02*
G75*
G02*
X147524659Y-82508960I0J-300000D01*
G01*
X133524659Y-82508960D02*
G75*
G02*
X133824659Y-82208960I300000J0D01*
G01*
X133824659Y-96208960D02*
G75*
G02*
X133524659Y-95908960I0J300000D01*
G01*
X147224659Y-96208960D02*
X133824659Y-96208960D01*
X133524659Y-95908960D02*
X133524659Y-95508960D01*
X147224659Y-82208960D02*
X133824659Y-82208960D01*
X133524659Y-86608960D02*
X133524659Y-91808960D01*
X133524659Y-82908960D02*
X133524659Y-82508960D01*
X147524659Y-95508960D02*
X147524659Y-95908960D01*
X147824659Y-83208960D02*
X148224659Y-83208960D01*
X148524659Y-86008960D02*
X148524659Y-83508960D01*
X148224659Y-86308960D02*
X147824659Y-86308960D01*
X147524659Y-91808960D02*
X147524659Y-86608960D01*
X147524659Y-82508960D02*
X147524659Y-82908960D01*
X148224659Y-95208960D02*
X147824659Y-95208960D01*
X148524659Y-94908960D02*
X148524659Y-92408960D01*
X147824659Y-92108960D02*
X148224659Y-92108960D01*
X133224659Y-95208960D02*
X132824659Y-95208960D01*
X132524659Y-92408960D02*
X132524659Y-94908960D01*
X132824659Y-92108960D02*
X133224659Y-92108960D01*
X132824659Y-83208960D02*
X133224659Y-83208960D01*
X133224659Y-86308960D02*
X132824659Y-86308960D01*
X132524659Y-83508960D02*
X132524659Y-86008960D01*
%TO.C,SW23*%
X132481015Y-64474064D02*
G75*
G02*
X132781015Y-64174064I300000J0D01*
G01*
X132481015Y-73374064D02*
G75*
G02*
X132781015Y-73074064I300000J0D01*
G01*
X148481015Y-75874064D02*
G75*
G02*
X148181015Y-76174064I-300000J0D01*
G01*
X148481015Y-66974064D02*
G75*
G02*
X148181015Y-67274064I-300000J0D01*
G01*
X132781015Y-67274064D02*
G75*
G02*
X132481015Y-66974064I0J300000D01*
G01*
X133181015Y-67274064D02*
G75*
G02*
X133481015Y-67574064I0J-300000D01*
G01*
X133481015Y-63874064D02*
G75*
G02*
X133181015Y-64174064I-300000J0D01*
G01*
X133181015Y-76174064D02*
G75*
G02*
X133481015Y-76474064I0J-300000D01*
G01*
X132781015Y-76174064D02*
G75*
G02*
X132481015Y-75874064I0J300000D01*
G01*
X133481015Y-72774064D02*
G75*
G02*
X133181015Y-73074064I-300000J0D01*
G01*
X147481015Y-76474064D02*
G75*
G02*
X147781015Y-76174064I300000J0D01*
G01*
X148181015Y-73074064D02*
G75*
G02*
X148481015Y-73374064I0J-300000D01*
G01*
X147781015Y-73074064D02*
G75*
G02*
X147481015Y-72774064I0J300000D01*
G01*
X148181015Y-64174064D02*
G75*
G02*
X148481015Y-64474064I0J-300000D01*
G01*
X147781015Y-64174064D02*
G75*
G02*
X147481015Y-63874064I0J300000D01*
G01*
X147481015Y-76874064D02*
G75*
G02*
X147181015Y-77174064I-300000J0D01*
G01*
X147481015Y-67574064D02*
G75*
G02*
X147781015Y-67274064I300000J0D01*
G01*
X147181015Y-63174064D02*
G75*
G02*
X147481015Y-63474064I0J-300000D01*
G01*
X133481015Y-63474064D02*
G75*
G02*
X133781015Y-63174064I300000J0D01*
G01*
X133781015Y-77174064D02*
G75*
G02*
X133481015Y-76874064I0J300000D01*
G01*
X147181015Y-77174064D02*
X133781015Y-77174064D01*
X133481015Y-76874064D02*
X133481015Y-76474064D01*
X147181015Y-63174064D02*
X133781015Y-63174064D01*
X133481015Y-67574064D02*
X133481015Y-72774064D01*
X133481015Y-63874064D02*
X133481015Y-63474064D01*
X147481015Y-76474064D02*
X147481015Y-76874064D01*
X147781015Y-64174064D02*
X148181015Y-64174064D01*
X148481015Y-66974064D02*
X148481015Y-64474064D01*
X148181015Y-67274064D02*
X147781015Y-67274064D01*
X147481015Y-72774064D02*
X147481015Y-67574064D01*
X147481015Y-63474064D02*
X147481015Y-63874064D01*
X148181015Y-76174064D02*
X147781015Y-76174064D01*
X148481015Y-75874064D02*
X148481015Y-73374064D01*
X147781015Y-73074064D02*
X148181015Y-73074064D01*
X133181015Y-76174064D02*
X132781015Y-76174064D01*
X132481015Y-73374064D02*
X132481015Y-75874064D01*
X132781015Y-73074064D02*
X133181015Y-73074064D01*
X132781015Y-64174064D02*
X133181015Y-64174064D01*
X133181015Y-67274064D02*
X132781015Y-67274064D01*
X132481015Y-64474064D02*
X132481015Y-66974064D01*
%TO.C,SW22*%
X132527926Y-45463438D02*
G75*
G02*
X132827926Y-45163438I300000J0D01*
G01*
X132527926Y-54363438D02*
G75*
G02*
X132827926Y-54063438I300000J0D01*
G01*
X148527926Y-56863438D02*
G75*
G02*
X148227926Y-57163438I-300000J0D01*
G01*
X148527926Y-47963438D02*
G75*
G02*
X148227926Y-48263438I-300000J0D01*
G01*
X132827926Y-48263438D02*
G75*
G02*
X132527926Y-47963438I0J300000D01*
G01*
X133227926Y-48263438D02*
G75*
G02*
X133527926Y-48563438I0J-300000D01*
G01*
X133527926Y-44863438D02*
G75*
G02*
X133227926Y-45163438I-300000J0D01*
G01*
X133227926Y-57163438D02*
G75*
G02*
X133527926Y-57463438I0J-300000D01*
G01*
X132827926Y-57163438D02*
G75*
G02*
X132527926Y-56863438I0J300000D01*
G01*
X133527926Y-53763438D02*
G75*
G02*
X133227926Y-54063438I-300000J0D01*
G01*
X147527926Y-57463438D02*
G75*
G02*
X147827926Y-57163438I300000J0D01*
G01*
X148227926Y-54063438D02*
G75*
G02*
X148527926Y-54363438I0J-300000D01*
G01*
X147827926Y-54063438D02*
G75*
G02*
X147527926Y-53763438I0J300000D01*
G01*
X148227926Y-45163438D02*
G75*
G02*
X148527926Y-45463438I0J-300000D01*
G01*
X147827926Y-45163438D02*
G75*
G02*
X147527926Y-44863438I0J300000D01*
G01*
X147527926Y-57863438D02*
G75*
G02*
X147227926Y-58163438I-300000J0D01*
G01*
X147527926Y-48563438D02*
G75*
G02*
X147827926Y-48263438I300000J0D01*
G01*
X147227926Y-44163438D02*
G75*
G02*
X147527926Y-44463438I0J-300000D01*
G01*
X133527926Y-44463438D02*
G75*
G02*
X133827926Y-44163438I300000J0D01*
G01*
X133827926Y-58163438D02*
G75*
G02*
X133527926Y-57863438I0J300000D01*
G01*
X147227926Y-58163438D02*
X133827926Y-58163438D01*
X133527926Y-57863438D02*
X133527926Y-57463438D01*
X147227926Y-44163438D02*
X133827926Y-44163438D01*
X133527926Y-48563438D02*
X133527926Y-53763438D01*
X133527926Y-44863438D02*
X133527926Y-44463438D01*
X147527926Y-57463438D02*
X147527926Y-57863438D01*
X147827926Y-45163438D02*
X148227926Y-45163438D01*
X148527926Y-47963438D02*
X148527926Y-45463438D01*
X148227926Y-48263438D02*
X147827926Y-48263438D01*
X147527926Y-53763438D02*
X147527926Y-48563438D01*
X147527926Y-44463438D02*
X147527926Y-44863438D01*
X148227926Y-57163438D02*
X147827926Y-57163438D01*
X148527926Y-56863438D02*
X148527926Y-54363438D01*
X147827926Y-54063438D02*
X148227926Y-54063438D01*
X133227926Y-57163438D02*
X132827926Y-57163438D01*
X132527926Y-54363438D02*
X132527926Y-56863438D01*
X132827926Y-54063438D02*
X133227926Y-54063438D01*
X132827926Y-45163438D02*
X133227926Y-45163438D01*
X133227926Y-48263438D02*
X132827926Y-48263438D01*
X132527926Y-45463438D02*
X132527926Y-47963438D01*
%TO.C,SW20*%
X77257688Y-129295826D02*
G75*
G02*
X77313066Y-128875192I238006J182628D01*
G01*
X82675665Y-136356672D02*
G75*
G02*
X82731042Y-135936037I238006J182629D01*
G01*
X96891222Y-128599872D02*
G75*
G02*
X96835844Y-129020506I-238006J-182628D01*
G01*
X91473245Y-121539026D02*
G75*
G02*
X91417868Y-121959661I-238006J-182629D01*
G01*
X79200227Y-131334587D02*
G75*
G02*
X78779592Y-131279210I-182629J238006D01*
G01*
X79517567Y-131091083D02*
G75*
G02*
X79938202Y-131146460I182629J-238006D01*
G01*
X77685785Y-128211053D02*
G75*
G02*
X77630407Y-128631687I-238006J-182628D01*
G01*
X84935545Y-138151927D02*
G75*
G02*
X85356179Y-138207305I182628J-238006D01*
G01*
X84618202Y-138395432D02*
G75*
G02*
X84197568Y-138340054I-182628J238006D01*
G01*
X83103761Y-135271897D02*
G75*
G02*
X83048384Y-135692532I-238006J-182629D01*
G01*
X96463125Y-129684645D02*
G75*
G02*
X96518503Y-129264011I238006J182628D01*
G01*
X94948683Y-126561111D02*
G75*
G02*
X95369318Y-126616488I182629J-238006D01*
G01*
X94631343Y-126804615D02*
G75*
G02*
X94210708Y-126749238I-182629J238006D01*
G01*
X89530708Y-119500266D02*
G75*
G02*
X89951342Y-119555644I182628J-238006D01*
G01*
X89213365Y-119743771D02*
G75*
G02*
X88792731Y-119688393I-182628J238006D01*
G01*
X96706630Y-130001987D02*
G75*
G02*
X96651252Y-130422621I-238006J-182628D01*
G01*
X91045149Y-122623801D02*
G75*
G02*
X91100526Y-122203166I238006J182629D01*
G01*
X88128593Y-119315674D02*
G75*
G02*
X88549227Y-119371052I182628J-238006D01*
G01*
X77442280Y-127893711D02*
G75*
G02*
X77497658Y-127473077I238006J182628D01*
G01*
X86020317Y-138580024D02*
G75*
G02*
X85599683Y-138524646I-182628J238006D01*
G01*
X96651252Y-130422621D02*
X86020318Y-138580024D01*
X85599683Y-138524646D02*
X85356179Y-138207305D01*
X88128592Y-119315674D02*
X77497658Y-127473077D01*
X79938202Y-131146460D02*
X83103761Y-135271898D01*
X77685785Y-128211053D02*
X77442280Y-127893712D01*
X96463125Y-129684645D02*
X96706630Y-130001986D01*
X89213366Y-119743771D02*
X89530707Y-119500266D01*
X91473245Y-121539027D02*
X89951342Y-119555644D01*
X91417868Y-121959661D02*
X91100526Y-122203166D01*
X94210708Y-126749238D02*
X91045149Y-122623800D01*
X88549227Y-119371052D02*
X88792731Y-119688393D01*
X96835844Y-129020506D02*
X96518503Y-129264011D01*
X96891222Y-128599872D02*
X95369318Y-126616488D01*
X94631343Y-126804615D02*
X94948684Y-126561111D01*
X84935544Y-138151927D02*
X84618203Y-138395432D01*
X82675665Y-136356671D02*
X84197568Y-138340054D01*
X82731042Y-135936037D02*
X83048384Y-135692532D01*
X77313066Y-128875192D02*
X77630407Y-128631687D01*
X79517567Y-131091083D02*
X79200226Y-131334587D01*
X77257688Y-129295826D02*
X78779592Y-131279210D01*
%TO.C,SW19*%
X151517991Y-77824865D02*
G75*
G02*
X151817991Y-77524865I300000J0D01*
G01*
X151517991Y-86724865D02*
G75*
G02*
X151817991Y-86424865I300000J0D01*
G01*
X167517991Y-89224865D02*
G75*
G02*
X167217991Y-89524865I-300000J0D01*
G01*
X167517991Y-80324865D02*
G75*
G02*
X167217991Y-80624865I-300000J0D01*
G01*
X151817991Y-80624865D02*
G75*
G02*
X151517991Y-80324865I0J300000D01*
G01*
X152217991Y-80624865D02*
G75*
G02*
X152517991Y-80924865I0J-300000D01*
G01*
X152517991Y-77224865D02*
G75*
G02*
X152217991Y-77524865I-300000J0D01*
G01*
X152217991Y-89524865D02*
G75*
G02*
X152517991Y-89824865I0J-300000D01*
G01*
X151817991Y-89524865D02*
G75*
G02*
X151517991Y-89224865I0J300000D01*
G01*
X152517991Y-86124865D02*
G75*
G02*
X152217991Y-86424865I-300000J0D01*
G01*
X166517991Y-89824865D02*
G75*
G02*
X166817991Y-89524865I300000J0D01*
G01*
X167217991Y-86424865D02*
G75*
G02*
X167517991Y-86724865I0J-300000D01*
G01*
X166817991Y-86424865D02*
G75*
G02*
X166517991Y-86124865I0J300000D01*
G01*
X167217991Y-77524865D02*
G75*
G02*
X167517991Y-77824865I0J-300000D01*
G01*
X166817991Y-77524865D02*
G75*
G02*
X166517991Y-77224865I0J300000D01*
G01*
X166517991Y-90224865D02*
G75*
G02*
X166217991Y-90524865I-300000J0D01*
G01*
X166517991Y-80924865D02*
G75*
G02*
X166817991Y-80624865I300000J0D01*
G01*
X166217991Y-76524865D02*
G75*
G02*
X166517991Y-76824865I0J-300000D01*
G01*
X152517991Y-76824865D02*
G75*
G02*
X152817991Y-76524865I300000J0D01*
G01*
X152817991Y-90524865D02*
G75*
G02*
X152517991Y-90224865I0J300000D01*
G01*
X166217991Y-90524865D02*
X152817991Y-90524865D01*
X152517991Y-90224865D02*
X152517991Y-89824865D01*
X166217991Y-76524865D02*
X152817991Y-76524865D01*
X152517991Y-80924865D02*
X152517991Y-86124865D01*
X152517991Y-77224865D02*
X152517991Y-76824865D01*
X166517991Y-89824865D02*
X166517991Y-90224865D01*
X166817991Y-77524865D02*
X167217991Y-77524865D01*
X167517991Y-80324865D02*
X167517991Y-77824865D01*
X167217991Y-80624865D02*
X166817991Y-80624865D01*
X166517991Y-86124865D02*
X166517991Y-80924865D01*
X166517991Y-76824865D02*
X166517991Y-77224865D01*
X167217991Y-89524865D02*
X166817991Y-89524865D01*
X167517991Y-89224865D02*
X167517991Y-86724865D01*
X166817991Y-86424865D02*
X167217991Y-86424865D01*
X152217991Y-89524865D02*
X151817991Y-89524865D01*
X151517991Y-86724865D02*
X151517991Y-89224865D01*
X151817991Y-86424865D02*
X152217991Y-86424865D01*
X151817991Y-77524865D02*
X152217991Y-77524865D01*
X152217991Y-80624865D02*
X151817991Y-80624865D01*
X151517991Y-77824865D02*
X151517991Y-80324865D01*
%TO.C,SW18*%
X151564908Y-58814237D02*
G75*
G02*
X151864908Y-58514237I300000J0D01*
G01*
X151564908Y-67714237D02*
G75*
G02*
X151864908Y-67414237I300000J0D01*
G01*
X167564908Y-70214237D02*
G75*
G02*
X167264908Y-70514237I-300000J0D01*
G01*
X167564908Y-61314237D02*
G75*
G02*
X167264908Y-61614237I-300000J0D01*
G01*
X151864908Y-61614237D02*
G75*
G02*
X151564908Y-61314237I0J300000D01*
G01*
X152264908Y-61614237D02*
G75*
G02*
X152564908Y-61914237I0J-300000D01*
G01*
X152564908Y-58214237D02*
G75*
G02*
X152264908Y-58514237I-300000J0D01*
G01*
X152264908Y-70514237D02*
G75*
G02*
X152564908Y-70814237I0J-300000D01*
G01*
X151864908Y-70514237D02*
G75*
G02*
X151564908Y-70214237I0J300000D01*
G01*
X152564908Y-67114237D02*
G75*
G02*
X152264908Y-67414237I-300000J0D01*
G01*
X166564908Y-70814237D02*
G75*
G02*
X166864908Y-70514237I300000J0D01*
G01*
X167264908Y-67414237D02*
G75*
G02*
X167564908Y-67714237I0J-300000D01*
G01*
X166864908Y-67414237D02*
G75*
G02*
X166564908Y-67114237I0J300000D01*
G01*
X167264908Y-58514237D02*
G75*
G02*
X167564908Y-58814237I0J-300000D01*
G01*
X166864908Y-58514237D02*
G75*
G02*
X166564908Y-58214237I0J300000D01*
G01*
X166564908Y-71214237D02*
G75*
G02*
X166264908Y-71514237I-300000J0D01*
G01*
X166564908Y-61914237D02*
G75*
G02*
X166864908Y-61614237I300000J0D01*
G01*
X166264908Y-57514237D02*
G75*
G02*
X166564908Y-57814237I0J-300000D01*
G01*
X152564908Y-57814237D02*
G75*
G02*
X152864908Y-57514237I300000J0D01*
G01*
X152864908Y-71514237D02*
G75*
G02*
X152564908Y-71214237I0J300000D01*
G01*
X166264908Y-71514237D02*
X152864908Y-71514237D01*
X152564908Y-71214237D02*
X152564908Y-70814237D01*
X166264908Y-57514237D02*
X152864908Y-57514237D01*
X152564908Y-61914237D02*
X152564908Y-67114237D01*
X152564908Y-58214237D02*
X152564908Y-57814237D01*
X166564908Y-70814237D02*
X166564908Y-71214237D01*
X166864908Y-58514237D02*
X167264908Y-58514237D01*
X167564908Y-61314237D02*
X167564908Y-58814237D01*
X167264908Y-61614237D02*
X166864908Y-61614237D01*
X166564908Y-67114237D02*
X166564908Y-61914237D01*
X166564908Y-57814237D02*
X166564908Y-58214237D01*
X167264908Y-70514237D02*
X166864908Y-70514237D01*
X167564908Y-70214237D02*
X167564908Y-67714237D01*
X166864908Y-67414237D02*
X167264908Y-67414237D01*
X152264908Y-70514237D02*
X151864908Y-70514237D01*
X151564908Y-67714237D02*
X151564908Y-70214237D01*
X151864908Y-67414237D02*
X152264908Y-67414237D01*
X151864908Y-58514237D02*
X152264908Y-58514237D01*
X152264908Y-61614237D02*
X151864908Y-61614237D01*
X151564908Y-58814237D02*
X151564908Y-61314237D01*
%TO.C,SW17*%
X151545524Y-39688787D02*
G75*
G02*
X151845524Y-39388787I300000J0D01*
G01*
X151545524Y-48588787D02*
G75*
G02*
X151845524Y-48288787I300000J0D01*
G01*
X167545524Y-51088787D02*
G75*
G02*
X167245524Y-51388787I-300000J0D01*
G01*
X167545524Y-42188787D02*
G75*
G02*
X167245524Y-42488787I-300000J0D01*
G01*
X151845524Y-42488787D02*
G75*
G02*
X151545524Y-42188787I0J300000D01*
G01*
X152245524Y-42488787D02*
G75*
G02*
X152545524Y-42788787I0J-300000D01*
G01*
X152545524Y-39088787D02*
G75*
G02*
X152245524Y-39388787I-300000J0D01*
G01*
X152245524Y-51388787D02*
G75*
G02*
X152545524Y-51688787I0J-300000D01*
G01*
X151845524Y-51388787D02*
G75*
G02*
X151545524Y-51088787I0J300000D01*
G01*
X152545524Y-47988787D02*
G75*
G02*
X152245524Y-48288787I-300000J0D01*
G01*
X166545524Y-51688787D02*
G75*
G02*
X166845524Y-51388787I300000J0D01*
G01*
X167245524Y-48288787D02*
G75*
G02*
X167545524Y-48588787I0J-300000D01*
G01*
X166845524Y-48288787D02*
G75*
G02*
X166545524Y-47988787I0J300000D01*
G01*
X167245524Y-39388787D02*
G75*
G02*
X167545524Y-39688787I0J-300000D01*
G01*
X166845524Y-39388787D02*
G75*
G02*
X166545524Y-39088787I0J300000D01*
G01*
X166545524Y-52088787D02*
G75*
G02*
X166245524Y-52388787I-300000J0D01*
G01*
X166545524Y-42788787D02*
G75*
G02*
X166845524Y-42488787I300000J0D01*
G01*
X166245524Y-38388787D02*
G75*
G02*
X166545524Y-38688787I0J-300000D01*
G01*
X152545524Y-38688787D02*
G75*
G02*
X152845524Y-38388787I300000J0D01*
G01*
X152845524Y-52388787D02*
G75*
G02*
X152545524Y-52088787I0J300000D01*
G01*
X166245524Y-52388787D02*
X152845524Y-52388787D01*
X152545524Y-52088787D02*
X152545524Y-51688787D01*
X166245524Y-38388787D02*
X152845524Y-38388787D01*
X152545524Y-42788787D02*
X152545524Y-47988787D01*
X152545524Y-39088787D02*
X152545524Y-38688787D01*
X166545524Y-51688787D02*
X166545524Y-52088787D01*
X166845524Y-39388787D02*
X167245524Y-39388787D01*
X167545524Y-42188787D02*
X167545524Y-39688787D01*
X167245524Y-42488787D02*
X166845524Y-42488787D01*
X166545524Y-47988787D02*
X166545524Y-42788787D01*
X166545524Y-38688787D02*
X166545524Y-39088787D01*
X167245524Y-51388787D02*
X166845524Y-51388787D01*
X167545524Y-51088787D02*
X167545524Y-48588787D01*
X166845524Y-48288787D02*
X167245524Y-48288787D01*
X152245524Y-51388787D02*
X151845524Y-51388787D01*
X151545524Y-48588787D02*
X151545524Y-51088787D01*
X151845524Y-48288787D02*
X152245524Y-48288787D01*
X151845524Y-39388787D02*
X152245524Y-39388787D01*
X152245524Y-42488787D02*
X151845524Y-42488787D01*
X151545524Y-39688787D02*
X151545524Y-42188787D01*
%TO.C,SW15*%
X94898455Y-116609522D02*
G75*
G02*
X95043561Y-116210844I271892J126786D01*
G01*
X98659756Y-124675661D02*
G75*
G02*
X98804864Y-124276983I271893J126785D01*
G01*
X114217227Y-120179538D02*
G75*
G02*
X114072121Y-120578216I-271892J-126786D01*
G01*
X110455926Y-112113399D02*
G75*
G02*
X110310818Y-112512077I-271893J-126785D01*
G01*
X96353678Y-119020399D02*
G75*
G02*
X95955000Y-118875291I-126785J271893D01*
G01*
X96716202Y-118851351D02*
G75*
G02*
X97114879Y-118996458I126785J-271892D01*
G01*
X95551192Y-115643118D02*
G75*
G02*
X95406085Y-116041797I-271893J-126786D01*
G01*
X100477504Y-126917489D02*
G75*
G02*
X100876182Y-127062597I126785J-271893D01*
G01*
X100114980Y-127086537D02*
G75*
G02*
X99716303Y-126941430I-126785J271892D01*
G01*
X99312494Y-123709259D02*
G75*
G02*
X99167387Y-124107936I-271892J-126785D01*
G01*
X113564490Y-121145942D02*
G75*
G02*
X113709597Y-120747263I271893J126786D01*
G01*
X112762004Y-117768661D02*
G75*
G02*
X113160682Y-117913769I126785J-271893D01*
G01*
X112399480Y-117937709D02*
G75*
G02*
X112000803Y-117792602I-126785J271892D01*
G01*
X109000702Y-109702523D02*
G75*
G02*
X109399379Y-109847630I126785J-271892D01*
G01*
X108638178Y-109871571D02*
G75*
G02*
X108239500Y-109726463I-126785J271893D01*
G01*
X113733538Y-121508465D02*
G75*
G02*
X113588431Y-121907142I-271892J-126785D01*
G01*
X109803188Y-113079801D02*
G75*
G02*
X109948295Y-112681124I271892J126785D01*
G01*
X107671776Y-109218833D02*
G75*
G02*
X108070453Y-109363940I126785J-271892D01*
G01*
X95382144Y-115280595D02*
G75*
G02*
X95527251Y-114881918I271892J126785D01*
G01*
X101443906Y-127570227D02*
G75*
G02*
X101045229Y-127425120I-126785J271892D01*
G01*
X113588431Y-121907142D02*
X101443907Y-127570227D01*
X101045229Y-127425120D02*
X100876182Y-127062597D01*
X107671775Y-109218833D02*
X95527251Y-114881918D01*
X97114879Y-118996458D02*
X99312494Y-123709258D01*
X95551191Y-115643119D02*
X95382144Y-115280596D01*
X113564491Y-121145941D02*
X113733538Y-121508464D01*
X108638178Y-109871570D02*
X109000701Y-109702523D01*
X110455925Y-112113399D02*
X109399379Y-109847630D01*
X110310818Y-112512077D02*
X109948295Y-112681124D01*
X112000803Y-117792602D02*
X109803188Y-113079802D01*
X108070453Y-109363940D02*
X108239500Y-109726463D01*
X114072121Y-120578216D02*
X113709597Y-120747263D01*
X114217227Y-120179538D02*
X113160682Y-117913769D01*
X112399481Y-117937709D02*
X112762004Y-117768662D01*
X100477504Y-126917490D02*
X100114981Y-127086537D01*
X98659757Y-124675661D02*
X99716303Y-126941430D01*
X98804864Y-124276983D02*
X99167387Y-124107936D01*
X95043561Y-116210844D02*
X95406085Y-116041797D01*
X96716201Y-118851351D02*
X96353678Y-119020398D01*
X94898455Y-116609522D02*
X95955000Y-118875291D01*
%TO.C,SW14*%
X170578424Y-81670348D02*
G75*
G02*
X170878424Y-81370348I300000J0D01*
G01*
X170578424Y-90570348D02*
G75*
G02*
X170878424Y-90270348I300000J0D01*
G01*
X186578424Y-93070348D02*
G75*
G02*
X186278424Y-93370348I-300000J0D01*
G01*
X186578424Y-84170348D02*
G75*
G02*
X186278424Y-84470348I-300000J0D01*
G01*
X170878424Y-84470348D02*
G75*
G02*
X170578424Y-84170348I0J300000D01*
G01*
X171278424Y-84470348D02*
G75*
G02*
X171578424Y-84770348I0J-300000D01*
G01*
X171578424Y-81070348D02*
G75*
G02*
X171278424Y-81370348I-300000J0D01*
G01*
X171278424Y-93370348D02*
G75*
G02*
X171578424Y-93670348I0J-300000D01*
G01*
X170878424Y-93370348D02*
G75*
G02*
X170578424Y-93070348I0J300000D01*
G01*
X171578424Y-89970348D02*
G75*
G02*
X171278424Y-90270348I-300000J0D01*
G01*
X185578424Y-93670348D02*
G75*
G02*
X185878424Y-93370348I300000J0D01*
G01*
X186278424Y-90270348D02*
G75*
G02*
X186578424Y-90570348I0J-300000D01*
G01*
X185878424Y-90270348D02*
G75*
G02*
X185578424Y-89970348I0J300000D01*
G01*
X186278424Y-81370348D02*
G75*
G02*
X186578424Y-81670348I0J-300000D01*
G01*
X185878424Y-81370348D02*
G75*
G02*
X185578424Y-81070348I0J300000D01*
G01*
X185578424Y-94070348D02*
G75*
G02*
X185278424Y-94370348I-300000J0D01*
G01*
X185578424Y-84770348D02*
G75*
G02*
X185878424Y-84470348I300000J0D01*
G01*
X185278424Y-80370348D02*
G75*
G02*
X185578424Y-80670348I0J-300000D01*
G01*
X171578424Y-80670348D02*
G75*
G02*
X171878424Y-80370348I300000J0D01*
G01*
X171878424Y-94370348D02*
G75*
G02*
X171578424Y-94070348I0J300000D01*
G01*
X185278424Y-94370348D02*
X171878424Y-94370348D01*
X171578424Y-94070348D02*
X171578424Y-93670348D01*
X185278424Y-80370348D02*
X171878424Y-80370348D01*
X171578424Y-84770348D02*
X171578424Y-89970348D01*
X171578424Y-81070348D02*
X171578424Y-80670348D01*
X185578424Y-93670348D02*
X185578424Y-94070348D01*
X185878424Y-81370348D02*
X186278424Y-81370348D01*
X186578424Y-84170348D02*
X186578424Y-81670348D01*
X186278424Y-84470348D02*
X185878424Y-84470348D01*
X185578424Y-89970348D02*
X185578424Y-84770348D01*
X185578424Y-80670348D02*
X185578424Y-81070348D01*
X186278424Y-93370348D02*
X185878424Y-93370348D01*
X186578424Y-93070348D02*
X186578424Y-90570348D01*
X185878424Y-90270348D02*
X186278424Y-90270348D01*
X171278424Y-93370348D02*
X170878424Y-93370348D01*
X170578424Y-90570348D02*
X170578424Y-93070348D01*
X170878424Y-90270348D02*
X171278424Y-90270348D01*
X170878424Y-81370348D02*
X171278424Y-81370348D01*
X171278424Y-84470348D02*
X170878424Y-84470348D01*
X170578424Y-81670348D02*
X170578424Y-84170348D01*
%TO.C,SW13*%
X170559050Y-62544902D02*
G75*
G02*
X170859050Y-62244902I300000J0D01*
G01*
X170559050Y-71444902D02*
G75*
G02*
X170859050Y-71144902I300000J0D01*
G01*
X186559050Y-73944902D02*
G75*
G02*
X186259050Y-74244902I-300000J0D01*
G01*
X186559050Y-65044902D02*
G75*
G02*
X186259050Y-65344902I-300000J0D01*
G01*
X170859050Y-65344902D02*
G75*
G02*
X170559050Y-65044902I0J300000D01*
G01*
X171259050Y-65344902D02*
G75*
G02*
X171559050Y-65644902I0J-300000D01*
G01*
X171559050Y-61944902D02*
G75*
G02*
X171259050Y-62244902I-300000J0D01*
G01*
X171259050Y-74244902D02*
G75*
G02*
X171559050Y-74544902I0J-300000D01*
G01*
X170859050Y-74244902D02*
G75*
G02*
X170559050Y-73944902I0J300000D01*
G01*
X171559050Y-70844902D02*
G75*
G02*
X171259050Y-71144902I-300000J0D01*
G01*
X185559050Y-74544902D02*
G75*
G02*
X185859050Y-74244902I300000J0D01*
G01*
X186259050Y-71144902D02*
G75*
G02*
X186559050Y-71444902I0J-300000D01*
G01*
X185859050Y-71144902D02*
G75*
G02*
X185559050Y-70844902I0J300000D01*
G01*
X186259050Y-62244902D02*
G75*
G02*
X186559050Y-62544902I0J-300000D01*
G01*
X185859050Y-62244902D02*
G75*
G02*
X185559050Y-61944902I0J300000D01*
G01*
X185559050Y-74944902D02*
G75*
G02*
X185259050Y-75244902I-300000J0D01*
G01*
X185559050Y-65644902D02*
G75*
G02*
X185859050Y-65344902I300000J0D01*
G01*
X185259050Y-61244902D02*
G75*
G02*
X185559050Y-61544902I0J-300000D01*
G01*
X171559050Y-61544902D02*
G75*
G02*
X171859050Y-61244902I300000J0D01*
G01*
X171859050Y-75244902D02*
G75*
G02*
X171559050Y-74944902I0J300000D01*
G01*
X185259050Y-75244902D02*
X171859050Y-75244902D01*
X171559050Y-74944902D02*
X171559050Y-74544902D01*
X185259050Y-61244902D02*
X171859050Y-61244902D01*
X171559050Y-65644902D02*
X171559050Y-70844902D01*
X171559050Y-61944902D02*
X171559050Y-61544902D01*
X185559050Y-74544902D02*
X185559050Y-74944902D01*
X185859050Y-62244902D02*
X186259050Y-62244902D01*
X186559050Y-65044902D02*
X186559050Y-62544902D01*
X186259050Y-65344902D02*
X185859050Y-65344902D01*
X185559050Y-70844902D02*
X185559050Y-65644902D01*
X185559050Y-61544902D02*
X185559050Y-61944902D01*
X186259050Y-74244902D02*
X185859050Y-74244902D01*
X186559050Y-73944902D02*
X186559050Y-71444902D01*
X185859050Y-71144902D02*
X186259050Y-71144902D01*
X171259050Y-74244902D02*
X170859050Y-74244902D01*
X170559050Y-71444902D02*
X170559050Y-73944902D01*
X170859050Y-71144902D02*
X171259050Y-71144902D01*
X170859050Y-62244902D02*
X171259050Y-62244902D01*
X171259050Y-65344902D02*
X170859050Y-65344902D01*
X170559050Y-62544902D02*
X170559050Y-65044902D01*
%TO.C,SW12*%
X170605960Y-43534275D02*
G75*
G02*
X170905960Y-43234275I300000J0D01*
G01*
X170605960Y-52434275D02*
G75*
G02*
X170905960Y-52134275I300000J0D01*
G01*
X186605960Y-54934275D02*
G75*
G02*
X186305960Y-55234275I-300000J0D01*
G01*
X186605960Y-46034275D02*
G75*
G02*
X186305960Y-46334275I-300000J0D01*
G01*
X170905960Y-46334275D02*
G75*
G02*
X170605960Y-46034275I0J300000D01*
G01*
X171305960Y-46334275D02*
G75*
G02*
X171605960Y-46634275I0J-300000D01*
G01*
X171605960Y-42934275D02*
G75*
G02*
X171305960Y-43234275I-300000J0D01*
G01*
X171305960Y-55234275D02*
G75*
G02*
X171605960Y-55534275I0J-300000D01*
G01*
X170905960Y-55234275D02*
G75*
G02*
X170605960Y-54934275I0J300000D01*
G01*
X171605960Y-51834275D02*
G75*
G02*
X171305960Y-52134275I-300000J0D01*
G01*
X185605960Y-55534275D02*
G75*
G02*
X185905960Y-55234275I300000J0D01*
G01*
X186305960Y-52134275D02*
G75*
G02*
X186605960Y-52434275I0J-300000D01*
G01*
X185905960Y-52134275D02*
G75*
G02*
X185605960Y-51834275I0J300000D01*
G01*
X186305960Y-43234275D02*
G75*
G02*
X186605960Y-43534275I0J-300000D01*
G01*
X185905960Y-43234275D02*
G75*
G02*
X185605960Y-42934275I0J300000D01*
G01*
X185605960Y-55934275D02*
G75*
G02*
X185305960Y-56234275I-300000J0D01*
G01*
X185605960Y-46634275D02*
G75*
G02*
X185905960Y-46334275I300000J0D01*
G01*
X185305960Y-42234275D02*
G75*
G02*
X185605960Y-42534275I0J-300000D01*
G01*
X171605960Y-42534275D02*
G75*
G02*
X171905960Y-42234275I300000J0D01*
G01*
X171905960Y-56234275D02*
G75*
G02*
X171605960Y-55934275I0J300000D01*
G01*
X185305960Y-56234275D02*
X171905960Y-56234275D01*
X171605960Y-55934275D02*
X171605960Y-55534275D01*
X185305960Y-42234275D02*
X171905960Y-42234275D01*
X171605960Y-46634275D02*
X171605960Y-51834275D01*
X171605960Y-42934275D02*
X171605960Y-42534275D01*
X185605960Y-55534275D02*
X185605960Y-55934275D01*
X185905960Y-43234275D02*
X186305960Y-43234275D01*
X186605960Y-46034275D02*
X186605960Y-43534275D01*
X186305960Y-46334275D02*
X185905960Y-46334275D01*
X185605960Y-51834275D02*
X185605960Y-46634275D01*
X185605960Y-42534275D02*
X185605960Y-42934275D01*
X186305960Y-55234275D02*
X185905960Y-55234275D01*
X186605960Y-54934275D02*
X186605960Y-52434275D01*
X185905960Y-52134275D02*
X186305960Y-52134275D01*
X171305960Y-55234275D02*
X170905960Y-55234275D01*
X170605960Y-52434275D02*
X170605960Y-54934275D01*
X170905960Y-52134275D02*
X171305960Y-52134275D01*
X170905960Y-43234275D02*
X171305960Y-43234275D01*
X171305960Y-46334275D02*
X170905960Y-46334275D01*
X170605960Y-43534275D02*
X170605960Y-46034275D01*
%TO.C,SW10*%
X114864555Y-107905221D02*
G75*
G02*
X115092512Y-107547400I292889J64932D01*
G01*
X116790868Y-116594255D02*
G75*
G02*
X117018825Y-116236434I292889J64932D01*
G01*
X132952703Y-115571961D02*
G75*
G02*
X132724746Y-115929782I-292889J-64932D01*
G01*
X131026390Y-106882927D02*
G75*
G02*
X130798433Y-107240748I-292889J-64932D01*
G01*
X115763475Y-110573918D02*
G75*
G02*
X115405654Y-110345961I-64932J292889D01*
G01*
X116153993Y-110487342D02*
G75*
G02*
X116511814Y-110715299I64932J-292889D01*
G01*
X115710988Y-107103004D02*
G75*
G02*
X115483030Y-107460824I-292889J-64931D01*
G01*
X118080306Y-119176376D02*
G75*
G02*
X118438127Y-119404333I64932J-292889D01*
G01*
X117689788Y-119262952D02*
G75*
G02*
X117331967Y-119034995I-64932J292889D01*
G01*
X117637300Y-115792038D02*
G75*
G02*
X117409343Y-116149859I-292889J-64932D01*
G01*
X132106270Y-116374178D02*
G75*
G02*
X132334228Y-116016358I292889J64931D01*
G01*
X132053783Y-112903264D02*
G75*
G02*
X132411604Y-113131221I64932J-292889D01*
G01*
X131663265Y-112989840D02*
G75*
G02*
X131305444Y-112761883I-64932J292889D01*
G01*
X130127470Y-104214230D02*
G75*
G02*
X130485291Y-104442187I64932J-292889D01*
G01*
X129736952Y-104300806D02*
G75*
G02*
X129379131Y-104072849I-64932J292889D01*
G01*
X132192847Y-116764697D02*
G75*
G02*
X131964890Y-117122518I-292889J-64932D01*
G01*
X130179958Y-107685144D02*
G75*
G02*
X130407915Y-107327323I292889J64932D01*
G01*
X128934735Y-103454373D02*
G75*
G02*
X129292556Y-103682330I64932J-292889D01*
G01*
X115624411Y-106712485D02*
G75*
G02*
X115852368Y-106354664I292889J64932D01*
G01*
X118882523Y-120022809D02*
G75*
G02*
X118524702Y-119794852I-64932J292889D01*
G01*
X131964890Y-117122518D02*
X118882523Y-120022808D01*
X118524702Y-119794852D02*
X118438127Y-119404333D01*
X128934735Y-103454374D02*
X115852368Y-106354664D01*
X116511814Y-110715299D02*
X117637300Y-115792038D01*
X115710987Y-107103003D02*
X115624412Y-106712485D01*
X132106271Y-116374179D02*
X132192846Y-116764697D01*
X129736952Y-104300806D02*
X130127471Y-104214230D01*
X131026390Y-106882927D02*
X130485291Y-104442187D01*
X130798433Y-107240748D02*
X130407915Y-107327323D01*
X131305444Y-112761883D02*
X130179958Y-107685144D01*
X129292556Y-103682330D02*
X129379131Y-104072849D01*
X132724746Y-115929782D02*
X132334228Y-116016358D01*
X132952703Y-115571961D02*
X132411604Y-113131221D01*
X131663265Y-112989840D02*
X132053783Y-112903264D01*
X118080306Y-119176376D02*
X117689787Y-119262952D01*
X116790868Y-116594255D02*
X117331967Y-119034995D01*
X117018825Y-116236434D02*
X117409343Y-116149859D01*
X115092512Y-107547400D02*
X115483030Y-107460824D01*
X116153993Y-110487342D02*
X115763475Y-110573918D01*
X114864555Y-107905221D02*
X115405654Y-110345961D01*
%TO.C,SW9*%
X189680423Y-91156291D02*
G75*
G02*
X189980423Y-90856291I300000J0D01*
G01*
X189680423Y-100056291D02*
G75*
G02*
X189980423Y-99756291I300000J0D01*
G01*
X205680423Y-102556291D02*
G75*
G02*
X205380423Y-102856291I-300000J0D01*
G01*
X205680423Y-93656291D02*
G75*
G02*
X205380423Y-93956291I-300000J0D01*
G01*
X189980423Y-93956291D02*
G75*
G02*
X189680423Y-93656291I0J300000D01*
G01*
X190380423Y-93956291D02*
G75*
G02*
X190680423Y-94256291I0J-300000D01*
G01*
X190680423Y-90556291D02*
G75*
G02*
X190380423Y-90856291I-300000J0D01*
G01*
X190380423Y-102856291D02*
G75*
G02*
X190680423Y-103156291I0J-300000D01*
G01*
X189980423Y-102856291D02*
G75*
G02*
X189680423Y-102556291I0J300000D01*
G01*
X190680423Y-99456291D02*
G75*
G02*
X190380423Y-99756291I-300000J0D01*
G01*
X204680423Y-103156291D02*
G75*
G02*
X204980423Y-102856291I300000J0D01*
G01*
X205380423Y-99756291D02*
G75*
G02*
X205680423Y-100056291I0J-300000D01*
G01*
X204980423Y-99756291D02*
G75*
G02*
X204680423Y-99456291I0J300000D01*
G01*
X205380423Y-90856291D02*
G75*
G02*
X205680423Y-91156291I0J-300000D01*
G01*
X204980423Y-90856291D02*
G75*
G02*
X204680423Y-90556291I0J300000D01*
G01*
X204680423Y-103556291D02*
G75*
G02*
X204380423Y-103856291I-300000J0D01*
G01*
X204680423Y-94256291D02*
G75*
G02*
X204980423Y-93956291I300000J0D01*
G01*
X204380423Y-89856291D02*
G75*
G02*
X204680423Y-90156291I0J-300000D01*
G01*
X190680423Y-90156291D02*
G75*
G02*
X190980423Y-89856291I300000J0D01*
G01*
X190980423Y-103856291D02*
G75*
G02*
X190680423Y-103556291I0J300000D01*
G01*
X204380423Y-103856291D02*
X190980423Y-103856291D01*
X190680423Y-103556291D02*
X190680423Y-103156291D01*
X204380423Y-89856291D02*
X190980423Y-89856291D01*
X190680423Y-94256291D02*
X190680423Y-99456291D01*
X190680423Y-90556291D02*
X190680423Y-90156291D01*
X204680423Y-103156291D02*
X204680423Y-103556291D01*
X204980423Y-90856291D02*
X205380423Y-90856291D01*
X205680423Y-93656291D02*
X205680423Y-91156291D01*
X205380423Y-93956291D02*
X204980423Y-93956291D01*
X204680423Y-99456291D02*
X204680423Y-94256291D01*
X204680423Y-90156291D02*
X204680423Y-90556291D01*
X205380423Y-102856291D02*
X204980423Y-102856291D01*
X205680423Y-102556291D02*
X205680423Y-100056291D01*
X204980423Y-99756291D02*
X205380423Y-99756291D01*
X190380423Y-102856291D02*
X189980423Y-102856291D01*
X189680423Y-100056291D02*
X189680423Y-102556291D01*
X189980423Y-99756291D02*
X190380423Y-99756291D01*
X189980423Y-90856291D02*
X190380423Y-90856291D01*
X190380423Y-93956291D02*
X189980423Y-93956291D01*
X189680423Y-91156291D02*
X189680423Y-93656291D01*
%TO.C,SW8*%
X189636781Y-72121391D02*
G75*
G02*
X189936781Y-71821391I300000J0D01*
G01*
X189636781Y-81021391D02*
G75*
G02*
X189936781Y-80721391I300000J0D01*
G01*
X205636781Y-83521391D02*
G75*
G02*
X205336781Y-83821391I-300000J0D01*
G01*
X205636781Y-74621391D02*
G75*
G02*
X205336781Y-74921391I-300000J0D01*
G01*
X189936781Y-74921391D02*
G75*
G02*
X189636781Y-74621391I0J300000D01*
G01*
X190336781Y-74921391D02*
G75*
G02*
X190636781Y-75221391I0J-300000D01*
G01*
X190636781Y-71521391D02*
G75*
G02*
X190336781Y-71821391I-300000J0D01*
G01*
X190336781Y-83821391D02*
G75*
G02*
X190636781Y-84121391I0J-300000D01*
G01*
X189936781Y-83821391D02*
G75*
G02*
X189636781Y-83521391I0J300000D01*
G01*
X190636781Y-80421391D02*
G75*
G02*
X190336781Y-80721391I-300000J0D01*
G01*
X204636781Y-84121391D02*
G75*
G02*
X204936781Y-83821391I300000J0D01*
G01*
X205336781Y-80721391D02*
G75*
G02*
X205636781Y-81021391I0J-300000D01*
G01*
X204936781Y-80721391D02*
G75*
G02*
X204636781Y-80421391I0J300000D01*
G01*
X205336781Y-71821391D02*
G75*
G02*
X205636781Y-72121391I0J-300000D01*
G01*
X204936781Y-71821391D02*
G75*
G02*
X204636781Y-71521391I0J300000D01*
G01*
X204636781Y-84521391D02*
G75*
G02*
X204336781Y-84821391I-300000J0D01*
G01*
X204636781Y-75221391D02*
G75*
G02*
X204936781Y-74921391I300000J0D01*
G01*
X204336781Y-70821391D02*
G75*
G02*
X204636781Y-71121391I0J-300000D01*
G01*
X190636781Y-71121391D02*
G75*
G02*
X190936781Y-70821391I300000J0D01*
G01*
X190936781Y-84821391D02*
G75*
G02*
X190636781Y-84521391I0J300000D01*
G01*
X204336781Y-84821391D02*
X190936781Y-84821391D01*
X190636781Y-84521391D02*
X190636781Y-84121391D01*
X204336781Y-70821391D02*
X190936781Y-70821391D01*
X190636781Y-75221391D02*
X190636781Y-80421391D01*
X190636781Y-71521391D02*
X190636781Y-71121391D01*
X204636781Y-84121391D02*
X204636781Y-84521391D01*
X204936781Y-71821391D02*
X205336781Y-71821391D01*
X205636781Y-74621391D02*
X205636781Y-72121391D01*
X205336781Y-74921391D02*
X204936781Y-74921391D01*
X204636781Y-80421391D02*
X204636781Y-75221391D01*
X204636781Y-71121391D02*
X204636781Y-71521391D01*
X205336781Y-83821391D02*
X204936781Y-83821391D01*
X205636781Y-83521391D02*
X205636781Y-81021391D01*
X204936781Y-80721391D02*
X205336781Y-80721391D01*
X190336781Y-83821391D02*
X189936781Y-83821391D01*
X189636781Y-81021391D02*
X189636781Y-83521391D01*
X189936781Y-80721391D02*
X190336781Y-80721391D01*
X189936781Y-71821391D02*
X190336781Y-71821391D01*
X190336781Y-74921391D02*
X189936781Y-74921391D01*
X189636781Y-72121391D02*
X189636781Y-74621391D01*
%TO.C,SW7*%
X189593133Y-53086490D02*
G75*
G02*
X189893133Y-52786490I300000J0D01*
G01*
X189593133Y-61986490D02*
G75*
G02*
X189893133Y-61686490I300000J0D01*
G01*
X205593133Y-64486490D02*
G75*
G02*
X205293133Y-64786490I-300000J0D01*
G01*
X205593133Y-55586490D02*
G75*
G02*
X205293133Y-55886490I-300000J0D01*
G01*
X189893133Y-55886490D02*
G75*
G02*
X189593133Y-55586490I0J300000D01*
G01*
X190293133Y-55886490D02*
G75*
G02*
X190593133Y-56186490I0J-300000D01*
G01*
X190593133Y-52486490D02*
G75*
G02*
X190293133Y-52786490I-300000J0D01*
G01*
X190293133Y-64786490D02*
G75*
G02*
X190593133Y-65086490I0J-300000D01*
G01*
X189893133Y-64786490D02*
G75*
G02*
X189593133Y-64486490I0J300000D01*
G01*
X190593133Y-61386490D02*
G75*
G02*
X190293133Y-61686490I-300000J0D01*
G01*
X204593133Y-65086490D02*
G75*
G02*
X204893133Y-64786490I300000J0D01*
G01*
X205293133Y-61686490D02*
G75*
G02*
X205593133Y-61986490I0J-300000D01*
G01*
X204893133Y-61686490D02*
G75*
G02*
X204593133Y-61386490I0J300000D01*
G01*
X205293133Y-52786490D02*
G75*
G02*
X205593133Y-53086490I0J-300000D01*
G01*
X204893133Y-52786490D02*
G75*
G02*
X204593133Y-52486490I0J300000D01*
G01*
X204593133Y-65486490D02*
G75*
G02*
X204293133Y-65786490I-300000J0D01*
G01*
X204593133Y-56186490D02*
G75*
G02*
X204893133Y-55886490I300000J0D01*
G01*
X204293133Y-51786490D02*
G75*
G02*
X204593133Y-52086490I0J-300000D01*
G01*
X190593133Y-52086490D02*
G75*
G02*
X190893133Y-51786490I300000J0D01*
G01*
X190893133Y-65786490D02*
G75*
G02*
X190593133Y-65486490I0J300000D01*
G01*
X204293133Y-65786490D02*
X190893133Y-65786490D01*
X190593133Y-65486490D02*
X190593133Y-65086490D01*
X204293133Y-51786490D02*
X190893133Y-51786490D01*
X190593133Y-56186490D02*
X190593133Y-61386490D01*
X190593133Y-52486490D02*
X190593133Y-52086490D01*
X204593133Y-65086490D02*
X204593133Y-65486490D01*
X204893133Y-52786490D02*
X205293133Y-52786490D01*
X205593133Y-55586490D02*
X205593133Y-53086490D01*
X205293133Y-55886490D02*
X204893133Y-55886490D01*
X204593133Y-61386490D02*
X204593133Y-56186490D01*
X204593133Y-52086490D02*
X204593133Y-52486490D01*
X205293133Y-64786490D02*
X204893133Y-64786490D01*
X205593133Y-64486490D02*
X205593133Y-61986490D01*
X204893133Y-61686490D02*
X205293133Y-61686490D01*
X190293133Y-64786490D02*
X189893133Y-64786490D01*
X189593133Y-61986490D02*
X189593133Y-64486490D01*
X189893133Y-61686490D02*
X190293133Y-61686490D01*
X189893133Y-52786490D02*
X190293133Y-52786490D01*
X190293133Y-55886490D02*
X189893133Y-55886490D01*
X189593133Y-53086490D02*
X189593133Y-55586490D01*
%TD*%
M02*
