M48
; DRILL file {KiCad (5.1.7)-1} date 04/13/21 17:15:31
; FORMAT={-:-/ absolute / metric / decimal}
; #@! TF.CreationDate,2021-04-13T17:15:31+05:30
; #@! TF.GenerationSoftware,Kicad,Pcbnew,(5.1.7)-1
; #@! TF.FileFunction,Plated,1,2,PTH
FMAT,2
METRIC
T1C1.100
%
G90
G05
T1
X92.024Y-45.225
X92.024Y-47.765
X92.024Y-50.305
X92.024Y-52.845
X92.024Y-55.385
X92.024Y-57.925
X92.024Y-60.465
X92.024Y-63.005
X92.024Y-65.545
X92.024Y-68.085
X92.024Y-70.625
X92.024Y-73.165
X107.264Y-45.225
X107.264Y-47.765
X107.264Y-50.305
X107.264Y-52.845
X107.264Y-55.385
X107.264Y-57.925
X107.264Y-60.465
X107.264Y-63.005
X107.264Y-65.545
X107.264Y-68.085
X107.264Y-70.625
X107.264Y-73.165
T0
M30
