%TF.GenerationSoftware,KiCad,Pcbnew,(5.1.7)-1*%
%TF.CreationDate,2021-04-13T17:15:28+05:30*%
%TF.ProjectId,Pteron56v0,50746572-6f6e-4353-9676-302e6b696361,rev?*%
%TF.SameCoordinates,Original*%
%TF.FileFunction,Legend,Bot*%
%TF.FilePolarity,Positive*%
%FSLAX46Y46*%
G04 Gerber Fmt 4.6, Leading zero omitted, Abs format (unit mm)*
G04 Created by KiCad (PCBNEW (5.1.7)-1) date 2021-04-13 17:15:28*
%MOMM*%
%LPD*%
G01*
G04 APERTURE LIST*
%ADD10C,0.250000*%
%ADD11C,0.150000*%
G04 APERTURE END LIST*
D10*
X131995428Y-81089571D02*
X131995428Y-79589571D01*
X131424000Y-79589571D01*
X131281142Y-79661000D01*
X131209714Y-79732428D01*
X131138285Y-79875285D01*
X131138285Y-80089571D01*
X131209714Y-80232428D01*
X131281142Y-80303857D01*
X131424000Y-80375285D01*
X131995428Y-80375285D01*
X129638285Y-80946714D02*
X129709714Y-81018142D01*
X129924000Y-81089571D01*
X130066857Y-81089571D01*
X130281142Y-81018142D01*
X130424000Y-80875285D01*
X130495428Y-80732428D01*
X130566857Y-80446714D01*
X130566857Y-80232428D01*
X130495428Y-79946714D01*
X130424000Y-79803857D01*
X130281142Y-79661000D01*
X130066857Y-79589571D01*
X129924000Y-79589571D01*
X129709714Y-79661000D01*
X129638285Y-79732428D01*
X128495428Y-80303857D02*
X128281142Y-80375285D01*
X128209714Y-80446714D01*
X128138285Y-80589571D01*
X128138285Y-80803857D01*
X128209714Y-80946714D01*
X128281142Y-81018142D01*
X128424000Y-81089571D01*
X128995428Y-81089571D01*
X128995428Y-79589571D01*
X128495428Y-79589571D01*
X128352571Y-79661000D01*
X128281142Y-79732428D01*
X128209714Y-79875285D01*
X128209714Y-80018142D01*
X128281142Y-80161000D01*
X128352571Y-80232428D01*
X128495428Y-80303857D01*
X128995428Y-80303857D01*
X125709714Y-81089571D02*
X125709714Y-79589571D01*
X125709714Y-81018142D02*
X125852571Y-81089571D01*
X126138285Y-81089571D01*
X126281142Y-81018142D01*
X126352571Y-80946714D01*
X126424000Y-80803857D01*
X126424000Y-80375285D01*
X126352571Y-80232428D01*
X126281142Y-80161000D01*
X126138285Y-80089571D01*
X125852571Y-80089571D01*
X125709714Y-80161000D01*
X124424000Y-81018142D02*
X124566857Y-81089571D01*
X124852571Y-81089571D01*
X124995428Y-81018142D01*
X125066857Y-80875285D01*
X125066857Y-80303857D01*
X124995428Y-80161000D01*
X124852571Y-80089571D01*
X124566857Y-80089571D01*
X124424000Y-80161000D01*
X124352571Y-80303857D01*
X124352571Y-80446714D01*
X125066857Y-80589571D01*
X123781142Y-81018142D02*
X123638285Y-81089571D01*
X123352571Y-81089571D01*
X123209714Y-81018142D01*
X123138285Y-80875285D01*
X123138285Y-80803857D01*
X123209714Y-80661000D01*
X123352571Y-80589571D01*
X123566857Y-80589571D01*
X123709714Y-80518142D01*
X123781142Y-80375285D01*
X123781142Y-80303857D01*
X123709714Y-80161000D01*
X123566857Y-80089571D01*
X123352571Y-80089571D01*
X123209714Y-80161000D01*
X122495428Y-81089571D02*
X122495428Y-80089571D01*
X122495428Y-79589571D02*
X122566857Y-79661000D01*
X122495428Y-79732428D01*
X122424000Y-79661000D01*
X122495428Y-79589571D01*
X122495428Y-79732428D01*
X121138285Y-80089571D02*
X121138285Y-81303857D01*
X121209714Y-81446714D01*
X121281142Y-81518142D01*
X121424000Y-81589571D01*
X121638285Y-81589571D01*
X121781142Y-81518142D01*
X121138285Y-81018142D02*
X121281142Y-81089571D01*
X121566857Y-81089571D01*
X121709714Y-81018142D01*
X121781142Y-80946714D01*
X121852571Y-80803857D01*
X121852571Y-80375285D01*
X121781142Y-80232428D01*
X121709714Y-80161000D01*
X121566857Y-80089571D01*
X121281142Y-80089571D01*
X121138285Y-80161000D01*
X120424000Y-80089571D02*
X120424000Y-81089571D01*
X120424000Y-80232428D02*
X120352571Y-80161000D01*
X120209714Y-80089571D01*
X119995428Y-80089571D01*
X119852571Y-80161000D01*
X119781142Y-80303857D01*
X119781142Y-81089571D01*
X118495428Y-81018142D02*
X118638285Y-81089571D01*
X118924000Y-81089571D01*
X119066857Y-81018142D01*
X119138285Y-80875285D01*
X119138285Y-80303857D01*
X119066857Y-80161000D01*
X118924000Y-80089571D01*
X118638285Y-80089571D01*
X118495428Y-80161000D01*
X118424000Y-80303857D01*
X118424000Y-80446714D01*
X119138285Y-80589571D01*
X117138285Y-81089571D02*
X117138285Y-79589571D01*
X117138285Y-81018142D02*
X117281142Y-81089571D01*
X117566857Y-81089571D01*
X117709714Y-81018142D01*
X117781142Y-80946714D01*
X117852571Y-80803857D01*
X117852571Y-80375285D01*
X117781142Y-80232428D01*
X117709714Y-80161000D01*
X117566857Y-80089571D01*
X117281142Y-80089571D01*
X117138285Y-80161000D01*
X115281142Y-81089571D02*
X115281142Y-79589571D01*
X115281142Y-80161000D02*
X115138285Y-80089571D01*
X114852571Y-80089571D01*
X114709714Y-80161000D01*
X114638285Y-80232428D01*
X114566857Y-80375285D01*
X114566857Y-80803857D01*
X114638285Y-80946714D01*
X114709714Y-81018142D01*
X114852571Y-81089571D01*
X115138285Y-81089571D01*
X115281142Y-81018142D01*
X114066857Y-80089571D02*
X113709714Y-81089571D01*
X113352571Y-80089571D02*
X113709714Y-81089571D01*
X113852571Y-81446714D01*
X113924000Y-81518142D01*
X114066857Y-81589571D01*
X129674000Y-83589571D02*
X129674000Y-82089571D01*
X128816857Y-83589571D02*
X129459714Y-82732428D01*
X128816857Y-82089571D02*
X129674000Y-82946714D01*
X128174000Y-83589571D02*
X128174000Y-82589571D01*
X128174000Y-82875285D02*
X128102571Y-82732428D01*
X128031142Y-82661000D01*
X127888285Y-82589571D01*
X127745428Y-82589571D01*
X126602571Y-83589571D02*
X126602571Y-82803857D01*
X126674000Y-82661000D01*
X126816857Y-82589571D01*
X127102571Y-82589571D01*
X127245428Y-82661000D01*
X126602571Y-83518142D02*
X126745428Y-83589571D01*
X127102571Y-83589571D01*
X127245428Y-83518142D01*
X127316857Y-83375285D01*
X127316857Y-83232428D01*
X127245428Y-83089571D01*
X127102571Y-83018142D01*
X126745428Y-83018142D01*
X126602571Y-82946714D01*
X125888285Y-83589571D02*
X125888285Y-82089571D01*
X125745428Y-83018142D02*
X125316857Y-83589571D01*
X125316857Y-82589571D02*
X125888285Y-83161000D01*
X124102571Y-83518142D02*
X124245428Y-83589571D01*
X124531142Y-83589571D01*
X124674000Y-83518142D01*
X124745428Y-83375285D01*
X124745428Y-82803857D01*
X124674000Y-82661000D01*
X124531142Y-82589571D01*
X124245428Y-82589571D01*
X124102571Y-82661000D01*
X124031142Y-82803857D01*
X124031142Y-82946714D01*
X124745428Y-83089571D01*
X123388285Y-82589571D02*
X123388285Y-83589571D01*
X123388285Y-82732428D02*
X123316857Y-82661000D01*
X123174000Y-82589571D01*
X122959714Y-82589571D01*
X122816857Y-82661000D01*
X122745428Y-82803857D01*
X122745428Y-83589571D01*
X122031142Y-83018142D02*
X120888285Y-83018142D01*
X119745428Y-82089571D02*
X119745428Y-83161000D01*
X119816857Y-83375285D01*
X119959714Y-83518142D01*
X120174000Y-83589571D01*
X120316857Y-83589571D01*
X118816857Y-83589571D02*
X118959714Y-83518142D01*
X119031142Y-83446714D01*
X119102571Y-83303857D01*
X119102571Y-82875285D01*
X119031142Y-82732428D01*
X118959714Y-82661000D01*
X118816857Y-82589571D01*
X118602571Y-82589571D01*
X118459714Y-82661000D01*
X118388285Y-82732428D01*
X118316857Y-82875285D01*
X118316857Y-83303857D01*
X118388285Y-83446714D01*
X118459714Y-83518142D01*
X118602571Y-83589571D01*
X118816857Y-83589571D01*
X117674000Y-83589571D02*
X117674000Y-82089571D01*
X117531142Y-83018142D02*
X117102571Y-83589571D01*
X117102571Y-82589571D02*
X117674000Y-83161000D01*
X115888285Y-83518142D02*
X116031142Y-83589571D01*
X116316857Y-83589571D01*
X116459714Y-83518142D01*
X116531142Y-83375285D01*
X116531142Y-82803857D01*
X116459714Y-82661000D01*
X116316857Y-82589571D01*
X116031142Y-82589571D01*
X115888285Y-82661000D01*
X115816857Y-82803857D01*
X115816857Y-82946714D01*
X116531142Y-83089571D01*
X115245428Y-83518142D02*
X115102571Y-83589571D01*
X114816857Y-83589571D01*
X114674000Y-83518142D01*
X114602571Y-83375285D01*
X114602571Y-83303857D01*
X114674000Y-83161000D01*
X114816857Y-83089571D01*
X115031142Y-83089571D01*
X115174000Y-83018142D01*
X115245428Y-82875285D01*
X115245428Y-82803857D01*
X115174000Y-82661000D01*
X115031142Y-82589571D01*
X114816857Y-82589571D01*
X114674000Y-82661000D01*
D11*
X103147761Y-70621666D02*
X103195380Y-70764523D01*
X103195380Y-71002619D01*
X103147761Y-71097857D01*
X103100142Y-71145476D01*
X103004904Y-71193095D01*
X102909666Y-71193095D01*
X102814428Y-71145476D01*
X102766809Y-71097857D01*
X102719190Y-71002619D01*
X102671571Y-70812142D01*
X102623952Y-70716904D01*
X102576333Y-70669285D01*
X102481095Y-70621666D01*
X102385857Y-70621666D01*
X102290619Y-70669285D01*
X102243000Y-70716904D01*
X102195380Y-70812142D01*
X102195380Y-71050238D01*
X102243000Y-71193095D01*
X102528714Y-71621666D02*
X103528714Y-71621666D01*
X102576333Y-71621666D02*
X102528714Y-71716904D01*
X102528714Y-71907380D01*
X102576333Y-72002619D01*
X102623952Y-72050238D01*
X102719190Y-72097857D01*
X103004904Y-72097857D01*
X103100142Y-72050238D01*
X103147761Y-72002619D01*
X103195380Y-71907380D01*
X103195380Y-71716904D01*
X103147761Y-71621666D01*
X103195380Y-72669285D02*
X103147761Y-72574047D01*
X103052523Y-72526428D01*
X102195380Y-72526428D01*
X103195380Y-73050238D02*
X102528714Y-73050238D01*
X102195380Y-73050238D02*
X102243000Y-73002619D01*
X102290619Y-73050238D01*
X102243000Y-73097857D01*
X102195380Y-73050238D01*
X102290619Y-73050238D01*
X102528714Y-73383571D02*
X102528714Y-73764523D01*
X102195380Y-73526428D02*
X103052523Y-73526428D01*
X103147761Y-73574047D01*
X103195380Y-73669285D01*
X103195380Y-73764523D01*
X103195380Y-74859761D02*
X102195380Y-74859761D01*
X102195380Y-75240714D01*
X102243000Y-75335952D01*
X102290619Y-75383571D01*
X102385857Y-75431190D01*
X102528714Y-75431190D01*
X102623952Y-75383571D01*
X102671571Y-75335952D01*
X102719190Y-75240714D01*
X102719190Y-74859761D01*
X103100142Y-76431190D02*
X103147761Y-76383571D01*
X103195380Y-76240714D01*
X103195380Y-76145476D01*
X103147761Y-76002619D01*
X103052523Y-75907380D01*
X102957285Y-75859761D01*
X102766809Y-75812142D01*
X102623952Y-75812142D01*
X102433476Y-75859761D01*
X102338238Y-75907380D01*
X102243000Y-76002619D01*
X102195380Y-76145476D01*
X102195380Y-76240714D01*
X102243000Y-76383571D01*
X102290619Y-76431190D01*
X102671571Y-77193095D02*
X102719190Y-77335952D01*
X102766809Y-77383571D01*
X102862047Y-77431190D01*
X103004904Y-77431190D01*
X103100142Y-77383571D01*
X103147761Y-77335952D01*
X103195380Y-77240714D01*
X103195380Y-76859761D01*
X102195380Y-76859761D01*
X102195380Y-77193095D01*
X102243000Y-77288333D01*
X102290619Y-77335952D01*
X102385857Y-77383571D01*
X102481095Y-77383571D01*
X102576333Y-77335952D01*
X102623952Y-77288333D01*
X102671571Y-77193095D01*
X102671571Y-76859761D01*
X103195380Y-79050238D02*
X102195380Y-79050238D01*
X103147761Y-79050238D02*
X103195380Y-78954999D01*
X103195380Y-78764523D01*
X103147761Y-78669285D01*
X103100142Y-78621666D01*
X103004904Y-78574047D01*
X102719190Y-78574047D01*
X102623952Y-78621666D01*
X102576333Y-78669285D01*
X102528714Y-78764523D01*
X102528714Y-78954999D01*
X102576333Y-79050238D01*
X103147761Y-79907380D02*
X103195380Y-79812142D01*
X103195380Y-79621666D01*
X103147761Y-79526428D01*
X103052523Y-79478809D01*
X102671571Y-79478809D01*
X102576333Y-79526428D01*
X102528714Y-79621666D01*
X102528714Y-79812142D01*
X102576333Y-79907380D01*
X102671571Y-79954999D01*
X102766809Y-79954999D01*
X102862047Y-79478809D01*
X103147761Y-80335952D02*
X103195380Y-80431190D01*
X103195380Y-80621666D01*
X103147761Y-80716904D01*
X103052523Y-80764523D01*
X103004904Y-80764523D01*
X102909666Y-80716904D01*
X102862047Y-80621666D01*
X102862047Y-80478809D01*
X102814428Y-80383571D01*
X102719190Y-80335952D01*
X102671571Y-80335952D01*
X102576333Y-80383571D01*
X102528714Y-80478809D01*
X102528714Y-80621666D01*
X102576333Y-80716904D01*
X103195380Y-81193095D02*
X102528714Y-81193095D01*
X102195380Y-81193095D02*
X102243000Y-81145476D01*
X102290619Y-81193095D01*
X102243000Y-81240714D01*
X102195380Y-81193095D01*
X102290619Y-81193095D01*
X102528714Y-82097857D02*
X103338238Y-82097857D01*
X103433476Y-82050238D01*
X103481095Y-82002619D01*
X103528714Y-81907380D01*
X103528714Y-81764523D01*
X103481095Y-81669285D01*
X103147761Y-82097857D02*
X103195380Y-82002619D01*
X103195380Y-81812142D01*
X103147761Y-81716904D01*
X103100142Y-81669285D01*
X103004904Y-81621666D01*
X102719190Y-81621666D01*
X102623952Y-81669285D01*
X102576333Y-81716904D01*
X102528714Y-81812142D01*
X102528714Y-82002619D01*
X102576333Y-82097857D01*
X102528714Y-82574047D02*
X103195380Y-82574047D01*
X102623952Y-82574047D02*
X102576333Y-82621666D01*
X102528714Y-82716904D01*
X102528714Y-82859761D01*
X102576333Y-82954999D01*
X102671571Y-83002619D01*
X103195380Y-83002619D01*
X103147761Y-83859761D02*
X103195380Y-83764523D01*
X103195380Y-83574047D01*
X103147761Y-83478809D01*
X103052523Y-83431190D01*
X102671571Y-83431190D01*
X102576333Y-83478809D01*
X102528714Y-83574047D01*
X102528714Y-83764523D01*
X102576333Y-83859761D01*
X102671571Y-83907380D01*
X102766809Y-83907380D01*
X102862047Y-83431190D01*
X103195380Y-84764523D02*
X102195380Y-84764523D01*
X103147761Y-84764523D02*
X103195380Y-84669285D01*
X103195380Y-84478809D01*
X103147761Y-84383571D01*
X103100142Y-84335952D01*
X103004904Y-84288333D01*
X102719190Y-84288333D01*
X102623952Y-84335952D01*
X102576333Y-84383571D01*
X102528714Y-84478809D01*
X102528714Y-84669285D01*
X102576333Y-84764523D01*
X103195380Y-86002619D02*
X102195380Y-86002619D01*
X102576333Y-86002619D02*
X102528714Y-86097857D01*
X102528714Y-86288333D01*
X102576333Y-86383571D01*
X102623952Y-86431190D01*
X102719190Y-86478809D01*
X103004904Y-86478809D01*
X103100142Y-86431190D01*
X103147761Y-86383571D01*
X103195380Y-86288333D01*
X103195380Y-86097857D01*
X103147761Y-86002619D01*
X102528714Y-86812142D02*
X103195380Y-87050238D01*
X102528714Y-87288333D02*
X103195380Y-87050238D01*
X103433476Y-86954999D01*
X103481095Y-86907380D01*
X103528714Y-86812142D01*
X103195380Y-88431190D02*
X102195380Y-88431190D01*
X103195380Y-88859761D02*
X102671571Y-88859761D01*
X102576333Y-88812142D01*
X102528714Y-88716904D01*
X102528714Y-88574047D01*
X102576333Y-88478809D01*
X102623952Y-88431190D01*
X103195380Y-89764523D02*
X102671571Y-89764523D01*
X102576333Y-89716904D01*
X102528714Y-89621666D01*
X102528714Y-89431190D01*
X102576333Y-89335952D01*
X103147761Y-89764523D02*
X103195380Y-89669285D01*
X103195380Y-89431190D01*
X103147761Y-89335952D01*
X103052523Y-89288333D01*
X102957285Y-89288333D01*
X102862047Y-89335952D01*
X102814428Y-89431190D01*
X102814428Y-89669285D01*
X102766809Y-89764523D01*
X103195380Y-90240714D02*
X102528714Y-90240714D01*
X102719190Y-90240714D02*
X102623952Y-90288333D01*
X102576333Y-90335952D01*
X102528714Y-90431190D01*
X102528714Y-90526428D01*
X103147761Y-90812142D02*
X103195380Y-90907380D01*
X103195380Y-91097857D01*
X103147761Y-91193095D01*
X103052523Y-91240714D01*
X103004904Y-91240714D01*
X102909666Y-91193095D01*
X102862047Y-91097857D01*
X102862047Y-90954999D01*
X102814428Y-90859761D01*
X102719190Y-90812142D01*
X102671571Y-90812142D01*
X102576333Y-90859761D01*
X102528714Y-90954999D01*
X102528714Y-91097857D01*
X102576333Y-91193095D01*
X103195380Y-91669285D02*
X102195380Y-91669285D01*
X103195380Y-92097857D02*
X102671571Y-92097857D01*
X102576333Y-92050238D01*
X102528714Y-91954999D01*
X102528714Y-91812142D01*
X102576333Y-91716904D01*
X102623952Y-91669285D01*
X103195380Y-92574047D02*
X102528714Y-92574047D01*
X102195380Y-92574047D02*
X102243000Y-92526428D01*
X102290619Y-92574047D01*
X102243000Y-92621666D01*
X102195380Y-92574047D01*
X102290619Y-92574047D01*
X102528714Y-92907380D02*
X102528714Y-93288333D01*
X102195380Y-93050238D02*
X103052523Y-93050238D01*
X103147761Y-93097857D01*
X103195380Y-93193095D01*
X103195380Y-93288333D01*
X102528714Y-94050238D02*
X103338238Y-94050238D01*
X103433476Y-94002619D01*
X103481095Y-93954999D01*
X103528714Y-93859761D01*
X103528714Y-93716904D01*
X103481095Y-93621666D01*
X103147761Y-94050238D02*
X103195380Y-93954999D01*
X103195380Y-93764523D01*
X103147761Y-93669285D01*
X103100142Y-93621666D01*
X103004904Y-93574047D01*
X102719190Y-93574047D01*
X102623952Y-93621666D01*
X102576333Y-93669285D01*
X102528714Y-93764523D01*
X102528714Y-93954999D01*
X102576333Y-94050238D01*
X103195380Y-94669285D02*
X103147761Y-94574047D01*
X103100142Y-94526428D01*
X103004904Y-94478809D01*
X102719190Y-94478809D01*
X102623952Y-94526428D01*
X102576333Y-94574047D01*
X102528714Y-94669285D01*
X102528714Y-94812142D01*
X102576333Y-94907380D01*
X102623952Y-94954999D01*
X102719190Y-95002619D01*
X103004904Y-95002619D01*
X103100142Y-94954999D01*
X103147761Y-94907380D01*
X103195380Y-94812142D01*
X103195380Y-94669285D01*
X103147761Y-95812142D02*
X103195380Y-95716904D01*
X103195380Y-95526428D01*
X103147761Y-95431190D01*
X103052523Y-95383571D01*
X102671571Y-95383571D01*
X102576333Y-95431190D01*
X102528714Y-95526428D01*
X102528714Y-95716904D01*
X102576333Y-95812142D01*
X102671571Y-95859761D01*
X102766809Y-95859761D01*
X102862047Y-95383571D01*
X103195380Y-96431190D02*
X103147761Y-96335952D01*
X103052523Y-96288333D01*
X102195380Y-96288333D01*
X103195380Y-96859761D02*
X103195380Y-97050238D01*
X103147761Y-97145476D01*
X103100142Y-97193095D01*
X102957285Y-97288333D01*
X102766809Y-97335952D01*
X102385857Y-97335952D01*
X102290619Y-97288333D01*
X102243000Y-97240714D01*
X102195380Y-97145476D01*
X102195380Y-96954999D01*
X102243000Y-96859761D01*
X102290619Y-96812142D01*
X102385857Y-96764523D01*
X102623952Y-96764523D01*
X102719190Y-96812142D01*
X102766809Y-96859761D01*
X102814428Y-96954999D01*
X102814428Y-97145476D01*
X102766809Y-97240714D01*
X102719190Y-97288333D01*
X102623952Y-97335952D01*
X102195380Y-98193095D02*
X102195380Y-98002619D01*
X102243000Y-97907380D01*
X102290619Y-97859761D01*
X102433476Y-97764523D01*
X102623952Y-97716904D01*
X103004904Y-97716904D01*
X103100142Y-97764523D01*
X103147761Y-97812142D01*
X103195380Y-97907380D01*
X103195380Y-98097857D01*
X103147761Y-98193095D01*
X103100142Y-98240714D01*
X103004904Y-98288333D01*
X102766809Y-98288333D01*
X102671571Y-98240714D01*
X102623952Y-98193095D01*
X102576333Y-98097857D01*
X102576333Y-97907380D01*
X102623952Y-97812142D01*
X102671571Y-97764523D01*
X102766809Y-97716904D01*
D10*
X174735000Y-99758571D02*
X174735000Y-98258571D01*
X174163571Y-98258571D01*
X174020714Y-98330000D01*
X173949285Y-98401428D01*
X173877857Y-98544285D01*
X173877857Y-98758571D01*
X173949285Y-98901428D01*
X174020714Y-98972857D01*
X174163571Y-99044285D01*
X174735000Y-99044285D01*
X173449285Y-98758571D02*
X172877857Y-98758571D01*
X173235000Y-98258571D02*
X173235000Y-99544285D01*
X173163571Y-99687142D01*
X173020714Y-99758571D01*
X172877857Y-99758571D01*
X171806428Y-99687142D02*
X171949285Y-99758571D01*
X172235000Y-99758571D01*
X172377857Y-99687142D01*
X172449285Y-99544285D01*
X172449285Y-98972857D01*
X172377857Y-98830000D01*
X172235000Y-98758571D01*
X171949285Y-98758571D01*
X171806428Y-98830000D01*
X171735000Y-98972857D01*
X171735000Y-99115714D01*
X172449285Y-99258571D01*
X171092142Y-99758571D02*
X171092142Y-98758571D01*
X171092142Y-99044285D02*
X171020714Y-98901428D01*
X170949285Y-98830000D01*
X170806428Y-98758571D01*
X170663571Y-98758571D01*
X169949285Y-99758571D02*
X170092142Y-99687142D01*
X170163571Y-99615714D01*
X170235000Y-99472857D01*
X170235000Y-99044285D01*
X170163571Y-98901428D01*
X170092142Y-98830000D01*
X169949285Y-98758571D01*
X169735000Y-98758571D01*
X169592142Y-98830000D01*
X169520714Y-98901428D01*
X169449285Y-99044285D01*
X169449285Y-99472857D01*
X169520714Y-99615714D01*
X169592142Y-99687142D01*
X169735000Y-99758571D01*
X169949285Y-99758571D01*
X168806428Y-98758571D02*
X168806428Y-99758571D01*
X168806428Y-98901428D02*
X168735000Y-98830000D01*
X168592142Y-98758571D01*
X168377857Y-98758571D01*
X168235000Y-98830000D01*
X168163571Y-98972857D01*
X168163571Y-99758571D01*
X166306428Y-99758571D02*
X166306428Y-98258571D01*
X165449285Y-99758571D02*
X166092142Y-98901428D01*
X165449285Y-98258571D02*
X166306428Y-99115714D01*
X164235000Y-99687142D02*
X164377857Y-99758571D01*
X164663571Y-99758571D01*
X164806428Y-99687142D01*
X164877857Y-99544285D01*
X164877857Y-98972857D01*
X164806428Y-98830000D01*
X164663571Y-98758571D01*
X164377857Y-98758571D01*
X164235000Y-98830000D01*
X164163571Y-98972857D01*
X164163571Y-99115714D01*
X164877857Y-99258571D01*
X163663571Y-98758571D02*
X163306428Y-99758571D01*
X162949285Y-98758571D02*
X163306428Y-99758571D01*
X163449285Y-100115714D01*
X163520714Y-100187142D01*
X163663571Y-100258571D01*
X162377857Y-99758571D02*
X162377857Y-98258571D01*
X162377857Y-98830000D02*
X162235000Y-98758571D01*
X161949285Y-98758571D01*
X161806428Y-98830000D01*
X161735000Y-98901428D01*
X161663571Y-99044285D01*
X161663571Y-99472857D01*
X161735000Y-99615714D01*
X161806428Y-99687142D01*
X161949285Y-99758571D01*
X162235000Y-99758571D01*
X162377857Y-99687142D01*
X160806428Y-99758571D02*
X160949285Y-99687142D01*
X161020714Y-99615714D01*
X161092142Y-99472857D01*
X161092142Y-99044285D01*
X161020714Y-98901428D01*
X160949285Y-98830000D01*
X160806428Y-98758571D01*
X160592142Y-98758571D01*
X160449285Y-98830000D01*
X160377857Y-98901428D01*
X160306428Y-99044285D01*
X160306428Y-99472857D01*
X160377857Y-99615714D01*
X160449285Y-99687142D01*
X160592142Y-99758571D01*
X160806428Y-99758571D01*
X159020714Y-99758571D02*
X159020714Y-98972857D01*
X159092142Y-98830000D01*
X159235000Y-98758571D01*
X159520714Y-98758571D01*
X159663571Y-98830000D01*
X159020714Y-99687142D02*
X159163571Y-99758571D01*
X159520714Y-99758571D01*
X159663571Y-99687142D01*
X159735000Y-99544285D01*
X159735000Y-99401428D01*
X159663571Y-99258571D01*
X159520714Y-99187142D01*
X159163571Y-99187142D01*
X159020714Y-99115714D01*
X158306428Y-99758571D02*
X158306428Y-98758571D01*
X158306428Y-99044285D02*
X158235000Y-98901428D01*
X158163571Y-98830000D01*
X158020714Y-98758571D01*
X157877857Y-98758571D01*
X156735000Y-99758571D02*
X156735000Y-98258571D01*
X156735000Y-99687142D02*
X156877857Y-99758571D01*
X157163571Y-99758571D01*
X157306428Y-99687142D01*
X157377857Y-99615714D01*
X157449285Y-99472857D01*
X157449285Y-99044285D01*
X157377857Y-98901428D01*
X157306428Y-98830000D01*
X157163571Y-98758571D01*
X156877857Y-98758571D01*
X156735000Y-98830000D01*
X175485000Y-102258571D02*
X175485000Y-100758571D01*
X175485000Y-102187142D02*
X175627857Y-102258571D01*
X175913571Y-102258571D01*
X176056428Y-102187142D01*
X176127857Y-102115714D01*
X176199285Y-101972857D01*
X176199285Y-101544285D01*
X176127857Y-101401428D01*
X176056428Y-101330000D01*
X175913571Y-101258571D01*
X175627857Y-101258571D01*
X175485000Y-101330000D01*
X174199285Y-102187142D02*
X174342142Y-102258571D01*
X174627857Y-102258571D01*
X174770714Y-102187142D01*
X174842142Y-102044285D01*
X174842142Y-101472857D01*
X174770714Y-101330000D01*
X174627857Y-101258571D01*
X174342142Y-101258571D01*
X174199285Y-101330000D01*
X174127857Y-101472857D01*
X174127857Y-101615714D01*
X174842142Y-101758571D01*
X173556428Y-102187142D02*
X173413571Y-102258571D01*
X173127857Y-102258571D01*
X172985000Y-102187142D01*
X172913571Y-102044285D01*
X172913571Y-101972857D01*
X172985000Y-101830000D01*
X173127857Y-101758571D01*
X173342142Y-101758571D01*
X173485000Y-101687142D01*
X173556428Y-101544285D01*
X173556428Y-101472857D01*
X173485000Y-101330000D01*
X173342142Y-101258571D01*
X173127857Y-101258571D01*
X172985000Y-101330000D01*
X172270714Y-102258571D02*
X172270714Y-101258571D01*
X172270714Y-100758571D02*
X172342142Y-100830000D01*
X172270714Y-100901428D01*
X172199285Y-100830000D01*
X172270714Y-100758571D01*
X172270714Y-100901428D01*
X170913571Y-101258571D02*
X170913571Y-102472857D01*
X170985000Y-102615714D01*
X171056428Y-102687142D01*
X171199285Y-102758571D01*
X171413571Y-102758571D01*
X171556428Y-102687142D01*
X170913571Y-102187142D02*
X171056428Y-102258571D01*
X171342142Y-102258571D01*
X171485000Y-102187142D01*
X171556428Y-102115714D01*
X171627857Y-101972857D01*
X171627857Y-101544285D01*
X171556428Y-101401428D01*
X171485000Y-101330000D01*
X171342142Y-101258571D01*
X171056428Y-101258571D01*
X170913571Y-101330000D01*
X170199285Y-101258571D02*
X170199285Y-102258571D01*
X170199285Y-101401428D02*
X170127857Y-101330000D01*
X169985000Y-101258571D01*
X169770714Y-101258571D01*
X169627857Y-101330000D01*
X169556428Y-101472857D01*
X169556428Y-102258571D01*
X168270714Y-102187142D02*
X168413571Y-102258571D01*
X168699285Y-102258571D01*
X168842142Y-102187142D01*
X168913571Y-102044285D01*
X168913571Y-101472857D01*
X168842142Y-101330000D01*
X168699285Y-101258571D01*
X168413571Y-101258571D01*
X168270714Y-101330000D01*
X168199285Y-101472857D01*
X168199285Y-101615714D01*
X168913571Y-101758571D01*
X166913571Y-102258571D02*
X166913571Y-100758571D01*
X166913571Y-102187142D02*
X167056428Y-102258571D01*
X167342142Y-102258571D01*
X167485000Y-102187142D01*
X167556428Y-102115714D01*
X167627857Y-101972857D01*
X167627857Y-101544285D01*
X167556428Y-101401428D01*
X167485000Y-101330000D01*
X167342142Y-101258571D01*
X167056428Y-101258571D01*
X166913571Y-101330000D01*
X165056428Y-102258571D02*
X165056428Y-100758571D01*
X165056428Y-101330000D02*
X164913571Y-101258571D01*
X164627857Y-101258571D01*
X164485000Y-101330000D01*
X164413571Y-101401428D01*
X164342142Y-101544285D01*
X164342142Y-101972857D01*
X164413571Y-102115714D01*
X164485000Y-102187142D01*
X164627857Y-102258571D01*
X164913571Y-102258571D01*
X165056428Y-102187142D01*
X163842142Y-101258571D02*
X163485000Y-102258571D01*
X163127857Y-101258571D02*
X163485000Y-102258571D01*
X163627857Y-102615714D01*
X163699285Y-102687142D01*
X163842142Y-102758571D01*
X160913571Y-101472857D02*
X161413571Y-101472857D01*
X161413571Y-102258571D02*
X161413571Y-100758571D01*
X160699285Y-100758571D01*
X160199285Y-102187142D02*
X159985000Y-102258571D01*
X159627857Y-102258571D01*
X159485000Y-102187142D01*
X159413571Y-102115714D01*
X159342142Y-101972857D01*
X159342142Y-101830000D01*
X159413571Y-101687142D01*
X159485000Y-101615714D01*
X159627857Y-101544285D01*
X159913571Y-101472857D01*
X160056428Y-101401428D01*
X160127857Y-101330000D01*
X160199285Y-101187142D01*
X160199285Y-101044285D01*
X160127857Y-100901428D01*
X160056428Y-100830000D01*
X159913571Y-100758571D01*
X159556428Y-100758571D01*
X159342142Y-100830000D01*
X158056428Y-101258571D02*
X158056428Y-102258571D01*
X158699285Y-101258571D02*
X158699285Y-102044285D01*
X158627857Y-102187142D01*
X158485000Y-102258571D01*
X158270714Y-102258571D01*
X158127857Y-102187142D01*
X158056428Y-102115714D01*
X157342142Y-101258571D02*
X157342142Y-102258571D01*
X157342142Y-101401428D02*
X157270714Y-101330000D01*
X157127857Y-101258571D01*
X156913571Y-101258571D01*
X156770714Y-101330000D01*
X156699285Y-101472857D01*
X156699285Y-102258571D01*
X155342142Y-102258571D02*
X155342142Y-100758571D01*
X155342142Y-102187142D02*
X155485000Y-102258571D01*
X155770714Y-102258571D01*
X155913571Y-102187142D01*
X155985000Y-102115714D01*
X156056428Y-101972857D01*
X156056428Y-101544285D01*
X155985000Y-101401428D01*
X155913571Y-101330000D01*
X155770714Y-101258571D01*
X155485000Y-101258571D01*
X155342142Y-101330000D01*
D11*
X114531309Y-101217385D02*
X114531309Y-100407861D01*
X114483690Y-100312623D01*
X114436071Y-100265004D01*
X114340833Y-100217385D01*
X114197976Y-100217385D01*
X114102738Y-100265004D01*
X114531309Y-100598338D02*
X114436071Y-100550719D01*
X114245595Y-100550719D01*
X114150357Y-100598338D01*
X114102738Y-100645957D01*
X114055119Y-100741195D01*
X114055119Y-101026909D01*
X114102738Y-101122147D01*
X114150357Y-101169766D01*
X114245595Y-101217385D01*
X114436071Y-101217385D01*
X114531309Y-101169766D01*
X115007500Y-100550719D02*
X115007500Y-101217385D01*
X115007500Y-101550719D02*
X114959880Y-101503100D01*
X115007500Y-101455480D01*
X115055119Y-101503100D01*
X115007500Y-101550719D01*
X115007500Y-101455480D01*
X115340833Y-101217385D02*
X115721785Y-101217385D01*
X115483690Y-101550719D02*
X115483690Y-100693576D01*
X115531309Y-100598338D01*
X115626547Y-100550719D01*
X115721785Y-100550719D01*
X116055119Y-100550719D02*
X116055119Y-101550719D01*
X116483690Y-100550719D02*
X116483690Y-101074528D01*
X116436071Y-101169766D01*
X116340833Y-101217385D01*
X116197976Y-101217385D01*
X116102738Y-101169766D01*
X116055119Y-101122147D01*
X117388452Y-101217385D02*
X117388452Y-100550719D01*
X116959880Y-101217385D02*
X116959880Y-100693576D01*
X117007500Y-100598338D01*
X117102738Y-100550719D01*
X117245595Y-100550719D01*
X117340833Y-100598338D01*
X117388452Y-100645957D01*
X117864642Y-100550719D02*
X117864642Y-101550719D01*
X117864642Y-101169766D02*
X117959880Y-101217385D01*
X118150357Y-101217385D01*
X118245595Y-101169766D01*
X118293214Y-101122147D01*
X118340833Y-101026909D01*
X118340833Y-100741195D01*
X118293214Y-100645957D01*
X118245595Y-100598338D01*
X118150357Y-100550719D01*
X117959880Y-100550719D01*
X117864642Y-100598338D01*
X118769404Y-100645957D02*
X118817023Y-100598338D01*
X118769404Y-100550719D01*
X118721785Y-100598338D01*
X118769404Y-100645957D01*
X118769404Y-100550719D01*
X119674166Y-100598338D02*
X119578928Y-100550719D01*
X119388452Y-100550719D01*
X119293214Y-100598338D01*
X119245595Y-100645957D01*
X119197976Y-100741195D01*
X119197976Y-101026909D01*
X119245595Y-101122147D01*
X119293214Y-101169766D01*
X119388452Y-101217385D01*
X119578928Y-101217385D01*
X119674166Y-101169766D01*
X120245595Y-100550719D02*
X120150357Y-100598338D01*
X120102738Y-100645957D01*
X120055119Y-100741195D01*
X120055119Y-101026909D01*
X120102738Y-101122147D01*
X120150357Y-101169766D01*
X120245595Y-101217385D01*
X120388452Y-101217385D01*
X120483690Y-101169766D01*
X120531309Y-101122147D01*
X120578928Y-101026909D01*
X120578928Y-100741195D01*
X120531309Y-100645957D01*
X120483690Y-100598338D01*
X120388452Y-100550719D01*
X120245595Y-100550719D01*
X121007500Y-100550719D02*
X121007500Y-101217385D01*
X121007500Y-101122147D02*
X121055119Y-101169766D01*
X121150357Y-101217385D01*
X121293214Y-101217385D01*
X121388452Y-101169766D01*
X121436071Y-101074528D01*
X121436071Y-100550719D01*
X121436071Y-101074528D02*
X121483690Y-101169766D01*
X121578928Y-101217385D01*
X121721785Y-101217385D01*
X121817023Y-101169766D01*
X121864642Y-101074528D01*
X121864642Y-100550719D01*
X123055119Y-101598338D02*
X122197976Y-100312623D01*
X123388452Y-100550719D02*
X123388452Y-101550719D01*
X123483690Y-100931671D02*
X123769404Y-100550719D01*
X123769404Y-101217385D02*
X123388452Y-100836433D01*
X124197976Y-100550719D02*
X124197976Y-101217385D01*
X124197976Y-101026909D02*
X124245595Y-101122147D01*
X124293214Y-101169766D01*
X124388452Y-101217385D01*
X124483690Y-101217385D01*
X125245595Y-100550719D02*
X125245595Y-101074528D01*
X125197976Y-101169766D01*
X125102738Y-101217385D01*
X124912261Y-101217385D01*
X124817023Y-101169766D01*
X125245595Y-100598338D02*
X125150357Y-100550719D01*
X124912261Y-100550719D01*
X124817023Y-100598338D01*
X124769404Y-100693576D01*
X124769404Y-100788814D01*
X124817023Y-100884052D01*
X124912261Y-100931671D01*
X125150357Y-100931671D01*
X125245595Y-100979290D01*
X125721785Y-100550719D02*
X125721785Y-101550719D01*
X125817023Y-100931671D02*
X126102738Y-100550719D01*
X126102738Y-101217385D02*
X125721785Y-100836433D01*
X126912261Y-100598338D02*
X126817023Y-100550719D01*
X126626547Y-100550719D01*
X126531309Y-100598338D01*
X126483690Y-100693576D01*
X126483690Y-101074528D01*
X126531309Y-101169766D01*
X126626547Y-101217385D01*
X126817023Y-101217385D01*
X126912261Y-101169766D01*
X126959880Y-101074528D01*
X126959880Y-100979290D01*
X126483690Y-100884052D01*
X127388452Y-101217385D02*
X127388452Y-100550719D01*
X127388452Y-101122147D02*
X127436071Y-101169766D01*
X127531309Y-101217385D01*
X127674166Y-101217385D01*
X127769404Y-101169766D01*
X127817023Y-101074528D01*
X127817023Y-100550719D01*
X128293214Y-100931671D02*
X129055119Y-100931671D01*
X129531309Y-101217385D02*
X129531309Y-100360242D01*
X129483690Y-100265004D01*
X129388452Y-100217385D01*
X129340833Y-100217385D01*
X129531309Y-101550719D02*
X129483690Y-101503100D01*
X129531309Y-101455480D01*
X129578928Y-101503100D01*
X129531309Y-101550719D01*
X129531309Y-101455480D01*
X130150357Y-100550719D02*
X130055119Y-100598338D01*
X130007500Y-100645957D01*
X129959880Y-100741195D01*
X129959880Y-101026909D01*
X130007500Y-101122147D01*
X130055119Y-101169766D01*
X130150357Y-101217385D01*
X130293214Y-101217385D01*
X130388452Y-101169766D01*
X130436071Y-101122147D01*
X130483690Y-101026909D01*
X130483690Y-100741195D01*
X130436071Y-100645957D01*
X130388452Y-100598338D01*
X130293214Y-100550719D01*
X130150357Y-100550719D01*
X130912261Y-100550719D02*
X130912261Y-101550719D01*
X131007500Y-100931671D02*
X131293214Y-100550719D01*
X131293214Y-101217385D02*
X130912261Y-100836433D01*
X132102738Y-100598338D02*
X132007500Y-100550719D01*
X131817023Y-100550719D01*
X131721785Y-100598338D01*
X131674166Y-100693576D01*
X131674166Y-101074528D01*
X131721785Y-101169766D01*
X131817023Y-101217385D01*
X132007500Y-101217385D01*
X132102738Y-101169766D01*
X132150357Y-101074528D01*
X132150357Y-100979290D01*
X131674166Y-100884052D01*
X132531309Y-100598338D02*
X132626547Y-100550719D01*
X132817023Y-100550719D01*
X132912261Y-100598338D01*
X132959880Y-100693576D01*
X132959880Y-100741195D01*
X132912261Y-100836433D01*
X132817023Y-100884052D01*
X132674166Y-100884052D01*
X132578928Y-100931671D01*
X132531309Y-101026909D01*
X132531309Y-101074528D01*
X132578928Y-101169766D01*
X132674166Y-101217385D01*
X132817023Y-101217385D01*
X132912261Y-101169766D01*
X178830238Y-104306714D02*
X178830238Y-105116238D01*
X178877857Y-105211476D01*
X178925476Y-105259095D01*
X179020714Y-105306714D01*
X179163571Y-105306714D01*
X179258809Y-105259095D01*
X178830238Y-104925761D02*
X178925476Y-104973380D01*
X179115952Y-104973380D01*
X179211190Y-104925761D01*
X179258809Y-104878142D01*
X179306428Y-104782904D01*
X179306428Y-104497190D01*
X179258809Y-104401952D01*
X179211190Y-104354333D01*
X179115952Y-104306714D01*
X178925476Y-104306714D01*
X178830238Y-104354333D01*
X178354047Y-104973380D02*
X178354047Y-104306714D01*
X178354047Y-103973380D02*
X178401666Y-104021000D01*
X178354047Y-104068619D01*
X178306428Y-104021000D01*
X178354047Y-103973380D01*
X178354047Y-104068619D01*
X178020714Y-104306714D02*
X177639761Y-104306714D01*
X177877857Y-103973380D02*
X177877857Y-104830523D01*
X177830238Y-104925761D01*
X177735000Y-104973380D01*
X177639761Y-104973380D01*
X177306428Y-104973380D02*
X177306428Y-103973380D01*
X176877857Y-104973380D02*
X176877857Y-104449571D01*
X176925476Y-104354333D01*
X177020714Y-104306714D01*
X177163571Y-104306714D01*
X177258809Y-104354333D01*
X177306428Y-104401952D01*
X175973095Y-104306714D02*
X175973095Y-104973380D01*
X176401666Y-104306714D02*
X176401666Y-104830523D01*
X176354047Y-104925761D01*
X176258809Y-104973380D01*
X176115952Y-104973380D01*
X176020714Y-104925761D01*
X175973095Y-104878142D01*
X175496904Y-104973380D02*
X175496904Y-103973380D01*
X175496904Y-104354333D02*
X175401666Y-104306714D01*
X175211190Y-104306714D01*
X175115952Y-104354333D01*
X175068333Y-104401952D01*
X175020714Y-104497190D01*
X175020714Y-104782904D01*
X175068333Y-104878142D01*
X175115952Y-104925761D01*
X175211190Y-104973380D01*
X175401666Y-104973380D01*
X175496904Y-104925761D01*
X174592142Y-104878142D02*
X174544523Y-104925761D01*
X174592142Y-104973380D01*
X174639761Y-104925761D01*
X174592142Y-104878142D01*
X174592142Y-104973380D01*
X173687380Y-104925761D02*
X173782619Y-104973380D01*
X173973095Y-104973380D01*
X174068333Y-104925761D01*
X174115952Y-104878142D01*
X174163571Y-104782904D01*
X174163571Y-104497190D01*
X174115952Y-104401952D01*
X174068333Y-104354333D01*
X173973095Y-104306714D01*
X173782619Y-104306714D01*
X173687380Y-104354333D01*
X173115952Y-104973380D02*
X173211190Y-104925761D01*
X173258809Y-104878142D01*
X173306428Y-104782904D01*
X173306428Y-104497190D01*
X173258809Y-104401952D01*
X173211190Y-104354333D01*
X173115952Y-104306714D01*
X172973095Y-104306714D01*
X172877857Y-104354333D01*
X172830238Y-104401952D01*
X172782619Y-104497190D01*
X172782619Y-104782904D01*
X172830238Y-104878142D01*
X172877857Y-104925761D01*
X172973095Y-104973380D01*
X173115952Y-104973380D01*
X172354047Y-104973380D02*
X172354047Y-104306714D01*
X172354047Y-104401952D02*
X172306428Y-104354333D01*
X172211190Y-104306714D01*
X172068333Y-104306714D01*
X171973095Y-104354333D01*
X171925476Y-104449571D01*
X171925476Y-104973380D01*
X171925476Y-104449571D02*
X171877857Y-104354333D01*
X171782619Y-104306714D01*
X171639761Y-104306714D01*
X171544523Y-104354333D01*
X171496904Y-104449571D01*
X171496904Y-104973380D01*
X170306428Y-103925761D02*
X171163571Y-105211476D01*
X169639761Y-104449571D02*
X169973095Y-104449571D01*
X169973095Y-104973380D02*
X169973095Y-103973380D01*
X169496904Y-103973380D01*
X169163571Y-104925761D02*
X169020714Y-104973380D01*
X168782619Y-104973380D01*
X168687380Y-104925761D01*
X168639761Y-104878142D01*
X168592142Y-104782904D01*
X168592142Y-104687666D01*
X168639761Y-104592428D01*
X168687380Y-104544809D01*
X168782619Y-104497190D01*
X168973095Y-104449571D01*
X169068333Y-104401952D01*
X169115952Y-104354333D01*
X169163571Y-104259095D01*
X169163571Y-104163857D01*
X169115952Y-104068619D01*
X169068333Y-104021000D01*
X168973095Y-103973380D01*
X168735000Y-103973380D01*
X168592142Y-104021000D01*
X167735000Y-104306714D02*
X167735000Y-104973380D01*
X168163571Y-104306714D02*
X168163571Y-104830523D01*
X168115952Y-104925761D01*
X168020714Y-104973380D01*
X167877857Y-104973380D01*
X167782619Y-104925761D01*
X167735000Y-104878142D01*
X167258809Y-104306714D02*
X167258809Y-104973380D01*
X167258809Y-104401952D02*
X167211190Y-104354333D01*
X167115952Y-104306714D01*
X166973095Y-104306714D01*
X166877857Y-104354333D01*
X166830238Y-104449571D01*
X166830238Y-104973380D01*
X165925476Y-104973380D02*
X165925476Y-103973380D01*
X165925476Y-104925761D02*
X166020714Y-104973380D01*
X166211190Y-104973380D01*
X166306428Y-104925761D01*
X166354047Y-104878142D01*
X166401666Y-104782904D01*
X166401666Y-104497190D01*
X166354047Y-104401952D01*
X166306428Y-104354333D01*
X166211190Y-104306714D01*
X166020714Y-104306714D01*
X165925476Y-104354333D01*
X164735000Y-103925761D02*
X165592142Y-105211476D01*
X164401666Y-104306714D02*
X164401666Y-105306714D01*
X164401666Y-104354333D02*
X164306428Y-104306714D01*
X164115952Y-104306714D01*
X164020714Y-104354333D01*
X163973095Y-104401952D01*
X163925476Y-104497190D01*
X163925476Y-104782904D01*
X163973095Y-104878142D01*
X164020714Y-104925761D01*
X164115952Y-104973380D01*
X164306428Y-104973380D01*
X164401666Y-104925761D01*
X163639761Y-104306714D02*
X163258809Y-104306714D01*
X163496904Y-103973380D02*
X163496904Y-104830523D01*
X163449285Y-104925761D01*
X163354047Y-104973380D01*
X163258809Y-104973380D01*
X162544523Y-104925761D02*
X162639761Y-104973380D01*
X162830238Y-104973380D01*
X162925476Y-104925761D01*
X162973095Y-104830523D01*
X162973095Y-104449571D01*
X162925476Y-104354333D01*
X162830238Y-104306714D01*
X162639761Y-104306714D01*
X162544523Y-104354333D01*
X162496904Y-104449571D01*
X162496904Y-104544809D01*
X162973095Y-104640047D01*
X162068333Y-104973380D02*
X162068333Y-104306714D01*
X162068333Y-104497190D02*
X162020714Y-104401952D01*
X161973095Y-104354333D01*
X161877857Y-104306714D01*
X161782619Y-104306714D01*
X161306428Y-104973380D02*
X161401666Y-104925761D01*
X161449285Y-104878142D01*
X161496904Y-104782904D01*
X161496904Y-104497190D01*
X161449285Y-104401952D01*
X161401666Y-104354333D01*
X161306428Y-104306714D01*
X161163571Y-104306714D01*
X161068333Y-104354333D01*
X161020714Y-104401952D01*
X160973095Y-104497190D01*
X160973095Y-104782904D01*
X161020714Y-104878142D01*
X161068333Y-104925761D01*
X161163571Y-104973380D01*
X161306428Y-104973380D01*
X160544523Y-104306714D02*
X160544523Y-104973380D01*
X160544523Y-104401952D02*
X160496904Y-104354333D01*
X160401666Y-104306714D01*
X160258809Y-104306714D01*
X160163571Y-104354333D01*
X160115952Y-104449571D01*
X160115952Y-104973380D01*
X159639761Y-104592428D02*
X158877857Y-104592428D01*
X158401666Y-104973380D02*
X158401666Y-103973380D01*
X158306428Y-104592428D02*
X158020714Y-104973380D01*
X158020714Y-104306714D02*
X158401666Y-104687666D01*
X157211190Y-104925761D02*
X157306428Y-104973380D01*
X157496904Y-104973380D01*
X157592142Y-104925761D01*
X157639761Y-104830523D01*
X157639761Y-104449571D01*
X157592142Y-104354333D01*
X157496904Y-104306714D01*
X157306428Y-104306714D01*
X157211190Y-104354333D01*
X157163571Y-104449571D01*
X157163571Y-104544809D01*
X157639761Y-104640047D01*
X156830238Y-104306714D02*
X156592142Y-104973380D01*
X156354047Y-104306714D02*
X156592142Y-104973380D01*
X156687380Y-105211476D01*
X156735000Y-105259095D01*
X156830238Y-105306714D01*
X155973095Y-104973380D02*
X155973095Y-103973380D01*
X155973095Y-104354333D02*
X155877857Y-104306714D01*
X155687380Y-104306714D01*
X155592142Y-104354333D01*
X155544523Y-104401952D01*
X155496904Y-104497190D01*
X155496904Y-104782904D01*
X155544523Y-104878142D01*
X155592142Y-104925761D01*
X155687380Y-104973380D01*
X155877857Y-104973380D01*
X155973095Y-104925761D01*
X154925476Y-104973380D02*
X155020714Y-104925761D01*
X155068333Y-104878142D01*
X155115952Y-104782904D01*
X155115952Y-104497190D01*
X155068333Y-104401952D01*
X155020714Y-104354333D01*
X154925476Y-104306714D01*
X154782619Y-104306714D01*
X154687380Y-104354333D01*
X154639761Y-104401952D01*
X154592142Y-104497190D01*
X154592142Y-104782904D01*
X154639761Y-104878142D01*
X154687380Y-104925761D01*
X154782619Y-104973380D01*
X154925476Y-104973380D01*
X153735000Y-104973380D02*
X153735000Y-104449571D01*
X153782619Y-104354333D01*
X153877857Y-104306714D01*
X154068333Y-104306714D01*
X154163571Y-104354333D01*
X153735000Y-104925761D02*
X153830238Y-104973380D01*
X154068333Y-104973380D01*
X154163571Y-104925761D01*
X154211190Y-104830523D01*
X154211190Y-104735285D01*
X154163571Y-104640047D01*
X154068333Y-104592428D01*
X153830238Y-104592428D01*
X153735000Y-104544809D01*
X153258809Y-104973380D02*
X153258809Y-104306714D01*
X153258809Y-104497190D02*
X153211190Y-104401952D01*
X153163571Y-104354333D01*
X153068333Y-104306714D01*
X152973095Y-104306714D01*
X152211190Y-104973380D02*
X152211190Y-103973380D01*
X152211190Y-104925761D02*
X152306428Y-104973380D01*
X152496904Y-104973380D01*
X152592142Y-104925761D01*
X152639761Y-104878142D01*
X152687380Y-104782904D01*
X152687380Y-104497190D01*
X152639761Y-104401952D01*
X152592142Y-104354333D01*
X152496904Y-104306714D01*
X152306428Y-104306714D01*
X152211190Y-104354333D01*
X111494752Y-103922485D02*
X111875704Y-103922485D01*
X111637609Y-103255819D02*
X111637609Y-104112961D01*
X111685228Y-104208200D01*
X111780466Y-104255819D01*
X111875704Y-104255819D01*
X112637609Y-103255819D02*
X112637609Y-103779628D01*
X112589990Y-103874866D01*
X112494752Y-103922485D01*
X112304276Y-103922485D01*
X112209038Y-103874866D01*
X112637609Y-103303438D02*
X112542371Y-103255819D01*
X112304276Y-103255819D01*
X112209038Y-103303438D01*
X112161419Y-103398676D01*
X112161419Y-103493914D01*
X112209038Y-103589152D01*
X112304276Y-103636771D01*
X112542371Y-103636771D01*
X112637609Y-103684390D01*
X113542371Y-103303438D02*
X113447133Y-103255819D01*
X113256657Y-103255819D01*
X113161419Y-103303438D01*
X113113800Y-103351057D01*
X113066180Y-103446295D01*
X113066180Y-103732009D01*
X113113800Y-103827247D01*
X113161419Y-103874866D01*
X113256657Y-103922485D01*
X113447133Y-103922485D01*
X113542371Y-103874866D01*
X114351895Y-103303438D02*
X114256657Y-103255819D01*
X114066180Y-103255819D01*
X113970942Y-103303438D01*
X113923323Y-103398676D01*
X113923323Y-103779628D01*
X113970942Y-103874866D01*
X114066180Y-103922485D01*
X114256657Y-103922485D01*
X114351895Y-103874866D01*
X114399514Y-103779628D01*
X114399514Y-103684390D01*
X113923323Y-103589152D01*
X114828085Y-103255819D02*
X114828085Y-104255819D01*
X114828085Y-103874866D02*
X114923323Y-103922485D01*
X115113800Y-103922485D01*
X115209038Y-103874866D01*
X115256657Y-103827247D01*
X115304276Y-103732009D01*
X115304276Y-103446295D01*
X115256657Y-103351057D01*
X115209038Y-103303438D01*
X115113800Y-103255819D01*
X114923323Y-103255819D01*
X114828085Y-103303438D01*
X115875704Y-103255819D02*
X115780466Y-103303438D01*
X115732847Y-103351057D01*
X115685228Y-103446295D01*
X115685228Y-103732009D01*
X115732847Y-103827247D01*
X115780466Y-103874866D01*
X115875704Y-103922485D01*
X116018561Y-103922485D01*
X116113800Y-103874866D01*
X116161419Y-103827247D01*
X116209038Y-103732009D01*
X116209038Y-103446295D01*
X116161419Y-103351057D01*
X116113800Y-103303438D01*
X116018561Y-103255819D01*
X115875704Y-103255819D01*
X116780466Y-103255819D02*
X116685228Y-103303438D01*
X116637609Y-103351057D01*
X116589990Y-103446295D01*
X116589990Y-103732009D01*
X116637609Y-103827247D01*
X116685228Y-103874866D01*
X116780466Y-103922485D01*
X116923323Y-103922485D01*
X117018561Y-103874866D01*
X117066180Y-103827247D01*
X117113800Y-103732009D01*
X117113800Y-103446295D01*
X117066180Y-103351057D01*
X117018561Y-103303438D01*
X116923323Y-103255819D01*
X116780466Y-103255819D01*
X117542371Y-103255819D02*
X117542371Y-104255819D01*
X117637609Y-103636771D02*
X117923323Y-103255819D01*
X117923323Y-103922485D02*
X117542371Y-103541533D01*
X118351895Y-103351057D02*
X118399514Y-103303438D01*
X118351895Y-103255819D01*
X118304276Y-103303438D01*
X118351895Y-103351057D01*
X118351895Y-103255819D01*
X119256657Y-103303438D02*
X119161419Y-103255819D01*
X118970942Y-103255819D01*
X118875704Y-103303438D01*
X118828085Y-103351057D01*
X118780466Y-103446295D01*
X118780466Y-103732009D01*
X118828085Y-103827247D01*
X118875704Y-103874866D01*
X118970942Y-103922485D01*
X119161419Y-103922485D01*
X119256657Y-103874866D01*
X119828085Y-103255819D02*
X119732847Y-103303438D01*
X119685228Y-103351057D01*
X119637609Y-103446295D01*
X119637609Y-103732009D01*
X119685228Y-103827247D01*
X119732847Y-103874866D01*
X119828085Y-103922485D01*
X119970942Y-103922485D01*
X120066180Y-103874866D01*
X120113799Y-103827247D01*
X120161419Y-103732009D01*
X120161419Y-103446295D01*
X120113799Y-103351057D01*
X120066180Y-103303438D01*
X119970942Y-103255819D01*
X119828085Y-103255819D01*
X120589990Y-103255819D02*
X120589990Y-103922485D01*
X120589990Y-103827247D02*
X120637609Y-103874866D01*
X120732847Y-103922485D01*
X120875704Y-103922485D01*
X120970942Y-103874866D01*
X121018561Y-103779628D01*
X121018561Y-103255819D01*
X121018561Y-103779628D02*
X121066180Y-103874866D01*
X121161419Y-103922485D01*
X121304276Y-103922485D01*
X121399514Y-103874866D01*
X121447133Y-103779628D01*
X121447133Y-103255819D01*
X122637609Y-104303438D02*
X121780466Y-103017723D01*
X122970942Y-103255819D02*
X122970942Y-103922485D01*
X122970942Y-103827247D02*
X123018561Y-103874866D01*
X123113799Y-103922485D01*
X123256657Y-103922485D01*
X123351895Y-103874866D01*
X123399514Y-103779628D01*
X123399514Y-103255819D01*
X123399514Y-103779628D02*
X123447133Y-103874866D01*
X123542371Y-103922485D01*
X123685228Y-103922485D01*
X123780466Y-103874866D01*
X123828085Y-103779628D01*
X123828085Y-103255819D01*
X124447133Y-103255819D02*
X124351895Y-103303438D01*
X124304276Y-103351057D01*
X124256657Y-103446295D01*
X124256657Y-103732009D01*
X124304276Y-103827247D01*
X124351895Y-103874866D01*
X124447133Y-103922485D01*
X124589990Y-103922485D01*
X124685228Y-103874866D01*
X124732847Y-103827247D01*
X124780466Y-103732009D01*
X124780466Y-103446295D01*
X124732847Y-103351057D01*
X124685228Y-103303438D01*
X124589990Y-103255819D01*
X124447133Y-103255819D01*
X125351895Y-103255819D02*
X125256657Y-103303438D01*
X125209038Y-103351057D01*
X125161419Y-103446295D01*
X125161419Y-103732009D01*
X125209038Y-103827247D01*
X125256657Y-103874866D01*
X125351895Y-103922485D01*
X125494752Y-103922485D01*
X125589990Y-103874866D01*
X125637609Y-103827247D01*
X125685228Y-103732009D01*
X125685228Y-103446295D01*
X125637609Y-103351057D01*
X125589990Y-103303438D01*
X125494752Y-103255819D01*
X125351895Y-103255819D01*
X126113800Y-103255819D02*
X126113800Y-103922485D01*
X126113800Y-103732009D02*
X126161419Y-103827247D01*
X126209038Y-103874866D01*
X126304276Y-103922485D01*
X126399514Y-103922485D01*
X127113800Y-103303438D02*
X127018561Y-103255819D01*
X126828085Y-103255819D01*
X126732847Y-103303438D01*
X126685228Y-103398676D01*
X126685228Y-103779628D01*
X126732847Y-103874866D01*
X126828085Y-103922485D01*
X127018561Y-103922485D01*
X127113800Y-103874866D01*
X127161419Y-103779628D01*
X127161419Y-103684390D01*
X126685228Y-103589152D01*
X127589990Y-103255819D02*
X127589990Y-104255819D01*
X127685228Y-103636771D02*
X127970942Y-103255819D01*
X127970942Y-103922485D02*
X127589990Y-103541533D01*
X128780466Y-103303438D02*
X128685228Y-103255819D01*
X128494752Y-103255819D01*
X128399514Y-103303438D01*
X128351895Y-103398676D01*
X128351895Y-103779628D01*
X128399514Y-103874866D01*
X128494752Y-103922485D01*
X128685228Y-103922485D01*
X128780466Y-103874866D01*
X128828085Y-103779628D01*
X128828085Y-103684390D01*
X128351895Y-103589152D01*
X129161419Y-103922485D02*
X129399514Y-103255819D01*
X129637609Y-103922485D02*
X129399514Y-103255819D01*
X129304276Y-103017723D01*
X129256657Y-102970104D01*
X129161419Y-102922485D01*
X130018561Y-103255819D02*
X130018561Y-104255819D01*
X130018561Y-103874866D02*
X130113800Y-103922485D01*
X130304276Y-103922485D01*
X130399514Y-103874866D01*
X130447133Y-103827247D01*
X130494752Y-103732009D01*
X130494752Y-103446295D01*
X130447133Y-103351057D01*
X130399514Y-103303438D01*
X130304276Y-103255819D01*
X130113800Y-103255819D01*
X130018561Y-103303438D01*
X131066180Y-103255819D02*
X130970942Y-103303438D01*
X130923323Y-103351057D01*
X130875704Y-103446295D01*
X130875704Y-103732009D01*
X130923323Y-103827247D01*
X130970942Y-103874866D01*
X131066180Y-103922485D01*
X131209038Y-103922485D01*
X131304276Y-103874866D01*
X131351895Y-103827247D01*
X131399514Y-103732009D01*
X131399514Y-103446295D01*
X131351895Y-103351057D01*
X131304276Y-103303438D01*
X131209038Y-103255819D01*
X131066180Y-103255819D01*
X132256657Y-103255819D02*
X132256657Y-103779628D01*
X132209038Y-103874866D01*
X132113800Y-103922485D01*
X131923323Y-103922485D01*
X131828085Y-103874866D01*
X132256657Y-103303438D02*
X132161419Y-103255819D01*
X131923323Y-103255819D01*
X131828085Y-103303438D01*
X131780466Y-103398676D01*
X131780466Y-103493914D01*
X131828085Y-103589152D01*
X131923323Y-103636771D01*
X132161419Y-103636771D01*
X132256657Y-103684390D01*
X132732847Y-103255819D02*
X132732847Y-103922485D01*
X132732847Y-103732009D02*
X132780466Y-103827247D01*
X132828085Y-103874866D01*
X132923323Y-103922485D01*
X133018561Y-103922485D01*
X133780466Y-103255819D02*
X133780466Y-104255819D01*
X133780466Y-103303438D02*
X133685228Y-103255819D01*
X133494752Y-103255819D01*
X133399514Y-103303438D01*
X133351895Y-103351057D01*
X133304276Y-103446295D01*
X133304276Y-103732009D01*
X133351895Y-103827247D01*
X133399514Y-103874866D01*
X133494752Y-103922485D01*
X133685228Y-103922485D01*
X133780466Y-103874866D01*
X134209038Y-103303438D02*
X134304276Y-103255819D01*
X134494752Y-103255819D01*
X134589990Y-103303438D01*
X134637609Y-103398676D01*
X134637609Y-103446295D01*
X134589990Y-103541533D01*
X134494752Y-103589152D01*
X134351895Y-103589152D01*
X134256657Y-103636771D01*
X134209038Y-103732009D01*
X134209038Y-103779628D01*
X134256657Y-103874866D01*
X134351895Y-103922485D01*
X134494752Y-103922485D01*
X134589990Y-103874866D01*
%TO.C,U1*%
X108534200Y-74434700D02*
X90754200Y-74434700D01*
X90754200Y-74434700D02*
X90754200Y-43954700D01*
X90754200Y-43954700D02*
X95834200Y-43954700D01*
X95834200Y-43954700D02*
X95834200Y-41414700D01*
X95834200Y-41414700D02*
X103454200Y-41414700D01*
X103454200Y-41414700D02*
X103454200Y-43954700D01*
X103454200Y-43954700D02*
X108534200Y-43954700D01*
X108534200Y-43954700D02*
X108534200Y-74434700D01*
%TD*%
M02*
