%TF.GenerationSoftware,KiCad,Pcbnew,(5.1.7)-1*%
%TF.CreationDate,2021-04-13T17:18:51+05:30*%
%TF.ProjectId,Pteron56v0,50746572-6f6e-4353-9676-302e6b696361,rev?*%
%TF.SameCoordinates,Original*%
%TF.FileFunction,Legend,Top*%
%TF.FilePolarity,Positive*%
%FSLAX46Y46*%
G04 Gerber Fmt 4.6, Leading zero omitted, Abs format (unit mm)*
G04 Created by KiCad (PCBNEW (5.1.7)-1) date 2021-04-13 17:18:51*
%MOMM*%
%LPD*%
G01*
G04 APERTURE LIST*
%ADD10C,0.150000*%
G04 APERTURE END LIST*
%TO.C,H8*%
D10*
X206756095Y-49084380D02*
X206756095Y-48084380D01*
X206756095Y-48560571D02*
X207327523Y-48560571D01*
X207327523Y-49084380D02*
X207327523Y-48084380D01*
X207946571Y-48512952D02*
X207851333Y-48465333D01*
X207803714Y-48417714D01*
X207756095Y-48322476D01*
X207756095Y-48274857D01*
X207803714Y-48179619D01*
X207851333Y-48132000D01*
X207946571Y-48084380D01*
X208137047Y-48084380D01*
X208232285Y-48132000D01*
X208279904Y-48179619D01*
X208327523Y-48274857D01*
X208327523Y-48322476D01*
X208279904Y-48417714D01*
X208232285Y-48465333D01*
X208137047Y-48512952D01*
X207946571Y-48512952D01*
X207851333Y-48560571D01*
X207803714Y-48608190D01*
X207756095Y-48703428D01*
X207756095Y-48893904D01*
X207803714Y-48989142D01*
X207851333Y-49036761D01*
X207946571Y-49084380D01*
X208137047Y-49084380D01*
X208232285Y-49036761D01*
X208279904Y-48989142D01*
X208327523Y-48893904D01*
X208327523Y-48703428D01*
X208279904Y-48608190D01*
X208232285Y-48560571D01*
X208137047Y-48512952D01*
%TO.C,H7*%
X105244995Y-99262080D02*
X105244995Y-98262080D01*
X105244995Y-98738271D02*
X105816423Y-98738271D01*
X105816423Y-99262080D02*
X105816423Y-98262080D01*
X106197376Y-98262080D02*
X106864042Y-98262080D01*
X106435471Y-99262080D01*
%TO.C,H6*%
X78486095Y-131126380D02*
X78486095Y-130126380D01*
X78486095Y-130602571D02*
X79057523Y-130602571D01*
X79057523Y-131126380D02*
X79057523Y-130126380D01*
X79962285Y-130126380D02*
X79771809Y-130126380D01*
X79676571Y-130174000D01*
X79628952Y-130221619D01*
X79533714Y-130364476D01*
X79486095Y-130554952D01*
X79486095Y-130935904D01*
X79533714Y-131031142D01*
X79581333Y-131078761D01*
X79676571Y-131126380D01*
X79867047Y-131126380D01*
X79962285Y-131078761D01*
X80009904Y-131031142D01*
X80057523Y-130935904D01*
X80057523Y-130697809D01*
X80009904Y-130602571D01*
X79962285Y-130554952D01*
X79867047Y-130507333D01*
X79676571Y-130507333D01*
X79581333Y-130554952D01*
X79533714Y-130602571D01*
X79486095Y-130697809D01*
%TO.C,H5*%
X149098095Y-98741380D02*
X149098095Y-97741380D01*
X149098095Y-98217571D02*
X149669523Y-98217571D01*
X149669523Y-98741380D02*
X149669523Y-97741380D01*
X150621904Y-97741380D02*
X150145714Y-97741380D01*
X150098095Y-98217571D01*
X150145714Y-98169952D01*
X150240952Y-98122333D01*
X150479047Y-98122333D01*
X150574285Y-98169952D01*
X150621904Y-98217571D01*
X150669523Y-98312809D01*
X150669523Y-98550904D01*
X150621904Y-98646142D01*
X150574285Y-98693761D01*
X150479047Y-98741380D01*
X150240952Y-98741380D01*
X150145714Y-98693761D01*
X150098095Y-98646142D01*
%TO.C,H4*%
X98679095Y-45147380D02*
X98679095Y-44147380D01*
X98679095Y-44623571D02*
X99250523Y-44623571D01*
X99250523Y-45147380D02*
X99250523Y-44147380D01*
X100155285Y-44480714D02*
X100155285Y-45147380D01*
X99917190Y-44099761D02*
X99679095Y-44814047D01*
X100298142Y-44814047D01*
%TO.C,H3*%
X149225095Y-70217180D02*
X149225095Y-69217180D01*
X149225095Y-69693371D02*
X149796523Y-69693371D01*
X149796523Y-70217180D02*
X149796523Y-69217180D01*
X150177476Y-69217180D02*
X150796523Y-69217180D01*
X150463190Y-69598133D01*
X150606047Y-69598133D01*
X150701285Y-69645752D01*
X150748904Y-69693371D01*
X150796523Y-69788609D01*
X150796523Y-70026704D01*
X150748904Y-70121942D01*
X150701285Y-70169561D01*
X150606047Y-70217180D01*
X150320333Y-70217180D01*
X150225095Y-70169561D01*
X150177476Y-70121942D01*
%TO.C,H2*%
X206883095Y-99122380D02*
X206883095Y-98122380D01*
X206883095Y-98598571D02*
X207454523Y-98598571D01*
X207454523Y-99122380D02*
X207454523Y-98122380D01*
X207883095Y-98217619D02*
X207930714Y-98170000D01*
X208025952Y-98122380D01*
X208264047Y-98122380D01*
X208359285Y-98170000D01*
X208406904Y-98217619D01*
X208454523Y-98312857D01*
X208454523Y-98408095D01*
X208406904Y-98550952D01*
X207835476Y-99122380D01*
X208454523Y-99122380D01*
%TO.C,H1*%
X187083795Y-74065280D02*
X187083795Y-73065280D01*
X187083795Y-73541471D02*
X187655223Y-73541471D01*
X187655223Y-74065280D02*
X187655223Y-73065280D01*
X188655223Y-74065280D02*
X188083795Y-74065280D01*
X188369509Y-74065280D02*
X188369509Y-73065280D01*
X188274271Y-73208138D01*
X188179033Y-73303376D01*
X188083795Y-73350995D01*
%TD*%
M02*
