%TF.GenerationSoftware,KiCad,Pcbnew,(5.1.7)-1*%
%TF.CreationDate,2021-07-12T10:23:36+05:30*%
%TF.ProjectId,Pteron36v0,50746572-6f6e-4333-9676-302e6b696361,rev?*%
%TF.SameCoordinates,Original*%
%TF.FileFunction,Profile,NP*%
%FSLAX46Y46*%
G04 Gerber Fmt 4.6, Leading zero omitted, Abs format (unit mm)*
G04 Created by KiCad (PCBNEW (5.1.7)-1) date 2021-07-12 10:23:36*
%MOMM*%
%LPD*%
G01*
G04 APERTURE LIST*
%TA.AperFunction,Profile*%
%ADD10C,0.050000*%
%TD*%
G04 APERTURE END LIST*
D10*
X70263096Y-135074394D02*
X70280491Y-135091801D01*
X70263096Y-135074393D02*
G75*
G02*
X80093256Y-126423331I73086158J-73136937D01*
G01*
X80093255Y-120238431D02*
X80093255Y-126423331D01*
X80855255Y-48572330D02*
X89855255Y-48572330D01*
X205579254Y-111183330D02*
X209579254Y-111183330D01*
X205579254Y-54287331D02*
X209579254Y-54287330D01*
X70280491Y-135091801D02*
X83082923Y-148893623D01*
X80093255Y-49334331D02*
X80093255Y-120238431D01*
X89855255Y-48572330D02*
X102455255Y-48572330D01*
X210341254Y-55049330D02*
X210341254Y-110421331D01*
X83082923Y-148893623D02*
G75*
G02*
X84967536Y-147037441I60291732J-59330407D01*
G01*
X168241254Y-41587331D02*
X168241255Y-44000330D01*
X133934254Y-123502330D02*
X133934254Y-122867330D01*
X84967535Y-147037441D02*
G75*
G02*
X133172255Y-124264332I58381719J-61173889D01*
G01*
X134696255Y-111183331D02*
X144746254Y-111183330D01*
X180814254Y-111183330D02*
X205579254Y-111183330D01*
X204817254Y-54287330D02*
X205579254Y-54287331D01*
X209579254Y-54287330D02*
G75*
G02*
X210341254Y-55049330I0J-762000D01*
G01*
X210341254Y-110421330D02*
G75*
G02*
X209579254Y-111183330I-762000J0D01*
G01*
X144746254Y-111183330D02*
X180814254Y-111183330D01*
X133934254Y-111945329D02*
X133934254Y-122867330D01*
X133934256Y-111945330D02*
G75*
G02*
X134696255Y-111183331I761999J0D01*
G01*
X133934254Y-123502329D02*
G75*
G02*
X133172255Y-124264330I-762000J-1D01*
G01*
X80093254Y-49334329D02*
G75*
G02*
X80855255Y-48572330I762000J-1D01*
G01*
X129506255Y-48572330D02*
X102455255Y-48572330D01*
X149318255Y-45778330D02*
X149318255Y-41587330D01*
X131030255Y-46540331D02*
X148556255Y-46540331D01*
X130268254Y-47302330D02*
X130268254Y-47810330D01*
X130268253Y-47810330D02*
G75*
G02*
X129506255Y-48572330I-761999J-1D01*
G01*
X130268255Y-47302331D02*
G75*
G02*
X131030255Y-46540331I762000J0D01*
G01*
X149318256Y-45778330D02*
G75*
G02*
X148556255Y-46540331I-762001J0D01*
G01*
X149318255Y-41587330D02*
G75*
G02*
X150080254Y-40825331I761999J0D01*
G01*
X167479254Y-40825331D02*
X150080254Y-40825331D01*
X167479255Y-40825330D02*
G75*
G02*
X168241254Y-41587331I-1J-762000D01*
G01*
X169003255Y-44762328D02*
G75*
G02*
X168241255Y-44000330I-1J761999D01*
G01*
X186402254Y-44762330D02*
X169003254Y-44762330D01*
X186402256Y-44762330D02*
G75*
G02*
X187164255Y-45524331I-1J-762000D01*
G01*
X187164255Y-53525331D02*
X187164255Y-45524331D01*
X187926254Y-54287330D02*
X188561254Y-54287330D01*
X187926256Y-54287330D02*
G75*
G02*
X187164255Y-53525331I-1J762000D01*
G01*
X204817254Y-54287330D02*
X188561254Y-54287330D01*
M02*
