%TF.GenerationSoftware,KiCad,Pcbnew,(5.1.7)-1*%
%TF.CreationDate,2021-07-12T10:23:36+05:30*%
%TF.ProjectId,Pteron36v0,50746572-6f6e-4333-9676-302e6b696361,rev?*%
%TF.SameCoordinates,Original*%
%TF.FileFunction,Paste,Bot*%
%TF.FilePolarity,Positive*%
%FSLAX46Y46*%
G04 Gerber Fmt 4.6, Leading zero omitted, Abs format (unit mm)*
G04 Created by KiCad (PCBNEW (5.1.7)-1) date 2021-07-12 10:23:36*
%MOMM*%
%LPD*%
G01*
G04 APERTURE LIST*
%ADD10R,1.600000X1.200000*%
%ADD11R,1.100000X1.800000*%
%ADD12O,3.759200X1.879600*%
%ADD13R,1.200000X1.600000*%
%ADD14C,0.100000*%
%ADD15R,1.270000X0.635000*%
G04 APERTURE END LIST*
D10*
%TO.C,D_RE1*%
X93435254Y-112834330D03*
X96235254Y-112834330D03*
%TD*%
D11*
%TO.C,RST2*%
X86652255Y-71611330D03*
X86652255Y-65411330D03*
X82952255Y-71611330D03*
X82952255Y-65411330D03*
%TD*%
D12*
%TO.C,PWM_PAD1*%
X110964255Y-65463330D03*
X110964255Y-62923330D03*
X110964255Y-60383330D03*
%TD*%
D13*
%TO.C,D8*%
X187427675Y-81305722D03*
X187427675Y-84105722D03*
%TD*%
%TO.C,D28*%
X111199500Y-98830970D03*
X111199500Y-101630970D03*
%TD*%
%TO.C,D27*%
X111107333Y-79977191D03*
X111107333Y-82777191D03*
%TD*%
D10*
%TO.C,D26*%
X119825855Y-66022130D03*
X122625855Y-66022130D03*
%TD*%
D13*
%TO.C,D24*%
X130211863Y-97422492D03*
X130211863Y-100222492D03*
%TD*%
%TO.C,D23*%
X130373603Y-78345570D03*
X130373603Y-81145570D03*
%TD*%
%TO.C,D22*%
X130221646Y-58990485D03*
X130221646Y-61790485D03*
%TD*%
D14*
%TO.C,D20*%
G36*
X81791542Y-140503452D02*
G01*
X80839518Y-141233966D01*
X79865500Y-139964600D01*
X80817524Y-139234086D01*
X81791542Y-140503452D01*
G37*
G36*
X80087010Y-138282062D02*
G01*
X79134986Y-139012576D01*
X78160968Y-137743210D01*
X79112992Y-137012696D01*
X80087010Y-138282062D01*
G37*
%TD*%
D13*
%TO.C,D19*%
X149396657Y-91550318D03*
X149396657Y-94350318D03*
%TD*%
%TO.C,D18*%
X149191255Y-72445330D03*
X149191255Y-75245330D03*
%TD*%
%TO.C,D17*%
X149191254Y-55808330D03*
X149191254Y-58608330D03*
%TD*%
D14*
%TO.C,D15*%
G36*
X96943799Y-129687636D02*
G01*
X95856230Y-130194778D01*
X95180041Y-128744686D01*
X96267610Y-128237544D01*
X96943799Y-129687636D01*
G37*
G36*
X95760467Y-127149974D02*
G01*
X94672898Y-127657116D01*
X93996709Y-126207024D01*
X95084278Y-125699882D01*
X95760467Y-127149974D01*
G37*
%TD*%
D13*
%TO.C,D14*%
X168320664Y-95016290D03*
X168320664Y-97816290D03*
%TD*%
%TO.C,D13*%
X168349819Y-75709728D03*
X168349819Y-78509728D03*
%TD*%
%TO.C,D12*%
X168349818Y-56367130D03*
X168349818Y-59167130D03*
%TD*%
D14*
%TO.C,D10*%
G36*
X115074198Y-121202316D02*
G01*
X113902643Y-121462044D01*
X113556340Y-119899970D01*
X114727895Y-119640242D01*
X115074198Y-121202316D01*
G37*
G36*
X114468168Y-118468688D02*
G01*
X113296613Y-118728416D01*
X112950310Y-117166342D01*
X114121865Y-116906614D01*
X114468168Y-118468688D01*
G37*
%TD*%
D13*
%TO.C,D9*%
X187427675Y-100340622D03*
X187427675Y-103140622D03*
%TD*%
%TO.C,D7*%
X187427675Y-65001302D03*
X187427675Y-67801302D03*
%TD*%
D15*
%TO.C,JP5*%
X102607654Y-82219710D03*
X102607654Y-81320550D03*
%TD*%
%TO.C,JP8*%
X95114655Y-82219711D03*
X95114655Y-81320551D03*
%TD*%
%TO.C,JP7*%
X97400655Y-82219711D03*
X97400655Y-81320551D03*
%TD*%
%TO.C,JP6*%
X100067654Y-82219711D03*
X100067654Y-81320551D03*
%TD*%
M02*
