%TF.GenerationSoftware,KiCad,Pcbnew,(5.1.7)-1*%
%TF.CreationDate,2021-07-12T10:23:36+05:30*%
%TF.ProjectId,Pteron36v0,50746572-6f6e-4333-9676-302e6b696361,rev?*%
%TF.SameCoordinates,Original*%
%TF.FileFunction,Legend,Bot*%
%TF.FilePolarity,Positive*%
%FSLAX46Y46*%
G04 Gerber Fmt 4.6, Leading zero omitted, Abs format (unit mm)*
G04 Created by KiCad (PCBNEW (5.1.7)-1) date 2021-07-12 10:23:36*
%MOMM*%
%LPD*%
G01*
G04 APERTURE LIST*
%ADD10C,0.500000*%
%ADD11C,0.150000*%
%ADD12C,0.125000*%
%ADD13C,0.010000*%
%ADD14C,0.120000*%
%ADD15C,0.203200*%
%ADD16C,0.066040*%
G04 APERTURE END LIST*
D10*
X187890009Y-100392942D02*
X187604295Y-100488180D01*
X187509057Y-100583419D01*
X187413819Y-100773895D01*
X187413819Y-101059609D01*
X187509057Y-101250085D01*
X187604295Y-101345323D01*
X187794771Y-101440561D01*
X188556676Y-101440561D01*
X188556676Y-99440561D01*
X187890009Y-99440561D01*
X187699533Y-99535800D01*
X187604295Y-99631038D01*
X187509057Y-99821514D01*
X187509057Y-100011990D01*
X187604295Y-100202466D01*
X187699533Y-100297704D01*
X187890009Y-100392942D01*
X188556676Y-100392942D01*
X185699533Y-101440561D02*
X185699533Y-100392942D01*
X185794771Y-100202466D01*
X185985247Y-100107228D01*
X186366200Y-100107228D01*
X186556676Y-100202466D01*
X185699533Y-101345323D02*
X185890009Y-101440561D01*
X186366200Y-101440561D01*
X186556676Y-101345323D01*
X186651914Y-101154847D01*
X186651914Y-100964371D01*
X186556676Y-100773895D01*
X186366200Y-100678657D01*
X185890009Y-100678657D01*
X185699533Y-100583419D01*
X184842390Y-101345323D02*
X184651914Y-101440561D01*
X184270961Y-101440561D01*
X184080485Y-101345323D01*
X183985247Y-101154847D01*
X183985247Y-101059609D01*
X184080485Y-100869133D01*
X184270961Y-100773895D01*
X184556676Y-100773895D01*
X184747152Y-100678657D01*
X184842390Y-100488180D01*
X184842390Y-100392942D01*
X184747152Y-100202466D01*
X184556676Y-100107228D01*
X184270961Y-100107228D01*
X184080485Y-100202466D01*
X182366200Y-101345323D02*
X182556676Y-101440561D01*
X182937628Y-101440561D01*
X183128104Y-101345323D01*
X183223342Y-101154847D01*
X183223342Y-100392942D01*
X183128104Y-100202466D01*
X182937628Y-100107228D01*
X182556676Y-100107228D01*
X182366200Y-100202466D01*
X182270961Y-100392942D01*
X182270961Y-100583419D01*
X183223342Y-100773895D01*
X180556676Y-101440561D02*
X180556676Y-99440561D01*
X180556676Y-101345323D02*
X180747152Y-101440561D01*
X181128104Y-101440561D01*
X181318580Y-101345323D01*
X181413819Y-101250085D01*
X181509057Y-101059609D01*
X181509057Y-100488180D01*
X181413819Y-100297704D01*
X181318580Y-100202466D01*
X181128104Y-100107228D01*
X180747152Y-100107228D01*
X180556676Y-100202466D01*
X177794771Y-101440561D02*
X177985247Y-101345323D01*
X178080485Y-101250085D01*
X178175723Y-101059609D01*
X178175723Y-100488180D01*
X178080485Y-100297704D01*
X177985247Y-100202466D01*
X177794771Y-100107228D01*
X177509057Y-100107228D01*
X177318580Y-100202466D01*
X177223342Y-100297704D01*
X177128104Y-100488180D01*
X177128104Y-101059609D01*
X177223342Y-101250085D01*
X177318580Y-101345323D01*
X177509057Y-101440561D01*
X177794771Y-101440561D01*
X176270961Y-100107228D02*
X176270961Y-101440561D01*
X176270961Y-100297704D02*
X176175723Y-100202466D01*
X175985247Y-100107228D01*
X175699533Y-100107228D01*
X175509057Y-100202466D01*
X175413819Y-100392942D01*
X175413819Y-101440561D01*
X172937628Y-101440561D02*
X172937628Y-99440561D01*
X172175723Y-99440561D01*
X171985247Y-99535800D01*
X171890009Y-99631038D01*
X171794771Y-99821514D01*
X171794771Y-100107228D01*
X171890009Y-100297704D01*
X171985247Y-100392942D01*
X172175723Y-100488180D01*
X172937628Y-100488180D01*
X171223342Y-100107228D02*
X170461438Y-100107228D01*
X170937628Y-99440561D02*
X170937628Y-101154847D01*
X170842390Y-101345323D01*
X170651914Y-101440561D01*
X170461438Y-101440561D01*
X169032866Y-101345323D02*
X169223342Y-101440561D01*
X169604295Y-101440561D01*
X169794771Y-101345323D01*
X169890009Y-101154847D01*
X169890009Y-100392942D01*
X169794771Y-100202466D01*
X169604295Y-100107228D01*
X169223342Y-100107228D01*
X169032866Y-100202466D01*
X168937628Y-100392942D01*
X168937628Y-100583419D01*
X169890009Y-100773895D01*
X168080485Y-101440561D02*
X168080485Y-100107228D01*
X168080485Y-100488180D02*
X167985247Y-100297704D01*
X167890009Y-100202466D01*
X167699533Y-100107228D01*
X167509057Y-100107228D01*
X166556676Y-101440561D02*
X166747152Y-101345323D01*
X166842390Y-101250085D01*
X166937628Y-101059609D01*
X166937628Y-100488180D01*
X166842390Y-100297704D01*
X166747152Y-100202466D01*
X166556676Y-100107228D01*
X166270961Y-100107228D01*
X166080485Y-100202466D01*
X165985247Y-100297704D01*
X165890009Y-100488180D01*
X165890009Y-101059609D01*
X165985247Y-101250085D01*
X166080485Y-101345323D01*
X166270961Y-101440561D01*
X166556676Y-101440561D01*
X165032866Y-100107228D02*
X165032866Y-101440561D01*
X165032866Y-100297704D02*
X164937628Y-100202466D01*
X164747152Y-100107228D01*
X164461438Y-100107228D01*
X164270961Y-100202466D01*
X164175723Y-100392942D01*
X164175723Y-101440561D01*
X161699533Y-101440561D02*
X161699533Y-99440561D01*
X161509057Y-100678657D02*
X160937628Y-101440561D01*
X160937628Y-100107228D02*
X161699533Y-100869133D01*
X159318580Y-101345323D02*
X159509057Y-101440561D01*
X159890009Y-101440561D01*
X160080485Y-101345323D01*
X160175723Y-101154847D01*
X160175723Y-100392942D01*
X160080485Y-100202466D01*
X159890009Y-100107228D01*
X159509057Y-100107228D01*
X159318580Y-100202466D01*
X159223342Y-100392942D01*
X159223342Y-100583419D01*
X160175723Y-100773895D01*
X158556676Y-100107228D02*
X158080485Y-101440561D01*
X157604295Y-100107228D02*
X158080485Y-101440561D01*
X158270961Y-101916752D01*
X158366200Y-102011990D01*
X158556676Y-102107228D01*
X156842390Y-101440561D02*
X156842390Y-99440561D01*
X156842390Y-100202466D02*
X156651914Y-100107228D01*
X156270961Y-100107228D01*
X156080485Y-100202466D01*
X155985247Y-100297704D01*
X155890009Y-100488180D01*
X155890009Y-101059609D01*
X155985247Y-101250085D01*
X156080485Y-101345323D01*
X156270961Y-101440561D01*
X156651914Y-101440561D01*
X156842390Y-101345323D01*
X154747152Y-101440561D02*
X154937628Y-101345323D01*
X155032866Y-101250085D01*
X155128104Y-101059609D01*
X155128104Y-100488180D01*
X155032866Y-100297704D01*
X154937628Y-100202466D01*
X154747152Y-100107228D01*
X154461438Y-100107228D01*
X154270961Y-100202466D01*
X154175723Y-100297704D01*
X154080485Y-100488180D01*
X154080485Y-101059609D01*
X154175723Y-101250085D01*
X154270961Y-101345323D01*
X154461438Y-101440561D01*
X154747152Y-101440561D01*
X152366200Y-101440561D02*
X152366200Y-100392942D01*
X152461438Y-100202466D01*
X152651914Y-100107228D01*
X153032866Y-100107228D01*
X153223342Y-100202466D01*
X152366200Y-101345323D02*
X152556676Y-101440561D01*
X153032866Y-101440561D01*
X153223342Y-101345323D01*
X153318580Y-101154847D01*
X153318580Y-100964371D01*
X153223342Y-100773895D01*
X153032866Y-100678657D01*
X152556676Y-100678657D01*
X152366200Y-100583419D01*
X151413819Y-101440561D02*
X151413819Y-100107228D01*
X151413819Y-100488180D02*
X151318580Y-100297704D01*
X151223342Y-100202466D01*
X151032866Y-100107228D01*
X150842390Y-100107228D01*
X149318580Y-101440561D02*
X149318580Y-99440561D01*
X149318580Y-101345323D02*
X149509057Y-101440561D01*
X149890009Y-101440561D01*
X150080485Y-101345323D01*
X150175723Y-101250085D01*
X150270961Y-101059609D01*
X150270961Y-100488180D01*
X150175723Y-100297704D01*
X150080485Y-100202466D01*
X149890009Y-100107228D01*
X149509057Y-100107228D01*
X149318580Y-100202466D01*
X146842390Y-101440561D02*
X146842390Y-99440561D01*
X146842390Y-100202466D02*
X146651914Y-100107228D01*
X146270961Y-100107228D01*
X146080485Y-100202466D01*
X145985247Y-100297704D01*
X145890009Y-100488180D01*
X145890009Y-101059609D01*
X145985247Y-101250085D01*
X146080485Y-101345323D01*
X146270961Y-101440561D01*
X146651914Y-101440561D01*
X146842390Y-101345323D01*
X145223342Y-100107228D02*
X144747152Y-101440561D01*
X144270961Y-100107228D02*
X144747152Y-101440561D01*
X144937628Y-101916752D01*
X145032866Y-102011990D01*
X145223342Y-102107228D01*
X141318580Y-100392942D02*
X141985247Y-100392942D01*
X141985247Y-101440561D02*
X141985247Y-99440561D01*
X141032866Y-99440561D01*
X140366200Y-101345323D02*
X140175723Y-101440561D01*
X139794771Y-101440561D01*
X139604295Y-101345323D01*
X139509057Y-101154847D01*
X139509057Y-101059609D01*
X139604295Y-100869133D01*
X139794771Y-100773895D01*
X140080485Y-100773895D01*
X140270961Y-100678657D01*
X140366200Y-100488180D01*
X140366200Y-100392942D01*
X140270961Y-100202466D01*
X140080485Y-100107228D01*
X139794771Y-100107228D01*
X139604295Y-100202466D01*
X137794771Y-100107228D02*
X137794771Y-101440561D01*
X138651914Y-100107228D02*
X138651914Y-101154847D01*
X138556676Y-101345323D01*
X138366200Y-101440561D01*
X138080485Y-101440561D01*
X137890009Y-101345323D01*
X137794771Y-101250085D01*
X136842390Y-100107228D02*
X136842390Y-101440561D01*
X136842390Y-100297704D02*
X136747152Y-100202466D01*
X136556676Y-100107228D01*
X136270961Y-100107228D01*
X136080485Y-100202466D01*
X135985247Y-100392942D01*
X135985247Y-101440561D01*
X134175723Y-101440561D02*
X134175723Y-99440561D01*
X134175723Y-101345323D02*
X134366200Y-101440561D01*
X134747152Y-101440561D01*
X134937628Y-101345323D01*
X135032866Y-101250085D01*
X135128104Y-101059609D01*
X135128104Y-100488180D01*
X135032866Y-100297704D01*
X134937628Y-100202466D01*
X134747152Y-100107228D01*
X134366200Y-100107228D01*
X134175723Y-100202466D01*
X189985247Y-103892942D02*
X189699533Y-103988180D01*
X189604295Y-104083419D01*
X189509057Y-104273895D01*
X189509057Y-104559609D01*
X189604295Y-104750085D01*
X189699533Y-104845323D01*
X189890009Y-104940561D01*
X190651914Y-104940561D01*
X190651914Y-102940561D01*
X189985247Y-102940561D01*
X189794771Y-103035800D01*
X189699533Y-103131038D01*
X189604295Y-103321514D01*
X189604295Y-103511990D01*
X189699533Y-103702466D01*
X189794771Y-103797704D01*
X189985247Y-103892942D01*
X190651914Y-103892942D01*
X187794771Y-104940561D02*
X187794771Y-103892942D01*
X187890009Y-103702466D01*
X188080485Y-103607228D01*
X188461438Y-103607228D01*
X188651914Y-103702466D01*
X187794771Y-104845323D02*
X187985247Y-104940561D01*
X188461438Y-104940561D01*
X188651914Y-104845323D01*
X188747152Y-104654847D01*
X188747152Y-104464371D01*
X188651914Y-104273895D01*
X188461438Y-104178657D01*
X187985247Y-104178657D01*
X187794771Y-104083419D01*
X186937628Y-104845323D02*
X186747152Y-104940561D01*
X186366200Y-104940561D01*
X186175723Y-104845323D01*
X186080485Y-104654847D01*
X186080485Y-104559609D01*
X186175723Y-104369133D01*
X186366200Y-104273895D01*
X186651914Y-104273895D01*
X186842390Y-104178657D01*
X186937628Y-103988180D01*
X186937628Y-103892942D01*
X186842390Y-103702466D01*
X186651914Y-103607228D01*
X186366200Y-103607228D01*
X186175723Y-103702466D01*
X184461438Y-104845323D02*
X184651914Y-104940561D01*
X185032866Y-104940561D01*
X185223342Y-104845323D01*
X185318580Y-104654847D01*
X185318580Y-103892942D01*
X185223342Y-103702466D01*
X185032866Y-103607228D01*
X184651914Y-103607228D01*
X184461438Y-103702466D01*
X184366200Y-103892942D01*
X184366200Y-104083419D01*
X185318580Y-104273895D01*
X182651914Y-104940561D02*
X182651914Y-102940561D01*
X182651914Y-104845323D02*
X182842390Y-104940561D01*
X183223342Y-104940561D01*
X183413819Y-104845323D01*
X183509057Y-104750085D01*
X183604295Y-104559609D01*
X183604295Y-103988180D01*
X183509057Y-103797704D01*
X183413819Y-103702466D01*
X183223342Y-103607228D01*
X182842390Y-103607228D01*
X182651914Y-103702466D01*
X179890009Y-104940561D02*
X180080485Y-104845323D01*
X180175723Y-104750085D01*
X180270961Y-104559609D01*
X180270961Y-103988180D01*
X180175723Y-103797704D01*
X180080485Y-103702466D01*
X179890009Y-103607228D01*
X179604295Y-103607228D01*
X179413819Y-103702466D01*
X179318580Y-103797704D01*
X179223342Y-103988180D01*
X179223342Y-104559609D01*
X179318580Y-104750085D01*
X179413819Y-104845323D01*
X179604295Y-104940561D01*
X179890009Y-104940561D01*
X178366200Y-103607228D02*
X178366200Y-104940561D01*
X178366200Y-103797704D02*
X178270961Y-103702466D01*
X178080485Y-103607228D01*
X177794771Y-103607228D01*
X177604295Y-103702466D01*
X177509057Y-103892942D01*
X177509057Y-104940561D01*
X175032866Y-104940561D02*
X175032866Y-102940561D01*
X174270961Y-102940561D01*
X174080485Y-103035800D01*
X173985247Y-103131038D01*
X173890009Y-103321514D01*
X173890009Y-103607228D01*
X173985247Y-103797704D01*
X174080485Y-103892942D01*
X174270961Y-103988180D01*
X175032866Y-103988180D01*
X173318580Y-103607228D02*
X172556676Y-103607228D01*
X173032866Y-102940561D02*
X173032866Y-104654847D01*
X172937628Y-104845323D01*
X172747152Y-104940561D01*
X172556676Y-104940561D01*
X171128104Y-104845323D02*
X171318580Y-104940561D01*
X171699533Y-104940561D01*
X171890009Y-104845323D01*
X171985247Y-104654847D01*
X171985247Y-103892942D01*
X171890009Y-103702466D01*
X171699533Y-103607228D01*
X171318580Y-103607228D01*
X171128104Y-103702466D01*
X171032866Y-103892942D01*
X171032866Y-104083419D01*
X171985247Y-104273895D01*
X170175723Y-104940561D02*
X170175723Y-103607228D01*
X170175723Y-103988180D02*
X170080485Y-103797704D01*
X169985247Y-103702466D01*
X169794771Y-103607228D01*
X169604295Y-103607228D01*
X168651914Y-104940561D02*
X168842390Y-104845323D01*
X168937628Y-104750085D01*
X169032866Y-104559609D01*
X169032866Y-103988180D01*
X168937628Y-103797704D01*
X168842390Y-103702466D01*
X168651914Y-103607228D01*
X168366200Y-103607228D01*
X168175723Y-103702466D01*
X168080485Y-103797704D01*
X167985247Y-103988180D01*
X167985247Y-104559609D01*
X168080485Y-104750085D01*
X168175723Y-104845323D01*
X168366200Y-104940561D01*
X168651914Y-104940561D01*
X167128104Y-103607228D02*
X167128104Y-104940561D01*
X167128104Y-103797704D02*
X167032866Y-103702466D01*
X166842390Y-103607228D01*
X166556676Y-103607228D01*
X166366200Y-103702466D01*
X166270961Y-103892942D01*
X166270961Y-104940561D01*
X163794771Y-103607228D02*
X163794771Y-105607228D01*
X163794771Y-103702466D02*
X163604295Y-103607228D01*
X163223342Y-103607228D01*
X163032866Y-103702466D01*
X162937628Y-103797704D01*
X162842390Y-103988180D01*
X162842390Y-104559609D01*
X162937628Y-104750085D01*
X163032866Y-104845323D01*
X163223342Y-104940561D01*
X163604295Y-104940561D01*
X163794771Y-104845323D01*
X161128104Y-104845323D02*
X161318580Y-104940561D01*
X161699533Y-104940561D01*
X161890009Y-104845323D01*
X161985247Y-104750085D01*
X162080485Y-104559609D01*
X162080485Y-103988180D01*
X161985247Y-103797704D01*
X161890009Y-103702466D01*
X161699533Y-103607228D01*
X161318580Y-103607228D01*
X161128104Y-103702466D01*
X160270961Y-104940561D02*
X160270961Y-102940561D01*
X160270961Y-103702466D02*
X160080485Y-103607228D01*
X159699533Y-103607228D01*
X159509057Y-103702466D01*
X159413819Y-103797704D01*
X159318580Y-103988180D01*
X159318580Y-104559609D01*
X159413819Y-104750085D01*
X159509057Y-104845323D01*
X159699533Y-104940561D01*
X160080485Y-104940561D01*
X160270961Y-104845323D01*
X156937628Y-104940561D02*
X156937628Y-102940561D01*
X156937628Y-103702466D02*
X156747152Y-103607228D01*
X156366200Y-103607228D01*
X156175723Y-103702466D01*
X156080485Y-103797704D01*
X155985247Y-103988180D01*
X155985247Y-104559609D01*
X156080485Y-104750085D01*
X156175723Y-104845323D01*
X156366200Y-104940561D01*
X156747152Y-104940561D01*
X156937628Y-104845323D01*
X155318580Y-103607228D02*
X154842390Y-104940561D01*
X154366200Y-103607228D02*
X154842390Y-104940561D01*
X155032866Y-105416752D01*
X155128104Y-105511990D01*
X155318580Y-105607228D01*
X152080485Y-104940561D02*
X152080485Y-102940561D01*
X150937628Y-104940561D02*
X151794771Y-103797704D01*
X150937628Y-102940561D02*
X152080485Y-104083419D01*
X150080485Y-104940561D02*
X150080485Y-103607228D01*
X150080485Y-103988180D02*
X149985247Y-103797704D01*
X149890009Y-103702466D01*
X149699533Y-103607228D01*
X149509057Y-103607228D01*
X147985247Y-104940561D02*
X147985247Y-103892942D01*
X148080485Y-103702466D01*
X148270961Y-103607228D01*
X148651914Y-103607228D01*
X148842390Y-103702466D01*
X147985247Y-104845323D02*
X148175723Y-104940561D01*
X148651914Y-104940561D01*
X148842390Y-104845323D01*
X148937628Y-104654847D01*
X148937628Y-104464371D01*
X148842390Y-104273895D01*
X148651914Y-104178657D01*
X148175723Y-104178657D01*
X147985247Y-104083419D01*
X147032866Y-104940561D02*
X147032866Y-102940561D01*
X146842390Y-104178657D02*
X146270961Y-104940561D01*
X146270961Y-103607228D02*
X147032866Y-104369133D01*
X144651914Y-104845323D02*
X144842390Y-104940561D01*
X145223342Y-104940561D01*
X145413819Y-104845323D01*
X145509057Y-104654847D01*
X145509057Y-103892942D01*
X145413819Y-103702466D01*
X145223342Y-103607228D01*
X144842390Y-103607228D01*
X144651914Y-103702466D01*
X144556676Y-103892942D01*
X144556676Y-104083419D01*
X145509057Y-104273895D01*
X143699533Y-103607228D02*
X143699533Y-104940561D01*
X143699533Y-103797704D02*
X143604295Y-103702466D01*
X143413819Y-103607228D01*
X143128104Y-103607228D01*
X142937628Y-103702466D01*
X142842390Y-103892942D01*
X142842390Y-104940561D01*
X141890009Y-104178657D02*
X140366200Y-104178657D01*
X138842390Y-102940561D02*
X138842390Y-104369133D01*
X138937628Y-104654847D01*
X139128104Y-104845323D01*
X139413819Y-104940561D01*
X139604295Y-104940561D01*
X137604295Y-104940561D02*
X137794771Y-104845323D01*
X137890009Y-104750085D01*
X137985247Y-104559609D01*
X137985247Y-103988180D01*
X137890009Y-103797704D01*
X137794771Y-103702466D01*
X137604295Y-103607228D01*
X137318580Y-103607228D01*
X137128104Y-103702466D01*
X137032866Y-103797704D01*
X136937628Y-103988180D01*
X136937628Y-104559609D01*
X137032866Y-104750085D01*
X137128104Y-104845323D01*
X137318580Y-104940561D01*
X137604295Y-104940561D01*
X136080485Y-104940561D02*
X136080485Y-102940561D01*
X135890009Y-104178657D02*
X135318580Y-104940561D01*
X135318580Y-103607228D02*
X136080485Y-104369133D01*
X133699533Y-104845323D02*
X133890009Y-104940561D01*
X134270961Y-104940561D01*
X134461438Y-104845323D01*
X134556676Y-104654847D01*
X134556676Y-103892942D01*
X134461438Y-103702466D01*
X134270961Y-103607228D01*
X133890009Y-103607228D01*
X133699533Y-103702466D01*
X133604295Y-103892942D01*
X133604295Y-104083419D01*
X134556676Y-104273895D01*
X132842390Y-104845323D02*
X132651914Y-104940561D01*
X132270961Y-104940561D01*
X132080485Y-104845323D01*
X131985247Y-104654847D01*
X131985247Y-104559609D01*
X132080485Y-104369133D01*
X132270961Y-104273895D01*
X132556676Y-104273895D01*
X132747152Y-104178657D01*
X132842390Y-103988180D01*
X132842390Y-103892942D01*
X132747152Y-103702466D01*
X132556676Y-103607228D01*
X132270961Y-103607228D01*
X132080485Y-103702466D01*
X96800692Y-75044015D02*
X98800692Y-75044015D01*
X98800692Y-74282110D01*
X98705454Y-74091634D01*
X98610215Y-73996396D01*
X98419739Y-73901158D01*
X98134025Y-73901158D01*
X97943549Y-73996396D01*
X97848311Y-74091634D01*
X97753073Y-74282110D01*
X97753073Y-75044015D01*
X98134025Y-73329730D02*
X98134025Y-72567825D01*
X98800692Y-73044015D02*
X97086406Y-73044015D01*
X96895930Y-72948777D01*
X96800692Y-72758301D01*
X96800692Y-72567825D01*
X96895930Y-71139253D02*
X96800692Y-71329730D01*
X96800692Y-71710682D01*
X96895930Y-71901158D01*
X97086406Y-71996396D01*
X97848311Y-71996396D01*
X98038787Y-71901158D01*
X98134025Y-71710682D01*
X98134025Y-71329730D01*
X98038787Y-71139253D01*
X97848311Y-71044015D01*
X97657834Y-71044015D01*
X97467358Y-71996396D01*
X96800692Y-70186872D02*
X98134025Y-70186872D01*
X97753073Y-70186872D02*
X97943549Y-70091634D01*
X98038787Y-69996396D01*
X98134025Y-69805920D01*
X98134025Y-69615444D01*
X96800692Y-68663063D02*
X96895930Y-68853539D01*
X96991168Y-68948777D01*
X97181644Y-69044015D01*
X97753073Y-69044015D01*
X97943549Y-68948777D01*
X98038787Y-68853539D01*
X98134025Y-68663063D01*
X98134025Y-68377349D01*
X98038787Y-68186872D01*
X97943549Y-68091634D01*
X97753073Y-67996396D01*
X97181644Y-67996396D01*
X96991168Y-68091634D01*
X96895930Y-68186872D01*
X96800692Y-68377349D01*
X96800692Y-68663063D01*
X98134025Y-67139253D02*
X96800692Y-67139253D01*
X97943549Y-67139253D02*
X98038787Y-67044015D01*
X98134025Y-66853539D01*
X98134025Y-66567825D01*
X98038787Y-66377349D01*
X97848311Y-66282110D01*
X96800692Y-66282110D01*
X98800692Y-65520206D02*
X98800692Y-64282110D01*
X98038787Y-64948777D01*
X98038787Y-64663063D01*
X97943549Y-64472587D01*
X97848311Y-64377349D01*
X97657834Y-64282110D01*
X97181644Y-64282110D01*
X96991168Y-64377349D01*
X96895930Y-64472587D01*
X96800692Y-64663063D01*
X96800692Y-65234491D01*
X96895930Y-65424968D01*
X96991168Y-65520206D01*
X98800692Y-62567825D02*
X98800692Y-62948777D01*
X98705454Y-63139253D01*
X98610215Y-63234491D01*
X98324501Y-63424968D01*
X97943549Y-63520206D01*
X97181644Y-63520206D01*
X96991168Y-63424968D01*
X96895930Y-63329730D01*
X96800692Y-63139253D01*
X96800692Y-62758301D01*
X96895930Y-62567825D01*
X96991168Y-62472587D01*
X97181644Y-62377349D01*
X97657834Y-62377349D01*
X97848311Y-62472587D01*
X97943549Y-62567825D01*
X98038787Y-62758301D01*
X98038787Y-63139253D01*
X97943549Y-63329730D01*
X97848311Y-63424968D01*
X97657834Y-63520206D01*
X98800692Y-60282110D02*
X96800692Y-59615444D01*
X98800692Y-58948777D01*
X96800692Y-57234491D02*
X96800692Y-58377349D01*
X96800692Y-57805920D02*
X98800692Y-57805920D01*
X98514977Y-57996396D01*
X98324501Y-58186872D01*
X98229263Y-58377349D01*
X96991168Y-56377349D02*
X96895930Y-56282110D01*
X96800692Y-56377349D01*
X96895930Y-56472587D01*
X96991168Y-56377349D01*
X96800692Y-56377349D01*
X98800692Y-55615444D02*
X98800692Y-54377349D01*
X98038787Y-55044015D01*
X98038787Y-54758301D01*
X97943549Y-54567825D01*
X97848311Y-54472587D01*
X97657834Y-54377349D01*
X97181644Y-54377349D01*
X96991168Y-54472587D01*
X96895930Y-54567825D01*
X96800692Y-54758301D01*
X96800692Y-55329730D01*
X96895930Y-55520206D01*
X96991168Y-55615444D01*
X96991168Y-53520206D02*
X96895930Y-53424968D01*
X96800692Y-53520206D01*
X96895930Y-53615444D01*
X96991168Y-53520206D01*
X96800692Y-53520206D01*
X98800692Y-52186872D02*
X98800692Y-51996396D01*
X98705454Y-51805920D01*
X98610215Y-51710682D01*
X98419739Y-51615444D01*
X98038787Y-51520206D01*
X97562596Y-51520206D01*
X97181644Y-51615444D01*
X96991168Y-51710682D01*
X96895930Y-51805920D01*
X96800692Y-51996396D01*
X96800692Y-52186872D01*
X96895930Y-52377349D01*
X96991168Y-52472587D01*
X97181644Y-52567825D01*
X97562596Y-52663063D01*
X98038787Y-52663063D01*
X98419739Y-52567825D01*
X98610215Y-52472587D01*
X98705454Y-52377349D01*
X98800692Y-52186872D01*
D11*
X83111540Y-96696188D02*
X82302016Y-96696188D01*
X82206778Y-96743807D01*
X82159159Y-96791426D01*
X82111540Y-96886664D01*
X82111540Y-97029521D01*
X82159159Y-97124759D01*
X82492493Y-96696188D02*
X82444874Y-96791426D01*
X82444874Y-96981902D01*
X82492493Y-97077140D01*
X82540112Y-97124759D01*
X82635350Y-97172378D01*
X82921064Y-97172378D01*
X83016302Y-97124759D01*
X83063921Y-97077140D01*
X83111540Y-96981902D01*
X83111540Y-96791426D01*
X83063921Y-96696188D01*
X82444874Y-96219997D02*
X83111540Y-96219997D01*
X83444874Y-96219997D02*
X83397255Y-96267616D01*
X83349635Y-96219997D01*
X83397255Y-96172378D01*
X83444874Y-96219997D01*
X83349635Y-96219997D01*
X83111540Y-95886664D02*
X83111540Y-95505711D01*
X83444874Y-95743807D02*
X82587731Y-95743807D01*
X82492493Y-95696188D01*
X82444874Y-95600950D01*
X82444874Y-95505711D01*
X82444874Y-95172378D02*
X83444874Y-95172378D01*
X82444874Y-94743807D02*
X82968683Y-94743807D01*
X83063921Y-94791426D01*
X83111540Y-94886664D01*
X83111540Y-95029521D01*
X83063921Y-95124759D01*
X83016302Y-95172378D01*
X83111540Y-93839045D02*
X82444874Y-93839045D01*
X83111540Y-94267616D02*
X82587731Y-94267616D01*
X82492493Y-94219997D01*
X82444874Y-94124759D01*
X82444874Y-93981902D01*
X82492493Y-93886664D01*
X82540112Y-93839045D01*
X82444874Y-93362854D02*
X83444874Y-93362854D01*
X83063921Y-93362854D02*
X83111540Y-93267616D01*
X83111540Y-93077140D01*
X83063921Y-92981902D01*
X83016302Y-92934283D01*
X82921064Y-92886664D01*
X82635350Y-92886664D01*
X82540112Y-92934283D01*
X82492493Y-92981902D01*
X82444874Y-93077140D01*
X82444874Y-93267616D01*
X82492493Y-93362854D01*
X82540112Y-92458092D02*
X82492493Y-92410473D01*
X82444874Y-92458092D01*
X82492493Y-92505711D01*
X82540112Y-92458092D01*
X82444874Y-92458092D01*
X82492493Y-91553331D02*
X82444874Y-91648569D01*
X82444874Y-91839045D01*
X82492493Y-91934283D01*
X82540112Y-91981902D01*
X82635350Y-92029521D01*
X82921064Y-92029521D01*
X83016302Y-91981902D01*
X83063921Y-91934283D01*
X83111540Y-91839045D01*
X83111540Y-91648569D01*
X83063921Y-91553331D01*
X82444874Y-90981902D02*
X82492493Y-91077140D01*
X82540112Y-91124759D01*
X82635350Y-91172378D01*
X82921064Y-91172378D01*
X83016302Y-91124759D01*
X83063921Y-91077140D01*
X83111540Y-90981902D01*
X83111540Y-90839045D01*
X83063921Y-90743807D01*
X83016302Y-90696188D01*
X82921064Y-90648569D01*
X82635350Y-90648569D01*
X82540112Y-90696188D01*
X82492493Y-90743807D01*
X82444874Y-90839045D01*
X82444874Y-90981902D01*
X82444874Y-90219997D02*
X83111540Y-90219997D01*
X83016302Y-90219997D02*
X83063921Y-90172378D01*
X83111540Y-90077140D01*
X83111540Y-89934283D01*
X83063921Y-89839045D01*
X82968683Y-89791426D01*
X82444874Y-89791426D01*
X82968683Y-89791426D02*
X83063921Y-89743807D01*
X83111540Y-89648569D01*
X83111540Y-89505711D01*
X83063921Y-89410473D01*
X82968683Y-89362854D01*
X82444874Y-89362854D01*
X83492493Y-88172378D02*
X82206778Y-89029521D01*
X82444874Y-87839045D02*
X83444874Y-87839045D01*
X82444874Y-87410473D02*
X82968683Y-87410473D01*
X83063921Y-87458092D01*
X83111540Y-87553331D01*
X83111540Y-87696188D01*
X83063921Y-87791426D01*
X83016302Y-87839045D01*
X82444874Y-86505711D02*
X82968683Y-86505711D01*
X83063921Y-86553331D01*
X83111540Y-86648569D01*
X83111540Y-86839045D01*
X83063921Y-86934283D01*
X82492493Y-86505711D02*
X82444874Y-86600950D01*
X82444874Y-86839045D01*
X82492493Y-86934283D01*
X82587731Y-86981902D01*
X82682969Y-86981902D01*
X82778207Y-86934283D01*
X82825826Y-86839045D01*
X82825826Y-86600950D01*
X82873445Y-86505711D01*
X82444874Y-86029521D02*
X83111540Y-86029521D01*
X82921064Y-86029521D02*
X83016302Y-85981902D01*
X83063921Y-85934283D01*
X83111540Y-85839045D01*
X83111540Y-85743807D01*
X82492493Y-85458092D02*
X82444874Y-85362854D01*
X82444874Y-85172378D01*
X82492493Y-85077140D01*
X82587731Y-85029521D01*
X82635350Y-85029521D01*
X82730588Y-85077140D01*
X82778207Y-85172378D01*
X82778207Y-85315235D01*
X82825826Y-85410473D01*
X82921064Y-85458092D01*
X82968683Y-85458092D01*
X83063921Y-85410473D01*
X83111540Y-85315235D01*
X83111540Y-85172378D01*
X83063921Y-85077140D01*
X82444874Y-84600950D02*
X83444874Y-84600950D01*
X82444874Y-84172378D02*
X82968683Y-84172378D01*
X83063921Y-84219997D01*
X83111540Y-84315235D01*
X83111540Y-84458092D01*
X83063921Y-84553331D01*
X83016302Y-84600950D01*
X82444874Y-83696188D02*
X83111540Y-83696188D01*
X83444874Y-83696188D02*
X83397255Y-83743807D01*
X83349635Y-83696188D01*
X83397255Y-83648569D01*
X83444874Y-83696188D01*
X83349635Y-83696188D01*
X83111540Y-83362854D02*
X83111540Y-82981902D01*
X83444874Y-83219997D02*
X82587731Y-83219997D01*
X82492493Y-83172378D01*
X82444874Y-83077140D01*
X82444874Y-82981902D01*
X83111540Y-82219997D02*
X82302016Y-82219997D01*
X82206778Y-82267616D01*
X82159159Y-82315235D01*
X82111540Y-82410473D01*
X82111540Y-82553331D01*
X82159159Y-82648569D01*
X82492493Y-82219997D02*
X82444874Y-82315235D01*
X82444874Y-82505711D01*
X82492493Y-82600950D01*
X82540112Y-82648569D01*
X82635350Y-82696188D01*
X82921064Y-82696188D01*
X83016302Y-82648569D01*
X83063921Y-82600950D01*
X83111540Y-82505711D01*
X83111540Y-82315235D01*
X83063921Y-82219997D01*
X82444874Y-81600950D02*
X82492493Y-81696188D01*
X82540112Y-81743807D01*
X82635350Y-81791426D01*
X82921064Y-81791426D01*
X83016302Y-81743807D01*
X83063921Y-81696188D01*
X83111540Y-81600950D01*
X83111540Y-81458092D01*
X83063921Y-81362854D01*
X83016302Y-81315235D01*
X82921064Y-81267616D01*
X82635350Y-81267616D01*
X82540112Y-81315235D01*
X82492493Y-81362854D01*
X82444874Y-81458092D01*
X82444874Y-81600950D01*
X82492493Y-80458092D02*
X82444874Y-80553331D01*
X82444874Y-80743807D01*
X82492493Y-80839045D01*
X82587731Y-80886664D01*
X82968683Y-80886664D01*
X83063921Y-80839045D01*
X83111540Y-80743807D01*
X83111540Y-80553331D01*
X83063921Y-80458092D01*
X82968683Y-80410473D01*
X82873445Y-80410473D01*
X82778207Y-80886664D01*
X82444874Y-79839045D02*
X82492493Y-79934283D01*
X82587731Y-79981902D01*
X83444874Y-79981902D01*
X82444874Y-79410473D02*
X82444874Y-79219997D01*
X82492493Y-79124759D01*
X82540112Y-79077140D01*
X82682969Y-78981902D01*
X82873445Y-78934283D01*
X83254397Y-78934283D01*
X83349635Y-78981902D01*
X83397255Y-79029521D01*
X83444874Y-79124759D01*
X83444874Y-79315235D01*
X83397255Y-79410473D01*
X83349635Y-79458092D01*
X83254397Y-79505711D01*
X83016302Y-79505711D01*
X82921064Y-79458092D01*
X82873445Y-79410473D01*
X82825826Y-79315235D01*
X82825826Y-79124759D01*
X82873445Y-79029521D01*
X82921064Y-78981902D01*
X83016302Y-78934283D01*
X83444874Y-78077140D02*
X83444874Y-78267616D01*
X83397255Y-78362854D01*
X83349635Y-78410473D01*
X83206778Y-78505711D01*
X83016302Y-78553331D01*
X82635350Y-78553331D01*
X82540112Y-78505711D01*
X82492493Y-78458092D01*
X82444874Y-78362854D01*
X82444874Y-78172378D01*
X82492493Y-78077140D01*
X82540112Y-78029521D01*
X82635350Y-77981902D01*
X82873445Y-77981902D01*
X82968683Y-78029521D01*
X83016302Y-78077140D01*
X83063921Y-78172378D01*
X83063921Y-78362854D01*
X83016302Y-78458092D01*
X82968683Y-78505711D01*
X82873445Y-78553331D01*
X83492493Y-76839045D02*
X82206778Y-77696188D01*
D12*
X114794064Y-66129996D02*
X114294064Y-65963330D01*
X114794064Y-65796663D01*
X114341683Y-65344282D02*
X114317874Y-65368091D01*
X114294064Y-65439520D01*
X114294064Y-65487139D01*
X114317874Y-65558568D01*
X114365493Y-65606187D01*
X114413112Y-65629996D01*
X114508350Y-65653806D01*
X114579778Y-65653806D01*
X114675016Y-65629996D01*
X114722635Y-65606187D01*
X114770255Y-65558568D01*
X114794064Y-65487139D01*
X114794064Y-65439520D01*
X114770255Y-65368091D01*
X114746445Y-65344282D01*
X114341683Y-64844282D02*
X114317874Y-64868091D01*
X114294064Y-64939520D01*
X114294064Y-64987139D01*
X114317874Y-65058568D01*
X114365493Y-65106187D01*
X114413112Y-65129996D01*
X114508350Y-65153806D01*
X114579778Y-65153806D01*
X114675016Y-65129996D01*
X114722635Y-65106187D01*
X114770255Y-65058568D01*
X114794064Y-64987139D01*
X114794064Y-64939520D01*
X114770255Y-64868091D01*
X114746445Y-64844282D01*
X114167063Y-63498710D02*
X114667063Y-63498710D01*
X114667063Y-63308234D01*
X114643254Y-63260615D01*
X114619444Y-63236806D01*
X114571825Y-63212996D01*
X114500396Y-63212996D01*
X114452777Y-63236806D01*
X114428968Y-63260615D01*
X114405158Y-63308234D01*
X114405158Y-63498710D01*
X114667063Y-63046330D02*
X114167063Y-62927282D01*
X114524206Y-62832044D01*
X114167063Y-62736806D01*
X114667063Y-62617758D01*
X114167063Y-62427282D02*
X114667063Y-62427282D01*
X114309920Y-62260615D01*
X114667063Y-62093949D01*
X114167063Y-62093949D01*
X114643254Y-61018282D02*
X114667063Y-61065901D01*
X114667063Y-61137330D01*
X114643254Y-61208758D01*
X114595634Y-61256377D01*
X114548015Y-61280187D01*
X114452777Y-61303996D01*
X114381349Y-61303996D01*
X114286111Y-61280187D01*
X114238492Y-61256377D01*
X114190873Y-61208758D01*
X114167063Y-61137330D01*
X114167063Y-61089710D01*
X114190873Y-61018282D01*
X114214682Y-60994472D01*
X114381349Y-60994472D01*
X114381349Y-61089710D01*
X114167063Y-60780187D02*
X114667063Y-60780187D01*
X114167063Y-60494472D01*
X114667063Y-60494472D01*
X114167063Y-60256377D02*
X114667063Y-60256377D01*
X114667063Y-60137330D01*
X114643254Y-60065901D01*
X114595634Y-60018282D01*
X114548015Y-59994472D01*
X114452777Y-59970663D01*
X114381349Y-59970663D01*
X114286111Y-59994472D01*
X114238492Y-60018282D01*
X114190873Y-60065901D01*
X114167063Y-60137330D01*
X114167063Y-60256377D01*
X103316396Y-86620710D02*
X103244968Y-86644520D01*
X103125920Y-86644520D01*
X103078301Y-86620710D01*
X103054492Y-86596901D01*
X103030682Y-86549282D01*
X103030682Y-86501663D01*
X103054492Y-86454044D01*
X103078301Y-86430234D01*
X103125920Y-86406425D01*
X103221158Y-86382615D01*
X103268777Y-86358806D01*
X103292587Y-86334996D01*
X103316396Y-86287377D01*
X103316396Y-86239758D01*
X103292587Y-86192139D01*
X103268777Y-86168330D01*
X103221158Y-86144520D01*
X103102111Y-86144520D01*
X103030682Y-86168330D01*
X102816396Y-86644520D02*
X102816396Y-86144520D01*
X102697349Y-86144520D01*
X102625920Y-86168330D01*
X102578301Y-86215949D01*
X102554492Y-86263568D01*
X102530682Y-86358806D01*
X102530682Y-86430234D01*
X102554492Y-86525472D01*
X102578301Y-86573091D01*
X102625920Y-86620710D01*
X102697349Y-86644520D01*
X102816396Y-86644520D01*
X102340206Y-86501663D02*
X102102111Y-86501663D01*
X102387825Y-86644520D02*
X102221158Y-86144520D01*
X102054492Y-86644520D01*
D11*
X84524492Y-101275521D02*
X84476873Y-101132664D01*
X84476873Y-100894569D01*
X84524492Y-100799331D01*
X84572111Y-100751711D01*
X84667349Y-100704092D01*
X84762587Y-100704092D01*
X84857825Y-100751711D01*
X84905444Y-100799331D01*
X84953063Y-100894569D01*
X85000682Y-101085045D01*
X85048301Y-101180283D01*
X85095920Y-101227902D01*
X85191158Y-101275521D01*
X85286396Y-101275521D01*
X85381634Y-101227902D01*
X85429254Y-101180283D01*
X85476873Y-101085045D01*
X85476873Y-100846950D01*
X85429254Y-100704092D01*
X85143539Y-100275521D02*
X84143539Y-100275521D01*
X85095920Y-100275521D02*
X85143539Y-100180283D01*
X85143539Y-99989807D01*
X85095920Y-99894569D01*
X85048301Y-99846950D01*
X84953063Y-99799331D01*
X84667349Y-99799331D01*
X84572111Y-99846950D01*
X84524492Y-99894569D01*
X84476873Y-99989807D01*
X84476873Y-100180283D01*
X84524492Y-100275521D01*
X84476873Y-99227902D02*
X84524492Y-99323140D01*
X84619730Y-99370759D01*
X85476873Y-99370759D01*
X84476873Y-98846950D02*
X85143539Y-98846950D01*
X85476873Y-98846950D02*
X85429254Y-98894569D01*
X85381634Y-98846950D01*
X85429254Y-98799331D01*
X85476873Y-98846950D01*
X85381634Y-98846950D01*
X85143539Y-98513616D02*
X85143539Y-98132664D01*
X85476873Y-98370759D02*
X84619730Y-98370759D01*
X84524492Y-98323140D01*
X84476873Y-98227902D01*
X84476873Y-98132664D01*
X84476873Y-97037426D02*
X85476873Y-97037426D01*
X85476873Y-96656473D01*
X85429254Y-96561235D01*
X85381634Y-96513616D01*
X85286396Y-96465997D01*
X85143539Y-96465997D01*
X85048301Y-96513616D01*
X85000682Y-96561235D01*
X84953063Y-96656473D01*
X84953063Y-97037426D01*
X84572111Y-95465997D02*
X84524492Y-95513616D01*
X84476873Y-95656473D01*
X84476873Y-95751711D01*
X84524492Y-95894569D01*
X84619730Y-95989807D01*
X84714968Y-96037426D01*
X84905444Y-96085045D01*
X85048301Y-96085045D01*
X85238777Y-96037426D01*
X85334015Y-95989807D01*
X85429254Y-95894569D01*
X85476873Y-95751711D01*
X85476873Y-95656473D01*
X85429254Y-95513616D01*
X85381634Y-95465997D01*
X85000682Y-94704092D02*
X84953063Y-94561235D01*
X84905444Y-94513616D01*
X84810206Y-94465997D01*
X84667349Y-94465997D01*
X84572111Y-94513616D01*
X84524492Y-94561235D01*
X84476873Y-94656473D01*
X84476873Y-95037426D01*
X85476873Y-95037426D01*
X85476873Y-94704092D01*
X85429254Y-94608854D01*
X85381634Y-94561235D01*
X85286396Y-94513616D01*
X85191158Y-94513616D01*
X85095920Y-94561235D01*
X85048301Y-94608854D01*
X85000682Y-94704092D01*
X85000682Y-95037426D01*
X84476873Y-92846950D02*
X85476873Y-92846950D01*
X84524492Y-92846950D02*
X84476873Y-92942188D01*
X84476873Y-93132664D01*
X84524492Y-93227902D01*
X84572111Y-93275521D01*
X84667349Y-93323140D01*
X84953063Y-93323140D01*
X85048301Y-93275521D01*
X85095920Y-93227902D01*
X85143539Y-93132664D01*
X85143539Y-92942188D01*
X85095920Y-92846950D01*
X84524492Y-91989807D02*
X84476873Y-92085045D01*
X84476873Y-92275521D01*
X84524492Y-92370759D01*
X84619730Y-92418378D01*
X85000682Y-92418378D01*
X85095920Y-92370759D01*
X85143539Y-92275521D01*
X85143539Y-92085045D01*
X85095920Y-91989807D01*
X85000682Y-91942188D01*
X84905444Y-91942188D01*
X84810206Y-92418378D01*
X84524492Y-91561235D02*
X84476873Y-91465997D01*
X84476873Y-91275521D01*
X84524492Y-91180283D01*
X84619730Y-91132664D01*
X84667349Y-91132664D01*
X84762587Y-91180283D01*
X84810206Y-91275521D01*
X84810206Y-91418378D01*
X84857825Y-91513616D01*
X84953063Y-91561235D01*
X85000682Y-91561235D01*
X85095920Y-91513616D01*
X85143539Y-91418378D01*
X85143539Y-91275521D01*
X85095920Y-91180283D01*
X84476873Y-90704092D02*
X85143539Y-90704092D01*
X85476873Y-90704092D02*
X85429254Y-90751711D01*
X85381634Y-90704092D01*
X85429254Y-90656473D01*
X85476873Y-90704092D01*
X85381634Y-90704092D01*
X85143539Y-89799331D02*
X84334015Y-89799331D01*
X84238777Y-89846950D01*
X84191158Y-89894569D01*
X84143539Y-89989807D01*
X84143539Y-90132664D01*
X84191158Y-90227902D01*
X84524492Y-89799331D02*
X84476873Y-89894569D01*
X84476873Y-90085045D01*
X84524492Y-90180283D01*
X84572111Y-90227902D01*
X84667349Y-90275521D01*
X84953063Y-90275521D01*
X85048301Y-90227902D01*
X85095920Y-90180283D01*
X85143539Y-90085045D01*
X85143539Y-89894569D01*
X85095920Y-89799331D01*
X85143539Y-89323140D02*
X84476873Y-89323140D01*
X85048301Y-89323140D02*
X85095920Y-89275521D01*
X85143539Y-89180283D01*
X85143539Y-89037426D01*
X85095920Y-88942188D01*
X85000682Y-88894569D01*
X84476873Y-88894569D01*
X84524492Y-88037426D02*
X84476873Y-88132664D01*
X84476873Y-88323140D01*
X84524492Y-88418378D01*
X84619730Y-88465997D01*
X85000682Y-88465997D01*
X85095920Y-88418378D01*
X85143539Y-88323140D01*
X85143539Y-88132664D01*
X85095920Y-88037426D01*
X85000682Y-87989807D01*
X84905444Y-87989807D01*
X84810206Y-88465997D01*
X84476873Y-87132664D02*
X85476873Y-87132664D01*
X84524492Y-87132664D02*
X84476873Y-87227902D01*
X84476873Y-87418378D01*
X84524492Y-87513616D01*
X84572111Y-87561235D01*
X84667349Y-87608854D01*
X84953063Y-87608854D01*
X85048301Y-87561235D01*
X85095920Y-87513616D01*
X85143539Y-87418378D01*
X85143539Y-87227902D01*
X85095920Y-87132664D01*
X85143539Y-86037426D02*
X85143539Y-85656473D01*
X84476873Y-85894569D02*
X85334015Y-85894569D01*
X85429254Y-85846950D01*
X85476873Y-85751711D01*
X85476873Y-85656473D01*
X84476873Y-85180283D02*
X84524492Y-85275521D01*
X84572111Y-85323140D01*
X84667349Y-85370759D01*
X84953063Y-85370759D01*
X85048301Y-85323140D01*
X85095920Y-85275521D01*
X85143539Y-85180283D01*
X85143539Y-85037426D01*
X85095920Y-84942188D01*
X85048301Y-84894569D01*
X84953063Y-84846950D01*
X84667349Y-84846950D01*
X84572111Y-84894569D01*
X84524492Y-84942188D01*
X84476873Y-85037426D01*
X84476873Y-85180283D01*
X84476873Y-84418378D02*
X85143539Y-84418378D01*
X84953063Y-84418378D02*
X85048301Y-84370759D01*
X85095920Y-84323140D01*
X85143539Y-84227902D01*
X85143539Y-84132664D01*
X84476873Y-83037426D02*
X85143539Y-83037426D01*
X85048301Y-83037426D02*
X85095920Y-82989807D01*
X85143539Y-82894569D01*
X85143539Y-82751711D01*
X85095920Y-82656473D01*
X85000682Y-82608854D01*
X84476873Y-82608854D01*
X85000682Y-82608854D02*
X85095920Y-82561235D01*
X85143539Y-82465997D01*
X85143539Y-82323140D01*
X85095920Y-82227902D01*
X85000682Y-82180283D01*
X84476873Y-82180283D01*
X84476873Y-81704092D02*
X85143539Y-81704092D01*
X85476873Y-81704092D02*
X85429254Y-81751711D01*
X85381634Y-81704092D01*
X85429254Y-81656473D01*
X85476873Y-81704092D01*
X85381634Y-81704092D01*
X84476873Y-81227902D02*
X85143539Y-81227902D01*
X84953063Y-81227902D02*
X85048301Y-81180283D01*
X85095920Y-81132664D01*
X85143539Y-81037426D01*
X85143539Y-80942188D01*
X85143539Y-80704092D02*
X84476873Y-80465997D01*
X85143539Y-80227902D02*
X84476873Y-80465997D01*
X84238777Y-80561235D01*
X84191158Y-80608854D01*
X84143539Y-80704092D01*
X84476873Y-79704092D02*
X84524492Y-79799331D01*
X84572111Y-79846950D01*
X84667349Y-79894569D01*
X84953063Y-79894569D01*
X85048301Y-79846950D01*
X85095920Y-79799331D01*
X85143539Y-79704092D01*
X85143539Y-79561235D01*
X85095920Y-79465997D01*
X85048301Y-79418378D01*
X84953063Y-79370759D01*
X84667349Y-79370759D01*
X84572111Y-79418378D01*
X84524492Y-79465997D01*
X84476873Y-79561235D01*
X84476873Y-79704092D01*
X84476873Y-78942188D02*
X85476873Y-78942188D01*
X84857825Y-78846950D02*
X84476873Y-78561235D01*
X85143539Y-78561235D02*
X84762587Y-78942188D01*
X85143539Y-77704092D02*
X84476873Y-77704092D01*
X85143539Y-78132664D02*
X84619730Y-78132664D01*
X84524492Y-78085045D01*
X84476873Y-77989807D01*
X84476873Y-77846950D01*
X84524492Y-77751711D01*
X84572111Y-77704092D01*
X84476873Y-76323140D02*
X84524492Y-76418378D01*
X84619730Y-76465997D01*
X85476873Y-76465997D01*
X84476873Y-75513616D02*
X85000682Y-75513616D01*
X85095920Y-75561235D01*
X85143539Y-75656473D01*
X85143539Y-75846950D01*
X85095920Y-75942188D01*
X84524492Y-75513616D02*
X84476873Y-75608854D01*
X84476873Y-75846950D01*
X84524492Y-75942188D01*
X84619730Y-75989807D01*
X84714968Y-75989807D01*
X84810206Y-75942188D01*
X84857825Y-75846950D01*
X84857825Y-75608854D01*
X84905444Y-75513616D01*
X85143539Y-75132664D02*
X84476873Y-74894569D01*
X85143539Y-74656473D02*
X84476873Y-74894569D01*
X84238777Y-74989807D01*
X84191158Y-75037426D01*
X84143539Y-75132664D01*
X84476873Y-74132664D02*
X84524492Y-74227902D01*
X84572111Y-74275521D01*
X84667349Y-74323140D01*
X84953063Y-74323140D01*
X85048301Y-74275521D01*
X85095920Y-74227902D01*
X85143539Y-74132664D01*
X85143539Y-73989807D01*
X85095920Y-73894569D01*
X85048301Y-73846950D01*
X84953063Y-73799331D01*
X84667349Y-73799331D01*
X84572111Y-73846950D01*
X84524492Y-73894569D01*
X84476873Y-73989807D01*
X84476873Y-74132664D01*
X85143539Y-72942188D02*
X84476873Y-72942188D01*
X85143539Y-73370759D02*
X84619730Y-73370759D01*
X84524492Y-73323140D01*
X84476873Y-73227902D01*
X84476873Y-73085045D01*
X84524492Y-72989807D01*
X84572111Y-72942188D01*
X85143539Y-72608854D02*
X85143539Y-72227902D01*
X85476873Y-72465997D02*
X84619730Y-72465997D01*
X84524492Y-72418378D01*
X84476873Y-72323140D01*
X84476873Y-72227902D01*
%TO.C,U1*%
X107738454Y-48839031D02*
X107738454Y-79319031D01*
X102658454Y-48839031D02*
X107738454Y-48839031D01*
X102658454Y-46299031D02*
X102658454Y-48839031D01*
X95038454Y-46299031D02*
X102658454Y-46299031D01*
X95038454Y-48839031D02*
X95038454Y-46299031D01*
X89958454Y-48839031D02*
X95038454Y-48839031D01*
X89958454Y-79319031D02*
X89958454Y-48839031D01*
X107738454Y-79319031D02*
X89958454Y-79319031D01*
%TO.C,J2*%
X81625254Y-48989330D02*
X87725254Y-48989330D01*
X81625254Y-61089330D02*
X87725254Y-61089330D01*
X81625254Y-48989330D02*
X81625254Y-61089330D01*
X87725254Y-48989330D02*
X87725254Y-61089330D01*
X81875254Y-48989330D02*
X81875254Y-46989330D01*
X87475254Y-48989330D02*
X87475254Y-46989330D01*
X81875254Y-46989330D02*
X87475254Y-46989330D01*
%TO.C,D_RE1*%
X92676254Y-113596330D02*
X92676254Y-112072330D01*
X97375254Y-112072330D02*
X97375254Y-113596330D01*
X97375254Y-113596330D02*
X92295254Y-113596330D01*
X97375254Y-113596330D02*
X96867254Y-113596330D01*
X92549254Y-112072330D02*
X92549254Y-113596330D01*
X92803254Y-112072330D02*
X92803254Y-113596330D01*
X92295254Y-113596330D02*
X92295254Y-112072330D01*
X92295254Y-112072330D02*
X97375254Y-112072330D01*
X93057254Y-113596330D02*
X93057254Y-112072330D01*
X92422254Y-113596330D02*
X92422254Y-112072330D01*
X92930254Y-113596330D02*
X92930254Y-112072330D01*
D13*
%TO.C,LOGO1*%
G36*
X92065702Y-87681979D02*
G01*
X92061473Y-87611794D01*
X92051740Y-87516149D01*
X92038261Y-87407383D01*
X92022795Y-87297833D01*
X92007100Y-87199838D01*
X91992935Y-87125737D01*
X91982059Y-87087866D01*
X91980756Y-87086008D01*
X91953288Y-87088612D01*
X91913787Y-87122151D01*
X91873885Y-87172609D01*
X91845214Y-87225970D01*
X91838055Y-87257946D01*
X91835262Y-87276937D01*
X91821861Y-87290321D01*
X91790320Y-87299072D01*
X91733105Y-87304169D01*
X91642686Y-87306586D01*
X91511529Y-87307301D01*
X91457055Y-87307329D01*
X91076055Y-87307329D01*
X91076056Y-87135618D01*
X91076056Y-86963907D01*
X91253650Y-86828468D01*
X91325828Y-86774351D01*
X91374891Y-86733520D01*
X91399538Y-86697668D01*
X91398467Y-86658486D01*
X91370379Y-86607668D01*
X91313971Y-86536906D01*
X91227944Y-86437892D01*
X91184714Y-86388245D01*
X91110194Y-86305544D01*
X91045501Y-86239715D01*
X90999017Y-86198956D01*
X90981730Y-86189729D01*
X90954800Y-86197831D01*
X90934103Y-86225714D01*
X90918902Y-86278749D01*
X90908458Y-86362304D01*
X90902036Y-86481749D01*
X90898898Y-86642453D01*
X90898255Y-86797660D01*
X90898255Y-87307329D01*
X90034655Y-87307329D01*
X90034829Y-87085079D01*
X90035539Y-86978240D01*
X90039924Y-86909733D01*
X90051667Y-86867091D01*
X90074454Y-86837847D01*
X90111969Y-86809534D01*
X90117379Y-86805785D01*
X90188724Y-86753080D01*
X90270067Y-86688465D01*
X90298051Y-86665089D01*
X90396346Y-86581438D01*
X90190350Y-86336437D01*
X90110151Y-86242073D01*
X90040600Y-86162139D01*
X89988763Y-86104621D01*
X89961701Y-86077507D01*
X89960752Y-86076849D01*
X89926578Y-86080893D01*
X89897003Y-86102410D01*
X89882837Y-86123549D01*
X89872351Y-86159193D01*
X89865030Y-86216217D01*
X89860357Y-86301499D01*
X89857817Y-86421912D01*
X89856894Y-86584334D01*
X89856855Y-86637755D01*
X89856855Y-87132953D01*
X89799705Y-87115327D01*
X89723129Y-87082629D01*
X89618402Y-87025508D01*
X89497120Y-86951178D01*
X89370881Y-86866851D01*
X89251280Y-86779739D01*
X89216464Y-86752581D01*
X88970812Y-86527533D01*
X88751603Y-86266494D01*
X88675963Y-86157979D01*
X88623635Y-86084798D01*
X88578390Y-86032397D01*
X88549884Y-86011936D01*
X88549587Y-86011930D01*
X88513162Y-86029027D01*
X88464366Y-86070746D01*
X88459049Y-86076288D01*
X88396461Y-86121686D01*
X88299434Y-86167249D01*
X88220517Y-86194734D01*
X88042448Y-86248821D01*
X88206702Y-86399384D01*
X88401581Y-86566678D01*
X88600781Y-86713099D01*
X88812496Y-86842931D01*
X89044924Y-86960456D01*
X89306259Y-87069960D01*
X89604698Y-87175725D01*
X89825105Y-87245299D01*
X89854670Y-87270942D01*
X89856855Y-87281132D01*
X89832673Y-87288230D01*
X89759880Y-87294196D01*
X89638107Y-87299037D01*
X89466984Y-87302762D01*
X89246142Y-87305379D01*
X88975211Y-87306897D01*
X88690721Y-87307329D01*
X87524587Y-87307329D01*
X87471521Y-87416949D01*
X87438205Y-87509406D01*
X87419758Y-87606516D01*
X87418455Y-87632511D01*
X87418455Y-87738454D01*
X88272635Y-87745142D01*
X89126815Y-87751829D01*
X88926685Y-87882723D01*
X88806251Y-87966724D01*
X88677449Y-88065299D01*
X88551052Y-88169353D01*
X88437835Y-88269792D01*
X88348573Y-88357523D01*
X88306097Y-88406522D01*
X88251958Y-88477014D01*
X88153755Y-88375823D01*
X88076069Y-88306035D01*
X87990777Y-88244176D01*
X87953916Y-88222780D01*
X87836750Y-88180589D01*
X87726038Y-88171610D01*
X87629496Y-88191909D01*
X87554840Y-88237554D01*
X87509786Y-88304614D01*
X87502050Y-88389155D01*
X87517853Y-88445013D01*
X87542423Y-88489483D01*
X87580046Y-88517901D01*
X87645330Y-88538720D01*
X87699720Y-88550270D01*
X87779104Y-88569333D01*
X87833650Y-88589021D01*
X87850255Y-88602650D01*
X87840541Y-88633040D01*
X87813879Y-88700745D01*
X87773997Y-88796675D01*
X87724619Y-88911742D01*
X87707640Y-88950622D01*
X87632349Y-89113245D01*
X87566557Y-89236763D01*
X87512402Y-89317333D01*
X87491511Y-89339329D01*
X87444405Y-89383142D01*
X87419734Y-89412194D01*
X87418642Y-89415529D01*
X87439978Y-89431810D01*
X87496980Y-89465544D01*
X87580013Y-89511198D01*
X87645348Y-89545669D01*
X87754898Y-89601267D01*
X87827367Y-89630949D01*
X87870502Y-89632695D01*
X87892050Y-89604487D01*
X87899758Y-89544306D01*
X87901098Y-89479029D01*
X87907549Y-89414327D01*
X87920603Y-89373329D01*
X87961060Y-89349602D01*
X88051861Y-89326039D01*
X88192553Y-89302721D01*
X88382679Y-89279724D01*
X88561455Y-89262378D01*
X88690965Y-89250489D01*
X88808890Y-89239048D01*
X88902221Y-89229356D01*
X88957949Y-89222714D01*
X88957952Y-89222713D01*
X89036948Y-89211361D01*
X88988621Y-88938795D01*
X88963419Y-88797754D01*
X88944418Y-88700838D01*
X88928729Y-88642192D01*
X88913462Y-88615961D01*
X88895730Y-88616291D01*
X88872641Y-88637326D01*
X88851694Y-88661296D01*
X88810521Y-88720723D01*
X88790441Y-88772918D01*
X88790055Y-88778495D01*
X88767858Y-88818551D01*
X88699116Y-88858159D01*
X88669405Y-88870143D01*
X88598903Y-88898487D01*
X88495937Y-88941941D01*
X88374296Y-88994605D01*
X88247768Y-89050577D01*
X88246838Y-89050993D01*
X87944921Y-89186130D01*
X87962499Y-88992151D01*
X87972999Y-88887476D01*
X87984156Y-88793825D01*
X87993687Y-88730224D01*
X87994327Y-88726924D01*
X88008577Y-88655674D01*
X88138966Y-88721359D01*
X88225899Y-88767688D01*
X88305265Y-88814154D01*
X88339310Y-88836391D01*
X88388591Y-88866727D01*
X88413502Y-88865750D01*
X88423633Y-88848296D01*
X88421502Y-88804331D01*
X88399282Y-88737479D01*
X88385428Y-88707804D01*
X88353729Y-88641321D01*
X88335009Y-88593655D01*
X88332855Y-88583395D01*
X88354248Y-88558294D01*
X88412540Y-88516144D01*
X88498907Y-88462027D01*
X88604523Y-88401023D01*
X88720562Y-88338216D01*
X88838198Y-88278687D01*
X88948607Y-88227518D01*
X88957946Y-88223471D01*
X89098960Y-88166188D01*
X89257014Y-88107519D01*
X89418448Y-88052038D01*
X89569601Y-88004317D01*
X89696811Y-87968930D01*
X89761605Y-87954443D01*
X89856856Y-87936676D01*
X89856855Y-88342940D01*
X89857086Y-88494833D01*
X89858465Y-88603540D01*
X89862026Y-88676675D01*
X89868799Y-88721852D01*
X89879819Y-88746686D01*
X89896115Y-88758790D01*
X89914005Y-88764520D01*
X89954026Y-88774822D01*
X89984052Y-88777341D01*
X90005517Y-88766075D01*
X90019857Y-88735021D01*
X90028506Y-88678178D01*
X90032899Y-88589543D01*
X90034472Y-88463113D01*
X90034658Y-88292888D01*
X90034655Y-88259829D01*
X90034655Y-87739129D01*
X90898255Y-87739129D01*
X90898255Y-88648560D01*
X90978246Y-88676445D01*
X91035058Y-88695415D01*
X91066228Y-88704248D01*
X91067146Y-88704329D01*
X91069920Y-88680230D01*
X91072342Y-88613132D01*
X91074268Y-88510838D01*
X91075553Y-88381147D01*
X91076054Y-88231863D01*
X91076055Y-88221729D01*
X91076055Y-87739129D01*
X92066655Y-87739129D01*
X92065702Y-87681979D01*
G37*
X92065702Y-87681979D02*
X92061473Y-87611794D01*
X92051740Y-87516149D01*
X92038261Y-87407383D01*
X92022795Y-87297833D01*
X92007100Y-87199838D01*
X91992935Y-87125737D01*
X91982059Y-87087866D01*
X91980756Y-87086008D01*
X91953288Y-87088612D01*
X91913787Y-87122151D01*
X91873885Y-87172609D01*
X91845214Y-87225970D01*
X91838055Y-87257946D01*
X91835262Y-87276937D01*
X91821861Y-87290321D01*
X91790320Y-87299072D01*
X91733105Y-87304169D01*
X91642686Y-87306586D01*
X91511529Y-87307301D01*
X91457055Y-87307329D01*
X91076055Y-87307329D01*
X91076056Y-87135618D01*
X91076056Y-86963907D01*
X91253650Y-86828468D01*
X91325828Y-86774351D01*
X91374891Y-86733520D01*
X91399538Y-86697668D01*
X91398467Y-86658486D01*
X91370379Y-86607668D01*
X91313971Y-86536906D01*
X91227944Y-86437892D01*
X91184714Y-86388245D01*
X91110194Y-86305544D01*
X91045501Y-86239715D01*
X90999017Y-86198956D01*
X90981730Y-86189729D01*
X90954800Y-86197831D01*
X90934103Y-86225714D01*
X90918902Y-86278749D01*
X90908458Y-86362304D01*
X90902036Y-86481749D01*
X90898898Y-86642453D01*
X90898255Y-86797660D01*
X90898255Y-87307329D01*
X90034655Y-87307329D01*
X90034829Y-87085079D01*
X90035539Y-86978240D01*
X90039924Y-86909733D01*
X90051667Y-86867091D01*
X90074454Y-86837847D01*
X90111969Y-86809534D01*
X90117379Y-86805785D01*
X90188724Y-86753080D01*
X90270067Y-86688465D01*
X90298051Y-86665089D01*
X90396346Y-86581438D01*
X90190350Y-86336437D01*
X90110151Y-86242073D01*
X90040600Y-86162139D01*
X89988763Y-86104621D01*
X89961701Y-86077507D01*
X89960752Y-86076849D01*
X89926578Y-86080893D01*
X89897003Y-86102410D01*
X89882837Y-86123549D01*
X89872351Y-86159193D01*
X89865030Y-86216217D01*
X89860357Y-86301499D01*
X89857817Y-86421912D01*
X89856894Y-86584334D01*
X89856855Y-86637755D01*
X89856855Y-87132953D01*
X89799705Y-87115327D01*
X89723129Y-87082629D01*
X89618402Y-87025508D01*
X89497120Y-86951178D01*
X89370881Y-86866851D01*
X89251280Y-86779739D01*
X89216464Y-86752581D01*
X88970812Y-86527533D01*
X88751603Y-86266494D01*
X88675963Y-86157979D01*
X88623635Y-86084798D01*
X88578390Y-86032397D01*
X88549884Y-86011936D01*
X88549587Y-86011930D01*
X88513162Y-86029027D01*
X88464366Y-86070746D01*
X88459049Y-86076288D01*
X88396461Y-86121686D01*
X88299434Y-86167249D01*
X88220517Y-86194734D01*
X88042448Y-86248821D01*
X88206702Y-86399384D01*
X88401581Y-86566678D01*
X88600781Y-86713099D01*
X88812496Y-86842931D01*
X89044924Y-86960456D01*
X89306259Y-87069960D01*
X89604698Y-87175725D01*
X89825105Y-87245299D01*
X89854670Y-87270942D01*
X89856855Y-87281132D01*
X89832673Y-87288230D01*
X89759880Y-87294196D01*
X89638107Y-87299037D01*
X89466984Y-87302762D01*
X89246142Y-87305379D01*
X88975211Y-87306897D01*
X88690721Y-87307329D01*
X87524587Y-87307329D01*
X87471521Y-87416949D01*
X87438205Y-87509406D01*
X87419758Y-87606516D01*
X87418455Y-87632511D01*
X87418455Y-87738454D01*
X88272635Y-87745142D01*
X89126815Y-87751829D01*
X88926685Y-87882723D01*
X88806251Y-87966724D01*
X88677449Y-88065299D01*
X88551052Y-88169353D01*
X88437835Y-88269792D01*
X88348573Y-88357523D01*
X88306097Y-88406522D01*
X88251958Y-88477014D01*
X88153755Y-88375823D01*
X88076069Y-88306035D01*
X87990777Y-88244176D01*
X87953916Y-88222780D01*
X87836750Y-88180589D01*
X87726038Y-88171610D01*
X87629496Y-88191909D01*
X87554840Y-88237554D01*
X87509786Y-88304614D01*
X87502050Y-88389155D01*
X87517853Y-88445013D01*
X87542423Y-88489483D01*
X87580046Y-88517901D01*
X87645330Y-88538720D01*
X87699720Y-88550270D01*
X87779104Y-88569333D01*
X87833650Y-88589021D01*
X87850255Y-88602650D01*
X87840541Y-88633040D01*
X87813879Y-88700745D01*
X87773997Y-88796675D01*
X87724619Y-88911742D01*
X87707640Y-88950622D01*
X87632349Y-89113245D01*
X87566557Y-89236763D01*
X87512402Y-89317333D01*
X87491511Y-89339329D01*
X87444405Y-89383142D01*
X87419734Y-89412194D01*
X87418642Y-89415529D01*
X87439978Y-89431810D01*
X87496980Y-89465544D01*
X87580013Y-89511198D01*
X87645348Y-89545669D01*
X87754898Y-89601267D01*
X87827367Y-89630949D01*
X87870502Y-89632695D01*
X87892050Y-89604487D01*
X87899758Y-89544306D01*
X87901098Y-89479029D01*
X87907549Y-89414327D01*
X87920603Y-89373329D01*
X87961060Y-89349602D01*
X88051861Y-89326039D01*
X88192553Y-89302721D01*
X88382679Y-89279724D01*
X88561455Y-89262378D01*
X88690965Y-89250489D01*
X88808890Y-89239048D01*
X88902221Y-89229356D01*
X88957949Y-89222714D01*
X88957952Y-89222713D01*
X89036948Y-89211361D01*
X88988621Y-88938795D01*
X88963419Y-88797754D01*
X88944418Y-88700838D01*
X88928729Y-88642192D01*
X88913462Y-88615961D01*
X88895730Y-88616291D01*
X88872641Y-88637326D01*
X88851694Y-88661296D01*
X88810521Y-88720723D01*
X88790441Y-88772918D01*
X88790055Y-88778495D01*
X88767858Y-88818551D01*
X88699116Y-88858159D01*
X88669405Y-88870143D01*
X88598903Y-88898487D01*
X88495937Y-88941941D01*
X88374296Y-88994605D01*
X88247768Y-89050577D01*
X88246838Y-89050993D01*
X87944921Y-89186130D01*
X87962499Y-88992151D01*
X87972999Y-88887476D01*
X87984156Y-88793825D01*
X87993687Y-88730224D01*
X87994327Y-88726924D01*
X88008577Y-88655674D01*
X88138966Y-88721359D01*
X88225899Y-88767688D01*
X88305265Y-88814154D01*
X88339310Y-88836391D01*
X88388591Y-88866727D01*
X88413502Y-88865750D01*
X88423633Y-88848296D01*
X88421502Y-88804331D01*
X88399282Y-88737479D01*
X88385428Y-88707804D01*
X88353729Y-88641321D01*
X88335009Y-88593655D01*
X88332855Y-88583395D01*
X88354248Y-88558294D01*
X88412540Y-88516144D01*
X88498907Y-88462027D01*
X88604523Y-88401023D01*
X88720562Y-88338216D01*
X88838198Y-88278687D01*
X88948607Y-88227518D01*
X88957946Y-88223471D01*
X89098960Y-88166188D01*
X89257014Y-88107519D01*
X89418448Y-88052038D01*
X89569601Y-88004317D01*
X89696811Y-87968930D01*
X89761605Y-87954443D01*
X89856856Y-87936676D01*
X89856855Y-88342940D01*
X89857086Y-88494833D01*
X89858465Y-88603540D01*
X89862026Y-88676675D01*
X89868799Y-88721852D01*
X89879819Y-88746686D01*
X89896115Y-88758790D01*
X89914005Y-88764520D01*
X89954026Y-88774822D01*
X89984052Y-88777341D01*
X90005517Y-88766075D01*
X90019857Y-88735021D01*
X90028506Y-88678178D01*
X90032899Y-88589543D01*
X90034472Y-88463113D01*
X90034658Y-88292888D01*
X90034655Y-88259829D01*
X90034655Y-87739129D01*
X90898255Y-87739129D01*
X90898255Y-88648560D01*
X90978246Y-88676445D01*
X91035058Y-88695415D01*
X91066228Y-88704248D01*
X91067146Y-88704329D01*
X91069920Y-88680230D01*
X91072342Y-88613132D01*
X91074268Y-88510838D01*
X91075553Y-88381147D01*
X91076054Y-88231863D01*
X91076055Y-88221729D01*
X91076055Y-87739129D01*
X92066655Y-87739129D01*
X92065702Y-87681979D01*
G36*
X92115974Y-83145162D02*
G01*
X92111967Y-83075318D01*
X92103238Y-82978797D01*
X92091238Y-82867275D01*
X92077416Y-82752432D01*
X92063223Y-82645945D01*
X92050106Y-82559492D01*
X92039516Y-82504753D01*
X92034889Y-82491897D01*
X92007531Y-82494848D01*
X91967110Y-82527854D01*
X91925911Y-82576945D01*
X91896217Y-82628151D01*
X91888856Y-82657975D01*
X91886624Y-82677744D01*
X91874949Y-82691736D01*
X91846359Y-82700949D01*
X91793384Y-82706378D01*
X91708554Y-82709018D01*
X91584398Y-82709866D01*
X91499107Y-82709929D01*
X91334436Y-82711127D01*
X91160313Y-82714401D01*
X90995653Y-82719280D01*
X90859366Y-82725288D01*
X90838707Y-82726489D01*
X90568055Y-82743049D01*
X90568055Y-81063192D01*
X90721351Y-80924467D01*
X90874646Y-80785743D01*
X90653953Y-80527819D01*
X90570653Y-80433391D01*
X90497433Y-80355831D01*
X90441181Y-80302043D01*
X90408783Y-80278928D01*
X90405408Y-80278683D01*
X90382341Y-80306260D01*
X90354914Y-80366558D01*
X90341327Y-80406501D01*
X90305099Y-80525529D01*
X90176227Y-80525694D01*
X90071283Y-80527693D01*
X89925493Y-80533104D01*
X89748657Y-80541363D01*
X89550574Y-80551902D01*
X89341043Y-80564156D01*
X89129862Y-80577558D01*
X88926830Y-80591543D01*
X88741746Y-80605544D01*
X88625258Y-80615302D01*
X88257720Y-80651716D01*
X87936755Y-80692171D01*
X87658247Y-80737389D01*
X87418077Y-80788095D01*
X87212129Y-80845012D01*
X87101985Y-80882926D01*
X86925783Y-80974773D01*
X86780409Y-81104730D01*
X86668978Y-81268332D01*
X86594605Y-81461113D01*
X86561822Y-81657262D01*
X86547523Y-81846329D01*
X86646439Y-81846424D01*
X86744014Y-81857136D01*
X86825697Y-81892342D01*
X86895061Y-81956959D01*
X86955677Y-82055904D01*
X87011118Y-82194093D01*
X87064956Y-82376442D01*
X87083015Y-82447290D01*
X87114065Y-82566957D01*
X87138641Y-82644870D01*
X87160210Y-82689096D01*
X87182237Y-82707698D01*
X87195886Y-82709929D01*
X87225206Y-82703366D01*
X87235406Y-82674881D01*
X87230577Y-82611280D01*
X87229358Y-82601979D01*
X87215598Y-82481993D01*
X87201564Y-82330897D01*
X87188368Y-82164201D01*
X87177123Y-81997416D01*
X87168942Y-81846050D01*
X87164937Y-81725614D01*
X87164718Y-81701163D01*
X87166531Y-81602029D01*
X87175507Y-81536594D01*
X87196430Y-81487815D01*
X87234082Y-81438648D01*
X87240425Y-81431373D01*
X87307159Y-81375609D01*
X87406608Y-81324273D01*
X87540595Y-81277094D01*
X87710943Y-81233802D01*
X87919474Y-81194129D01*
X88168009Y-81157805D01*
X88458372Y-81124560D01*
X88792384Y-81094125D01*
X89171868Y-81066230D01*
X89598646Y-81040607D01*
X90028305Y-81019097D01*
X90390255Y-81002418D01*
X90390255Y-82760729D01*
X90316386Y-82760729D01*
X90214863Y-82766208D01*
X90076039Y-82781352D01*
X89912070Y-82804227D01*
X89735112Y-82832898D01*
X89557322Y-82865429D01*
X89390855Y-82899885D01*
X89283081Y-82925238D01*
X88880889Y-83045842D01*
X88514546Y-83197906D01*
X88177304Y-83385213D01*
X87862414Y-83611546D01*
X87563129Y-83880686D01*
X87543644Y-83900166D01*
X87428241Y-84020340D01*
X87311617Y-84148878D01*
X87205052Y-84272888D01*
X87119825Y-84379476D01*
X87096091Y-84411729D01*
X87002910Y-84548952D01*
X86901502Y-84708797D01*
X86799446Y-84878365D01*
X86704320Y-85044754D01*
X86623703Y-85195065D01*
X86566762Y-85312787D01*
X86534138Y-85391395D01*
X86522673Y-85438099D01*
X86530581Y-85466318D01*
X86544472Y-85480452D01*
X86562843Y-85494710D01*
X86579449Y-85498740D01*
X86599655Y-85486819D01*
X86628827Y-85453224D01*
X86672328Y-85392230D01*
X86735525Y-85298114D01*
X86784356Y-85224529D01*
X87068701Y-84834099D01*
X87373497Y-84489798D01*
X87699876Y-84190776D01*
X88048971Y-83936177D01*
X88421916Y-83725150D01*
X88819843Y-83556840D01*
X89127243Y-83460326D01*
X89339658Y-83408925D01*
X89581206Y-83360790D01*
X89830226Y-83319683D01*
X90065051Y-83289365D01*
X90168005Y-83279617D01*
X90390255Y-83261744D01*
X90390255Y-85168760D01*
X90470246Y-85196645D01*
X90527058Y-85215615D01*
X90558228Y-85224448D01*
X90559146Y-85224529D01*
X90561116Y-85200039D01*
X90562935Y-85130202D01*
X90564554Y-85020472D01*
X90565923Y-84876305D01*
X90566994Y-84703153D01*
X90567716Y-84506471D01*
X90568042Y-84291711D01*
X90568056Y-84237054D01*
X90568056Y-83249578D01*
X92117456Y-83212094D01*
X92115974Y-83145162D01*
G37*
X92115974Y-83145162D02*
X92111967Y-83075318D01*
X92103238Y-82978797D01*
X92091238Y-82867275D01*
X92077416Y-82752432D01*
X92063223Y-82645945D01*
X92050106Y-82559492D01*
X92039516Y-82504753D01*
X92034889Y-82491897D01*
X92007531Y-82494848D01*
X91967110Y-82527854D01*
X91925911Y-82576945D01*
X91896217Y-82628151D01*
X91888856Y-82657975D01*
X91886624Y-82677744D01*
X91874949Y-82691736D01*
X91846359Y-82700949D01*
X91793384Y-82706378D01*
X91708554Y-82709018D01*
X91584398Y-82709866D01*
X91499107Y-82709929D01*
X91334436Y-82711127D01*
X91160313Y-82714401D01*
X90995653Y-82719280D01*
X90859366Y-82725288D01*
X90838707Y-82726489D01*
X90568055Y-82743049D01*
X90568055Y-81063192D01*
X90721351Y-80924467D01*
X90874646Y-80785743D01*
X90653953Y-80527819D01*
X90570653Y-80433391D01*
X90497433Y-80355831D01*
X90441181Y-80302043D01*
X90408783Y-80278928D01*
X90405408Y-80278683D01*
X90382341Y-80306260D01*
X90354914Y-80366558D01*
X90341327Y-80406501D01*
X90305099Y-80525529D01*
X90176227Y-80525694D01*
X90071283Y-80527693D01*
X89925493Y-80533104D01*
X89748657Y-80541363D01*
X89550574Y-80551902D01*
X89341043Y-80564156D01*
X89129862Y-80577558D01*
X88926830Y-80591543D01*
X88741746Y-80605544D01*
X88625258Y-80615302D01*
X88257720Y-80651716D01*
X87936755Y-80692171D01*
X87658247Y-80737389D01*
X87418077Y-80788095D01*
X87212129Y-80845012D01*
X87101985Y-80882926D01*
X86925783Y-80974773D01*
X86780409Y-81104730D01*
X86668978Y-81268332D01*
X86594605Y-81461113D01*
X86561822Y-81657262D01*
X86547523Y-81846329D01*
X86646439Y-81846424D01*
X86744014Y-81857136D01*
X86825697Y-81892342D01*
X86895061Y-81956959D01*
X86955677Y-82055904D01*
X87011118Y-82194093D01*
X87064956Y-82376442D01*
X87083015Y-82447290D01*
X87114065Y-82566957D01*
X87138641Y-82644870D01*
X87160210Y-82689096D01*
X87182237Y-82707698D01*
X87195886Y-82709929D01*
X87225206Y-82703366D01*
X87235406Y-82674881D01*
X87230577Y-82611280D01*
X87229358Y-82601979D01*
X87215598Y-82481993D01*
X87201564Y-82330897D01*
X87188368Y-82164201D01*
X87177123Y-81997416D01*
X87168942Y-81846050D01*
X87164937Y-81725614D01*
X87164718Y-81701163D01*
X87166531Y-81602029D01*
X87175507Y-81536594D01*
X87196430Y-81487815D01*
X87234082Y-81438648D01*
X87240425Y-81431373D01*
X87307159Y-81375609D01*
X87406608Y-81324273D01*
X87540595Y-81277094D01*
X87710943Y-81233802D01*
X87919474Y-81194129D01*
X88168009Y-81157805D01*
X88458372Y-81124560D01*
X88792384Y-81094125D01*
X89171868Y-81066230D01*
X89598646Y-81040607D01*
X90028305Y-81019097D01*
X90390255Y-81002418D01*
X90390255Y-82760729D01*
X90316386Y-82760729D01*
X90214863Y-82766208D01*
X90076039Y-82781352D01*
X89912070Y-82804227D01*
X89735112Y-82832898D01*
X89557322Y-82865429D01*
X89390855Y-82899885D01*
X89283081Y-82925238D01*
X88880889Y-83045842D01*
X88514546Y-83197906D01*
X88177304Y-83385213D01*
X87862414Y-83611546D01*
X87563129Y-83880686D01*
X87543644Y-83900166D01*
X87428241Y-84020340D01*
X87311617Y-84148878D01*
X87205052Y-84272888D01*
X87119825Y-84379476D01*
X87096091Y-84411729D01*
X87002910Y-84548952D01*
X86901502Y-84708797D01*
X86799446Y-84878365D01*
X86704320Y-85044754D01*
X86623703Y-85195065D01*
X86566762Y-85312787D01*
X86534138Y-85391395D01*
X86522673Y-85438099D01*
X86530581Y-85466318D01*
X86544472Y-85480452D01*
X86562843Y-85494710D01*
X86579449Y-85498740D01*
X86599655Y-85486819D01*
X86628827Y-85453224D01*
X86672328Y-85392230D01*
X86735525Y-85298114D01*
X86784356Y-85224529D01*
X87068701Y-84834099D01*
X87373497Y-84489798D01*
X87699876Y-84190776D01*
X88048971Y-83936177D01*
X88421916Y-83725150D01*
X88819843Y-83556840D01*
X89127243Y-83460326D01*
X89339658Y-83408925D01*
X89581206Y-83360790D01*
X89830226Y-83319683D01*
X90065051Y-83289365D01*
X90168005Y-83279617D01*
X90390255Y-83261744D01*
X90390255Y-85168760D01*
X90470246Y-85196645D01*
X90527058Y-85215615D01*
X90558228Y-85224448D01*
X90559146Y-85224529D01*
X90561116Y-85200039D01*
X90562935Y-85130202D01*
X90564554Y-85020472D01*
X90565923Y-84876305D01*
X90566994Y-84703153D01*
X90567716Y-84506471D01*
X90568042Y-84291711D01*
X90568056Y-84237054D01*
X90568056Y-83249578D01*
X92117456Y-83212094D01*
X92115974Y-83145162D01*
G36*
X92105642Y-90322883D02*
G01*
X92091555Y-90228265D01*
X92072547Y-90119011D01*
X92050803Y-90006738D01*
X92028511Y-89903061D01*
X92007854Y-89819597D01*
X91991020Y-89767964D01*
X91985491Y-89758429D01*
X91955912Y-89756952D01*
X91917451Y-89787318D01*
X91882666Y-89835317D01*
X91864114Y-89886738D01*
X91863455Y-89896536D01*
X91843862Y-89929078D01*
X91789332Y-89985184D01*
X91706241Y-90058857D01*
X91600967Y-90144100D01*
X91596755Y-90147378D01*
X91330055Y-90354642D01*
X91330055Y-89445503D01*
X91583499Y-89225029D01*
X91380656Y-88961729D01*
X91177814Y-88698429D01*
X91127492Y-88809329D01*
X91097471Y-88881510D01*
X91079168Y-88937083D01*
X91076613Y-88951979D01*
X91065913Y-88960663D01*
X91031491Y-88967724D01*
X90969365Y-88973298D01*
X90875553Y-88977525D01*
X90746072Y-88980542D01*
X90576939Y-88982488D01*
X90364171Y-88983500D01*
X90160414Y-88983729D01*
X89244772Y-88983729D01*
X89195771Y-89091679D01*
X89164690Y-89181428D01*
X89147423Y-89272488D01*
X89146213Y-89294879D01*
X89149369Y-89357341D01*
X89167762Y-89384087D01*
X89213285Y-89390091D01*
X89221855Y-89390129D01*
X89298055Y-89390129D01*
X89298055Y-89720329D01*
X88297930Y-89720329D01*
X88074122Y-89719919D01*
X87863586Y-89718750D01*
X87672354Y-89716912D01*
X87506453Y-89714499D01*
X87371914Y-89711601D01*
X87274766Y-89708310D01*
X87221038Y-89704718D01*
X87215569Y-89703882D01*
X87183474Y-89696856D01*
X87156136Y-89687060D01*
X87133196Y-89670664D01*
X87114297Y-89643837D01*
X87099082Y-89602749D01*
X87087193Y-89543568D01*
X87078271Y-89462465D01*
X87071960Y-89355608D01*
X87067902Y-89219167D01*
X87065739Y-89049311D01*
X87065114Y-88842209D01*
X87065669Y-88594032D01*
X87067046Y-88300947D01*
X87068003Y-88123265D01*
X87069759Y-87820038D01*
X87071562Y-87563495D01*
X87073555Y-87349520D01*
X87075883Y-87173998D01*
X87078691Y-87032813D01*
X87082123Y-86921849D01*
X87086325Y-86836991D01*
X87091440Y-86774123D01*
X87097614Y-86729128D01*
X87104991Y-86697892D01*
X87113715Y-86676299D01*
X87119197Y-86666956D01*
X87165848Y-86620441D01*
X87246979Y-86573738D01*
X87366819Y-86525065D01*
X87529598Y-86472642D01*
X87682084Y-86429877D01*
X87808372Y-86394136D01*
X87890927Y-86365519D01*
X87928658Y-86343119D01*
X87920478Y-86326030D01*
X87865296Y-86313346D01*
X87762023Y-86304159D01*
X87609570Y-86297562D01*
X87520136Y-86295087D01*
X87143198Y-86285894D01*
X87126448Y-86218762D01*
X87083417Y-86125559D01*
X87012537Y-86073450D01*
X86948555Y-86062730D01*
X86885221Y-86072251D01*
X86833005Y-86103730D01*
X86790482Y-86161537D01*
X86756227Y-86250043D01*
X86728817Y-86373621D01*
X86706825Y-86536641D01*
X86688828Y-86743475D01*
X86679483Y-86888229D01*
X86673899Y-87014600D01*
X86669187Y-87183967D01*
X86665429Y-87388534D01*
X86662705Y-87620505D01*
X86661097Y-87872084D01*
X86660687Y-88135472D01*
X86661555Y-88402874D01*
X86662418Y-88526529D01*
X86664942Y-88809013D01*
X86667581Y-89045379D01*
X86670521Y-89240308D01*
X86673949Y-89398482D01*
X86678052Y-89524584D01*
X86683017Y-89623295D01*
X86689029Y-89699297D01*
X86696277Y-89757272D01*
X86704946Y-89801901D01*
X86714641Y-89836121D01*
X86775857Y-89966432D01*
X86861205Y-90054560D01*
X86963371Y-90101936D01*
X87008619Y-90107606D01*
X87100020Y-90112722D01*
X87232930Y-90117189D01*
X87402704Y-90120912D01*
X87604697Y-90123797D01*
X87834264Y-90125747D01*
X88086761Y-90126668D01*
X88173938Y-90126729D01*
X89298055Y-90126729D01*
X89298055Y-90301753D01*
X89298056Y-90476777D01*
X89012305Y-90494357D01*
X88620203Y-90526996D01*
X88271950Y-90574884D01*
X87962438Y-90639708D01*
X87686560Y-90723157D01*
X87439209Y-90826917D01*
X87215277Y-90952678D01*
X87009656Y-91102125D01*
X86908546Y-91189513D01*
X86817919Y-91277118D01*
X86726973Y-91373415D01*
X86642919Y-91469748D01*
X86572968Y-91557464D01*
X86524331Y-91627906D01*
X86504220Y-91672420D01*
X86504055Y-91674997D01*
X86524236Y-91708294D01*
X86538654Y-91716401D01*
X86572934Y-91707782D01*
X86635948Y-91673604D01*
X86716842Y-91620141D01*
X86760904Y-91587911D01*
X87014218Y-91418378D01*
X87289580Y-91277280D01*
X87591816Y-91163090D01*
X87925749Y-91074279D01*
X88296205Y-91009319D01*
X88708009Y-90966682D01*
X88726555Y-90965337D01*
X88918311Y-90952379D01*
X89064614Y-90944340D01*
X89170572Y-90941217D01*
X89241296Y-90943005D01*
X89281893Y-90949701D01*
X89297471Y-90961301D01*
X89298055Y-90964929D01*
X89275956Y-90982653D01*
X89222588Y-90990321D01*
X89220614Y-90990329D01*
X89168933Y-90997207D01*
X89132965Y-91026226D01*
X89097980Y-91089961D01*
X89094171Y-91098279D01*
X89063090Y-91188028D01*
X89045823Y-91279088D01*
X89044613Y-91301479D01*
X89044055Y-91396729D01*
X90237855Y-91396729D01*
X90237855Y-90990329D01*
X89475855Y-90990329D01*
X89475855Y-90380729D01*
X90237855Y-90380729D01*
X90237855Y-89999729D01*
X89475855Y-89999729D01*
X89475855Y-89390129D01*
X90237855Y-89390129D01*
X90237855Y-89999729D01*
X90237855Y-90380729D01*
X90237855Y-90990329D01*
X90237855Y-91396729D01*
X90275955Y-91396729D01*
X90563141Y-91396244D01*
X90817601Y-91394823D01*
X91036554Y-91392521D01*
X91152255Y-91390518D01*
X91152255Y-90990329D01*
X90415655Y-90990329D01*
X90415655Y-90380729D01*
X91152255Y-90380729D01*
X91152255Y-89999729D01*
X90415655Y-89999729D01*
X90415655Y-89390129D01*
X91152255Y-89390129D01*
X91152255Y-89999729D01*
X91152255Y-90380729D01*
X91152255Y-90990329D01*
X91152255Y-91390518D01*
X91217218Y-91389393D01*
X91356811Y-91385492D01*
X91452553Y-91380872D01*
X91501659Y-91375588D01*
X91507855Y-91372737D01*
X91497914Y-91339985D01*
X91471421Y-91273524D01*
X91433369Y-91185648D01*
X91418013Y-91151597D01*
X91373065Y-91048358D01*
X91346922Y-90969545D01*
X91335301Y-90894334D01*
X91333920Y-90801900D01*
X91335463Y-90750140D01*
X91342755Y-90545829D01*
X91718075Y-90492243D01*
X91850761Y-90472374D01*
X91965176Y-90453490D01*
X92052059Y-90437258D01*
X92102148Y-90425341D01*
X92110308Y-90421744D01*
X92112621Y-90391248D01*
X92105642Y-90322883D01*
G37*
X92105642Y-90322883D02*
X92091555Y-90228265D01*
X92072547Y-90119011D01*
X92050803Y-90006738D01*
X92028511Y-89903061D01*
X92007854Y-89819597D01*
X91991020Y-89767964D01*
X91985491Y-89758429D01*
X91955912Y-89756952D01*
X91917451Y-89787318D01*
X91882666Y-89835317D01*
X91864114Y-89886738D01*
X91863455Y-89896536D01*
X91843862Y-89929078D01*
X91789332Y-89985184D01*
X91706241Y-90058857D01*
X91600967Y-90144100D01*
X91596755Y-90147378D01*
X91330055Y-90354642D01*
X91330055Y-89445503D01*
X91583499Y-89225029D01*
X91380656Y-88961729D01*
X91177814Y-88698429D01*
X91127492Y-88809329D01*
X91097471Y-88881510D01*
X91079168Y-88937083D01*
X91076613Y-88951979D01*
X91065913Y-88960663D01*
X91031491Y-88967724D01*
X90969365Y-88973298D01*
X90875553Y-88977525D01*
X90746072Y-88980542D01*
X90576939Y-88982488D01*
X90364171Y-88983500D01*
X90160414Y-88983729D01*
X89244772Y-88983729D01*
X89195771Y-89091679D01*
X89164690Y-89181428D01*
X89147423Y-89272488D01*
X89146213Y-89294879D01*
X89149369Y-89357341D01*
X89167762Y-89384087D01*
X89213285Y-89390091D01*
X89221855Y-89390129D01*
X89298055Y-89390129D01*
X89298055Y-89720329D01*
X88297930Y-89720329D01*
X88074122Y-89719919D01*
X87863586Y-89718750D01*
X87672354Y-89716912D01*
X87506453Y-89714499D01*
X87371914Y-89711601D01*
X87274766Y-89708310D01*
X87221038Y-89704718D01*
X87215569Y-89703882D01*
X87183474Y-89696856D01*
X87156136Y-89687060D01*
X87133196Y-89670664D01*
X87114297Y-89643837D01*
X87099082Y-89602749D01*
X87087193Y-89543568D01*
X87078271Y-89462465D01*
X87071960Y-89355608D01*
X87067902Y-89219167D01*
X87065739Y-89049311D01*
X87065114Y-88842209D01*
X87065669Y-88594032D01*
X87067046Y-88300947D01*
X87068003Y-88123265D01*
X87069759Y-87820038D01*
X87071562Y-87563495D01*
X87073555Y-87349520D01*
X87075883Y-87173998D01*
X87078691Y-87032813D01*
X87082123Y-86921849D01*
X87086325Y-86836991D01*
X87091440Y-86774123D01*
X87097614Y-86729128D01*
X87104991Y-86697892D01*
X87113715Y-86676299D01*
X87119197Y-86666956D01*
X87165848Y-86620441D01*
X87246979Y-86573738D01*
X87366819Y-86525065D01*
X87529598Y-86472642D01*
X87682084Y-86429877D01*
X87808372Y-86394136D01*
X87890927Y-86365519D01*
X87928658Y-86343119D01*
X87920478Y-86326030D01*
X87865296Y-86313346D01*
X87762023Y-86304159D01*
X87609570Y-86297562D01*
X87520136Y-86295087D01*
X87143198Y-86285894D01*
X87126448Y-86218762D01*
X87083417Y-86125559D01*
X87012537Y-86073450D01*
X86948555Y-86062730D01*
X86885221Y-86072251D01*
X86833005Y-86103730D01*
X86790482Y-86161537D01*
X86756227Y-86250043D01*
X86728817Y-86373621D01*
X86706825Y-86536641D01*
X86688828Y-86743475D01*
X86679483Y-86888229D01*
X86673899Y-87014600D01*
X86669187Y-87183967D01*
X86665429Y-87388534D01*
X86662705Y-87620505D01*
X86661097Y-87872084D01*
X86660687Y-88135472D01*
X86661555Y-88402874D01*
X86662418Y-88526529D01*
X86664942Y-88809013D01*
X86667581Y-89045379D01*
X86670521Y-89240308D01*
X86673949Y-89398482D01*
X86678052Y-89524584D01*
X86683017Y-89623295D01*
X86689029Y-89699297D01*
X86696277Y-89757272D01*
X86704946Y-89801901D01*
X86714641Y-89836121D01*
X86775857Y-89966432D01*
X86861205Y-90054560D01*
X86963371Y-90101936D01*
X87008619Y-90107606D01*
X87100020Y-90112722D01*
X87232930Y-90117189D01*
X87402704Y-90120912D01*
X87604697Y-90123797D01*
X87834264Y-90125747D01*
X88086761Y-90126668D01*
X88173938Y-90126729D01*
X89298055Y-90126729D01*
X89298055Y-90301753D01*
X89298056Y-90476777D01*
X89012305Y-90494357D01*
X88620203Y-90526996D01*
X88271950Y-90574884D01*
X87962438Y-90639708D01*
X87686560Y-90723157D01*
X87439209Y-90826917D01*
X87215277Y-90952678D01*
X87009656Y-91102125D01*
X86908546Y-91189513D01*
X86817919Y-91277118D01*
X86726973Y-91373415D01*
X86642919Y-91469748D01*
X86572968Y-91557464D01*
X86524331Y-91627906D01*
X86504220Y-91672420D01*
X86504055Y-91674997D01*
X86524236Y-91708294D01*
X86538654Y-91716401D01*
X86572934Y-91707782D01*
X86635948Y-91673604D01*
X86716842Y-91620141D01*
X86760904Y-91587911D01*
X87014218Y-91418378D01*
X87289580Y-91277280D01*
X87591816Y-91163090D01*
X87925749Y-91074279D01*
X88296205Y-91009319D01*
X88708009Y-90966682D01*
X88726555Y-90965337D01*
X88918311Y-90952379D01*
X89064614Y-90944340D01*
X89170572Y-90941217D01*
X89241296Y-90943005D01*
X89281893Y-90949701D01*
X89297471Y-90961301D01*
X89298055Y-90964929D01*
X89275956Y-90982653D01*
X89222588Y-90990321D01*
X89220614Y-90990329D01*
X89168933Y-90997207D01*
X89132965Y-91026226D01*
X89097980Y-91089961D01*
X89094171Y-91098279D01*
X89063090Y-91188028D01*
X89045823Y-91279088D01*
X89044613Y-91301479D01*
X89044055Y-91396729D01*
X90237855Y-91396729D01*
X90237855Y-90990329D01*
X89475855Y-90990329D01*
X89475855Y-90380729D01*
X90237855Y-90380729D01*
X90237855Y-89999729D01*
X89475855Y-89999729D01*
X89475855Y-89390129D01*
X90237855Y-89390129D01*
X90237855Y-89999729D01*
X90237855Y-90380729D01*
X90237855Y-90990329D01*
X90237855Y-91396729D01*
X90275955Y-91396729D01*
X90563141Y-91396244D01*
X90817601Y-91394823D01*
X91036554Y-91392521D01*
X91152255Y-91390518D01*
X91152255Y-90990329D01*
X90415655Y-90990329D01*
X90415655Y-90380729D01*
X91152255Y-90380729D01*
X91152255Y-89999729D01*
X90415655Y-89999729D01*
X90415655Y-89390129D01*
X91152255Y-89390129D01*
X91152255Y-89999729D01*
X91152255Y-90380729D01*
X91152255Y-90990329D01*
X91152255Y-91390518D01*
X91217218Y-91389393D01*
X91356811Y-91385492D01*
X91452553Y-91380872D01*
X91501659Y-91375588D01*
X91507855Y-91372737D01*
X91497914Y-91339985D01*
X91471421Y-91273524D01*
X91433369Y-91185648D01*
X91418013Y-91151597D01*
X91373065Y-91048358D01*
X91346922Y-90969545D01*
X91335301Y-90894334D01*
X91333920Y-90801900D01*
X91335463Y-90750140D01*
X91342755Y-90545829D01*
X91718075Y-90492243D01*
X91850761Y-90472374D01*
X91965176Y-90453490D01*
X92052059Y-90437258D01*
X92102148Y-90425341D01*
X92110308Y-90421744D01*
X92112621Y-90391248D01*
X92105642Y-90322883D01*
D14*
%TO.C,RST2*%
X85842255Y-65791330D02*
X83762255Y-65791330D01*
X82082255Y-69961330D02*
X82572255Y-70451330D01*
X85842255Y-71231330D02*
X83762255Y-71231330D01*
X82082255Y-67061330D02*
X82572255Y-66571330D01*
X82082255Y-67061330D02*
X82082255Y-69961330D01*
X87522255Y-67061330D02*
X87032255Y-66571330D01*
X87522255Y-67061330D02*
X87522255Y-69961330D01*
X87522255Y-69961330D02*
X87032255Y-70451330D01*
D15*
%TO.C,PWM_PAD2*%
X111599255Y-59113330D02*
X110329255Y-59113330D01*
X111599255Y-66733330D02*
X110329255Y-66733330D01*
D16*
%TO.C,PWM_PAD1*%
X111218255Y-65209330D02*
X111218255Y-65717330D01*
X111218255Y-65717330D02*
X110710255Y-65717330D01*
X110710255Y-65209330D02*
X110710255Y-65717330D01*
X111218255Y-65209330D02*
X110710255Y-65209330D01*
X111218255Y-62669330D02*
X111218255Y-63177330D01*
X111218255Y-63177330D02*
X110710255Y-63177330D01*
X110710255Y-62669330D02*
X110710255Y-63177330D01*
X111218255Y-62669330D02*
X110710255Y-62669330D01*
X111218255Y-60129330D02*
X111218255Y-60637330D01*
X111218255Y-60637330D02*
X110710255Y-60637330D01*
X110710255Y-60129330D02*
X110710255Y-60637330D01*
X111218255Y-60129330D02*
X110710255Y-60129330D01*
D11*
%TO.C,D8*%
X186665675Y-80546722D02*
X188189675Y-80546722D01*
X188189675Y-85245722D02*
X186665675Y-85245722D01*
X186665675Y-85245722D02*
X186665675Y-80165722D01*
X186665675Y-85245722D02*
X186665675Y-84737722D01*
X188189675Y-80419722D02*
X186665675Y-80419722D01*
X188189675Y-80673722D02*
X186665675Y-80673722D01*
X186665675Y-80165722D02*
X188189675Y-80165722D01*
X188189675Y-80165722D02*
X188189675Y-85245722D01*
X186665675Y-80927722D02*
X188189675Y-80927722D01*
X186665675Y-80292722D02*
X188189675Y-80292722D01*
X186665675Y-80800722D02*
X188189675Y-80800722D01*
%TO.C,D28*%
X110437500Y-98071970D02*
X111961500Y-98071970D01*
X111961500Y-102770970D02*
X110437500Y-102770970D01*
X110437500Y-102770970D02*
X110437500Y-97690970D01*
X110437500Y-102770970D02*
X110437500Y-102262970D01*
X111961500Y-97944970D02*
X110437500Y-97944970D01*
X111961500Y-98198970D02*
X110437500Y-98198970D01*
X110437500Y-97690970D02*
X111961500Y-97690970D01*
X111961500Y-97690970D02*
X111961500Y-102770970D01*
X110437500Y-98452970D02*
X111961500Y-98452970D01*
X110437500Y-97817970D02*
X111961500Y-97817970D01*
X110437500Y-98325970D02*
X111961500Y-98325970D01*
%TO.C,D27*%
X110345333Y-79218191D02*
X111869333Y-79218191D01*
X111869333Y-83917191D02*
X110345333Y-83917191D01*
X110345333Y-83917191D02*
X110345333Y-78837191D01*
X110345333Y-83917191D02*
X110345333Y-83409191D01*
X111869333Y-79091191D02*
X110345333Y-79091191D01*
X111869333Y-79345191D02*
X110345333Y-79345191D01*
X110345333Y-78837191D02*
X111869333Y-78837191D01*
X111869333Y-78837191D02*
X111869333Y-83917191D01*
X110345333Y-79599191D02*
X111869333Y-79599191D01*
X110345333Y-78964191D02*
X111869333Y-78964191D01*
X110345333Y-79472191D02*
X111869333Y-79472191D01*
%TO.C,D26*%
X119066855Y-66784130D02*
X119066855Y-65260130D01*
X123765855Y-65260130D02*
X123765855Y-66784130D01*
X123765855Y-66784130D02*
X118685855Y-66784130D01*
X123765855Y-66784130D02*
X123257855Y-66784130D01*
X118939855Y-65260130D02*
X118939855Y-66784130D01*
X119193855Y-65260130D02*
X119193855Y-66784130D01*
X118685855Y-66784130D02*
X118685855Y-65260130D01*
X118685855Y-65260130D02*
X123765855Y-65260130D01*
X119447855Y-66784130D02*
X119447855Y-65260130D01*
X118812855Y-66784130D02*
X118812855Y-65260130D01*
X119320855Y-66784130D02*
X119320855Y-65260130D01*
%TO.C,D24*%
X129449863Y-96663492D02*
X130973863Y-96663492D01*
X130973863Y-101362492D02*
X129449863Y-101362492D01*
X129449863Y-101362492D02*
X129449863Y-96282492D01*
X129449863Y-101362492D02*
X129449863Y-100854492D01*
X130973863Y-96536492D02*
X129449863Y-96536492D01*
X130973863Y-96790492D02*
X129449863Y-96790492D01*
X129449863Y-96282492D02*
X130973863Y-96282492D01*
X130973863Y-96282492D02*
X130973863Y-101362492D01*
X129449863Y-97044492D02*
X130973863Y-97044492D01*
X129449863Y-96409492D02*
X130973863Y-96409492D01*
X129449863Y-96917492D02*
X130973863Y-96917492D01*
%TO.C,D23*%
X129611603Y-77586570D02*
X131135603Y-77586570D01*
X131135603Y-82285570D02*
X129611603Y-82285570D01*
X129611603Y-82285570D02*
X129611603Y-77205570D01*
X129611603Y-82285570D02*
X129611603Y-81777570D01*
X131135603Y-77459570D02*
X129611603Y-77459570D01*
X131135603Y-77713570D02*
X129611603Y-77713570D01*
X129611603Y-77205570D02*
X131135603Y-77205570D01*
X131135603Y-77205570D02*
X131135603Y-82285570D01*
X129611603Y-77967570D02*
X131135603Y-77967570D01*
X129611603Y-77332570D02*
X131135603Y-77332570D01*
X129611603Y-77840570D02*
X131135603Y-77840570D01*
%TO.C,D22*%
X129459646Y-58231485D02*
X130983646Y-58231485D01*
X130983646Y-62930485D02*
X129459646Y-62930485D01*
X129459646Y-62930485D02*
X129459646Y-57850485D01*
X129459646Y-62930485D02*
X129459646Y-62422485D01*
X130983646Y-58104485D02*
X129459646Y-58104485D01*
X130983646Y-58358485D02*
X129459646Y-58358485D01*
X129459646Y-57850485D02*
X130983646Y-57850485D01*
X130983646Y-57850485D02*
X130983646Y-62930485D01*
X129459646Y-58612485D02*
X130983646Y-58612485D01*
X129459646Y-57977485D02*
X130983646Y-57977485D01*
X129459646Y-58485485D02*
X130983646Y-58485485D01*
%TO.C,D20*%
X80917974Y-141602325D02*
X77825466Y-137572090D01*
X77825466Y-137572090D02*
X79034536Y-136644337D01*
X79034536Y-136644337D02*
X82127044Y-140674572D01*
X82127044Y-140674572D02*
X80917974Y-141602325D01*
X80917974Y-141602325D02*
X80608723Y-141199301D01*
X78057404Y-137874357D02*
X79266474Y-136946605D01*
X79189162Y-136845849D02*
X77980091Y-137773601D01*
X77902778Y-137672846D02*
X79111849Y-136745093D01*
X79343787Y-137047361D02*
X78134717Y-137975113D01*
X78212029Y-138075869D02*
X79421100Y-137148117D01*
X78289342Y-138176625D02*
X79498412Y-137248873D01*
%TO.C,D19*%
X148634657Y-90791318D02*
X150158657Y-90791318D01*
X150158657Y-95490318D02*
X148634657Y-95490318D01*
X148634657Y-95490318D02*
X148634657Y-90410318D01*
X148634657Y-95490318D02*
X148634657Y-94982318D01*
X150158657Y-90664318D02*
X148634657Y-90664318D01*
X150158657Y-90918318D02*
X148634657Y-90918318D01*
X148634657Y-90410318D02*
X150158657Y-90410318D01*
X150158657Y-90410318D02*
X150158657Y-95490318D01*
X148634657Y-91172318D02*
X150158657Y-91172318D01*
X148634657Y-90537318D02*
X150158657Y-90537318D01*
X148634657Y-91045318D02*
X150158657Y-91045318D01*
%TO.C,D18*%
X148429255Y-71686330D02*
X149953255Y-71686330D01*
X149953255Y-76385330D02*
X148429255Y-76385330D01*
X148429255Y-76385330D02*
X148429255Y-71305330D01*
X148429255Y-76385330D02*
X148429255Y-75877330D01*
X149953255Y-71559330D02*
X148429255Y-71559330D01*
X149953255Y-71813330D02*
X148429255Y-71813330D01*
X148429255Y-71305330D02*
X149953255Y-71305330D01*
X149953255Y-71305330D02*
X149953255Y-76385330D01*
X148429255Y-72067330D02*
X149953255Y-72067330D01*
X148429255Y-71432330D02*
X149953255Y-71432330D01*
X148429255Y-71940330D02*
X149953255Y-71940330D01*
%TO.C,D17*%
X148429254Y-55049330D02*
X149953254Y-55049330D01*
X149953254Y-59748330D02*
X148429254Y-59748330D01*
X148429254Y-59748330D02*
X148429254Y-54668330D01*
X148429254Y-59748330D02*
X148429254Y-59240330D01*
X149953254Y-54922330D02*
X148429254Y-54922330D01*
X149953254Y-55176330D02*
X148429254Y-55176330D01*
X148429254Y-54668330D02*
X149953254Y-54668330D01*
X149953254Y-54668330D02*
X149953254Y-59748330D01*
X148429254Y-55430330D02*
X149953254Y-55430330D01*
X148429254Y-54795330D02*
X149953254Y-54795330D01*
X148429254Y-55303330D02*
X149953254Y-55303330D01*
%TO.C,D15*%
X95853098Y-130571387D02*
X93706197Y-125967343D01*
X93706197Y-125967343D02*
X95087410Y-125323273D01*
X95087410Y-125323273D02*
X97234311Y-129927317D01*
X97234311Y-129927317D02*
X95853098Y-130571387D01*
X95853098Y-130571387D02*
X95638408Y-130110983D01*
X93867215Y-126312647D02*
X95248428Y-125668576D01*
X95194755Y-125553475D02*
X93813542Y-126197546D01*
X93759870Y-126082444D02*
X95141083Y-125438374D01*
X95302100Y-125783677D02*
X93920887Y-126427748D01*
X93974560Y-126542849D02*
X95355773Y-125898779D01*
X94028232Y-126657950D02*
X95409445Y-126013880D01*
%TO.C,D14*%
X167558664Y-94257290D02*
X169082664Y-94257290D01*
X169082664Y-98956290D02*
X167558664Y-98956290D01*
X167558664Y-98956290D02*
X167558664Y-93876290D01*
X167558664Y-98956290D02*
X167558664Y-98448290D01*
X169082664Y-94130290D02*
X167558664Y-94130290D01*
X169082664Y-94384290D02*
X167558664Y-94384290D01*
X167558664Y-93876290D02*
X169082664Y-93876290D01*
X169082664Y-93876290D02*
X169082664Y-98956290D01*
X167558664Y-94638290D02*
X169082664Y-94638290D01*
X167558664Y-94003290D02*
X169082664Y-94003290D01*
X167558664Y-94511290D02*
X169082664Y-94511290D01*
%TO.C,D13*%
X167587819Y-74950728D02*
X169111819Y-74950728D01*
X169111819Y-79649728D02*
X167587819Y-79649728D01*
X167587819Y-79649728D02*
X167587819Y-74569728D01*
X167587819Y-79649728D02*
X167587819Y-79141728D01*
X169111819Y-74823728D02*
X167587819Y-74823728D01*
X169111819Y-75077728D02*
X167587819Y-75077728D01*
X167587819Y-74569728D02*
X169111819Y-74569728D01*
X169111819Y-74569728D02*
X169111819Y-79649728D01*
X167587819Y-75331728D02*
X169111819Y-75331728D01*
X167587819Y-74696728D02*
X169111819Y-74696728D01*
X167587819Y-75204728D02*
X169111819Y-75204728D01*
%TO.C,D12*%
X167587818Y-55608130D02*
X169111818Y-55608130D01*
X169111818Y-60307130D02*
X167587818Y-60307130D01*
X167587818Y-60307130D02*
X167587818Y-55227130D01*
X167587818Y-60307130D02*
X167587818Y-59799130D01*
X169111818Y-55481130D02*
X167587818Y-55481130D01*
X169111818Y-55735130D02*
X167587818Y-55735130D01*
X167587818Y-55227130D02*
X169111818Y-55227130D01*
X169111818Y-55227130D02*
X169111818Y-60307130D01*
X167587818Y-55989130D02*
X169111818Y-55989130D01*
X167587818Y-55354130D02*
X169111818Y-55354130D01*
X167587818Y-55862130D02*
X169111818Y-55862130D01*
%TO.C,D10*%
X113818073Y-121829048D02*
X112718560Y-116869464D01*
X112718560Y-116869464D02*
X114206435Y-116539610D01*
X114206435Y-116539610D02*
X115305948Y-121499194D01*
X115305948Y-121499194D02*
X113818073Y-121829048D01*
X113818073Y-121829048D02*
X113708122Y-121333089D01*
X112801023Y-117241433D02*
X114288898Y-116911579D01*
X114261411Y-116787589D02*
X112773535Y-117117443D01*
X112746048Y-116993454D02*
X114233923Y-116663600D01*
X114316386Y-117035569D02*
X112828511Y-117365422D01*
X112855999Y-117489412D02*
X114343874Y-117159558D01*
X112883487Y-117613402D02*
X114371362Y-117283548D01*
%TO.C,D9*%
X186665675Y-99581622D02*
X188189675Y-99581622D01*
X188189675Y-104280622D02*
X186665675Y-104280622D01*
X186665675Y-104280622D02*
X186665675Y-99200622D01*
X186665675Y-104280622D02*
X186665675Y-103772622D01*
X188189675Y-99454622D02*
X186665675Y-99454622D01*
X188189675Y-99708622D02*
X186665675Y-99708622D01*
X186665675Y-99200622D02*
X188189675Y-99200622D01*
X188189675Y-99200622D02*
X188189675Y-104280622D01*
X186665675Y-99962622D02*
X188189675Y-99962622D01*
X186665675Y-99327622D02*
X188189675Y-99327622D01*
X186665675Y-99835622D02*
X188189675Y-99835622D01*
%TO.C,D7*%
X186665675Y-64242302D02*
X188189675Y-64242302D01*
X188189675Y-68941302D02*
X186665675Y-68941302D01*
X186665675Y-68941302D02*
X186665675Y-63861302D01*
X186665675Y-68941302D02*
X186665675Y-68433302D01*
X188189675Y-64115302D02*
X186665675Y-64115302D01*
X188189675Y-64369302D02*
X186665675Y-64369302D01*
X186665675Y-63861302D02*
X188189675Y-63861302D01*
X188189675Y-63861302D02*
X188189675Y-68941302D01*
X186665675Y-64623302D02*
X188189675Y-64623302D01*
X186665675Y-63988302D02*
X188189675Y-63988302D01*
X186665675Y-64496302D02*
X188189675Y-64496302D01*
%TD*%
%TO.C,RST2*%
X85118921Y-67894663D02*
X84785588Y-67661330D01*
X85118921Y-67494663D02*
X84418921Y-67494663D01*
X84418921Y-67761330D01*
X84452255Y-67827996D01*
X84485588Y-67861330D01*
X84552255Y-67894663D01*
X84652255Y-67894663D01*
X84718921Y-67861330D01*
X84752255Y-67827996D01*
X84785588Y-67761330D01*
X84785588Y-67494663D01*
X85085588Y-68161330D02*
X85118921Y-68261330D01*
X85118921Y-68427996D01*
X85085588Y-68494663D01*
X85052255Y-68527996D01*
X84985588Y-68561330D01*
X84918921Y-68561330D01*
X84852255Y-68527996D01*
X84818921Y-68494663D01*
X84785588Y-68427996D01*
X84752255Y-68294663D01*
X84718921Y-68227996D01*
X84685588Y-68194663D01*
X84618921Y-68161330D01*
X84552255Y-68161330D01*
X84485588Y-68194663D01*
X84452255Y-68227996D01*
X84418921Y-68294663D01*
X84418921Y-68461330D01*
X84452255Y-68561330D01*
X84418921Y-68761330D02*
X84418921Y-69161330D01*
X85118921Y-68961330D02*
X84418921Y-68961330D01*
X84485588Y-69361330D02*
X84452255Y-69394663D01*
X84418921Y-69461330D01*
X84418921Y-69627996D01*
X84452255Y-69694663D01*
X84485588Y-69727996D01*
X84552255Y-69761330D01*
X84618921Y-69761330D01*
X84718921Y-69727996D01*
X85118921Y-69327996D01*
X85118921Y-69761330D01*
%TO.C,D20*%
X79185272Y-140986747D02*
X79819955Y-140499738D01*
X79704001Y-140348623D01*
X79604205Y-140281145D01*
X79497377Y-140267081D01*
X79413740Y-140283240D01*
X79269657Y-140345781D01*
X79178988Y-140415353D01*
X79081287Y-140538340D01*
X79044032Y-140614945D01*
X79029968Y-140721772D01*
X79069318Y-140835632D01*
X79185272Y-140986747D01*
X79295691Y-139941660D02*
X79302723Y-139888246D01*
X79286564Y-139804609D01*
X79170610Y-139653495D01*
X79094005Y-139616239D01*
X79040591Y-139609207D01*
X78956954Y-139625366D01*
X78896508Y-139671748D01*
X78829030Y-139771544D01*
X78744645Y-140412511D01*
X78443163Y-140019612D01*
X78776364Y-139139704D02*
X78729982Y-139079258D01*
X78653377Y-139042003D01*
X78599964Y-139034971D01*
X78516327Y-139051130D01*
X78372244Y-139113670D01*
X78221129Y-139229625D01*
X78123428Y-139352611D01*
X78086173Y-139429216D01*
X78079141Y-139482630D01*
X78095300Y-139566267D01*
X78141681Y-139626713D01*
X78218286Y-139663968D01*
X78271700Y-139671000D01*
X78355337Y-139654841D01*
X78499420Y-139592301D01*
X78650535Y-139476346D01*
X78748236Y-139353359D01*
X78785491Y-139276755D01*
X78792523Y-139223341D01*
X78776364Y-139139704D01*
%TO.C,D15*%
X94294704Y-129595376D02*
X95019750Y-129257282D01*
X94939251Y-129084652D01*
X94856426Y-128997173D01*
X94755175Y-128960321D01*
X94670023Y-128957994D01*
X94515819Y-128987867D01*
X94412241Y-129036167D01*
X94290237Y-129135092D01*
X94237284Y-129201817D01*
X94200432Y-129303069D01*
X94214205Y-129422746D01*
X94294704Y-129595376D01*
X93779512Y-128490544D02*
X93972709Y-128904856D01*
X93876111Y-128697700D02*
X94601157Y-128359605D01*
X94529778Y-128476957D01*
X94492926Y-128578208D01*
X94490599Y-128663360D01*
X94198663Y-127496455D02*
X94359661Y-127841715D01*
X94030500Y-128037239D01*
X94048927Y-127986613D01*
X94051253Y-127901461D01*
X93970754Y-127728831D01*
X93904029Y-127675879D01*
X93853403Y-127657453D01*
X93768251Y-127655126D01*
X93595621Y-127735625D01*
X93542669Y-127802350D01*
X93524243Y-127852976D01*
X93521916Y-127938128D01*
X93602415Y-128110758D01*
X93669140Y-128163710D01*
X93719766Y-128182136D01*
%TO.C,D10*%
X112507866Y-120538874D02*
X113288903Y-120365722D01*
X113247676Y-120179761D01*
X113185748Y-120076430D01*
X113094873Y-120018536D01*
X113012243Y-119997834D01*
X112855229Y-119993623D01*
X112743652Y-120018359D01*
X112603129Y-120088533D01*
X112536989Y-120142216D01*
X112479096Y-120233091D01*
X112466639Y-120352913D01*
X112507866Y-120538874D01*
X112244016Y-119348723D02*
X112342960Y-119795029D01*
X112293488Y-119571876D02*
X113074524Y-119398724D01*
X112979438Y-119497845D01*
X112921545Y-119588720D01*
X112900843Y-119671350D01*
X112917863Y-118692072D02*
X112901373Y-118617687D01*
X112847690Y-118551548D01*
X112802252Y-118522601D01*
X112719623Y-118501900D01*
X112562608Y-118497689D01*
X112376647Y-118538915D01*
X112236124Y-118609089D01*
X112169984Y-118662772D01*
X112141038Y-118708209D01*
X112120336Y-118790839D01*
X112136827Y-118865224D01*
X112190509Y-118931363D01*
X112235947Y-118960310D01*
X112318577Y-118981011D01*
X112475591Y-118985222D01*
X112661552Y-118943996D01*
X112802076Y-118873822D01*
X112868215Y-118820139D01*
X112897162Y-118774702D01*
X112917863Y-118692072D01*
%TD*%
M02*
