%TF.GenerationSoftware,KiCad,Pcbnew,(5.1.7)-1*%
%TF.CreationDate,2021-07-12T16:27:12+05:30*%
%TF.ProjectId,Pteron36v0,50746572-6f6e-4333-9676-302e6b696361,rev?*%
%TF.SameCoordinates,Original*%
%TF.FileFunction,Paste,Top*%
%TF.FilePolarity,Positive*%
%FSLAX46Y46*%
G04 Gerber Fmt 4.6, Leading zero omitted, Abs format (unit mm)*
G04 Created by KiCad (PCBNEW (5.1.7)-1) date 2021-07-12 16:27:12*
%MOMM*%
%LPD*%
G01*
G04 APERTURE LIST*
%ADD10R,1.600000X1.200000*%
%ADD11O,3.759200X1.879600*%
%ADD12R,1.100000X1.800000*%
%ADD13R,1.200000X1.600000*%
%ADD14C,0.100000*%
%ADD15R,1.270000X0.635000*%
G04 APERTURE END LIST*
%TO.C,SW28*%
G36*
G01*
X123552789Y-91382409D02*
X125196697Y-93214573D01*
G75*
G02*
X125139337Y-94273681I-558234J-500874D01*
G01*
X125139337Y-94273681D01*
G75*
G02*
X124080229Y-94216321I-500874J558234D01*
G01*
X122436321Y-92384157D01*
G75*
G02*
X122493681Y-91325049I558234J500874D01*
G01*
X122493681Y-91325049D01*
G75*
G02*
X123552789Y-91382409I500874J-558234D01*
G01*
G37*
G36*
G01*
X119118796Y-90919628D02*
X119159350Y-91499590D01*
G75*
G02*
X118231542Y-92566910I-997564J-69756D01*
G01*
X118231542Y-92566910D01*
G75*
G02*
X117164222Y-91639102I-69756J997564D01*
G01*
X117123668Y-91059140D01*
G75*
G02*
X118051476Y-89991820I997564J69756D01*
G01*
X118051476Y-89991820D01*
G75*
G02*
X119118796Y-90919628I69756J-997564D01*
G01*
G37*
G36*
G01*
X118905816Y-92737194D02*
X117595826Y-94197202D01*
G75*
G02*
X116183681Y-94273681I-744312J667833D01*
G01*
X116183681Y-94273681D01*
G75*
G02*
X116107202Y-92861536I667833J744312D01*
G01*
X117417192Y-91401528D01*
G75*
G02*
X118829337Y-91325049I744312J-667833D01*
G01*
X118829337Y-91325049D01*
G75*
G02*
X118905816Y-92737194I-667833J-744312D01*
G01*
G37*
G36*
G01*
X122164054Y-91501366D02*
X122203596Y-90921334D01*
G75*
G02*
X123269295Y-89991665I997684J-68015D01*
G01*
X123269295Y-89991665D01*
G75*
G02*
X124198964Y-91057364I-68015J-997684D01*
G01*
X124159422Y-91637396D01*
G75*
G02*
X123093723Y-92567065I-997684J68015D01*
G01*
X123093723Y-92567065D01*
G75*
G02*
X122164054Y-91501366I68015J997684D01*
G01*
G37*
%TD*%
%TO.C,SW27*%
G36*
G01*
X123533410Y-72256959D02*
X125177318Y-74089123D01*
G75*
G02*
X125119958Y-75148231I-558234J-500874D01*
G01*
X125119958Y-75148231D01*
G75*
G02*
X124060850Y-75090871I-500874J558234D01*
G01*
X122416942Y-73258707D01*
G75*
G02*
X122474302Y-72199599I558234J500874D01*
G01*
X122474302Y-72199599D01*
G75*
G02*
X123533410Y-72256959I500874J-558234D01*
G01*
G37*
G36*
G01*
X119099417Y-71794178D02*
X119139971Y-72374140D01*
G75*
G02*
X118212163Y-73441460I-997564J-69756D01*
G01*
X118212163Y-73441460D01*
G75*
G02*
X117144843Y-72513652I-69756J997564D01*
G01*
X117104289Y-71933690D01*
G75*
G02*
X118032097Y-70866370I997564J69756D01*
G01*
X118032097Y-70866370D01*
G75*
G02*
X119099417Y-71794178I69756J-997564D01*
G01*
G37*
G36*
G01*
X118886437Y-73611744D02*
X117576447Y-75071752D01*
G75*
G02*
X116164302Y-75148231I-744312J667833D01*
G01*
X116164302Y-75148231D01*
G75*
G02*
X116087823Y-73736086I667833J744312D01*
G01*
X117397813Y-72276078D01*
G75*
G02*
X118809958Y-72199599I744312J-667833D01*
G01*
X118809958Y-72199599D01*
G75*
G02*
X118886437Y-73611744I-667833J-744312D01*
G01*
G37*
G36*
G01*
X122144675Y-72375916D02*
X122184217Y-71795884D01*
G75*
G02*
X123249916Y-70866215I997684J-68015D01*
G01*
X123249916Y-70866215D01*
G75*
G02*
X124179585Y-71931914I-68015J-997684D01*
G01*
X124140043Y-72511946D01*
G75*
G02*
X123074344Y-73441615I-997684J68015D01*
G01*
X123074344Y-73441615D01*
G75*
G02*
X122144675Y-72375916I68015J997684D01*
G01*
G37*
%TD*%
%TO.C,SW26*%
G36*
G01*
X123489766Y-53222064D02*
X125133674Y-55054228D01*
G75*
G02*
X125076314Y-56113336I-558234J-500874D01*
G01*
X125076314Y-56113336D01*
G75*
G02*
X124017206Y-56055976I-500874J558234D01*
G01*
X122373298Y-54223812D01*
G75*
G02*
X122430658Y-53164704I558234J500874D01*
G01*
X122430658Y-53164704D01*
G75*
G02*
X123489766Y-53222064I500874J-558234D01*
G01*
G37*
G36*
G01*
X119055773Y-52759283D02*
X119096327Y-53339245D01*
G75*
G02*
X118168519Y-54406565I-997564J-69756D01*
G01*
X118168519Y-54406565D01*
G75*
G02*
X117101199Y-53478757I-69756J997564D01*
G01*
X117060645Y-52898795D01*
G75*
G02*
X117988453Y-51831475I997564J69756D01*
G01*
X117988453Y-51831475D01*
G75*
G02*
X119055773Y-52759283I69756J-997564D01*
G01*
G37*
G36*
G01*
X118842793Y-54576849D02*
X117532803Y-56036857D01*
G75*
G02*
X116120658Y-56113336I-744312J667833D01*
G01*
X116120658Y-56113336D01*
G75*
G02*
X116044179Y-54701191I667833J744312D01*
G01*
X117354169Y-53241183D01*
G75*
G02*
X118766314Y-53164704I744312J-667833D01*
G01*
X118766314Y-53164704D01*
G75*
G02*
X118842793Y-54576849I-667833J-744312D01*
G01*
G37*
G36*
G01*
X122101031Y-53341021D02*
X122140573Y-52760989D01*
G75*
G02*
X123206272Y-51831320I997684J-68015D01*
G01*
X123206272Y-51831320D01*
G75*
G02*
X124135941Y-52897019I-68015J-997684D01*
G01*
X124096399Y-53477051D01*
G75*
G02*
X123030700Y-54406720I-997684J68015D01*
G01*
X123030700Y-54406720D01*
G75*
G02*
X122101031Y-53341021I68015J997684D01*
G01*
G37*
%TD*%
%TO.C,SW24*%
G36*
G01*
X142620193Y-89406334D02*
X144264101Y-91238498D01*
G75*
G02*
X144206741Y-92297606I-558234J-500874D01*
G01*
X144206741Y-92297606D01*
G75*
G02*
X143147633Y-92240246I-500874J558234D01*
G01*
X141503725Y-90408082D01*
G75*
G02*
X141561085Y-89348974I558234J500874D01*
G01*
X141561085Y-89348974D01*
G75*
G02*
X142620193Y-89406334I500874J-558234D01*
G01*
G37*
G36*
G01*
X138186200Y-88943553D02*
X138226754Y-89523515D01*
G75*
G02*
X137298946Y-90590835I-997564J-69756D01*
G01*
X137298946Y-90590835D01*
G75*
G02*
X136231626Y-89663027I-69756J997564D01*
G01*
X136191072Y-89083065D01*
G75*
G02*
X137118880Y-88015745I997564J69756D01*
G01*
X137118880Y-88015745D01*
G75*
G02*
X138186200Y-88943553I69756J-997564D01*
G01*
G37*
G36*
G01*
X137973220Y-90761119D02*
X136663230Y-92221127D01*
G75*
G02*
X135251085Y-92297606I-744312J667833D01*
G01*
X135251085Y-92297606D01*
G75*
G02*
X135174606Y-90885461I667833J744312D01*
G01*
X136484596Y-89425453D01*
G75*
G02*
X137896741Y-89348974I744312J-667833D01*
G01*
X137896741Y-89348974D01*
G75*
G02*
X137973220Y-90761119I-667833J-744312D01*
G01*
G37*
G36*
G01*
X141231458Y-89525291D02*
X141271000Y-88945259D01*
G75*
G02*
X142336699Y-88015590I997684J-68015D01*
G01*
X142336699Y-88015590D01*
G75*
G02*
X143266368Y-89081289I-68015J-997684D01*
G01*
X143226826Y-89661321D01*
G75*
G02*
X142161127Y-90590990I-997684J68015D01*
G01*
X142161127Y-90590990D01*
G75*
G02*
X141231458Y-89525291I68015J997684D01*
G01*
G37*
%TD*%
%TO.C,SW23*%
G36*
G01*
X142576549Y-70371438D02*
X144220457Y-72203602D01*
G75*
G02*
X144163097Y-73262710I-558234J-500874D01*
G01*
X144163097Y-73262710D01*
G75*
G02*
X143103989Y-73205350I-500874J558234D01*
G01*
X141460081Y-71373186D01*
G75*
G02*
X141517441Y-70314078I558234J500874D01*
G01*
X141517441Y-70314078D01*
G75*
G02*
X142576549Y-70371438I500874J-558234D01*
G01*
G37*
G36*
G01*
X138142556Y-69908657D02*
X138183110Y-70488619D01*
G75*
G02*
X137255302Y-71555939I-997564J-69756D01*
G01*
X137255302Y-71555939D01*
G75*
G02*
X136187982Y-70628131I-69756J997564D01*
G01*
X136147428Y-70048169D01*
G75*
G02*
X137075236Y-68980849I997564J69756D01*
G01*
X137075236Y-68980849D01*
G75*
G02*
X138142556Y-69908657I69756J-997564D01*
G01*
G37*
G36*
G01*
X137929576Y-71726223D02*
X136619586Y-73186231D01*
G75*
G02*
X135207441Y-73262710I-744312J667833D01*
G01*
X135207441Y-73262710D01*
G75*
G02*
X135130962Y-71850565I667833J744312D01*
G01*
X136440952Y-70390557D01*
G75*
G02*
X137853097Y-70314078I744312J-667833D01*
G01*
X137853097Y-70314078D01*
G75*
G02*
X137929576Y-71726223I-667833J-744312D01*
G01*
G37*
G36*
G01*
X141187814Y-70490395D02*
X141227356Y-69910363D01*
G75*
G02*
X142293055Y-68980694I997684J-68015D01*
G01*
X142293055Y-68980694D01*
G75*
G02*
X143222724Y-70046393I-68015J-997684D01*
G01*
X143183182Y-70626425D01*
G75*
G02*
X142117483Y-71556094I-997684J68015D01*
G01*
X142117483Y-71556094D01*
G75*
G02*
X141187814Y-70490395I68015J997684D01*
G01*
G37*
%TD*%
%TO.C,SW22*%
G36*
G01*
X142623461Y-51360813D02*
X144267369Y-53192977D01*
G75*
G02*
X144210009Y-54252085I-558234J-500874D01*
G01*
X144210009Y-54252085D01*
G75*
G02*
X143150901Y-54194725I-500874J558234D01*
G01*
X141506993Y-52362561D01*
G75*
G02*
X141564353Y-51303453I558234J500874D01*
G01*
X141564353Y-51303453D01*
G75*
G02*
X142623461Y-51360813I500874J-558234D01*
G01*
G37*
G36*
G01*
X138189468Y-50898032D02*
X138230022Y-51477994D01*
G75*
G02*
X137302214Y-52545314I-997564J-69756D01*
G01*
X137302214Y-52545314D01*
G75*
G02*
X136234894Y-51617506I-69756J997564D01*
G01*
X136194340Y-51037544D01*
G75*
G02*
X137122148Y-49970224I997564J69756D01*
G01*
X137122148Y-49970224D01*
G75*
G02*
X138189468Y-50898032I69756J-997564D01*
G01*
G37*
G36*
G01*
X137976488Y-52715598D02*
X136666498Y-54175606D01*
G75*
G02*
X135254353Y-54252085I-744312J667833D01*
G01*
X135254353Y-54252085D01*
G75*
G02*
X135177874Y-52839940I667833J744312D01*
G01*
X136487864Y-51379932D01*
G75*
G02*
X137900009Y-51303453I744312J-667833D01*
G01*
X137900009Y-51303453D01*
G75*
G02*
X137976488Y-52715598I-667833J-744312D01*
G01*
G37*
G36*
G01*
X141234726Y-51479770D02*
X141274268Y-50899738D01*
G75*
G02*
X142339967Y-49970069I997684J-68015D01*
G01*
X142339967Y-49970069D01*
G75*
G02*
X143269636Y-51035768I-68015J-997684D01*
G01*
X143230094Y-51615800D01*
G75*
G02*
X142164395Y-52545469I-997684J68015D01*
G01*
X142164395Y-52545469D01*
G75*
G02*
X141234726Y-51479770I68015J997684D01*
G01*
G37*
%TD*%
%TO.C,SW20*%
G36*
G01*
X85719278Y-128353666D02*
X88138828Y-128806472D01*
G75*
G02*
X88738066Y-129681638I-137964J-737202D01*
G01*
X88738066Y-129681638D01*
G75*
G02*
X87862900Y-130280876I-737202J137964D01*
G01*
X85443350Y-129828070D01*
G75*
G02*
X84844112Y-128952904I137964J737202D01*
G01*
X84844112Y-128952904D01*
G75*
G02*
X85719278Y-128353666I737202J-137964D01*
G01*
G37*
G36*
G01*
X81919831Y-130685762D02*
X82305063Y-131121188D01*
G75*
G02*
X82218727Y-132532764I-748956J-662620D01*
G01*
X82218727Y-132532764D01*
G75*
G02*
X80807151Y-132446428I-662620J748956D01*
G01*
X80421919Y-132011002D01*
G75*
G02*
X80508255Y-130599426I748956J662620D01*
G01*
X80508255Y-130599426D01*
G75*
G02*
X81919831Y-130685762I662620J-748956D01*
G01*
G37*
G36*
G01*
X82857326Y-132257388D02*
X82706838Y-134213162D01*
G75*
G02*
X81633066Y-135133496I-997053J76719D01*
G01*
X81633066Y-135133496D01*
G75*
G02*
X80712732Y-134059724I76719J997053D01*
G01*
X80863220Y-132103950D01*
G75*
G02*
X81936992Y-131183616I997053J-76719D01*
G01*
X81936992Y-131183616D01*
G75*
G02*
X82857326Y-132257388I-76719J-997053D01*
G01*
G37*
G36*
G01*
X84689936Y-129293451D02*
X84368206Y-128809209D01*
G75*
G02*
X84647735Y-127422896I832921J553392D01*
G01*
X84647735Y-127422896D01*
G75*
G02*
X86034048Y-127702425I553392J-832921D01*
G01*
X86355778Y-128186667D01*
G75*
G02*
X86076249Y-129572980I-832921J-553392D01*
G01*
X86076249Y-129572980D01*
G75*
G02*
X84689936Y-129293451I-553392J832921D01*
G01*
G37*
%TD*%
%TO.C,SW19*%
G36*
G01*
X161613526Y-83722240D02*
X163257434Y-85554404D01*
G75*
G02*
X163200074Y-86613512I-558234J-500874D01*
G01*
X163200074Y-86613512D01*
G75*
G02*
X162140966Y-86556152I-500874J558234D01*
G01*
X160497058Y-84723988D01*
G75*
G02*
X160554418Y-83664880I558234J500874D01*
G01*
X160554418Y-83664880D01*
G75*
G02*
X161613526Y-83722240I500874J-558234D01*
G01*
G37*
G36*
G01*
X157179533Y-83259459D02*
X157220087Y-83839421D01*
G75*
G02*
X156292279Y-84906741I-997564J-69756D01*
G01*
X156292279Y-84906741D01*
G75*
G02*
X155224959Y-83978933I-69756J997564D01*
G01*
X155184405Y-83398971D01*
G75*
G02*
X156112213Y-82331651I997564J69756D01*
G01*
X156112213Y-82331651D01*
G75*
G02*
X157179533Y-83259459I69756J-997564D01*
G01*
G37*
G36*
G01*
X156966553Y-85077025D02*
X155656563Y-86537033D01*
G75*
G02*
X154244418Y-86613512I-744312J667833D01*
G01*
X154244418Y-86613512D01*
G75*
G02*
X154167939Y-85201367I667833J744312D01*
G01*
X155477929Y-83741359D01*
G75*
G02*
X156890074Y-83664880I744312J-667833D01*
G01*
X156890074Y-83664880D01*
G75*
G02*
X156966553Y-85077025I-667833J-744312D01*
G01*
G37*
G36*
G01*
X160224791Y-83841197D02*
X160264333Y-83261165D01*
G75*
G02*
X161330032Y-82331496I997684J-68015D01*
G01*
X161330032Y-82331496D01*
G75*
G02*
X162259701Y-83397195I-68015J-997684D01*
G01*
X162220159Y-83977227D01*
G75*
G02*
X161154460Y-84906896I-997684J68015D01*
G01*
X161154460Y-84906896D01*
G75*
G02*
X160224791Y-83841197I68015J997684D01*
G01*
G37*
%TD*%
%TO.C,SW18*%
G36*
G01*
X161660442Y-64711611D02*
X163304350Y-66543775D01*
G75*
G02*
X163246990Y-67602883I-558234J-500874D01*
G01*
X163246990Y-67602883D01*
G75*
G02*
X162187882Y-67545523I-500874J558234D01*
G01*
X160543974Y-65713359D01*
G75*
G02*
X160601334Y-64654251I558234J500874D01*
G01*
X160601334Y-64654251D01*
G75*
G02*
X161660442Y-64711611I500874J-558234D01*
G01*
G37*
G36*
G01*
X157226449Y-64248830D02*
X157267003Y-64828792D01*
G75*
G02*
X156339195Y-65896112I-997564J-69756D01*
G01*
X156339195Y-65896112D01*
G75*
G02*
X155271875Y-64968304I-69756J997564D01*
G01*
X155231321Y-64388342D01*
G75*
G02*
X156159129Y-63321022I997564J69756D01*
G01*
X156159129Y-63321022D01*
G75*
G02*
X157226449Y-64248830I69756J-997564D01*
G01*
G37*
G36*
G01*
X157013469Y-66066396D02*
X155703479Y-67526404D01*
G75*
G02*
X154291334Y-67602883I-744312J667833D01*
G01*
X154291334Y-67602883D01*
G75*
G02*
X154214855Y-66190738I667833J744312D01*
G01*
X155524845Y-64730730D01*
G75*
G02*
X156936990Y-64654251I744312J-667833D01*
G01*
X156936990Y-64654251D01*
G75*
G02*
X157013469Y-66066396I-667833J-744312D01*
G01*
G37*
G36*
G01*
X160271707Y-64830568D02*
X160311249Y-64250536D01*
G75*
G02*
X161376948Y-63320867I997684J-68015D01*
G01*
X161376948Y-63320867D01*
G75*
G02*
X162306617Y-64386566I-68015J-997684D01*
G01*
X162267075Y-64966598D01*
G75*
G02*
X161201376Y-65896267I-997684J68015D01*
G01*
X161201376Y-65896267D01*
G75*
G02*
X160271707Y-64830568I68015J997684D01*
G01*
G37*
%TD*%
%TO.C,SW17*%
G36*
G01*
X161641059Y-45586160D02*
X163284967Y-47418324D01*
G75*
G02*
X163227607Y-48477432I-558234J-500874D01*
G01*
X163227607Y-48477432D01*
G75*
G02*
X162168499Y-48420072I-500874J558234D01*
G01*
X160524591Y-46587908D01*
G75*
G02*
X160581951Y-45528800I558234J500874D01*
G01*
X160581951Y-45528800D01*
G75*
G02*
X161641059Y-45586160I500874J-558234D01*
G01*
G37*
G36*
G01*
X157207066Y-45123379D02*
X157247620Y-45703341D01*
G75*
G02*
X156319812Y-46770661I-997564J-69756D01*
G01*
X156319812Y-46770661D01*
G75*
G02*
X155252492Y-45842853I-69756J997564D01*
G01*
X155211938Y-45262891D01*
G75*
G02*
X156139746Y-44195571I997564J69756D01*
G01*
X156139746Y-44195571D01*
G75*
G02*
X157207066Y-45123379I69756J-997564D01*
G01*
G37*
G36*
G01*
X156994086Y-46940945D02*
X155684096Y-48400953D01*
G75*
G02*
X154271951Y-48477432I-744312J667833D01*
G01*
X154271951Y-48477432D01*
G75*
G02*
X154195472Y-47065287I667833J744312D01*
G01*
X155505462Y-45605279D01*
G75*
G02*
X156917607Y-45528800I744312J-667833D01*
G01*
X156917607Y-45528800D01*
G75*
G02*
X156994086Y-46940945I-667833J-744312D01*
G01*
G37*
G36*
G01*
X160252324Y-45705117D02*
X160291866Y-45125085D01*
G75*
G02*
X161357565Y-44195416I997684J-68015D01*
G01*
X161357565Y-44195416D01*
G75*
G02*
X162287234Y-45261115I-68015J-997684D01*
G01*
X162247692Y-45841147D01*
G75*
G02*
X161181993Y-46770816I-997684J68015D01*
G01*
X161181993Y-46770816D01*
G75*
G02*
X160252324Y-45705117I68015J997684D01*
G01*
G37*
%TD*%
%TO.C,SW15*%
G36*
G01*
X104401691Y-117809127D02*
X106665883Y-118774887D01*
G75*
G02*
X107061496Y-119759006I-294253J-689866D01*
G01*
X107061496Y-119759006D01*
G75*
G02*
X106077377Y-120154619I-689866J294253D01*
G01*
X103813185Y-119188859D01*
G75*
G02*
X103417572Y-118204740I294253J689866D01*
G01*
X103417572Y-118204740D01*
G75*
G02*
X104401691Y-117809127I689866J-294253D01*
G01*
G37*
G36*
G01*
X100187549Y-119263592D02*
X100469407Y-119772076D01*
G75*
G02*
X100079597Y-121131506I-874620J-484810D01*
G01*
X100079597Y-121131506D01*
G75*
G02*
X98720167Y-120741696I-484810J874620D01*
G01*
X98438309Y-120233212D01*
G75*
G02*
X98828119Y-118873782I874620J484810D01*
G01*
X98828119Y-118873782D01*
G75*
G02*
X100187549Y-119263592I484810J-874620D01*
G01*
G37*
G36*
G01*
X100762660Y-121000874D02*
X100192432Y-122877718D01*
G75*
G02*
X98944916Y-123543830I-956814J290702D01*
G01*
X98944916Y-123543830D01*
G75*
G02*
X98278804Y-122296314I290702J956814D01*
G01*
X98849032Y-120419470D01*
G75*
G02*
X100096548Y-119753358I956814J-290702D01*
G01*
X100096548Y-119753358D01*
G75*
G02*
X100762660Y-121000874I-290702J-956814D01*
G01*
G37*
G36*
G01*
X103193342Y-118503844D02*
X102984048Y-117961446D01*
G75*
G02*
X103557005Y-116668495I932954J359997D01*
G01*
X103557005Y-116668495D01*
G75*
G02*
X104849956Y-117241452I359997J-932954D01*
G01*
X105059250Y-117783850D01*
G75*
G02*
X104486293Y-119076801I-932954J-359997D01*
G01*
X104486293Y-119076801D01*
G75*
G02*
X103193342Y-118503844I-359997J932954D01*
G01*
G37*
%TD*%
%TO.C,SW14*%
G36*
G01*
X180673958Y-87567721D02*
X182317866Y-89399885D01*
G75*
G02*
X182260506Y-90458993I-558234J-500874D01*
G01*
X182260506Y-90458993D01*
G75*
G02*
X181201398Y-90401633I-500874J558234D01*
G01*
X179557490Y-88569469D01*
G75*
G02*
X179614850Y-87510361I558234J500874D01*
G01*
X179614850Y-87510361D01*
G75*
G02*
X180673958Y-87567721I500874J-558234D01*
G01*
G37*
G36*
G01*
X176239965Y-87104940D02*
X176280519Y-87684902D01*
G75*
G02*
X175352711Y-88752222I-997564J-69756D01*
G01*
X175352711Y-88752222D01*
G75*
G02*
X174285391Y-87824414I-69756J997564D01*
G01*
X174244837Y-87244452D01*
G75*
G02*
X175172645Y-86177132I997564J69756D01*
G01*
X175172645Y-86177132D01*
G75*
G02*
X176239965Y-87104940I69756J-997564D01*
G01*
G37*
G36*
G01*
X176026985Y-88922506D02*
X174716995Y-90382514D01*
G75*
G02*
X173304850Y-90458993I-744312J667833D01*
G01*
X173304850Y-90458993D01*
G75*
G02*
X173228371Y-89046848I667833J744312D01*
G01*
X174538361Y-87586840D01*
G75*
G02*
X175950506Y-87510361I744312J-667833D01*
G01*
X175950506Y-87510361D01*
G75*
G02*
X176026985Y-88922506I-667833J-744312D01*
G01*
G37*
G36*
G01*
X179285223Y-87686678D02*
X179324765Y-87106646D01*
G75*
G02*
X180390464Y-86176977I997684J-68015D01*
G01*
X180390464Y-86176977D01*
G75*
G02*
X181320133Y-87242676I-68015J-997684D01*
G01*
X181280591Y-87822708D01*
G75*
G02*
X180214892Y-88752377I-997684J68015D01*
G01*
X180214892Y-88752377D01*
G75*
G02*
X179285223Y-87686678I68015J997684D01*
G01*
G37*
%TD*%
%TO.C,SW13*%
G36*
G01*
X180654585Y-68442276D02*
X182298493Y-70274440D01*
G75*
G02*
X182241133Y-71333548I-558234J-500874D01*
G01*
X182241133Y-71333548D01*
G75*
G02*
X181182025Y-71276188I-500874J558234D01*
G01*
X179538117Y-69444024D01*
G75*
G02*
X179595477Y-68384916I558234J500874D01*
G01*
X179595477Y-68384916D01*
G75*
G02*
X180654585Y-68442276I500874J-558234D01*
G01*
G37*
G36*
G01*
X176220592Y-67979495D02*
X176261146Y-68559457D01*
G75*
G02*
X175333338Y-69626777I-997564J-69756D01*
G01*
X175333338Y-69626777D01*
G75*
G02*
X174266018Y-68698969I-69756J997564D01*
G01*
X174225464Y-68119007D01*
G75*
G02*
X175153272Y-67051687I997564J69756D01*
G01*
X175153272Y-67051687D01*
G75*
G02*
X176220592Y-67979495I69756J-997564D01*
G01*
G37*
G36*
G01*
X176007612Y-69797061D02*
X174697622Y-71257069D01*
G75*
G02*
X173285477Y-71333548I-744312J667833D01*
G01*
X173285477Y-71333548D01*
G75*
G02*
X173208998Y-69921403I667833J744312D01*
G01*
X174518988Y-68461395D01*
G75*
G02*
X175931133Y-68384916I744312J-667833D01*
G01*
X175931133Y-68384916D01*
G75*
G02*
X176007612Y-69797061I-667833J-744312D01*
G01*
G37*
G36*
G01*
X179265850Y-68561233D02*
X179305392Y-67981201D01*
G75*
G02*
X180371091Y-67051532I997684J-68015D01*
G01*
X180371091Y-67051532D01*
G75*
G02*
X181300760Y-68117231I-68015J-997684D01*
G01*
X181261218Y-68697263D01*
G75*
G02*
X180195519Y-69626932I-997684J68015D01*
G01*
X180195519Y-69626932D01*
G75*
G02*
X179265850Y-68561233I68015J997684D01*
G01*
G37*
%TD*%
%TO.C,SW12*%
G36*
G01*
X180701495Y-49431649D02*
X182345403Y-51263813D01*
G75*
G02*
X182288043Y-52322921I-558234J-500874D01*
G01*
X182288043Y-52322921D01*
G75*
G02*
X181228935Y-52265561I-500874J558234D01*
G01*
X179585027Y-50433397D01*
G75*
G02*
X179642387Y-49374289I558234J500874D01*
G01*
X179642387Y-49374289D01*
G75*
G02*
X180701495Y-49431649I500874J-558234D01*
G01*
G37*
G36*
G01*
X176267502Y-48968868D02*
X176308056Y-49548830D01*
G75*
G02*
X175380248Y-50616150I-997564J-69756D01*
G01*
X175380248Y-50616150D01*
G75*
G02*
X174312928Y-49688342I-69756J997564D01*
G01*
X174272374Y-49108380D01*
G75*
G02*
X175200182Y-48041060I997564J69756D01*
G01*
X175200182Y-48041060D01*
G75*
G02*
X176267502Y-48968868I69756J-997564D01*
G01*
G37*
G36*
G01*
X176054522Y-50786434D02*
X174744532Y-52246442D01*
G75*
G02*
X173332387Y-52322921I-744312J667833D01*
G01*
X173332387Y-52322921D01*
G75*
G02*
X173255908Y-50910776I667833J744312D01*
G01*
X174565898Y-49450768D01*
G75*
G02*
X175978043Y-49374289I744312J-667833D01*
G01*
X175978043Y-49374289D01*
G75*
G02*
X176054522Y-50786434I-667833J-744312D01*
G01*
G37*
G36*
G01*
X179312760Y-49550606D02*
X179352302Y-48970574D01*
G75*
G02*
X180418001Y-48040905I997684J-68015D01*
G01*
X180418001Y-48040905D01*
G75*
G02*
X181347670Y-49106604I-68015J-997684D01*
G01*
X181308128Y-49686636D01*
G75*
G02*
X180242429Y-50616305I-997684J68015D01*
G01*
X180242429Y-50616305D01*
G75*
G02*
X179312760Y-49550606I68015J997684D01*
G01*
G37*
%TD*%
%TO.C,SW10*%
G36*
G01*
X124921185Y-111421276D02*
X126922679Y-112854204D01*
G75*
G02*
X127095913Y-113900622I-436592J-609826D01*
G01*
X127095913Y-113900622D01*
G75*
G02*
X126049495Y-114073856I-609826J436592D01*
G01*
X124048001Y-112640928D01*
G75*
G02*
X123874767Y-111594510I436592J609826D01*
G01*
X123874767Y-111594510D01*
G75*
G02*
X124921185Y-111421276I609826J-436592D01*
G01*
G37*
G36*
G01*
X120492132Y-111929158D02*
X120657252Y-112486594D01*
G75*
G02*
X119982447Y-113729429I-958820J-284015D01*
G01*
X119982447Y-113729429D01*
G75*
G02*
X118739612Y-113054624I-284015J958820D01*
G01*
X118574492Y-112497188D01*
G75*
G02*
X119249297Y-111254353I958820J284015D01*
G01*
X119249297Y-111254353D01*
G75*
G02*
X120492132Y-111929158I284015J-958820D01*
G01*
G37*
G36*
G01*
X120677595Y-113749737D02*
X119714659Y-115458671D01*
G75*
G02*
X118352541Y-115838981I-871214J490904D01*
G01*
X118352541Y-115838981D01*
G75*
G02*
X117972231Y-114476863I490904J871214D01*
G01*
X118935167Y-112767929D01*
G75*
G02*
X120297285Y-112387619I871214J-490904D01*
G01*
X120297285Y-112387619D01*
G75*
G02*
X120677595Y-113749737I-490904J-871214D01*
G01*
G37*
G36*
G01*
X123591116Y-111837991D02*
X123504180Y-111263149D01*
G75*
G02*
X124343401Y-110124858I988756J149535D01*
G01*
X124343401Y-110124858D01*
G75*
G02*
X125481692Y-110964079I149535J-988756D01*
G01*
X125568628Y-111538921D01*
G75*
G02*
X124729407Y-112677212I-988756J-149535D01*
G01*
X124729407Y-112677212D01*
G75*
G02*
X123591116Y-111837991I-149535J988756D01*
G01*
G37*
%TD*%
%TO.C,SW9*%
G36*
G01*
X199775957Y-97053666D02*
X201419865Y-98885830D01*
G75*
G02*
X201362505Y-99944938I-558234J-500874D01*
G01*
X201362505Y-99944938D01*
G75*
G02*
X200303397Y-99887578I-500874J558234D01*
G01*
X198659489Y-98055414D01*
G75*
G02*
X198716849Y-96996306I558234J500874D01*
G01*
X198716849Y-96996306D01*
G75*
G02*
X199775957Y-97053666I500874J-558234D01*
G01*
G37*
G36*
G01*
X195341964Y-96590885D02*
X195382518Y-97170847D01*
G75*
G02*
X194454710Y-98238167I-997564J-69756D01*
G01*
X194454710Y-98238167D01*
G75*
G02*
X193387390Y-97310359I-69756J997564D01*
G01*
X193346836Y-96730397D01*
G75*
G02*
X194274644Y-95663077I997564J69756D01*
G01*
X194274644Y-95663077D01*
G75*
G02*
X195341964Y-96590885I69756J-997564D01*
G01*
G37*
G36*
G01*
X195128984Y-98408451D02*
X193818994Y-99868459D01*
G75*
G02*
X192406849Y-99944938I-744312J667833D01*
G01*
X192406849Y-99944938D01*
G75*
G02*
X192330370Y-98532793I667833J744312D01*
G01*
X193640360Y-97072785D01*
G75*
G02*
X195052505Y-96996306I744312J-667833D01*
G01*
X195052505Y-96996306D01*
G75*
G02*
X195128984Y-98408451I-667833J-744312D01*
G01*
G37*
G36*
G01*
X198387222Y-97172623D02*
X198426764Y-96592591D01*
G75*
G02*
X199492463Y-95662922I997684J-68015D01*
G01*
X199492463Y-95662922D01*
G75*
G02*
X200422132Y-96728621I-68015J-997684D01*
G01*
X200382590Y-97308653D01*
G75*
G02*
X199316891Y-98238322I-997684J68015D01*
G01*
X199316891Y-98238322D01*
G75*
G02*
X198387222Y-97172623I68015J997684D01*
G01*
G37*
%TD*%
%TO.C,SW8*%
G36*
G01*
X199732315Y-78018766D02*
X201376223Y-79850930D01*
G75*
G02*
X201318863Y-80910038I-558234J-500874D01*
G01*
X201318863Y-80910038D01*
G75*
G02*
X200259755Y-80852678I-500874J558234D01*
G01*
X198615847Y-79020514D01*
G75*
G02*
X198673207Y-77961406I558234J500874D01*
G01*
X198673207Y-77961406D01*
G75*
G02*
X199732315Y-78018766I500874J-558234D01*
G01*
G37*
G36*
G01*
X195298322Y-77555985D02*
X195338876Y-78135947D01*
G75*
G02*
X194411068Y-79203267I-997564J-69756D01*
G01*
X194411068Y-79203267D01*
G75*
G02*
X193343748Y-78275459I-69756J997564D01*
G01*
X193303194Y-77695497D01*
G75*
G02*
X194231002Y-76628177I997564J69756D01*
G01*
X194231002Y-76628177D01*
G75*
G02*
X195298322Y-77555985I69756J-997564D01*
G01*
G37*
G36*
G01*
X195085342Y-79373551D02*
X193775352Y-80833559D01*
G75*
G02*
X192363207Y-80910038I-744312J667833D01*
G01*
X192363207Y-80910038D01*
G75*
G02*
X192286728Y-79497893I667833J744312D01*
G01*
X193596718Y-78037885D01*
G75*
G02*
X195008863Y-77961406I744312J-667833D01*
G01*
X195008863Y-77961406D01*
G75*
G02*
X195085342Y-79373551I-667833J-744312D01*
G01*
G37*
G36*
G01*
X198343580Y-78137723D02*
X198383122Y-77557691D01*
G75*
G02*
X199448821Y-76628022I997684J-68015D01*
G01*
X199448821Y-76628022D01*
G75*
G02*
X200378490Y-77693721I-68015J-997684D01*
G01*
X200338948Y-78273753D01*
G75*
G02*
X199273249Y-79203422I-997684J68015D01*
G01*
X199273249Y-79203422D01*
G75*
G02*
X198343580Y-78137723I68015J997684D01*
G01*
G37*
%TD*%
%TO.C,SW7*%
G36*
G01*
X199688667Y-58983864D02*
X201332575Y-60816028D01*
G75*
G02*
X201275215Y-61875136I-558234J-500874D01*
G01*
X201275215Y-61875136D01*
G75*
G02*
X200216107Y-61817776I-500874J558234D01*
G01*
X198572199Y-59985612D01*
G75*
G02*
X198629559Y-58926504I558234J500874D01*
G01*
X198629559Y-58926504D01*
G75*
G02*
X199688667Y-58983864I500874J-558234D01*
G01*
G37*
G36*
G01*
X195254674Y-58521083D02*
X195295228Y-59101045D01*
G75*
G02*
X194367420Y-60168365I-997564J-69756D01*
G01*
X194367420Y-60168365D01*
G75*
G02*
X193300100Y-59240557I-69756J997564D01*
G01*
X193259546Y-58660595D01*
G75*
G02*
X194187354Y-57593275I997564J69756D01*
G01*
X194187354Y-57593275D01*
G75*
G02*
X195254674Y-58521083I69756J-997564D01*
G01*
G37*
G36*
G01*
X195041694Y-60338649D02*
X193731704Y-61798657D01*
G75*
G02*
X192319559Y-61875136I-744312J667833D01*
G01*
X192319559Y-61875136D01*
G75*
G02*
X192243080Y-60462991I667833J744312D01*
G01*
X193553070Y-59002983D01*
G75*
G02*
X194965215Y-58926504I744312J-667833D01*
G01*
X194965215Y-58926504D01*
G75*
G02*
X195041694Y-60338649I-667833J-744312D01*
G01*
G37*
G36*
G01*
X198299932Y-59102821D02*
X198339474Y-58522789D01*
G75*
G02*
X199405173Y-57593120I997684J-68015D01*
G01*
X199405173Y-57593120D01*
G75*
G02*
X200334842Y-58658819I-68015J-997684D01*
G01*
X200295300Y-59238851D01*
G75*
G02*
X199229601Y-60168520I-997684J68015D01*
G01*
X199229601Y-60168520D01*
G75*
G02*
X198299932Y-59102821I68015J997684D01*
G01*
G37*
%TD*%
D10*
%TO.C,D_RE1*%
X96235254Y-112834330D03*
X93435254Y-112834330D03*
%TD*%
D11*
%TO.C,PWM_PAD2*%
X110964255Y-65463330D03*
X110964255Y-62923330D03*
X110964255Y-60383330D03*
%TD*%
D12*
%TO.C,RST1*%
X86652255Y-65411330D03*
X86652255Y-71611330D03*
X82952255Y-65411330D03*
X82952255Y-71611330D03*
%TD*%
D13*
%TO.C,D8*%
X187427675Y-84105722D03*
X187427675Y-81305722D03*
%TD*%
%TO.C,D28*%
X111199500Y-101630970D03*
X111199500Y-98830970D03*
%TD*%
%TO.C,D27*%
X111107333Y-82777191D03*
X111107333Y-79977191D03*
%TD*%
D10*
%TO.C,D26*%
X122625855Y-66022130D03*
X119825855Y-66022130D03*
%TD*%
D13*
%TO.C,D24*%
X130211863Y-100222492D03*
X130211863Y-97422492D03*
%TD*%
%TO.C,D23*%
X130373603Y-81145570D03*
X130373603Y-78345570D03*
%TD*%
%TO.C,D22*%
X130221646Y-61790485D03*
X130221646Y-58990485D03*
%TD*%
D14*
%TO.C,D20*%
G36*
X80087010Y-138282062D02*
G01*
X79134986Y-139012576D01*
X78160968Y-137743210D01*
X79112992Y-137012696D01*
X80087010Y-138282062D01*
G37*
G36*
X81791542Y-140503452D02*
G01*
X80839518Y-141233966D01*
X79865500Y-139964600D01*
X80817524Y-139234086D01*
X81791542Y-140503452D01*
G37*
%TD*%
D13*
%TO.C,D19*%
X149396657Y-94350318D03*
X149396657Y-91550318D03*
%TD*%
%TO.C,D18*%
X149191255Y-75245330D03*
X149191255Y-72445330D03*
%TD*%
%TO.C,D17*%
X149191254Y-58608330D03*
X149191254Y-55808330D03*
%TD*%
D14*
%TO.C,D15*%
G36*
X95760467Y-127149974D02*
G01*
X94672898Y-127657116D01*
X93996709Y-126207024D01*
X95084278Y-125699882D01*
X95760467Y-127149974D01*
G37*
G36*
X96943799Y-129687636D02*
G01*
X95856230Y-130194778D01*
X95180041Y-128744686D01*
X96267610Y-128237544D01*
X96943799Y-129687636D01*
G37*
%TD*%
D13*
%TO.C,D14*%
X168320664Y-97816290D03*
X168320664Y-95016290D03*
%TD*%
%TO.C,D13*%
X168349819Y-78509728D03*
X168349819Y-75709728D03*
%TD*%
%TO.C,D12*%
X168349818Y-59167130D03*
X168349818Y-56367130D03*
%TD*%
D14*
%TO.C,D10*%
G36*
X114468168Y-118468688D02*
G01*
X113296613Y-118728416D01*
X112950310Y-117166342D01*
X114121865Y-116906614D01*
X114468168Y-118468688D01*
G37*
G36*
X115074198Y-121202316D02*
G01*
X113902643Y-121462044D01*
X113556340Y-119899970D01*
X114727895Y-119640242D01*
X115074198Y-121202316D01*
G37*
%TD*%
D13*
%TO.C,D9*%
X187427675Y-103140622D03*
X187427675Y-100340622D03*
%TD*%
%TO.C,D7*%
X187427675Y-67801302D03*
X187427675Y-65001302D03*
%TD*%
D15*
%TO.C,JP4*%
X95114655Y-82219711D03*
X95114655Y-81320551D03*
%TD*%
%TO.C,JP3*%
X97400655Y-82219711D03*
X97400655Y-81320551D03*
%TD*%
%TO.C,JP2*%
X100067654Y-82219711D03*
X100067654Y-81320551D03*
%TD*%
%TO.C,JP1*%
X102607654Y-82219710D03*
X102607654Y-81320550D03*
%TD*%
M02*
