M48
; DRILL file {KiCad (5.1.7)-1} date 07/10/21 14:11:02
; FORMAT={-:-/ absolute / metric / decimal}
; #@! TF.CreationDate,2021-07-10T14:11:02+05:30
; #@! TF.GenerationSoftware,Kicad,Pcbnew,(5.1.7)-1
; #@! TF.FileFunction,Plated,1,2,PTH
FMAT,2
METRIC
T1C0.400
T2C0.813
T3C0.900
T4C1.000
T5C1.100
T6C1.200
T7C1.500
%
G90
G05
T1
X82.952Y-68.355
X86.58Y-68.791
X97.409Y-80.051
X100.068Y-79.967
X101.105Y-79.818
X104.309Y-81.288
X110.05Y-58.301
X110.964Y-62.923
X113.682Y-64.727
X130.116Y-69.294
X174.461Y-74.509
X174.461Y-77.404
X186.199Y-72.88
X186.199Y-75.928
X200.651Y-86.571
X200.651Y-90.61
X205.009Y-98.242
T2
X95.089Y-85.148
X97.629Y-85.148
X100.169Y-85.148
X102.709Y-85.148
T4
X111.107Y-77.477
X111.107Y-85.277
X168.321Y-92.516
X168.321Y-100.316
X149.191Y-53.308
X149.191Y-61.108
X111.2Y-96.331
X111.2Y-104.131
X149.191Y-69.945
X149.191Y-77.745
X130.222Y-56.49
X130.222Y-64.29
X87.215Y-101.15
X87.215Y-103.65
X87.215Y-106.15
X101.715Y-101.15
X101.715Y-106.15
X130.212Y-94.922
X130.212Y-102.722
X187.428Y-78.806
X187.428Y-86.606
X90.935Y-112.834
X98.735Y-112.834
X168.35Y-53.867
X168.35Y-61.667
X187.428Y-97.841
X187.428Y-105.641
X187.428Y-62.501
X187.428Y-70.301
X77.602Y-136.029
X82.35Y-142.217
X149.397Y-89.05
X149.397Y-96.85
X93.822Y-124.413
X97.118Y-131.482
X117.326Y-66.022
X125.126Y-66.022
X130.374Y-75.846
X130.374Y-83.646
X113.168Y-115.377
X114.856Y-122.992
X168.35Y-73.21
X168.35Y-81.01
T5
X91.228Y-50.109
X91.228Y-52.649
X91.228Y-55.189
X91.228Y-57.729
X91.228Y-60.269
X91.228Y-62.809
X91.228Y-65.349
X91.228Y-67.889
X91.228Y-70.429
X91.228Y-72.969
X91.228Y-75.509
X91.228Y-78.049
X106.468Y-50.109
X106.468Y-52.649
X106.468Y-55.189
X106.468Y-57.729
X106.468Y-60.269
X106.468Y-62.809
X106.468Y-65.349
X106.468Y-67.889
X106.468Y-70.429
X106.468Y-72.969
X106.468Y-75.509
X106.468Y-78.049
T6
X177.81Y-48.219
X177.783Y-86.355
X120.662Y-90.169
X196.885Y-95.841
X120.598Y-52.009
X158.75Y-44.373
X120.642Y-71.044
X196.797Y-57.771
X139.732Y-50.148
X101.269Y-117.932
X177.763Y-67.229
X121.836Y-110.863
X82.687Y-129.151
X139.729Y-88.193
X158.769Y-63.499
X196.841Y-76.806
X139.685Y-69.158
X158.722Y-82.509
T7
X175.27Y-49.039
X180.35Y-49.039
X181.62Y-51.579
X175.243Y-87.175
X180.323Y-87.175
X181.593Y-89.715
X118.122Y-90.989
X123.202Y-90.989
X124.472Y-93.529
X194.345Y-96.661
X199.425Y-96.661
X200.695Y-99.201
X118.058Y-52.829
X123.138Y-52.829
X124.408Y-55.369
X156.21Y-45.193
X161.29Y-45.193
X162.56Y-47.733
X118.102Y-71.864
X123.182Y-71.864
X124.452Y-74.404
X194.257Y-58.591
X199.337Y-58.591
X200.607Y-61.131
X137.192Y-50.968
X142.272Y-50.968
X143.542Y-53.508
X99.313Y-119.748
X103.917Y-117.601
X106.142Y-119.367
X175.223Y-68.049
X180.303Y-68.049
X181.573Y-70.589
X119.534Y-112.213
X124.493Y-111.114
X126.283Y-113.318
X81.171Y-131.348
X85.201Y-128.256
X87.755Y-129.498
X137.189Y-89.013
X142.269Y-89.013
X143.539Y-91.553
X156.229Y-64.319
X161.309Y-64.319
X162.579Y-66.859
X194.301Y-77.626
X199.381Y-77.626
X200.651Y-80.166
X137.145Y-69.978
X142.225Y-69.978
X143.495Y-72.518
X156.182Y-83.329
X161.262Y-83.329
X162.532Y-85.869
T3
G00X82.375Y-52.389
M15
G01X82.375Y-51.989
M16
G05
G00X82.375Y-55.389
M15
G01X82.375Y-54.989
M16
G05
G00X82.375Y-59.389
M15
G01X82.375Y-58.989
M16
G05
G00X86.975Y-60.489
M15
G01X86.975Y-60.089
M16
G05
G00X82.375Y-60.053
M15
G01X82.375Y-60.453
M16
G05
G00X86.975Y-51.953
M15
G01X86.975Y-52.353
M16
G05
G00X86.975Y-54.953
M15
G01X86.975Y-55.353
M16
G05
G00X86.975Y-58.953
M15
G01X86.975Y-59.353
M16
G05
T6
G00X172.71Y-50.219
M15
G01X172.71Y-50.219
M16
G05
G00X182.91Y-50.219
M15
G01X182.91Y-50.219
M16
G05
G00X172.683Y-88.355
M15
G01X172.683Y-88.355
M16
G05
G00X182.883Y-88.355
M15
G01X182.883Y-88.355
M16
G05
G00X115.562Y-92.169
M15
G01X115.562Y-92.169
M16
G05
G00X125.762Y-92.169
M15
G01X125.762Y-92.169
M16
G05
G00X191.785Y-97.841
M15
G01X191.785Y-97.841
M16
G05
G00X201.985Y-97.841
M15
G01X201.985Y-97.841
M16
G05
G00X115.498Y-54.009
M15
G01X115.498Y-54.009
M16
G05
G00X125.698Y-54.009
M15
G01X125.698Y-54.009
M16
G05
G00X153.65Y-46.373
M15
G01X153.65Y-46.373
M16
G05
G00X163.85Y-46.373
M15
G01X163.85Y-46.373
M16
G05
G00X115.542Y-73.044
M15
G01X115.542Y-73.044
M16
G05
G00X125.742Y-73.044
M15
G01X125.742Y-73.044
M16
G05
G00X191.697Y-59.771
M15
G01X191.697Y-59.771
M16
G05
G00X201.897Y-59.771
M15
G01X201.897Y-59.771
M16
G05
G00X134.632Y-52.148
M15
G01X134.632Y-52.148
M16
G05
G00X144.832Y-52.148
M15
G01X144.832Y-52.148
M16
G05
G00X97.492Y-121.9
M15
G01X97.492Y-121.9
M16
G05
G00X106.736Y-117.589
M15
G01X106.736Y-117.589
M16
G05
G00X172.663Y-69.229
M15
G01X172.663Y-69.229
M16
G05
G00X182.863Y-69.229
M15
G01X182.863Y-69.229
M16
G05
G00X117.29Y-113.919
M15
G01X117.29Y-113.919
M16
G05
G00X127.248Y-111.712
M15
G01X127.248Y-111.712
M16
G05
G00X79.858Y-133.843
M15
G01X79.858Y-133.843
M16
G05
G00X87.951Y-127.633
M15
G01X87.951Y-127.633
M16
G05
G00X134.629Y-90.193
M15
G01X134.629Y-90.193
M16
G05
G00X144.829Y-90.193
M15
G01X144.829Y-90.193
M16
G05
G00X153.669Y-65.499
M15
G01X153.669Y-65.499
M16
G05
G00X163.869Y-65.499
M15
G01X163.869Y-65.499
M16
G05
G00X191.741Y-78.806
M15
G01X191.741Y-78.806
M16
G05
G00X201.941Y-78.806
M15
G01X201.941Y-78.806
M16
G05
G00X134.585Y-71.158
M15
G01X134.585Y-71.158
M16
G05
G00X144.785Y-71.158
M15
G01X144.785Y-71.158
M16
G05
G00X153.622Y-84.509
M15
G01X153.622Y-84.509
M16
G05
G00X163.822Y-84.509
M15
G01X163.822Y-84.509
M16
G05
T7
G00X174.0Y-51.579
M15
G01X174.0Y-51.579
M16
G05
G00X173.973Y-89.715
M15
G01X173.973Y-89.715
M16
G05
G00X116.852Y-93.529
M15
G01X116.852Y-93.529
M16
G05
G00X193.075Y-99.201
M15
G01X193.075Y-99.201
M16
G05
G00X94.065Y-98.05
M15
G01X95.365Y-98.05
M16
G05
G00X94.065Y-109.25
M15
G01X95.365Y-109.25
M16
G05
G00X116.788Y-55.369
M15
G01X116.788Y-55.369
M16
G05
G00X154.94Y-47.733
M15
G01X154.94Y-47.733
M16
G05
G00X116.832Y-74.404
M15
G01X116.832Y-74.404
M16
G05
G00X192.987Y-61.131
M15
G01X192.987Y-61.131
M16
G05
G00X135.922Y-53.508
M15
G01X135.922Y-53.508
M16
G05
G00X99.236Y-122.587
M15
G01X99.236Y-122.587
M16
G05
G00X173.953Y-70.589
M15
G01X173.953Y-70.589
M16
G05
G00X118.843Y-114.968
M15
G01X118.843Y-114.968
M16
G05
G00X81.71Y-134.136
M15
G01X81.71Y-134.136
M16
G05
G00X135.919Y-91.553
M15
G01X135.919Y-91.553
M16
G05
G00X154.959Y-66.859
M15
G01X154.959Y-66.859
M16
G05
G00X193.031Y-80.166
M15
G01X193.031Y-80.166
M16
G05
G00X135.875Y-72.518
M15
G01X135.875Y-72.518
M16
G05
G00X154.912Y-85.869
M15
G01X154.912Y-85.869
M16
G05
T0
M30
