M48
; DRILL file {KiCad (5.1.7)-1} date 07/12/21 16:27:14
; FORMAT={-:-/ absolute / metric / decimal}
; #@! TF.CreationDate,2021-07-12T16:27:14+05:30
; #@! TF.GenerationSoftware,Kicad,Pcbnew,(5.1.7)-1
; #@! TF.FileFunction,NonPlated,1,2,NPTH
FMAT,2
METRIC
T1C0.800
T2C1.200
T3C1.700
T4C1.800
T5C2.200
T6C3.988
%
G90
G05
T1
X84.675Y-50.553
X84.675Y-57.553
X84.675Y-50.589
X84.675Y-57.589
T2
X172.543Y-77.329
X182.983Y-77.329
X191.665Y-105.941
X202.105Y-105.941
X191.621Y-86.906
X202.061Y-86.906
X100.806Y-129.291
X110.268Y-124.879
X115.378Y-62.109
X125.818Y-62.109
X153.549Y-73.599
X163.989Y-73.599
X134.512Y-60.248
X144.952Y-60.248
X172.563Y-96.455
X183.003Y-96.455
X115.442Y-100.269
X125.882Y-100.269
X191.577Y-67.871
X202.017Y-67.871
X118.926Y-121.853
X129.118Y-119.594
X84.694Y-140.342
X92.977Y-133.987
X172.59Y-58.319
X183.03Y-58.319
X115.422Y-81.144
X125.862Y-81.144
X134.509Y-98.293
X144.949Y-98.293
X153.53Y-54.473
X163.97Y-54.473
X134.465Y-79.258
X144.905Y-79.258
X153.502Y-92.609
X163.942Y-92.609
T3
X191.385Y-101.741
X202.385Y-101.741
X191.341Y-82.706
X202.341Y-82.706
X98.777Y-125.603
X108.747Y-120.954
X115.098Y-57.909
X126.098Y-57.909
X153.269Y-69.399
X164.269Y-69.399
X134.232Y-56.048
X145.232Y-56.048
X172.283Y-92.255
X183.283Y-92.255
X115.162Y-96.069
X126.162Y-96.069
X191.297Y-63.671
X202.297Y-63.671
X117.743Y-117.813
X128.483Y-115.433
X81.915Y-137.18
X90.642Y-130.484
X172.31Y-54.119
X183.31Y-54.119
X115.142Y-76.944
X126.142Y-76.944
X134.229Y-94.093
X145.229Y-94.093
X153.25Y-50.273
X164.25Y-50.273
X134.185Y-75.058
X145.185Y-75.058
X153.222Y-88.409
X164.222Y-88.409
X172.263Y-73.129
X183.263Y-73.129
T4
X99.158Y-125.426
X108.366Y-121.132
X115.518Y-57.909
X125.678Y-57.909
X153.689Y-69.399
X163.849Y-69.399
X134.652Y-56.048
X144.812Y-56.048
X172.703Y-92.255
X182.863Y-92.255
X115.582Y-96.069
X125.742Y-96.069
X191.717Y-63.671
X201.877Y-63.671
X118.153Y-117.722
X128.072Y-115.523
X82.248Y-136.925
X90.309Y-130.74
X172.73Y-54.119
X182.89Y-54.119
X115.562Y-76.944
X125.722Y-76.944
X134.649Y-94.093
X144.809Y-94.093
X153.67Y-50.273
X163.83Y-50.273
X134.605Y-75.058
X144.765Y-75.058
X153.642Y-88.409
X163.802Y-88.409
X172.683Y-73.129
X182.843Y-73.129
X191.805Y-101.741
X201.965Y-101.741
X191.761Y-82.706
X201.921Y-82.706
T5
X139.685Y-106.332
X139.685Y-65.463
X177.783Y-63.482
X177.783Y-106.332
X86.606Y-119.134
X101.515Y-58.783
T6
X196.885Y-101.741
X196.841Y-82.706
X103.762Y-123.279
X120.598Y-57.909
X158.769Y-69.399
X139.732Y-56.048
X177.783Y-92.255
X120.662Y-96.069
X196.797Y-63.671
X123.113Y-116.623
X86.279Y-133.832
X177.81Y-54.119
X120.642Y-76.944
X139.729Y-94.093
X158.75Y-50.273
X139.685Y-75.058
X158.722Y-88.409
X177.763Y-73.129
T0
M30
