%TF.GenerationSoftware,KiCad,Pcbnew,(5.1.7)-1*%
%TF.CreationDate,2021-07-10T14:11:00+05:30*%
%TF.ProjectId,Pteron36v0,50746572-6f6e-4333-9676-302e6b696361,rev?*%
%TF.SameCoordinates,Original*%
%TF.FileFunction,Legend,Top*%
%TF.FilePolarity,Positive*%
%FSLAX46Y46*%
G04 Gerber Fmt 4.6, Leading zero omitted, Abs format (unit mm)*
G04 Created by KiCad (PCBNEW (5.1.7)-1) date 2021-07-10 14:11:00*
%MOMM*%
%LPD*%
G01*
G04 APERTURE LIST*
%ADD10C,0.500000*%
%ADD11C,0.150000*%
%ADD12C,0.125000*%
%ADD13C,0.120000*%
%ADD14C,0.010000*%
%ADD15C,0.066040*%
%ADD16C,0.203200*%
%ADD17C,0.100000*%
G04 APERTURE END LIST*
D10*
X135248790Y-100545342D02*
X135534504Y-100640580D01*
X135629742Y-100735819D01*
X135724980Y-100926295D01*
X135724980Y-101212009D01*
X135629742Y-101402485D01*
X135534504Y-101497723D01*
X135344028Y-101592961D01*
X134582123Y-101592961D01*
X134582123Y-99592961D01*
X135248790Y-99592961D01*
X135439266Y-99688200D01*
X135534504Y-99783438D01*
X135629742Y-99973914D01*
X135629742Y-100164390D01*
X135534504Y-100354866D01*
X135439266Y-100450104D01*
X135248790Y-100545342D01*
X134582123Y-100545342D01*
X137439266Y-101592961D02*
X137439266Y-100545342D01*
X137344028Y-100354866D01*
X137153552Y-100259628D01*
X136772600Y-100259628D01*
X136582123Y-100354866D01*
X137439266Y-101497723D02*
X137248790Y-101592961D01*
X136772600Y-101592961D01*
X136582123Y-101497723D01*
X136486885Y-101307247D01*
X136486885Y-101116771D01*
X136582123Y-100926295D01*
X136772600Y-100831057D01*
X137248790Y-100831057D01*
X137439266Y-100735819D01*
X138296409Y-101497723D02*
X138486885Y-101592961D01*
X138867838Y-101592961D01*
X139058314Y-101497723D01*
X139153552Y-101307247D01*
X139153552Y-101212009D01*
X139058314Y-101021533D01*
X138867838Y-100926295D01*
X138582123Y-100926295D01*
X138391647Y-100831057D01*
X138296409Y-100640580D01*
X138296409Y-100545342D01*
X138391647Y-100354866D01*
X138582123Y-100259628D01*
X138867838Y-100259628D01*
X139058314Y-100354866D01*
X140772600Y-101497723D02*
X140582123Y-101592961D01*
X140201171Y-101592961D01*
X140010695Y-101497723D01*
X139915457Y-101307247D01*
X139915457Y-100545342D01*
X140010695Y-100354866D01*
X140201171Y-100259628D01*
X140582123Y-100259628D01*
X140772600Y-100354866D01*
X140867838Y-100545342D01*
X140867838Y-100735819D01*
X139915457Y-100926295D01*
X142582123Y-101592961D02*
X142582123Y-99592961D01*
X142582123Y-101497723D02*
X142391647Y-101592961D01*
X142010695Y-101592961D01*
X141820219Y-101497723D01*
X141724980Y-101402485D01*
X141629742Y-101212009D01*
X141629742Y-100640580D01*
X141724980Y-100450104D01*
X141820219Y-100354866D01*
X142010695Y-100259628D01*
X142391647Y-100259628D01*
X142582123Y-100354866D01*
X145344028Y-101592961D02*
X145153552Y-101497723D01*
X145058314Y-101402485D01*
X144963076Y-101212009D01*
X144963076Y-100640580D01*
X145058314Y-100450104D01*
X145153552Y-100354866D01*
X145344028Y-100259628D01*
X145629742Y-100259628D01*
X145820219Y-100354866D01*
X145915457Y-100450104D01*
X146010695Y-100640580D01*
X146010695Y-101212009D01*
X145915457Y-101402485D01*
X145820219Y-101497723D01*
X145629742Y-101592961D01*
X145344028Y-101592961D01*
X146867838Y-100259628D02*
X146867838Y-101592961D01*
X146867838Y-100450104D02*
X146963076Y-100354866D01*
X147153552Y-100259628D01*
X147439266Y-100259628D01*
X147629742Y-100354866D01*
X147724980Y-100545342D01*
X147724980Y-101592961D01*
X150201171Y-101592961D02*
X150201171Y-99592961D01*
X150963076Y-99592961D01*
X151153552Y-99688200D01*
X151248790Y-99783438D01*
X151344028Y-99973914D01*
X151344028Y-100259628D01*
X151248790Y-100450104D01*
X151153552Y-100545342D01*
X150963076Y-100640580D01*
X150201171Y-100640580D01*
X151915457Y-100259628D02*
X152677361Y-100259628D01*
X152201171Y-99592961D02*
X152201171Y-101307247D01*
X152296409Y-101497723D01*
X152486885Y-101592961D01*
X152677361Y-101592961D01*
X154105933Y-101497723D02*
X153915457Y-101592961D01*
X153534504Y-101592961D01*
X153344028Y-101497723D01*
X153248790Y-101307247D01*
X153248790Y-100545342D01*
X153344028Y-100354866D01*
X153534504Y-100259628D01*
X153915457Y-100259628D01*
X154105933Y-100354866D01*
X154201171Y-100545342D01*
X154201171Y-100735819D01*
X153248790Y-100926295D01*
X155058314Y-101592961D02*
X155058314Y-100259628D01*
X155058314Y-100640580D02*
X155153552Y-100450104D01*
X155248790Y-100354866D01*
X155439266Y-100259628D01*
X155629742Y-100259628D01*
X156582123Y-101592961D02*
X156391647Y-101497723D01*
X156296409Y-101402485D01*
X156201171Y-101212009D01*
X156201171Y-100640580D01*
X156296409Y-100450104D01*
X156391647Y-100354866D01*
X156582123Y-100259628D01*
X156867838Y-100259628D01*
X157058314Y-100354866D01*
X157153552Y-100450104D01*
X157248790Y-100640580D01*
X157248790Y-101212009D01*
X157153552Y-101402485D01*
X157058314Y-101497723D01*
X156867838Y-101592961D01*
X156582123Y-101592961D01*
X158105933Y-100259628D02*
X158105933Y-101592961D01*
X158105933Y-100450104D02*
X158201171Y-100354866D01*
X158391647Y-100259628D01*
X158677361Y-100259628D01*
X158867838Y-100354866D01*
X158963076Y-100545342D01*
X158963076Y-101592961D01*
X161439266Y-101592961D02*
X161439266Y-99592961D01*
X161629742Y-100831057D02*
X162201171Y-101592961D01*
X162201171Y-100259628D02*
X161439266Y-101021533D01*
X163820219Y-101497723D02*
X163629742Y-101592961D01*
X163248790Y-101592961D01*
X163058314Y-101497723D01*
X162963076Y-101307247D01*
X162963076Y-100545342D01*
X163058314Y-100354866D01*
X163248790Y-100259628D01*
X163629742Y-100259628D01*
X163820219Y-100354866D01*
X163915457Y-100545342D01*
X163915457Y-100735819D01*
X162963076Y-100926295D01*
X164582123Y-100259628D02*
X165058314Y-101592961D01*
X165534504Y-100259628D02*
X165058314Y-101592961D01*
X164867838Y-102069152D01*
X164772600Y-102164390D01*
X164582123Y-102259628D01*
X166296409Y-101592961D02*
X166296409Y-99592961D01*
X166296409Y-100354866D02*
X166486885Y-100259628D01*
X166867838Y-100259628D01*
X167058314Y-100354866D01*
X167153552Y-100450104D01*
X167248790Y-100640580D01*
X167248790Y-101212009D01*
X167153552Y-101402485D01*
X167058314Y-101497723D01*
X166867838Y-101592961D01*
X166486885Y-101592961D01*
X166296409Y-101497723D01*
X168391647Y-101592961D02*
X168201171Y-101497723D01*
X168105933Y-101402485D01*
X168010695Y-101212009D01*
X168010695Y-100640580D01*
X168105933Y-100450104D01*
X168201171Y-100354866D01*
X168391647Y-100259628D01*
X168677361Y-100259628D01*
X168867838Y-100354866D01*
X168963076Y-100450104D01*
X169058314Y-100640580D01*
X169058314Y-101212009D01*
X168963076Y-101402485D01*
X168867838Y-101497723D01*
X168677361Y-101592961D01*
X168391647Y-101592961D01*
X170772600Y-101592961D02*
X170772600Y-100545342D01*
X170677361Y-100354866D01*
X170486885Y-100259628D01*
X170105933Y-100259628D01*
X169915457Y-100354866D01*
X170772600Y-101497723D02*
X170582123Y-101592961D01*
X170105933Y-101592961D01*
X169915457Y-101497723D01*
X169820219Y-101307247D01*
X169820219Y-101116771D01*
X169915457Y-100926295D01*
X170105933Y-100831057D01*
X170582123Y-100831057D01*
X170772600Y-100735819D01*
X171724980Y-101592961D02*
X171724980Y-100259628D01*
X171724980Y-100640580D02*
X171820219Y-100450104D01*
X171915457Y-100354866D01*
X172105933Y-100259628D01*
X172296409Y-100259628D01*
X173820219Y-101592961D02*
X173820219Y-99592961D01*
X173820219Y-101497723D02*
X173629742Y-101592961D01*
X173248790Y-101592961D01*
X173058314Y-101497723D01*
X172963076Y-101402485D01*
X172867838Y-101212009D01*
X172867838Y-100640580D01*
X172963076Y-100450104D01*
X173058314Y-100354866D01*
X173248790Y-100259628D01*
X173629742Y-100259628D01*
X173820219Y-100354866D01*
X176296409Y-101592961D02*
X176296409Y-99592961D01*
X176296409Y-100354866D02*
X176486885Y-100259628D01*
X176867838Y-100259628D01*
X177058314Y-100354866D01*
X177153552Y-100450104D01*
X177248790Y-100640580D01*
X177248790Y-101212009D01*
X177153552Y-101402485D01*
X177058314Y-101497723D01*
X176867838Y-101592961D01*
X176486885Y-101592961D01*
X176296409Y-101497723D01*
X177915457Y-100259628D02*
X178391647Y-101592961D01*
X178867838Y-100259628D02*
X178391647Y-101592961D01*
X178201171Y-102069152D01*
X178105933Y-102164390D01*
X177915457Y-102259628D01*
X181820219Y-100545342D02*
X181153552Y-100545342D01*
X181153552Y-101592961D02*
X181153552Y-99592961D01*
X182105933Y-99592961D01*
X182772599Y-101497723D02*
X182963076Y-101592961D01*
X183344028Y-101592961D01*
X183534504Y-101497723D01*
X183629742Y-101307247D01*
X183629742Y-101212009D01*
X183534504Y-101021533D01*
X183344028Y-100926295D01*
X183058314Y-100926295D01*
X182867838Y-100831057D01*
X182772599Y-100640580D01*
X182772599Y-100545342D01*
X182867838Y-100354866D01*
X183058314Y-100259628D01*
X183344028Y-100259628D01*
X183534504Y-100354866D01*
X185344028Y-100259628D02*
X185344028Y-101592961D01*
X184486885Y-100259628D02*
X184486885Y-101307247D01*
X184582123Y-101497723D01*
X184772599Y-101592961D01*
X185058314Y-101592961D01*
X185248790Y-101497723D01*
X185344028Y-101402485D01*
X186296409Y-100259628D02*
X186296409Y-101592961D01*
X186296409Y-100450104D02*
X186391647Y-100354866D01*
X186582123Y-100259628D01*
X186867838Y-100259628D01*
X187058314Y-100354866D01*
X187153552Y-100545342D01*
X187153552Y-101592961D01*
X188963076Y-101592961D02*
X188963076Y-99592961D01*
X188963076Y-101497723D02*
X188772599Y-101592961D01*
X188391647Y-101592961D01*
X188201171Y-101497723D01*
X188105933Y-101402485D01*
X188010695Y-101212009D01*
X188010695Y-100640580D01*
X188105933Y-100450104D01*
X188201171Y-100354866D01*
X188391647Y-100259628D01*
X188772599Y-100259628D01*
X188963076Y-100354866D01*
X133153552Y-104045342D02*
X133439266Y-104140580D01*
X133534504Y-104235819D01*
X133629742Y-104426295D01*
X133629742Y-104712009D01*
X133534504Y-104902485D01*
X133439266Y-104997723D01*
X133248790Y-105092961D01*
X132486885Y-105092961D01*
X132486885Y-103092961D01*
X133153552Y-103092961D01*
X133344028Y-103188200D01*
X133439266Y-103283438D01*
X133534504Y-103473914D01*
X133534504Y-103664390D01*
X133439266Y-103854866D01*
X133344028Y-103950104D01*
X133153552Y-104045342D01*
X132486885Y-104045342D01*
X135344028Y-105092961D02*
X135344028Y-104045342D01*
X135248790Y-103854866D01*
X135058314Y-103759628D01*
X134677361Y-103759628D01*
X134486885Y-103854866D01*
X135344028Y-104997723D02*
X135153552Y-105092961D01*
X134677361Y-105092961D01*
X134486885Y-104997723D01*
X134391647Y-104807247D01*
X134391647Y-104616771D01*
X134486885Y-104426295D01*
X134677361Y-104331057D01*
X135153552Y-104331057D01*
X135344028Y-104235819D01*
X136201171Y-104997723D02*
X136391647Y-105092961D01*
X136772600Y-105092961D01*
X136963076Y-104997723D01*
X137058314Y-104807247D01*
X137058314Y-104712009D01*
X136963076Y-104521533D01*
X136772600Y-104426295D01*
X136486885Y-104426295D01*
X136296409Y-104331057D01*
X136201171Y-104140580D01*
X136201171Y-104045342D01*
X136296409Y-103854866D01*
X136486885Y-103759628D01*
X136772600Y-103759628D01*
X136963076Y-103854866D01*
X138677361Y-104997723D02*
X138486885Y-105092961D01*
X138105933Y-105092961D01*
X137915457Y-104997723D01*
X137820219Y-104807247D01*
X137820219Y-104045342D01*
X137915457Y-103854866D01*
X138105933Y-103759628D01*
X138486885Y-103759628D01*
X138677361Y-103854866D01*
X138772600Y-104045342D01*
X138772600Y-104235819D01*
X137820219Y-104426295D01*
X140486885Y-105092961D02*
X140486885Y-103092961D01*
X140486885Y-104997723D02*
X140296409Y-105092961D01*
X139915457Y-105092961D01*
X139724980Y-104997723D01*
X139629742Y-104902485D01*
X139534504Y-104712009D01*
X139534504Y-104140580D01*
X139629742Y-103950104D01*
X139724980Y-103854866D01*
X139915457Y-103759628D01*
X140296409Y-103759628D01*
X140486885Y-103854866D01*
X143248790Y-105092961D02*
X143058314Y-104997723D01*
X142963076Y-104902485D01*
X142867838Y-104712009D01*
X142867838Y-104140580D01*
X142963076Y-103950104D01*
X143058314Y-103854866D01*
X143248790Y-103759628D01*
X143534504Y-103759628D01*
X143724980Y-103854866D01*
X143820219Y-103950104D01*
X143915457Y-104140580D01*
X143915457Y-104712009D01*
X143820219Y-104902485D01*
X143724980Y-104997723D01*
X143534504Y-105092961D01*
X143248790Y-105092961D01*
X144772600Y-103759628D02*
X144772600Y-105092961D01*
X144772600Y-103950104D02*
X144867838Y-103854866D01*
X145058314Y-103759628D01*
X145344028Y-103759628D01*
X145534504Y-103854866D01*
X145629742Y-104045342D01*
X145629742Y-105092961D01*
X148105933Y-105092961D02*
X148105933Y-103092961D01*
X148867838Y-103092961D01*
X149058314Y-103188200D01*
X149153552Y-103283438D01*
X149248790Y-103473914D01*
X149248790Y-103759628D01*
X149153552Y-103950104D01*
X149058314Y-104045342D01*
X148867838Y-104140580D01*
X148105933Y-104140580D01*
X149820219Y-103759628D02*
X150582123Y-103759628D01*
X150105933Y-103092961D02*
X150105933Y-104807247D01*
X150201171Y-104997723D01*
X150391647Y-105092961D01*
X150582123Y-105092961D01*
X152010695Y-104997723D02*
X151820219Y-105092961D01*
X151439266Y-105092961D01*
X151248790Y-104997723D01*
X151153552Y-104807247D01*
X151153552Y-104045342D01*
X151248790Y-103854866D01*
X151439266Y-103759628D01*
X151820219Y-103759628D01*
X152010695Y-103854866D01*
X152105933Y-104045342D01*
X152105933Y-104235819D01*
X151153552Y-104426295D01*
X152963076Y-105092961D02*
X152963076Y-103759628D01*
X152963076Y-104140580D02*
X153058314Y-103950104D01*
X153153552Y-103854866D01*
X153344028Y-103759628D01*
X153534504Y-103759628D01*
X154486885Y-105092961D02*
X154296409Y-104997723D01*
X154201171Y-104902485D01*
X154105933Y-104712009D01*
X154105933Y-104140580D01*
X154201171Y-103950104D01*
X154296409Y-103854866D01*
X154486885Y-103759628D01*
X154772600Y-103759628D01*
X154963076Y-103854866D01*
X155058314Y-103950104D01*
X155153552Y-104140580D01*
X155153552Y-104712009D01*
X155058314Y-104902485D01*
X154963076Y-104997723D01*
X154772600Y-105092961D01*
X154486885Y-105092961D01*
X156010695Y-103759628D02*
X156010695Y-105092961D01*
X156010695Y-103950104D02*
X156105933Y-103854866D01*
X156296409Y-103759628D01*
X156582123Y-103759628D01*
X156772600Y-103854866D01*
X156867838Y-104045342D01*
X156867838Y-105092961D01*
X159344028Y-103759628D02*
X159344028Y-105759628D01*
X159344028Y-103854866D02*
X159534504Y-103759628D01*
X159915457Y-103759628D01*
X160105933Y-103854866D01*
X160201171Y-103950104D01*
X160296409Y-104140580D01*
X160296409Y-104712009D01*
X160201171Y-104902485D01*
X160105933Y-104997723D01*
X159915457Y-105092961D01*
X159534504Y-105092961D01*
X159344028Y-104997723D01*
X162010695Y-104997723D02*
X161820219Y-105092961D01*
X161439266Y-105092961D01*
X161248790Y-104997723D01*
X161153552Y-104902485D01*
X161058314Y-104712009D01*
X161058314Y-104140580D01*
X161153552Y-103950104D01*
X161248790Y-103854866D01*
X161439266Y-103759628D01*
X161820219Y-103759628D01*
X162010695Y-103854866D01*
X162867838Y-105092961D02*
X162867838Y-103092961D01*
X162867838Y-103854866D02*
X163058314Y-103759628D01*
X163439266Y-103759628D01*
X163629742Y-103854866D01*
X163724980Y-103950104D01*
X163820219Y-104140580D01*
X163820219Y-104712009D01*
X163724980Y-104902485D01*
X163629742Y-104997723D01*
X163439266Y-105092961D01*
X163058314Y-105092961D01*
X162867838Y-104997723D01*
X166201171Y-105092961D02*
X166201171Y-103092961D01*
X166201171Y-103854866D02*
X166391647Y-103759628D01*
X166772599Y-103759628D01*
X166963076Y-103854866D01*
X167058314Y-103950104D01*
X167153552Y-104140580D01*
X167153552Y-104712009D01*
X167058314Y-104902485D01*
X166963076Y-104997723D01*
X166772599Y-105092961D01*
X166391647Y-105092961D01*
X166201171Y-104997723D01*
X167820219Y-103759628D02*
X168296409Y-105092961D01*
X168772599Y-103759628D02*
X168296409Y-105092961D01*
X168105933Y-105569152D01*
X168010695Y-105664390D01*
X167820219Y-105759628D01*
X171058314Y-105092961D02*
X171058314Y-103092961D01*
X172201171Y-105092961D02*
X171344028Y-103950104D01*
X172201171Y-103092961D02*
X171058314Y-104235819D01*
X173058314Y-105092961D02*
X173058314Y-103759628D01*
X173058314Y-104140580D02*
X173153552Y-103950104D01*
X173248790Y-103854866D01*
X173439266Y-103759628D01*
X173629742Y-103759628D01*
X175153552Y-105092961D02*
X175153552Y-104045342D01*
X175058314Y-103854866D01*
X174867838Y-103759628D01*
X174486885Y-103759628D01*
X174296409Y-103854866D01*
X175153552Y-104997723D02*
X174963076Y-105092961D01*
X174486885Y-105092961D01*
X174296409Y-104997723D01*
X174201171Y-104807247D01*
X174201171Y-104616771D01*
X174296409Y-104426295D01*
X174486885Y-104331057D01*
X174963076Y-104331057D01*
X175153552Y-104235819D01*
X176105933Y-105092961D02*
X176105933Y-103092961D01*
X176296409Y-104331057D02*
X176867838Y-105092961D01*
X176867838Y-103759628D02*
X176105933Y-104521533D01*
X178486885Y-104997723D02*
X178296409Y-105092961D01*
X177915457Y-105092961D01*
X177724980Y-104997723D01*
X177629742Y-104807247D01*
X177629742Y-104045342D01*
X177724980Y-103854866D01*
X177915457Y-103759628D01*
X178296409Y-103759628D01*
X178486885Y-103854866D01*
X178582123Y-104045342D01*
X178582123Y-104235819D01*
X177629742Y-104426295D01*
X179439266Y-103759628D02*
X179439266Y-105092961D01*
X179439266Y-103950104D02*
X179534504Y-103854866D01*
X179724980Y-103759628D01*
X180010695Y-103759628D01*
X180201171Y-103854866D01*
X180296409Y-104045342D01*
X180296409Y-105092961D01*
X181248790Y-104331057D02*
X182772599Y-104331057D01*
X184296409Y-103092961D02*
X184296409Y-104521533D01*
X184201171Y-104807247D01*
X184010695Y-104997723D01*
X183724980Y-105092961D01*
X183534504Y-105092961D01*
X185534504Y-105092961D02*
X185344028Y-104997723D01*
X185248790Y-104902485D01*
X185153552Y-104712009D01*
X185153552Y-104140580D01*
X185248790Y-103950104D01*
X185344028Y-103854866D01*
X185534504Y-103759628D01*
X185820219Y-103759628D01*
X186010695Y-103854866D01*
X186105933Y-103950104D01*
X186201171Y-104140580D01*
X186201171Y-104712009D01*
X186105933Y-104902485D01*
X186010695Y-104997723D01*
X185820219Y-105092961D01*
X185534504Y-105092961D01*
X187058314Y-105092961D02*
X187058314Y-103092961D01*
X187248790Y-104331057D02*
X187820219Y-105092961D01*
X187820219Y-103759628D02*
X187058314Y-104521533D01*
X189439266Y-104997723D02*
X189248790Y-105092961D01*
X188867838Y-105092961D01*
X188677361Y-104997723D01*
X188582123Y-104807247D01*
X188582123Y-104045342D01*
X188677361Y-103854866D01*
X188867838Y-103759628D01*
X189248790Y-103759628D01*
X189439266Y-103854866D01*
X189534504Y-104045342D01*
X189534504Y-104235819D01*
X188582123Y-104426295D01*
X190296409Y-104997723D02*
X190486885Y-105092961D01*
X190867838Y-105092961D01*
X191058314Y-104997723D01*
X191153552Y-104807247D01*
X191153552Y-104712009D01*
X191058314Y-104521533D01*
X190867838Y-104426295D01*
X190582123Y-104426295D01*
X190391647Y-104331057D01*
X190296409Y-104140580D01*
X190296409Y-104045342D01*
X190391647Y-103854866D01*
X190582123Y-103759628D01*
X190867838Y-103759628D01*
X191058314Y-103854866D01*
X96800692Y-51615444D02*
X98800692Y-51615444D01*
X98800692Y-52377349D01*
X98705454Y-52567825D01*
X98610215Y-52663063D01*
X98419739Y-52758301D01*
X98134025Y-52758301D01*
X97943549Y-52663063D01*
X97848311Y-52567825D01*
X97753073Y-52377349D01*
X97753073Y-51615444D01*
X98134025Y-53329730D02*
X98134025Y-54091634D01*
X98800692Y-53615444D02*
X97086406Y-53615444D01*
X96895930Y-53710682D01*
X96800692Y-53901158D01*
X96800692Y-54091634D01*
X96895930Y-55520206D02*
X96800692Y-55329730D01*
X96800692Y-54948777D01*
X96895930Y-54758301D01*
X97086406Y-54663063D01*
X97848311Y-54663063D01*
X98038787Y-54758301D01*
X98134025Y-54948777D01*
X98134025Y-55329730D01*
X98038787Y-55520206D01*
X97848311Y-55615444D01*
X97657834Y-55615444D01*
X97467358Y-54663063D01*
X96800692Y-56472587D02*
X98134025Y-56472587D01*
X97753073Y-56472587D02*
X97943549Y-56567825D01*
X98038787Y-56663063D01*
X98134025Y-56853539D01*
X98134025Y-57044015D01*
X96800692Y-57996396D02*
X96895930Y-57805920D01*
X96991168Y-57710682D01*
X97181644Y-57615444D01*
X97753073Y-57615444D01*
X97943549Y-57710682D01*
X98038787Y-57805920D01*
X98134025Y-57996396D01*
X98134025Y-58282110D01*
X98038787Y-58472587D01*
X97943549Y-58567825D01*
X97753073Y-58663063D01*
X97181644Y-58663063D01*
X96991168Y-58567825D01*
X96895930Y-58472587D01*
X96800692Y-58282110D01*
X96800692Y-57996396D01*
X98134025Y-59520206D02*
X96800692Y-59520206D01*
X97943549Y-59520206D02*
X98038787Y-59615444D01*
X98134025Y-59805920D01*
X98134025Y-60091634D01*
X98038787Y-60282110D01*
X97848311Y-60377349D01*
X96800692Y-60377349D01*
X98800692Y-61139253D02*
X98800692Y-62377349D01*
X98038787Y-61710682D01*
X98038787Y-61996396D01*
X97943549Y-62186872D01*
X97848311Y-62282110D01*
X97657834Y-62377349D01*
X97181644Y-62377349D01*
X96991168Y-62282110D01*
X96895930Y-62186872D01*
X96800692Y-61996396D01*
X96800692Y-61424968D01*
X96895930Y-61234491D01*
X96991168Y-61139253D01*
X98800692Y-64091634D02*
X98800692Y-63710682D01*
X98705454Y-63520206D01*
X98610215Y-63424968D01*
X98324501Y-63234491D01*
X97943549Y-63139253D01*
X97181644Y-63139253D01*
X96991168Y-63234491D01*
X96895930Y-63329730D01*
X96800692Y-63520206D01*
X96800692Y-63901158D01*
X96895930Y-64091634D01*
X96991168Y-64186872D01*
X97181644Y-64282110D01*
X97657834Y-64282110D01*
X97848311Y-64186872D01*
X97943549Y-64091634D01*
X98038787Y-63901158D01*
X98038787Y-63520206D01*
X97943549Y-63329730D01*
X97848311Y-63234491D01*
X97657834Y-63139253D01*
X98800692Y-66377349D02*
X96800692Y-67044015D01*
X98800692Y-67710682D01*
X96800692Y-69424968D02*
X96800692Y-68282110D01*
X96800692Y-68853539D02*
X98800692Y-68853539D01*
X98514977Y-68663063D01*
X98324501Y-68472587D01*
X98229263Y-68282110D01*
X96991168Y-70282110D02*
X96895930Y-70377349D01*
X96800692Y-70282110D01*
X96895930Y-70186872D01*
X96991168Y-70282110D01*
X96800692Y-70282110D01*
X98800692Y-71044015D02*
X98800692Y-72282110D01*
X98038787Y-71615444D01*
X98038787Y-71901158D01*
X97943549Y-72091634D01*
X97848311Y-72186872D01*
X97657834Y-72282110D01*
X97181644Y-72282110D01*
X96991168Y-72186872D01*
X96895930Y-72091634D01*
X96800692Y-71901158D01*
X96800692Y-71329730D01*
X96895930Y-71139253D01*
X96991168Y-71044015D01*
X96991168Y-73139253D02*
X96895930Y-73234491D01*
X96800692Y-73139253D01*
X96895930Y-73044015D01*
X96991168Y-73139253D01*
X96800692Y-73139253D01*
X98800692Y-74472587D02*
X98800692Y-74663063D01*
X98705454Y-74853539D01*
X98610215Y-74948777D01*
X98419739Y-75044015D01*
X98038787Y-75139253D01*
X97562596Y-75139253D01*
X97181644Y-75044015D01*
X96991168Y-74948777D01*
X96895930Y-74853539D01*
X96800692Y-74663063D01*
X96800692Y-74472587D01*
X96895930Y-74282110D01*
X96991168Y-74186872D01*
X97181644Y-74091634D01*
X97562596Y-73996396D01*
X98038787Y-73996396D01*
X98419739Y-74091634D01*
X98610215Y-74186872D01*
X98705454Y-74282110D01*
X98800692Y-74472587D01*
D11*
X83238540Y-75759472D02*
X82429016Y-75759472D01*
X82333778Y-75711853D01*
X82286159Y-75664234D01*
X82238540Y-75568996D01*
X82238540Y-75426139D01*
X82286159Y-75330901D01*
X82619493Y-75759472D02*
X82571874Y-75664234D01*
X82571874Y-75473758D01*
X82619493Y-75378520D01*
X82667112Y-75330901D01*
X82762350Y-75283282D01*
X83048064Y-75283282D01*
X83143302Y-75330901D01*
X83190921Y-75378520D01*
X83238540Y-75473758D01*
X83238540Y-75664234D01*
X83190921Y-75759472D01*
X82571874Y-76235663D02*
X83238540Y-76235663D01*
X83571874Y-76235663D02*
X83524255Y-76188044D01*
X83476635Y-76235663D01*
X83524255Y-76283282D01*
X83571874Y-76235663D01*
X83476635Y-76235663D01*
X83238540Y-76568996D02*
X83238540Y-76949949D01*
X83571874Y-76711853D02*
X82714731Y-76711853D01*
X82619493Y-76759472D01*
X82571874Y-76854710D01*
X82571874Y-76949949D01*
X82571874Y-77283282D02*
X83571874Y-77283282D01*
X82571874Y-77711853D02*
X83095683Y-77711853D01*
X83190921Y-77664234D01*
X83238540Y-77568996D01*
X83238540Y-77426139D01*
X83190921Y-77330901D01*
X83143302Y-77283282D01*
X83238540Y-78616615D02*
X82571874Y-78616615D01*
X83238540Y-78188044D02*
X82714731Y-78188044D01*
X82619493Y-78235663D01*
X82571874Y-78330901D01*
X82571874Y-78473758D01*
X82619493Y-78568996D01*
X82667112Y-78616615D01*
X82571874Y-79092806D02*
X83571874Y-79092806D01*
X83190921Y-79092806D02*
X83238540Y-79188044D01*
X83238540Y-79378520D01*
X83190921Y-79473758D01*
X83143302Y-79521377D01*
X83048064Y-79568996D01*
X82762350Y-79568996D01*
X82667112Y-79521377D01*
X82619493Y-79473758D01*
X82571874Y-79378520D01*
X82571874Y-79188044D01*
X82619493Y-79092806D01*
X82667112Y-79997568D02*
X82619493Y-80045187D01*
X82571874Y-79997568D01*
X82619493Y-79949949D01*
X82667112Y-79997568D01*
X82571874Y-79997568D01*
X82619493Y-80902330D02*
X82571874Y-80807091D01*
X82571874Y-80616615D01*
X82619493Y-80521377D01*
X82667112Y-80473758D01*
X82762350Y-80426139D01*
X83048064Y-80426139D01*
X83143302Y-80473758D01*
X83190921Y-80521377D01*
X83238540Y-80616615D01*
X83238540Y-80807091D01*
X83190921Y-80902330D01*
X82571874Y-81473758D02*
X82619493Y-81378520D01*
X82667112Y-81330901D01*
X82762350Y-81283282D01*
X83048064Y-81283282D01*
X83143302Y-81330901D01*
X83190921Y-81378520D01*
X83238540Y-81473758D01*
X83238540Y-81616615D01*
X83190921Y-81711853D01*
X83143302Y-81759472D01*
X83048064Y-81807091D01*
X82762350Y-81807091D01*
X82667112Y-81759472D01*
X82619493Y-81711853D01*
X82571874Y-81616615D01*
X82571874Y-81473758D01*
X82571874Y-82235663D02*
X83238540Y-82235663D01*
X83143302Y-82235663D02*
X83190921Y-82283282D01*
X83238540Y-82378520D01*
X83238540Y-82521377D01*
X83190921Y-82616615D01*
X83095683Y-82664234D01*
X82571874Y-82664234D01*
X83095683Y-82664234D02*
X83190921Y-82711853D01*
X83238540Y-82807091D01*
X83238540Y-82949949D01*
X83190921Y-83045187D01*
X83095683Y-83092806D01*
X82571874Y-83092806D01*
X83619493Y-84283282D02*
X82333778Y-83426139D01*
X82571874Y-84616615D02*
X83571874Y-84616615D01*
X82571874Y-85045187D02*
X83095683Y-85045187D01*
X83190921Y-84997568D01*
X83238540Y-84902330D01*
X83238540Y-84759472D01*
X83190921Y-84664234D01*
X83143302Y-84616615D01*
X82571874Y-85949949D02*
X83095683Y-85949949D01*
X83190921Y-85902330D01*
X83238540Y-85807091D01*
X83238540Y-85616615D01*
X83190921Y-85521377D01*
X82619493Y-85949949D02*
X82571874Y-85854710D01*
X82571874Y-85616615D01*
X82619493Y-85521377D01*
X82714731Y-85473758D01*
X82809969Y-85473758D01*
X82905207Y-85521377D01*
X82952826Y-85616615D01*
X82952826Y-85854710D01*
X83000445Y-85949949D01*
X82571874Y-86426139D02*
X83238540Y-86426139D01*
X83048064Y-86426139D02*
X83143302Y-86473758D01*
X83190921Y-86521377D01*
X83238540Y-86616615D01*
X83238540Y-86711853D01*
X82619493Y-86997568D02*
X82571874Y-87092806D01*
X82571874Y-87283282D01*
X82619493Y-87378520D01*
X82714731Y-87426139D01*
X82762350Y-87426139D01*
X82857588Y-87378520D01*
X82905207Y-87283282D01*
X82905207Y-87140425D01*
X82952826Y-87045187D01*
X83048064Y-86997568D01*
X83095683Y-86997568D01*
X83190921Y-87045187D01*
X83238540Y-87140425D01*
X83238540Y-87283282D01*
X83190921Y-87378520D01*
X82571874Y-87854710D02*
X83571874Y-87854710D01*
X82571874Y-88283282D02*
X83095683Y-88283282D01*
X83190921Y-88235663D01*
X83238540Y-88140425D01*
X83238540Y-87997568D01*
X83190921Y-87902330D01*
X83143302Y-87854710D01*
X82571874Y-88759472D02*
X83238540Y-88759472D01*
X83571874Y-88759472D02*
X83524255Y-88711853D01*
X83476635Y-88759472D01*
X83524255Y-88807091D01*
X83571874Y-88759472D01*
X83476635Y-88759472D01*
X83238540Y-89092806D02*
X83238540Y-89473758D01*
X83571874Y-89235663D02*
X82714731Y-89235663D01*
X82619493Y-89283282D01*
X82571874Y-89378520D01*
X82571874Y-89473758D01*
X83238540Y-90235663D02*
X82429016Y-90235663D01*
X82333778Y-90188044D01*
X82286159Y-90140425D01*
X82238540Y-90045187D01*
X82238540Y-89902330D01*
X82286159Y-89807091D01*
X82619493Y-90235663D02*
X82571874Y-90140425D01*
X82571874Y-89949949D01*
X82619493Y-89854710D01*
X82667112Y-89807091D01*
X82762350Y-89759472D01*
X83048064Y-89759472D01*
X83143302Y-89807091D01*
X83190921Y-89854710D01*
X83238540Y-89949949D01*
X83238540Y-90140425D01*
X83190921Y-90235663D01*
X82571874Y-90854710D02*
X82619493Y-90759472D01*
X82667112Y-90711853D01*
X82762350Y-90664234D01*
X83048064Y-90664234D01*
X83143302Y-90711853D01*
X83190921Y-90759472D01*
X83238540Y-90854710D01*
X83238540Y-90997568D01*
X83190921Y-91092806D01*
X83143302Y-91140425D01*
X83048064Y-91188044D01*
X82762350Y-91188044D01*
X82667112Y-91140425D01*
X82619493Y-91092806D01*
X82571874Y-90997568D01*
X82571874Y-90854710D01*
X82619493Y-91997568D02*
X82571874Y-91902330D01*
X82571874Y-91711853D01*
X82619493Y-91616615D01*
X82714731Y-91568996D01*
X83095683Y-91568996D01*
X83190921Y-91616615D01*
X83238540Y-91711853D01*
X83238540Y-91902330D01*
X83190921Y-91997568D01*
X83095683Y-92045187D01*
X83000445Y-92045187D01*
X82905207Y-91568996D01*
X82571874Y-92616615D02*
X82619493Y-92521377D01*
X82714731Y-92473758D01*
X83571874Y-92473758D01*
X82571874Y-93045187D02*
X82571874Y-93235663D01*
X82619493Y-93330901D01*
X82667112Y-93378520D01*
X82809969Y-93473758D01*
X83000445Y-93521377D01*
X83381397Y-93521377D01*
X83476635Y-93473758D01*
X83524255Y-93426139D01*
X83571874Y-93330901D01*
X83571874Y-93140425D01*
X83524255Y-93045187D01*
X83476635Y-92997568D01*
X83381397Y-92949949D01*
X83143302Y-92949949D01*
X83048064Y-92997568D01*
X83000445Y-93045187D01*
X82952826Y-93140425D01*
X82952826Y-93330901D01*
X83000445Y-93426139D01*
X83048064Y-93473758D01*
X83143302Y-93521377D01*
X83571874Y-94378520D02*
X83571874Y-94188044D01*
X83524255Y-94092806D01*
X83476635Y-94045187D01*
X83333778Y-93949949D01*
X83143302Y-93902330D01*
X82762350Y-93902330D01*
X82667112Y-93949949D01*
X82619493Y-93997568D01*
X82571874Y-94092806D01*
X82571874Y-94283282D01*
X82619493Y-94378520D01*
X82667112Y-94426139D01*
X82762350Y-94473758D01*
X83000445Y-94473758D01*
X83095683Y-94426139D01*
X83143302Y-94378520D01*
X83190921Y-94283282D01*
X83190921Y-94092806D01*
X83143302Y-93997568D01*
X83095683Y-93949949D01*
X83000445Y-93902330D01*
X83619493Y-95616615D02*
X82333778Y-94759472D01*
D12*
X114246444Y-66256996D02*
X114746444Y-66090330D01*
X114246444Y-65923663D01*
X114698825Y-65471282D02*
X114722634Y-65495091D01*
X114746444Y-65566520D01*
X114746444Y-65614139D01*
X114722634Y-65685568D01*
X114675015Y-65733187D01*
X114627396Y-65756996D01*
X114532158Y-65780806D01*
X114460730Y-65780806D01*
X114365492Y-65756996D01*
X114317873Y-65733187D01*
X114270254Y-65685568D01*
X114246444Y-65614139D01*
X114246444Y-65566520D01*
X114270254Y-65495091D01*
X114294063Y-65471282D01*
X114698825Y-64971282D02*
X114722634Y-64995091D01*
X114746444Y-65066520D01*
X114746444Y-65114139D01*
X114722634Y-65185568D01*
X114675015Y-65233187D01*
X114627396Y-65256996D01*
X114532158Y-65280806D01*
X114460730Y-65280806D01*
X114365492Y-65256996D01*
X114317873Y-65233187D01*
X114270254Y-65185568D01*
X114246444Y-65114139D01*
X114246444Y-65066520D01*
X114270254Y-64995091D01*
X114294063Y-64971282D01*
X114167063Y-62220950D02*
X114667063Y-62220950D01*
X114667063Y-62411426D01*
X114643254Y-62459045D01*
X114619444Y-62482854D01*
X114571825Y-62506664D01*
X114500396Y-62506664D01*
X114452777Y-62482854D01*
X114428968Y-62459045D01*
X114405158Y-62411426D01*
X114405158Y-62220950D01*
X114667063Y-62673331D02*
X114167063Y-62792378D01*
X114524206Y-62887616D01*
X114167063Y-62982854D01*
X114667063Y-63101902D01*
X114167063Y-63292378D02*
X114667063Y-63292378D01*
X114309920Y-63459045D01*
X114667063Y-63625711D01*
X114167063Y-63625711D01*
X114143255Y-60764282D02*
X114119445Y-60811901D01*
X114119445Y-60883330D01*
X114143255Y-60954758D01*
X114190874Y-61002377D01*
X114238493Y-61026187D01*
X114333731Y-61049996D01*
X114405159Y-61049996D01*
X114500397Y-61026187D01*
X114548016Y-61002377D01*
X114595635Y-60954758D01*
X114619445Y-60883330D01*
X114619445Y-60835710D01*
X114595635Y-60764282D01*
X114571826Y-60740472D01*
X114405159Y-60740472D01*
X114405159Y-60835710D01*
X114619445Y-60526187D02*
X114119445Y-60526187D01*
X114619445Y-60240472D01*
X114119445Y-60240472D01*
X114619445Y-60002377D02*
X114119445Y-60002377D01*
X114119445Y-59883330D01*
X114143255Y-59811901D01*
X114190874Y-59764282D01*
X114238493Y-59740472D01*
X114333731Y-59716663D01*
X114405159Y-59716663D01*
X114500397Y-59740472D01*
X114548016Y-59764282D01*
X114595635Y-59811901D01*
X114619445Y-59883330D01*
X114619445Y-60002377D01*
X94482112Y-87509710D02*
X94553540Y-87533520D01*
X94672588Y-87533520D01*
X94720207Y-87509710D01*
X94744016Y-87485901D01*
X94767826Y-87438282D01*
X94767826Y-87390663D01*
X94744016Y-87343044D01*
X94720207Y-87319234D01*
X94672588Y-87295425D01*
X94577350Y-87271615D01*
X94529731Y-87247806D01*
X94505921Y-87223996D01*
X94482112Y-87176377D01*
X94482112Y-87128758D01*
X94505921Y-87081139D01*
X94529731Y-87057330D01*
X94577350Y-87033520D01*
X94696397Y-87033520D01*
X94767826Y-87057330D01*
X94982112Y-87533520D02*
X94982112Y-87033520D01*
X95101159Y-87033520D01*
X95172588Y-87057330D01*
X95220207Y-87104949D01*
X95244016Y-87152568D01*
X95267826Y-87247806D01*
X95267826Y-87319234D01*
X95244016Y-87414472D01*
X95220207Y-87462091D01*
X95172588Y-87509710D01*
X95101159Y-87533520D01*
X94982112Y-87533520D01*
X95458302Y-87390663D02*
X95696397Y-87390663D01*
X95410683Y-87533520D02*
X95577350Y-87033520D01*
X95744016Y-87533520D01*
D11*
X84778492Y-71815139D02*
X84730873Y-71957996D01*
X84730873Y-72196091D01*
X84778492Y-72291330D01*
X84826111Y-72338949D01*
X84921349Y-72386568D01*
X85016587Y-72386568D01*
X85111825Y-72338949D01*
X85159444Y-72291330D01*
X85207063Y-72196091D01*
X85254682Y-72005615D01*
X85302301Y-71910377D01*
X85349920Y-71862758D01*
X85445158Y-71815139D01*
X85540396Y-71815139D01*
X85635634Y-71862758D01*
X85683254Y-71910377D01*
X85730873Y-72005615D01*
X85730873Y-72243710D01*
X85683254Y-72386568D01*
X85397539Y-72815139D02*
X84397539Y-72815139D01*
X85349920Y-72815139D02*
X85397539Y-72910377D01*
X85397539Y-73100853D01*
X85349920Y-73196091D01*
X85302301Y-73243710D01*
X85207063Y-73291330D01*
X84921349Y-73291330D01*
X84826111Y-73243710D01*
X84778492Y-73196091D01*
X84730873Y-73100853D01*
X84730873Y-72910377D01*
X84778492Y-72815139D01*
X84730873Y-73862758D02*
X84778492Y-73767520D01*
X84873730Y-73719901D01*
X85730873Y-73719901D01*
X84730873Y-74243710D02*
X85397539Y-74243710D01*
X85730873Y-74243710D02*
X85683254Y-74196091D01*
X85635634Y-74243710D01*
X85683254Y-74291330D01*
X85730873Y-74243710D01*
X85635634Y-74243710D01*
X85397539Y-74577044D02*
X85397539Y-74957996D01*
X85730873Y-74719901D02*
X84873730Y-74719901D01*
X84778492Y-74767520D01*
X84730873Y-74862758D01*
X84730873Y-74957996D01*
X84730873Y-76053234D02*
X85730873Y-76053234D01*
X85730873Y-76434187D01*
X85683254Y-76529425D01*
X85635634Y-76577044D01*
X85540396Y-76624663D01*
X85397539Y-76624663D01*
X85302301Y-76577044D01*
X85254682Y-76529425D01*
X85207063Y-76434187D01*
X85207063Y-76053234D01*
X84826111Y-77624663D02*
X84778492Y-77577044D01*
X84730873Y-77434187D01*
X84730873Y-77338949D01*
X84778492Y-77196091D01*
X84873730Y-77100853D01*
X84968968Y-77053234D01*
X85159444Y-77005615D01*
X85302301Y-77005615D01*
X85492777Y-77053234D01*
X85588015Y-77100853D01*
X85683254Y-77196091D01*
X85730873Y-77338949D01*
X85730873Y-77434187D01*
X85683254Y-77577044D01*
X85635634Y-77624663D01*
X85254682Y-78386568D02*
X85207063Y-78529425D01*
X85159444Y-78577044D01*
X85064206Y-78624663D01*
X84921349Y-78624663D01*
X84826111Y-78577044D01*
X84778492Y-78529425D01*
X84730873Y-78434187D01*
X84730873Y-78053234D01*
X85730873Y-78053234D01*
X85730873Y-78386568D01*
X85683254Y-78481806D01*
X85635634Y-78529425D01*
X85540396Y-78577044D01*
X85445158Y-78577044D01*
X85349920Y-78529425D01*
X85302301Y-78481806D01*
X85254682Y-78386568D01*
X85254682Y-78053234D01*
X84730873Y-80243710D02*
X85730873Y-80243710D01*
X84778492Y-80243710D02*
X84730873Y-80148472D01*
X84730873Y-79957996D01*
X84778492Y-79862758D01*
X84826111Y-79815139D01*
X84921349Y-79767520D01*
X85207063Y-79767520D01*
X85302301Y-79815139D01*
X85349920Y-79862758D01*
X85397539Y-79957996D01*
X85397539Y-80148472D01*
X85349920Y-80243710D01*
X84778492Y-81100853D02*
X84730873Y-81005615D01*
X84730873Y-80815139D01*
X84778492Y-80719901D01*
X84873730Y-80672282D01*
X85254682Y-80672282D01*
X85349920Y-80719901D01*
X85397539Y-80815139D01*
X85397539Y-81005615D01*
X85349920Y-81100853D01*
X85254682Y-81148472D01*
X85159444Y-81148472D01*
X85064206Y-80672282D01*
X84778492Y-81529425D02*
X84730873Y-81624663D01*
X84730873Y-81815139D01*
X84778492Y-81910377D01*
X84873730Y-81957996D01*
X84921349Y-81957996D01*
X85016587Y-81910377D01*
X85064206Y-81815139D01*
X85064206Y-81672282D01*
X85111825Y-81577044D01*
X85207063Y-81529425D01*
X85254682Y-81529425D01*
X85349920Y-81577044D01*
X85397539Y-81672282D01*
X85397539Y-81815139D01*
X85349920Y-81910377D01*
X84730873Y-82386568D02*
X85397539Y-82386568D01*
X85730873Y-82386568D02*
X85683254Y-82338949D01*
X85635634Y-82386568D01*
X85683254Y-82434187D01*
X85730873Y-82386568D01*
X85635634Y-82386568D01*
X85397539Y-83291330D02*
X84588015Y-83291330D01*
X84492777Y-83243710D01*
X84445158Y-83196091D01*
X84397539Y-83100853D01*
X84397539Y-82957996D01*
X84445158Y-82862758D01*
X84778492Y-83291330D02*
X84730873Y-83196091D01*
X84730873Y-83005615D01*
X84778492Y-82910377D01*
X84826111Y-82862758D01*
X84921349Y-82815139D01*
X85207063Y-82815139D01*
X85302301Y-82862758D01*
X85349920Y-82910377D01*
X85397539Y-83005615D01*
X85397539Y-83196091D01*
X85349920Y-83291330D01*
X85397539Y-83767520D02*
X84730873Y-83767520D01*
X85302301Y-83767520D02*
X85349920Y-83815139D01*
X85397539Y-83910377D01*
X85397539Y-84053234D01*
X85349920Y-84148472D01*
X85254682Y-84196091D01*
X84730873Y-84196091D01*
X84778492Y-85053234D02*
X84730873Y-84957996D01*
X84730873Y-84767520D01*
X84778492Y-84672282D01*
X84873730Y-84624663D01*
X85254682Y-84624663D01*
X85349920Y-84672282D01*
X85397539Y-84767520D01*
X85397539Y-84957996D01*
X85349920Y-85053234D01*
X85254682Y-85100853D01*
X85159444Y-85100853D01*
X85064206Y-84624663D01*
X84730873Y-85957996D02*
X85730873Y-85957996D01*
X84778492Y-85957996D02*
X84730873Y-85862758D01*
X84730873Y-85672282D01*
X84778492Y-85577044D01*
X84826111Y-85529425D01*
X84921349Y-85481806D01*
X85207063Y-85481806D01*
X85302301Y-85529425D01*
X85349920Y-85577044D01*
X85397539Y-85672282D01*
X85397539Y-85862758D01*
X85349920Y-85957996D01*
X85397539Y-87053234D02*
X85397539Y-87434187D01*
X84730873Y-87196091D02*
X85588015Y-87196091D01*
X85683254Y-87243710D01*
X85730873Y-87338949D01*
X85730873Y-87434187D01*
X84730873Y-87910377D02*
X84778492Y-87815139D01*
X84826111Y-87767520D01*
X84921349Y-87719901D01*
X85207063Y-87719901D01*
X85302301Y-87767520D01*
X85349920Y-87815139D01*
X85397539Y-87910377D01*
X85397539Y-88053234D01*
X85349920Y-88148472D01*
X85302301Y-88196091D01*
X85207063Y-88243710D01*
X84921349Y-88243710D01*
X84826111Y-88196091D01*
X84778492Y-88148472D01*
X84730873Y-88053234D01*
X84730873Y-87910377D01*
X84730873Y-88672282D02*
X85397539Y-88672282D01*
X85207063Y-88672282D02*
X85302301Y-88719901D01*
X85349920Y-88767520D01*
X85397539Y-88862758D01*
X85397539Y-88957996D01*
X84730873Y-90053234D02*
X85397539Y-90053234D01*
X85302301Y-90053234D02*
X85349920Y-90100853D01*
X85397539Y-90196091D01*
X85397539Y-90338949D01*
X85349920Y-90434187D01*
X85254682Y-90481806D01*
X84730873Y-90481806D01*
X85254682Y-90481806D02*
X85349920Y-90529425D01*
X85397539Y-90624663D01*
X85397539Y-90767520D01*
X85349920Y-90862758D01*
X85254682Y-90910377D01*
X84730873Y-90910377D01*
X84730873Y-91386568D02*
X85397539Y-91386568D01*
X85730873Y-91386568D02*
X85683254Y-91338949D01*
X85635634Y-91386568D01*
X85683254Y-91434187D01*
X85730873Y-91386568D01*
X85635634Y-91386568D01*
X84730873Y-91862758D02*
X85397539Y-91862758D01*
X85207063Y-91862758D02*
X85302301Y-91910377D01*
X85349920Y-91957996D01*
X85397539Y-92053234D01*
X85397539Y-92148472D01*
X85397539Y-92386568D02*
X84730873Y-92624663D01*
X85397539Y-92862758D02*
X84730873Y-92624663D01*
X84492777Y-92529425D01*
X84445158Y-92481806D01*
X84397539Y-92386568D01*
X84730873Y-93386568D02*
X84778492Y-93291330D01*
X84826111Y-93243710D01*
X84921349Y-93196091D01*
X85207063Y-93196091D01*
X85302301Y-93243710D01*
X85349920Y-93291330D01*
X85397539Y-93386568D01*
X85397539Y-93529425D01*
X85349920Y-93624663D01*
X85302301Y-93672282D01*
X85207063Y-93719901D01*
X84921349Y-93719901D01*
X84826111Y-93672282D01*
X84778492Y-93624663D01*
X84730873Y-93529425D01*
X84730873Y-93386568D01*
X84730873Y-94148472D02*
X85730873Y-94148472D01*
X85111825Y-94243710D02*
X84730873Y-94529425D01*
X85397539Y-94529425D02*
X85016587Y-94148472D01*
X85397539Y-95386568D02*
X84730873Y-95386568D01*
X85397539Y-94957996D02*
X84873730Y-94957996D01*
X84778492Y-95005615D01*
X84730873Y-95100853D01*
X84730873Y-95243710D01*
X84778492Y-95338949D01*
X84826111Y-95386568D01*
X84730873Y-96767520D02*
X84778492Y-96672282D01*
X84873730Y-96624663D01*
X85730873Y-96624663D01*
X84730873Y-97577044D02*
X85254682Y-97577044D01*
X85349920Y-97529425D01*
X85397539Y-97434187D01*
X85397539Y-97243710D01*
X85349920Y-97148472D01*
X84778492Y-97577044D02*
X84730873Y-97481806D01*
X84730873Y-97243710D01*
X84778492Y-97148472D01*
X84873730Y-97100853D01*
X84968968Y-97100853D01*
X85064206Y-97148472D01*
X85111825Y-97243710D01*
X85111825Y-97481806D01*
X85159444Y-97577044D01*
X85397539Y-97957996D02*
X84730873Y-98196091D01*
X85397539Y-98434187D02*
X84730873Y-98196091D01*
X84492777Y-98100853D01*
X84445158Y-98053234D01*
X84397539Y-97957996D01*
X84730873Y-98957996D02*
X84778492Y-98862758D01*
X84826111Y-98815139D01*
X84921349Y-98767520D01*
X85207063Y-98767520D01*
X85302301Y-98815139D01*
X85349920Y-98862758D01*
X85397539Y-98957996D01*
X85397539Y-99100853D01*
X85349920Y-99196091D01*
X85302301Y-99243710D01*
X85207063Y-99291329D01*
X84921349Y-99291329D01*
X84826111Y-99243710D01*
X84778492Y-99196091D01*
X84730873Y-99100853D01*
X84730873Y-98957996D01*
X85397539Y-100148472D02*
X84730873Y-100148472D01*
X85397539Y-99719901D02*
X84873730Y-99719901D01*
X84778492Y-99767520D01*
X84730873Y-99862758D01*
X84730873Y-100005615D01*
X84778492Y-100100853D01*
X84826111Y-100148472D01*
X85397539Y-100481806D02*
X85397539Y-100862758D01*
X85730873Y-100624663D02*
X84873730Y-100624663D01*
X84778492Y-100672282D01*
X84730873Y-100767520D01*
X84730873Y-100862758D01*
%TO.C,U1*%
X89958454Y-48839031D02*
X95038454Y-48839031D01*
X95038454Y-48839031D02*
X95038454Y-46299031D01*
X95038454Y-46299031D02*
X102658454Y-46299031D01*
X102658454Y-46299031D02*
X102658454Y-48839031D01*
X102658454Y-48839031D02*
X107738454Y-48839031D01*
D13*
%TO.C,RE1*%
X94215254Y-103650330D02*
X95215254Y-103650330D01*
X94715254Y-103150330D02*
X94715254Y-104150330D01*
X100815254Y-107150330D02*
X100815254Y-109550330D01*
X100815254Y-102350330D02*
X100815254Y-104950330D01*
X100815254Y-97750330D02*
X100815254Y-100150330D01*
X87515254Y-99550330D02*
X87215254Y-99850330D01*
X86915254Y-99550330D02*
X87515254Y-99550330D01*
X87215254Y-99850330D02*
X86915254Y-99550330D01*
X88615254Y-97750330D02*
X88615254Y-109550330D01*
X92715254Y-97750330D02*
X88615254Y-97750330D01*
X92715254Y-109550330D02*
X88615254Y-109550330D01*
X100815254Y-109550330D02*
X96715254Y-109550330D01*
X96715254Y-97750330D02*
X100815254Y-97750330D01*
X97715254Y-103650330D02*
G75*
G03*
X97715254Y-103650330I-3000000J0D01*
G01*
D11*
%TO.C,D_RE1*%
X93057254Y-112072330D02*
X93057254Y-113596330D01*
X92930254Y-112072330D02*
X92930254Y-113596330D01*
X92803254Y-113596330D02*
X92803254Y-112072330D01*
X92422254Y-112072330D02*
X92422254Y-113596330D01*
X92549254Y-113596330D02*
X92549254Y-112072330D01*
X92676254Y-112072330D02*
X92676254Y-113596330D01*
X97375254Y-112072330D02*
X96867254Y-112072330D01*
X97375254Y-113596330D02*
X97375254Y-112072330D01*
X92295254Y-113596330D02*
X97375254Y-113596330D01*
X92295254Y-112072330D02*
X92295254Y-113596330D01*
X97375254Y-112072330D02*
X92295254Y-112072330D01*
D14*
%TO.C,LOGO2*%
G36*
X92613642Y-81878776D02*
G01*
X92599555Y-81973394D01*
X92580547Y-82082648D01*
X92558803Y-82194921D01*
X92536511Y-82298598D01*
X92515854Y-82382062D01*
X92499020Y-82433695D01*
X92493491Y-82443230D01*
X92463912Y-82444707D01*
X92425451Y-82414341D01*
X92390666Y-82366342D01*
X92372114Y-82314921D01*
X92371455Y-82305123D01*
X92351862Y-82272581D01*
X92297332Y-82216475D01*
X92214241Y-82142802D01*
X92108967Y-82057559D01*
X92104755Y-82054281D01*
X91838055Y-81847017D01*
X91838055Y-82756156D01*
X92091499Y-82976630D01*
X91888656Y-83239930D01*
X91685814Y-83503230D01*
X91635492Y-83392330D01*
X91605471Y-83320149D01*
X91587168Y-83264576D01*
X91584613Y-83249680D01*
X91573913Y-83240996D01*
X91539491Y-83233935D01*
X91477365Y-83228361D01*
X91383553Y-83224134D01*
X91254072Y-83221117D01*
X91084939Y-83219171D01*
X90872171Y-83218159D01*
X90668414Y-83217930D01*
X89752772Y-83217930D01*
X89703771Y-83109980D01*
X89672690Y-83020231D01*
X89655423Y-82929171D01*
X89654213Y-82906780D01*
X89657369Y-82844318D01*
X89675762Y-82817572D01*
X89721285Y-82811568D01*
X89729855Y-82811530D01*
X89806055Y-82811530D01*
X89806055Y-82481330D01*
X88805930Y-82481330D01*
X88582122Y-82481740D01*
X88371586Y-82482909D01*
X88180354Y-82484747D01*
X88014453Y-82487160D01*
X87879914Y-82490058D01*
X87782766Y-82493349D01*
X87729038Y-82496941D01*
X87723569Y-82497777D01*
X87691474Y-82504803D01*
X87664136Y-82514599D01*
X87641196Y-82530995D01*
X87622297Y-82557822D01*
X87607082Y-82598910D01*
X87595193Y-82658091D01*
X87586271Y-82739194D01*
X87579960Y-82846051D01*
X87575902Y-82982492D01*
X87573739Y-83152348D01*
X87573114Y-83359450D01*
X87573669Y-83607627D01*
X87575046Y-83900712D01*
X87576003Y-84078394D01*
X87577759Y-84381621D01*
X87579562Y-84638164D01*
X87581555Y-84852139D01*
X87583883Y-85027661D01*
X87586691Y-85168846D01*
X87590123Y-85279810D01*
X87594325Y-85364668D01*
X87599440Y-85427536D01*
X87605614Y-85472531D01*
X87612991Y-85503767D01*
X87621715Y-85525360D01*
X87627197Y-85534703D01*
X87673848Y-85581218D01*
X87754979Y-85627921D01*
X87874819Y-85676594D01*
X88037598Y-85729017D01*
X88190084Y-85771782D01*
X88316372Y-85807523D01*
X88398927Y-85836140D01*
X88436658Y-85858540D01*
X88428478Y-85875629D01*
X88373296Y-85888313D01*
X88270023Y-85897500D01*
X88117570Y-85904097D01*
X88028136Y-85906572D01*
X87651198Y-85915765D01*
X87634448Y-85982897D01*
X87591417Y-86076100D01*
X87520537Y-86128209D01*
X87456555Y-86138929D01*
X87393221Y-86129408D01*
X87341005Y-86097929D01*
X87298482Y-86040122D01*
X87264227Y-85951616D01*
X87236817Y-85828038D01*
X87214825Y-85665018D01*
X87196828Y-85458184D01*
X87187483Y-85313430D01*
X87181899Y-85187059D01*
X87177187Y-85017692D01*
X87173429Y-84813125D01*
X87170705Y-84581154D01*
X87169097Y-84329575D01*
X87168687Y-84066187D01*
X87169555Y-83798785D01*
X87170418Y-83675130D01*
X87172942Y-83392646D01*
X87175581Y-83156280D01*
X87178521Y-82961351D01*
X87181949Y-82803177D01*
X87186052Y-82677075D01*
X87191017Y-82578364D01*
X87197029Y-82502362D01*
X87204277Y-82444387D01*
X87212946Y-82399758D01*
X87222641Y-82365538D01*
X87283857Y-82235227D01*
X87369205Y-82147099D01*
X87471371Y-82099723D01*
X87516619Y-82094053D01*
X87608020Y-82088937D01*
X87740930Y-82084470D01*
X87910704Y-82080747D01*
X88112697Y-82077862D01*
X88342264Y-82075912D01*
X88594761Y-82074991D01*
X88681938Y-82074930D01*
X89806055Y-82074930D01*
X89806055Y-81899906D01*
X89806056Y-81724882D01*
X89520305Y-81707302D01*
X89128203Y-81674663D01*
X88779950Y-81626775D01*
X88470438Y-81561951D01*
X88194560Y-81478502D01*
X87947209Y-81374742D01*
X87723277Y-81248981D01*
X87517656Y-81099534D01*
X87416546Y-81012146D01*
X87325919Y-80924541D01*
X87234973Y-80828244D01*
X87150919Y-80731911D01*
X87080968Y-80644195D01*
X87032331Y-80573753D01*
X87012220Y-80529239D01*
X87012055Y-80526662D01*
X87032236Y-80493365D01*
X87046654Y-80485258D01*
X87080934Y-80493877D01*
X87143948Y-80528055D01*
X87224842Y-80581518D01*
X87268904Y-80613748D01*
X87522218Y-80783281D01*
X87797580Y-80924379D01*
X88099816Y-81038569D01*
X88433749Y-81127380D01*
X88804205Y-81192340D01*
X89216009Y-81234977D01*
X89234555Y-81236322D01*
X89426311Y-81249280D01*
X89572614Y-81257319D01*
X89678572Y-81260442D01*
X89749296Y-81258654D01*
X89789893Y-81251958D01*
X89805471Y-81240358D01*
X89806055Y-81236730D01*
X89783956Y-81219006D01*
X89730588Y-81211338D01*
X89728614Y-81211330D01*
X89676933Y-81204452D01*
X89640965Y-81175433D01*
X89605980Y-81111698D01*
X89602171Y-81103380D01*
X89571090Y-81013631D01*
X89553823Y-80922571D01*
X89552613Y-80900180D01*
X89552055Y-80804930D01*
X90745855Y-80804930D01*
X90745855Y-81211330D01*
X89983855Y-81211330D01*
X89983855Y-81820930D01*
X90745855Y-81820930D01*
X90745855Y-82201930D01*
X89983855Y-82201930D01*
X89983855Y-82811530D01*
X90745855Y-82811530D01*
X90745855Y-82201930D01*
X90745855Y-81820930D01*
X90745855Y-81211330D01*
X90745855Y-80804930D01*
X90783955Y-80804930D01*
X91071141Y-80805415D01*
X91325601Y-80806836D01*
X91544554Y-80809138D01*
X91660255Y-80811141D01*
X91660255Y-81211330D01*
X90923655Y-81211330D01*
X90923655Y-81820930D01*
X91660255Y-81820930D01*
X91660255Y-82201930D01*
X90923655Y-82201930D01*
X90923655Y-82811530D01*
X91660255Y-82811530D01*
X91660255Y-82201930D01*
X91660255Y-81820930D01*
X91660255Y-81211330D01*
X91660255Y-80811141D01*
X91725218Y-80812266D01*
X91864811Y-80816167D01*
X91960553Y-80820787D01*
X92009659Y-80826071D01*
X92015855Y-80828922D01*
X92005914Y-80861674D01*
X91979421Y-80928135D01*
X91941369Y-81016011D01*
X91926013Y-81050062D01*
X91881065Y-81153301D01*
X91854922Y-81232114D01*
X91843301Y-81307325D01*
X91841920Y-81399759D01*
X91843463Y-81451519D01*
X91850755Y-81655830D01*
X92226075Y-81709416D01*
X92358761Y-81729285D01*
X92473176Y-81748169D01*
X92560059Y-81764401D01*
X92610148Y-81776318D01*
X92618308Y-81779915D01*
X92620621Y-81810411D01*
X92613642Y-81878776D01*
G37*
X92613642Y-81878776D02*
X92599555Y-81973394D01*
X92580547Y-82082648D01*
X92558803Y-82194921D01*
X92536511Y-82298598D01*
X92515854Y-82382062D01*
X92499020Y-82433695D01*
X92493491Y-82443230D01*
X92463912Y-82444707D01*
X92425451Y-82414341D01*
X92390666Y-82366342D01*
X92372114Y-82314921D01*
X92371455Y-82305123D01*
X92351862Y-82272581D01*
X92297332Y-82216475D01*
X92214241Y-82142802D01*
X92108967Y-82057559D01*
X92104755Y-82054281D01*
X91838055Y-81847017D01*
X91838055Y-82756156D01*
X92091499Y-82976630D01*
X91888656Y-83239930D01*
X91685814Y-83503230D01*
X91635492Y-83392330D01*
X91605471Y-83320149D01*
X91587168Y-83264576D01*
X91584613Y-83249680D01*
X91573913Y-83240996D01*
X91539491Y-83233935D01*
X91477365Y-83228361D01*
X91383553Y-83224134D01*
X91254072Y-83221117D01*
X91084939Y-83219171D01*
X90872171Y-83218159D01*
X90668414Y-83217930D01*
X89752772Y-83217930D01*
X89703771Y-83109980D01*
X89672690Y-83020231D01*
X89655423Y-82929171D01*
X89654213Y-82906780D01*
X89657369Y-82844318D01*
X89675762Y-82817572D01*
X89721285Y-82811568D01*
X89729855Y-82811530D01*
X89806055Y-82811530D01*
X89806055Y-82481330D01*
X88805930Y-82481330D01*
X88582122Y-82481740D01*
X88371586Y-82482909D01*
X88180354Y-82484747D01*
X88014453Y-82487160D01*
X87879914Y-82490058D01*
X87782766Y-82493349D01*
X87729038Y-82496941D01*
X87723569Y-82497777D01*
X87691474Y-82504803D01*
X87664136Y-82514599D01*
X87641196Y-82530995D01*
X87622297Y-82557822D01*
X87607082Y-82598910D01*
X87595193Y-82658091D01*
X87586271Y-82739194D01*
X87579960Y-82846051D01*
X87575902Y-82982492D01*
X87573739Y-83152348D01*
X87573114Y-83359450D01*
X87573669Y-83607627D01*
X87575046Y-83900712D01*
X87576003Y-84078394D01*
X87577759Y-84381621D01*
X87579562Y-84638164D01*
X87581555Y-84852139D01*
X87583883Y-85027661D01*
X87586691Y-85168846D01*
X87590123Y-85279810D01*
X87594325Y-85364668D01*
X87599440Y-85427536D01*
X87605614Y-85472531D01*
X87612991Y-85503767D01*
X87621715Y-85525360D01*
X87627197Y-85534703D01*
X87673848Y-85581218D01*
X87754979Y-85627921D01*
X87874819Y-85676594D01*
X88037598Y-85729017D01*
X88190084Y-85771782D01*
X88316372Y-85807523D01*
X88398927Y-85836140D01*
X88436658Y-85858540D01*
X88428478Y-85875629D01*
X88373296Y-85888313D01*
X88270023Y-85897500D01*
X88117570Y-85904097D01*
X88028136Y-85906572D01*
X87651198Y-85915765D01*
X87634448Y-85982897D01*
X87591417Y-86076100D01*
X87520537Y-86128209D01*
X87456555Y-86138929D01*
X87393221Y-86129408D01*
X87341005Y-86097929D01*
X87298482Y-86040122D01*
X87264227Y-85951616D01*
X87236817Y-85828038D01*
X87214825Y-85665018D01*
X87196828Y-85458184D01*
X87187483Y-85313430D01*
X87181899Y-85187059D01*
X87177187Y-85017692D01*
X87173429Y-84813125D01*
X87170705Y-84581154D01*
X87169097Y-84329575D01*
X87168687Y-84066187D01*
X87169555Y-83798785D01*
X87170418Y-83675130D01*
X87172942Y-83392646D01*
X87175581Y-83156280D01*
X87178521Y-82961351D01*
X87181949Y-82803177D01*
X87186052Y-82677075D01*
X87191017Y-82578364D01*
X87197029Y-82502362D01*
X87204277Y-82444387D01*
X87212946Y-82399758D01*
X87222641Y-82365538D01*
X87283857Y-82235227D01*
X87369205Y-82147099D01*
X87471371Y-82099723D01*
X87516619Y-82094053D01*
X87608020Y-82088937D01*
X87740930Y-82084470D01*
X87910704Y-82080747D01*
X88112697Y-82077862D01*
X88342264Y-82075912D01*
X88594761Y-82074991D01*
X88681938Y-82074930D01*
X89806055Y-82074930D01*
X89806055Y-81899906D01*
X89806056Y-81724882D01*
X89520305Y-81707302D01*
X89128203Y-81674663D01*
X88779950Y-81626775D01*
X88470438Y-81561951D01*
X88194560Y-81478502D01*
X87947209Y-81374742D01*
X87723277Y-81248981D01*
X87517656Y-81099534D01*
X87416546Y-81012146D01*
X87325919Y-80924541D01*
X87234973Y-80828244D01*
X87150919Y-80731911D01*
X87080968Y-80644195D01*
X87032331Y-80573753D01*
X87012220Y-80529239D01*
X87012055Y-80526662D01*
X87032236Y-80493365D01*
X87046654Y-80485258D01*
X87080934Y-80493877D01*
X87143948Y-80528055D01*
X87224842Y-80581518D01*
X87268904Y-80613748D01*
X87522218Y-80783281D01*
X87797580Y-80924379D01*
X88099816Y-81038569D01*
X88433749Y-81127380D01*
X88804205Y-81192340D01*
X89216009Y-81234977D01*
X89234555Y-81236322D01*
X89426311Y-81249280D01*
X89572614Y-81257319D01*
X89678572Y-81260442D01*
X89749296Y-81258654D01*
X89789893Y-81251958D01*
X89805471Y-81240358D01*
X89806055Y-81236730D01*
X89783956Y-81219006D01*
X89730588Y-81211338D01*
X89728614Y-81211330D01*
X89676933Y-81204452D01*
X89640965Y-81175433D01*
X89605980Y-81111698D01*
X89602171Y-81103380D01*
X89571090Y-81013631D01*
X89553823Y-80922571D01*
X89552613Y-80900180D01*
X89552055Y-80804930D01*
X90745855Y-80804930D01*
X90745855Y-81211330D01*
X89983855Y-81211330D01*
X89983855Y-81820930D01*
X90745855Y-81820930D01*
X90745855Y-82201930D01*
X89983855Y-82201930D01*
X89983855Y-82811530D01*
X90745855Y-82811530D01*
X90745855Y-82201930D01*
X90745855Y-81820930D01*
X90745855Y-81211330D01*
X90745855Y-80804930D01*
X90783955Y-80804930D01*
X91071141Y-80805415D01*
X91325601Y-80806836D01*
X91544554Y-80809138D01*
X91660255Y-80811141D01*
X91660255Y-81211330D01*
X90923655Y-81211330D01*
X90923655Y-81820930D01*
X91660255Y-81820930D01*
X91660255Y-82201930D01*
X90923655Y-82201930D01*
X90923655Y-82811530D01*
X91660255Y-82811530D01*
X91660255Y-82201930D01*
X91660255Y-81820930D01*
X91660255Y-81211330D01*
X91660255Y-80811141D01*
X91725218Y-80812266D01*
X91864811Y-80816167D01*
X91960553Y-80820787D01*
X92009659Y-80826071D01*
X92015855Y-80828922D01*
X92005914Y-80861674D01*
X91979421Y-80928135D01*
X91941369Y-81016011D01*
X91926013Y-81050062D01*
X91881065Y-81153301D01*
X91854922Y-81232114D01*
X91843301Y-81307325D01*
X91841920Y-81399759D01*
X91843463Y-81451519D01*
X91850755Y-81655830D01*
X92226075Y-81709416D01*
X92358761Y-81729285D01*
X92473176Y-81748169D01*
X92560059Y-81764401D01*
X92610148Y-81776318D01*
X92618308Y-81779915D01*
X92620621Y-81810411D01*
X92613642Y-81878776D01*
G36*
X92623974Y-89056497D02*
G01*
X92619967Y-89126341D01*
X92611238Y-89222862D01*
X92599238Y-89334384D01*
X92585416Y-89449227D01*
X92571223Y-89555714D01*
X92558106Y-89642167D01*
X92547516Y-89696906D01*
X92542889Y-89709762D01*
X92515531Y-89706811D01*
X92475110Y-89673805D01*
X92433911Y-89624714D01*
X92404217Y-89573508D01*
X92396856Y-89543684D01*
X92394624Y-89523915D01*
X92382949Y-89509923D01*
X92354359Y-89500710D01*
X92301384Y-89495281D01*
X92216554Y-89492641D01*
X92092398Y-89491793D01*
X92007107Y-89491730D01*
X91842436Y-89490532D01*
X91668313Y-89487258D01*
X91503653Y-89482379D01*
X91367366Y-89476371D01*
X91346707Y-89475170D01*
X91076055Y-89458610D01*
X91076055Y-91138467D01*
X91229351Y-91277192D01*
X91382646Y-91415916D01*
X91161953Y-91673840D01*
X91078653Y-91768268D01*
X91005433Y-91845828D01*
X90949181Y-91899616D01*
X90916783Y-91922731D01*
X90913408Y-91922976D01*
X90890341Y-91895399D01*
X90862914Y-91835101D01*
X90849327Y-91795158D01*
X90813099Y-91676130D01*
X90684227Y-91675965D01*
X90579283Y-91673966D01*
X90433493Y-91668555D01*
X90256657Y-91660296D01*
X90058574Y-91649757D01*
X89849043Y-91637503D01*
X89637862Y-91624101D01*
X89434830Y-91610116D01*
X89249746Y-91596115D01*
X89133258Y-91586357D01*
X88765720Y-91549943D01*
X88444755Y-91509488D01*
X88166247Y-91464270D01*
X87926077Y-91413564D01*
X87720129Y-91356647D01*
X87609985Y-91318733D01*
X87433783Y-91226886D01*
X87288409Y-91096929D01*
X87176978Y-90933327D01*
X87102605Y-90740546D01*
X87069822Y-90544397D01*
X87055523Y-90355330D01*
X87154439Y-90355235D01*
X87252014Y-90344523D01*
X87333697Y-90309317D01*
X87403061Y-90244700D01*
X87463677Y-90145755D01*
X87519118Y-90007566D01*
X87572956Y-89825217D01*
X87591015Y-89754369D01*
X87622065Y-89634702D01*
X87646641Y-89556789D01*
X87668210Y-89512563D01*
X87690237Y-89493961D01*
X87703886Y-89491730D01*
X87733206Y-89498293D01*
X87743406Y-89526778D01*
X87738577Y-89590379D01*
X87737358Y-89599680D01*
X87723598Y-89719666D01*
X87709564Y-89870762D01*
X87696368Y-90037458D01*
X87685123Y-90204243D01*
X87676942Y-90355609D01*
X87672937Y-90476045D01*
X87672718Y-90500496D01*
X87674531Y-90599630D01*
X87683507Y-90665065D01*
X87704430Y-90713844D01*
X87742082Y-90763011D01*
X87748425Y-90770286D01*
X87815159Y-90826050D01*
X87914608Y-90877386D01*
X88048595Y-90924565D01*
X88218943Y-90967857D01*
X88427474Y-91007530D01*
X88676009Y-91043854D01*
X88966372Y-91077099D01*
X89300384Y-91107534D01*
X89679868Y-91135429D01*
X90106646Y-91161052D01*
X90536305Y-91182562D01*
X90898255Y-91199241D01*
X90898255Y-89440930D01*
X90824386Y-89440930D01*
X90722863Y-89435451D01*
X90584039Y-89420307D01*
X90420070Y-89397432D01*
X90243112Y-89368761D01*
X90065322Y-89336230D01*
X89898855Y-89301774D01*
X89791081Y-89276421D01*
X89388889Y-89155817D01*
X89022546Y-89003753D01*
X88685304Y-88816446D01*
X88370414Y-88590113D01*
X88071129Y-88320973D01*
X88051644Y-88301493D01*
X87936241Y-88181319D01*
X87819617Y-88052781D01*
X87713052Y-87928771D01*
X87627825Y-87822183D01*
X87604091Y-87789930D01*
X87510910Y-87652707D01*
X87409502Y-87492862D01*
X87307446Y-87323294D01*
X87212320Y-87156905D01*
X87131703Y-87006594D01*
X87074762Y-86888872D01*
X87042138Y-86810264D01*
X87030673Y-86763560D01*
X87038581Y-86735341D01*
X87052472Y-86721207D01*
X87070843Y-86706949D01*
X87087449Y-86702919D01*
X87107655Y-86714840D01*
X87136827Y-86748435D01*
X87180328Y-86809429D01*
X87243525Y-86903545D01*
X87292356Y-86977130D01*
X87576701Y-87367560D01*
X87881497Y-87711861D01*
X88207876Y-88010883D01*
X88556971Y-88265482D01*
X88929916Y-88476509D01*
X89327843Y-88644819D01*
X89635243Y-88741333D01*
X89847658Y-88792734D01*
X90089206Y-88840869D01*
X90338226Y-88881976D01*
X90573051Y-88912294D01*
X90676005Y-88922042D01*
X90898255Y-88939915D01*
X90898255Y-87032899D01*
X90978246Y-87005014D01*
X91035058Y-86986044D01*
X91066228Y-86977211D01*
X91067146Y-86977130D01*
X91069116Y-87001620D01*
X91070935Y-87071457D01*
X91072554Y-87181187D01*
X91073923Y-87325354D01*
X91074994Y-87498506D01*
X91075716Y-87695188D01*
X91076042Y-87909948D01*
X91076056Y-87964605D01*
X91076056Y-88952081D01*
X92625456Y-88989565D01*
X92623974Y-89056497D01*
G37*
X92623974Y-89056497D02*
X92619967Y-89126341D01*
X92611238Y-89222862D01*
X92599238Y-89334384D01*
X92585416Y-89449227D01*
X92571223Y-89555714D01*
X92558106Y-89642167D01*
X92547516Y-89696906D01*
X92542889Y-89709762D01*
X92515531Y-89706811D01*
X92475110Y-89673805D01*
X92433911Y-89624714D01*
X92404217Y-89573508D01*
X92396856Y-89543684D01*
X92394624Y-89523915D01*
X92382949Y-89509923D01*
X92354359Y-89500710D01*
X92301384Y-89495281D01*
X92216554Y-89492641D01*
X92092398Y-89491793D01*
X92007107Y-89491730D01*
X91842436Y-89490532D01*
X91668313Y-89487258D01*
X91503653Y-89482379D01*
X91367366Y-89476371D01*
X91346707Y-89475170D01*
X91076055Y-89458610D01*
X91076055Y-91138467D01*
X91229351Y-91277192D01*
X91382646Y-91415916D01*
X91161953Y-91673840D01*
X91078653Y-91768268D01*
X91005433Y-91845828D01*
X90949181Y-91899616D01*
X90916783Y-91922731D01*
X90913408Y-91922976D01*
X90890341Y-91895399D01*
X90862914Y-91835101D01*
X90849327Y-91795158D01*
X90813099Y-91676130D01*
X90684227Y-91675965D01*
X90579283Y-91673966D01*
X90433493Y-91668555D01*
X90256657Y-91660296D01*
X90058574Y-91649757D01*
X89849043Y-91637503D01*
X89637862Y-91624101D01*
X89434830Y-91610116D01*
X89249746Y-91596115D01*
X89133258Y-91586357D01*
X88765720Y-91549943D01*
X88444755Y-91509488D01*
X88166247Y-91464270D01*
X87926077Y-91413564D01*
X87720129Y-91356647D01*
X87609985Y-91318733D01*
X87433783Y-91226886D01*
X87288409Y-91096929D01*
X87176978Y-90933327D01*
X87102605Y-90740546D01*
X87069822Y-90544397D01*
X87055523Y-90355330D01*
X87154439Y-90355235D01*
X87252014Y-90344523D01*
X87333697Y-90309317D01*
X87403061Y-90244700D01*
X87463677Y-90145755D01*
X87519118Y-90007566D01*
X87572956Y-89825217D01*
X87591015Y-89754369D01*
X87622065Y-89634702D01*
X87646641Y-89556789D01*
X87668210Y-89512563D01*
X87690237Y-89493961D01*
X87703886Y-89491730D01*
X87733206Y-89498293D01*
X87743406Y-89526778D01*
X87738577Y-89590379D01*
X87737358Y-89599680D01*
X87723598Y-89719666D01*
X87709564Y-89870762D01*
X87696368Y-90037458D01*
X87685123Y-90204243D01*
X87676942Y-90355609D01*
X87672937Y-90476045D01*
X87672718Y-90500496D01*
X87674531Y-90599630D01*
X87683507Y-90665065D01*
X87704430Y-90713844D01*
X87742082Y-90763011D01*
X87748425Y-90770286D01*
X87815159Y-90826050D01*
X87914608Y-90877386D01*
X88048595Y-90924565D01*
X88218943Y-90967857D01*
X88427474Y-91007530D01*
X88676009Y-91043854D01*
X88966372Y-91077099D01*
X89300384Y-91107534D01*
X89679868Y-91135429D01*
X90106646Y-91161052D01*
X90536305Y-91182562D01*
X90898255Y-91199241D01*
X90898255Y-89440930D01*
X90824386Y-89440930D01*
X90722863Y-89435451D01*
X90584039Y-89420307D01*
X90420070Y-89397432D01*
X90243112Y-89368761D01*
X90065322Y-89336230D01*
X89898855Y-89301774D01*
X89791081Y-89276421D01*
X89388889Y-89155817D01*
X89022546Y-89003753D01*
X88685304Y-88816446D01*
X88370414Y-88590113D01*
X88071129Y-88320973D01*
X88051644Y-88301493D01*
X87936241Y-88181319D01*
X87819617Y-88052781D01*
X87713052Y-87928771D01*
X87627825Y-87822183D01*
X87604091Y-87789930D01*
X87510910Y-87652707D01*
X87409502Y-87492862D01*
X87307446Y-87323294D01*
X87212320Y-87156905D01*
X87131703Y-87006594D01*
X87074762Y-86888872D01*
X87042138Y-86810264D01*
X87030673Y-86763560D01*
X87038581Y-86735341D01*
X87052472Y-86721207D01*
X87070843Y-86706949D01*
X87087449Y-86702919D01*
X87107655Y-86714840D01*
X87136827Y-86748435D01*
X87180328Y-86809429D01*
X87243525Y-86903545D01*
X87292356Y-86977130D01*
X87576701Y-87367560D01*
X87881497Y-87711861D01*
X88207876Y-88010883D01*
X88556971Y-88265482D01*
X88929916Y-88476509D01*
X89327843Y-88644819D01*
X89635243Y-88741333D01*
X89847658Y-88792734D01*
X90089206Y-88840869D01*
X90338226Y-88881976D01*
X90573051Y-88912294D01*
X90676005Y-88922042D01*
X90898255Y-88939915D01*
X90898255Y-87032899D01*
X90978246Y-87005014D01*
X91035058Y-86986044D01*
X91066228Y-86977211D01*
X91067146Y-86977130D01*
X91069116Y-87001620D01*
X91070935Y-87071457D01*
X91072554Y-87181187D01*
X91073923Y-87325354D01*
X91074994Y-87498506D01*
X91075716Y-87695188D01*
X91076042Y-87909948D01*
X91076056Y-87964605D01*
X91076056Y-88952081D01*
X92625456Y-88989565D01*
X92623974Y-89056497D01*
G36*
X92573702Y-84519680D02*
G01*
X92569473Y-84589865D01*
X92559740Y-84685510D01*
X92546261Y-84794276D01*
X92530795Y-84903826D01*
X92515100Y-85001821D01*
X92500935Y-85075922D01*
X92490059Y-85113793D01*
X92488756Y-85115651D01*
X92461288Y-85113047D01*
X92421787Y-85079508D01*
X92381885Y-85029050D01*
X92353214Y-84975689D01*
X92346055Y-84943713D01*
X92343262Y-84924722D01*
X92329861Y-84911338D01*
X92298320Y-84902587D01*
X92241105Y-84897490D01*
X92150686Y-84895073D01*
X92019529Y-84894358D01*
X91965055Y-84894330D01*
X91584055Y-84894330D01*
X91584056Y-85066041D01*
X91584056Y-85237752D01*
X91761650Y-85373191D01*
X91833828Y-85427308D01*
X91882891Y-85468139D01*
X91907538Y-85503991D01*
X91906467Y-85543173D01*
X91878379Y-85593991D01*
X91821971Y-85664753D01*
X91735944Y-85763767D01*
X91692714Y-85813414D01*
X91618194Y-85896115D01*
X91553501Y-85961944D01*
X91507017Y-86002703D01*
X91489730Y-86011930D01*
X91462800Y-86003828D01*
X91442103Y-85975945D01*
X91426902Y-85922910D01*
X91416458Y-85839355D01*
X91410036Y-85719910D01*
X91406898Y-85559206D01*
X91406255Y-85403999D01*
X91406255Y-84894330D01*
X90542655Y-84894330D01*
X90542829Y-85116580D01*
X90543539Y-85223419D01*
X90547924Y-85291926D01*
X90559667Y-85334568D01*
X90582454Y-85363812D01*
X90619969Y-85392125D01*
X90625379Y-85395874D01*
X90696724Y-85448579D01*
X90778067Y-85513194D01*
X90806051Y-85536570D01*
X90904346Y-85620221D01*
X90698350Y-85865222D01*
X90618151Y-85959586D01*
X90548600Y-86039520D01*
X90496763Y-86097038D01*
X90469701Y-86124152D01*
X90468752Y-86124810D01*
X90434578Y-86120766D01*
X90405003Y-86099249D01*
X90390837Y-86078110D01*
X90380351Y-86042466D01*
X90373030Y-85985442D01*
X90368357Y-85900160D01*
X90365817Y-85779747D01*
X90364894Y-85617325D01*
X90364855Y-85563904D01*
X90364855Y-85068706D01*
X90307705Y-85086332D01*
X90231129Y-85119030D01*
X90126402Y-85176151D01*
X90005120Y-85250481D01*
X89878881Y-85334808D01*
X89759280Y-85421920D01*
X89724464Y-85449078D01*
X89478812Y-85674126D01*
X89259603Y-85935165D01*
X89183963Y-86043680D01*
X89131635Y-86116861D01*
X89086390Y-86169262D01*
X89057884Y-86189723D01*
X89057587Y-86189729D01*
X89021162Y-86172632D01*
X88972366Y-86130913D01*
X88967049Y-86125371D01*
X88904461Y-86079973D01*
X88807434Y-86034410D01*
X88728517Y-86006925D01*
X88550448Y-85952838D01*
X88714702Y-85802275D01*
X88909581Y-85634981D01*
X89108781Y-85488560D01*
X89320496Y-85358728D01*
X89552924Y-85241203D01*
X89814259Y-85131699D01*
X90112698Y-85025934D01*
X90333105Y-84956360D01*
X90362670Y-84930717D01*
X90364855Y-84920527D01*
X90340673Y-84913429D01*
X90267880Y-84907463D01*
X90146107Y-84902622D01*
X89974984Y-84898897D01*
X89754142Y-84896280D01*
X89483211Y-84894762D01*
X89198721Y-84894330D01*
X88032587Y-84894330D01*
X87979521Y-84784710D01*
X87946205Y-84692253D01*
X87927758Y-84595143D01*
X87926455Y-84569148D01*
X87926455Y-84463205D01*
X88780635Y-84456517D01*
X89634815Y-84449830D01*
X89434685Y-84318936D01*
X89314251Y-84234935D01*
X89185449Y-84136360D01*
X89059052Y-84032306D01*
X88945835Y-83931867D01*
X88856573Y-83844136D01*
X88814097Y-83795137D01*
X88759958Y-83724645D01*
X88661755Y-83825836D01*
X88584069Y-83895624D01*
X88498777Y-83957483D01*
X88461916Y-83978879D01*
X88344750Y-84021070D01*
X88234038Y-84030049D01*
X88137496Y-84009750D01*
X88062840Y-83964105D01*
X88017786Y-83897045D01*
X88010050Y-83812504D01*
X88025853Y-83756646D01*
X88050423Y-83712176D01*
X88088046Y-83683758D01*
X88153330Y-83662939D01*
X88207720Y-83651389D01*
X88287104Y-83632326D01*
X88341650Y-83612638D01*
X88358255Y-83599009D01*
X88348541Y-83568619D01*
X88321879Y-83500914D01*
X88281997Y-83404984D01*
X88232619Y-83289917D01*
X88215640Y-83251037D01*
X88140349Y-83088414D01*
X88074557Y-82964896D01*
X88020402Y-82884326D01*
X87999511Y-82862330D01*
X87952405Y-82818517D01*
X87927734Y-82789465D01*
X87926642Y-82786130D01*
X87947978Y-82769849D01*
X88004980Y-82736115D01*
X88088013Y-82690461D01*
X88153348Y-82655990D01*
X88262898Y-82600392D01*
X88335367Y-82570710D01*
X88378502Y-82568964D01*
X88400050Y-82597172D01*
X88407758Y-82657353D01*
X88409098Y-82722630D01*
X88415549Y-82787332D01*
X88428603Y-82828330D01*
X88469060Y-82852057D01*
X88559861Y-82875620D01*
X88700553Y-82898938D01*
X88890679Y-82921935D01*
X89069455Y-82939281D01*
X89198965Y-82951170D01*
X89316890Y-82962611D01*
X89410221Y-82972303D01*
X89465949Y-82978945D01*
X89465952Y-82978946D01*
X89544948Y-82990298D01*
X89496621Y-83262864D01*
X89471419Y-83403905D01*
X89452418Y-83500821D01*
X89436729Y-83559467D01*
X89421462Y-83585698D01*
X89403730Y-83585368D01*
X89380641Y-83564333D01*
X89359694Y-83540363D01*
X89318521Y-83480936D01*
X89298441Y-83428741D01*
X89298055Y-83423164D01*
X89275858Y-83383108D01*
X89207116Y-83343500D01*
X89177405Y-83331516D01*
X89106903Y-83303172D01*
X89003937Y-83259718D01*
X88882296Y-83207054D01*
X88755768Y-83151082D01*
X88754838Y-83150666D01*
X88452921Y-83015529D01*
X88470499Y-83209508D01*
X88480999Y-83314183D01*
X88492156Y-83407834D01*
X88501687Y-83471435D01*
X88502327Y-83474735D01*
X88516577Y-83545985D01*
X88646966Y-83480300D01*
X88733899Y-83433971D01*
X88813265Y-83387505D01*
X88847310Y-83365268D01*
X88896591Y-83334932D01*
X88921502Y-83335909D01*
X88931633Y-83353363D01*
X88929502Y-83397328D01*
X88907282Y-83464180D01*
X88893428Y-83493855D01*
X88861729Y-83560338D01*
X88843009Y-83608004D01*
X88840855Y-83618264D01*
X88862248Y-83643365D01*
X88920540Y-83685515D01*
X89006907Y-83739632D01*
X89112523Y-83800636D01*
X89228562Y-83863443D01*
X89346198Y-83922972D01*
X89456607Y-83974141D01*
X89465946Y-83978188D01*
X89606960Y-84035471D01*
X89765014Y-84094140D01*
X89926448Y-84149621D01*
X90077601Y-84197342D01*
X90204811Y-84232729D01*
X90269605Y-84247216D01*
X90364856Y-84264983D01*
X90364855Y-83858719D01*
X90365086Y-83706826D01*
X90366465Y-83598119D01*
X90370026Y-83524984D01*
X90376799Y-83479807D01*
X90387819Y-83454973D01*
X90404115Y-83442869D01*
X90422005Y-83437139D01*
X90462026Y-83426837D01*
X90492052Y-83424318D01*
X90513517Y-83435584D01*
X90527857Y-83466638D01*
X90536506Y-83523481D01*
X90540899Y-83612116D01*
X90542472Y-83738546D01*
X90542658Y-83908771D01*
X90542655Y-83941830D01*
X90542655Y-84462530D01*
X91406255Y-84462530D01*
X91406255Y-83553099D01*
X91486246Y-83525214D01*
X91543058Y-83506244D01*
X91574228Y-83497411D01*
X91575146Y-83497330D01*
X91577920Y-83521429D01*
X91580342Y-83588527D01*
X91582268Y-83690821D01*
X91583553Y-83820512D01*
X91584054Y-83969796D01*
X91584055Y-83979930D01*
X91584055Y-84462530D01*
X92574655Y-84462530D01*
X92573702Y-84519680D01*
G37*
X92573702Y-84519680D02*
X92569473Y-84589865D01*
X92559740Y-84685510D01*
X92546261Y-84794276D01*
X92530795Y-84903826D01*
X92515100Y-85001821D01*
X92500935Y-85075922D01*
X92490059Y-85113793D01*
X92488756Y-85115651D01*
X92461288Y-85113047D01*
X92421787Y-85079508D01*
X92381885Y-85029050D01*
X92353214Y-84975689D01*
X92346055Y-84943713D01*
X92343262Y-84924722D01*
X92329861Y-84911338D01*
X92298320Y-84902587D01*
X92241105Y-84897490D01*
X92150686Y-84895073D01*
X92019529Y-84894358D01*
X91965055Y-84894330D01*
X91584055Y-84894330D01*
X91584056Y-85066041D01*
X91584056Y-85237752D01*
X91761650Y-85373191D01*
X91833828Y-85427308D01*
X91882891Y-85468139D01*
X91907538Y-85503991D01*
X91906467Y-85543173D01*
X91878379Y-85593991D01*
X91821971Y-85664753D01*
X91735944Y-85763767D01*
X91692714Y-85813414D01*
X91618194Y-85896115D01*
X91553501Y-85961944D01*
X91507017Y-86002703D01*
X91489730Y-86011930D01*
X91462800Y-86003828D01*
X91442103Y-85975945D01*
X91426902Y-85922910D01*
X91416458Y-85839355D01*
X91410036Y-85719910D01*
X91406898Y-85559206D01*
X91406255Y-85403999D01*
X91406255Y-84894330D01*
X90542655Y-84894330D01*
X90542829Y-85116580D01*
X90543539Y-85223419D01*
X90547924Y-85291926D01*
X90559667Y-85334568D01*
X90582454Y-85363812D01*
X90619969Y-85392125D01*
X90625379Y-85395874D01*
X90696724Y-85448579D01*
X90778067Y-85513194D01*
X90806051Y-85536570D01*
X90904346Y-85620221D01*
X90698350Y-85865222D01*
X90618151Y-85959586D01*
X90548600Y-86039520D01*
X90496763Y-86097038D01*
X90469701Y-86124152D01*
X90468752Y-86124810D01*
X90434578Y-86120766D01*
X90405003Y-86099249D01*
X90390837Y-86078110D01*
X90380351Y-86042466D01*
X90373030Y-85985442D01*
X90368357Y-85900160D01*
X90365817Y-85779747D01*
X90364894Y-85617325D01*
X90364855Y-85563904D01*
X90364855Y-85068706D01*
X90307705Y-85086332D01*
X90231129Y-85119030D01*
X90126402Y-85176151D01*
X90005120Y-85250481D01*
X89878881Y-85334808D01*
X89759280Y-85421920D01*
X89724464Y-85449078D01*
X89478812Y-85674126D01*
X89259603Y-85935165D01*
X89183963Y-86043680D01*
X89131635Y-86116861D01*
X89086390Y-86169262D01*
X89057884Y-86189723D01*
X89057587Y-86189729D01*
X89021162Y-86172632D01*
X88972366Y-86130913D01*
X88967049Y-86125371D01*
X88904461Y-86079973D01*
X88807434Y-86034410D01*
X88728517Y-86006925D01*
X88550448Y-85952838D01*
X88714702Y-85802275D01*
X88909581Y-85634981D01*
X89108781Y-85488560D01*
X89320496Y-85358728D01*
X89552924Y-85241203D01*
X89814259Y-85131699D01*
X90112698Y-85025934D01*
X90333105Y-84956360D01*
X90362670Y-84930717D01*
X90364855Y-84920527D01*
X90340673Y-84913429D01*
X90267880Y-84907463D01*
X90146107Y-84902622D01*
X89974984Y-84898897D01*
X89754142Y-84896280D01*
X89483211Y-84894762D01*
X89198721Y-84894330D01*
X88032587Y-84894330D01*
X87979521Y-84784710D01*
X87946205Y-84692253D01*
X87927758Y-84595143D01*
X87926455Y-84569148D01*
X87926455Y-84463205D01*
X88780635Y-84456517D01*
X89634815Y-84449830D01*
X89434685Y-84318936D01*
X89314251Y-84234935D01*
X89185449Y-84136360D01*
X89059052Y-84032306D01*
X88945835Y-83931867D01*
X88856573Y-83844136D01*
X88814097Y-83795137D01*
X88759958Y-83724645D01*
X88661755Y-83825836D01*
X88584069Y-83895624D01*
X88498777Y-83957483D01*
X88461916Y-83978879D01*
X88344750Y-84021070D01*
X88234038Y-84030049D01*
X88137496Y-84009750D01*
X88062840Y-83964105D01*
X88017786Y-83897045D01*
X88010050Y-83812504D01*
X88025853Y-83756646D01*
X88050423Y-83712176D01*
X88088046Y-83683758D01*
X88153330Y-83662939D01*
X88207720Y-83651389D01*
X88287104Y-83632326D01*
X88341650Y-83612638D01*
X88358255Y-83599009D01*
X88348541Y-83568619D01*
X88321879Y-83500914D01*
X88281997Y-83404984D01*
X88232619Y-83289917D01*
X88215640Y-83251037D01*
X88140349Y-83088414D01*
X88074557Y-82964896D01*
X88020402Y-82884326D01*
X87999511Y-82862330D01*
X87952405Y-82818517D01*
X87927734Y-82789465D01*
X87926642Y-82786130D01*
X87947978Y-82769849D01*
X88004980Y-82736115D01*
X88088013Y-82690461D01*
X88153348Y-82655990D01*
X88262898Y-82600392D01*
X88335367Y-82570710D01*
X88378502Y-82568964D01*
X88400050Y-82597172D01*
X88407758Y-82657353D01*
X88409098Y-82722630D01*
X88415549Y-82787332D01*
X88428603Y-82828330D01*
X88469060Y-82852057D01*
X88559861Y-82875620D01*
X88700553Y-82898938D01*
X88890679Y-82921935D01*
X89069455Y-82939281D01*
X89198965Y-82951170D01*
X89316890Y-82962611D01*
X89410221Y-82972303D01*
X89465949Y-82978945D01*
X89465952Y-82978946D01*
X89544948Y-82990298D01*
X89496621Y-83262864D01*
X89471419Y-83403905D01*
X89452418Y-83500821D01*
X89436729Y-83559467D01*
X89421462Y-83585698D01*
X89403730Y-83585368D01*
X89380641Y-83564333D01*
X89359694Y-83540363D01*
X89318521Y-83480936D01*
X89298441Y-83428741D01*
X89298055Y-83423164D01*
X89275858Y-83383108D01*
X89207116Y-83343500D01*
X89177405Y-83331516D01*
X89106903Y-83303172D01*
X89003937Y-83259718D01*
X88882296Y-83207054D01*
X88755768Y-83151082D01*
X88754838Y-83150666D01*
X88452921Y-83015529D01*
X88470499Y-83209508D01*
X88480999Y-83314183D01*
X88492156Y-83407834D01*
X88501687Y-83471435D01*
X88502327Y-83474735D01*
X88516577Y-83545985D01*
X88646966Y-83480300D01*
X88733899Y-83433971D01*
X88813265Y-83387505D01*
X88847310Y-83365268D01*
X88896591Y-83334932D01*
X88921502Y-83335909D01*
X88931633Y-83353363D01*
X88929502Y-83397328D01*
X88907282Y-83464180D01*
X88893428Y-83493855D01*
X88861729Y-83560338D01*
X88843009Y-83608004D01*
X88840855Y-83618264D01*
X88862248Y-83643365D01*
X88920540Y-83685515D01*
X89006907Y-83739632D01*
X89112523Y-83800636D01*
X89228562Y-83863443D01*
X89346198Y-83922972D01*
X89456607Y-83974141D01*
X89465946Y-83978188D01*
X89606960Y-84035471D01*
X89765014Y-84094140D01*
X89926448Y-84149621D01*
X90077601Y-84197342D01*
X90204811Y-84232729D01*
X90269605Y-84247216D01*
X90364856Y-84264983D01*
X90364855Y-83858719D01*
X90365086Y-83706826D01*
X90366465Y-83598119D01*
X90370026Y-83524984D01*
X90376799Y-83479807D01*
X90387819Y-83454973D01*
X90404115Y-83442869D01*
X90422005Y-83437139D01*
X90462026Y-83426837D01*
X90492052Y-83424318D01*
X90513517Y-83435584D01*
X90527857Y-83466638D01*
X90536506Y-83523481D01*
X90540899Y-83612116D01*
X90542472Y-83738546D01*
X90542658Y-83908771D01*
X90542655Y-83941830D01*
X90542655Y-84462530D01*
X91406255Y-84462530D01*
X91406255Y-83553099D01*
X91486246Y-83525214D01*
X91543058Y-83506244D01*
X91574228Y-83497411D01*
X91575146Y-83497330D01*
X91577920Y-83521429D01*
X91580342Y-83588527D01*
X91582268Y-83690821D01*
X91583553Y-83820512D01*
X91584054Y-83969796D01*
X91584055Y-83979930D01*
X91584055Y-84462530D01*
X92574655Y-84462530D01*
X92573702Y-84519680D01*
D15*
%TO.C,PWM_PAD2*%
X110710255Y-60129330D02*
X111218255Y-60129330D01*
X111218255Y-60129330D02*
X111218255Y-60637330D01*
X110710255Y-60637330D02*
X111218255Y-60637330D01*
X110710255Y-60129330D02*
X110710255Y-60637330D01*
X110710255Y-62669330D02*
X111218255Y-62669330D01*
X111218255Y-62669330D02*
X111218255Y-63177330D01*
X110710255Y-63177330D02*
X111218255Y-63177330D01*
X110710255Y-62669330D02*
X110710255Y-63177330D01*
X110710255Y-65209330D02*
X111218255Y-65209330D01*
X111218255Y-65209330D02*
X111218255Y-65717330D01*
X110710255Y-65717330D02*
X111218255Y-65717330D01*
X110710255Y-65209330D02*
X110710255Y-65717330D01*
D13*
%TO.C,RST1*%
X87522255Y-67061330D02*
X87032255Y-66571330D01*
X87522255Y-69961330D02*
X87522255Y-67061330D01*
X87522255Y-69961330D02*
X87032255Y-70451330D01*
X82082255Y-69961330D02*
X82082255Y-67061330D01*
X82082255Y-69961330D02*
X82572255Y-70451330D01*
X85842255Y-65791330D02*
X83762255Y-65791330D01*
X82082255Y-67061330D02*
X82572255Y-66571330D01*
X85842255Y-71231330D02*
X83762255Y-71231330D01*
D16*
%TO.C,PWM_PAD1*%
X110329255Y-66733330D02*
X111599255Y-66733330D01*
X110329255Y-59113330D02*
X111599255Y-59113330D01*
D11*
%TO.C,J1*%
X87475255Y-46953330D02*
X81875255Y-46953330D01*
X81875255Y-48953330D02*
X81875255Y-46953330D01*
X87475255Y-48953330D02*
X87475255Y-46953330D01*
X81625255Y-48953330D02*
X81625255Y-61053330D01*
X87725255Y-48953330D02*
X87725255Y-61053330D01*
X87725255Y-61053330D02*
X81625255Y-61053330D01*
X87725255Y-48953330D02*
X81625255Y-48953330D01*
%TO.C,D8*%
X188189675Y-80927722D02*
X186665675Y-80927722D01*
X188189675Y-80800722D02*
X186665675Y-80800722D01*
X186665675Y-80673722D02*
X188189675Y-80673722D01*
X188189675Y-80292722D02*
X186665675Y-80292722D01*
X186665675Y-80419722D02*
X188189675Y-80419722D01*
X188189675Y-80546722D02*
X186665675Y-80546722D01*
X188189675Y-85245722D02*
X188189675Y-84737722D01*
X186665675Y-85245722D02*
X188189675Y-85245722D01*
X186665675Y-80165722D02*
X186665675Y-85245722D01*
X188189675Y-80165722D02*
X186665675Y-80165722D01*
X188189675Y-85245722D02*
X188189675Y-80165722D01*
%TO.C,D28*%
X111961500Y-98452970D02*
X110437500Y-98452970D01*
X111961500Y-98325970D02*
X110437500Y-98325970D01*
X110437500Y-98198970D02*
X111961500Y-98198970D01*
X111961500Y-97817970D02*
X110437500Y-97817970D01*
X110437500Y-97944970D02*
X111961500Y-97944970D01*
X111961500Y-98071970D02*
X110437500Y-98071970D01*
X111961500Y-102770970D02*
X111961500Y-102262970D01*
X110437500Y-102770970D02*
X111961500Y-102770970D01*
X110437500Y-97690970D02*
X110437500Y-102770970D01*
X111961500Y-97690970D02*
X110437500Y-97690970D01*
X111961500Y-102770970D02*
X111961500Y-97690970D01*
%TO.C,D27*%
X111869333Y-79599191D02*
X110345333Y-79599191D01*
X111869333Y-79472191D02*
X110345333Y-79472191D01*
X110345333Y-79345191D02*
X111869333Y-79345191D01*
X111869333Y-78964191D02*
X110345333Y-78964191D01*
X110345333Y-79091191D02*
X111869333Y-79091191D01*
X111869333Y-79218191D02*
X110345333Y-79218191D01*
X111869333Y-83917191D02*
X111869333Y-83409191D01*
X110345333Y-83917191D02*
X111869333Y-83917191D01*
X110345333Y-78837191D02*
X110345333Y-83917191D01*
X111869333Y-78837191D02*
X110345333Y-78837191D01*
X111869333Y-83917191D02*
X111869333Y-78837191D01*
%TO.C,D26*%
X119447855Y-65260130D02*
X119447855Y-66784130D01*
X119320855Y-65260130D02*
X119320855Y-66784130D01*
X119193855Y-66784130D02*
X119193855Y-65260130D01*
X118812855Y-65260130D02*
X118812855Y-66784130D01*
X118939855Y-66784130D02*
X118939855Y-65260130D01*
X119066855Y-65260130D02*
X119066855Y-66784130D01*
X123765855Y-65260130D02*
X123257855Y-65260130D01*
X123765855Y-66784130D02*
X123765855Y-65260130D01*
X118685855Y-66784130D02*
X123765855Y-66784130D01*
X118685855Y-65260130D02*
X118685855Y-66784130D01*
X123765855Y-65260130D02*
X118685855Y-65260130D01*
%TO.C,D24*%
X130973863Y-97044492D02*
X129449863Y-97044492D01*
X130973863Y-96917492D02*
X129449863Y-96917492D01*
X129449863Y-96790492D02*
X130973863Y-96790492D01*
X130973863Y-96409492D02*
X129449863Y-96409492D01*
X129449863Y-96536492D02*
X130973863Y-96536492D01*
X130973863Y-96663492D02*
X129449863Y-96663492D01*
X130973863Y-101362492D02*
X130973863Y-100854492D01*
X129449863Y-101362492D02*
X130973863Y-101362492D01*
X129449863Y-96282492D02*
X129449863Y-101362492D01*
X130973863Y-96282492D02*
X129449863Y-96282492D01*
X130973863Y-101362492D02*
X130973863Y-96282492D01*
%TO.C,D23*%
X131135603Y-77967570D02*
X129611603Y-77967570D01*
X131135603Y-77840570D02*
X129611603Y-77840570D01*
X129611603Y-77713570D02*
X131135603Y-77713570D01*
X131135603Y-77332570D02*
X129611603Y-77332570D01*
X129611603Y-77459570D02*
X131135603Y-77459570D01*
X131135603Y-77586570D02*
X129611603Y-77586570D01*
X131135603Y-82285570D02*
X131135603Y-81777570D01*
X129611603Y-82285570D02*
X131135603Y-82285570D01*
X129611603Y-77205570D02*
X129611603Y-82285570D01*
X131135603Y-77205570D02*
X129611603Y-77205570D01*
X131135603Y-82285570D02*
X131135603Y-77205570D01*
%TO.C,D22*%
X130983646Y-58612485D02*
X129459646Y-58612485D01*
X130983646Y-58485485D02*
X129459646Y-58485485D01*
X129459646Y-58358485D02*
X130983646Y-58358485D01*
X130983646Y-57977485D02*
X129459646Y-57977485D01*
X129459646Y-58104485D02*
X130983646Y-58104485D01*
X130983646Y-58231485D02*
X129459646Y-58231485D01*
X130983646Y-62930485D02*
X130983646Y-62422485D01*
X129459646Y-62930485D02*
X130983646Y-62930485D01*
X129459646Y-57850485D02*
X129459646Y-62930485D01*
X130983646Y-57850485D02*
X129459646Y-57850485D01*
X130983646Y-62930485D02*
X130983646Y-57850485D01*
%TO.C,D20*%
X79421100Y-137148117D02*
X78212029Y-138075869D01*
X79111849Y-136745093D02*
X77902778Y-137672846D01*
X79498412Y-137248873D02*
X78289342Y-138176625D01*
X77825466Y-137572090D02*
X80917974Y-141602325D01*
X79034536Y-136644337D02*
X77825466Y-137572090D01*
X78134717Y-137975113D02*
X79343787Y-137047361D01*
X77980091Y-137773601D02*
X79189162Y-136845849D01*
X82127044Y-140674572D02*
X81817793Y-140271549D01*
X82127044Y-140674572D02*
X79034536Y-136644337D01*
X80917974Y-141602325D02*
X82127044Y-140674572D01*
X79266474Y-136946605D02*
X78057404Y-137874357D01*
%TO.C,D19*%
X150158657Y-91172318D02*
X148634657Y-91172318D01*
X150158657Y-91045318D02*
X148634657Y-91045318D01*
X148634657Y-90918318D02*
X150158657Y-90918318D01*
X150158657Y-90537318D02*
X148634657Y-90537318D01*
X148634657Y-90664318D02*
X150158657Y-90664318D01*
X150158657Y-90791318D02*
X148634657Y-90791318D01*
X150158657Y-95490318D02*
X150158657Y-94982318D01*
X148634657Y-95490318D02*
X150158657Y-95490318D01*
X148634657Y-90410318D02*
X148634657Y-95490318D01*
X150158657Y-90410318D02*
X148634657Y-90410318D01*
X150158657Y-95490318D02*
X150158657Y-90410318D01*
%TO.C,D18*%
X149953255Y-72067330D02*
X148429255Y-72067330D01*
X149953255Y-71940330D02*
X148429255Y-71940330D01*
X148429255Y-71813330D02*
X149953255Y-71813330D01*
X149953255Y-71432330D02*
X148429255Y-71432330D01*
X148429255Y-71559330D02*
X149953255Y-71559330D01*
X149953255Y-71686330D02*
X148429255Y-71686330D01*
X149953255Y-76385330D02*
X149953255Y-75877330D01*
X148429255Y-76385330D02*
X149953255Y-76385330D01*
X148429255Y-71305330D02*
X148429255Y-76385330D01*
X149953255Y-71305330D02*
X148429255Y-71305330D01*
X149953255Y-76385330D02*
X149953255Y-71305330D01*
%TO.C,D17*%
X149953254Y-55430330D02*
X148429254Y-55430330D01*
X149953254Y-55303330D02*
X148429254Y-55303330D01*
X148429254Y-55176330D02*
X149953254Y-55176330D01*
X149953254Y-54795330D02*
X148429254Y-54795330D01*
X148429254Y-54922330D02*
X149953254Y-54922330D01*
X149953254Y-55049330D02*
X148429254Y-55049330D01*
X149953254Y-59748330D02*
X149953254Y-59240330D01*
X148429254Y-59748330D02*
X149953254Y-59748330D01*
X148429254Y-54668330D02*
X148429254Y-59748330D01*
X149953254Y-54668330D02*
X148429254Y-54668330D01*
X149953254Y-59748330D02*
X149953254Y-54668330D01*
%TO.C,D15*%
X95355773Y-125898779D02*
X93974560Y-126542849D01*
X95141083Y-125438374D02*
X93759870Y-126082444D01*
X95409445Y-126013880D02*
X94028232Y-126657950D01*
X93706197Y-125967343D02*
X95853098Y-130571387D01*
X95087410Y-125323273D02*
X93706197Y-125967343D01*
X93920887Y-126427748D02*
X95302100Y-125783677D01*
X93813542Y-126197546D02*
X95194755Y-125553475D01*
X97234311Y-129927317D02*
X97019621Y-129466912D01*
X97234311Y-129927317D02*
X95087410Y-125323273D01*
X95853098Y-130571387D02*
X97234311Y-129927317D01*
X95248428Y-125668576D02*
X93867215Y-126312647D01*
%TO.C,D14*%
X169082664Y-94638290D02*
X167558664Y-94638290D01*
X169082664Y-94511290D02*
X167558664Y-94511290D01*
X167558664Y-94384290D02*
X169082664Y-94384290D01*
X169082664Y-94003290D02*
X167558664Y-94003290D01*
X167558664Y-94130290D02*
X169082664Y-94130290D01*
X169082664Y-94257290D02*
X167558664Y-94257290D01*
X169082664Y-98956290D02*
X169082664Y-98448290D01*
X167558664Y-98956290D02*
X169082664Y-98956290D01*
X167558664Y-93876290D02*
X167558664Y-98956290D01*
X169082664Y-93876290D02*
X167558664Y-93876290D01*
X169082664Y-98956290D02*
X169082664Y-93876290D01*
%TO.C,D13*%
X169111819Y-75331728D02*
X167587819Y-75331728D01*
X169111819Y-75204728D02*
X167587819Y-75204728D01*
X167587819Y-75077728D02*
X169111819Y-75077728D01*
X169111819Y-74696728D02*
X167587819Y-74696728D01*
X167587819Y-74823728D02*
X169111819Y-74823728D01*
X169111819Y-74950728D02*
X167587819Y-74950728D01*
X169111819Y-79649728D02*
X169111819Y-79141728D01*
X167587819Y-79649728D02*
X169111819Y-79649728D01*
X167587819Y-74569728D02*
X167587819Y-79649728D01*
X169111819Y-74569728D02*
X167587819Y-74569728D01*
X169111819Y-79649728D02*
X169111819Y-74569728D01*
%TO.C,D12*%
X169111818Y-55989130D02*
X167587818Y-55989130D01*
X169111818Y-55862130D02*
X167587818Y-55862130D01*
X167587818Y-55735130D02*
X169111818Y-55735130D01*
X169111818Y-55354130D02*
X167587818Y-55354130D01*
X167587818Y-55481130D02*
X169111818Y-55481130D01*
X169111818Y-55608130D02*
X167587818Y-55608130D01*
X169111818Y-60307130D02*
X169111818Y-59799130D01*
X167587818Y-60307130D02*
X169111818Y-60307130D01*
X167587818Y-55227130D02*
X167587818Y-60307130D01*
X169111818Y-55227130D02*
X167587818Y-55227130D01*
X169111818Y-60307130D02*
X169111818Y-55227130D01*
%TO.C,D10*%
X114343874Y-117159558D02*
X112855999Y-117489412D01*
X114233923Y-116663600D02*
X112746048Y-116993454D01*
X114371362Y-117283548D02*
X112883487Y-117613402D01*
X112718560Y-116869464D02*
X113818073Y-121829048D01*
X114206435Y-116539610D02*
X112718560Y-116869464D01*
X112828511Y-117365422D02*
X114316386Y-117035569D01*
X112773535Y-117117443D02*
X114261411Y-116787589D01*
X115305948Y-121499194D02*
X115195997Y-121003236D01*
X115305948Y-121499194D02*
X114206435Y-116539610D01*
X113818073Y-121829048D02*
X115305948Y-121499194D01*
X114288898Y-116911579D02*
X112801023Y-117241433D01*
%TO.C,D9*%
X188189675Y-99962622D02*
X186665675Y-99962622D01*
X188189675Y-99835622D02*
X186665675Y-99835622D01*
X186665675Y-99708622D02*
X188189675Y-99708622D01*
X188189675Y-99327622D02*
X186665675Y-99327622D01*
X186665675Y-99454622D02*
X188189675Y-99454622D01*
X188189675Y-99581622D02*
X186665675Y-99581622D01*
X188189675Y-104280622D02*
X188189675Y-103772622D01*
X186665675Y-104280622D02*
X188189675Y-104280622D01*
X186665675Y-99200622D02*
X186665675Y-104280622D01*
X188189675Y-99200622D02*
X186665675Y-99200622D01*
X188189675Y-104280622D02*
X188189675Y-99200622D01*
%TO.C,D7*%
X188189675Y-64623302D02*
X186665675Y-64623302D01*
X188189675Y-64496302D02*
X186665675Y-64496302D01*
X186665675Y-64369302D02*
X188189675Y-64369302D01*
X188189675Y-63988302D02*
X186665675Y-63988302D01*
X186665675Y-64115302D02*
X188189675Y-64115302D01*
X188189675Y-64242302D02*
X186665675Y-64242302D01*
X188189675Y-68941302D02*
X188189675Y-68433302D01*
X186665675Y-68941302D02*
X188189675Y-68941302D01*
X186665675Y-63861302D02*
X186665675Y-68941302D01*
X188189675Y-63861302D02*
X186665675Y-63861302D01*
X188189675Y-68941302D02*
X188189675Y-63861302D01*
%TD*%
D17*
%TO.C,SW13*%
X183433305Y-77329232D02*
G75*
G03*
X183433305Y-77329232I-450000J0D01*
G01*
X172993305Y-77329232D02*
G75*
G03*
X172993305Y-77329232I-450000J0D01*
G01*
%TD*%
%TO.C,SW8*%
X202511035Y-86905722D02*
G75*
G03*
X202511035Y-86905722I-450000J0D01*
G01*
X192071035Y-86905722D02*
G75*
G03*
X192071035Y-86905722I-450000J0D01*
G01*
%TD*%
%TO.C,SW7*%
X202467387Y-67870820D02*
G75*
G03*
X202467387Y-67870820I-450000J0D01*
G01*
X192027387Y-67870820D02*
G75*
G03*
X192027387Y-67870820I-450000J0D01*
G01*
%TD*%
%TO.C,SW12*%
X183480215Y-58318605D02*
G75*
G03*
X183480215Y-58318605I-450000J0D01*
G01*
X173040215Y-58318605D02*
G75*
G03*
X173040215Y-58318605I-450000J0D01*
G01*
%TD*%
%TO.C,SW22*%
X145402181Y-60247769D02*
G75*
G03*
X145402181Y-60247769I-450000J0D01*
G01*
X134962181Y-60247769D02*
G75*
G03*
X134962181Y-60247769I-450000J0D01*
G01*
%TD*%
%TO.C,SW26*%
X126268486Y-62109020D02*
G75*
G03*
X126268486Y-62109020I-450000J0D01*
G01*
X115828486Y-62109020D02*
G75*
G03*
X115828486Y-62109020I-450000J0D01*
G01*
%TD*%
%TO.C,SW28*%
X126331509Y-100269365D02*
G75*
G03*
X126331509Y-100269365I-450000J0D01*
G01*
X115891509Y-100269365D02*
G75*
G03*
X115891509Y-100269365I-450000J0D01*
G01*
%TD*%
%TO.C,SW27*%
X126312130Y-81143915D02*
G75*
G03*
X126312130Y-81143915I-450000J0D01*
G01*
X115872130Y-81143915D02*
G75*
G03*
X115872130Y-81143915I-450000J0D01*
G01*
%TD*%
%TO.C,SW24*%
X145398913Y-98293290D02*
G75*
G03*
X145398913Y-98293290I-450000J0D01*
G01*
X134958913Y-98293290D02*
G75*
G03*
X134958913Y-98293290I-450000J0D01*
G01*
%TD*%
%TO.C,SW23*%
X145355269Y-79258394D02*
G75*
G03*
X145355269Y-79258394I-450000J0D01*
G01*
X134915269Y-79258394D02*
G75*
G03*
X134915269Y-79258394I-450000J0D01*
G01*
%TD*%
%TO.C,SW20*%
X93426811Y-133986528D02*
G75*
G03*
X93426811Y-133986528I-450000J0D01*
G01*
X85144203Y-140341998D02*
G75*
G03*
X85144203Y-140341998I-450000J0D01*
G01*
%TD*%
%TO.C,SW19*%
X164392246Y-92609196D02*
G75*
G03*
X164392246Y-92609196I-450000J0D01*
G01*
X153952246Y-92609196D02*
G75*
G03*
X153952246Y-92609196I-450000J0D01*
G01*
%TD*%
%TO.C,SW18*%
X164439162Y-73598567D02*
G75*
G03*
X164439162Y-73598567I-450000J0D01*
G01*
X153999162Y-73598567D02*
G75*
G03*
X153999162Y-73598567I-450000J0D01*
G01*
%TD*%
%TO.C,SW17*%
X164419779Y-54473116D02*
G75*
G03*
X164419779Y-54473116I-450000J0D01*
G01*
X153979779Y-54473116D02*
G75*
G03*
X153979779Y-54473116I-450000J0D01*
G01*
%TD*%
%TO.C,SW15*%
X110718018Y-124879285D02*
G75*
G03*
X110718018Y-124879285I-450000J0D01*
G01*
X101256165Y-129291420D02*
G75*
G03*
X101256165Y-129291420I-450000J0D01*
G01*
%TD*%
%TO.C,SW14*%
X183452678Y-96454677D02*
G75*
G03*
X183452678Y-96454677I-450000J0D01*
G01*
X173012678Y-96454677D02*
G75*
G03*
X173012678Y-96454677I-450000J0D01*
G01*
%TD*%
%TO.C,SW10*%
X129568196Y-119593549D02*
G75*
G03*
X129568196Y-119593549I-450000J0D01*
G01*
X119375665Y-121853179D02*
G75*
G03*
X119375665Y-121853179I-450000J0D01*
G01*
%TD*%
%TO.C,SW9*%
X202554677Y-105940622D02*
G75*
G03*
X202554677Y-105940622I-450000J0D01*
G01*
X192114677Y-105940622D02*
G75*
G03*
X192114677Y-105940622I-450000J0D01*
G01*
%TD*%
%TO.C,J3*%
X95737754Y-85148330D02*
G75*
G03*
X95737754Y-85148330I-648500J0D01*
G01*
X98277754Y-85148330D02*
G75*
G03*
X98277754Y-85148330I-648500J0D01*
G01*
X100817754Y-85148330D02*
G75*
G03*
X100817754Y-85148330I-648500J0D01*
G01*
X103357754Y-85148330D02*
G75*
G03*
X103357754Y-85148330I-648500J0D01*
G01*
%TD*%
%TO.C,H6*%
D11*
X85843749Y-116385910D02*
X85843749Y-115385910D01*
X85843749Y-115862101D02*
X86415177Y-115862101D01*
X86415177Y-116385910D02*
X86415177Y-115385910D01*
X87319939Y-115385910D02*
X87129463Y-115385910D01*
X87034225Y-115433530D01*
X86986606Y-115481149D01*
X86891368Y-115624006D01*
X86843749Y-115814482D01*
X86843749Y-116195434D01*
X86891368Y-116290672D01*
X86938987Y-116338291D01*
X87034225Y-116385910D01*
X87224701Y-116385910D01*
X87319939Y-116338291D01*
X87367558Y-116290672D01*
X87415177Y-116195434D01*
X87415177Y-115957339D01*
X87367558Y-115862101D01*
X87319939Y-115814482D01*
X87224701Y-115766863D01*
X87034225Y-115766863D01*
X86938987Y-115814482D01*
X86891368Y-115862101D01*
X86843749Y-115957339D01*
%TO.C,H5*%
X138923364Y-62715710D02*
X138923364Y-61715710D01*
X138923364Y-62191901D02*
X139494792Y-62191901D01*
X139494792Y-62715710D02*
X139494792Y-61715710D01*
X140447173Y-61715710D02*
X139970983Y-61715710D01*
X139923364Y-62191901D01*
X139970983Y-62144282D01*
X140066221Y-62096663D01*
X140304316Y-62096663D01*
X140399554Y-62144282D01*
X140447173Y-62191901D01*
X140494792Y-62287139D01*
X140494792Y-62525234D01*
X140447173Y-62620472D01*
X140399554Y-62668091D01*
X140304316Y-62715710D01*
X140066221Y-62715710D01*
X139970983Y-62668091D01*
X139923364Y-62620472D01*
%TO.C,H4*%
X100753549Y-56035510D02*
X100753549Y-55035510D01*
X100753549Y-55511701D02*
X101324977Y-55511701D01*
X101324977Y-56035510D02*
X101324977Y-55035510D01*
X102229739Y-55368844D02*
X102229739Y-56035510D01*
X101991644Y-54987891D02*
X101753549Y-55702177D01*
X102372596Y-55702177D01*
%TO.C,H3*%
X138923364Y-103584310D02*
X138923364Y-102584310D01*
X138923364Y-103060501D02*
X139494792Y-103060501D01*
X139494792Y-103584310D02*
X139494792Y-102584310D01*
X139875745Y-102584310D02*
X140494792Y-102584310D01*
X140161459Y-102965263D01*
X140304316Y-102965263D01*
X140399554Y-103012882D01*
X140447173Y-103060501D01*
X140494792Y-103155739D01*
X140494792Y-103393834D01*
X140447173Y-103489072D01*
X140399554Y-103536691D01*
X140304316Y-103584310D01*
X140018602Y-103584310D01*
X139923364Y-103536691D01*
X139875745Y-103489072D01*
%TO.C,H2*%
X177020773Y-60734510D02*
X177020773Y-59734510D01*
X177020773Y-60210701D02*
X177592201Y-60210701D01*
X177592201Y-60734510D02*
X177592201Y-59734510D01*
X178020773Y-59829749D02*
X178068392Y-59782130D01*
X178163630Y-59734510D01*
X178401725Y-59734510D01*
X178496963Y-59782130D01*
X178544582Y-59829749D01*
X178592201Y-59924987D01*
X178592201Y-60020225D01*
X178544582Y-60163082D01*
X177973154Y-60734510D01*
X178592201Y-60734510D01*
%TO.C,H1*%
X177020773Y-103584309D02*
X177020773Y-102584309D01*
X177020773Y-103060500D02*
X177592201Y-103060500D01*
X177592201Y-103584309D02*
X177592201Y-102584309D01*
X178592201Y-103584309D02*
X178020773Y-103584309D01*
X178306487Y-103584309D02*
X178306487Y-102584309D01*
X178211249Y-102727167D01*
X178116011Y-102822405D01*
X178020773Y-102870024D01*
%TO.C,RE1*%
X89396206Y-96902710D02*
X89062873Y-96426520D01*
X88824777Y-96902710D02*
X88824777Y-95902710D01*
X89205730Y-95902710D01*
X89300968Y-95950330D01*
X89348587Y-95997949D01*
X89396206Y-96093187D01*
X89396206Y-96236044D01*
X89348587Y-96331282D01*
X89300968Y-96378901D01*
X89205730Y-96426520D01*
X88824777Y-96426520D01*
X89824777Y-96378901D02*
X90158111Y-96378901D01*
X90300968Y-96902710D02*
X89824777Y-96902710D01*
X89824777Y-95902710D01*
X90300968Y-95902710D01*
X91253349Y-96902710D02*
X90681920Y-96902710D01*
X90967634Y-96902710D02*
X90967634Y-95902710D01*
X90872396Y-96045568D01*
X90777158Y-96140806D01*
X90681920Y-96188425D01*
%TO.C,D_RE1*%
X93203511Y-111796234D02*
X93203511Y-110996234D01*
X93393987Y-110996234D01*
X93508273Y-111034330D01*
X93584463Y-111110520D01*
X93622558Y-111186710D01*
X93660654Y-111339091D01*
X93660654Y-111453377D01*
X93622558Y-111605758D01*
X93584463Y-111681949D01*
X93508273Y-111758139D01*
X93393987Y-111796234D01*
X93203511Y-111796234D01*
X93813034Y-111872425D02*
X94422558Y-111872425D01*
X95070177Y-111796234D02*
X94803511Y-111415282D01*
X94613034Y-111796234D02*
X94613034Y-110996234D01*
X94917796Y-110996234D01*
X94993987Y-111034330D01*
X95032082Y-111072425D01*
X95070177Y-111148615D01*
X95070177Y-111262901D01*
X95032082Y-111339091D01*
X94993987Y-111377187D01*
X94917796Y-111415282D01*
X94613034Y-111415282D01*
X95413034Y-111377187D02*
X95679701Y-111377187D01*
X95793987Y-111796234D02*
X95413034Y-111796234D01*
X95413034Y-110996234D01*
X95793987Y-110996234D01*
X96555892Y-111796234D02*
X96098749Y-111796234D01*
X96327320Y-111796234D02*
X96327320Y-110996234D01*
X96251130Y-111110520D01*
X96174939Y-111186710D01*
X96098749Y-111224806D01*
%TO.C,RST1*%
X85118921Y-69127996D02*
X84785588Y-69361330D01*
X85118921Y-69527996D02*
X84418921Y-69527996D01*
X84418921Y-69261330D01*
X84452255Y-69194663D01*
X84485588Y-69161330D01*
X84552255Y-69127996D01*
X84652255Y-69127996D01*
X84718921Y-69161330D01*
X84752255Y-69194663D01*
X84785588Y-69261330D01*
X84785588Y-69527996D01*
X85085588Y-68861330D02*
X85118921Y-68761330D01*
X85118921Y-68594663D01*
X85085588Y-68527996D01*
X85052255Y-68494663D01*
X84985588Y-68461330D01*
X84918921Y-68461330D01*
X84852255Y-68494663D01*
X84818921Y-68527996D01*
X84785588Y-68594663D01*
X84752255Y-68727996D01*
X84718921Y-68794663D01*
X84685588Y-68827996D01*
X84618921Y-68861330D01*
X84552255Y-68861330D01*
X84485588Y-68827996D01*
X84452255Y-68794663D01*
X84418921Y-68727996D01*
X84418921Y-68561330D01*
X84452255Y-68461330D01*
X84418921Y-68261330D02*
X84418921Y-67861330D01*
X85118921Y-68061330D02*
X84418921Y-68061330D01*
X85118921Y-67261330D02*
X85118921Y-67661330D01*
X85118921Y-67461330D02*
X84418921Y-67461330D01*
X84518921Y-67527996D01*
X84585588Y-67594663D01*
X84618921Y-67661330D01*
%TO.C,D8*%
X189189579Y-83321598D02*
X188389579Y-83321598D01*
X188389579Y-83131122D01*
X188427675Y-83016836D01*
X188503865Y-82940645D01*
X188580055Y-82902550D01*
X188732436Y-82864455D01*
X188846722Y-82864455D01*
X188999103Y-82902550D01*
X189075294Y-82940645D01*
X189151484Y-83016836D01*
X189189579Y-83131122D01*
X189189579Y-83321598D01*
X188732436Y-82407312D02*
X188694341Y-82483502D01*
X188656246Y-82521598D01*
X188580055Y-82559693D01*
X188541960Y-82559693D01*
X188465770Y-82521598D01*
X188427675Y-82483502D01*
X188389579Y-82407312D01*
X188389579Y-82254931D01*
X188427675Y-82178741D01*
X188465770Y-82140645D01*
X188541960Y-82102550D01*
X188580055Y-82102550D01*
X188656246Y-82140645D01*
X188694341Y-82178741D01*
X188732436Y-82254931D01*
X188732436Y-82407312D01*
X188770532Y-82483502D01*
X188808627Y-82521598D01*
X188884817Y-82559693D01*
X189037198Y-82559693D01*
X189113389Y-82521598D01*
X189151484Y-82483502D01*
X189189579Y-82407312D01*
X189189579Y-82254931D01*
X189151484Y-82178741D01*
X189113389Y-82140645D01*
X189037198Y-82102550D01*
X188884817Y-82102550D01*
X188808627Y-82140645D01*
X188770532Y-82178741D01*
X188732436Y-82254931D01*
%TO.C,D28*%
X112961404Y-101227798D02*
X112161404Y-101227798D01*
X112161404Y-101037322D01*
X112199500Y-100923036D01*
X112275690Y-100846846D01*
X112351880Y-100808750D01*
X112504261Y-100770655D01*
X112618547Y-100770655D01*
X112770928Y-100808750D01*
X112847119Y-100846846D01*
X112923309Y-100923036D01*
X112961404Y-101037322D01*
X112961404Y-101227798D01*
X112237595Y-100465893D02*
X112199500Y-100427798D01*
X112161404Y-100351608D01*
X112161404Y-100161131D01*
X112199500Y-100084941D01*
X112237595Y-100046846D01*
X112313785Y-100008750D01*
X112389976Y-100008750D01*
X112504261Y-100046846D01*
X112961404Y-100503989D01*
X112961404Y-100008750D01*
X112504261Y-99551608D02*
X112466166Y-99627798D01*
X112428071Y-99665893D01*
X112351880Y-99703989D01*
X112313785Y-99703989D01*
X112237595Y-99665893D01*
X112199500Y-99627798D01*
X112161404Y-99551608D01*
X112161404Y-99399227D01*
X112199500Y-99323036D01*
X112237595Y-99284941D01*
X112313785Y-99246846D01*
X112351880Y-99246846D01*
X112428071Y-99284941D01*
X112466166Y-99323036D01*
X112504261Y-99399227D01*
X112504261Y-99551608D01*
X112542357Y-99627798D01*
X112580452Y-99665893D01*
X112656642Y-99703989D01*
X112809023Y-99703989D01*
X112885214Y-99665893D01*
X112923309Y-99627798D01*
X112961404Y-99551608D01*
X112961404Y-99399227D01*
X112923309Y-99323036D01*
X112885214Y-99284941D01*
X112809023Y-99246846D01*
X112656642Y-99246846D01*
X112580452Y-99284941D01*
X112542357Y-99323036D01*
X112504261Y-99399227D01*
%TO.C,D27*%
X112869237Y-82374019D02*
X112069237Y-82374019D01*
X112069237Y-82183543D01*
X112107333Y-82069257D01*
X112183523Y-81993067D01*
X112259713Y-81954971D01*
X112412094Y-81916876D01*
X112526380Y-81916876D01*
X112678761Y-81954971D01*
X112754952Y-81993067D01*
X112831142Y-82069257D01*
X112869237Y-82183543D01*
X112869237Y-82374019D01*
X112145428Y-81612114D02*
X112107333Y-81574019D01*
X112069237Y-81497829D01*
X112069237Y-81307352D01*
X112107333Y-81231162D01*
X112145428Y-81193067D01*
X112221618Y-81154971D01*
X112297809Y-81154971D01*
X112412094Y-81193067D01*
X112869237Y-81650210D01*
X112869237Y-81154971D01*
X112069237Y-80888305D02*
X112069237Y-80354971D01*
X112869237Y-80697829D01*
%TO.C,D26*%
X120279826Y-64984034D02*
X120279826Y-64184034D01*
X120470302Y-64184034D01*
X120584588Y-64222130D01*
X120660778Y-64298320D01*
X120698874Y-64374510D01*
X120736969Y-64526891D01*
X120736969Y-64641177D01*
X120698874Y-64793558D01*
X120660778Y-64869749D01*
X120584588Y-64945939D01*
X120470302Y-64984034D01*
X120279826Y-64984034D01*
X121041731Y-64260225D02*
X121079826Y-64222130D01*
X121156016Y-64184034D01*
X121346493Y-64184034D01*
X121422683Y-64222130D01*
X121460778Y-64260225D01*
X121498874Y-64336415D01*
X121498874Y-64412606D01*
X121460778Y-64526891D01*
X121003635Y-64984034D01*
X121498874Y-64984034D01*
X122184588Y-64184034D02*
X122032207Y-64184034D01*
X121956016Y-64222130D01*
X121917921Y-64260225D01*
X121841731Y-64374510D01*
X121803635Y-64526891D01*
X121803635Y-64831653D01*
X121841731Y-64907844D01*
X121879826Y-64945939D01*
X121956016Y-64984034D01*
X122108397Y-64984034D01*
X122184588Y-64945939D01*
X122222683Y-64907844D01*
X122260778Y-64831653D01*
X122260778Y-64641177D01*
X122222683Y-64564987D01*
X122184588Y-64526891D01*
X122108397Y-64488796D01*
X121956016Y-64488796D01*
X121879826Y-64526891D01*
X121841731Y-64564987D01*
X121803635Y-64641177D01*
%TO.C,D24*%
X131973767Y-99819320D02*
X131173767Y-99819320D01*
X131173767Y-99628844D01*
X131211863Y-99514558D01*
X131288053Y-99438368D01*
X131364243Y-99400272D01*
X131516624Y-99362177D01*
X131630910Y-99362177D01*
X131783291Y-99400272D01*
X131859482Y-99438368D01*
X131935672Y-99514558D01*
X131973767Y-99628844D01*
X131973767Y-99819320D01*
X131249958Y-99057415D02*
X131211863Y-99019320D01*
X131173767Y-98943130D01*
X131173767Y-98752653D01*
X131211863Y-98676463D01*
X131249958Y-98638368D01*
X131326148Y-98600272D01*
X131402339Y-98600272D01*
X131516624Y-98638368D01*
X131973767Y-99095511D01*
X131973767Y-98600272D01*
X131440434Y-97914558D02*
X131973767Y-97914558D01*
X131135672Y-98105034D02*
X131707101Y-98295511D01*
X131707101Y-97800272D01*
%TO.C,D23*%
X132135507Y-80742398D02*
X131335507Y-80742398D01*
X131335507Y-80551922D01*
X131373603Y-80437636D01*
X131449793Y-80361446D01*
X131525983Y-80323350D01*
X131678364Y-80285255D01*
X131792650Y-80285255D01*
X131945031Y-80323350D01*
X132021222Y-80361446D01*
X132097412Y-80437636D01*
X132135507Y-80551922D01*
X132135507Y-80742398D01*
X131411698Y-79980493D02*
X131373603Y-79942398D01*
X131335507Y-79866208D01*
X131335507Y-79675731D01*
X131373603Y-79599541D01*
X131411698Y-79561446D01*
X131487888Y-79523350D01*
X131564079Y-79523350D01*
X131678364Y-79561446D01*
X132135507Y-80018589D01*
X132135507Y-79523350D01*
X131335507Y-79256684D02*
X131335507Y-78761446D01*
X131640269Y-79028112D01*
X131640269Y-78913827D01*
X131678364Y-78837636D01*
X131716460Y-78799541D01*
X131792650Y-78761446D01*
X131983126Y-78761446D01*
X132059317Y-78799541D01*
X132097412Y-78837636D01*
X132135507Y-78913827D01*
X132135507Y-79142398D01*
X132097412Y-79218589D01*
X132059317Y-79256684D01*
%TO.C,D22*%
X131983550Y-61387313D02*
X131183550Y-61387313D01*
X131183550Y-61196837D01*
X131221646Y-61082551D01*
X131297836Y-61006361D01*
X131374026Y-60968265D01*
X131526407Y-60930170D01*
X131640693Y-60930170D01*
X131793074Y-60968265D01*
X131869265Y-61006361D01*
X131945455Y-61082551D01*
X131983550Y-61196837D01*
X131983550Y-61387313D01*
X131259741Y-60625408D02*
X131221646Y-60587313D01*
X131183550Y-60511123D01*
X131183550Y-60320646D01*
X131221646Y-60244456D01*
X131259741Y-60206361D01*
X131335931Y-60168265D01*
X131412122Y-60168265D01*
X131526407Y-60206361D01*
X131983550Y-60663504D01*
X131983550Y-60168265D01*
X131259741Y-59863504D02*
X131221646Y-59825408D01*
X131183550Y-59749218D01*
X131183550Y-59558742D01*
X131221646Y-59482551D01*
X131259741Y-59444456D01*
X131335931Y-59406361D01*
X131412122Y-59406361D01*
X131526407Y-59444456D01*
X131983550Y-59901599D01*
X131983550Y-59406361D01*
%TO.C,D19*%
X151158561Y-93947146D02*
X150358561Y-93947146D01*
X150358561Y-93756670D01*
X150396657Y-93642384D01*
X150472847Y-93566194D01*
X150549037Y-93528098D01*
X150701418Y-93490003D01*
X150815704Y-93490003D01*
X150968085Y-93528098D01*
X151044276Y-93566194D01*
X151120466Y-93642384D01*
X151158561Y-93756670D01*
X151158561Y-93947146D01*
X151158561Y-92728098D02*
X151158561Y-93185241D01*
X151158561Y-92956670D02*
X150358561Y-92956670D01*
X150472847Y-93032860D01*
X150549037Y-93109051D01*
X150587133Y-93185241D01*
X151158561Y-92347146D02*
X151158561Y-92194765D01*
X151120466Y-92118575D01*
X151082371Y-92080479D01*
X150968085Y-92004289D01*
X150815704Y-91966194D01*
X150510942Y-91966194D01*
X150434752Y-92004289D01*
X150396657Y-92042384D01*
X150358561Y-92118575D01*
X150358561Y-92270956D01*
X150396657Y-92347146D01*
X150434752Y-92385241D01*
X150510942Y-92423337D01*
X150701418Y-92423337D01*
X150777609Y-92385241D01*
X150815704Y-92347146D01*
X150853799Y-92270956D01*
X150853799Y-92118575D01*
X150815704Y-92042384D01*
X150777609Y-92004289D01*
X150701418Y-91966194D01*
%TO.C,D18*%
X150953159Y-74842158D02*
X150153159Y-74842158D01*
X150153159Y-74651682D01*
X150191255Y-74537396D01*
X150267445Y-74461206D01*
X150343635Y-74423110D01*
X150496016Y-74385015D01*
X150610302Y-74385015D01*
X150762683Y-74423110D01*
X150838874Y-74461206D01*
X150915064Y-74537396D01*
X150953159Y-74651682D01*
X150953159Y-74842158D01*
X150953159Y-73623110D02*
X150953159Y-74080253D01*
X150953159Y-73851682D02*
X150153159Y-73851682D01*
X150267445Y-73927872D01*
X150343635Y-74004063D01*
X150381731Y-74080253D01*
X150496016Y-73165968D02*
X150457921Y-73242158D01*
X150419826Y-73280253D01*
X150343635Y-73318349D01*
X150305540Y-73318349D01*
X150229350Y-73280253D01*
X150191255Y-73242158D01*
X150153159Y-73165968D01*
X150153159Y-73013587D01*
X150191255Y-72937396D01*
X150229350Y-72899301D01*
X150305540Y-72861206D01*
X150343635Y-72861206D01*
X150419826Y-72899301D01*
X150457921Y-72937396D01*
X150496016Y-73013587D01*
X150496016Y-73165968D01*
X150534112Y-73242158D01*
X150572207Y-73280253D01*
X150648397Y-73318349D01*
X150800778Y-73318349D01*
X150876969Y-73280253D01*
X150915064Y-73242158D01*
X150953159Y-73165968D01*
X150953159Y-73013587D01*
X150915064Y-72937396D01*
X150876969Y-72899301D01*
X150800778Y-72861206D01*
X150648397Y-72861206D01*
X150572207Y-72899301D01*
X150534112Y-72937396D01*
X150496016Y-73013587D01*
%TO.C,D17*%
X150953158Y-58205158D02*
X150153158Y-58205158D01*
X150153158Y-58014682D01*
X150191254Y-57900396D01*
X150267444Y-57824206D01*
X150343634Y-57786110D01*
X150496015Y-57748015D01*
X150610301Y-57748015D01*
X150762682Y-57786110D01*
X150838873Y-57824206D01*
X150915063Y-57900396D01*
X150953158Y-58014682D01*
X150953158Y-58205158D01*
X150953158Y-56986110D02*
X150953158Y-57443253D01*
X150953158Y-57214682D02*
X150153158Y-57214682D01*
X150267444Y-57290872D01*
X150343634Y-57367063D01*
X150381730Y-57443253D01*
X150153158Y-56719444D02*
X150153158Y-56186110D01*
X150953158Y-56528968D01*
%TO.C,D14*%
X170082568Y-97413118D02*
X169282568Y-97413118D01*
X169282568Y-97222642D01*
X169320664Y-97108356D01*
X169396854Y-97032166D01*
X169473044Y-96994070D01*
X169625425Y-96955975D01*
X169739711Y-96955975D01*
X169892092Y-96994070D01*
X169968283Y-97032166D01*
X170044473Y-97108356D01*
X170082568Y-97222642D01*
X170082568Y-97413118D01*
X170082568Y-96194070D02*
X170082568Y-96651213D01*
X170082568Y-96422642D02*
X169282568Y-96422642D01*
X169396854Y-96498832D01*
X169473044Y-96575023D01*
X169511140Y-96651213D01*
X169549235Y-95508356D02*
X170082568Y-95508356D01*
X169244473Y-95698832D02*
X169815902Y-95889309D01*
X169815902Y-95394070D01*
%TO.C,D13*%
X170111723Y-78106556D02*
X169311723Y-78106556D01*
X169311723Y-77916080D01*
X169349819Y-77801794D01*
X169426009Y-77725604D01*
X169502199Y-77687508D01*
X169654580Y-77649413D01*
X169768866Y-77649413D01*
X169921247Y-77687508D01*
X169997438Y-77725604D01*
X170073628Y-77801794D01*
X170111723Y-77916080D01*
X170111723Y-78106556D01*
X170111723Y-76887508D02*
X170111723Y-77344651D01*
X170111723Y-77116080D02*
X169311723Y-77116080D01*
X169426009Y-77192270D01*
X169502199Y-77268461D01*
X169540295Y-77344651D01*
X169311723Y-76620842D02*
X169311723Y-76125604D01*
X169616485Y-76392270D01*
X169616485Y-76277985D01*
X169654580Y-76201794D01*
X169692676Y-76163699D01*
X169768866Y-76125604D01*
X169959342Y-76125604D01*
X170035533Y-76163699D01*
X170073628Y-76201794D01*
X170111723Y-76277985D01*
X170111723Y-76506556D01*
X170073628Y-76582747D01*
X170035533Y-76620842D01*
%TO.C,D12*%
X170111722Y-58763958D02*
X169311722Y-58763958D01*
X169311722Y-58573482D01*
X169349818Y-58459196D01*
X169426008Y-58383006D01*
X169502198Y-58344910D01*
X169654579Y-58306815D01*
X169768865Y-58306815D01*
X169921246Y-58344910D01*
X169997437Y-58383006D01*
X170073627Y-58459196D01*
X170111722Y-58573482D01*
X170111722Y-58763958D01*
X170111722Y-57544910D02*
X170111722Y-58002053D01*
X170111722Y-57773482D02*
X169311722Y-57773482D01*
X169426008Y-57849672D01*
X169502198Y-57925863D01*
X169540294Y-58002053D01*
X169387913Y-57240149D02*
X169349818Y-57202053D01*
X169311722Y-57125863D01*
X169311722Y-56935387D01*
X169349818Y-56859196D01*
X169387913Y-56821101D01*
X169464103Y-56783006D01*
X169540294Y-56783006D01*
X169654579Y-56821101D01*
X170111722Y-57278244D01*
X170111722Y-56783006D01*
%TO.C,D9*%
X189189579Y-102356498D02*
X188389579Y-102356498D01*
X188389579Y-102166022D01*
X188427675Y-102051736D01*
X188503865Y-101975545D01*
X188580055Y-101937450D01*
X188732436Y-101899355D01*
X188846722Y-101899355D01*
X188999103Y-101937450D01*
X189075294Y-101975545D01*
X189151484Y-102051736D01*
X189189579Y-102166022D01*
X189189579Y-102356498D01*
X189189579Y-101518402D02*
X189189579Y-101366022D01*
X189151484Y-101289831D01*
X189113389Y-101251736D01*
X188999103Y-101175545D01*
X188846722Y-101137450D01*
X188541960Y-101137450D01*
X188465770Y-101175545D01*
X188427675Y-101213641D01*
X188389579Y-101289831D01*
X188389579Y-101442212D01*
X188427675Y-101518402D01*
X188465770Y-101556498D01*
X188541960Y-101594593D01*
X188732436Y-101594593D01*
X188808627Y-101556498D01*
X188846722Y-101518402D01*
X188884817Y-101442212D01*
X188884817Y-101289831D01*
X188846722Y-101213641D01*
X188808627Y-101175545D01*
X188732436Y-101137450D01*
%TO.C,D7*%
X189189579Y-67017178D02*
X188389579Y-67017178D01*
X188389579Y-66826702D01*
X188427675Y-66712416D01*
X188503865Y-66636225D01*
X188580055Y-66598130D01*
X188732436Y-66560035D01*
X188846722Y-66560035D01*
X188999103Y-66598130D01*
X189075294Y-66636225D01*
X189151484Y-66712416D01*
X189189579Y-66826702D01*
X189189579Y-67017178D01*
X188389579Y-66293368D02*
X188389579Y-65760035D01*
X189189579Y-66102892D01*
%TO.C,J3*%
X104179149Y-83489263D02*
X104759720Y-83489263D01*
X104875834Y-83527968D01*
X104953244Y-83605377D01*
X104991949Y-83721491D01*
X104991949Y-83798901D01*
X104179149Y-83179625D02*
X104179149Y-82676463D01*
X104488787Y-82947396D01*
X104488787Y-82831282D01*
X104527492Y-82753872D01*
X104566196Y-82715168D01*
X104643606Y-82676463D01*
X104837130Y-82676463D01*
X104914539Y-82715168D01*
X104953244Y-82753872D01*
X104991949Y-82831282D01*
X104991949Y-83063510D01*
X104953244Y-83140920D01*
X104914539Y-83179625D01*
%TD*%
M02*
