M48
; DRILL file {KiCad (5.99.0-11550-g369d813a32)} date Mon Jan 17 19:27:03 2022
; FORMAT={-:-/ absolute / metric / decimal}
; #@! TF.CreationDate,2022-01-17T19:27:03+05:30
; #@! TF.GenerationSoftware,Kicad,Pcbnew,(5.99.0-11550-g369d813a32)
; #@! TF.FileFunction,NonPlated,1,2,NPTH
FMAT,2
METRIC
; #@! TA.AperFunction,NonPlated,NPTH,ComponentDrill
T1C0.800
; #@! TA.AperFunction,NonPlated,NPTH,ComponentDrill
T2C1.800
; #@! TA.AperFunction,NonPlated,NPTH,ComponentDrill
T3C3.988
%
G90
G05
T1
X116.568Y-61.744
X116.568Y-61.78
X116.568Y-68.744
X116.568Y-68.78
T2
X114.141Y-148.115
X122.201Y-141.93
X131.051Y-136.617
X140.259Y-132.323
X147.411Y-69.1
X147.455Y-88.135
X147.474Y-107.26
X150.046Y-128.913
X157.571Y-69.1
X157.615Y-88.135
X157.634Y-107.26
X159.965Y-126.714
X166.498Y-86.249
X166.541Y-105.284
X166.545Y-67.239
X170.577Y-125.491
X176.658Y-86.249
X176.701Y-105.284
X176.705Y-67.239
X180.737Y-125.491
X185.535Y-99.6
X185.562Y-61.464
X185.582Y-80.589
X195.695Y-99.6
X195.722Y-61.464
X195.742Y-80.589
X204.576Y-84.32
X204.595Y-103.445
X204.623Y-65.309
X214.736Y-84.32
X214.755Y-103.445
X214.783Y-65.309
X223.61Y-74.862
X223.654Y-93.897
X223.697Y-112.931
X233.77Y-74.862
X233.814Y-93.897
X233.857Y-112.931
T3
X118.171Y-145.023
X135.655Y-134.47
X152.491Y-69.1
X152.535Y-88.135
X152.554Y-107.26
X155.005Y-127.814
X171.578Y-86.249
X171.621Y-105.284
X171.625Y-67.239
X175.657Y-125.491
X190.615Y-99.6
X190.642Y-61.464
X190.662Y-80.589
X209.656Y-84.32
X209.675Y-103.445
X209.703Y-65.309
X228.69Y-74.862
X228.734Y-93.897
X228.777Y-112.931
T0
M30
