M48
; DRILL file {KiCad (5.99.0-11550-g369d813a32)} date Mon Jan 17 19:27:03 2022
; FORMAT={-:-/ absolute / metric / decimal}
; #@! TF.CreationDate,2022-01-17T19:27:03+05:30
; #@! TF.GenerationSoftware,Kicad,Pcbnew,(5.99.0-11550-g369d813a32)
; #@! TF.FileFunction,Plated,1,2,PTH
FMAT,2
METRIC
; #@! TA.AperFunction,Plated,PTH,ViaDrill
T1C0.400
; #@! TA.AperFunction,Plated,PTH,ComponentDrill
T2C0.813
; #@! TA.AperFunction,Plated,PTH,ComponentDrill
T3C0.900
; #@! TA.AperFunction,Plated,PTH,ComponentDrill
T4C1.000
; #@! TA.AperFunction,Plated,PTH,ComponentDrill
T5C1.100
; #@! TA.AperFunction,Plated,PTH,ComponentDrill
T6C1.500
; #@! TA.AperFunction,Plated,PTH,ComponentDrill
T7C2.200
%
G90
G05
T1
X116.2Y-76.6
X117.6Y-76.6
X123.584Y-143.508
X124.5Y-77.4
X129.302Y-91.242
X131.96Y-91.158
X132.998Y-91.009
X136.202Y-92.478
X141.942Y-69.491
X142.857Y-74.114
X145.575Y-75.918
X162.008Y-80.485
X163.384Y-113.608
X163.384Y-116.608
X181.8Y-127.6
X206.354Y-88.595
X206.354Y-85.699
X218.092Y-84.071
X218.092Y-87.119
X232.544Y-101.801
X232.544Y-97.762
X236.901Y-109.433
T2
X126.982Y-96.339
X129.522Y-96.339
X132.062Y-96.339
X134.602Y-96.339
T4
X119.73Y-153.773
X122.55Y-107.2
X122.55Y-109.7
X122.55Y-112.2
X125.715Y-135.604
X125.919Y-149.025
X126.27Y-118.884
X129.011Y-142.673
X134.07Y-118.884
X137.05Y-107.2
X137.05Y-112.2
X143.0Y-88.668
X143.0Y-96.468
X143.092Y-107.522
X143.092Y-115.322
X145.061Y-126.568
X146.749Y-134.183
X149.218Y-77.213
X157.018Y-77.213
X162.104Y-102.608
X162.104Y-110.408
X162.114Y-67.681
X162.114Y-75.481
X162.266Y-87.036
X162.266Y-94.836
X171.249Y-133.365
X179.049Y-133.365
X181.084Y-64.499
X181.084Y-72.299
X181.084Y-81.136
X181.084Y-88.936
X181.289Y-100.241
X181.289Y-108.041
X200.213Y-103.707
X200.213Y-111.507
X200.242Y-65.058
X200.242Y-72.858
X200.242Y-84.401
X200.242Y-92.201
X219.32Y-109.031
X219.32Y-116.831
X219.32Y-89.997
X219.32Y-97.797
X219.32Y-73.692
X219.32Y-81.492
T5
X123.121Y-61.3
X123.121Y-63.84
X123.121Y-66.38
X123.121Y-68.92
X123.121Y-71.46
X123.121Y-74.0
X123.121Y-76.54
X123.121Y-79.08
X123.121Y-81.62
X123.121Y-84.16
X123.121Y-86.7
X123.121Y-89.24
X138.361Y-61.3
X138.361Y-63.84
X138.361Y-66.38
X138.361Y-68.92
X138.361Y-71.46
X138.361Y-74.0
X138.361Y-76.54
X138.361Y-79.08
X138.361Y-81.62
X138.361Y-84.16
X138.361Y-86.7
X138.361Y-89.24
T6
X113.064Y-142.539
X113.448Y-142.975
X113.602Y-145.327
X113.753Y-143.371
X117.094Y-139.447
X117.415Y-139.931
X117.72Y-140.328
X119.648Y-140.688
X131.128Y-133.778
X131.206Y-130.939
X131.487Y-131.448
X131.698Y-131.901
X135.81Y-128.792
X136.019Y-129.335
X136.23Y-129.788
X138.034Y-130.557
X148.681Y-66.56
X148.725Y-85.595
X148.744Y-104.72
X149.951Y-64.02
X149.991Y-64.6
X149.991Y-65.1
X149.995Y-83.055
X150.014Y-102.18
X150.035Y-83.635
X150.035Y-84.135
X150.054Y-102.76
X150.054Y-103.26
X150.736Y-126.159
X151.426Y-123.404
X151.591Y-123.962
X151.699Y-124.45
X154.991Y-64.6
X154.991Y-65.1
X155.031Y-64.02
X155.035Y-83.635
X155.035Y-84.135
X155.054Y-102.76
X155.054Y-103.26
X155.075Y-83.055
X155.094Y-102.18
X156.301Y-66.56
X156.345Y-85.595
X156.364Y-104.72
X156.386Y-122.304
X156.472Y-122.879
X156.58Y-123.367
X158.175Y-124.509
X167.768Y-83.709
X167.811Y-102.744
X167.815Y-64.699
X169.038Y-81.169
X169.078Y-81.749
X169.078Y-82.249
X169.081Y-100.204
X169.085Y-62.159
X169.121Y-100.784
X169.121Y-101.284
X169.125Y-62.739
X169.125Y-63.239
X171.847Y-122.951
X173.117Y-120.411
X173.157Y-120.991
X173.157Y-121.491
X174.078Y-81.749
X174.078Y-82.249
X174.118Y-81.169
X174.121Y-100.784
X174.121Y-101.284
X174.125Y-62.739
X174.125Y-63.239
X174.161Y-100.204
X174.165Y-62.159
X175.388Y-83.709
X175.431Y-102.744
X175.435Y-64.699
X178.157Y-120.991
X178.157Y-121.491
X178.197Y-120.411
X179.467Y-122.951
X186.805Y-97.06
X186.832Y-58.924
X186.852Y-78.049
X188.075Y-94.52
X188.102Y-56.384
X188.115Y-95.1
X188.115Y-95.6
X188.122Y-75.509
X188.142Y-56.964
X188.142Y-57.464
X188.162Y-76.089
X188.162Y-76.589
X193.115Y-95.1
X193.115Y-95.6
X193.142Y-56.964
X193.142Y-57.464
X193.155Y-94.52
X193.162Y-76.089
X193.162Y-76.589
X193.182Y-56.384
X193.202Y-75.509
X194.425Y-97.06
X194.452Y-58.924
X194.472Y-78.049
X205.846Y-81.78
X205.865Y-100.905
X205.893Y-62.769
X207.116Y-79.24
X207.135Y-98.365
X207.156Y-79.82
X207.156Y-80.32
X207.163Y-60.229
X207.175Y-98.945
X207.175Y-99.445
X207.203Y-60.809
X207.203Y-61.309
X212.156Y-79.82
X212.156Y-80.32
X212.175Y-98.945
X212.175Y-99.445
X212.196Y-79.24
X212.203Y-60.809
X212.203Y-61.309
X212.215Y-98.365
X212.243Y-60.229
X213.466Y-81.78
X213.485Y-100.905
X213.513Y-62.769
X224.88Y-72.322
X224.924Y-91.357
X224.967Y-110.391
X226.15Y-69.782
X226.19Y-70.362
X226.19Y-70.862
X226.194Y-88.817
X226.234Y-89.397
X226.234Y-89.897
X226.237Y-107.851
X226.277Y-108.431
X226.277Y-108.931
X231.19Y-70.362
X231.19Y-70.862
X231.23Y-69.782
X231.234Y-89.397
X231.234Y-89.897
X231.274Y-88.817
X231.277Y-108.431
X231.277Y-108.931
X231.317Y-107.851
X232.5Y-72.322
X232.544Y-91.357
X232.587Y-110.391
T7
X114.808Y-121.92
X133.408Y-69.974
X154.178Y-117.856
X171.578Y-76.654
X209.675Y-74.673
X214.0Y-117.3
T3
G00X114.268Y-63.58
M15
G01X114.268Y-63.18
M16
G05
G00X114.268Y-66.58
M15
G01X114.268Y-66.18
M16
G05
G00X114.268Y-70.58
M15
G01X114.268Y-70.18
M16
G05
G00X114.268Y-71.244
M15
G01X114.268Y-71.644
M16
G05
G00X118.868Y-63.144
M15
G01X118.868Y-63.544
M16
G05
G00X118.868Y-66.144
M15
G01X118.868Y-66.544
M16
G05
G00X118.868Y-70.144
M15
G01X118.868Y-70.544
M16
G05
G00X118.868Y-71.68
M15
G01X118.868Y-71.28
M16
G05
T6
G00X129.4Y-104.1
M15
G01X130.7Y-104.1
M16
G05
G00X129.4Y-115.3
M15
G01X130.7Y-115.3
M16
G05
T0
M30
