0
SECTION
2
HEADER
9
$INSUNITS
70
4
9
$ACADVER
1
AC1014
9
$HANDSEED
5
FFFF
0
ENDSEC
0
SECTION
2
TABLES
0
TABLE
2
VPORT
5
8
100
AcDbSymbolTable
0
ENDTAB
0
TABLE
2
LTYPE
5
5
100
AcDbSymbolTable
0
LTYPE
5
14
100
AcDbSymbolTableRecord
100
AcDbLinetypeTableRecord
2
BYBLOCK
70
0
0
LTYPE
5
15
100
AcDbSymbolTableRecord
100
AcDbLinetypeTableRecord
2
BYLAYER
70
0
0
ENDTAB
0
TABLE
2
LAYER
5
2
100
AcDbSymbolTable
70
2
0
LAYER
5
50
100
AcDbSymbolTableRecord
100
AcDbLayerTableRecord
2
0
70
0
6
CONTINUOUS
0
ENDTAB
0
TABLE
2
STYLE
5
3
100
AcDbSymbolTable
70
1
0
STYLE
5
11
100
AcDbSymbolTableRecord
100
AcDbTextStyleTableRecord
2
STANDARD
70
0
0
ENDTAB
0
TABLE
2
VIEW
5
6
100
AcDbSymbolTable
70
0
0
ENDTAB
0
TABLE
2
UCS
5
7
100
AcDbSymbolTable
70
0
0
ENDTAB
0
TABLE
2
APPID
5
9
100
AcDbSymbolTable
70
2
0
APPID
5
12
100
AcDbSymbolTableRecord
100
AcDbRegAppTableRecord
2
ACAD
70
0
0
ENDTAB
0
TABLE
2
DIMSTYLE
5
A
100
AcDbSymbolTable
70
1
0
ENDTAB
0
TABLE
2
BLOCK_RECORD
5
1
100
AcDbSymbolTable
70
1
0
BLOCK_RECORD
5
1F
100
AcDbSymbolTableRecord
100
AcDbBlockTableRecord
2
*MODEL_SPACE
0
BLOCK_RECORD
5
1B
100
AcDbSymbolTableRecord
100
AcDbBlockTableRecord
2
*PAPER_SPACE
0
ENDTAB
0
ENDSEC
0
SECTION
2
BLOCKS
0
BLOCK
5
20
100
AcDbEntity
100
AcDbBlockBegin
2
*MODEL_SPACE
0
ENDBLK
5
21
100
AcDbEntity
100
AcDbBlockEnd
0
BLOCK
5
1C
100
AcDbEntity
100
AcDbBlockBegin
2
*PAPER_SPACE
0
ENDBLK
5
1D
100
AcDbEntity
100
AcDbBlockEnd
0
ENDSEC
0
SECTION
2
ENTITIES
0
SPLINE
5
100
100
AcDbEntity
8
0
100
AcDbSpline
70
0
71
3
72
16
73
12
74
0
42
0.000000001
43
0.0000000001
44
0.0000000001
40
0
40
0
40
0
40
0
40
0.11719334201607852
40
0.11719334201607852
40
0.23438668403215679
40
0.23438668403215679
40
0.35158002604823513
40
0.35158002604823513
40
0.41880276479710826
40
0.41880276479710826
40
0.48602550354598167
40
0.48602550354598167
40
0.48602550354598167
40
0.48602550354598167
10
14.884906799118063
20
-115.67192811197003
30
8.8817841970012523e-15
10
14.610793908047013
20
-115.95025386991639
30
8.8817841970012523e-15
10
14.284938476046182
20
-116.17237833892703
30
0
10
13.566425380517529
20
-116.47921925846815
30
0
10
13.180637093802849
20
-116.56100214256656
30
0
10
12.399426774163061
20
-116.57208613279117
30
0
10
12.011473537686223
20
-116.50128126992955
30
0
10
11.439523682834809
20
-116.27599395798975
30
0
10
11.240893845644212
20
-116.17077263072608
30
0
10
10.870784077994418
20
-115.91807002093178
30
0
10
10.700466510002755
20
-115.77138237330288
30
1.1102230246251565e-15
10
10.54807560930135
20
-115.60710524263621
30
1.1102230246251565e-15
0
SPLINE
5
101
100
AcDbEntity
8
0
100
AcDbSpline
70
0
71
3
72
8
73
4
74
0
42
0.000000001
43
0.0000000001
44
0.0000000001
40
-0.3489274426805562
40
-0.3489274426805562
40
-0.3489274426805562
40
-0.3489274426805562
40
-0
40
-0
40
-0
40
-0
10
14.884906799118065
20
-115.67192811197003
30
0
10
18.441328339761792
20
-112.06084759325077
30
0
10
19.066866951705808
20
-111.42735996522048
30
0
10
19.908170794404711
20
-110.62424750430498
30
0
0
SPLINE
5
102
100
AcDbEntity
8
0
100
AcDbSpline
70
0
71
3
72
8
73
4
74
0
42
0.000000001
43
0.0000000001
44
0.0000000001
40
1.9433332375246123e-05
40
1.9433332375246123e-05
40
1.9433332375246123e-05
40
1.9433332375246123e-05
40
0.99589815244268565
40
0.99589815244268565
40
0.99589815244268565
40
0.99589815244268565
10
19.908170841812005
20
-110.62424755399138
30
0
10
31.881778715812121
20
-99.197430740689782
30
0
10
47.211879577843547
20
-91.931544460912548
30
0
10
63.633753285901079
20
-89.896473906467321
30
0
0
SPLINE
5
103
100
AcDbEntity
8
0
100
AcDbSpline
70
0
71
3
72
14
73
10
74
0
42
0.000000001
43
0.0000000001
44
0.0000000001
40
0.052273269013483704
40
0.052273269013483704
40
0.052273269013483704
40
0.052273269013483704
40
0.41483076128064056
40
0.41483076128064056
40
0.41483076128064056
40
0.86984727662195116
40
0.86984727662195116
40
0.86984727662195116
40
1
40
1
40
1
40
1
10
63.633753285901093
20
-89.896473906467534
30
0
10
65.237295022030452
20
-89.760356485576565
30
0
10
66.756966710370364
20
-89.147002383078956
30
0
10
67.970840424806781
20
-88.213250507136109
30
0
10
69.494274912819705
20
-87.04137422862344
30
0
10
70.598940049434546
20
-85.343029008204624
30
0
10
71.015572765696874
20
-83.381032752449769
30
0
10
71.134746204114293
20
-82.819824208728065
30
0
10
71.196182763952379
20
-82.240079868347479
30
0
10
71.195832640528451
20
-81.658577241886391
30
0
0
LINE
5
104
100
AcDbEntity
8
0
100
AcDbLine
10
71.195832640528451
20
-81.658577241886391
30
0
11
71.195580034831238
21
-81.025666613629795
31
0
0
LINE
5
105
100
AcDbEntity
8
0
100
AcDbLine
10
71.195580034831238
20
-81.025666613629795
30
0
11
71.19560754036587
21
-79.843038646812602
31
0
0
ARC
5
106
100
AcDbEntity
8
0
100
AcDbCircle
10
74.195607539554487
20
-79.84310842074504
30
0
40
2.9999999999999982
210
0
220
0
230
1
100
AcDbArc
50
90.005793450726145
51
179.99866741631928
0
LINE
5
107
100
AcDbEntity
8
0
100
AcDbLine
10
74.195304195184335
20
-76.843108436081337
30
0
11
74.506199180465416
21
-76.843077000000022
31
0
0
LINE
5
108
100
AcDbEntity
8
0
100
AcDbLine
10
74.506199180465416
20
-76.843077000000022
30
0
11
135.33786783065185
21
-76.843077000000022
31
0
0
LINE
5
109
100
AcDbEntity
8
0
100
AcDbLine
10
135.33786783065185
20
-76.843077000000022
30
0
11
139.33830466113466
21
-76.844093578664882
31
0
0
SPLINE
5
110
100
AcDbEntity
8
0
100
AcDbSpline
70
0
71
3
72
14
73
10
74
0
42
0.000000001
43
0.0000000001
44
0.0000000001
40
0.0012037225973479898
40
0.0012037225973479898
40
0.0012037225973479898
40
0.0012037225973479898
40
0.41427105489097876
40
0.41427105489097876
40
0.41427105489097876
40
0.86948300463283745
40
0.86948300463283745
40
0.86948300463283745
40
0.99882240253579069
40
0.99882240253579069
40
0.99882240253579069
40
0.99882240253579069
10
139.33830466092633
20
-76.844094399096818
30
0
10
141.1869435181091
20
-76.844939084816872
30
0
10
142.97682238508602
20
-76.205442273173588
30
0
10
144.36597305463033
20
-75.14099373337811
30
0
10
145.89685660636798
20
-73.967941164660985
30
0
10
147.00632375593418
20
-72.263418749718099
30
0
10
147.42289635756219
20
-70.296573098367958
30
0
10
147.54125715522576
20
-69.737733128420047
30
0
10
147.6023255230628
20
-69.160717901586082
30
0
10
147.60221057007931
20
-68.582092999999134
30
0
0
LINE
5
111
100
AcDbEntity
8
0
100
AcDbLine
10
147.60221057007928
20
-68.582092999999134
30
0
11
147.60220978576831
21
-13.210143999999708
31
0
0
SPLINE
5
112
100
AcDbEntity
8
0
100
AcDbSpline
70
0
71
3
72
20
73
16
74
0
42
0.000000001
43
0.0000000001
44
0.0000000001
40
0.0011786900309881929
40
0.0011786900309881929
40
0.0011786900309881929
40
0.0011786900309881929
40
0.40927542247564441
40
0.40927542247564441
40
0.40927542247564441
40
0.87102598953680754
40
0.87102598953680754
40
0.87102598953680754
40
1
40
1
40
1
40
1.0025395856347523
40
1.0025395856347523
40
1.0025395856347523
40
1.0050791712695049
40
1.0050791712695049
40
1.0050791712695049
40
1.0050791712695049
10
147.60221057153663
20
-13.210143999999689
30
0
10
147.6025732249654
20
-11.377354255754625
30
0
10
146.97363763719335
20
-9.6086740838912057
30
0
10
145.93476536220021
20
-8.2327976936611016
30
0
10
144.75930909424966
20
-6.676030258673185
30
0
10
143.04511453986831
20
-5.5519271736747999
30
0
10
141.06069503693578
20
-5.1294037159645303
30
0
10
140.50641625529073
20
-5.0113864383626803
30
0
10
139.93392127504646
20
-4.9496221236481341
30
0
10
139.35918439506958
20
-4.9481680044129508
30
0
10
139.35811337815662
20
-4.9481652946750723
30
0
10
139.35704236125164
20
-4.9481625849372133
30
0
10
139.35597134435164
20
-4.948159875199365
30
0
10
139.35490032742615
20
-4.9481571654614545
30
0
10
139.35382931051848
20
-4.9481544557235893
30
0
10
139.3527582936058
20
-4.9481517459857107
30
0
0
LINE
5
113
100
AcDbEntity
8
0
100
AcDbLine
10
139.35275829360577
20
-4.9481517459857098
30
0
11
135.33981996524454
21
-4.9470770000000019
31
0
0
LINE
5
114
100
AcDbEntity
8
0
100
AcDbLine
10
135.33981996524454
20
-4.9470770000000019
30
0
11
124.42496300000001
21
-4.9470770000000019
31
0
0
LINE
5
115
100
AcDbEntity
8
0
100
AcDbLine
10
124.42496300000001
20
-4.9470770000000019
30
0
11
124.42496429816494
21
-3.6851439999992297
31
0
0
SPLINE
5
116
100
AcDbEntity
8
0
100
AcDbSpline
70
0
71
3
72
20
73
16
74
0
42
0.000000001
43
0.0000000001
44
0.0000000001
40
0.0015146416662986069
40
0.0015146416662986069
40
0.0015146416662986069
40
0.0015146416662986069
40
0.40867608758513613
40
0.40867608758513613
40
0.40867608758513613
40
0.87147714426173561
40
0.87147714426173561
40
0.87147714426173561
40
1
40
1
40
1
40
1.0028384541807278
40
1.0028384541807278
40
1.0028384541807278
40
1.0056769083614558
40
1.0056769083614558
40
1.0056769083614558
40
1.0056769083614558
10
124.42496559632987
20
-3.6851439999992297
30
0
10
124.42543074415011
20
-1.8556585225052067
30
0
10
123.79856047263658
20
-0.089206346890858101
30
0
10
122.76270622925477
20
1.2855697950714458
30
0
10
121.58529996153165
20
2.8482124705293788
30
0
10
119.8659588081813
20
3.9751918035674487
30
0
10
117.87700881643134
20
4.396982953900177
30
0
10
117.32466450093655
20
4.5141170926058525
30
0
10
116.75437473929053
20
4.575384568615787
30
0
10
116.18192697347314
20
4.576832024475685
30
0
10
116.1807291940621
20
4.576835053106298
30
0
10
116.17953141465156
20
4.5768380817369083
30
0
10
116.17833363524082
20
4.5768411103675195
30
0
10
116.17713585583276
20
4.5768441389981245
30
0
10
116.17593807642035
20
4.5768471676287383
30
0
10
116.17474029700917
20
4.5768501962593504
30
0
0
LINE
5
117
100
AcDbEntity
8
0
100
AcDbLine
10
116.17474029700915
20
4.5768501962593513
30
0
11
104.27994916211202
21
4.5768560000005447
31
0
0
SPLINE
5
118
100
AcDbEntity
8
0
100
AcDbSpline
70
0
71
3
72
20
73
16
74
0
42
0.000000001
43
0.0000000001
44
0.0000000001
40
0.34725260923150514
40
0.34725260923150514
40
0.34725260923150514
40
0.34725260923150514
40
0.40866704128344788
40
0.40866704128344788
40
0.40866704128344788
40
0.87148233937696373
40
0.87148233937696373
40
0.87148233937696373
40
1
40
1
40
1
40
1.0028491196522034
40
1.0028491196522034
40
1.0028491196522034
40
1.0056982393044069
40
1.0056982393044069
40
1.0056982393044069
40
1.0056982393044069
10
104.27994916211202
20
4.5768560000005447
30
0
10
104.14246894601065
20
4.8005467482462167
30
0
10
103.99601280873978
20
5.0151093075697029
30
0
10
103.83977262238197
20
5.222475570831091
30
0
10
102.66235640265343
20
6.7851746912053823
30
0
10
100.94298628642504
20
7.9121838764423877
30
0
10
98.953994701489876
20
8.3339816010525496
30
0
10
98.401678158480692
20
8.4511092263629486
30
0
10
97.831417730423283
20
8.5123760335767411
30
0
10
97.258998065700126
20
8.5138288443793524
30
0
10
97.257795785641974
20
8.5138318957865007
30
0
10
97.256593505583766
20
8.5138349471936507
30
0
10
97.255391225525585
20
8.5138379986007973
30
0
10
97.254188945467405
20
8.5138410500079438
30
0
10
97.252986665409196
20
8.5138441014150903
30
0
10
97.251784385350987
20
8.5138471528222386
30
0
0
LINE
5
119
100
AcDbEntity
8
0
100
AcDbLine
10
97.251784385350973
20
8.5138471528222368
30
0
11
79.829006299595079
21
8.5138469079585537
31
0
0
SPLINE
5
120
100
AcDbEntity
8
0
100
AcDbSpline
70
0
71
3
72
17
73
13
74
0
42
0.000000001
43
0.0000000001
44
0.0000000001
40
-0.0057041505044582927
40
-0.0057041505044582927
40
-0.0057041505044582927
40
-0.0057041505044582927
40
-0.0028520752522291463
40
-0.0028520752522291463
40
-0.0028520752522291463
40
0
40
0
40
0
40
0.41374629194293155
40
0.41374629194293155
40
0.41374629194293155
40
0.80625828758294937
40
0.80625828758294937
40
0.80625828758294937
40
0.80625828758294937
10
79.829006299595079
20
8.5138469079585537
30
0
10
79.827809292167927
20
8.5138438533859588
30
0
10
79.826612284740733
20
8.513840798813364
30
0
10
79.825415277313596
20
8.5138377442407691
30
0
10
79.824218269886472
20
8.5138346896681742
30
0
10
79.823021262459335
20
8.5138316350955776
30
0
10
79.821824255032197
20
8.5138285805229827
30
0
10
77.970874526307355
20
8.5091052511699878
30
0
10
76.19342071834248
20
7.8652034216339857
30
0
10
74.814370487979929
20
6.8074660999174146
30
0
10
73.506095903897148
20
5.8040139963100055
30
0
10
72.506552208172423
20
4.4167247078989789
30
0
10
71.981840254709752
20
2.7988559999999421
30
0
0
LINE
5
121
100
AcDbEntity
8
0
100
AcDbLine
10
71.981840254709752
20
2.7988559999999425
30
0
11
60.779050893176276
21
2.7988499532200906
31
0
0
SPLINE
5
122
100
AcDbEntity
8
0
100
AcDbSpline
70
0
71
3
72
17
73
13
74
0
42
0.000000001
43
0.0000000001
44
0.0000000001
40
-0.0056827971136848097
40
-0.0056827971136848097
40
-0.0056827971136848097
40
-0.0056827971136848097
40
-0.0028413985568424048
40
-0.0028413985568424048
40
-0.0028413985568424048
40
0
40
0
40
0
40
0.41373644092236483
40
0.41373644092236483
40
0.41373644092236483
40
0.45461962454053267
40
0.45461962454053267
40
0.45461962454053267
40
0.45461962454053267
10
60.779050893176276
20
2.798849953220091
30
0
10
60.777858366726186
20
2.7988469214478311
30
0
10
60.776665840274376
20
2.7988438896755681
30
0
10
60.775473313824264
20
2.7988408579033077
30
0
10
60.774280787375218
20
2.7988378261310487
30
0
10
60.773088260925114
20
2.7988347943587883
30
0
10
60.771895734477425
20
2.7988317625865342
30
0
10
58.92097392707133
20
2.7941261450374411
30
0
10
57.143529102284269
20
2.1502558176168498
30
0
10
55.764479403401019
20
1.0925556185916363
30
0
10
55.628209216679416
20
0.98803944072410688
30
0
10
55.495685773106025
20
0.87968213535604556
30
0
10
55.366273659493153
20
0.76698079747927084
30
0
0
LINE
5
123
100
AcDbEntity
8
0
100
AcDbLine
10
55.366273659493146
20
0.76698079747927084
30
0
11
25.915478448196112
21
0.76792300836687755
31
0
0
LINE
5
124
100
AcDbEntity
8
0
100
AcDbLine
10
25.915478448196112
20
0.76792300836687755
30
0
11
10.603790773808219
21
0.76684944358411999
31
0
0
ARC
5
125
100
AcDbEntity
8
0
100
AcDbCircle
10
10.617831274891504
20
-7.3102960024957202
30
0
40
8.0771576493714026
210
0
220
0
230
1
100
AcDbArc
50
90.099597147211981
51
91.644249890773068
0
SPLINE
5
126
100
AcDbEntity
8
0
100
AcDbSpline
70
0
71
3
72
20
73
16
74
0
42
0.000000001
43
0.0000000001
44
0.0000000001
40
0.015726220577346201
40
0.015726220577346201
40
0.015726220577346201
40
0.015726220577346201
40
0.41346107355923117
40
0.41346107355923117
40
0.41346107355923117
40
0.86795711824561006
40
0.86795711824561006
40
0.86795711824561006
40
1
40
1
40
1
40
1.0032942689811895
40
1.0032942689811895
40
1.0032942689811895
40
1.0065885379623787
40
1.0065885379623787
40
1.0065885379623787
40
1.0065885379623787
10
10.386068257450024
20
0.76353590042036368
30
0
10
8.6122339760593754
20
0.71259543400877701
30
0
10
6.9180219502343077
20
0.0786798522219294
30
0
10
5.5920851084179031
20
-0.93745822263883949
30
0
10
4.0769223169464919
20
-2.0986105139631439
30
0
10
2.9733337215003921
20
-3.7756863837389298
30
0
10
2.5454654862823665
20
-5.7279229653525441
30
0
10
2.4211586733851536
20
-6.2950982952951389
30
0
10
2.3556875861823983
20
-6.8825169690438077
30
0
10
2.3539379335158306
20
-7.472917852047293
30
0
10
2.3539338354452219
20
-7.4743007005131998
30
0
10
2.3539297373746035
20
-7.4756835489825164
30
0
10
2.3539256393039798
20
-7.4770663974538287
30
0
10
2.3539215412333836
20
-7.478449245915149
30
0
10
2.3539174431627687
20
-7.4798320943834344
30
0
10
2.3539133450921588
20
-7.4812149428497365
30
0
0
LINE
5
127
100
AcDbEntity
8
0
100
AcDbLine
10
2.3539133450921592
20
-7.4812149428497365
30
0
11
2.352659986747403
21
-78.39886589168924
31
0
0
LINE
5
128
100
AcDbEntity
8
0
100
AcDbLine
10
2.352659986747403
20
-78.39886589168924
30
0
11
2.3531803683528718
21
-80.984437698453959
31
0
0
SPLINE
5
129
100
AcDbEntity
8
0
100
AcDbSpline
70
0
71
3
72
10
73
6
74
0
42
0.000000001
43
0.0000000001
44
0.0000000001
40
-1.9194015011085779
40
-1.9194015011085779
40
-1.9194015011085779
40
-1.9194015011085779
40
-1.1058484718955051
40
-1.1058484718955051
40
-0.79922472127157951
40
-0.79922472127157951
40
-0.79922472127157951
40
-0.79922472127157951
10
2.3531803683528709
20
-80.984437698453959
30
0
10
-1.6222609703149833
20
-84.279843993154401
30
0
10
-4.3683627096273945
20
-87.022248971642981
30
0
10
-7.0104224517553728
20
-89.660752012717566
30
0
10
-7.7336281832843206
20
-90.382984175577292
30
0
10
-8.4568339148132772
20
-91.105216338437032
30
0
0
SPLINE
5
130
100
AcDbEntity
8
0
100
AcDbSpline
70
0
71
3
72
16
73
12
74
0
42
0.000000001
43
0.0000000001
44
0.0000000001
40
0
40
0
40
0
40
0
40
0.11719334201607901
40
0.11719334201607901
40
0.23438668403215804
40
0.23438668403215804
40
0.35158002604823801
40
0.35158002604823801
40
0.4118663326806733
40
0.4118663326806733
40
0.47215263931310641
40
0.47215263931310641
40
0.47215263931310641
40
0.47215263931310641
10
-8.4617459078609922
20
-95.345796917623474
30
-2.2204460492503131e-15
10
-8.7375190183480331
20
-95.069116061545472
30
-2.2204460492503131e-15
10
-8.9566136639314564
20
-94.741215804494075
30
-1.1102230246251565e-15
10
-9.2567816640334666
20
-94.019889532918043
30
-1.1102230246251565e-15
10
-9.3349852488668912
20
-93.633359790702912
30
-1.1102230246251565e-15
10
-9.3388278975162251
20
-92.852080293722224
30
-1.1102230246251565e-15
10
-9.2644302235166425
20
-92.464799996778055
30
-1.1102230246251565e-15
10
-9.0425240646515093
20
-91.916396102801343
30
-1.1102230246251565e-15
10
-8.948620242705406
20
-91.738158343581247
30
-1.1102230246251565e-15
10
-8.7265907306110275
20
-91.403145645847758
30
-1.1102230246251565e-15
10
-8.599025778296042
20
-91.247216785373638
30
-1.1102230246251565e-15
10
-8.4568339148132861
20
-91.10521633843706
30
-1.1102230246251565e-15
0
LINE
5
131
100
AcDbEntity
8
0
100
AcDbLine
10
-8.4617459078609922
20
-95.345796917623474
30
-2.2204460492503131e-15
11
-5.366348208246805
21
-98.45138354975947
31
0
0
LINE
5
132
100
AcDbEntity
8
0
100
AcDbLine
10
-5.366348208246805
20
-98.45138354975947
30
0
11
10.54807560930135
21
-115.60710524263621
31
1.1102230246251565e-15
0
LINE
5
133
100
AcDbEntity
8
0
100
AcDbLine
10
25.915610563214528
20
-6.2320769994422083
30
0
11
59.26825350828706
21
-6.2331456635000215
31
0
0
SPLINE
5
134
100
AcDbEntity
8
0
100
AcDbSpline
70
0
71
3
72
8
73
4
74
0
42
0.000000001
43
0.0000000001
44
0.0000000001
40
-0.99994237664044017
40
-0.99994237664044017
40
-0.99994237664044017
40
-0.99994237664044017
40
-6.1733281183430896e-05
40
-6.1733281183430896e-05
40
-6.1733281183430896e-05
40
-6.1733281183430896e-05
10
59.26825350828706
20
-6.2331456635000215
30
0
10
59.420045140480482
20
-6.2335168376491534
30
0
10
59.529362129439349
20
-6.1241450153561603
30
0
10
59.528964909508311
20
-5.9725266420246399
30
0
0
LINE
5
135
100
AcDbEntity
8
0
100
AcDbLine
10
59.528964909508304
20
-5.972526642024639
30
0
11
59.528964853527285
21
-5.4617825581731552
31
0
0
SPLINE
5
136
100
AcDbEntity
8
0
100
AcDbSpline
70
0
71
3
72
8
73
4
74
0
42
0.000000001
43
0.0000000001
44
0.0000000001
40
-1
40
-1
40
-1
40
-1
40
-0
40
-0
40
-0
40
-0
10
59.528964853527278
20
-5.4617825581731552
30
0
10
59.530843489626754
20
-4.7718415345360938
30
0
10
60.099729739995453
20
-4.202899713593979
30
0
10
60.789691848964836
20
-4.2011456158275653
30
0
0
LINE
5
137
100
AcDbEntity
8
0
100
AcDbLine
10
60.789691848964836
20
-4.2011456158275653
30
0
11
78.318253844403387
21
-4.2011456643183047
31
0
0
SPLINE
5
138
100
AcDbEntity
8
0
100
AcDbSpline
70
0
71
3
72
8
73
4
74
0
42
0.000000001
43
0.0000000001
44
0.0000000001
40
-0.99994163859684171
40
-0.99994163859684171
40
-0.99994163859684171
40
-0.99994163859684171
40
-0.0032820369654089306
40
-0.0032820369654089306
40
-0.0032820369654089306
40
-0.0032820369654089306
10
78.318253844403387
20
-4.2011456643183047
30
0
10
78.469556428561617
20
-4.2015154812735584
30
0
10
78.578657537210177
20
-4.0928482702742972
30
0
10
78.578964908766665
20
-3.9419889875121528
30
0
0
LINE
5
139
100
AcDbEntity
8
0
100
AcDbLine
10
78.578964908766665
20
-3.9419889875121528
30
0
11
78.578964853553771
21
0.25321345155665309
31
0
0
SPLINE
5
140
100
AcDbEntity
8
0
100
AcDbSpline
70
0
71
3
72
8
73
4
74
0
42
0.000000001
43
0.0000000001
44
0.0000000001
40
-1
40
-1
40
-1
40
-1
40
-0
40
-0
40
-0
40
-0
10
78.578964853553785
20
0.25321345155665248
30
0
10
78.580843500153634
20
0.9431534006961948
30
0
10
79.149727576765741
20
1.5120907050968289
30
0
10
79.839687083668792
20
1.5138513720348656
30
0
0
LINE
5
141
100
AcDbEntity
8
0
100
AcDbLine
10
79.839687083668792
20
1.5138513720348656
30
0
11
97.241232004380024
21
1.5138513896252903
31
0
0
SPLINE
5
142
100
AcDbEntity
8
0
100
AcDbSpline
70
0
71
3
72
8
73
4
74
0
42
0.000000001
43
0.0000000001
44
0.0000000001
40
-1
40
-1
40
-1
40
-1
40
-0.002422319147842758
40
-0.002422319147842758
40
-0.002422319147842758
40
-0.002422319147842758
10
97.241232004380024
20
1.5138513896252903
30
0
10
97.93034387526734
20
1.5121024120273296
30
0
10
98.501072818968026
20
0.94466484394861649
30
0
10
98.501964909099513
20
0.25551362831323166
30
0
0
LINE
5
143
100
AcDbEntity
8
0
100
AcDbLine
10
98.501964909099513
20
0.25551362831323193
30
0
11
98.501961165166719
21
-2.1597894410503136
31
0
0
SPLINE
5
144
100
AcDbEntity
8
0
100
AcDbSpline
70
0
71
3
72
8
73
4
74
0
42
0.000000001
43
0.0000000001
44
0.0000000001
40
-1
40
-1
40
-1
40
-1
40
-4.3541444904537834e-05
40
-4.3541444904537834e-05
40
-4.3541444904537834e-05
40
-4.3541444904537834e-05
10
98.501961165166705
20
-2.159789441050314
30
0
10
98.502375920265337
20
-2.3128848736013441
30
0
10
98.614628678335876
20
-2.4235123793938809
30
0
10
98.762672510031337
20
-2.4231456643069254
30
0
0
LINE
5
145
100
AcDbEntity
8
0
100
AcDbLine
10
98.762672510031351
20
-2.4231456643069254
30
0
11
116.16422726489819
21
-2.4231455983682872
31
0
0
SPLINE
5
146
100
AcDbEntity
8
0
100
AcDbSpline
70
0
71
3
72
8
73
4
74
0
42
0.000000001
43
0.0000000001
44
0.0000000001
40
-1
40
-1
40
-1
40
-1
40
-0.0024223212487286573
40
-0.0024223212487286573
40
-0.0024223212487286573
40
-0.0024223212487286573
10
116.16422726489822
20
-2.4231455983682872
30
0
10
116.8533417019453
20
-2.4248880503256638
30
0
10
117.4240727955611
20
-2.992330068831456
30
0
10
117.4249649090995
20
-3.6814823499439573
30
0
0
LINE
5
147
100
AcDbEntity
8
0
100
AcDbLine
10
117.4249649090995
20
-3.6814823499439568
30
0
11
117.42496116516671
21
-11.684789441050293
31
0
0
SPLINE
5
148
100
AcDbEntity
8
0
100
AcDbSpline
70
0
71
3
72
8
73
4
74
0
42
0.000000001
43
0.0000000001
44
0.0000000001
40
-1
40
-1
40
-1
40
-1
40
-0.0010395587999701618
40
-0.0010395587999701618
40
-0.0010395587999701618
40
-0.0010395587999701618
10
117.42496116516669
20
-11.684789441050293
30
0
10
117.4253755071441
20
-11.837732381253808
30
0
10
117.53740516816728
20
-11.948291953832634
30
0
10
117.68523037018041
20
-11.948146398169111
30
0
0
LINE
5
149
100
AcDbEntity
8
0
100
AcDbLine
10
117.68523037018041
20
-11.948146398169108
30
0
11
118.32039916405287
21
-11.947077000000002
31
0
0
LINE
5
150
100
AcDbEntity
8
0
100
AcDbLine
10
118.32039916405287
20
-11.947077000000002
30
0
11
135.33888666434686
21
-11.947077000000002
31
0
0
LINE
5
151
100
AcDbEntity
8
0
100
AcDbLine
10
135.33888666434686
20
-11.947077000000002
30
0
11
139.34147402633801
21
-11.948145600294197
31
0
0
SPLINE
5
152
100
AcDbEntity
8
0
100
AcDbSpline
70
0
71
3
72
8
73
4
74
0
42
0.000000001
43
0.0000000001
44
0.0000000001
40
-1
40
-1
40
-1
40
-1
40
-0.0018852077394640341
40
-0.0018852077394640341
40
-0.0018852077394640341
40
-0.0018852077394640341
10
139.34147402633801
20
-11.948145600294197
30
0
10
140.03086715187234
20
-11.949889806798719
30
0
10
140.60151659415504
20
-12.517801990967891
30
0
10
140.60221015564099
20
-13.207294284849079
30
0
0
LINE
5
153
100
AcDbEntity
8
0
100
AcDbLine
10
140.60221015564099
20
-13.207294284849079
30
0
11
140.60220788976832
21
-68.581039325255546
31
0
0
SPLINE
5
154
100
AcDbEntity
8
0
100
AcDbSpline
70
0
71
3
72
8
73
4
74
0
42
0.000000001
43
0.0000000001
44
0.0000000001
40
-1
40
-1
40
-1
40
-1
40
-0.00192792002609479
40
-0.00192792002609479
40
-0.00192792002609479
40
-0.00192792002609479
10
140.60220788976832
20
-68.581039325255546
30
0
10
140.60366335253988
20
-69.271698158746545
30
0
10
140.03323839945625
20
-69.843549949779742
30
0
10
139.34300607298314
20
-69.844094933963987
30
0
0
LINE
5
155
100
AcDbEntity
8
0
100
AcDbLine
10
139.34300607298314
20
-69.844094933963987
30
0
11
135.33875652203182
21
-69.843077000000008
31
0
0
LINE
5
156
100
AcDbEntity
8
0
100
AcDbLine
10
135.33875652203182
20
-69.843077000000008
30
0
11
74.505845278756254
21
-69.843077000000008
31
0
0
LINE
5
157
100
AcDbEntity
8
0
100
AcDbLine
10
74.505845278756254
20
-69.843077000000008
30
0
11
64.459041835062948
21
-69.844091541132343
31
0
0
SPLINE
5
158
100
AcDbEntity
8
0
100
AcDbSpline
70
0
71
3
72
8
73
4
74
0
42
0.000000001
43
0.0000000001
44
0.0000000001
40
-1
40
-1
40
-1
40
-1
40
-0
40
-0
40
-0
40
-0
10
64.459041835062948
20
-69.844091541132343
30
0
10
64.308184965810653
20
-69.844455962627961
30
0
10
64.195924123924542
20
-69.95728288967652
30
0
10
64.195833908489107
20
-70.106395507662171
30
0
0
LINE
5
159
100
AcDbEntity
8
0
100
AcDbLine
10
64.195833908489107
20
-70.106395507662171
30
0
11
64.195580002322089
21
-81.026982974239203
31
0
0
LINE
5
160
100
AcDbEntity
8
0
100
AcDbLine
10
64.195580002322089
20
-81.026982974239203
30
0
11
64.195833909368559
21
-81.662791949459077
31
0
0
SPLINE
5
161
100
AcDbEntity
8
0
100
AcDbSpline
70
0
71
3
72
8
73
4
74
0
42
0.000000001
43
0.0000000001
44
0.0000000001
40
-1
40
-1
40
-1
40
-1
40
-0.016411883176191775
40
-0.016411883176191775
40
-0.016411883176191775
40
-0.016411883176191775
10
64.195833909368559
20
-81.662791949459091
30
0
10
64.196243481807457
20
-82.343030495837169
30
0
10
63.643781013951838
20
-82.907674675814292
30
0
10
62.968044178517026
20
-82.925657518851196
30
0
0
SPLINE
5
162
100
AcDbEntity
8
0
100
AcDbSpline
70
0
71
3
72
8
73
4
74
0
42
0.000000001
43
0.0000000001
44
0.0000000001
40
-0.99951434043635723
40
-0.99951434043635723
40
-0.99951434043635723
40
-0.99951434043635723
40
-1.1877416530311175e-06
40
-1.1877416530311175e-06
40
-1.1877416530311175e-06
40
-1.1877416530311175e-06
10
62.968044178517026
20
-82.92565751885121
30
0
10
44.98150944538979
20
-85.111945724080073
30
0
10
28.182684605415655
20
-93.05120679280293
30
0
10
15.074684055858148
20
-105.56090810332343
30
0
0
SPLINE
5
163
100
AcDbEntity
8
0
100
AcDbSpline
70
0
71
3
72
11
73
7
74
0
42
0.000000001
43
0.0000000001
44
0.0000000001
40
-1
40
-1
40
-1
40
-1
40
-0
40
-0
40
-0
40
0.19781499994111862
40
0.19781499994111862
40
0.19781499994111862
40
0.19781499994111862
10
15.074684052960317
20
-105.56090810028699
30
0
10
14.440615536731302
20
-106.16619277939191
30
0
10
13.8159994198543
20
-106.78140549671369
30
0
10
13.201044210980333
20
-107.40581201019123
30
0
10
13.078692864106753
20
-107.53004378645426
30
0
10
12.956341517233172
20
-107.65427556271726
30
0
10
12.833990170359586
20
-107.77850733898029
30
0
0
LINE
5
164
100
AcDbEntity
8
0
100
AcDbLine
10
12.833990170359584
20
-107.77850733898028
30
0
11
-0.31982588054966676
21
-93.598716103317429
31
0
0
LINE
5
165
100
AcDbEntity
8
0
100
AcDbLine
10
-0.31982588054966676
20
-93.598716103317429
30
0
11
-0.68283276206537735
21
-93.234514334107246
31
0
0
SPLINE
5
166
100
AcDbEntity
8
0
100
AcDbSpline
70
0
71
3
72
11
73
7
74
0
42
0.000000001
43
0.0000000001
44
0.0000000001
40
-1.0381072534018954
40
-1.0381072534018954
40
-1.0381072534018954
40
-1.0381072534018954
40
-1
40
-1
40
-1
40
-0.018645602422487469
40
-0.018645602422487469
40
-0.018645602422487469
40
-0.018645602422487469
10
-0.68283276206537347
20
-93.234514334107232
30
0
10
-0.56501656672274159
20
-93.116856741153256
30
0
10
-0.4472003713801021
20
-92.999199148199267
30
0
10
-0.32938417603746284
20
-92.881541555245292
30
0
10
2.719263013425739
20
-89.836998408736633
30
0
10
5.953314457380583
20
-86.984060278955837
30
0
10
9.3538557066290657
20
-84.339223916728244
30
0
0
LINE
5
167
100
AcDbEntity
8
0
100
AcDbLine
10
9.353855706629064
20
-84.339223916728244
30
0
11
9.3526599991164971
21
-78.398222926111941
31
0
0
LINE
5
168
100
AcDbEntity
8
0
100
AcDbLine
10
9.3526599991164971
20
-78.398222926111941
30
0
11
9.3539071955677233
21
-7.4936622568031552
31
0
0
SPLINE
5
169
100
AcDbEntity
8
0
100
AcDbSpline
70
0
71
3
72
8
73
4
74
0
42
0.000000001
43
0.0000000001
44
0.0000000001
40
-1
40
-1
40
-1
40
-1
40
-0.11273244672916755
40
-0.11273244672916755
40
-0.11273244672916755
40
-0.11273244672916755
10
9.3539071955677233
20
-7.4936622568031535
30
0
10
9.355721163199572
20
-6.8815590022273057
30
0
10
9.8036748873745179
20
-6.3647018239662678
30
0
10
10.386560336108362
20
-6.254722195118001
30
0
0
ARC
5
170
100
AcDbEntity
8
0
100
AcDbCircle
10
10.617490544093634
20
-7.4795468292022029
30
0
40
1.2464044870023625
210
0
220
0
230
1
100
AcDbArc
50
90.131333027650484
51
100.67728831841771
0
LINE
5
171
100
AcDbEntity
8
0
100
AcDbLine
10
10.614633546021512
20
-6.2331456165978345
30
0
11
25.915610563214528
21
-6.2320769994422083
31
0
0
CIRCLE
5
172
100
AcDbEntity
8
0
100
AcDbCircle
10
5.8532851316309431
20
-42.942991504363519
30
0
40
2.25
210
0
220
0
230
1
0
CIRCLE
5
173
100
AcDbEntity
8
0
100
AcDbCircle
10
-5.6301790965231069
20
-93.228783672857986
30
0
40
2.25
210
0
220
0
230
1
0
CIRCLE
5
174
100
AcDbEntity
8
0
100
AcDbCircle
10
12.758286362876539
20
-112.84330371184242
30
0
40
2.25
210
0
220
0
230
1
0
CIRCLE
5
175
100
AcDbEntity
8
0
100
AcDbCircle
10
67.761557588698452
20
-73.409327633561659
30
0
40
2.25
210
0
220
0
230
1
0
CIRCLE
5
176
100
AcDbEntity
8
0
100
AcDbCircle
10
142.58222322250558
20
-71.814220999230741
30
0
40
2.25
210
0
220
0
230
1
0
CIRCLE
5
177
100
AcDbEntity
8
0
100
AcDbCircle
10
142.57522574105718
20
-9.9710541323005621
30
0
40
2.25
210
0
220
0
230
1
0
CIRCLE
5
178
100
AcDbEntity
8
0
100
AcDbCircle
10
88.540427443248717
20
5.0138492056102368
30
0
40
2.25
210
0
220
0
230
1
0
CIRCLE
5
179
100
AcDbEntity
8
0
100
AcDbCircle
10
42.475968157521997
20
-2.7324798534943815
30
0
40
2.25
210
0
220
0
230
1
0
CIRCLE
5
180
100
AcDbEntity
8
0
100
AcDbCircle
10
7.0060751105691637
20
-4.4869238488712675
30
0
40
2.25
210
0
220
0
230
1
0
CIRCLE
5
181
100
AcDbEntity
8
0
100
AcDbCircle
10
5.8532851316309431
20
-42.942991504363519
30
0
40
2.25
210
0
220
0
230
1
0
CIRCLE
5
182
100
AcDbEntity
8
0
100
AcDbCircle
10
-5.6301790965231069
20
-93.228783672857986
30
0
40
2.25
210
0
220
0
230
1
0
CIRCLE
5
183
100
AcDbEntity
8
0
100
AcDbCircle
10
12.758286362876539
20
-112.84330371184242
30
0
40
2.25
210
0
220
0
230
1
0
CIRCLE
5
184
100
AcDbEntity
8
0
100
AcDbCircle
10
67.761557588698452
20
-73.409327633561659
30
0
40
2.25
210
0
220
0
230
1
0
CIRCLE
5
185
100
AcDbEntity
8
0
100
AcDbCircle
10
142.58222322250558
20
-71.814220999230741
30
0
40
2.25
210
0
220
0
230
1
0
CIRCLE
5
186
100
AcDbEntity
8
0
100
AcDbCircle
10
142.57522574105718
20
-9.9710541323005621
30
0
40
2.25
210
0
220
0
230
1
0
CIRCLE
5
187
100
AcDbEntity
8
0
100
AcDbCircle
10
88.540427443248717
20
5.0138492056102368
30
0
40
2.25
210
0
220
0
230
1
0
CIRCLE
5
188
100
AcDbEntity
8
0
100
AcDbCircle
10
42.475968157521997
20
-2.7324798534943815
30
0
40
2.25
210
0
220
0
230
1
0
CIRCLE
5
189
100
AcDbEntity
8
0
100
AcDbCircle
10
7.0060751105691637
20
-4.4869238488712675
30
0
40
2.25
210
0
220
0
230
1
0
SPLINE
5
190
100
AcDbEntity
8
0
100
AcDbSpline
70
0
71
3
72
16
73
12
74
0
42
0.000000001
43
0.0000000001
44
0.0000000001
40
0
40
0
40
0
40
0
40
0.11719334201607852
40
0.11719334201607852
40
0.23438668403215679
40
0.23438668403215679
40
0.35158002604823513
40
0.35158002604823513
40
0.41880276479710826
40
0.41880276479710826
40
0.48602550354598167
40
0.48602550354598167
40
0.48602550354598167
40
0.48602550354598167
10
14.884906799118063
20
-115.67192811197003
30
0
10
14.610793908047013
20
-115.95025386991639
30
0
10
14.284938476046182
20
-116.17237833892703
30
0
10
13.566425380517529
20
-116.47921925846815
30
0
10
13.180637093802849
20
-116.56100214256656
30
0
10
12.399426774163061
20
-116.57208613279117
30
0
10
12.011473537686223
20
-116.50128126992955
30
0
10
11.439523682834809
20
-116.27599395798975
30
0
10
11.240893845644212
20
-116.17077263072608
30
0
10
10.870784077994418
20
-115.91807002093178
30
0
10
10.700466510002755
20
-115.77138237330288
30
0
10
10.54807560930135
20
-115.60710524263621
30
0
0
SPLINE
5
191
100
AcDbEntity
8
0
100
AcDbSpline
70
0
71
3
72
8
73
4
74
0
42
0.000000001
43
0.0000000001
44
0.0000000001
40
-0.3489274426805562
40
-0.3489274426805562
40
-0.3489274426805562
40
-0.3489274426805562
40
0
40
0
40
0
40
0
10
14.884906799118065
20
-115.67192811197003
30
0
10
18.441328339761792
20
-112.06084759325077
30
0
10
19.066866951705808
20
-111.42735996522048
30
0
10
19.908170794404711
20
-110.62424750430498
30
0
0
SPLINE
5
192
100
AcDbEntity
8
0
100
AcDbSpline
70
0
71
3
72
8
73
4
74
0
42
0.000000001
43
0.0000000001
44
0.0000000001
40
1.9433332375246123e-05
40
1.9433332375246123e-05
40
1.9433332375246123e-05
40
1.9433332375246123e-05
40
0.99589815244268565
40
0.99589815244268565
40
0.99589815244268565
40
0.99589815244268565
10
19.908170841812005
20
-110.62424755399138
30
0
10
31.881778715812121
20
-99.197430740689782
30
0
10
47.211879577843547
20
-91.931544460912548
30
0
10
63.633753285901079
20
-89.896473906467321
30
0
0
SPLINE
5
193
100
AcDbEntity
8
0
100
AcDbSpline
70
0
71
3
72
14
73
10
74
0
42
0.000000001
43
0.0000000001
44
0.0000000001
40
0.052273269013483704
40
0.052273269013483704
40
0.052273269013483704
40
0.052273269013483704
40
0.41483076128064056
40
0.41483076128064056
40
0.41483076128064056
40
0.86984727662195116
40
0.86984727662195116
40
0.86984727662195116
40
1
40
1
40
1
40
1
10
63.633753285901093
20
-89.896473906467534
30
0
10
65.237295022030452
20
-89.760356485576565
30
0
10
66.756966710370364
20
-89.147002383078956
30
0
10
67.970840424806781
20
-88.213250507136109
30
0
10
69.494274912819705
20
-87.04137422862344
30
0
10
70.598940049434546
20
-85.343029008204624
30
0
10
71.015572765696874
20
-83.381032752449769
30
0
10
71.134746204114293
20
-82.819824208728065
30
0
10
71.196182763952379
20
-82.240079868347479
30
0
10
71.195832640528451
20
-81.658577241886391
30
0
0
LINE
5
194
100
AcDbEntity
8
0
100
AcDbLine
10
71.195832640528451
20
-81.658577241886391
30
0
11
71.195580034831238
21
-81.025666613629795
31
0
0
LINE
5
195
100
AcDbEntity
8
0
100
AcDbLine
10
71.195580034831238
20
-81.025666613629795
30
0
11
71.19560754036587
21
-79.843038646812602
31
0
0
ARC
5
196
100
AcDbEntity
8
0
100
AcDbCircle
10
74.195607539554487
20
-79.84310842074504
30
0
40
2.9999999999999982
210
0
220
0
230
1
100
AcDbArc
50
90.005793450726145
51
179.99866741631928
0
LINE
5
197
100
AcDbEntity
8
0
100
AcDbLine
10
74.195304195184335
20
-76.843108436081337
30
0
11
74.506199180465416
21
-76.843077000000022
31
0
0
LINE
5
198
100
AcDbEntity
8
0
100
AcDbLine
10
74.506199180465416
20
-76.843077000000022
30
0
11
135.33786783065185
21
-76.843077000000022
31
0
0
LINE
5
199
100
AcDbEntity
8
0
100
AcDbLine
10
135.33786783065185
20
-76.843077000000022
30
0
11
139.33830466113466
21
-76.844093578664882
31
0
0
SPLINE
5
200
100
AcDbEntity
8
0
100
AcDbSpline
70
0
71
3
72
14
73
10
74
0
42
0.000000001
43
0.0000000001
44
0.0000000001
40
0.0012037225973479898
40
0.0012037225973479898
40
0.0012037225973479898
40
0.0012037225973479898
40
0.41427105489097876
40
0.41427105489097876
40
0.41427105489097876
40
0.86948300463283745
40
0.86948300463283745
40
0.86948300463283745
40
0.99882240253579069
40
0.99882240253579069
40
0.99882240253579069
40
0.99882240253579069
10
139.33830466092633
20
-76.844094399096818
30
0
10
141.1869435181091
20
-76.844939084816872
30
0
10
142.97682238508602
20
-76.205442273173588
30
0
10
144.36597305463033
20
-75.14099373337811
30
0
10
145.89685660636798
20
-73.967941164660985
30
0
10
147.00632375593418
20
-72.263418749718099
30
0
10
147.42289635756219
20
-70.296573098367958
30
0
10
147.54125715522576
20
-69.737733128420047
30
0
10
147.6023255230628
20
-69.160717901586082
30
0
10
147.60221057007931
20
-68.582092999999134
30
0
0
LINE
5
201
100
AcDbEntity
8
0
100
AcDbLine
10
147.60221057007928
20
-68.582092999999134
30
0
11
147.60220978576831
21
-13.210143999999708
31
0
0
SPLINE
5
202
100
AcDbEntity
8
0
100
AcDbSpline
70
0
71
3
72
20
73
16
74
0
42
0.000000001
43
0.0000000001
44
0.0000000001
40
0.0011786900309881929
40
0.0011786900309881929
40
0.0011786900309881929
40
0.0011786900309881929
40
0.40927542247564441
40
0.40927542247564441
40
0.40927542247564441
40
0.87102598953680754
40
0.87102598953680754
40
0.87102598953680754
40
1
40
1
40
1
40
1.0025395856347523
40
1.0025395856347523
40
1.0025395856347523
40
1.0050791712695049
40
1.0050791712695049
40
1.0050791712695049
40
1.0050791712695049
10
147.60221057153663
20
-13.210143999999689
30
0
10
147.6025732249654
20
-11.377354255754625
30
0
10
146.97363763719335
20
-9.6086740838912057
30
0
10
145.93476536220021
20
-8.2327976936611016
30
0
10
144.75930909424966
20
-6.676030258673185
30
0
10
143.04511453986831
20
-5.5519271736747999
30
0
10
141.06069503693578
20
-5.1294037159645303
30
0
10
140.50641625529073
20
-5.0113864383626803
30
0
10
139.93392127504646
20
-4.9496221236481341
30
0
10
139.35918439506958
20
-4.9481680044129508
30
0
10
139.35811337815662
20
-4.9481652946750723
30
0
10
139.35704236125164
20
-4.9481625849372133
30
0
10
139.35597134435164
20
-4.948159875199365
30
0
10
139.35490032742615
20
-4.9481571654614545
30
0
10
139.35382931051848
20
-4.9481544557235893
30
0
10
139.3527582936058
20
-4.9481517459857107
30
0
0
LINE
5
203
100
AcDbEntity
8
0
100
AcDbLine
10
139.35275829360577
20
-4.9481517459857098
30
0
11
135.33981996524454
21
-4.9470770000000019
31
0
0
LINE
5
204
100
AcDbEntity
8
0
100
AcDbLine
10
135.33981996524454
20
-4.9470770000000019
30
0
11
124.42496300000001
21
-4.9470770000000019
31
0
0
LINE
5
205
100
AcDbEntity
8
0
100
AcDbLine
10
124.42496300000001
20
-4.9470770000000019
30
0
11
124.42496429816494
21
-3.6851439999992297
31
0
0
SPLINE
5
206
100
AcDbEntity
8
0
100
AcDbSpline
70
0
71
3
72
20
73
16
74
0
42
0.000000001
43
0.0000000001
44
0.0000000001
40
0.0015146416662986069
40
0.0015146416662986069
40
0.0015146416662986069
40
0.0015146416662986069
40
0.40867608758513613
40
0.40867608758513613
40
0.40867608758513613
40
0.87147714426173561
40
0.87147714426173561
40
0.87147714426173561
40
1
40
1
40
1
40
1.0028384541807278
40
1.0028384541807278
40
1.0028384541807278
40
1.0056769083614558
40
1.0056769083614558
40
1.0056769083614558
40
1.0056769083614558
10
124.42496559632987
20
-3.6851439999992297
30
0
10
124.42543074415011
20
-1.8556585225052067
30
0
10
123.79856047263658
20
-0.089206346890858101
30
0
10
122.76270622925477
20
1.2855697950714458
30
0
10
121.58529996153165
20
2.8482124705293788
30
0
10
119.8659588081813
20
3.9751918035674487
30
0
10
117.87700881643134
20
4.396982953900177
30
0
10
117.32466450093655
20
4.5141170926058525
30
0
10
116.75437473929053
20
4.575384568615787
30
0
10
116.18192697347314
20
4.576832024475685
30
0
10
116.1807291940621
20
4.576835053106298
30
0
10
116.17953141465156
20
4.5768380817369083
30
0
10
116.17833363524082
20
4.5768411103675195
30
0
10
116.17713585583276
20
4.5768441389981245
30
0
10
116.17593807642035
20
4.5768471676287383
30
0
10
116.17474029700917
20
4.5768501962593504
30
0
0
LINE
5
207
100
AcDbEntity
8
0
100
AcDbLine
10
116.17474029700915
20
4.5768501962593513
30
0
11
104.27994916211202
21
4.5768560000005447
31
0
0
SPLINE
5
208
100
AcDbEntity
8
0
100
AcDbSpline
70
0
71
3
72
20
73
16
74
0
42
0.000000001
43
0.0000000001
44
0.0000000001
40
0.34725260923150514
40
0.34725260923150514
40
0.34725260923150514
40
0.34725260923150514
40
0.40866704128344788
40
0.40866704128344788
40
0.40866704128344788
40
0.87148233937696373
40
0.87148233937696373
40
0.87148233937696373
40
1
40
1
40
1
40
1.0028491196522034
40
1.0028491196522034
40
1.0028491196522034
40
1.0056982393044069
40
1.0056982393044069
40
1.0056982393044069
40
1.0056982393044069
10
104.27994916211202
20
4.5768560000005447
30
0
10
104.14246894601065
20
4.8005467482462167
30
0
10
103.99601280873978
20
5.0151093075697029
30
0
10
103.83977262238197
20
5.222475570831091
30
0
10
102.66235640265343
20
6.7851746912053823
30
0
10
100.94298628642504
20
7.9121838764423877
30
0
10
98.953994701489876
20
8.3339816010525496
30
0
10
98.401678158480692
20
8.4511092263629486
30
0
10
97.831417730423283
20
8.5123760335767411
30
0
10
97.258998065700126
20
8.5138288443793524
30
0
10
97.257795785641974
20
8.5138318957865007
30
0
10
97.256593505583766
20
8.5138349471936507
30
0
10
97.255391225525585
20
8.5138379986007973
30
0
10
97.254188945467405
20
8.5138410500079438
30
0
10
97.252986665409196
20
8.5138441014150903
30
0
10
97.251784385350987
20
8.5138471528222386
30
0
0
LINE
5
209
100
AcDbEntity
8
0
100
AcDbLine
10
97.251784385350973
20
8.5138471528222368
30
0
11
79.829006299595079
21
8.5138469079585537
31
0
0
SPLINE
5
210
100
AcDbEntity
8
0
100
AcDbSpline
70
0
71
3
72
17
73
13
74
0
42
0.000000001
43
0.0000000001
44
0.0000000001
40
-0.0057041505044582927
40
-0.0057041505044582927
40
-0.0057041505044582927
40
-0.0057041505044582927
40
-0.0028520752522291463
40
-0.0028520752522291463
40
-0.0028520752522291463
40
0
40
0
40
0
40
0.41374629194293155
40
0.41374629194293155
40
0.41374629194293155
40
0.80625828758294937
40
0.80625828758294937
40
0.80625828758294937
40
0.80625828758294937
10
79.829006299595079
20
8.5138469079585537
30
0
10
79.827809292167927
20
8.5138438533859588
30
0
10
79.826612284740733
20
8.513840798813364
30
0
10
79.825415277313596
20
8.5138377442407691
30
0
10
79.824218269886472
20
8.5138346896681742
30
0
10
79.823021262459335
20
8.5138316350955776
30
0
10
79.821824255032197
20
8.5138285805229827
30
0
10
77.970874526307355
20
8.5091052511699878
30
0
10
76.19342071834248
20
7.8652034216339857
30
0
10
74.814370487979929
20
6.8074660999174146
30
0
10
73.506095903897148
20
5.8040139963100055
30
0
10
72.506552208172423
20
4.4167247078989789
30
0
10
71.981840254709752
20
2.7988559999999421
30
0
0
LINE
5
211
100
AcDbEntity
8
0
100
AcDbLine
10
71.981840254709752
20
2.7988559999999425
30
0
11
60.779050893176276
21
2.7988499532200906
31
0
0
SPLINE
5
212
100
AcDbEntity
8
0
100
AcDbSpline
70
0
71
3
72
17
73
13
74
0
42
0.000000001
43
0.0000000001
44
0.0000000001
40
-0.0056827971136848097
40
-0.0056827971136848097
40
-0.0056827971136848097
40
-0.0056827971136848097
40
-0.0028413985568424048
40
-0.0028413985568424048
40
-0.0028413985568424048
40
0
40
0
40
0
40
0.41373644092236483
40
0.41373644092236483
40
0.41373644092236483
40
0.45461962454053267
40
0.45461962454053267
40
0.45461962454053267
40
0.45461962454053267
10
60.779050893176276
20
2.798849953220091
30
0
10
60.777858366726186
20
2.7988469214478311
30
0
10
60.776665840274376
20
2.7988438896755681
30
0
10
60.775473313824264
20
2.7988408579033077
30
0
10
60.774280787375218
20
2.7988378261310487
30
0
10
60.773088260925114
20
2.7988347943587883
30
0
10
60.771895734477425
20
2.7988317625865342
30
0
10
58.92097392707133
20
2.7941261450374411
30
0
10
57.143529102284269
20
2.1502558176168498
30
0
10
55.764479403401019
20
1.0925556185916363
30
0
10
55.628209216679416
20
0.98803944072410688
30
0
10
55.495685773106025
20
0.87968213535604556
30
0
10
55.366273659493153
20
0.76698079747927084
30
0
0
LINE
5
213
100
AcDbEntity
8
0
100
AcDbLine
10
55.366273659493146
20
0.76698079747927084
30
0
11
25.915478448196112
21
0.76792300836687755
31
0
0
LINE
5
214
100
AcDbEntity
8
0
100
AcDbLine
10
25.915478448196112
20
0.76792300836687755
30
0
11
10.603790773808219
21
0.76684944358411999
31
0
0
ARC
5
215
100
AcDbEntity
8
0
100
AcDbCircle
10
10.617831274891504
20
-7.3102960024957202
30
0
40
8.0771576493714026
210
0
220
0
230
1
100
AcDbArc
50
90.099597147211981
51
91.644249890773025
0
SPLINE
5
216
100
AcDbEntity
8
0
100
AcDbSpline
70
0
71
3
72
20
73
16
74
0
42
0.000000001
43
0.0000000001
44
0.0000000001
40
0.015726220577346201
40
0.015726220577346201
40
0.015726220577346201
40
0.015726220577346201
40
0.41346107355923117
40
0.41346107355923117
40
0.41346107355923117
40
0.86795711824561006
40
0.86795711824561006
40
0.86795711824561006
40
1
40
1
40
1
40
1.0032942689811895
40
1.0032942689811895
40
1.0032942689811895
40
1.0065885379623787
40
1.0065885379623787
40
1.0065885379623787
40
1.0065885379623787
10
10.386068257450024
20
0.76353590042036368
30
0
10
8.6122339760593754
20
0.71259543400877701
30
0
10
6.9180219502343077
20
0.0786798522219294
30
0
10
5.5920851084179031
20
-0.93745822263883949
30
0
10
4.0769223169464919
20
-2.0986105139631439
30
0
10
2.9733337215003921
20
-3.7756863837389298
30
0
10
2.5454654862823665
20
-5.7279229653525441
30
0
10
2.4211586733851536
20
-6.2950982952951389
30
0
10
2.3556875861823983
20
-6.8825169690438077
30
0
10
2.3539379335158306
20
-7.472917852047293
30
0
10
2.3539338354452219
20
-7.4743007005131998
30
0
10
2.3539297373746035
20
-7.4756835489825164
30
0
10
2.3539256393039798
20
-7.4770663974538287
30
0
10
2.3539215412333836
20
-7.478449245915149
30
0
10
2.3539174431627687
20
-7.4798320943834344
30
0
10
2.3539133450921588
20
-7.4812149428497365
30
0
0
LINE
5
217
100
AcDbEntity
8
0
100
AcDbLine
10
2.3539133450921592
20
-7.4812149428497365
30
0
11
2.352659986747403
21
-78.39886589168924
31
0
0
LINE
5
218
100
AcDbEntity
8
0
100
AcDbLine
10
2.352659986747403
20
-78.39886589168924
30
0
11
2.3531803683528718
21
-80.984437698453959
31
0
0
SPLINE
5
219
100
AcDbEntity
8
0
100
AcDbSpline
70
0
71
3
72
10
73
6
74
0
42
0.000000001
43
0.0000000001
44
0.0000000001
40
-1.9194015011085779
40
-1.9194015011085779
40
-1.9194015011085779
40
-1.9194015011085779
40
-1.1058484718955051
40
-1.1058484718955051
40
-0.79922472127157951
40
-0.79922472127157951
40
-0.79922472127157951
40
-0.79922472127157951
10
2.3531803683528709
20
-80.984437698453959
30
0
10
-1.6222609703149833
20
-84.279843993154401
30
0
10
-4.3683627096273945
20
-87.022248971642981
30
0
10
-7.0104224517553728
20
-89.660752012717566
30
0
10
-7.7336281832843206
20
-90.382984175577292
30
0
10
-8.4568339148132772
20
-91.105216338437032
30
0
0
SPLINE
5
220
100
AcDbEntity
8
0
100
AcDbSpline
70
0
71
3
72
16
73
12
74
0
42
0.000000001
43
0.0000000001
44
0.0000000001
40
0
40
0
40
0
40
0
40
0.11719334201607901
40
0.11719334201607901
40
0.23438668403215804
40
0.23438668403215804
40
0.35158002604823801
40
0.35158002604823801
40
0.4118663326806733
40
0.4118663326806733
40
0.47215263931310641
40
0.47215263931310641
40
0.47215263931310641
40
0.47215263931310641
10
-8.4617459078609922
20
-95.345796917623474
30
0
10
-8.7375190183480331
20
-95.069116061545472
30
0
10
-8.9566136639314564
20
-94.741215804494075
30
0
10
-9.2567816640334666
20
-94.019889532918043
30
0
10
-9.3349852488668912
20
-93.633359790702912
30
0
10
-9.3388278975162251
20
-92.852080293722224
30
0
10
-9.2644302235166425
20
-92.464799996778055
30
0
10
-9.0425240646515093
20
-91.916396102801343
30
0
10
-8.948620242705406
20
-91.738158343581247
30
0
10
-8.7265907306110275
20
-91.403145645847758
30
0
10
-8.599025778296042
20
-91.247216785373638
30
0
10
-8.4568339148132861
20
-91.10521633843706
30
0
0
LINE
5
221
100
AcDbEntity
8
0
100
AcDbLine
10
-8.4617459078609922
20
-95.345796917623474
30
0
11
-5.366348208246805
21
-98.45138354975947
31
0
0
LINE
5
222
100
AcDbEntity
8
0
100
AcDbLine
10
-5.366348208246805
20
-98.45138354975947
30
0
11
10.54807560930135
21
-115.60710524263621
31
0
0
LINE
5
223
100
AcDbEntity
8
0
100
AcDbLine
10
25.915610563214528
20
-6.2320769994422083
30
0
11
59.26825350828706
21
-6.2331456635000215
31
0
0
SPLINE
5
224
100
AcDbEntity
8
0
100
AcDbSpline
70
0
71
3
72
8
73
4
74
0
42
0.000000001
43
0.0000000001
44
0.0000000001
40
-0.99994237664044017
40
-0.99994237664044017
40
-0.99994237664044017
40
-0.99994237664044017
40
-6.1733281183430896e-05
40
-6.1733281183430896e-05
40
-6.1733281183430896e-05
40
-6.1733281183430896e-05
10
59.26825350828706
20
-6.2331456635000215
30
0
10
59.420045140480482
20
-6.2335168376491534
30
0
10
59.529362129439349
20
-6.1241450153561603
30
0
10
59.528964909508311
20
-5.9725266420246399
30
0
0
LINE
5
225
100
AcDbEntity
8
0
100
AcDbLine
10
59.528964909508304
20
-5.972526642024639
30
0
11
59.528964853527285
21
-5.4617825581731552
31
0
0
SPLINE
5
226
100
AcDbEntity
8
0
100
AcDbSpline
70
0
71
3
72
8
73
4
74
0
42
0.000000001
43
0.0000000001
44
0.0000000001
40
-1
40
-1
40
-1
40
-1
40
0
40
0
40
0
40
0
10
59.528964853527278
20
-5.4617825581731552
30
0
10
59.530843489626754
20
-4.7718415345360938
30
0
10
60.099729739995453
20
-4.202899713593979
30
0
10
60.789691848964836
20
-4.2011456158275653
30
0
0
LINE
5
227
100
AcDbEntity
8
0
100
AcDbLine
10
60.789691848964836
20
-4.2011456158275653
30
0
11
78.318253844403387
21
-4.2011456643183047
31
0
0
SPLINE
5
228
100
AcDbEntity
8
0
100
AcDbSpline
70
0
71
3
72
8
73
4
74
0
42
0.000000001
43
0.0000000001
44
0.0000000001
40
-0.99994163859684171
40
-0.99994163859684171
40
-0.99994163859684171
40
-0.99994163859684171
40
-0.0032820369654089306
40
-0.0032820369654089306
40
-0.0032820369654089306
40
-0.0032820369654089306
10
78.318253844403387
20
-4.2011456643183047
30
0
10
78.469556428561617
20
-4.2015154812735584
30
0
10
78.578657537210177
20
-4.0928482702742972
30
0
10
78.578964908766665
20
-3.9419889875121528
30
0
0
LINE
5
229
100
AcDbEntity
8
0
100
AcDbLine
10
78.578964908766665
20
-3.9419889875121528
30
0
11
78.578964853553771
21
0.25321345155665309
31
0
0
SPLINE
5
230
100
AcDbEntity
8
0
100
AcDbSpline
70
0
71
3
72
8
73
4
74
0
42
0.000000001
43
0.0000000001
44
0.0000000001
40
-1
40
-1
40
-1
40
-1
40
0
40
0
40
0
40
0
10
78.578964853553785
20
0.25321345155665248
30
0
10
78.580843500153634
20
0.9431534006961948
30
0
10
79.149727576765741
20
1.5120907050968289
30
0
10
79.839687083668792
20
1.5138513720348656
30
0
0
LINE
5
231
100
AcDbEntity
8
0
100
AcDbLine
10
79.839687083668792
20
1.5138513720348656
30
0
11
97.241232004380024
21
1.5138513896252903
31
0
0
SPLINE
5
232
100
AcDbEntity
8
0
100
AcDbSpline
70
0
71
3
72
8
73
4
74
0
42
0.000000001
43
0.0000000001
44
0.0000000001
40
-1
40
-1
40
-1
40
-1
40
-0.002422319147842758
40
-0.002422319147842758
40
-0.002422319147842758
40
-0.002422319147842758
10
97.241232004380024
20
1.5138513896252903
30
0
10
97.93034387526734
20
1.5121024120273296
30
0
10
98.501072818968026
20
0.94466484394861649
30
0
10
98.501964909099513
20
0.25551362831323166
30
0
0
LINE
5
233
100
AcDbEntity
8
0
100
AcDbLine
10
98.501964909099513
20
0.25551362831323193
30
0
11
98.501961165166719
21
-2.1597894410503136
31
0
0
SPLINE
5
234
100
AcDbEntity
8
0
100
AcDbSpline
70
0
71
3
72
8
73
4
74
0
42
0.000000001
43
0.0000000001
44
0.0000000001
40
-1
40
-1
40
-1
40
-1
40
-4.3541444904537834e-05
40
-4.3541444904537834e-05
40
-4.3541444904537834e-05
40
-4.3541444904537834e-05
10
98.501961165166705
20
-2.159789441050314
30
0
10
98.502375920265337
20
-2.3128848736013441
30
0
10
98.614628678335876
20
-2.4235123793938809
30
0
10
98.762672510031337
20
-2.4231456643069254
30
0
0
LINE
5
235
100
AcDbEntity
8
0
100
AcDbLine
10
98.762672510031351
20
-2.4231456643069254
30
0
11
116.16422726489819
21
-2.4231455983682872
31
0
0
SPLINE
5
236
100
AcDbEntity
8
0
100
AcDbSpline
70
0
71
3
72
8
73
4
74
0
42
0.000000001
43
0.0000000001
44
0.0000000001
40
-1
40
-1
40
-1
40
-1
40
-0.0024223212487286573
40
-0.0024223212487286573
40
-0.0024223212487286573
40
-0.0024223212487286573
10
116.16422726489822
20
-2.4231455983682872
30
0
10
116.8533417019453
20
-2.4248880503256638
30
0
10
117.4240727955611
20
-2.992330068831456
30
0
10
117.4249649090995
20
-3.6814823499439573
30
0
0
LINE
5
237
100
AcDbEntity
8
0
100
AcDbLine
10
117.4249649090995
20
-3.6814823499439568
30
0
11
117.42496116516671
21
-11.684789441050293
31
0
0
SPLINE
5
238
100
AcDbEntity
8
0
100
AcDbSpline
70
0
71
3
72
8
73
4
74
0
42
0.000000001
43
0.0000000001
44
0.0000000001
40
-1
40
-1
40
-1
40
-1
40
-0.0010395587999701618
40
-0.0010395587999701618
40
-0.0010395587999701618
40
-0.0010395587999701618
10
117.42496116516669
20
-11.684789441050293
30
0
10
117.4253755071441
20
-11.837732381253808
30
0
10
117.53740516816728
20
-11.948291953832634
30
0
10
117.68523037018041
20
-11.948146398169111
30
0
0
LINE
5
239
100
AcDbEntity
8
0
100
AcDbLine
10
117.68523037018041
20
-11.948146398169108
30
0
11
118.32039916405287
21
-11.947077000000002
31
0
0
LINE
5
240
100
AcDbEntity
8
0
100
AcDbLine
10
118.32039916405287
20
-11.947077000000002
30
0
11
135.33888666434686
21
-11.947077000000002
31
0
0
LINE
5
241
100
AcDbEntity
8
0
100
AcDbLine
10
135.33888666434686
20
-11.947077000000002
30
0
11
139.34147402633801
21
-11.948145600294197
31
0
0
SPLINE
5
242
100
AcDbEntity
8
0
100
AcDbSpline
70
0
71
3
72
8
73
4
74
0
42
0.000000001
43
0.0000000001
44
0.0000000001
40
-1
40
-1
40
-1
40
-1
40
-0.0018852077394640341
40
-0.0018852077394640341
40
-0.0018852077394640341
40
-0.0018852077394640341
10
139.34147402633801
20
-11.948145600294197
30
0
10
140.03086715187234
20
-11.949889806798719
30
0
10
140.60151659415504
20
-12.517801990967891
30
0
10
140.60221015564099
20
-13.207294284849079
30
0
0
LINE
5
243
100
AcDbEntity
8
0
100
AcDbLine
10
140.60221015564099
20
-13.207294284849079
30
0
11
140.60220788976832
21
-68.581039325255546
31
0
0
SPLINE
5
244
100
AcDbEntity
8
0
100
AcDbSpline
70
0
71
3
72
8
73
4
74
0
42
0.000000001
43
0.0000000001
44
0.0000000001
40
-1
40
-1
40
-1
40
-1
40
-0.00192792002609479
40
-0.00192792002609479
40
-0.00192792002609479
40
-0.00192792002609479
10
140.60220788976832
20
-68.581039325255546
30
0
10
140.60366335253988
20
-69.271698158746545
30
0
10
140.03323839945625
20
-69.843549949779742
30
0
10
139.34300607298314
20
-69.844094933963987
30
0
0
LINE
5
245
100
AcDbEntity
8
0
100
AcDbLine
10
139.34300607298314
20
-69.844094933963987
30
0
11
135.33875652203182
21
-69.843077000000008
31
0
0
LINE
5
246
100
AcDbEntity
8
0
100
AcDbLine
10
135.33875652203182
20
-69.843077000000008
30
0
11
74.505845278756254
21
-69.843077000000008
31
0
0
LINE
5
247
100
AcDbEntity
8
0
100
AcDbLine
10
74.505845278756254
20
-69.843077000000008
30
0
11
64.459041835062948
21
-69.844091541132343
31
0
0
SPLINE
5
248
100
AcDbEntity
8
0
100
AcDbSpline
70
0
71
3
72
8
73
4
74
0
42
0.000000001
43
0.0000000001
44
0.0000000001
40
-1
40
-1
40
-1
40
-1
40
0
40
0
40
0
40
0
10
64.459041835062948
20
-69.844091541132343
30
0
10
64.308184965810653
20
-69.844455962627961
30
0
10
64.195924123924542
20
-69.95728288967652
30
0
10
64.195833908489107
20
-70.106395507662171
30
0
0
LINE
5
249
100
AcDbEntity
8
0
100
AcDbLine
10
64.195833908489107
20
-70.106395507662171
30
0
11
64.195580002322089
21
-81.026982974239203
31
0
0
LINE
5
250
100
AcDbEntity
8
0
100
AcDbLine
10
64.195580002322089
20
-81.026982974239203
30
0
11
64.195833909368559
21
-81.662791949459077
31
0
0
SPLINE
5
251
100
AcDbEntity
8
0
100
AcDbSpline
70
0
71
3
72
8
73
4
74
0
42
0.000000001
43
0.0000000001
44
0.0000000001
40
-1
40
-1
40
-1
40
-1
40
-0.016411883176191775
40
-0.016411883176191775
40
-0.016411883176191775
40
-0.016411883176191775
10
64.195833909368559
20
-81.662791949459091
30
0
10
64.196243481807457
20
-82.343030495837169
30
0
10
63.643781013951838
20
-82.907674675814292
30
0
10
62.968044178517026
20
-82.925657518851196
30
0
0
SPLINE
5
252
100
AcDbEntity
8
0
100
AcDbSpline
70
0
71
3
72
8
73
4
74
0
42
0.000000001
43
0.0000000001
44
0.0000000001
40
-0.99951434043635723
40
-0.99951434043635723
40
-0.99951434043635723
40
-0.99951434043635723
40
-1.1877416530311175e-06
40
-1.1877416530311175e-06
40
-1.1877416530311175e-06
40
-1.1877416530311175e-06
10
62.968044178517026
20
-82.92565751885121
30
0
10
44.98150944538979
20
-85.111945724080073
30
0
10
28.182684605415655
20
-93.05120679280293
30
0
10
15.074684055858148
20
-105.56090810332343
30
0
0
SPLINE
5
253
100
AcDbEntity
8
0
100
AcDbSpline
70
0
71
3
72
11
73
7
74
0
42
0.000000001
43
0.0000000001
44
0.0000000001
40
-1
40
-1
40
-1
40
-1
40
0
40
0
40
0
40
0.19781499994111862
40
0.19781499994111862
40
0.19781499994111862
40
0.19781499994111862
10
15.074684052960317
20
-105.56090810028699
30
0
10
14.440615536731302
20
-106.16619277939191
30
0
10
13.8159994198543
20
-106.78140549671369
30
0
10
13.201044210980333
20
-107.40581201019123
30
0
10
13.078692864106753
20
-107.53004378645426
30
0
10
12.956341517233172
20
-107.65427556271726
30
0
10
12.833990170359586
20
-107.77850733898029
30
0
0
LINE
5
254
100
AcDbEntity
8
0
100
AcDbLine
10
12.833990170359584
20
-107.77850733898028
30
0
11
-0.31982588054966676
21
-93.598716103317429
31
0
0
LINE
5
255
100
AcDbEntity
8
0
100
AcDbLine
10
-0.31982588054966676
20
-93.598716103317429
30
0
11
-0.68283276206537735
21
-93.234514334107246
31
0
0
SPLINE
5
256
100
AcDbEntity
8
0
100
AcDbSpline
70
0
71
3
72
11
73
7
74
0
42
0.000000001
43
0.0000000001
44
0.0000000001
40
-1.0381072534018954
40
-1.0381072534018954
40
-1.0381072534018954
40
-1.0381072534018954
40
-1
40
-1
40
-1
40
-0.018645602422487469
40
-0.018645602422487469
40
-0.018645602422487469
40
-0.018645602422487469
10
-0.68283276206537347
20
-93.234514334107232
30
0
10
-0.56501656672274159
20
-93.116856741153256
30
0
10
-0.4472003713801021
20
-92.999199148199267
30
0
10
-0.32938417603746284
20
-92.881541555245292
30
0
10
2.719263013425739
20
-89.836998408736633
30
0
10
5.953314457380583
20
-86.984060278955837
30
0
10
9.3538557066290657
20
-84.339223916728244
30
0
0
LINE
5
257
100
AcDbEntity
8
0
100
AcDbLine
10
9.353855706629064
20
-84.339223916728244
30
0
11
9.3526599991164971
21
-78.398222926111941
31
0
0
LINE
5
258
100
AcDbEntity
8
0
100
AcDbLine
10
9.3526599991164971
20
-78.398222926111941
30
0
11
9.3539071955677233
21
-7.4936622568031552
31
0
0
SPLINE
5
259
100
AcDbEntity
8
0
100
AcDbSpline
70
0
71
3
72
8
73
4
74
0
42
0.000000001
43
0.0000000001
44
0.0000000001
40
-1
40
-1
40
-1
40
-1
40
-0.11273244672916755
40
-0.11273244672916755
40
-0.11273244672916755
40
-0.11273244672916755
10
9.3539071955677233
20
-7.4936622568031535
30
0
10
9.355721163199572
20
-6.8815590022273057
30
0
10
9.8036748873745179
20
-6.3647018239662678
30
0
10
10.386560336108362
20
-6.254722195118001
30
0
0
ARC
5
260
100
AcDbEntity
8
0
100
AcDbCircle
10
10.617490544093647
20
-7.4795468292022953
30
0
40
1.2464044870024547
210
0
220
0
230
1
100
AcDbArc
50
90.131333027651053
51
100.6772883184175
0
LINE
5
261
100
AcDbEntity
8
0
100
AcDbLine
10
10.614633546021512
20
-6.2331456165978345
30
0
11
25.915610563214528
21
-6.2320769994422083
31
0
0
ENDSEC
0
SECTION
2
OBJECTS
0
DICTIONARY
5
C
100
AcDbDictionary
3
ACAD_GROUP
350
D
3
ACAD_MLINESTYLE
350
17
0
DICTIONARY
5
D
100
AcDbDictionary
0
DICTIONARY
5
1A
330
C
100
AcDbDictionary
0
DICTIONARY
5
17
100
AcDbDictionary
0
ENDSEC
0
EOF
