0
SECTION
2
HEADER
9
$INSUNITS
70
4
9
$ACADVER
1
AC1014
9
$HANDSEED
5
FFFF
0
ENDSEC
0
SECTION
2
TABLES
0
TABLE
2
VPORT
5
8
100
AcDbSymbolTable
0
ENDTAB
0
TABLE
2
LTYPE
5
5
100
AcDbSymbolTable
0
LTYPE
5
14
100
AcDbSymbolTableRecord
100
AcDbLinetypeTableRecord
2
BYBLOCK
70
0
0
LTYPE
5
15
100
AcDbSymbolTableRecord
100
AcDbLinetypeTableRecord
2
BYLAYER
70
0
0
ENDTAB
0
TABLE
2
LAYER
5
2
100
AcDbSymbolTable
70
2
0
LAYER
5
50
100
AcDbSymbolTableRecord
100
AcDbLayerTableRecord
2
0
70
0
6
CONTINUOUS
0
ENDTAB
0
TABLE
2
STYLE
5
3
100
AcDbSymbolTable
70
1
0
STYLE
5
11
100
AcDbSymbolTableRecord
100
AcDbTextStyleTableRecord
2
STANDARD
70
0
0
ENDTAB
0
TABLE
2
VIEW
5
6
100
AcDbSymbolTable
70
0
0
ENDTAB
0
TABLE
2
UCS
5
7
100
AcDbSymbolTable
70
0
0
ENDTAB
0
TABLE
2
APPID
5
9
100
AcDbSymbolTable
70
2
0
APPID
5
12
100
AcDbSymbolTableRecord
100
AcDbRegAppTableRecord
2
ACAD
70
0
0
ENDTAB
0
TABLE
2
DIMSTYLE
5
A
100
AcDbSymbolTable
70
1
0
ENDTAB
0
TABLE
2
BLOCK_RECORD
5
1
100
AcDbSymbolTable
70
1
0
BLOCK_RECORD
5
1F
100
AcDbSymbolTableRecord
100
AcDbBlockTableRecord
2
*MODEL_SPACE
0
BLOCK_RECORD
5
1B
100
AcDbSymbolTableRecord
100
AcDbBlockTableRecord
2
*PAPER_SPACE
0
ENDTAB
0
ENDSEC
0
SECTION
2
BLOCKS
0
BLOCK
5
20
100
AcDbEntity
100
AcDbBlockBegin
2
*MODEL_SPACE
0
ENDBLK
5
21
100
AcDbEntity
100
AcDbBlockEnd
0
BLOCK
5
1C
100
AcDbEntity
100
AcDbBlockBegin
2
*PAPER_SPACE
0
ENDBLK
5
1D
100
AcDbEntity
100
AcDbBlockEnd
0
ENDSEC
0
SECTION
2
ENTITIES
0
CIRCLE
5
100
100
AcDbEntity
8
0
100
AcDbCircle
10
-7.8385928714270285
20
-97.898544375340464
30
0
40
1.075
210
0
220
-0
230
1
0
CIRCLE
5
101
100
AcDbEntity
8
0
100
AcDbCircle
10
-84.102115840118017
20
-79.758489154558418
30
0
40
1.075
210
0
220
-0
230
1
0
CIRCLE
5
102
100
AcDbEntity
8
0
100
AcDbCircle
10
-160.2356843502919
20
-45.498858342037138
30
0
40
1.075
210
0
220
-0
230
1
0
CIRCLE
5
103
100
AcDbEntity
8
0
100
AcDbCircle
10
-103.09985434065311
20
1.9711512717086943
30
0
40
1.075
210
0
220
-0
230
1
0
CIRCLE
5
104
100
AcDbEntity
8
0
100
AcDbCircle
10
-20.634942288890009
20
-7.6213583217498515
30
0
40
1.075
210
0
220
-0
230
1
0
CIRCLE
5
105
100
AcDbEntity
8
0
100
AcDbCircle
10
-60.735469905003256
20
-5.7869414144685685
30
0
40
1.075
210
0
220
-0
230
1
0
CIRCLE
5
106
100
AcDbEntity
8
0
100
AcDbCircle
10
-158.40126744301068
20
-13.344541450897019
30
0
40
1.075
210
0
220
-0
230
1
0
CIRCLE
5
107
100
AcDbEntity
8
0
100
AcDbCircle
10
-158.40126744301062
20
-77.653175233177265
30
0
40
1.075
210
0
220
-0
230
1
0
CIRCLE
5
108
100
AcDbEntity
8
0
100
AcDbCircle
10
-27.359067269354135
20
-118.67189644720443
30
0
40
1.075
210
0
220
-0
230
1
0
CIRCLE
5
109
100
AcDbEntity
8
0
100
AcDbCircle
10
-18.800525381608743
20
-48.152408865848813
30
0
40
1.075
210
0
220
-0
230
1
0
LWPOLYLINE
5
110
100
AcDbEntity
8
0
100
AcDbPolyline
90
23
70
1
43
0.0
10
-3.208839406594262
20
-94.505652594016084
42
-0.38930731415455594
10
-3.2455561828719048
20
-101.2669418280089
10
-23.65699158842764
20
-123.2678174194898
42
-0.44928903835984763
10
-31.131794430273338
20
-123.10582418286089
42
0.18771071938159334
10
-78.475414262951361
20
-97.542880039127937
42
-0.39210778705591426
10
-88.721717409547011
20
-86.162426583967402
10
-88.72054136901383
20
-86.130557922754804
42
0.36257049690777932
10
-90.688414984719032
20
-84.487592140458574
10
-153.97259326640565
20
-84.487592140458531
42
-0.41421356237309503
10
-165.2356843502919
20
-73.224501056572279
10
-165.23568435029193
20
-17.773215627502019
42
-0.41421356237309503
10
-153.97259326640565
20
-6.5101245436157296
10
-141.8922019145455
20
-6.5101245436157207
42
-0.36987652816120237
10
-130.76190613153102
20
3.0285140049628723
10
-120.37149409282593
20
3.0285140049628714
42
-0.21923362637650456
10
-111.81181088168825
20
6.9711512717086954
10
-94.387897799617974
20
6.9711512717086919
42
-0.27046133684986851
10
-84.581438672239898
20
1.2479681425615397
10
-75.310620702460781
20
1.2479681425615259
42
-0.15383557595372233
10
-68.853230635931681
20
-0.78694141446856491
10
-25.063616465495016
20
-0.78694141446856491
42
-0.41421356237309515
10
-13.800525381608724
20
-12.050032498354852
10
-13.80052538160869
20
-84.254785233342773
42
-0.032346153410894973
0
ENDSEC
0
SECTION
2
OBJECTS
0
DICTIONARY
5
C
100
AcDbDictionary
3
ACAD_GROUP
350
D
3
ACAD_MLINESTYLE
350
17
0
DICTIONARY
5
D
100
AcDbDictionary
0
DICTIONARY
5
1A
330
C
100
AcDbDictionary
0
DICTIONARY
5
17
100
AcDbDictionary
0
ENDSEC
0
EOF
