0
SECTION
2
HEADER
9
$INSUNITS
70
4
9
$ACADVER
1
AC1014
9
$HANDSEED
5
FFFF
0
ENDSEC
0
SECTION
2
TABLES
0
TABLE
2
VPORT
5
8
100
AcDbSymbolTable
0
ENDTAB
0
TABLE
2
LTYPE
5
5
100
AcDbSymbolTable
0
LTYPE
5
14
100
AcDbSymbolTableRecord
100
AcDbLinetypeTableRecord
2
BYBLOCK
70
0
0
LTYPE
5
15
100
AcDbSymbolTableRecord
100
AcDbLinetypeTableRecord
2
BYLAYER
70
0
0
ENDTAB
0
TABLE
2
LAYER
5
2
100
AcDbSymbolTable
70
2
0
LAYER
5
50
100
AcDbSymbolTableRecord
100
AcDbLayerTableRecord
2
0
70
0
6
CONTINUOUS
0
ENDTAB
0
TABLE
2
STYLE
5
3
100
AcDbSymbolTable
70
1
0
STYLE
5
11
100
AcDbSymbolTableRecord
100
AcDbTextStyleTableRecord
2
STANDARD
70
0
0
ENDTAB
0
TABLE
2
VIEW
5
6
100
AcDbSymbolTable
70
0
0
ENDTAB
0
TABLE
2
UCS
5
7
100
AcDbSymbolTable
70
0
0
ENDTAB
0
TABLE
2
APPID
5
9
100
AcDbSymbolTable
70
2
0
APPID
5
12
100
AcDbSymbolTableRecord
100
AcDbRegAppTableRecord
2
ACAD
70
0
0
ENDTAB
0
TABLE
2
DIMSTYLE
5
A
100
AcDbSymbolTable
70
1
0
ENDTAB
0
TABLE
2
BLOCK_RECORD
5
1
100
AcDbSymbolTable
70
1
0
BLOCK_RECORD
5
1F
100
AcDbSymbolTableRecord
100
AcDbBlockTableRecord
2
*MODEL_SPACE
0
BLOCK_RECORD
5
1B
100
AcDbSymbolTableRecord
100
AcDbBlockTableRecord
2
*PAPER_SPACE
0
ENDTAB
0
ENDSEC
0
SECTION
2
BLOCKS
0
BLOCK
5
20
100
AcDbEntity
100
AcDbBlockBegin
2
*MODEL_SPACE
0
ENDBLK
5
21
100
AcDbEntity
100
AcDbBlockEnd
0
BLOCK
5
1C
100
AcDbEntity
100
AcDbBlockBegin
2
*PAPER_SPACE
0
ENDBLK
5
1D
100
AcDbEntity
100
AcDbBlockEnd
0
ENDSEC
0
SECTION
2
ENTITIES
0
CIRCLE
5
100
100
AcDbEntity
8
0
100
AcDbCircle
10
-7.8385928714270294
20
-97.898544375340464
30
0
40
2.5
210
0
220
-0
230
1
0
CIRCLE
5
101
100
AcDbEntity
8
0
100
AcDbCircle
10
-84.102115840118017
20
-79.758489154558418
30
0
40
2.5
210
0
220
-0
230
1
0
CIRCLE
5
102
100
AcDbEntity
8
0
100
AcDbCircle
10
-160.2356843502919
20
-45.498858342037138
30
0
40
2.5
210
0
220
-0
230
1
0
CIRCLE
5
103
100
AcDbEntity
8
0
100
AcDbCircle
10
-103.09985434065311
20
1.9711512717086943
30
0
40
2.5
210
0
220
-0
230
1
0
CIRCLE
5
104
100
AcDbEntity
8
0
100
AcDbCircle
10
-20.634942288890009
20
-7.6213583217498515
30
0
40
2.5
210
0
220
-0
230
1
0
CIRCLE
5
105
100
AcDbEntity
8
0
100
AcDbCircle
10
-60.735469905003256
20
-5.7869414144685685
30
0
40
2.5
210
0
220
-0
230
1
0
CIRCLE
5
106
100
AcDbEntity
8
0
100
AcDbCircle
10
-158.40126744301068
20
-13.344541450897019
30
0
40
2.5
210
0
220
-0
230
1
0
CIRCLE
5
107
100
AcDbEntity
8
0
100
AcDbCircle
10
-158.40126744301062
20
-77.653175233177265
30
0
40
2.5
210
0
220
-0
230
1
0
CIRCLE
5
108
100
AcDbEntity
8
0
100
AcDbCircle
10
-27.359067269354135
20
-118.67189644720443
30
0
40
2.5
210
0
220
-0
230
1
0
CIRCLE
5
109
100
AcDbEntity
8
0
100
AcDbCircle
10
-18.800525381608743
20
-48.152408865848813
30
0
40
2.5
210
0
220
-0
230
1
0
LWPOLYLINE
5
110
100
AcDbEntity
8
0
100
AcDbPolyline
90
57
70
1
43
0.0
10
-3.208839406594262
20
-94.505652594016084
42
-0.38930731415455594
10
-3.2455561828719048
20
-101.2669418280089
10
-23.65699158842764
20
-123.2678174194898
42
-0.44928903835984763
10
-31.131794430273338
20
-123.10582418286089
42
0.18771071938159334
10
-78.475414262951361
20
-97.542880039127965
42
-0.39210778705591343
10
-88.721717409547011
20
-86.162426583967402
10
-88.72054136901383
20
-86.130557922754804
42
0.36257049690777932
10
-90.688414984719032
20
-84.487592140458574
10
-153.97259326640565
20
-84.487592140458531
42
-0.41421356237309548
10
-165.2356843502919
20
-73.224501056572265
10
-165.23568435029193
20
-17.773215627502019
42
-0.41421356237309503
10
-153.97259326640565
20
-6.5101245436157278
10
-141.8922019145455
20
-6.5101245436157207
42
-0.36987652816120237
10
-130.76190613153102
20
3.02851400496287
10
-120.37149409282593
20
3.0285140049628687
42
-0.21923362637650409
10
-111.81181088168825
20
6.9711512717086972
10
-94.387897799617974
20
6.9711512717086865
42
-0.27046133684986873
10
-84.581438672239898
20
1.2479681425615308
10
-75.310620702460781
20
1.2479681425615252
42
-0.15383557595372255
10
-68.853230635931681
20
-0.78694141446856491
10
-52.735469905003256
20
-0.78694141446856714
10
-52.735469905003256
20
-10.786941414468568
10
-73.784438534688206
20
-10.786941414468579
42
-0.41421356237309503
10
-74.047529618574515
20
-10.523850330582277
10
-74.047529618574515
20
-10.015122941324751
42
0.4142135623730987
10
-75.310620702460781
20
-8.7520318574384746
10
-92.861715631845414
20
-8.7520318574384568
42
-0.41421356237309503
10
-93.124806715731694
20
-8.4889407735521836
10
-93.124806715731694
20
-4.2919398121775965
42
0.41421356237309515
10
-94.387897799617974
20
-3.028848728291309
10
-111.81181088168825
20
-3.0288487282913028
42
0.41421356237308737
10
-113.07490196557454
20
-4.2919398121776009
10
-113.07490196557453
20
-6.7083949111508456
42
-0.41421356237309503
10
-113.33799304946082
20
-6.9714859950371295
10
-130.76190613153102
20
-6.9714859950371295
42
0.41421356237309503
10
-132.0249972154173
20
-8.2345770789234152
10
-132.02499721541733
20
-16.247033459729433
42
-0.41421356237309503
10
-132.28808829930364
20
-16.510124543615724
10
-153.97259326640565
20
-16.510124543615728
42
0.41421356237309503
10
-155.23568435029193
20
-17.773215627502019
10
-155.23568435029193
20
-73.224501056572279
42
0.41421356237309709
10
-153.97259326640565
20
-74.487592140458531
10
-78.983632452900125
20
-74.487592140458545
42
-0.41421356237309503
10
-78.720541369013816
20
-74.75068322434484
10
-78.720541369013816
20
-86.315008786753566
10
-78.722297485256391
20
-86.362596494842748
42
0.39754883135204405
10
-77.492212061342087
20
-87.588443862742707
42
-0.17129292249677711
10
-27.287350636604877
20
-112.47779860286241
10
-13.766097624074911
20
-97.903644484889895
42
0.032252315248659361
10
-23.800525381608768
20
-89.00999668055934
10
-23.800525381608722
20
-12.050032498354852
42
0.41421356237309503
10
-25.063616465495009
20
-10.786941414468565
10
-25.086882097166445
20
-10.786941414468563
10
-25.086882097166452
20
-0.78694141446856269
10
-25.063616465495016
20
-0.78694141446856491
42
-0.41421356237309515
10
-13.800525381608724
20
-12.050032498354852
10
-13.80052538160869
20
-84.254785233342773
42
-0.032346153410894973
0
ENDSEC
0
SECTION
2
OBJECTS
0
DICTIONARY
5
C
100
AcDbDictionary
3
ACAD_GROUP
350
D
3
ACAD_MLINESTYLE
350
17
0
DICTIONARY
5
D
100
AcDbDictionary
0
DICTIONARY
5
1A
330
C
100
AcDbDictionary
0
DICTIONARY
5
17
100
AcDbDictionary
0
ENDSEC
0
EOF
