0
SECTION
2
HEADER
9
$INSUNITS
70
4
9
$ACADVER
1
AC1014
9
$HANDSEED
5
FFFF
0
ENDSEC
0
SECTION
2
TABLES
0
TABLE
2
VPORT
5
8
100
AcDbSymbolTable
0
ENDTAB
0
TABLE
2
LTYPE
5
5
100
AcDbSymbolTable
0
LTYPE
5
14
100
AcDbSymbolTableRecord
100
AcDbLinetypeTableRecord
2
BYBLOCK
70
0
0
LTYPE
5
15
100
AcDbSymbolTableRecord
100
AcDbLinetypeTableRecord
2
BYLAYER
70
0
0
ENDTAB
0
TABLE
2
LAYER
5
2
100
AcDbSymbolTable
70
2
0
LAYER
5
50
100
AcDbSymbolTableRecord
100
AcDbLayerTableRecord
2
0
70
0
6
CONTINUOUS
0
ENDTAB
0
TABLE
2
STYLE
5
3
100
AcDbSymbolTable
70
1
0
STYLE
5
11
100
AcDbSymbolTableRecord
100
AcDbTextStyleTableRecord
2
STANDARD
70
0
0
ENDTAB
0
TABLE
2
VIEW
5
6
100
AcDbSymbolTable
70
0
0
ENDTAB
0
TABLE
2
UCS
5
7
100
AcDbSymbolTable
70
0
0
ENDTAB
0
TABLE
2
APPID
5
9
100
AcDbSymbolTable
70
2
0
APPID
5
12
100
AcDbSymbolTableRecord
100
AcDbRegAppTableRecord
2
ACAD
70
0
0
ENDTAB
0
TABLE
2
DIMSTYLE
5
A
100
AcDbSymbolTable
70
1
0
ENDTAB
0
TABLE
2
BLOCK_RECORD
5
1
100
AcDbSymbolTable
70
1
0
BLOCK_RECORD
5
1F
100
AcDbSymbolTableRecord
100
AcDbBlockTableRecord
2
*MODEL_SPACE
0
BLOCK_RECORD
5
1B
100
AcDbSymbolTableRecord
100
AcDbBlockTableRecord
2
*PAPER_SPACE
0
ENDTAB
0
ENDSEC
0
SECTION
2
BLOCKS
0
BLOCK
5
20
100
AcDbEntity
100
AcDbBlockBegin
2
*MODEL_SPACE
0
ENDBLK
5
21
100
AcDbEntity
100
AcDbBlockEnd
0
BLOCK
5
1C
100
AcDbEntity
100
AcDbBlockBegin
2
*PAPER_SPACE
0
ENDBLK
5
1D
100
AcDbEntity
100
AcDbBlockEnd
0
ENDSEC
0
SECTION
2
ENTITIES
0
CIRCLE
5
100
100
AcDbEntity
8
0
100
AcDbCircle
10
-7.8385928714270285
20
-97.898544375340464
30
-2.2204460492503131e-15
40
1.075
210
-1.015289029126131e-51
220
-3.8518598887744717e-34
230
1
0
CIRCLE
5
101
100
AcDbEntity
8
0
100
AcDbCircle
10
-84.102115840118017
20
-79.758489154558418
30
-2.2204460492503131e-15
40
1.075
210
-1.015289029126131e-51
220
-3.8518598887744717e-34
230
1
0
CIRCLE
5
102
100
AcDbEntity
8
0
100
AcDbCircle
10
-160.2356843502919
20
-45.498858342037138
30
-2.2204460492503131e-15
40
1.075
210
-1.015289029126131e-51
220
-3.8518598887744717e-34
230
1
0
CIRCLE
5
103
100
AcDbEntity
8
0
100
AcDbCircle
10
-103.09985434065311
20
1.9711512717086943
30
0
40
1.075
210
-1.015289029126131e-51
220
-3.8518598887744717e-34
230
1
0
CIRCLE
5
104
100
AcDbEntity
8
0
100
AcDbCircle
10
-20.634942288890016
20
-7.6213583217498515
30
0
40
1.075
210
-1.015289029126131e-51
220
-3.8518598887744717e-34
230
1
0
CIRCLE
5
105
100
AcDbEntity
8
0
100
AcDbCircle
10
-60.735469905003256
20
-5.7869414144685685
30
0
40
1.075
210
-1.015289029126131e-51
220
-3.8518598887744717e-34
230
1
0
CIRCLE
5
106
100
AcDbEntity
8
0
100
AcDbCircle
10
-158.40126744301068
20
-13.344541450897019
30
0
40
1.075
210
-1.015289029126131e-51
220
-3.8518598887744717e-34
230
1
0
CIRCLE
5
107
100
AcDbEntity
8
0
100
AcDbCircle
10
-158.40126744301062
20
-77.653175233177265
30
0
40
1.075
210
-1.015289029126131e-51
220
-3.8518598887744717e-34
230
1
0
CIRCLE
5
108
100
AcDbEntity
8
0
100
AcDbCircle
10
-27.359067269354142
20
-118.67189644720443
30
-2.2204460492503131e-15
40
1.075
210
-1.015289029126131e-51
220
-3.8518598887744717e-34
230
1
0
CIRCLE
5
109
100
AcDbEntity
8
0
100
AcDbCircle
10
-18.800525381608743
20
-48.152408865848813
30
0
40
1.075
210
-1.015289029126131e-51
220
-3.8518598887744717e-34
230
1
0
LWPOLYLINE
5
110
100
AcDbEntity
8
0
100
AcDbPolyline
90
33
70
1
43
0.0
10
-3.2088394065942611
20
-94.505652594016084
42
-0.38930731415455594
10
-3.2455561828719048
20
-101.2669418280089
10
-23.65699158842764
20
-123.2678174194898
42
-0.44928903835984763
10
-31.131794430273338
20
-123.10582418286089
42
0.18771071938159334
10
-78.475414262951361
20
-97.542880039127937
42
-0.39210778705591426
10
-88.721717409547011
20
-86.162426583967402
10
-88.72054136901383
20
-86.130557922754804
42
0.36257049690777932
10
-90.688414984719032
20
-84.487592140458574
10
-153.97259326640565
20
-84.487592140458531
42
-0.41421356237309503
10
-165.2356843502919
20
-73.224501056572279
10
-165.23568435029193
20
-17.773215627502019
42
-0.41421356237309503
10
-153.97259326640565
20
-6.5101245436157278
10
-141.8922019145455
20
-6.5101245436157207
42
-0.36987652816120237
10
-130.76190613153102
20
3.0285140049628723
10
-120.37149409282593
20
3.0285140049628714
42
-0.21923362637650456
10
-111.81181088168825
20
6.9711512717086954
10
-94.387897799617974
20
6.9711512717086865
42
-0.27046133684986873
10
-84.581438672239898
20
1.2479681425615308
10
-75.310620702460781
20
1.2479681425615259
42
-0.15383557595372233
10
-68.853230635931681
20
-0.78694141446856491
10
-52.735469905003271
20
-0.78694141446856491
10
-52.735469905003249
20
-42.827666649280289
10
-50.507069392270139
20
-42.827666649280289
10
-50.507069392270139
20
-52.236405165813061
10
-35.50579357694572
20
-52.236405165813061
10
-35.50579357694572
20
-42.827666649280289
10
-33.430011280989845
20
-42.827666649280289
10
-33.430011280989866
20
-24.57198428577399
10
-25.086882097166452
20
-24.571984285773986
10
-25.086882097166452
20
-0.78694141446856269
10
-25.063616465495016
20
-0.78694141446855381
42
-0.41421356237309515
10
-13.800525381608713
20
-12.050032498354852
10
-13.80052538160869
20
-84.254785233342773
42
-0.032346153410894973
0
LWPOLYLINE
5
111
100
AcDbEntity
8
0
100
AcDbPolyline
90
20
70
1
43
0.0
10
-133.36404672758329
20
-20.395705319124559
10
-134.1780105503953
20
-20.395705319124559
10
-134.17801055039536
20
-19.413861457857532
10
-148.1680137549773
20
-19.413861457857536
10
-148.1680137549773
20
-20.395705319124563
10
-148.98197757778931
20
-20.395705319124563
10
-148.98197757778931
20
-23.900837031108914
10
-148.1680137549773
20
-23.900837031108914
10
-148.1680137549773
20
-28.916889089188111
10
-148.98197757778931
20
-28.916889089188111
10
-148.98197757778931
20
-32.422020801172458
10
-148.1680137549773
20
-32.422020801172458
10
-148.1680137549773
20
-33.403864662439481
10
-134.17801055039536
20
-33.403864662439481
10
-134.17801055039536
20
-32.422020801172458
10
-133.36404672758329
20
-32.422020801172458
10
-133.36404672758329
20
-28.916889089188107
10
-134.1780105503953
20
-28.916889089188107
10
-134.17801055039536
20
-23.900837031108907
10
-133.36404672758329
20
-23.900837031108907
0
LWPOLYLINE
5
112
100
AcDbEntity
8
0
100
AcDbPolyline
90
20
70
1
43
0.0
10
-57.10072380398767
20
-33.686208363477405
10
-57.914687626799697
20
-33.686208363477405
10
-57.914687626799704
20
-32.704364502210382
10
-71.904690831381657
20
-32.704364502210382
10
-71.904690831381657
20
-33.686208363477405
10
-72.718654654193685
20
-33.686208363477405
10
-72.718654654193699
20
-37.191340075461753
10
-71.904690831381672
20
-37.19134007546176
10
-71.904690831381657
20
-42.207392133540964
10
-72.718654654193685
20
-42.207392133540964
10
-72.718654654193685
20
-45.712523845525304
10
-71.904690831381657
20
-45.712523845525304
10
-71.904690831381657
20
-46.694367706792335
10
-57.914687626799704
20
-46.694367706792335
10
-57.914687626799704
20
-45.712523845525304
10
-57.100723803987677
20
-45.712523845525304
10
-57.100723803987663
20
-42.207392133540949
10
-57.91468762679969
20
-42.207392133540949
10
-57.914687626799704
20
-37.191340075461753
10
-57.100723803987677
20
-37.191340075461753
0
LWPOLYLINE
5
113
100
AcDbEntity
8
0
100
AcDbPolyline
90
20
70
1
43
0.0
10
-43.469373408832261
20
-94.850502373909677
10
-41.986433069146599
20
-91.673499827996437
10
-42.724087783570006
20
-91.33010884024759
10
-40.605238207312397
20
-86.784629617231587
10
-39.867583492888997
20
-87.128020604980435
10
-38.384643153203314
20
-83.951018059067195
10
-39.124841504573013
20
-83.607627071318376
10
-38.707685045381837
20
-82.717354140117692
10
-51.387715222625644
20
-76.805941876945255
10
-51.802328044870535
20
-77.696214808145925
10
-52.539982759293963
20
-77.35028018345082
10
-54.022923098979646
20
-80.52728272936406
10
-53.285268384556218
20
-80.873217354059165
10
-55.404117960813828
20
-85.418696577075153
10
-56.141772675237227
20
-85.075305589326319
10
-57.62216937797664
20
-88.249764498293288
10
-56.884514663553233
20
-88.595699122988407
10
-57.299127485798103
20
-89.485972054189062
10
-44.621640945500559
20
-95.397384317361514
10
-44.207028123255668
20
-94.507111386160858
0
LWPOLYLINE
5
114
100
AcDbEntity
8
0
100
AcDbPolyline
90
20
70
1
43
0.0
10
-96.048892725543794
20
-45.16818553901976
10
-96.048892725543809
20
-44.186341677752729
10
-110.03889593012575
20
-44.186341677752729
10
-110.03889593012575
20
-45.16818553901976
10
-110.85285975293779
20
-45.16818553901976
10
-110.85285975293779
20
-48.6733172510041
10
-110.03889593012575
20
-48.6733172510041
10
-110.03889593012575
20
-53.689369309083304
10
-110.85285975293779
20
-53.689369309083304
10
-110.85285975293779
20
-57.194501021067651
10
-110.03889593012575
20
-57.194501021067651
10
-110.03889593012575
20
-58.176344882334675
10
-96.048892725543809
20
-58.176344882334675
10
-96.048892725543809
20
-57.194501021067651
10
-95.234928902731767
20
-57.194501021067651
10
-95.234928902731752
20
-53.689369309083304
10
-96.048892725543794
20
-53.689369309083304
10
-96.048892725543809
20
-48.6733172510041
10
-95.234928902731767
20
-48.673317251004107
10
-95.234928902731752
20
-45.16818553901976
0
LWPOLYLINE
5
115
100
AcDbEntity
8
0
100
AcDbPolyline
90
20
70
1
43
0.0
10
-134.22125237848223
20
-52.46587993791897
10
-134.22125237848223
20
-51.48403607665194
10
-133.40728855567016
20
-51.48403607665194
10
-133.40728855567016
20
-47.978904364667585
10
-134.22125237848223
20
-47.978904364667585
10
-134.22125237848223
20
-42.962852306588388
10
-133.40728855567016
20
-42.962852306588388
10
-133.40728855567016
20
-39.457720594604034
10
-134.22125237848223
20
-39.457720594604034
10
-134.22125237848223
20
-38.475876733337003
10
-148.21125558306417
20
-38.47587673333701
10
-148.21125558306417
20
-39.457720594604034
10
-149.02521940587621
20
-39.457720594604034
10
-149.02521940587621
20
-42.962852306588381
10
-148.21125558306417
20
-42.962852306588388
10
-148.21125558306417
20
-47.978904364667585
10
-149.02521940587621
20
-47.978904364667585
10
-149.02521940587621
20
-51.48403607665194
10
-148.21125558306417
20
-51.48403607665194
10
-148.21125558306417
20
-52.46587993791897
0
LWPOLYLINE
5
116
100
AcDbEntity
8
0
100
AcDbPolyline
90
20
70
1
43
0.0
10
-91.8315426685989
20
-62.88716050685936
10
-91.017578845786886
20
-62.88716050685936
10
-91.017578845786886
20
-63.869004368126383
10
-77.027575641204947
20
-63.869004368126383
10
-77.027575641204933
20
-62.88716050685936
10
-76.213611818392891
20
-62.88716050685936
10
-76.213611818392891
20
-59.382028794875012
10
-77.027575641204933
20
-59.382028794875012
10
-77.027575641204933
20
-54.365976736795815
10
-76.213611818392891
20
-54.365976736795815
10
-76.213611818392891
20
-50.860845024811461
10
-77.027575641204919
20
-50.860845024811461
10
-77.027575641204919
20
-49.879001163544444
10
-91.017578845786886
20
-49.87900116354443
10
-91.017578845786886
20
-50.860845024811461
10
-91.8315426685989
20
-50.860845024811461
10
-91.8315426685989
20
-54.365976736795815
10
-91.017578845786886
20
-54.365976736795815
10
-91.017578845786886
20
-59.382028794875012
10
-91.8315426685989
20
-59.382028794875012
0
LWPOLYLINE
5
117
100
AcDbEntity
8
0
100
AcDbPolyline
90
20
70
1
43
0.0
10
-129.1059984794978
20
-42.87382501346832
10
-115.11599527491585
20
-42.87382501346832
10
-115.11599527491583
20
-41.891981152201296
10
-114.30203145210382
20
-41.891981152201296
10
-114.30203145210382
20
-38.386849440216949
10
-115.11599527491583
20
-38.386849440216942
10
-115.11599527491583
20
-33.370797382137745
10
-114.30203145210382
20
-33.370797382137745
10
-114.30203145210382
20
-29.865665670153394
10
-115.11599527491583
20
-29.865665670153398
10
-115.11599527491583
20
-28.883821808886374
10
-129.10599847949777
20
-28.883821808886374
10
-129.1059984794978
20
-29.865665670153394
10
-129.91996230230984
20
-29.865665670153394
10
-129.91996230230984
20
-33.370797382137745
10
-129.1059984794978
20
-33.370797382137745
10
-129.1059984794978
20
-38.386849440216942
10
-129.91996230230984
20
-38.386849440216942
10
-129.91996230230984
20
-41.891981152201289
10
-129.1059984794978
20
-41.891981152201296
0
LWPOLYLINE
5
118
100
AcDbEntity
8
0
100
AcDbPolyline
90
4
70
1
43
0.0
10
-47.457796140611265
20
-73.555173859589658
10
-29.932137580689524
20
-73.555173859589672
10
-29.932137580689524
20
-59.333699692895543
10
-47.457796140611265
20
-59.333699692895543
0
LWPOLYLINE
5
119
100
AcDbEntity
8
0
100
AcDbPolyline
90
20
70
1
43
0.0
10
-22.774343213836143
20
-99.434136151119958
10
-20.640231815900822
20
-96.653940968827612
10
-21.286315600257879
20
-96.157931764301523
10
-20.688560917880281
20
-95.379578858737489
10
-31.786448914533203
20
-86.86093872562023
10
-32.38420359691078
20
-87.641835268130535
10
-33.030287381267854
20
-87.14582606360446
10
-35.164398779203182
20
-89.926021245896806
10
-34.518314994846122
20
-90.422030450422881
10
-37.573222967337543
20
-94.400278634416765
10
-38.219306751694603
20
-93.906813066836961
10
-40.350874512683639
20
-96.687008249129335
10
-39.707334365272864
20
-97.183017453655424
10
-40.305089047650462
20
-97.96137035921943
10
-29.204657414051258
20
-106.4774668553904
10
-28.60690273167366
20
-105.69911394982643
10
-27.960818947316604
20
-106.19512315435247
10
-25.826707549381283
20
-103.41238433511386
10
-26.472791333738339
20
-102.91891876753404
10
-23.4204269981932
20
-98.938126946593883
0
LWPOLYLINE
5
120
100
AcDbEntity
8
0
100
AcDbPolyline
90
20
70
1
43
0.0
10
-91.020122482733171
20
-12.759707206369102
10
-91.834086305545213
20
-12.759707206369102
10
-91.834086305545213
20
-16.264838918353451
10
-91.020122482733171
20
-16.264838918353451
10
-91.020122482733171
20
-21.280890976432655
10
-91.834086305545213
20
-21.280890976432655
10
-91.834086305545185
20
-24.786022688417006
10
-91.020122482733171
20
-24.786022688417006
10
-91.020122482733171
20
-25.767866549684022
10
-77.030119278151233
20
-25.767866549684022
10
-77.030119278151233
20
-24.786022688417006
10
-76.216155455339191
20
-24.786022688417006
10
-76.216155455339191
20
-21.280890976432651
10
-77.030119278151233
20
-21.280890976432648
10
-77.030119278151233
20
-16.264838918353448
10
-76.216155455339191
20
-16.264838918353451
10
-76.216155455339191
20
-12.759707206369102
10
-77.030119278151233
20
-12.759707206369097
10
-77.030119278151233
20
-11.777863345102077
10
-91.020122482733171
20
-11.777863345102082
0
LWPOLYLINE
5
121
100
AcDbEntity
8
0
100
AcDbPolyline
90
20
70
1
43
0.0
10
-134.26449420656911
20
-70.5460513521314
10
-133.45053038375707
20
-70.5460513521314
10
-133.45053038375707
20
-67.040919640147052
10
-134.26449420656911
20
-67.040919640147052
10
-134.26449420656911
20
-62.024867582067856
10
-133.45053038375707
20
-62.024867582067856
10
-133.45053038375707
20
-58.519735870083515
10
-134.26449420656911
20
-58.519735870083515
10
-134.26449420656911
20
-57.537892008816485
10
-148.25449741115105
20
-57.537892008816485
10
-148.25449741115105
20
-58.519735870083508
10
-149.06846123396309
20
-58.519735870083508
10
-149.06846123396309
20
-62.024867582067856
10
-148.25449741115105
20
-62.024867582067856
10
-148.25449741115105
20
-67.040919640147067
10
-149.06846123396309
20
-67.040919640147067
10
-149.06846123396309
20
-70.5460513521314
10
-148.25449741115105
20
-70.5460513521314
10
-148.25449741115105
20
-71.527895213398438
10
-134.26449420656911
20
-71.527895213398423
0
LWPOLYLINE
5
122
100
AcDbEntity
8
0
100
AcDbPolyline
90
20
70
1
43
0.0
10
-110.88083975934696
20
-6.9780204274573343
10
-110.88083975934696
20
-10.483152139441682
10
-110.06687593653493
20
-10.483152139441682
10
-110.06687593653493
20
-15.499204197520884
10
-110.88083975934696
20
-15.499204197520884
10
-110.88083975934696
20
-19.004335909505233
10
-110.06687593653493
20
-19.004335909505233
10
-110.06687593653493
20
-19.986179770772253
10
-96.076872731952975
20
-19.986179770772253
10
-96.07687273195296
20
-19.00433590950523
10
-95.262908909140918
20
-19.00433590950523
10
-95.262908909140918
20
-15.499204197520875
10
-96.07687273195296
20
-15.499204197520879
10
-96.07687273195296
20
-10.483152139441678
10
-95.262908909140918
20
-10.483152139441678
10
-95.262908909140918
20
-6.9780204274573254
10
-96.07687273195296
20
-6.9780204274573254
10
-96.07687273195296
20
-5.996176566190301
10
-110.0668759365349
20
-5.9961765661903055
10
-110.06687593653493
20
-6.9780204274573343
0
LWPOLYLINE
5
123
100
AcDbEntity
8
0
100
AcDbPolyline
90
20
70
1
43
0.0
10
-114.32238054767411
20
-57.54043564576277
10
-115.13634437048614
20
-57.54043564576277
10
-115.13634437048614
20
-52.524383587683573
10
-114.32238054767411
20
-52.524383587683573
10
-114.32238054767411
20
-49.019251875699219
10
-115.13634437048614
20
-49.019251875699219
10
-115.13634437048614
20
-48.037408014432188
10
-129.12634757506808
20
-48.037408014432195
10
-129.12634757506808
20
-49.019251875699226
10
-129.94031139788012
20
-49.019251875699226
10
-129.94031139788015
20
-52.52438358768358
10
-129.12634757506811
20
-52.52438358768358
10
-129.12634757506808
20
-57.540435645762777
10
-129.94031139788012
20
-57.540435645762777
10
-129.94031139788015
20
-61.045567357747132
10
-129.12634757506811
20
-61.045567357747132
10
-129.12634757506808
20
-62.027411219014148
10
-115.13634437048614
20
-62.027411219014148
10
-115.13634437048614
20
-61.045567357747117
10
-114.32238054767411
20
-61.04556735774711
0
LWPOLYLINE
5
124
100
AcDbEntity
8
0
100
AcDbPolyline
90
20
70
1
43
0.0
10
-74.463589599347017
20
-75.297565167796691
10
-73.669974872105271
20
-75.473076117090542
10
-74.756107848170089
20
-80.36957723869422
10
-75.54972257541182
20
-80.194066289400382
10
-76.30772638540553
20
-83.615257982157217
10
-75.514111658163799
20
-83.79331256839734
10
-75.725233524705672
20
-84.752263697147782
10
-62.068446760087397
20
-87.77919166323008
10
-61.854781256599253
20
-86.820240534479638
10
-61.0611665293575
20
-86.995751483773489
10
-60.303162719363776
20
-83.574559791016597
10
-61.096777446605522
20
-83.399048841722788
10
-60.010644470540704
20
-78.500004083172826
10
-59.217029743298973
20
-78.678058669412948
10
-58.456482296358971
20
-75.254323339709813
10
-59.252640660546987
20
-75.078812390415962
10
-59.038975157058829
20
-74.11986126166552
10
-72.698305558623389
20
-71.092933295583251
10
-72.909427425165262
20
-72.051884424333679
10
-73.705585789353293
20
-71.873829838093556
0
LWPOLYLINE
5
125
100
AcDbEntity
8
0
100
AcDbPolyline
90
20
70
1
43
0.0
10
-57.0549383389545
20
-14.624193087997938
10
-57.868902161766528
20
-14.624193087997938
10
-57.868902161766542
20
-13.642349226730911
10
-71.85890536634848
20
-13.642349226730911
10
-71.85890536634848
20
-14.624193087997934
10
-72.672869189160522
20
-14.624193087997934
10
-72.672869189160537
20
-18.129324799982282
10
-71.858905366348495
20
-18.129324799982282
10
-71.85890536634848
20
-23.145376858061478
10
-72.672869189160522
20
-23.145376858061478
10
-72.672869189160522
20
-26.65050857004583
10
-71.85890536634848
20
-26.650508570045833
10
-71.858905366348466
20
-27.632352431312857
10
-57.868902161766528
20
-27.632352431312853
10
-57.868902161766528
20
-26.65050857004583
10
-57.0549383389545
20
-26.65050857004583
10
-57.0549383389545
20
-23.145376858061482
10
-57.868902161766528
20
-23.145376858061482
10
-57.868902161766542
20
-18.129324799982285
10
-57.054938338954514
20
-18.129324799982285
0
LWPOLYLINE
5
126
100
AcDbEntity
8
0
100
AcDbPolyline
90
20
70
1
43
0.0
10
-72.736460112817696
20
-64.866110051071132
10
-71.922496290005654
20
-64.866110051071146
10
-71.922496290005654
20
-65.84795391233817
10
-57.932493085423708
20
-65.84795391233817
10
-57.932493085423708
20
-64.866110051071132
10
-57.118529262611673
20
-64.866110051071146
10
-57.118529262611688
20
-61.360978339086792
10
-57.932493085423715
20
-61.360978339086785
10
-57.932493085423715
20
-56.344926281007588
10
-57.118529262611688
20
-56.344926281007588
10
-57.118529262611688
20
-52.839794569023233
10
-57.932493085423715
20
-52.839794569023233
10
-57.932493085423715
20
-51.857950707756224
10
-71.922496290005654
20
-51.857950707756217
10
-71.922496290005654
20
-52.83979456902324
10
-72.736460112817696
20
-52.839794569023233
10
-72.73646011281771
20
-56.344926281007588
10
-71.922496290005668
20
-56.344926281007588
10
-71.922496290005668
20
-61.360978339086785
10
-72.73646011281771
20
-61.360978339086785
0
LWPOLYLINE
5
127
100
AcDbEntity
8
0
100
AcDbPolyline
90
20
70
1
43
0.0
10
-90.974337017699995
20
-40.32001351939553
10
-91.788300840512008
20
-40.320013519395545
10
-91.788300840512008
20
-43.825145231379885
10
-90.974337017699995
20
-43.825145231379885
10
-90.974337017699995
20
-44.806989092646916
10
-76.984333813118042
20
-44.806989092646916
10
-76.984333813118042
20
-43.825145231379885
10
-76.170369990306014
20
-43.825145231379885
10
-76.170369990306014
20
-40.320013519395545
10
-76.984333813118042
20
-40.320013519395545
10
-76.984333813118042
20
-35.303961461316348
10
-76.170369990306014
20
-35.303961461316334
10
-76.170369990306014
20
-31.798829749331993
10
-76.984333813118042
20
-31.798829749331993
10
-76.984333813118042
20
-30.816985888064966
10
-90.974337017699995
20
-30.816985888064963
10
-90.974337017700009
20
-31.798829749331986
10
-91.788300840512022
20
-31.798829749331986
10
-91.788300840512022
20
-35.303961461316334
10
-90.974337017700009
20
-35.303961461316334
0
LWPOLYLINE
5
128
100
AcDbEntity
8
0
100
AcDbPolyline
90
20
70
1
43
0.0
10
-96.094678190576985
20
-39.139765976318081
10
-96.094678190576985
20
-38.157922115051058
10
-95.280714367764944
20
-38.157922115051058
10
-95.280714367764929
20
-34.652790403066703
10
-96.094678190576971
20
-34.652790403066703
10
-96.094678190576985
20
-29.636738344987506
10
-95.280714367764944
20
-29.636738344987506
10
-95.280714367764929
20
-26.131606633003159
10
-96.094678190576971
20
-26.131606633003159
10
-96.094678190576985
20
-25.149762771736132
10
-110.08468139515892
20
-25.149762771736135
10
-110.08468139515892
20
-26.131606633003159
10
-110.89864521797097
20
-26.131606633003159
10
-110.89864521797097
20
-29.63673834498751
10
-110.08468139515892
20
-29.63673834498751
10
-110.08468139515892
20
-34.652790403066703
10
-110.89864521797097
20
-34.652790403066703
10
-110.89864521797097
20
-38.157922115051058
10
-110.08468139515892
20
-38.157922115051058
10
-110.08468139515892
20
-39.139765976318081
0
LWPOLYLINE
5
129
100
AcDbEntity
8
0
100
AcDbPolyline
90
20
70
1
43
0.0
10
-115.16432437689531
20
-10.829086764136795
10
-115.16432437689531
20
-9.8472429028697697
10
-129.15432758147725
20
-9.847242902869775
10
-129.15432758147725
20
-10.8290867641368
10
-129.96829140428932
20
-10.8290867641368
10
-129.96829140428932
20
-14.334218476121148
10
-129.15432758147725
20
-14.334218476121144
10
-129.15432758147725
20
-19.350270534200344
10
-129.96829140428932
20
-19.350270534200344
10
-129.96829140428932
20
-22.855402246184692
10
-129.15432758147725
20
-22.855402246184692
10
-129.15432758147725
20
-23.837246107451719
10
-115.16432437689531
20
-23.837246107451719
10
-115.16432437689531
20
-22.855402246184692
10
-114.3503605540833
20
-22.855402246184692
10
-114.3503605540833
20
-19.350270534200344
10
-115.16432437689531
20
-19.350270534200344
10
-115.16432437689531
20
-14.334218476121148
10
-114.3503605540833
20
-14.334218476121144
10
-114.3503605540833
20
-10.829086764136795
0
ENDSEC
0
SECTION
2
OBJECTS
0
DICTIONARY
5
C
100
AcDbDictionary
3
ACAD_GROUP
350
D
3
ACAD_MLINESTYLE
350
17
0
DICTIONARY
5
D
100
AcDbDictionary
0
DICTIONARY
5
1A
330
C
100
AcDbDictionary
0
DICTIONARY
5
17
100
AcDbDictionary
0
ENDSEC
0
EOF
