  0
SECTION
  2
HEADER
  9
$ACADVER
  1
AC1014
  9
$HANDSEED
  5
FFFF
  9
$MEASUREMENT
 70
     1
  0
ENDSEC
  0
SECTION
  2
TABLES
  0
TABLE
  2
VPORT
  5
8
330
0
100
AcDbSymbolTable
 70
     4
  0
VPORT
  5
2E
330
8
100
AcDbSymbolTableRecord
100
AcDbViewportTableRecord
  2
*ACTIVE
 70
     0
 10
0.0
 20
0.0
 11
1.0
 21
1.0
 12
210.0
 22
148.5
 13
0.0
 23
0.0
 14
10.0
 24
10.0
 15
10.0
 25
10.0
 16
0.0
 26
0.0
 36
1.0
 17
0.0
 27
0.0
 37
0.0
 40
341.0
 41
1.24
 42
50.0
 43
0.0
 44
0.0
 50
0.0
 51
0.0
 71
     0
 72
   100
 73
     1
 74
     3
 75
     0
 76
     0
 77
     0
 78
     0
  0
ENDTAB
  0
TABLE
  2
LTYPE
  5
5
330
0
100
AcDbSymbolTable
 70
     1
  0
LTYPE
  5
14
330
5
100
AcDbSymbolTableRecord
100
AcDbLinetypeTableRecord
  2
BYBLOCK
 70
     0
  3

 72
    65
 73
     0
 40
0.0
  0
LTYPE
  5
15
330
5
100
AcDbSymbolTableRecord
100
AcDbLinetypeTableRecord
  2
BYLAYER
 70
     0
  3

 72
    65
 73
     0
 40
0.0
  0
LTYPE
  5
16
330
5
100
AcDbSymbolTableRecord
100
AcDbLinetypeTableRecord
  2
CONTINUOUS
 70
     0
  3
Solid line
 72
    65
 73
     0
 40
0.0
  0
ENDTAB
  0
TABLE
  2
LAYER
  5
2
100
AcDbSymbolTable
 70
1
  0
LAYER
  5
50
100
AcDbSymbolTableRecord
100
AcDbLayerTableRecord
  2
0
 70
0
  6
CONTINUOUS
  0
ENDTAB
  0
TABLE
  2
STYLE
  5
3
330
0
100
AcDbSymbolTable
 70
     1
  0
STYLE
  5
11
330
3
100
AcDbSymbolTableRecord
100
AcDbTextStyleTableRecord
  2
STANDARD
 70
     0
 40
0.0
 41
1.0
 50
0.0
 71
     0
 42
2.5
  3
txt
  4

  0
ENDTAB
  0
TABLE
  2
VIEW
  5
6
330
0
100
AcDbSymbolTable
 70
     0
  0
ENDTAB
  0
TABLE
  2
UCS
  5
7
330
0
100
AcDbSymbolTable
 70
     0
  0
ENDTAB
  0
TABLE
  2
APPID
  5
9
330
0
100
AcDbSymbolTable
 70
     2
  0
APPID
  5
12
330
9
100
AcDbSymbolTableRecord
100
AcDbRegAppTableRecord
  2
ACAD
 70
     0
  0
ENDTAB
  0
TABLE
  2
DIMSTYLE
  5
A
330
0
100
AcDbSymbolTable
 70
     1
  0
DIMSTYLE
105
27
330
A
100
AcDbSymbolTableRecord
100
AcDbDimStyleTableRecord
  2
ISO-25
 70
     0
  3

  4

  5

  6

  7

 40
1.0
 41
2.5
 42
0.625
 43
3.75
 44
1.25
 45
0.0
 46
0.0
 47
0.0
 48
0.0
140
2.5
141
2.5
142
0.0
143
0.03937007874016
144
1.0
145
0.0
146
1.0
147
0.625
 71
     0
 72
     0
 73
     0
 74
     0
 75
     0
 76
     0
 77
     1
 78
     8
170
     0
171
     3
172
     1
173
     0
174
     0
175
     0
176
     0
177
     0
178
     0
270
     2
271
     2
272
     2
273
     2
274
     3
340
11
275
     0
280
     0
281
     0
282
     0
283
     0
284
     8
285
     0
286
     0
287
     3
288
     0
  0
ENDTAB
  0
TABLE
  2
BLOCK_RECORD
  5
1
330
0
100
AcDbSymbolTable
 70
     1
  0
BLOCK_RECORD
  5
1F
330
1
100
AcDbSymbolTableRecord
100
AcDbBlockTableRecord
  2
*MODEL_SPACE
  0
BLOCK_RECORD
  5
1B
330
1
100
AcDbSymbolTableRecord
100
AcDbBlockTableRecord
  2
*PAPER_SPACE
  0
ENDTAB
  0
ENDSEC
  0
SECTION
  2
BLOCKS
  0
BLOCK
  5
20
330
1F
100
AcDbEntity
  8
0
100
AcDbBlockBegin
  2
*MODEL_SPACE
 70
     0
 10
0.0
 20
0.0
 30
0.0
  3
*MODEL_SPACE
  1

  0
ENDBLK
  5
21
330
1F
100
AcDbEntity
  8
0
100
AcDbBlockEnd
  0
BLOCK
  5
1C
330
1B
100
AcDbEntity
 67
     1
  8
0
100
AcDbBlockBegin
  2
*PAPER_SPACE
  1

  0
ENDBLK
  5
1D
330
1B
100
AcDbEntity
 67
     1
  8
0
100
AcDbBlockEnd
  0
ENDSEC
  0
SECTION
  2
ENTITIES
  0
LINE
  5
100
100
AcDbEntity
  8
0
 62
7
100
AcDbLine
 10
10.041592
 20
-102.588868
 30
0.0
 11
1.537211
 21
-91.505739
 31
0.0
  0
LINE
  5
101
100
AcDbEntity
  8
0
 62
7
100
AcDbLine
 10
12.620337
 20
-83.001358
 30
0.0
 11
21.124718
 21
-94.084484
 31
0.0
  0
LINE
  5
102
100
AcDbEntity
  8
0
 62
7
100
AcDbLine
 10
21.124718
 20
-94.084484
 30
0.0
 11
10.041592
 21
-102.588868
 31
0.0
  0
LINE
  5
103
100
AcDbEntity
  8
0
 62
7
100
AcDbLine
 10
1.537211
 20
-91.505739
 30
0.0
 11
12.620337
 21
-83.001358
 31
0.0
  0
LINE
  5
104
100
AcDbEntity
  8
0
 62
7
100
AcDbLine
 10
32.790669
 20
-7.802125
 30
0.0
 11
32.790669
 21
-38.282067
 31
0.0
  0
LINE
  5
105
100
AcDbEntity
  8
0
 62
7
100
AcDbLine
 10
38.709334
 20
-42.891942
 30
0.0
 11
38.709334
 21
-28.921968
 31
0.0
  0
LINE
  5
106
100
AcDbEntity
  8
0
 62
7
100
AcDbLine
 10
52.679308
 20
-42.891942
 30
0.0
 11
38.709334
 21
-42.891942
 31
0.0
  0
LINE
  5
107
100
AcDbEntity
  8
0
 62
7
100
AcDbLine
 10
38.709334
 20
-28.921968
 30
0.0
 11
52.679308
 21
-28.921968
 31
0.0
  0
LINE
  5
108
100
AcDbEntity
  8
0
 62
7
100
AcDbLine
 10
52.679308
 20
-28.921968
 30
0.0
 11
52.679308
 21
-42.891942
 31
0.0
  0
LINE
  5
109
100
AcDbEntity
  8
0
 62
7
100
AcDbLine
 10
76.789377
 20
-54.357202
 30
0.0
 11
76.789377
 21
-40.387228
 31
0.0
  0
LINE
  5
10a
100
AcDbEntity
  8
0
 62
7
100
AcDbLine
 10
90.759350
 20
-40.387228
 30
0.0
 11
90.759350
 21
-54.357202
 31
0.0
  0
LINE
  5
10b
100
AcDbEntity
  8
0
 62
7
100
AcDbLine
 10
76.789377
 20
-40.387228
 30
0.0
 11
90.759350
 21
-40.387228
 31
0.0
  0
LINE
  5
10c
100
AcDbEntity
  8
0
 62
7
100
AcDbLine
 10
90.759350
 20
-54.357202
 30
0.0
 11
76.789377
 21
-54.357202
 31
0.0
  0
LINE
  5
10d
100
AcDbEntity
  8
0
 62
7
100
AcDbLine
 10
38.665690
 20
-9.887109
 30
0.0
 11
52.635664
 21
-9.887109
 31
0.0
  0
LINE
  5
10e
100
AcDbEntity
  8
0
 62
7
100
AcDbLine
 10
52.635664
 20
-23.857083
 30
0.0
 11
38.665690
 21
-23.857083
 31
0.0
  0
LINE
  5
10f
100
AcDbEntity
  8
0
 62
7
100
AcDbLine
 10
52.635664
 20
-9.887109
 30
0.0
 11
52.635664
 21
-23.857083
 31
0.0
  0
LINE
  5
110
100
AcDbEntity
  8
0
 62
7
100
AcDbLine
 10
38.665690
 20
-23.857083
 30
0.0
 11
38.665690
 21
-9.887109
 31
0.0
  0
LINE
  5
111
100
AcDbEntity
  8
0
 62
7
100
AcDbLine
 10
71.722408
 20
-27.036452
 30
0.0
 11
71.722408
 21
-41.006425
 31
0.0
  0
LINE
  5
112
100
AcDbEntity
  8
0
 62
7
100
AcDbLine
 10
71.722408
 20
-41.006425
 30
0.0
 11
57.752435
 21
-41.006425
 31
0.0
  0
LINE
  5
113
100
AcDbEntity
  8
0
 62
7
100
AcDbLine
 10
57.752435
 20
-27.036452
 30
0.0
 11
71.722408
 21
-27.036452
 31
0.0
  0
LINE
  5
114
100
AcDbEntity
  8
0
 62
7
100
AcDbLine
 10
57.752435
 20
-41.006425
 30
0.0
 11
57.752435
 21
-27.036452
 31
0.0
  0
LINE
  5
115
100
AcDbEntity
  8
0
 62
7
100
AcDbLine
 10
52.698686
 20
-48.047384
 30
0.0
 11
52.698686
 21
-62.017357
 31
0.0
  0
LINE
  5
116
100
AcDbEntity
  8
0
 62
7
100
AcDbLine
 10
38.728712
 20
-62.017357
 30
0.0
 11
38.728712
 21
-48.047384
 31
0.0
  0
LINE
  5
117
100
AcDbEntity
  8
0
 62
7
100
AcDbLine
 10
38.728712
 20
-48.047384
 30
0.0
 11
52.698686
 21
-48.047384
 31
0.0
  0
LINE
  5
118
100
AcDbEntity
  8
0
 62
7
100
AcDbLine
 10
52.698686
 20
-62.017357
 30
0.0
 11
38.728712
 21
-62.017357
 31
0.0
  0
LINE
  5
119
100
AcDbEntity
  8
0
 62
7
100
AcDbLine
 10
71.769320
 20
-21.995836
 30
0.0
 11
57.799347
 21
-21.995836
 31
0.0
  0
LINE
  5
11a
100
AcDbEntity
  8
0
 62
7
100
AcDbLine
 10
57.799347
 20
-21.995836
 30
0.0
 11
57.799347
 21
-8.025863
 31
0.0
  0
LINE
  5
11b
100
AcDbEntity
  8
0
 62
7
100
AcDbLine
 10
57.799347
 20
-8.025863
 30
0.0
 11
71.769320
 21
-8.025863
 31
0.0
  0
LINE
  5
11c
100
AcDbEntity
  8
0
 62
7
100
AcDbLine
 10
71.769320
 20
-8.025863
 30
0.0
 11
71.769320
 21
-21.995836
 31
0.0
  0
LINE
  5
11d
100
AcDbEntity
  8
0
 62
7
100
AcDbLine
 10
57.796080
 20
-60.041285
 30
0.0
 11
57.796080
 21
-46.071312
 31
0.0
  0
LINE
  5
11e
100
AcDbEntity
  8
0
 62
7
100
AcDbLine
 10
71.766053
 20
-46.071312
 30
0.0
 11
71.766053
 21
-60.041285
 31
0.0
  0
LINE
  5
11f
100
AcDbEntity
  8
0
 62
7
100
AcDbLine
 10
57.796080
 20
-46.071312
 30
0.0
 11
71.766053
 21
-46.071312
 31
0.0
  0
LINE
  5
120
100
AcDbEntity
  8
0
 62
7
100
AcDbLine
 10
71.766053
 20
-60.041285
 30
0.0
 11
57.796080
 21
-60.041285
 31
0.0
  0
LINE
  5
121
100
AcDbEntity
  8
0
 62
7
100
AcDbLine
 10
95.877309
 20
-20.066676
 30
0.0
 11
95.877309
 21
-6.096703
 31
0.0
  0
LINE
  5
122
100
AcDbEntity
  8
0
 62
7
100
AcDbLine
 10
109.847281
 20
-20.066676
 30
0.0
 11
95.877309
 21
-20.066676
 31
0.0
  0
LINE
  5
123
100
AcDbEntity
  8
0
 62
7
100
AcDbLine
 10
109.847281
 20
-6.096703
 30
0.0
 11
109.847281
 21
-20.066676
 31
0.0
  0
LINE
  5
124
100
AcDbEntity
  8
0
 62
7
100
AcDbLine
 10
95.877309
 20
-6.096703
 30
0.0
 11
109.847281
 21
-6.096703
 31
0.0
  0
LINE
  5
125
100
AcDbEntity
  8
0
 62
7
100
AcDbLine
 10
53.472656
 20
-67.254644
 30
0.0
 11
56.496311
 21
-80.893473
 31
0.0
  0
LINE
  5
126
100
AcDbEntity
  8
0
 62
7
100
AcDbLine
 10
39.833827
 20
-70.278299
 30
0.0
 11
53.472656
 21
-67.254644
 31
0.0
  0
LINE
  5
127
100
AcDbEntity
  8
0
 62
7
100
AcDbLine
 10
42.857482
 20
-83.917128
 30
0.0
 11
39.833827
 21
-70.278299
 31
0.0
  0
LINE
  5
128
100
AcDbEntity
  8
0
 62
7
100
AcDbLine
 10
56.496311
 20
-80.893473
 30
0.0
 11
42.857482
 21
-83.917128
 31
0.0
  0
LINE
  5
129
100
AcDbEntity
  8
0
 62
7
100
AcDbLine
 10
128.921704
 20
-67.688602
 30
0.0
 11
114.951731
 21
-67.688602
 31
0.0
  0
LINE
  5
12a
100
AcDbEntity
  8
0
 62
7
100
AcDbLine
 10
128.921704
 20
-53.718629
 30
0.0
 11
128.921704
 21
-67.688602
 31
0.0
  0
LINE
  5
12b
100
AcDbEntity
  8
0
 62
7
100
AcDbLine
 10
114.951731
 20
-67.688602
 30
0.0
 11
114.951731
 21
-53.718629
 31
0.0
  0
LINE
  5
12c
100
AcDbEntity
  8
0
 62
7
100
AcDbLine
 10
114.951731
 20
-53.718629
 30
0.0
 11
128.921704
 21
-53.718629
 31
0.0
  0
LINE
  5
12d
100
AcDbEntity
  8
0
 62
7
100
AcDbLine
 10
128.878064
 20
-34.683764
 30
0.0
 11
128.878064
 21
-48.653738
 31
0.0
  0
LINE
  5
12e
100
AcDbEntity
  8
0
 62
7
100
AcDbLine
 10
114.908091
 20
-34.683764
 30
0.0
 11
128.878064
 21
-34.683764
 31
0.0
  0
LINE
  5
12f
100
AcDbEntity
  8
0
 62
7
100
AcDbLine
 10
114.908091
 20
-48.653738
 30
0.0
 11
114.908091
 21
-34.683764
 31
0.0
  0
LINE
  5
130
100
AcDbEntity
  8
0
 62
7
100
AcDbLine
 10
128.878064
 20
-48.653738
 30
0.0
 11
114.908091
 21
-48.653738
 31
0.0
  0
LINE
  5
131
100
AcDbEntity
  8
0
 62
7
100
AcDbLine
 10
76.816909
 20
-2.251221
 30
0.0
 11
90.786882
 21
-2.251221
 31
0.0
  0
LINE
  5
132
100
AcDbEntity
  8
0
 62
7
100
AcDbLine
 10
90.786882
 20
-16.221194
 30
0.0
 11
76.816909
 21
-16.221194
 31
0.0
  0
LINE
  5
133
100
AcDbEntity
  8
0
 62
7
100
AcDbLine
 10
76.816909
 20
-16.221194
 30
0.0
 11
76.816909
 21
-2.251221
 31
0.0
  0
LINE
  5
134
100
AcDbEntity
  8
0
 62
7
100
AcDbLine
 10
90.786882
 20
-2.251221
 30
0.0
 11
90.786882
 21
-16.221194
 31
0.0
  0
LINE
  5
135
100
AcDbEntity
  8
0
 62
7
100
AcDbLine
 10
25.435753
 20
-91.524343
 30
0.0
 11
19.531787
 21
-78.863248
 31
0.0
  0
LINE
  5
136
100
AcDbEntity
  8
0
 62
7
100
AcDbLine
 10
38.096847
 20
-85.620377
 30
0.0
 11
25.435753
 21
-91.524343
 31
0.0
  0
LINE
  5
137
100
AcDbEntity
  8
0
 62
7
100
AcDbLine
 10
32.192882
 20
-72.959282
 30
0.0
 11
38.096847
 21
-85.620377
 31
0.0
  0
LINE
  5
138
100
AcDbEntity
  8
0
 62
7
100
AcDbLine
 10
19.531787
 20
-78.863248
 30
0.0
 11
32.192882
 21
-72.959282
 31
0.0
  0
LINE
  5
139
100
AcDbEntity
  8
0
 62
7
100
AcDbLine
 10
109.819751
 20
-58.202675
 30
0.0
 11
95.849772
 21
-58.202675
 31
0.0
  0
LINE
  5
13a
100
AcDbEntity
  8
0
 62
7
100
AcDbLine
 10
109.819751
 20
-44.232702
 30
0.0
 11
109.819751
 21
-58.202675
 31
0.0
  0
LINE
  5
13b
100
AcDbEntity
  8
0
 62
7
100
AcDbLine
 10
95.849772
 20
-44.232702
 30
0.0
 11
109.819751
 21
-44.232702
 31
0.0
  0
LINE
  5
13c
100
AcDbEntity
  8
0
 62
7
100
AcDbLine
 10
95.849772
 20
-58.202675
 30
0.0
 11
95.849772
 21
-44.232702
 31
0.0
  0
LINE
  5
13d
100
AcDbEntity
  8
0
 62
7
100
AcDbLine
 10
128.834424
 20
-29.618872
 30
0.0
 11
114.864451
 21
-29.618872
 31
0.0
  0
LINE
  5
13e
100
AcDbEntity
  8
0
 62
7
100
AcDbLine
 10
128.834424
 20
-15.648899
 30
0.0
 11
128.834424
 21
-29.618872
 31
0.0
  0
LINE
  5
13f
100
AcDbEntity
  8
0
 62
7
100
AcDbLine
 10
114.864451
 20
-15.648899
 30
0.0
 11
128.834424
 21
-15.648899
 31
0.0
  0
LINE
  5
140
100
AcDbEntity
  8
0
 62
7
100
AcDbLine
 10
114.864451
 20
-29.618872
 30
0.0
 11
114.864451
 21
-15.648899
 31
0.0
  0
LINE
  5
141
100
AcDbEntity
  8
0
 62
7
100
AcDbLine
 10
76.836292
 20
-21.376636
 30
0.0
 11
90.806265
 21
-21.376636
 31
0.0
  0
LINE
  5
142
100
AcDbEntity
  8
0
 62
7
100
AcDbLine
 10
90.806265
 20
-35.346609
 30
0.0
 11
76.836292
 21
-35.346609
 31
0.0
  0
LINE
  5
143
100
AcDbEntity
  8
0
 62
7
100
AcDbLine
 10
76.836292
 20
-35.346609
 30
0.0
 11
76.836292
 21
-21.376636
 31
0.0
  0
LINE
  5
144
100
AcDbEntity
  8
0
 62
7
100
AcDbLine
 10
90.806265
 20
-21.376636
 30
0.0
 11
90.806265
 21
-35.346609
 31
0.0
  0
LINE
  5
145
100
AcDbEntity
  8
0
 62
7
100
AcDbLine
 10
14.209736
 20
-50.372200
 30
0.0
 11
31.709703
 21
-50.372200
 31
0.0
  0
LINE
  5
146
100
AcDbEntity
  8
0
 62
7
100
AcDbLine
 10
31.709703
 20
-64.572173
 30
0.0
 11
14.209736
 21
-64.572173
 31
0.0
  0
LINE
  5
147
100
AcDbEntity
  8
0
 62
7
100
AcDbLine
 10
14.209736
 20
-50.372200
 30
0.0
 11
14.209736
 21
-64.572173
 31
0.0
  0
LINE
  5
148
100
AcDbEntity
  8
0
 62
7
100
AcDbLine
 10
31.709703
 20
-64.572173
 30
0.0
 11
31.709703
 21
-50.372200
 31
0.0
  0
LINE
  5
149
100
AcDbEntity
  8
0
 62
7
100
AcDbLine
 10
95.830400
 20
-39.077268
 30
0.0
 11
95.830400
 21
-25.107294
 31
0.0
  0
LINE
  5
14a
100
AcDbEntity
  8
0
 62
7
100
AcDbLine
 10
109.800371
 20
-39.077268
 30
0.0
 11
95.830400
 21
-39.077268
 31
0.0
  0
LINE
  5
14b
100
AcDbEntity
  8
0
 62
7
100
AcDbLine
 10
109.800371
 20
-25.107294
 30
0.0
 11
109.800371
 21
-39.077268
 31
0.0
  0
LINE
  5
14c
100
AcDbEntity
  8
0
 62
7
100
AcDbLine
 10
95.830400
 20
-25.107294
 30
0.0
 11
109.800371
 21
-25.107294
 31
0.0
  0
LINE
  5
14d
100
AcDbEntity
  8
0
 62
7
100
AcDbLine
 10
61.831158
 20
-80.247956
 30
0.0
 11
61.831158
 21
-66.277983
 31
0.0
  0
LINE
  5
14e
100
AcDbEntity
  8
0
 62
7
100
AcDbLine
 10
75.801132
 20
-80.247956
 30
0.0
 11
61.831158
 21
-80.247956
 31
0.0
  0
LINE
  5
14f
100
AcDbEntity
  8
0
 62
7
100
AcDbLine
 10
61.831158
 20
-66.277983
 30
0.0
 11
75.801132
 21
-66.277983
 31
0.0
  0
LINE
  5
150
100
AcDbEntity
  8
0
 62
7
100
AcDbLine
 10
75.801132
 20
-66.277983
 30
0.0
 11
75.801132
 21
-80.247956
 31
0.0
  0
LINE
  5
151
100
AcDbEntity
  8
0
 62
7
100
AcDbLine
 10
12.527508
 20
-7.952423
 30
0.0
 11
12.527508
 21
-5.952427
 31
0.0
  0
LINE
  5
152
100
AcDbEntity
  8
0
 62
7
100
AcDbLine
 10
6.927519
 20
-7.952423
 30
0.0
 11
6.927519
 21
-5.952427
 31
0.0
  0
LINE
  5
153
100
AcDbEntity
  8
0
 62
7
100
AcDbLine
 10
12.777508
 20
-7.952423
 30
0.0
 11
12.777508
 21
-20.052400
 31
0.0
  0
LINE
  5
154
100
AcDbEntity
  8
0
 62
7
100
AcDbLine
 10
6.927519
 20
-5.952427
 30
0.0
 11
12.527508
 21
-5.952427
 31
0.0
  0
LINE
  5
155
100
AcDbEntity
  8
0
 62
7
100
AcDbLine
 10
6.677519
 20
-20.052400
 30
0.0
 11
12.777508
 21
-20.052400
 31
0.0
  0
LINE
  5
156
100
AcDbEntity
  8
0
 62
7
100
AcDbLine
 10
6.677519
 20
-7.952423
 30
0.0
 11
12.777508
 21
-7.952423
 31
0.0
  0
LINE
  5
157
100
AcDbEntity
  8
0
 62
7
100
AcDbLine
 10
6.677519
 20
-7.952423
 30
0.0
 11
6.677519
 21
-20.052400
 31
0.0
  0
LINE
  5
158
100
AcDbEntity
  8
0
 62
7
100
AcDbLine
 10
131.334280
 20
-14.012413
 30
0.0
 11
131.334280
 21
-69.384309
 31
0.0
  0
LINE
  5
159
100
AcDbEntity
  8
0
 62
7
100
AcDbLine
 10
14.907505
 20
-7.535425
 30
0.0
 11
27.507481
 21
-7.535425
 31
0.0
  0
LINE
  5
15a
100
AcDbEntity
  8
0
 62
7
100
AcDbLine
 10
5.907520
 20
-7.535425
 30
0.0
 11
14.907505
 21
-7.535425
 31
0.0
  0
SPLINE
  5
15b
100
AcDbEntity
  8
0
 62
7
100
AcDbSpline
 70
8
 71
3
 72
8
 73
4
 74
0
 40
0
 40
0
 40
0
 40
0
 40
1
 40
1
 40
1
 40
1
 10
60.418648
 20
-63.977174
 30
0.0
 10
59.828534
 20
-63.960343
 30
0.0
 10
59.328367
 20
-64.408100
 30
0.0
 10
59.280041
 20
-64.996472
 30
0.0
  0
SPLINE
  5
15c
100
AcDbEntity
  8
0
 62
7
100
AcDbSpline
 70
8
 71
3
 72
8
 73
4
 74
0
 40
0
 40
0
 40
0
 40
0
 40
1
 40
1
 40
1
 40
1
 10
130.572281
 20
-70.146306
 30
0.0
 10
130.774376
 20
-70.146306
 30
0.0
 10
130.968193
 20
-70.066024
 30
0.0
 10
131.111096
 20
-69.923121
 30
0.0
  0
SPLINE
  5
15d
100
AcDbEntity
  8
0
 62
7
100
AcDbSpline
 70
8
 71
3
 72
8
 73
4
 74
0
 40
0
 40
0
 40
0
 40
0
 40
1
 40
1
 40
1
 40
1
 10
131.111096
 20
-69.923121
 30
0.0
 10
131.253998
 20
-69.780219
 30
0.0
 10
131.334280
 20
-69.586402
 30
0.0
 10
131.334280
 20
-69.384307
 30
0.0
  0
LINE
  5
15e
100
AcDbEntity
  8
0
 62
7
100
AcDbLine
 10
13.043433
 20
-82.760631
 30
0.0
 11
13.579129
 21
-83.465976
 31
0.0
  0
SPLINE
  5
15f
100
AcDbEntity
  8
0
 62
7
100
AcDbSpline
 70
8
 71
3
 72
8
 73
4
 74
0
 40
0
 40
0
 40
0
 40
0
 40
1
 40
1
 40
1
 40
1
 10
59.280040
 20
-69.568464
 30
0.0
 10
59.280040
 20
-69.749955
 30
0.0
 10
59.376864
 20
-69.917659
 30
0.0
 10
59.534040
 20
-70.008405
 30
0.0
  0
SPLINE
  5
160
100
AcDbEntity
  8
0
 62
7
100
AcDbSpline
 70
8
 71
3
 72
8
 73
4
 74
0
 40
0
 40
0
 40
0
 40
0
 40
1
 40
1
 40
1
 40
1
 10
59.534040
 20
-70.008405
 30
0.0
 10
59.691216
 20
-70.099150
 30
0.0
 10
59.884864
 20
-70.099150
 30
0.0
 10
60.042040
 20
-70.008405
 30
0.0
  0
SPLINE
  5
161
100
AcDbEntity
  8
0
 62
7
100
AcDbSpline
 70
8
 71
3
 72
8
 73
4
 74
0
 40
0
 40
0
 40
0
 40
0
 40
1
 40
1
 40
1
 40
1
 10
60.042040
 20
-70.008405
 30
0.0
 10
60.199216
 20
-69.917659
 30
0.0
 10
60.296040
 20
-69.749955
 30
0.0
 10
60.296040
 20
-69.568464
 30
0.0
  0
LINE
  5
162
100
AcDbEntity
  8
0
 62
7
100
AcDbLine
 10
60.296039
 20
-64.488473
 30
0.0
 11
60.296038
 21
-64.996472
 31
0.0
  0
LINE
  5
163
100
AcDbEntity
  8
0
 62
7
100
AcDbLine
 10
22.199234
 20
-93.023744
 30
0.0
 11
23.745485
 21
-95.038858
 31
0.0
  0
SPLINE
  5
164
100
AcDbEntity
  8
0
 62
7
100
AcDbSpline
 70
8
 71
3
 72
8
 73
4
 74
0
 40
0
 40
0
 40
0
 40
0
 40
1
 40
1
 40
1
 40
1
 10
59.280041
 20
-64.996472
 30
0.0
 10
59.280041
 20
-65.177963
 30
0.0
 10
59.376866
 20
-65.345666
 30
0.0
 10
59.534041
 20
-65.436411
 30
0.0
  0
SPLINE
  5
165
100
AcDbEntity
  8
0
 62
7
100
AcDbSpline
 70
8
 71
3
 72
8
 73
4
 74
0
 40
0
 40
0
 40
0
 40
0
 40
1
 40
1
 40
1
 40
1
 10
59.534041
 20
-65.436411
 30
0.0
 10
59.691216
 20
-65.527156
 30
0.0
 10
59.884864
 20
-65.527156
 30
0.0
 10
60.042039
 20
-65.436410
 30
0.0
  0
SPLINE
  5
166
100
AcDbEntity
  8
0
 62
7
100
AcDbSpline
 70
8
 71
3
 72
8
 73
4
 74
0
 40
0
 40
0
 40
0
 40
0
 40
1
 40
1
 40
1
 40
1
 10
60.042039
 20
-65.436410
 30
0.0
 10
60.199214
 20
-65.345665
 30
0.0
 10
60.296037
 20
-65.177961
 30
0.0
 10
60.296037
 20
-64.996470
 30
0.0
  0
LINE
  5
167
100
AcDbEntity
  8
0
 62
7
100
AcDbLine
 10
20.652983
 20
-91.008631
 30
0.0
 11
22.199234
 21
-93.023744
 31
0.0
  0
SPLINE
  5
168
100
AcDbEntity
  8
0
 62
7
100
AcDbSpline
 70
8
 71
3
 72
8
 73
4
 74
0
 40
0
 40
0
 40
0
 40
0
 40
1
 40
1
 40
1
 40
1
 10
60.296039
 20
-68.044466
 30
0.0
 10
60.296039
 20
-67.862975
 30
0.0
 10
60.199215
 20
-67.695270
 30
0.0
 10
60.042039
 20
-67.604525
 30
0.0
  0
SPLINE
  5
169
100
AcDbEntity
  8
0
 62
7
100
AcDbSpline
 70
8
 71
3
 72
8
 73
4
 74
0
 40
0
 40
0
 40
0
 40
0
 40
1
 40
1
 40
1
 40
1
 10
60.042039
 20
-67.604525
 30
0.0
 10
59.884863
 20
-67.513779
 30
0.0
 10
59.691215
 20
-67.513779
 30
0.0
 10
59.534039
 20
-67.604525
 30
0.0
  0
SPLINE
  5
16a
100
AcDbEntity
  8
0
 62
7
100
AcDbSpline
 70
8
 71
3
 72
8
 73
4
 74
0
 40
0
 40
0
 40
0
 40
0
 40
1
 40
1
 40
1
 40
1
 10
59.534039
 20
-67.604525
 30
0.0
 10
59.376863
 20
-67.695270
 30
0.0
 10
59.280039
 20
-67.862975
 30
0.0
 10
59.280039
 20
-68.044466
 30
0.0
  0
LINE
  5
16b
100
AcDbEntity
  8
0
 62
7
100
AcDbLine
 10
76.552008
 20
-82.268440
 30
0.0
 11
60.296039
 21
-82.268440
 31
0.0
  0
LINE
  5
16c
100
AcDbEntity
  8
0
 62
7
100
AcDbLine
 10
15.704981
 20
-84.560268
 30
0.0
 11
17.786927
 21
-87.280725
 31
0.0
  0
SPLINE
  5
16d
100
AcDbEntity
  8
0
 62
7
100
AcDbSpline
 70
8
 71
3
 72
8
 73
4
 74
0
 40
0
 40
0
 40
0
 40
0
 40
1
 40
1
 40
1
 40
1
 10
131.334280
 20
-14.012413
 30
0.0
 10
102.128581
 20
1.957487
 30
0.0
 10
67.390902
 20
4.324725
 30
0.0
 10
36.288694
 20
-7.535425
 30
0.0
  0
LINE
  5
16e
100
AcDbEntity
  8
0
 62
7
100
AcDbLine
 10
19.415982
 20
-89.396540
 30
0.0
 11
20.652983
 21
-91.008631
 31
0.0
  0
LINE
  5
16f
100
AcDbEntity
  8
0
 62
7
100
AcDbLine
 10
59.280041
 20
-68.044467
 30
0.0
 11
59.280040
 21
-69.568464
 31
0.0
  0
LINE
  5
170
100
AcDbEntity
  8
0
 62
7
100
AcDbLine
 10
10.848758
 20
-104.934863
 30
0.0
 11
22.939439
 21
-95.657358
 31
0.0
  0
LINE
  5
171
100
AcDbEntity
  8
0
 62
7
100
AcDbLine
 10
19.023929
 20
-88.892816
 30
0.0
 11
19.415982
 21
-89.396540
 31
0.0
  0
SPLINE
  5
172
100
AcDbEntity
  8
0
 62
7
100
AcDbSpline
 70
8
 71
3
 72
8
 73
4
 74
0
 40
0
 40
0
 40
0
 40
0
 40
1
 40
1
 40
1
 40
1
 10
19.023929
 20
-88.892816
 30
0.0
 10
18.852994
 20
-88.670685
 30
0.0
 10
18.534448
 20
-88.628970
 30
0.0
 10
18.312081
 20
-88.799598
 30
0.0
  0
SPLINE
  5
173
100
AcDbEntity
  8
0
 62
7
100
AcDbSpline
 70
8
 71
3
 72
8
 73
4
 74
0
 40
0
 40
0
 40
0
 40
0
 40
1
 40
1
 40
1
 40
1
 10
18.312081
 20
-88.799598
 30
0.0
 10
18.089714
 20
-88.970226
 30
0.0
 10
18.047561
 20
-89.288715
 30
0.0
 10
18.217882
 20
-89.511317
 30
0.0
  0
SPLINE
  5
174
100
AcDbEntity
  8
0
 62
7
100
AcDbSpline
 70
8
 71
3
 72
8
 73
4
 74
0
 40
0
 40
0
 40
0
 40
0
 40
1
 40
1
 40
1
 40
1
 10
60.296039
 20
-77.188449
 30
0.0
 10
60.296039
 20
-77.006959
 30
0.0
 10
60.199216
 20
-76.839254
 30
0.0
 10
60.042040
 20
-76.748509
 30
0.0
  0
SPLINE
  5
175
100
AcDbEntity
  8
0
 62
7
100
AcDbSpline
 70
8
 71
3
 72
8
 73
4
 74
0
 40
0
 40
0
 40
0
 40
0
 40
1
 40
1
 40
1
 40
1
 10
60.042040
 20
-76.748509
 30
0.0
 10
59.884865
 20
-76.657763
 30
0.0
 10
59.691217
 20
-76.657763
 30
0.0
 10
59.534041
 20
-76.748508
 30
0.0
  0
SPLINE
  5
176
100
AcDbEntity
  8
0
 62
7
100
AcDbSpline
 70
8
 71
3
 72
8
 73
4
 74
0
 40
0
 40
0
 40
0
 40
0
 40
1
 40
1
 40
1
 40
1
 10
59.534041
 20
-76.748508
 30
0.0
 10
59.376866
 20
-76.839253
 30
0.0
 10
59.280041
 20
-77.006957
 30
0.0
 10
59.280041
 20
-77.188447
 30
0.0
  0
LINE
  5
177
100
AcDbEntity
  8
0
 62
7
100
AcDbLine
 10
12.303228
 20
-80.127017
 30
0.0
 11
4.924145
 21
-71.092460
 31
0.0
  0
LINE
  5
178
100
AcDbEntity
  8
0
 62
7
100
AcDbLine
 10
76.552007
 20
-64.488472
 30
0.0
 11
76.552008
 21
-82.268440
 31
0.0
  0
LINE
  5
179
100
AcDbEntity
  8
0
 62
7
100
AcDbLine
 10
14.898935
 20
-85.178767
 30
0.0
 11
16.980883
 21
-87.899226
 31
0.0
  0
SPLINE
  5
17a
100
AcDbEntity
  8
0
 62
7
100
AcDbSpline
 70
8
 71
3
 72
8
 73
4
 74
0
 40
0
 40
0
 40
0
 40
0
 40
1
 40
1
 40
1
 40
1
 10
60.296039
 20
-79.728444
 30
0.0
 10
60.296039
 20
-79.546954
 30
0.0
 10
60.199215
 20
-79.379250
 30
0.0
 10
60.042040
 20
-79.288504
 30
0.0
  0
SPLINE
  5
17b
100
AcDbEntity
  8
0
 62
7
100
AcDbSpline
 70
8
 71
3
 72
8
 73
4
 74
0
 40
0
 40
0
 40
0
 40
0
 40
1
 40
1
 40
1
 40
1
 10
60.042040
 20
-79.288504
 30
0.0
 10
59.884864
 20
-79.197759
 30
0.0
 10
59.691216
 20
-79.197759
 30
0.0
 10
59.534041
 20
-79.288504
 30
0.0
  0
SPLINE
  5
17c
100
AcDbEntity
  8
0
 62
7
100
AcDbSpline
 70
8
 71
3
 72
8
 73
4
 74
0
 40
0
 40
0
 40
0
 40
0
 40
1
 40
1
 40
1
 40
1
 10
59.534041
 20
-79.288504
 30
0.0
 10
59.376865
 20
-79.379250
 30
0.0
 10
59.280041
 20
-79.546954
 30
0.0
 10
59.280041
 20
-79.728444
 30
0.0
  0
SPLINE
  5
17d
100
AcDbEntity
  8
0
 62
7
100
AcDbSpline
 70
8
 71
3
 72
8
 73
4
 74
0
 40
0
 40
0
 40
0
 40
0
 40
1
 40
1
 40
1
 40
1
 10
59.280041
 20
-77.188447
 30
0.0
 10
59.280041
 20
-77.369938
 30
0.0
 10
59.376864
 20
-77.537642
 30
0.0
 10
59.534040
 20
-77.628388
 30
0.0
  0
SPLINE
  5
17e
100
AcDbEntity
  8
0
 62
7
100
AcDbSpline
 70
8
 71
3
 72
8
 73
4
 74
0
 40
0
 40
0
 40
0
 40
0
 40
1
 40
1
 40
1
 40
1
 10
59.534040
 20
-77.628388
 30
0.0
 10
59.691215
 20
-77.719133
 30
0.0
 10
59.884863
 20
-77.719134
 30
0.0
 10
60.042039
 20
-77.628389
 30
0.0
  0
SPLINE
  5
17f
100
AcDbEntity
  8
0
 62
7
100
AcDbSpline
 70
8
 71
3
 72
8
 73
4
 74
0
 40
0
 40
0
 40
0
 40
0
 40
1
 40
1
 40
1
 40
1
 10
60.042039
 20
-77.628389
 30
0.0
 10
60.199214
 20
-77.537644
 30
0.0
 10
60.296039
 20
-77.369940
 30
0.0
 10
60.296039
 20
-77.188449
 30
0.0
  0
LINE
  5
180
100
AcDbEntity
  8
0
 62
7
100
AcDbLine
 10
21.393188
 20
-93.642245
 30
0.0
 11
19.846937
 21
-91.627131
 31
0.0
  0
LINE
  5
181
100
AcDbEntity
  8
0
 62
7
100
AcDbLine
 10
19.846937
 20
-91.627131
 30
0.0
 11
18.609938
 21
-90.015041
 31
0.0
  0
SPLINE
  5
182
100
AcDbEntity
  8
0
 62
7
100
AcDbSpline
 70
8
 71
3
 72
8
 73
4
 74
0
 40
0
 40
0
 40
0
 40
0
 40
1
 40
1
 40
1
 40
1
 10
16.980883
 20
-87.899226
 30
0.0
 10
17.151783
 20
-88.121467
 30
0.0
 10
17.470414
 20
-88.163246
 30
0.0
 10
17.692833
 20
-87.992578
 30
0.0
  0
SPLINE
  5
183
100
AcDbEntity
  8
0
 62
7
100
AcDbSpline
 70
8
 71
3
 72
8
 73
4
 74
0
 40
0
 40
0
 40
0
 40
0
 40
1
 40
1
 40
1
 40
1
 10
17.692833
 20
-87.992578
 30
0.0
 10
17.915252
 20
-87.821909
 30
0.0
 10
17.957364
 20
-87.503322
 30
0.0
 10
17.786927
 20
-87.280725
 30
0.0
  0
SPLINE
  5
184
100
AcDbEntity
  8
0
 62
7
100
AcDbSpline
 70
8
 71
3
 72
8
 73
4
 74
0
 40
0
 40
0
 40
0
 40
0
 40
1
 40
1
 40
1
 40
1
 10
59.280040
 20
-82.776439
 30
0.0
 10
46.673905
 20
-84.184860
 30
0.0
 10
34.537358
 20
-88.372993
 30
0.0
 10
23.745485
 20
-95.038858
 30
0.0
  0
LINE
  5
185
100
AcDbEntity
  8
0
 62
7
100
AcDbLine
 10
76.552008
 20
-63.980474
 30
0.0
 11
60.418648
 21
-63.977174
 31
0.0
  0
LINE
  5
186
100
AcDbEntity
  8
0
 62
7
100
AcDbLine
 10
14.385175
 20
-82.847475
 30
0.0
 11
13.849479
 21
-82.142131
 31
0.0
  0
SPLINE
  5
187
100
AcDbEntity
  8
0
 62
7
100
AcDbSpline
 70
8
 71
3
 72
8
 73
4
 74
0
 40
0
 40
0
 40
0
 40
0
 40
1
 40
1
 40
1
 40
1
 10
59.280041
 20
-74.648454
 30
0.0
 10
59.280041
 20
-74.829945
 30
0.0
 10
59.376865
 20
-74.997649
 30
0.0
 10
59.534041
 20
-75.088394
 30
0.0
  0
SPLINE
  5
188
100
AcDbEntity
  8
0
 62
7
100
AcDbSpline
 70
8
 71
3
 72
8
 73
4
 74
0
 40
0
 40
0
 40
0
 40
0
 40
1
 40
1
 40
1
 40
1
 10
59.534041
 20
-75.088394
 30
0.0
 10
59.691216
 20
-75.179139
 30
0.0
 10
59.884864
 20
-75.179139
 30
0.0
 10
60.042040
 20
-75.088394
 30
0.0
  0
SPLINE
  5
189
100
AcDbEntity
  8
0
 62
7
100
AcDbSpline
 70
8
 71
3
 72
8
 73
4
 74
0
 40
0
 40
0
 40
0
 40
0
 40
1
 40
1
 40
1
 40
1
 10
60.042040
 20
-75.088394
 30
0.0
 10
60.199215
 20
-74.997649
 30
0.0
 10
60.296039
 20
-74.829945
 30
0.0
 10
60.296039
 20
-74.648454
 30
0.0
  0
LINE
  5
18a
100
AcDbEntity
  8
0
 62
7
100
AcDbLine
 10
60.296039
 20
-68.044466
 30
0.0
 11
60.296039
 21
-69.568464
 31
0.0
  0
LINE
  5
18b
100
AcDbEntity
  8
0
 62
7
100
AcDbLine
 10
13.849479
 20
-82.142131
 30
0.0
 11
12.303228
 21
-80.127017
 31
0.0
  0
LINE
  5
18c
100
AcDbEntity
  8
0
 62
7
100
AcDbLine
 10
12.115682
 20
-81.551563
 30
0.0
 11
0.428023
 21
-90.519820
 31
0.0
  0
LINE
  5
18d
100
AcDbEntity
  8
0
 62
7
100
AcDbLine
 10
60.296039
 20
-72.616458
 30
0.0
 11
60.296039
 21
-74.648454
 31
0.0
  0
LINE
  5
18e
100
AcDbEntity
  8
0
 62
7
100
AcDbLine
 10
76.552007
 20
-64.488472
 30
0.0
 11
60.296039
 21
-64.488473
 31
0.0
  0
LINE
  5
18f
100
AcDbEntity
  8
0
 62
7
100
AcDbLine
 10
59.280041
 20
-79.728444
 30
0.0
 11
59.280040
 21
-82.776439
 31
0.0
  0
LINE
  5
190
100
AcDbEntity
  8
0
 62
7
100
AcDbLine
 10
114.651932
 20
-70.146306
 30
0.0
 11
130.572281
 21
-70.146306
 31
0.0
  0
SPLINE
  5
191
100
AcDbEntity
  8
0
 62
7
100
AcDbSpline
 70
8
 71
3
 72
8
 73
4
 74
0
 40
0
 40
0
 40
0
 40
0
 40
1
 40
1
 40
1
 40
1
 10
15.704981
 20
-84.560268
 30
0.0
 10
15.534126
 20
-84.337881
 30
0.0
 10
15.215383
 20
-84.296015
 30
0.0
 10
14.992894
 20
-84.466736
 30
0.0
  0
SPLINE
  5
192
100
AcDbEntity
  8
0
 62
7
100
AcDbSpline
 70
8
 71
3
 72
8
 73
4
 74
0
 40
0
 40
0
 40
0
 40
0
 40
1
 40
1
 40
1
 40
1
 10
14.992894
 20
-84.466736
 30
0.0
 10
14.770405
 20
-84.637457
 30
0.0
 10
14.728347
 20
-84.956175
 30
0.0
 10
14.898935
 20
-85.178767
 30
0.0
  0
LINE
  5
193
100
AcDbEntity
  8
0
 62
7
100
AcDbLine
 10
18.217883
 20
-89.511317
 30
0.0
 11
18.609938
 21
-90.015041
 31
0.0
  0
LINE
  5
194
100
AcDbEntity
  8
0
 62
7
100
AcDbLine
 10
0.428023
 20
-90.519820
 30
0.0
 11
0.025000
 21
-90.829069
 31
0.0
  0
LINE
  5
195
100
AcDbEntity
  8
0
 62
7
100
AcDbLine
 10
59.280040
 20
-72.616458
 30
0.0
 11
59.280041
 21
-74.648454
 31
0.0
  0
SPLINE
  5
196
100
AcDbEntity
  8
0
 62
7
100
AcDbSpline
 70
8
 71
3
 72
8
 73
4
 74
0
 40
0
 40
0
 40
0
 40
0
 40
1
 40
1
 40
1
 40
1
 10
114.651932
 20
-70.146306
 30
0.0
 10
102.295153
 20
-66.352060
 30
0.0
 10
89.474785
 20
-64.277300
 30
0.0
 10
76.552008
 20
-63.980474
 30
0.0
  0
SPLINE
  5
197
100
AcDbEntity
  8
0
 62
7
100
AcDbSpline
 70
8
 71
3
 72
8
 73
4
 74
0
 40
0
 40
0
 40
0
 40
0
 40
1
 40
1
 40
1
 40
1
 10
5.907520
 20
-7.535425
 30
0.0
 10
5.364661
 20
-7.610789
 30
0.0
 10
4.951913
 20
-8.061219
 30
0.0
 10
4.924144
 20
-8.608581
 30
0.0
  0
LINE
  5
198
100
AcDbEntity
  8
0
 62
7
100
AcDbLine
 10
4.924145
 20
-71.092460
 30
0.0
 11
4.924145
 21
-8.608579
 31
0.0
  0
LINE
  5
199
100
AcDbEntity
  8
0
 62
7
100
AcDbLine
 10
0.025000
 20
-90.829069
 30
0.0
 11
10.848758
 21
-104.934863
 31
0.0
  0
SPLINE
  5
19a
100
AcDbEntity
  8
0
 62
7
100
AcDbSpline
 70
8
 71
3
 72
8
 73
4
 74
0
 40
0
 40
0
 40
0
 40
0
 40
1
 40
1
 40
1
 40
1
 10
13.579130
 20
-83.465976
 30
0.0
 10
13.750030
 20
-83.688217
 30
0.0
 10
14.068661
 20
-83.729997
 30
0.0
 10
14.291081
 20
-83.559328
 30
0.0
  0
SPLINE
  5
19b
100
AcDbEntity
  8
0
 62
7
100
AcDbSpline
 70
8
 71
3
 72
8
 73
4
 74
0
 40
0
 40
0
 40
0
 40
0
 40
1
 40
1
 40
1
 40
1
 10
14.291081
 20
-83.559328
 30
0.0
 10
14.513500
 20
-83.388660
 30
0.0
 10
14.555611
 20
-83.070072
 30
0.0
 10
14.385175
 20
-82.847475
 30
0.0
  0
LINE
  5
19c
100
AcDbEntity
  8
0
 62
7
100
AcDbLine
 10
22.939439
 20
-95.657358
 30
0.0
 11
21.393188
 21
-93.642245
 31
0.0
  0
LINE
  5
19d
100
AcDbEntity
  8
0
 62
7
100
AcDbLine
 10
60.296039
 20
-82.268440
 30
0.0
 11
60.296039
 21
-79.728444
 31
0.0
  0
LINE
  5
19e
100
AcDbEntity
  8
0
 62
7
100
AcDbLine
 10
13.043433
 20
-82.760631
 30
0.0
 11
12.115682
 21
-81.551563
 31
0.0
  0
LINE
  5
19f
100
AcDbEntity
  8
0
 62
7
100
AcDbLine
 10
27.507481
 20
-7.535425
 30
0.0
 11
36.288694
 21
-7.535425
 31
0.0
  0
SPLINE
  5
1a0
100
AcDbEntity
  8
0
 62
7
100
AcDbSpline
 70
8
 71
3
 72
8
 73
4
 74
0
 40
0
 40
0
 40
0
 40
0
 40
1
 40
1
 40
1
 40
1
 10
60.296039
 20
-72.616458
 30
0.0
 10
60.296039
 20
-72.434967
 30
0.0
 10
60.199215
 20
-72.267263
 30
0.0
 10
60.042040
 20
-72.176518
 30
0.0
  0
SPLINE
  5
1a1
100
AcDbEntity
  8
0
 62
7
100
AcDbSpline
 70
8
 71
3
 72
8
 73
4
 74
0
 40
0
 40
0
 40
0
 40
0
 40
1
 40
1
 40
1
 40
1
 10
60.042040
 20
-72.176518
 30
0.0
 10
59.884864
 20
-72.085773
 30
0.0
 10
59.691216
 20
-72.085773
 30
0.0
 10
59.534041
 20
-72.176518
 30
0.0
  0
SPLINE
  5
1a2
100
AcDbEntity
  8
0
 62
7
100
AcDbSpline
 70
8
 71
3
 72
8
 73
4
 74
0
 40
0
 40
0
 40
0
 40
0
 40
1
 40
1
 40
1
 40
1
 10
59.534041
 20
-72.176518
 30
0.0
 10
59.376865
 20
-72.267263
 30
0.0
 10
59.280041
 20
-72.434967
 30
0.0
 10
59.280041
 20
-72.616458
 30
0.0
  0
ENDSEC
  0
SECTION
  2
OBJECTS
  0
DICTIONARY
  5
C
330
0
100
AcDbDictionary
  3
ACAD_GROUP
350
D
  3
ACAD_MLINESTYLE
350
17
  0
DICTIONARY
  5
D
330
C
100
AcDbDictionary
  0
DICTIONARY
  5
1A
330
C
100
AcDbDictionary
  0
DICTIONARY
  5
17
330
C
100
AcDbDictionary
  3
STANDARD
350
18
  0
DICTIONARY
  5
19
330
C
100
AcDbDictionary
  0
ENDSEC
  0
EOF
