%TF.GenerationSoftware,KiCad,Pcbnew,(5.1.7)-1*%
%TF.CreationDate,2021-07-12T16:27:12+05:30*%
%TF.ProjectId,Pteron36v0,50746572-6f6e-4333-9676-302e6b696361,rev?*%
%TF.SameCoordinates,Original*%
%TF.FileFunction,Other,ECO2*%
%FSLAX46Y46*%
G04 Gerber Fmt 4.6, Leading zero omitted, Abs format (unit mm)*
G04 Created by KiCad (PCBNEW (5.1.7)-1) date 2021-07-12 16:27:12*
%MOMM*%
%LPD*%
G01*
G04 APERTURE LIST*
%ADD10C,0.152400*%
%ADD11C,0.150000*%
%ADD12C,0.050000*%
G04 APERTURE END LIST*
D10*
%TO.C,SW28*%
X113676509Y-103054365D02*
X113676509Y-89084365D01*
X127646509Y-103054365D02*
X113676509Y-103054365D01*
X127646509Y-89084365D02*
X127646509Y-103054365D01*
X113676509Y-89084365D02*
X127646509Y-89084365D01*
%TO.C,SW27*%
X113657130Y-83928915D02*
X113657130Y-69958915D01*
X127627130Y-83928915D02*
X113657130Y-83928915D01*
X127627130Y-69958915D02*
X127627130Y-83928915D01*
X113657130Y-69958915D02*
X127627130Y-69958915D01*
%TO.C,SW26*%
X113613486Y-64894020D02*
X113613486Y-50924020D01*
X127583486Y-64894020D02*
X113613486Y-64894020D01*
X127583486Y-50924020D02*
X127583486Y-64894020D01*
X113613486Y-50924020D02*
X127583486Y-50924020D01*
%TO.C,SW24*%
X132743913Y-101078290D02*
X132743913Y-87108290D01*
X146713913Y-101078290D02*
X132743913Y-101078290D01*
X146713913Y-87108290D02*
X146713913Y-101078290D01*
X132743913Y-87108290D02*
X146713913Y-87108290D01*
%TO.C,SW23*%
X132700269Y-82043394D02*
X132700269Y-68073394D01*
X146670269Y-82043394D02*
X132700269Y-82043394D01*
X146670269Y-68073394D02*
X146670269Y-82043394D01*
X132700269Y-68073394D02*
X146670269Y-68073394D01*
%TO.C,SW22*%
X132747181Y-63032769D02*
X132747181Y-49062769D01*
X146717181Y-63032769D02*
X132747181Y-63032769D01*
X146717181Y-49062769D02*
X146717181Y-63032769D01*
X132747181Y-49062769D02*
X146717181Y-49062769D01*
%TO.C,SW20*%
X84989334Y-143625951D02*
X76484937Y-132542804D01*
X96072481Y-135121554D02*
X84989334Y-143625951D01*
X87568084Y-124038407D02*
X96072481Y-135121554D01*
X76484937Y-132542804D02*
X87568084Y-124038407D01*
%TO.C,SW19*%
X151737246Y-95394196D02*
X151737246Y-81424196D01*
X165707246Y-95394196D02*
X151737246Y-95394196D01*
X165707246Y-81424196D02*
X165707246Y-95394196D01*
X151737246Y-81424196D02*
X165707246Y-81424196D01*
%TO.C,SW18*%
X151784162Y-76383567D02*
X151784162Y-62413567D01*
X165754162Y-76383567D02*
X151784162Y-76383567D01*
X165754162Y-62413567D02*
X165754162Y-76383567D01*
X151784162Y-62413567D02*
X165754162Y-62413567D01*
%TO.C,SW17*%
X151764779Y-57258116D02*
X151764779Y-43288116D01*
X165734779Y-57258116D02*
X151764779Y-57258116D01*
X165734779Y-43288116D02*
X165734779Y-57258116D01*
X151764779Y-43288116D02*
X165734779Y-43288116D01*
%TO.C,SW15*%
X100383524Y-132561408D02*
X94479547Y-119900289D01*
X113044643Y-126657431D02*
X100383524Y-132561408D01*
X107140666Y-113996312D02*
X113044643Y-126657431D01*
X94479547Y-119900289D02*
X107140666Y-113996312D01*
%TO.C,SW14*%
X170797678Y-99239677D02*
X170797678Y-85269677D01*
X184767678Y-99239677D02*
X170797678Y-99239677D01*
X184767678Y-85269677D02*
X184767678Y-99239677D01*
X170797678Y-85269677D02*
X184767678Y-85269677D01*
%TO.C,SW13*%
X170778305Y-80114232D02*
X170778305Y-66144232D01*
X184748305Y-80114232D02*
X170778305Y-80114232D01*
X184748305Y-66144232D02*
X184748305Y-80114232D01*
X170778305Y-66144232D02*
X184748305Y-66144232D01*
%TO.C,SW12*%
X170825215Y-61103605D02*
X170825215Y-47133605D01*
X184795215Y-61103605D02*
X170825215Y-61103605D01*
X184795215Y-47133605D02*
X184795215Y-61103605D01*
X170825215Y-47133605D02*
X184795215Y-47133605D01*
%TO.C,SW10*%
X117805287Y-124954179D02*
X114781626Y-111315324D01*
X131444142Y-121930518D02*
X117805287Y-124954179D01*
X128420481Y-108291663D02*
X131444142Y-121930518D01*
X114781626Y-111315324D02*
X128420481Y-108291663D01*
%TO.C,SW9*%
X189899677Y-108725622D02*
X189899677Y-94755622D01*
X203869677Y-108725622D02*
X189899677Y-108725622D01*
X203869677Y-94755622D02*
X203869677Y-108725622D01*
X189899677Y-94755622D02*
X203869677Y-94755622D01*
%TO.C,SW8*%
X189856035Y-89690722D02*
X189856035Y-75720722D01*
X203826035Y-89690722D02*
X189856035Y-89690722D01*
X203826035Y-75720722D02*
X203826035Y-89690722D01*
X189856035Y-75720722D02*
X203826035Y-75720722D01*
%TO.C,SW7*%
X189812387Y-70655820D02*
X189812387Y-56685820D01*
X203782387Y-70655820D02*
X189812387Y-70655820D01*
X203782387Y-56685820D02*
X203782387Y-70655820D01*
X189812387Y-56685820D02*
X203782387Y-56685820D01*
D11*
%TO.C,U1*%
X89958454Y-48839031D02*
X89958454Y-79319031D01*
X107738454Y-48839031D02*
X107738454Y-79319031D01*
X107738454Y-79319031D02*
X89958454Y-79319031D01*
%TO.C,J2*%
X81875254Y-48989330D02*
X81875254Y-46989330D01*
X81625254Y-48989330D02*
X81625254Y-61089330D01*
X87475254Y-48989330D02*
X87475254Y-46989330D01*
X81625254Y-61089330D02*
X87725254Y-61089330D01*
X81875254Y-46989330D02*
X87475254Y-46989330D01*
X87725254Y-48989330D02*
X87725254Y-61089330D01*
X81625254Y-48989330D02*
X87725254Y-48989330D01*
D12*
%TO.C,RE1*%
X85715254Y-96550330D02*
X103215254Y-96550330D01*
X85715254Y-96550330D02*
X85715254Y-110750330D01*
X103215254Y-110750330D02*
X103215254Y-96550330D01*
X103215254Y-110750330D02*
X85715254Y-110750330D01*
%TD*%
M02*
