M48
; DRILL file {KiCad (5.1.7)-1} date 07/12/21 16:27:14
; FORMAT={-:-/ absolute / metric / decimal}
; #@! TF.CreationDate,2021-07-12T16:27:14+05:30
; #@! TF.GenerationSoftware,Kicad,Pcbnew,(5.1.7)-1
; #@! TF.FileFunction,Plated,1,2,PTH
FMAT,2
METRIC
T1C0.400
T2C0.813
T3C0.900
T4C1.000
T5C1.100
T6C1.200
T7C1.400
T8C1.500
%
G90
G05
T1
X82.952Y-68.355
X86.58Y-68.791
X97.409Y-80.051
X100.068Y-79.967
X101.105Y-79.818
X104.309Y-81.288
X110.05Y-58.301
X110.964Y-62.923
X113.682Y-64.727
X130.116Y-69.294
X174.461Y-74.509
X174.461Y-77.404
X186.199Y-72.88
X186.199Y-75.928
X200.651Y-86.571
X200.651Y-90.61
X205.009Y-98.242
T2
X95.089Y-85.148
X97.629Y-85.148
X100.169Y-85.148
X102.709Y-85.148
T4
X187.428Y-62.501
X187.428Y-70.301
X149.191Y-53.308
X149.191Y-61.108
X187.428Y-97.841
X187.428Y-105.641
X149.191Y-69.945
X149.191Y-77.745
X149.397Y-89.05
X149.397Y-96.85
X130.374Y-75.846
X130.374Y-83.646
X111.107Y-77.477
X111.107Y-85.277
X130.222Y-56.49
X130.222Y-64.29
X130.212Y-94.922
X130.212Y-102.722
X90.935Y-112.834
X98.735Y-112.834
X187.428Y-78.806
X187.428Y-86.606
X93.822Y-124.413
X97.118Y-131.482
X113.168Y-115.377
X114.856Y-122.992
X111.2Y-96.331
X111.2Y-104.131
X117.326Y-66.022
X125.126Y-66.022
X168.35Y-73.21
X168.35Y-81.01
X168.35Y-53.867
X168.35Y-61.667
X77.602Y-136.029
X82.35Y-142.217
X168.321Y-92.516
X168.321Y-100.316
X87.215Y-101.15
X87.215Y-103.65
X87.215Y-106.15
X101.715Y-101.15
X101.715Y-106.15
T5
X91.228Y-50.109
X91.228Y-52.649
X91.228Y-55.189
X91.228Y-57.729
X91.228Y-60.269
X91.228Y-62.809
X91.228Y-65.349
X91.228Y-67.889
X91.228Y-70.429
X91.228Y-72.969
X91.228Y-75.509
X91.228Y-78.049
X106.468Y-50.109
X106.468Y-52.649
X106.468Y-55.189
X106.468Y-57.729
X106.468Y-60.269
X106.468Y-62.809
X106.468Y-65.349
X106.468Y-67.889
X106.468Y-70.429
X106.468Y-72.969
X106.468Y-75.509
X106.468Y-78.049
T6
X172.763Y-69.329
X175.223Y-68.049
X177.763Y-67.229
X180.303Y-68.049
X181.573Y-70.589
X182.763Y-69.329
X191.885Y-97.941
X194.345Y-96.661
X196.885Y-95.841
X199.425Y-96.661
X200.695Y-99.201
X201.885Y-97.941
X191.841Y-78.906
X194.301Y-77.626
X196.841Y-76.806
X199.381Y-77.626
X200.651Y-80.166
X201.841Y-78.906
X97.625Y-121.948
X99.313Y-119.748
X101.269Y-117.932
X103.917Y-117.601
X106.142Y-119.367
X106.688Y-117.722
X115.598Y-54.109
X118.058Y-52.829
X120.598Y-52.009
X123.138Y-52.829
X124.408Y-55.369
X125.598Y-54.109
X153.769Y-65.599
X156.229Y-64.319
X158.769Y-63.499
X161.309Y-64.319
X162.579Y-66.859
X163.769Y-65.599
X134.732Y-52.248
X137.192Y-50.968
X139.732Y-50.148
X142.272Y-50.968
X143.542Y-53.508
X144.732Y-52.248
X172.783Y-88.455
X175.243Y-87.175
X177.783Y-86.355
X180.323Y-87.175
X181.593Y-89.715
X182.783Y-88.455
X115.662Y-92.269
X118.122Y-90.989
X120.662Y-90.169
X123.202Y-90.989
X124.472Y-93.529
X125.662Y-92.269
X191.797Y-59.871
X194.257Y-58.591
X196.797Y-57.771
X199.337Y-58.591
X200.607Y-61.131
X201.797Y-59.871
X117.409Y-113.995
X119.534Y-112.213
X121.836Y-110.863
X124.493Y-111.114
X126.283Y-113.318
X127.172Y-111.831
X79.999Y-133.861
X81.171Y-131.348
X82.687Y-129.151
X85.201Y-128.256
X87.755Y-129.498
X87.932Y-127.774
X172.81Y-50.319
X175.27Y-49.039
X177.81Y-48.219
X180.35Y-49.039
X181.62Y-51.579
X182.81Y-50.319
X115.642Y-73.144
X118.102Y-71.864
X120.642Y-71.044
X123.182Y-71.864
X124.452Y-74.404
X125.642Y-73.144
X134.729Y-90.293
X137.189Y-89.013
X139.729Y-88.193
X142.269Y-89.013
X143.539Y-91.553
X144.729Y-90.293
X153.75Y-46.473
X156.21Y-45.193
X158.75Y-44.373
X161.29Y-45.193
X162.56Y-47.733
X163.75Y-46.473
X134.685Y-71.258
X137.145Y-69.978
X139.685Y-69.158
X142.225Y-69.978
X143.495Y-72.518
X144.685Y-71.258
X153.722Y-84.609
X156.182Y-83.329
X158.722Y-82.509
X161.262Y-83.329
X162.532Y-85.869
X163.722Y-84.609
T7
X99.595Y-120.257
X99.806Y-120.71
X104.126Y-118.144
X104.337Y-118.597
X118.098Y-53.409
X118.098Y-53.909
X123.098Y-53.409
X123.098Y-53.909
X156.269Y-64.899
X156.269Y-65.399
X161.269Y-64.899
X161.269Y-65.399
X137.232Y-51.548
X137.232Y-52.048
X142.232Y-51.548
X142.232Y-52.048
X175.283Y-87.755
X175.283Y-88.255
X180.283Y-87.755
X180.283Y-88.255
X118.162Y-91.569
X118.162Y-92.069
X123.162Y-91.569
X123.162Y-92.069
X194.297Y-59.171
X194.297Y-59.671
X199.297Y-59.171
X199.297Y-59.671
X119.698Y-112.771
X119.806Y-113.259
X124.58Y-111.688
X124.688Y-112.177
X81.556Y-131.784
X81.86Y-132.181
X85.523Y-128.74
X85.827Y-129.137
X175.31Y-49.619
X175.31Y-50.119
X180.31Y-49.619
X180.31Y-50.119
X118.142Y-72.444
X118.142Y-72.944
X123.142Y-72.444
X123.142Y-72.944
X137.229Y-89.593
X137.229Y-90.093
X142.229Y-89.593
X142.229Y-90.093
X156.25Y-45.773
X156.25Y-46.273
X161.25Y-45.773
X161.25Y-46.273
X137.185Y-70.558
X137.185Y-71.058
X142.185Y-70.558
X142.185Y-71.058
X156.222Y-83.909
X156.222Y-84.409
X161.222Y-83.909
X161.222Y-84.409
X175.263Y-68.629
X175.263Y-69.129
X180.263Y-68.629
X180.263Y-69.129
X194.385Y-97.241
X194.385Y-97.741
X199.385Y-97.241
X199.385Y-97.741
X194.341Y-78.206
X194.341Y-78.706
X199.341Y-78.206
X199.341Y-78.706
T3
G00X82.375Y-60.053
M15
G01X82.375Y-60.453
M16
G05
G00X86.975Y-51.953
M15
G01X86.975Y-52.353
M16
G05
G00X86.975Y-54.953
M15
G01X86.975Y-55.353
M16
G05
G00X86.975Y-58.953
M15
G01X86.975Y-59.353
M16
G05
G00X82.375Y-52.389
M15
G01X82.375Y-51.989
M16
G05
G00X82.375Y-55.389
M15
G01X82.375Y-54.989
M16
G05
G00X82.375Y-59.389
M15
G01X82.375Y-58.989
M16
G05
G00X86.975Y-60.489
M15
G01X86.975Y-60.089
M16
G05
T6
G00X173.953Y-70.589
M15
G01X173.953Y-70.589
M16
G05
G00X193.075Y-99.201
M15
G01X193.075Y-99.201
M16
G05
G00X193.031Y-80.166
M15
G01X193.031Y-80.166
M16
G05
G00X99.236Y-122.587
M15
G01X99.236Y-122.587
M16
G05
G00X116.788Y-55.369
M15
G01X116.788Y-55.369
M16
G05
G00X154.959Y-66.859
M15
G01X154.959Y-66.859
M16
G05
G00X135.922Y-53.508
M15
G01X135.922Y-53.508
M16
G05
G00X173.973Y-89.715
M15
G01X173.973Y-89.715
M16
G05
G00X116.852Y-93.529
M15
G01X116.852Y-93.529
M16
G05
G00X192.987Y-61.131
M15
G01X192.987Y-61.131
M16
G05
G00X118.843Y-114.968
M15
G01X118.843Y-114.968
M16
G05
G00X81.71Y-134.136
M15
G01X81.71Y-134.136
M16
G05
G00X174.0Y-51.579
M15
G01X174.0Y-51.579
M16
G05
G00X116.832Y-74.404
M15
G01X116.832Y-74.404
M16
G05
G00X135.919Y-91.553
M15
G01X135.919Y-91.553
M16
G05
G00X154.94Y-47.733
M15
G01X154.94Y-47.733
M16
G05
G00X135.875Y-72.518
M15
G01X135.875Y-72.518
M16
G05
G00X154.912Y-85.869
M15
G01X154.912Y-85.869
M16
G05
T8
G00X94.065Y-98.05
M15
G01X95.365Y-98.05
M16
G05
G00X94.065Y-109.25
M15
G01X95.365Y-109.25
M16
G05
T0
M30
