%TF.GenerationSoftware,KiCad,Pcbnew,(5.99.0-11550-g369d813a32)*%
%TF.CreationDate,2021-07-29T17:12:21+05:30*%
%TF.ProjectId,Pteron36v0,50746572-6f6e-4333-9676-302e6b696361,rev?*%
%TF.SameCoordinates,Original*%
%TF.FileFunction,Other,ECO2*%
%FSLAX46Y46*%
G04 Gerber Fmt 4.6, Leading zero omitted, Abs format (unit mm)*
G04 Created by KiCad (PCBNEW (5.99.0-11550-g369d813a32)) date 2021-07-29 17:12:21*
%MOMM*%
%LPD*%
G01*
G04 APERTURE LIST*
%ADD10C,0.150000*%
G04 APERTURE END LIST*
D10*
%TO.C,J1*%
X128670000Y-46468980D02*
X123070000Y-46468980D01*
X128920000Y-48468980D02*
X122820000Y-48468980D01*
X123070000Y-48468980D02*
X123070000Y-46468980D01*
X128670000Y-48468980D02*
X128670000Y-46468980D01*
X128920000Y-48468980D02*
X128920000Y-60568980D01*
X122820000Y-48468980D02*
X122820000Y-60568980D01*
X128920000Y-60568980D02*
X122820000Y-60568980D01*
%TO.C,SW8*%
X226500000Y-71833328D02*
X241500000Y-71833328D01*
X231400000Y-82433328D02*
X231400000Y-85633328D01*
X236600000Y-82433328D02*
X231400000Y-82433328D01*
X240900000Y-72433328D02*
X227100000Y-72433328D01*
X227100000Y-86233328D02*
X227100000Y-72433328D01*
X226500000Y-86833328D02*
X226500000Y-71833328D01*
X241500000Y-86833328D02*
X226500000Y-86833328D01*
X240900000Y-72433328D02*
X240900000Y-86233328D01*
X236600000Y-82433328D02*
X236600000Y-85633328D01*
X241500000Y-71833328D02*
X241500000Y-86833328D01*
X231400000Y-85633328D02*
X236600000Y-85633328D01*
X227100000Y-86233328D02*
X240900000Y-86233328D01*
%TO.C,SW9*%
X236600000Y-99433328D02*
X231400000Y-99433328D01*
X240900000Y-89433328D02*
X240900000Y-103233328D01*
X226500000Y-103833328D02*
X226500000Y-88833328D01*
X231400000Y-102633328D02*
X236600000Y-102633328D01*
X241500000Y-103833328D02*
X226500000Y-103833328D01*
X227100000Y-103233328D02*
X240900000Y-103233328D01*
X240900000Y-89433328D02*
X227100000Y-89433328D01*
X236600000Y-99433328D02*
X236600000Y-102633328D01*
X241500000Y-88833328D02*
X241500000Y-103833328D01*
X226500000Y-88833328D02*
X241500000Y-88833328D01*
X227100000Y-103233328D02*
X227100000Y-89433328D01*
X231400000Y-99433328D02*
X231400000Y-102633328D01*
%TO.C,SW13*%
X213400000Y-73933332D02*
X213400000Y-77133332D01*
X223500000Y-78333332D02*
X208500000Y-78333332D01*
X208500000Y-63333332D02*
X223500000Y-63333332D01*
X222900000Y-63933332D02*
X209100000Y-63933332D01*
X209100000Y-77733332D02*
X222900000Y-77733332D01*
X209100000Y-77733332D02*
X209100000Y-63933332D01*
X213400000Y-77133332D02*
X218600000Y-77133332D01*
X223500000Y-63333332D02*
X223500000Y-78333332D01*
X218600000Y-73933332D02*
X213400000Y-73933332D01*
X218600000Y-73933332D02*
X218600000Y-77133332D01*
X208500000Y-78333332D02*
X208500000Y-63333332D01*
X222900000Y-63933332D02*
X222900000Y-77733332D01*
%TO.C,SW14*%
X222900000Y-80933332D02*
X209100000Y-80933332D01*
X209100000Y-94733332D02*
X209100000Y-80933332D01*
X223500000Y-80333332D02*
X223500000Y-95333332D01*
X218600000Y-90933332D02*
X218600000Y-94133332D01*
X208500000Y-95333332D02*
X208500000Y-80333332D01*
X223500000Y-95333332D02*
X208500000Y-95333332D01*
X218600000Y-90933332D02*
X213400000Y-90933332D01*
X208500000Y-80333332D02*
X223500000Y-80333332D01*
X213400000Y-90933332D02*
X213400000Y-94133332D01*
X222900000Y-80933332D02*
X222900000Y-94733332D01*
X213400000Y-94133332D02*
X218600000Y-94133332D01*
X209100000Y-94733332D02*
X222900000Y-94733332D01*
%TO.C,SW15*%
X135533055Y-112538941D02*
X149127671Y-106199667D01*
X155466945Y-119794283D02*
X141872329Y-126133557D01*
X142162542Y-125336202D02*
X136330410Y-112829154D01*
X148837458Y-106997022D02*
X154669590Y-119504070D01*
X142162542Y-125336202D02*
X154669590Y-119504070D01*
X144453716Y-120074974D02*
X145806095Y-122975159D01*
X149127671Y-106199667D02*
X155466945Y-119794283D01*
X145806095Y-122975159D02*
X150518895Y-120777544D01*
X149166517Y-117877359D02*
X150518895Y-120777544D01*
X141872329Y-126133557D02*
X135533055Y-112538941D01*
X148837458Y-106997022D02*
X136330410Y-112829154D01*
X149166517Y-117877359D02*
X144453716Y-120074974D01*
%TO.C,SW20*%
X128297642Y-130584975D02*
X130245678Y-133123706D01*
X129857639Y-116026939D02*
X138989061Y-127927239D01*
X129746884Y-116868208D02*
X138147792Y-127816484D01*
X127199516Y-136217392D02*
X138147792Y-127816484D01*
X127199516Y-136217392D02*
X118798608Y-125269116D01*
X132423079Y-127419416D02*
X128297642Y-130584975D01*
X129746884Y-116868208D02*
X118798608Y-125269116D01*
X130245678Y-133123706D02*
X134371116Y-129958146D01*
X127088761Y-137058661D02*
X117957339Y-125158361D01*
X132423079Y-127419416D02*
X134371116Y-129958146D01*
X138989061Y-127927239D02*
X127088761Y-137058661D01*
X117957339Y-125158361D02*
X129857639Y-116026939D01*
%TO.C,SW22*%
X172500000Y-62749998D02*
X172500000Y-47749998D01*
X187500000Y-47749998D02*
X187500000Y-62749998D01*
X182600000Y-58349998D02*
X182600000Y-61549998D01*
X186900000Y-48349998D02*
X173100000Y-48349998D01*
X177400000Y-58349998D02*
X177400000Y-61549998D01*
X173100000Y-62149998D02*
X173100000Y-48349998D01*
X177400000Y-61549998D02*
X182600000Y-61549998D01*
X187500000Y-62749998D02*
X172500000Y-62749998D01*
X172500000Y-47749998D02*
X187500000Y-47749998D01*
X186900000Y-48349998D02*
X186900000Y-62149998D01*
X173100000Y-62149998D02*
X186900000Y-62149998D01*
X182600000Y-58349998D02*
X177400000Y-58349998D01*
%TO.C,SW23*%
X177400000Y-75349998D02*
X177400000Y-78549998D01*
X177400000Y-78549998D02*
X182600000Y-78549998D01*
X172500000Y-79749998D02*
X172500000Y-64749998D01*
X173100000Y-79149998D02*
X173100000Y-65349998D01*
X187500000Y-64749998D02*
X187500000Y-79749998D01*
X186900000Y-65349998D02*
X186900000Y-79149998D01*
X187500000Y-79749998D02*
X172500000Y-79749998D01*
X182600000Y-75349998D02*
X177400000Y-75349998D01*
X173100000Y-79149998D02*
X186900000Y-79149998D01*
X182600000Y-75349998D02*
X182600000Y-78549998D01*
X172500000Y-64749998D02*
X187500000Y-64749998D01*
X186900000Y-65349998D02*
X173100000Y-65349998D01*
%TO.C,SW24*%
X186900000Y-82349998D02*
X186900000Y-96149998D01*
X177400000Y-95549998D02*
X182600000Y-95549998D01*
X182600000Y-92349998D02*
X177400000Y-92349998D01*
X173100000Y-96149998D02*
X173100000Y-82349998D01*
X182600000Y-92349998D02*
X182600000Y-95549998D01*
X187500000Y-96749998D02*
X172500000Y-96749998D01*
X172500000Y-81749998D02*
X187500000Y-81749998D01*
X177400000Y-92349998D02*
X177400000Y-95549998D01*
X173100000Y-96149998D02*
X186900000Y-96149998D01*
X186900000Y-82349998D02*
X173100000Y-82349998D01*
X172500000Y-96749998D02*
X172500000Y-81749998D01*
X187500000Y-81749998D02*
X187500000Y-96749998D01*
%TO.C,SW26*%
X155100000Y-63566664D02*
X155100000Y-49766664D01*
X169500000Y-49166664D02*
X169500000Y-64166664D01*
X164600000Y-59766664D02*
X164600000Y-62966664D01*
X169500000Y-64166664D02*
X154500000Y-64166664D01*
X164600000Y-59766664D02*
X159400000Y-59766664D01*
X168900000Y-49766664D02*
X155100000Y-49766664D01*
X154500000Y-64166664D02*
X154500000Y-49166664D01*
X168900000Y-49766664D02*
X168900000Y-63566664D01*
X159400000Y-62966664D02*
X164600000Y-62966664D01*
X154500000Y-49166664D02*
X169500000Y-49166664D01*
X159400000Y-59766664D02*
X159400000Y-62966664D01*
X155100000Y-63566664D02*
X168900000Y-63566664D01*
%TO.C,SW27*%
X169500000Y-66166664D02*
X169500000Y-81166664D01*
X159400000Y-79966664D02*
X164600000Y-79966664D01*
X155100000Y-80566664D02*
X155100000Y-66766664D01*
X168900000Y-66766664D02*
X168900000Y-80566664D01*
X155100000Y-80566664D02*
X168900000Y-80566664D01*
X154500000Y-81166664D02*
X154500000Y-66166664D01*
X154500000Y-66166664D02*
X169500000Y-66166664D01*
X164600000Y-76766664D02*
X159400000Y-76766664D01*
X159400000Y-76766664D02*
X159400000Y-79966664D01*
X169500000Y-81166664D02*
X154500000Y-81166664D01*
X168900000Y-66766664D02*
X155100000Y-66766664D01*
X164600000Y-76766664D02*
X164600000Y-79966664D01*
%TO.C,SW28*%
X168900000Y-83766664D02*
X155100000Y-83766664D01*
X169500000Y-98166664D02*
X154500000Y-98166664D01*
X169500000Y-83166664D02*
X169500000Y-98166664D01*
X164600000Y-93766664D02*
X164600000Y-96966664D01*
X168900000Y-83766664D02*
X168900000Y-97566664D01*
X154500000Y-83166664D02*
X169500000Y-83166664D01*
X164600000Y-93766664D02*
X159400000Y-93766664D01*
X159400000Y-93766664D02*
X159400000Y-96966664D01*
X155100000Y-97566664D02*
X155100000Y-83766664D01*
X155100000Y-97566664D02*
X168900000Y-97566664D01*
X159400000Y-96966664D02*
X164600000Y-96966664D01*
X154500000Y-98166664D02*
X154500000Y-83166664D01*
%TO.C,U1*%
X148971000Y-48387000D02*
X148971000Y-78867000D01*
X148971000Y-78867000D02*
X131191000Y-78867000D01*
X131191000Y-48387000D02*
X131191000Y-78867000D01*
%TO.C,SW7*%
X226500000Y-54833328D02*
X241500000Y-54833328D01*
X236600000Y-65433328D02*
X236600000Y-68633328D01*
X241500000Y-69833328D02*
X226500000Y-69833328D01*
X240900000Y-55433328D02*
X240900000Y-69233328D01*
X236600000Y-65433328D02*
X231400000Y-65433328D01*
X231400000Y-68633328D02*
X236600000Y-68633328D01*
X240900000Y-55433328D02*
X227100000Y-55433328D01*
X227100000Y-69233328D02*
X227100000Y-55433328D01*
X241500000Y-54833328D02*
X241500000Y-69833328D01*
X231400000Y-65433328D02*
X231400000Y-68633328D01*
X227100000Y-69233328D02*
X240900000Y-69233328D01*
X226500000Y-69833328D02*
X226500000Y-54833328D01*
%TO.C,SW12*%
X222900000Y-46933332D02*
X209100000Y-46933332D01*
X209100000Y-60733332D02*
X209100000Y-46933332D01*
X208500000Y-61333332D02*
X208500000Y-46333332D01*
X213400000Y-56933332D02*
X213400000Y-60133332D01*
X218600000Y-56933332D02*
X213400000Y-56933332D01*
X223500000Y-61333332D02*
X208500000Y-61333332D01*
X218600000Y-56933332D02*
X218600000Y-60133332D01*
X222900000Y-46933332D02*
X222900000Y-60733332D01*
X208500000Y-46333332D02*
X223500000Y-46333332D01*
X209100000Y-60733332D02*
X222900000Y-60733332D01*
X223500000Y-46333332D02*
X223500000Y-61333332D01*
X213400000Y-60133332D02*
X218600000Y-60133332D01*
%TO.C,SW17*%
X190500000Y-42791667D02*
X205500000Y-42791667D01*
X195400000Y-56591667D02*
X200600000Y-56591667D01*
X205500000Y-57791667D02*
X190500000Y-57791667D01*
X204900000Y-43391667D02*
X191100000Y-43391667D01*
X191100000Y-57191667D02*
X191100000Y-43391667D01*
X195400000Y-53391667D02*
X195400000Y-56591667D01*
X190500000Y-57791667D02*
X190500000Y-42791667D01*
X200600000Y-53391667D02*
X195400000Y-53391667D01*
X205500000Y-42791667D02*
X205500000Y-57791667D01*
X204900000Y-43391667D02*
X204900000Y-57191667D01*
X191100000Y-57191667D02*
X204900000Y-57191667D01*
X200600000Y-53391667D02*
X200600000Y-56591667D01*
%TO.C,SW19*%
X195400000Y-87391667D02*
X195400000Y-90591667D01*
X205500000Y-76791667D02*
X205500000Y-91791667D01*
X204900000Y-77391667D02*
X204900000Y-91191667D01*
X191100000Y-91191667D02*
X204900000Y-91191667D01*
X204900000Y-77391667D02*
X191100000Y-77391667D01*
X190500000Y-91791667D02*
X190500000Y-76791667D01*
X200600000Y-87391667D02*
X195400000Y-87391667D01*
X191100000Y-91191667D02*
X191100000Y-77391667D01*
X190500000Y-76791667D02*
X205500000Y-76791667D01*
X195400000Y-90591667D02*
X200600000Y-90591667D01*
X200600000Y-87391667D02*
X200600000Y-90591667D01*
X205500000Y-91791667D02*
X190500000Y-91791667D01*
%TO.C,SW18*%
X191100000Y-74191667D02*
X204900000Y-74191667D01*
X200600000Y-70391667D02*
X200600000Y-73591667D01*
X205500000Y-59791667D02*
X205500000Y-74791667D01*
X195400000Y-70391667D02*
X195400000Y-73591667D01*
X191100000Y-74191667D02*
X191100000Y-60391667D01*
X204900000Y-60391667D02*
X191100000Y-60391667D01*
X204900000Y-60391667D02*
X204900000Y-74191667D01*
X205500000Y-74791667D02*
X190500000Y-74791667D01*
X190500000Y-59791667D02*
X205500000Y-59791667D01*
X200600000Y-70391667D02*
X195400000Y-70391667D01*
X195400000Y-73591667D02*
X200600000Y-73591667D01*
X190500000Y-74791667D02*
X190500000Y-59791667D01*
%TO.C,SW10*%
X163075200Y-116505023D02*
X168151939Y-115379537D01*
X162382593Y-113380876D02*
X163075200Y-116505023D01*
X167459332Y-112255390D02*
X162382593Y-113380876D01*
X167459332Y-112255390D02*
X168151939Y-115379537D01*
X173195517Y-115490538D02*
X158551077Y-118737132D01*
X169948923Y-100846098D02*
X173195517Y-115490538D01*
X159006991Y-118021491D02*
X172479876Y-115034624D01*
X155304483Y-104092692D02*
X169948923Y-100846098D01*
X169493009Y-101561739D02*
X156020124Y-104548606D01*
X169493009Y-101561739D02*
X172479876Y-115034624D01*
X158551077Y-118737132D02*
X155304483Y-104092692D01*
X159006991Y-118021491D02*
X156020124Y-104548606D01*
%TO.C,J2*%
X123070000Y-46468980D02*
X128670000Y-46468980D01*
X122820000Y-48468980D02*
X122820000Y-60568980D01*
X122820000Y-60568980D02*
X128920000Y-60568980D01*
X128920000Y-48468980D02*
X128920000Y-60568980D01*
X122820000Y-48468980D02*
X128920000Y-48468980D01*
X123070000Y-48468980D02*
X123070000Y-46468980D01*
X128670000Y-48468980D02*
X128670000Y-46468980D01*
%TD*%
M02*
