%TF.GenerationSoftware,KiCad,Pcbnew,(5.99.0-11551-g43cb710297)*%
%TF.CreationDate,2021-07-28T13:20:51+05:30*%
%TF.ProjectId,Pteron36v0,50746572-6f6e-4333-9676-302e6b696361,rev?*%
%TF.SameCoordinates,Original*%
%TF.FileFunction,Paste,Top*%
%TF.FilePolarity,Positive*%
%FSLAX46Y46*%
G04 Gerber Fmt 4.6, Leading zero omitted, Abs format (unit mm)*
G04 Created by KiCad (PCBNEW (5.99.0-11551-g43cb710297)) date 2021-07-28 13:20:51*
%MOMM*%
%LPD*%
G01*
G04 APERTURE LIST*
G04 Aperture macros list*
%AMRotRect*
0 Rectangle, with rotation*
0 The origin of the aperture is its center*
0 $1 length*
0 $2 width*
0 $3 Rotation angle, in degrees counterclockwise*
0 Add horizontal line*
21,1,$1,$2,0,0,$3*%
G04 Aperture macros list end*
%ADD10R,1.200000X1.600000*%
%ADD11RotRect,1.600000X1.200000X282.500000*%
%ADD12RotRect,1.600000X1.200000X295.000000*%
%ADD13RotRect,1.600000X1.200000X37.500000*%
%ADD14R,1.100000X1.800000*%
G04 APERTURE END LIST*
D10*
%TO.C,D7*%
X225407000Y-63660328D03*
X225407000Y-60860328D03*
%TD*%
%TO.C,D8*%
X225280000Y-80805328D03*
X225280000Y-78005328D03*
%TD*%
%TO.C,D9*%
X225280000Y-97696328D03*
X225280000Y-94896328D03*
%TD*%
D11*
%TO.C,D10*%
X156303015Y-113283428D03*
X155696985Y-110549800D03*
%TD*%
D10*
%TO.C,D12*%
X207441000Y-55306998D03*
X207441000Y-52506998D03*
%TD*%
%TO.C,D13*%
X207314000Y-72324998D03*
X207314000Y-69524998D03*
%TD*%
%TO.C,D14*%
X207314000Y-89215998D03*
X207314000Y-86415998D03*
%TD*%
D12*
%TO.C,D15*%
X138591666Y-121685441D03*
X137408334Y-119147779D03*
%TD*%
D10*
%TO.C,D17*%
X189602000Y-51770664D03*
X189602000Y-48970664D03*
%TD*%
%TO.C,D18*%
X189348000Y-68788664D03*
X189348000Y-65988664D03*
%TD*%
%TO.C,D19*%
X189475000Y-85806664D03*
X189475000Y-83006664D03*
%TD*%
D13*
%TO.C,D20*%
X133368495Y-130872134D03*
X131147105Y-132576666D03*
%TD*%
D10*
%TO.C,D22*%
X171509000Y-56743330D03*
X171509000Y-53943330D03*
%TD*%
%TO.C,D23*%
X171382000Y-73507330D03*
X171382000Y-70707330D03*
%TD*%
%TO.C,D24*%
X171382000Y-90652330D03*
X171382000Y-87852330D03*
%TD*%
%TO.C,D26*%
X153416000Y-58169000D03*
X153416000Y-55369000D03*
%TD*%
%TO.C,D27*%
X153416000Y-75060000D03*
X153416000Y-72260000D03*
%TD*%
D14*
%TO.C,RST1*%
X127453000Y-65988000D03*
X127453000Y-72188000D03*
X123753000Y-65988000D03*
X123753000Y-72188000D03*
%TD*%
D10*
%TO.C,D28*%
X153289000Y-92078000D03*
X153289000Y-89278000D03*
%TD*%
M02*
