%TF.GenerationSoftware,KiCad,Pcbnew,(5.1.10)-1*%
%TF.CreationDate,2021-07-28T09:06:05+05:30*%
%TF.ProjectId,Pteron36v0,50746572-6f6e-4333-9676-302e6b696361,rev?*%
%TF.SameCoordinates,Original*%
%TF.FileFunction,Profile,NP*%
%FSLAX46Y46*%
G04 Gerber Fmt 4.6, Leading zero omitted, Abs format (unit mm)*
G04 Created by KiCad (PCBNEW (5.1.10)-1) date 2021-07-28 09:06:05*
%MOMM*%
%LPD*%
G01*
G04 APERTURE LIST*
%TA.AperFunction,Profile*%
%ADD10C,0.050000*%
%TD*%
G04 APERTURE END LIST*
D10*
X180568600Y-104876600D02*
X174269401Y-116281201D01*
X225628200Y-104876600D02*
X180568600Y-104876600D01*
X242112800Y-104876600D02*
X225628200Y-104876600D01*
X117409214Y-124648464D02*
X127433183Y-137961937D01*
X127433183Y-137961937D02*
G75*
G02*
X174269401Y-116281201I56742217J-61148663D01*
G01*
X117409214Y-124648464D02*
G75*
G02*
X121488201Y-121183401I66766186J-74462136D01*
G01*
X184459381Y-199110600D02*
G75*
G03*
X184459381Y-199110600I-283981J0D01*
G01*
X121488200Y-120802400D02*
X121488200Y-121183400D01*
X243027200Y-103962200D02*
X243027200Y-54737000D01*
X243027200Y-103962200D02*
G75*
G02*
X242112800Y-104876600I-914400J0D01*
G01*
X121488200Y-49047400D02*
X121488200Y-120802400D01*
X122402600Y-48133000D02*
X170256200Y-48133000D01*
X121488200Y-49047400D02*
G75*
G02*
X122402600Y-48133000I914400J0D01*
G01*
X170967400Y-47421800D02*
G75*
G02*
X170256200Y-48133000I-711200J0D01*
G01*
X171678600Y-46710600D02*
X187325000Y-46710600D01*
X170967400Y-47421800D02*
G75*
G02*
X171678600Y-46710600I711200J0D01*
G01*
X188239400Y-45796200D02*
X188239400Y-42672000D01*
X188239400Y-45796200D02*
G75*
G02*
X187325000Y-46710600I-914400J0D01*
G01*
X189153800Y-41757600D02*
X206146400Y-41757600D01*
X188239400Y-42672000D02*
G75*
G02*
X189153800Y-41757600I914400J0D01*
G01*
X207060800Y-42672000D02*
X207060800Y-44399200D01*
X206146400Y-41757600D02*
G75*
G02*
X207060800Y-42672000I0J-914400D01*
G01*
X207975200Y-45313600D02*
X224104200Y-45313600D01*
X207975200Y-45313600D02*
G75*
G02*
X207060800Y-44399200I0J914400D01*
G01*
X225933000Y-53822600D02*
X242112800Y-53822600D01*
X225018600Y-46228000D02*
X225018600Y-52908200D01*
X224104200Y-45313600D02*
G75*
G02*
X225018600Y-46228000I0J-914400D01*
G01*
X242112800Y-53822600D02*
G75*
G02*
X243027200Y-54737000I0J-914400D01*
G01*
X225933000Y-53822600D02*
G75*
G02*
X225018600Y-52908200I0J914400D01*
G01*
M02*
