M48
; DRILL file {KiCad (5.99.0-11550-g369d813a32)} date Wed Jul 28 18:11:43 2021
; FORMAT={-:-/ absolute / metric / decimal}
; #@! TF.CreationDate,2021-07-28T18:11:43+05:30
; #@! TF.GenerationSoftware,Kicad,Pcbnew,(5.99.0-11550-g369d813a32)
; #@! TF.FileFunction,Plated,1,2,PTH
FMAT,2
METRIC
; #@! TA.AperFunction,Plated,PTH,ViaDrill
T1C0.400
; #@! TA.AperFunction,Plated,PTH,ComponentDrill
T2C0.900
; #@! TA.AperFunction,Plated,PTH,ComponentDrill
T3C1.000
; #@! TA.AperFunction,Plated,PTH,ComponentDrill
T4C1.100
; #@! TA.AperFunction,Plated,PTH,ComponentDrill
T5C1.270
; #@! TA.AperFunction,Plated,PTH,ComponentDrill
T6C2.000
%
G90
G05
T1
X123.753Y-68.705
X127.453Y-69.016
X172.847Y-62.611
X190.627Y-60.667
X208.656Y-62.362
X219.354Y-95.162
X236.372Y-101.473
X237.249Y-99.949
T3
X129.164Y-134.099
X130.302Y-87.63
X130.302Y-90.13
X130.302Y-92.63
X135.352Y-129.35
X136.352Y-116.882
X139.648Y-123.951
X153.289Y-86.778
X153.289Y-94.578
X153.416Y-52.869
X153.416Y-60.669
X153.416Y-69.76
X153.416Y-77.56
X155.156Y-108.109
X156.844Y-115.724
X171.382Y-68.207
X171.382Y-76.007
X171.382Y-85.352
X171.382Y-93.152
X171.509Y-51.443
X171.509Y-59.243
X189.348Y-63.489
X189.348Y-71.289
X189.475Y-80.507
X189.475Y-88.307
X189.602Y-46.471
X189.602Y-54.271
X207.314Y-67.025
X207.314Y-74.825
X207.314Y-83.916
X207.314Y-91.716
X207.441Y-50.007
X207.441Y-57.807
X225.28Y-75.505
X225.28Y-83.305
X225.28Y-92.396
X225.28Y-100.196
X225.407Y-58.36
X225.407Y-66.16
T4
X132.461Y-49.657
X132.461Y-52.197
X132.461Y-54.737
X132.461Y-57.277
X132.461Y-59.817
X132.461Y-62.357
X132.461Y-64.897
X132.461Y-67.437
X132.461Y-69.977
X132.461Y-72.517
X132.461Y-75.057
X132.461Y-77.597
X147.701Y-49.657
X147.701Y-52.197
X147.701Y-54.737
X147.701Y-57.277
X147.701Y-59.817
X147.701Y-62.357
X147.701Y-64.897
X147.701Y-67.437
X147.701Y-69.977
X147.701Y-72.517
X147.701Y-75.057
X147.701Y-77.597
T5
X122.193Y-126.572
X124.882Y-121.862
X130.127Y-120.484
X139.363Y-114.836
X143.007Y-110.819
X148.426Y-110.61
X157.0Y-52.867
X157.0Y-69.867
X157.0Y-86.867
X158.546Y-107.164
X162.0Y-50.767
X162.0Y-67.767
X162.0Y-84.767
X162.973Y-104.031
X167.0Y-52.867
X167.0Y-69.867
X167.0Y-86.867
X168.309Y-104.999
X175.0Y-51.45
X175.0Y-68.45
X175.0Y-85.45
X180.0Y-49.35
X180.0Y-66.35
X180.0Y-83.35
X185.0Y-51.45
X185.0Y-68.45
X185.0Y-85.45
X193.0Y-46.492
X193.0Y-63.492
X193.0Y-80.492
X198.0Y-44.392
X198.0Y-61.392
X198.0Y-78.392
X203.0Y-46.492
X203.0Y-63.492
X203.0Y-80.492
X211.0Y-50.033
X211.0Y-67.033
X211.0Y-84.033
X216.0Y-47.933
X216.0Y-64.933
X216.0Y-81.933
X221.0Y-50.033
X221.0Y-67.033
X221.0Y-84.033
X229.0Y-58.533
X229.0Y-75.533
X229.0Y-92.533
X234.0Y-56.433
X234.0Y-73.433
X234.0Y-90.433
X239.0Y-58.533
X239.0Y-75.533
X239.0Y-92.533
T2
G00X123.57Y-51.869
M15
G01X123.57Y-51.469
M16
G05
G00X123.57Y-54.869
M15
G01X123.57Y-54.469
M16
G05
G00X123.57Y-58.869
M15
G01X123.57Y-58.469
M16
G05
G00X123.57Y-59.569
M15
G01X123.57Y-59.969
M16
G05
G00X128.17Y-51.469
M15
G01X128.17Y-51.869
M16
G05
G00X128.17Y-54.469
M15
G01X128.17Y-54.869
M16
G05
G00X128.17Y-58.469
M15
G01X128.17Y-58.869
M16
G05
G00X128.17Y-59.969
M15
G01X128.17Y-59.569
M16
G05
T6
G00X137.552Y-84.53
M15
G01X138.052Y-84.53
M16
G05
G00X137.552Y-95.73
M15
G01X138.052Y-95.73
M16
G05
T0
M30
