M48
; DRILL file {KiCad (5.99.0-11551-g43cb710297)} date Wednesday, July 28, 2021 at 01:20:55 PM
; FORMAT={-:-/ absolute / inch / decimal}
; #@! TF.CreationDate,2021-07-28T13:20:55+05:30
; #@! TF.GenerationSoftware,Kicad,Pcbnew,(5.99.0-11551-g43cb710297)
; #@! TF.FileFunction,Plated,1,2,PTH
FMAT,2
INCH
; #@! TA.AperFunction,Plated,PTH,ViaDrill
T1C0.0157
; #@! TA.AperFunction,Plated,PTH,ComponentDrill
T2C0.0354
; #@! TA.AperFunction,Plated,PTH,ComponentDrill
T3C0.0394
; #@! TA.AperFunction,Plated,PTH,ComponentDrill
T4C0.0433
; #@! TA.AperFunction,Plated,PTH,ComponentDrill
T5C0.0500
%
G90
G05
T1
X4.8722Y-2.7049
X5.0178Y-2.7172
X6.805Y-2.465
X7.505Y-2.355
X8.2148Y-2.4552
X8.636Y-3.7465
X9.306Y-3.995
X9.3405Y-3.935
T3
X5.0852Y-5.2795
X5.3288Y-5.0925
X5.3682Y-4.6017
X5.498Y-4.88
X6.035Y-3.4165
X6.035Y-3.7235
X6.04Y-2.0815
X6.04Y-2.3885
X6.04Y-2.7465
X6.04Y-3.0535
X6.1085Y-4.2563
X6.175Y-4.5561
X6.7473Y-2.6853
X6.7473Y-2.9924
X6.7473Y-3.3603
X6.7473Y-3.6674
X6.7523Y-2.0253
X6.7523Y-2.3324
X7.4546Y-2.4996
X7.4546Y-2.8066
X7.4596Y-3.1696
X7.4596Y-3.4766
X7.4646Y-1.8296
X7.4646Y-2.1366
X8.162Y-2.6388
X8.162Y-2.9459
X8.162Y-3.3038
X8.162Y-3.6109
X8.167Y-1.9688
X8.167Y-2.2759
X8.8693Y-2.9727
X8.8693Y-3.2797
X8.8693Y-3.6377
X8.8693Y-3.9447
X8.8743Y-2.2977
X8.8743Y-2.6047
T4
X5.215Y-1.955
X5.215Y-2.055
X5.215Y-2.155
X5.215Y-2.255
X5.215Y-2.355
X5.215Y-2.455
X5.215Y-2.555
X5.215Y-2.655
X5.215Y-2.755
X5.215Y-2.855
X5.215Y-2.955
X5.215Y-3.055
X5.815Y-1.955
X5.815Y-2.055
X5.815Y-2.155
X5.815Y-2.255
X5.815Y-2.355
X5.815Y-2.455
X5.815Y-2.555
X5.815Y-2.655
X5.815Y-2.755
X5.815Y-2.855
X5.815Y-2.955
X5.815Y-3.055
T5
X4.8108Y-4.9831
X4.9166Y-4.7977
X5.1231Y-4.7435
X5.4867Y-4.5211
X5.6302Y-4.363
X5.8435Y-4.3547
X6.1811Y-2.0814
X6.1811Y-2.7507
X6.1811Y-3.4199
X6.242Y-4.2191
X6.378Y-1.9987
X6.378Y-2.668
X6.378Y-3.3373
X6.4163Y-4.0957
X6.5748Y-2.0814
X6.5748Y-2.7507
X6.5748Y-3.4199
X6.6263Y-4.1338
X6.8898Y-2.0256
X6.8898Y-2.6949
X6.8898Y-3.3642
X7.0866Y-1.9429
X7.0866Y-2.6122
X7.0866Y-3.2815
X7.2835Y-2.0256
X7.2835Y-2.6949
X7.2835Y-3.3642
X7.5984Y-1.8304
X7.5984Y-2.4997
X7.5984Y-3.169
X7.7953Y-1.7477
X7.7953Y-2.417
X7.7953Y-3.0863
X7.9921Y-1.8304
X7.9921Y-2.4997
X7.9921Y-3.169
X8.3071Y-1.9698
X8.3071Y-2.6391
X8.3071Y-3.3084
X8.5039Y-1.8871
X8.5039Y-2.5564
X8.5039Y-3.2257
X8.7008Y-1.9698
X8.7008Y-2.6391
X8.7008Y-3.3084
X9.0157Y-2.3045
X9.0157Y-2.9738
X9.0157Y-3.643
X9.2126Y-2.2218
X9.2126Y-2.8911
X9.2126Y-3.5604
X9.4094Y-2.3045
X9.4094Y-2.9738
X9.4094Y-3.643
T2
G00X4.865Y-2.0421
M15
G01X4.865Y-2.0263
M16
G05
G00X4.865Y-2.1602
M15
G01X4.865Y-2.1444
M16
G05
G00X4.865Y-2.3177
M15
G01X4.865Y-2.3019
M16
G05
G00X4.865Y-2.3452
M15
G01X4.865Y-2.361
M16
G05
G00X5.0461Y-2.0263
M15
G01X5.0461Y-2.0421
M16
G05
G00X5.0461Y-2.1444
M15
G01X5.0461Y-2.1602
M16
G05
G00X5.0461Y-2.3019
M15
G01X5.0461Y-2.3177
M16
G05
G00X5.0461Y-2.361
M15
G01X5.0461Y-2.3452
M16
G05
T0
M30
