M48
; DRILL file {KiCad (5.1.7)-1} date 07/22/21 23:36:27
; FORMAT={-:-/ absolute / metric / decimal}
; #@! TF.CreationDate,2021-07-22T23:36:27+05:30
; #@! TF.GenerationSoftware,Kicad,Pcbnew,(5.1.7)-1
; #@! TF.FileFunction,NonPlated,1,2,NPTH
FMAT,2
METRIC
T1C0.800
T2C0.991
T3C1.702
T4C3.429
%
G90
G05
T1
X125.87Y-50.069
X125.87Y-57.069
X125.87Y-50.069
X125.87Y-57.069
T2
X210.78Y-58.033
X221.22Y-58.033
X126.889Y-133.053
X135.171Y-126.697
X174.78Y-59.45
X185.22Y-59.45
X228.78Y-66.533
X239.22Y-66.533
X192.78Y-88.492
X203.22Y-88.492
X156.78Y-77.867
X167.22Y-77.867
X228.78Y-83.533
X239.22Y-83.533
X210.78Y-75.033
X221.22Y-75.033
X156.78Y-94.867
X167.22Y-94.867
X192.78Y-54.492
X203.22Y-54.492
X192.78Y-71.492
X203.22Y-71.492
X228.78Y-100.533
X239.22Y-100.533
X210.78Y-92.033
X221.22Y-92.033
X160.063Y-115.022
X170.255Y-112.762
X142.544Y-122.179
X152.006Y-117.767
X156.78Y-60.867
X167.22Y-60.867
X174.78Y-93.45
X185.22Y-93.45
X174.78Y-76.45
X185.22Y-76.45
T3
X228.5Y-96.333
X239.5Y-96.333
X210.5Y-87.833
X221.5Y-87.833
X158.88Y-110.982
X169.62Y-108.601
X140.515Y-118.491
X150.485Y-113.842
X156.5Y-56.667
X167.5Y-56.667
X174.5Y-89.25
X185.5Y-89.25
X174.5Y-72.25
X185.5Y-72.25
X210.5Y-53.833
X221.5Y-53.833
X124.11Y-129.891
X132.837Y-123.195
X174.5Y-55.25
X185.5Y-55.25
X228.5Y-62.333
X239.5Y-62.333
X192.5Y-84.292
X203.5Y-84.292
X156.5Y-73.667
X167.5Y-73.667
X228.5Y-79.333
X239.5Y-79.333
X210.5Y-70.833
X221.5Y-70.833
X156.5Y-90.667
X167.5Y-90.667
X192.5Y-50.292
X203.5Y-50.292
X192.5Y-67.292
X203.5Y-67.292
T4
X216.0Y-53.833
X128.473Y-126.543
X180.0Y-55.25
X234.0Y-62.333
X198.0Y-84.292
X162.0Y-73.667
X234.0Y-79.333
X216.0Y-70.833
X162.0Y-90.667
X198.0Y-50.292
X198.0Y-67.292
X234.0Y-96.333
X216.0Y-87.833
X164.25Y-109.792
X145.5Y-116.167
X162.0Y-56.667
X180.0Y-89.25
X180.0Y-72.25
T0
M30
