%TF.GenerationSoftware,KiCad,Pcbnew,(5.99.0-11551-g43cb710297)*%
%TF.CreationDate,2021-07-28T13:20:52+05:30*%
%TF.ProjectId,Pteron36v0,50746572-6f6e-4333-9676-302e6b696361,rev?*%
%TF.SameCoordinates,Original*%
%TF.FileFunction,Profile,NP*%
%FSLAX46Y46*%
G04 Gerber Fmt 4.6, Leading zero omitted, Abs format (unit mm)*
G04 Created by KiCad (PCBNEW (5.99.0-11551-g43cb710297)) date 2021-07-28 13:20:52*
%MOMM*%
%LPD*%
G01*
G04 APERTURE LIST*
%TA.AperFunction,Profile*%
%ADD10C,0.050000*%
%TD*%
G04 APERTURE END LIST*
D10*
X225018600Y-46228000D02*
X225018600Y-52908200D01*
X207975200Y-45313600D02*
X224104200Y-45313600D01*
X207060800Y-42672000D02*
X207060800Y-44399200D01*
X189153800Y-41757600D02*
X206146400Y-41757600D01*
X188239400Y-45796200D02*
X188239400Y-42672000D01*
X171678600Y-46710600D02*
X187325000Y-46710600D01*
X122402600Y-48133000D02*
X170256200Y-48133000D01*
X241027200Y-103962200D02*
X241027200Y-54737000D01*
X240112800Y-53822600D02*
G75*
G02*
X241027200Y-54737000I0J-914400D01*
G01*
X121488200Y-49047400D02*
G75*
G02*
X122402600Y-48133000I914400J0D01*
G01*
X241027200Y-103962200D02*
G75*
G02*
X240112800Y-104876600I-914400J0D01*
G01*
X170967400Y-47421800D02*
G75*
G02*
X170256200Y-48133000I-711200J0D01*
G01*
X225933000Y-53822600D02*
G75*
G02*
X225018600Y-52908200I0J914400D01*
G01*
X226720400Y-104876601D02*
G75*
G03*
X174345601Y-116205001I-21804645J-25927068D01*
G01*
X117576600Y-124104400D02*
G75*
G02*
X121488201Y-120802401I66041541J-74265997D01*
G01*
X206146400Y-41757600D02*
G75*
G02*
X207060800Y-42672000I0J-914400D01*
G01*
X188239400Y-42672000D02*
G75*
G02*
X189153800Y-41757600I914400J0D01*
G01*
X127863600Y-137490200D02*
G75*
G02*
X174345601Y-116205001I56282641J-61512779D01*
G01*
X224104200Y-45313600D02*
G75*
G02*
X225018600Y-46228000I0J-914400D01*
G01*
X170967400Y-47421800D02*
G75*
G02*
X171678600Y-46710600I711200J0D01*
G01*
X207975200Y-45313600D02*
G75*
G02*
X207060800Y-44399200I0J914400D01*
G01*
X188239400Y-45796200D02*
G75*
G02*
X187325000Y-46710600I-914400J0D01*
G01*
X240112800Y-104876600D02*
X226720400Y-104876600D01*
X117576600Y-124104400D02*
X127863600Y-137490200D01*
X121488200Y-49047400D02*
X121488200Y-120802400D01*
X225933000Y-53822600D02*
X240112800Y-53822600D01*
M02*
