%TF.GenerationSoftware,KiCad,Pcbnew,(5.1.7)-1*%
%TF.CreationDate,2021-07-25T23:49:13+05:30*%
%TF.ProjectId,Pteron36v0,50746572-6f6e-4333-9676-302e6b696361,rev?*%
%TF.SameCoordinates,Original*%
%TF.FileFunction,Soldermask,Bot*%
%TF.FilePolarity,Negative*%
%FSLAX46Y46*%
G04 Gerber Fmt 4.6, Leading zero omitted, Abs format (unit mm)*
G04 Created by KiCad (PCBNEW (5.1.7)-1) date 2021-07-25 23:49:13*
%MOMM*%
%LPD*%
G01*
G04 APERTURE LIST*
%ADD10C,2.000000*%
%ADD11C,2.200000*%
%ADD12C,1.600000*%
%ADD13R,1.600000X1.600000*%
%ADD14O,1.600000X2.000000*%
%ADD15C,0.800000*%
%ADD16R,2.000000X2.000000*%
%ADD17R,3.200000X2.000000*%
%ADD18R,1.600000X1.200000*%
%ADD19R,1.100000X1.800000*%
%ADD20O,3.759200X1.879600*%
%ADD21R,1.200000X1.600000*%
%ADD22C,0.100000*%
%ADD23R,1.270000X0.635000*%
%ADD24C,1.397000*%
G04 APERTURE END LIST*
%TO.C,SW9*%
G36*
G01*
X198137723Y-97153426D02*
X198177638Y-96574623D01*
G75*
G02*
X199510675Y-95413584I1247038J-85999D01*
G01*
X199510675Y-95413584D01*
G75*
G02*
X200671714Y-96746621I-85999J-1247038D01*
G01*
X200631716Y-97326621D01*
G75*
G02*
X199298679Y-98487660I-1247038J85999D01*
G01*
X199298679Y-98487660D01*
G75*
G02*
X198137640Y-97154623I85999J1247038D01*
G01*
G37*
D10*
X194344677Y-96660622D03*
X194384677Y-97240622D03*
G36*
G01*
X193137721Y-97327818D02*
X193097640Y-96746621D01*
G75*
G02*
X194258679Y-95413584I1247038J85999D01*
G01*
X194258679Y-95413584D01*
G75*
G02*
X195591716Y-96574623I85999J-1247038D01*
G01*
X195631714Y-97154623D01*
G75*
G02*
X194470675Y-98487660I-1247038J-85999D01*
G01*
X194470675Y-98487660D01*
G75*
G02*
X193137638Y-97326621I-85999J1247038D01*
G01*
G37*
X200694677Y-99200622D03*
X199384677Y-97740622D03*
G36*
G01*
X195315061Y-98575409D02*
X194005071Y-100035417D01*
G75*
G02*
X192239891Y-100131015I-930389J834791D01*
G01*
X192239891Y-100131015D01*
G75*
G02*
X192144293Y-98365835I834791J930389D01*
G01*
X193454283Y-96905827D01*
G75*
G02*
X195219463Y-96810229I930389J-834791D01*
G01*
X195219463Y-96810229D01*
G75*
G02*
X195315061Y-98575409I-834791J-930389D01*
G01*
G37*
G36*
G01*
X200315071Y-96905827D02*
X201625061Y-98365835D01*
G75*
G02*
X201529463Y-100131015I-930389J-834791D01*
G01*
X201529463Y-100131015D01*
G75*
G02*
X199764283Y-100035417I-834791J930389D01*
G01*
X198454293Y-98575409D01*
G75*
G02*
X198549891Y-96810229I930389J834791D01*
G01*
X198549891Y-96810229D01*
G75*
G02*
X200315071Y-96905827I834791J-930389D01*
G01*
G37*
X193074677Y-99200622D03*
X194384677Y-97740622D03*
X199424677Y-96660622D03*
X199384677Y-97240622D03*
%TD*%
%TO.C,SW19*%
G36*
G01*
X159975292Y-83822000D02*
X160015207Y-83243197D01*
G75*
G02*
X161348244Y-82082158I1247038J-85999D01*
G01*
X161348244Y-82082158D01*
G75*
G02*
X162509283Y-83415195I-85999J-1247038D01*
G01*
X162469285Y-83995195D01*
G75*
G02*
X161136248Y-85156234I-1247038J85999D01*
G01*
X161136248Y-85156234D01*
G75*
G02*
X159975209Y-83823197I85999J1247038D01*
G01*
G37*
X156182246Y-83329196D03*
X156222246Y-83909196D03*
G36*
G01*
X154975290Y-83996392D02*
X154935209Y-83415195D01*
G75*
G02*
X156096248Y-82082158I1247038J85999D01*
G01*
X156096248Y-82082158D01*
G75*
G02*
X157429285Y-83243197I85999J-1247038D01*
G01*
X157469283Y-83823197D01*
G75*
G02*
X156308244Y-85156234I-1247038J-85999D01*
G01*
X156308244Y-85156234D01*
G75*
G02*
X154975207Y-83995195I-85999J1247038D01*
G01*
G37*
X162532246Y-85869196D03*
X161222246Y-84409196D03*
G36*
G01*
X157152630Y-85243983D02*
X155842640Y-86703991D01*
G75*
G02*
X154077460Y-86799589I-930389J834791D01*
G01*
X154077460Y-86799589D01*
G75*
G02*
X153981862Y-85034409I834791J930389D01*
G01*
X155291852Y-83574401D01*
G75*
G02*
X157057032Y-83478803I930389J-834791D01*
G01*
X157057032Y-83478803D01*
G75*
G02*
X157152630Y-85243983I-834791J-930389D01*
G01*
G37*
G36*
G01*
X162152640Y-83574401D02*
X163462630Y-85034409D01*
G75*
G02*
X163367032Y-86799589I-930389J-834791D01*
G01*
X163367032Y-86799589D01*
G75*
G02*
X161601852Y-86703991I-834791J930389D01*
G01*
X160291862Y-85243983D01*
G75*
G02*
X160387460Y-83478803I930389J834791D01*
G01*
X160387460Y-83478803D01*
G75*
G02*
X162152640Y-83574401I834791J-930389D01*
G01*
G37*
X154912246Y-85869196D03*
X156222246Y-84409196D03*
X161262246Y-83329196D03*
X161222246Y-83909196D03*
%TD*%
%TO.C,SW28*%
G36*
G01*
X121914555Y-91482169D02*
X121954470Y-90903366D01*
G75*
G02*
X123287507Y-89742327I1247038J-85999D01*
G01*
X123287507Y-89742327D01*
G75*
G02*
X124448546Y-91075364I-85999J-1247038D01*
G01*
X124408548Y-91655364D01*
G75*
G02*
X123075511Y-92816403I-1247038J85999D01*
G01*
X123075511Y-92816403D01*
G75*
G02*
X121914472Y-91483366I85999J1247038D01*
G01*
G37*
X118121509Y-90989365D03*
X118161509Y-91569365D03*
G36*
G01*
X116914553Y-91656561D02*
X116874472Y-91075364D01*
G75*
G02*
X118035511Y-89742327I1247038J85999D01*
G01*
X118035511Y-89742327D01*
G75*
G02*
X119368548Y-90903366I85999J-1247038D01*
G01*
X119408546Y-91483366D01*
G75*
G02*
X118247507Y-92816403I-1247038J-85999D01*
G01*
X118247507Y-92816403D01*
G75*
G02*
X116914470Y-91655364I-85999J1247038D01*
G01*
G37*
X124471509Y-93529365D03*
X123161509Y-92069365D03*
G36*
G01*
X119091893Y-92904152D02*
X117781903Y-94364160D01*
G75*
G02*
X116016723Y-94459758I-930389J834791D01*
G01*
X116016723Y-94459758D01*
G75*
G02*
X115921125Y-92694578I834791J930389D01*
G01*
X117231115Y-91234570D01*
G75*
G02*
X118996295Y-91138972I930389J-834791D01*
G01*
X118996295Y-91138972D01*
G75*
G02*
X119091893Y-92904152I-834791J-930389D01*
G01*
G37*
G36*
G01*
X124091903Y-91234570D02*
X125401893Y-92694578D01*
G75*
G02*
X125306295Y-94459758I-930389J-834791D01*
G01*
X125306295Y-94459758D01*
G75*
G02*
X123541115Y-94364160I-834791J930389D01*
G01*
X122231125Y-92904152D01*
G75*
G02*
X122326723Y-91138972I930389J834791D01*
G01*
X122326723Y-91138972D01*
G75*
G02*
X124091903Y-91234570I834791J-930389D01*
G01*
G37*
X116851509Y-93529365D03*
X118161509Y-92069365D03*
X123201509Y-90989365D03*
X123161509Y-91569365D03*
%TD*%
%TO.C,SW27*%
G36*
G01*
X121895176Y-72356719D02*
X121935091Y-71777916D01*
G75*
G02*
X123268128Y-70616877I1247038J-85999D01*
G01*
X123268128Y-70616877D01*
G75*
G02*
X124429167Y-71949914I-85999J-1247038D01*
G01*
X124389169Y-72529914D01*
G75*
G02*
X123056132Y-73690953I-1247038J85999D01*
G01*
X123056132Y-73690953D01*
G75*
G02*
X121895093Y-72357916I85999J1247038D01*
G01*
G37*
X118102130Y-71863915D03*
X118142130Y-72443915D03*
G36*
G01*
X116895174Y-72531111D02*
X116855093Y-71949914D01*
G75*
G02*
X118016132Y-70616877I1247038J85999D01*
G01*
X118016132Y-70616877D01*
G75*
G02*
X119349169Y-71777916I85999J-1247038D01*
G01*
X119389167Y-72357916D01*
G75*
G02*
X118228128Y-73690953I-1247038J-85999D01*
G01*
X118228128Y-73690953D01*
G75*
G02*
X116895091Y-72529914I-85999J1247038D01*
G01*
G37*
X124452130Y-74403915D03*
X123142130Y-72943915D03*
G36*
G01*
X119072514Y-73778702D02*
X117762524Y-75238710D01*
G75*
G02*
X115997344Y-75334308I-930389J834791D01*
G01*
X115997344Y-75334308D01*
G75*
G02*
X115901746Y-73569128I834791J930389D01*
G01*
X117211736Y-72109120D01*
G75*
G02*
X118976916Y-72013522I930389J-834791D01*
G01*
X118976916Y-72013522D01*
G75*
G02*
X119072514Y-73778702I-834791J-930389D01*
G01*
G37*
G36*
G01*
X124072524Y-72109120D02*
X125382514Y-73569128D01*
G75*
G02*
X125286916Y-75334308I-930389J-834791D01*
G01*
X125286916Y-75334308D01*
G75*
G02*
X123521736Y-75238710I-834791J930389D01*
G01*
X122211746Y-73778702D01*
G75*
G02*
X122307344Y-72013522I930389J834791D01*
G01*
X122307344Y-72013522D01*
G75*
G02*
X124072524Y-72109120I834791J-930389D01*
G01*
G37*
X116832130Y-74403915D03*
X118142130Y-72943915D03*
X123182130Y-71863915D03*
X123142130Y-72443915D03*
%TD*%
%TO.C,SW26*%
G36*
G01*
X121851532Y-53321824D02*
X121891447Y-52743021D01*
G75*
G02*
X123224484Y-51581982I1247038J-85999D01*
G01*
X123224484Y-51581982D01*
G75*
G02*
X124385523Y-52915019I-85999J-1247038D01*
G01*
X124345525Y-53495019D01*
G75*
G02*
X123012488Y-54656058I-1247038J85999D01*
G01*
X123012488Y-54656058D01*
G75*
G02*
X121851449Y-53323021I85999J1247038D01*
G01*
G37*
X118058486Y-52829020D03*
X118098486Y-53409020D03*
G36*
G01*
X116851530Y-53496216D02*
X116811449Y-52915019D01*
G75*
G02*
X117972488Y-51581982I1247038J85999D01*
G01*
X117972488Y-51581982D01*
G75*
G02*
X119305525Y-52743021I85999J-1247038D01*
G01*
X119345523Y-53323021D01*
G75*
G02*
X118184484Y-54656058I-1247038J-85999D01*
G01*
X118184484Y-54656058D01*
G75*
G02*
X116851447Y-53495019I-85999J1247038D01*
G01*
G37*
X124408486Y-55369020D03*
X123098486Y-53909020D03*
G36*
G01*
X119028870Y-54743807D02*
X117718880Y-56203815D01*
G75*
G02*
X115953700Y-56299413I-930389J834791D01*
G01*
X115953700Y-56299413D01*
G75*
G02*
X115858102Y-54534233I834791J930389D01*
G01*
X117168092Y-53074225D01*
G75*
G02*
X118933272Y-52978627I930389J-834791D01*
G01*
X118933272Y-52978627D01*
G75*
G02*
X119028870Y-54743807I-834791J-930389D01*
G01*
G37*
G36*
G01*
X124028880Y-53074225D02*
X125338870Y-54534233D01*
G75*
G02*
X125243272Y-56299413I-930389J-834791D01*
G01*
X125243272Y-56299413D01*
G75*
G02*
X123478092Y-56203815I-834791J930389D01*
G01*
X122168102Y-54743807D01*
G75*
G02*
X122263700Y-52978627I930389J834791D01*
G01*
X122263700Y-52978627D01*
G75*
G02*
X124028880Y-53074225I834791J-930389D01*
G01*
G37*
X116788486Y-55369020D03*
X118098486Y-53909020D03*
X123138486Y-52829020D03*
X123098486Y-53409020D03*
%TD*%
%TO.C,SW24*%
G36*
G01*
X140981959Y-89506094D02*
X141021874Y-88927291D01*
G75*
G02*
X142354911Y-87766252I1247038J-85999D01*
G01*
X142354911Y-87766252D01*
G75*
G02*
X143515950Y-89099289I-85999J-1247038D01*
G01*
X143475952Y-89679289D01*
G75*
G02*
X142142915Y-90840328I-1247038J85999D01*
G01*
X142142915Y-90840328D01*
G75*
G02*
X140981876Y-89507291I85999J1247038D01*
G01*
G37*
X137188913Y-89013290D03*
X137228913Y-89593290D03*
G36*
G01*
X135981957Y-89680486D02*
X135941876Y-89099289D01*
G75*
G02*
X137102915Y-87766252I1247038J85999D01*
G01*
X137102915Y-87766252D01*
G75*
G02*
X138435952Y-88927291I85999J-1247038D01*
G01*
X138475950Y-89507291D01*
G75*
G02*
X137314911Y-90840328I-1247038J-85999D01*
G01*
X137314911Y-90840328D01*
G75*
G02*
X135981874Y-89679289I-85999J1247038D01*
G01*
G37*
X143538913Y-91553290D03*
X142228913Y-90093290D03*
G36*
G01*
X138159297Y-90928077D02*
X136849307Y-92388085D01*
G75*
G02*
X135084127Y-92483683I-930389J834791D01*
G01*
X135084127Y-92483683D01*
G75*
G02*
X134988529Y-90718503I834791J930389D01*
G01*
X136298519Y-89258495D01*
G75*
G02*
X138063699Y-89162897I930389J-834791D01*
G01*
X138063699Y-89162897D01*
G75*
G02*
X138159297Y-90928077I-834791J-930389D01*
G01*
G37*
G36*
G01*
X143159307Y-89258495D02*
X144469297Y-90718503D01*
G75*
G02*
X144373699Y-92483683I-930389J-834791D01*
G01*
X144373699Y-92483683D01*
G75*
G02*
X142608519Y-92388085I-834791J930389D01*
G01*
X141298529Y-90928077D01*
G75*
G02*
X141394127Y-89162897I930389J834791D01*
G01*
X141394127Y-89162897D01*
G75*
G02*
X143159307Y-89258495I834791J-930389D01*
G01*
G37*
X135918913Y-91553290D03*
X137228913Y-90093290D03*
X142268913Y-89013290D03*
X142228913Y-89593290D03*
%TD*%
%TO.C,SW23*%
G36*
G01*
X140938315Y-70471198D02*
X140978230Y-69892395D01*
G75*
G02*
X142311267Y-68731356I1247038J-85999D01*
G01*
X142311267Y-68731356D01*
G75*
G02*
X143472306Y-70064393I-85999J-1247038D01*
G01*
X143432308Y-70644393D01*
G75*
G02*
X142099271Y-71805432I-1247038J85999D01*
G01*
X142099271Y-71805432D01*
G75*
G02*
X140938232Y-70472395I85999J1247038D01*
G01*
G37*
X137145269Y-69978394D03*
X137185269Y-70558394D03*
G36*
G01*
X135938313Y-70645590D02*
X135898232Y-70064393D01*
G75*
G02*
X137059271Y-68731356I1247038J85999D01*
G01*
X137059271Y-68731356D01*
G75*
G02*
X138392308Y-69892395I85999J-1247038D01*
G01*
X138432306Y-70472395D01*
G75*
G02*
X137271267Y-71805432I-1247038J-85999D01*
G01*
X137271267Y-71805432D01*
G75*
G02*
X135938230Y-70644393I-85999J1247038D01*
G01*
G37*
X143495269Y-72518394D03*
X142185269Y-71058394D03*
G36*
G01*
X138115653Y-71893181D02*
X136805663Y-73353189D01*
G75*
G02*
X135040483Y-73448787I-930389J834791D01*
G01*
X135040483Y-73448787D01*
G75*
G02*
X134944885Y-71683607I834791J930389D01*
G01*
X136254875Y-70223599D01*
G75*
G02*
X138020055Y-70128001I930389J-834791D01*
G01*
X138020055Y-70128001D01*
G75*
G02*
X138115653Y-71893181I-834791J-930389D01*
G01*
G37*
G36*
G01*
X143115663Y-70223599D02*
X144425653Y-71683607D01*
G75*
G02*
X144330055Y-73448787I-930389J-834791D01*
G01*
X144330055Y-73448787D01*
G75*
G02*
X142564875Y-73353189I-834791J930389D01*
G01*
X141254885Y-71893181D01*
G75*
G02*
X141350483Y-70128001I930389J834791D01*
G01*
X141350483Y-70128001D01*
G75*
G02*
X143115663Y-70223599I834791J-930389D01*
G01*
G37*
X135875269Y-72518394D03*
X137185269Y-71058394D03*
X142225269Y-69978394D03*
X142185269Y-70558394D03*
%TD*%
%TO.C,SW22*%
G36*
G01*
X140985227Y-51460573D02*
X141025142Y-50881770D01*
G75*
G02*
X142358179Y-49720731I1247038J-85999D01*
G01*
X142358179Y-49720731D01*
G75*
G02*
X143519218Y-51053768I-85999J-1247038D01*
G01*
X143479220Y-51633768D01*
G75*
G02*
X142146183Y-52794807I-1247038J85999D01*
G01*
X142146183Y-52794807D01*
G75*
G02*
X140985144Y-51461770I85999J1247038D01*
G01*
G37*
X137192181Y-50967769D03*
X137232181Y-51547769D03*
G36*
G01*
X135985225Y-51634965D02*
X135945144Y-51053768D01*
G75*
G02*
X137106183Y-49720731I1247038J85999D01*
G01*
X137106183Y-49720731D01*
G75*
G02*
X138439220Y-50881770I85999J-1247038D01*
G01*
X138479218Y-51461770D01*
G75*
G02*
X137318179Y-52794807I-1247038J-85999D01*
G01*
X137318179Y-52794807D01*
G75*
G02*
X135985142Y-51633768I-85999J1247038D01*
G01*
G37*
X143542181Y-53507769D03*
X142232181Y-52047769D03*
G36*
G01*
X138162565Y-52882556D02*
X136852575Y-54342564D01*
G75*
G02*
X135087395Y-54438162I-930389J834791D01*
G01*
X135087395Y-54438162D01*
G75*
G02*
X134991797Y-52672982I834791J930389D01*
G01*
X136301787Y-51212974D01*
G75*
G02*
X138066967Y-51117376I930389J-834791D01*
G01*
X138066967Y-51117376D01*
G75*
G02*
X138162565Y-52882556I-834791J-930389D01*
G01*
G37*
G36*
G01*
X143162575Y-51212974D02*
X144472565Y-52672982D01*
G75*
G02*
X144376967Y-54438162I-930389J-834791D01*
G01*
X144376967Y-54438162D01*
G75*
G02*
X142611787Y-54342564I-834791J930389D01*
G01*
X141301797Y-52882556D01*
G75*
G02*
X141397395Y-51117376I930389J834791D01*
G01*
X141397395Y-51117376D01*
G75*
G02*
X143162575Y-51212974I834791J-930389D01*
G01*
G37*
X135922181Y-53507769D03*
X137232181Y-52047769D03*
X142272181Y-50967769D03*
X142232181Y-51547769D03*
%TD*%
%TO.C,SW20*%
G36*
G01*
X84481515Y-129431924D02*
X84159622Y-128946613D01*
G75*
G02*
X84510395Y-127213996I1041695J690922D01*
G01*
X84510395Y-127213996D01*
G75*
G02*
X86243012Y-127564769I690922J-1041695D01*
G01*
X86564362Y-128049263D01*
G75*
G02*
X86213589Y-129781880I-1041695J-690922D01*
G01*
X86213589Y-129781880D01*
G75*
G02*
X84480972Y-129431107I-690922J1041695D01*
G01*
G37*
X81171083Y-131348198D03*
X81555899Y-131783993D03*
G36*
G01*
X80619703Y-132612268D02*
X80234095Y-132175573D01*
G75*
G02*
X80343708Y-130411208I936989J827376D01*
G01*
X80343708Y-130411208D01*
G75*
G02*
X82108073Y-130520821I827376J-936989D01*
G01*
X82492887Y-130956617D01*
G75*
G02*
X82383274Y-132720982I-936989J-827376D01*
G01*
X82383274Y-132720982D01*
G75*
G02*
X80618909Y-132611369I-827376J936989D01*
G01*
G37*
X87755131Y-129497680D03*
X85827047Y-129136862D03*
G36*
G01*
X83106589Y-132276568D02*
X82956101Y-134232342D01*
G75*
G02*
X81613886Y-135382759I-1246316J95899D01*
G01*
X81613886Y-135382759D01*
G75*
G02*
X80463469Y-134040544I95899J1246316D01*
G01*
X80613957Y-132084770D01*
G75*
G02*
X81956172Y-130934353I1246316J-95899D01*
G01*
X81956172Y-130934353D01*
G75*
G02*
X83106589Y-132276568I-95899J-1246316D01*
G01*
G37*
G36*
G01*
X86056987Y-127908187D02*
X87985069Y-128269017D01*
G75*
G02*
X88983799Y-129727625I-229939J-1228669D01*
G01*
X88983799Y-129727625D01*
G75*
G02*
X87525191Y-130726355I-1228669J229939D01*
G01*
X85597109Y-130365525D01*
G75*
G02*
X84598379Y-128906917I229939J1228669D01*
G01*
X84598379Y-128906917D01*
G75*
G02*
X86056987Y-127908187I1228669J-229939D01*
G01*
G37*
X81709779Y-134136443D03*
X81860280Y-132180669D03*
X85201318Y-128255690D03*
X85522666Y-128740185D03*
%TD*%
%TO.C,SW18*%
G36*
G01*
X160022208Y-64811371D02*
X160062123Y-64232568D01*
G75*
G02*
X161395160Y-63071529I1247038J-85999D01*
G01*
X161395160Y-63071529D01*
G75*
G02*
X162556199Y-64404566I-85999J-1247038D01*
G01*
X162516201Y-64984566D01*
G75*
G02*
X161183164Y-66145605I-1247038J85999D01*
G01*
X161183164Y-66145605D01*
G75*
G02*
X160022125Y-64812568I85999J1247038D01*
G01*
G37*
X156229162Y-64318567D03*
X156269162Y-64898567D03*
G36*
G01*
X155022206Y-64985763D02*
X154982125Y-64404566D01*
G75*
G02*
X156143164Y-63071529I1247038J85999D01*
G01*
X156143164Y-63071529D01*
G75*
G02*
X157476201Y-64232568I85999J-1247038D01*
G01*
X157516199Y-64812568D01*
G75*
G02*
X156355160Y-66145605I-1247038J-85999D01*
G01*
X156355160Y-66145605D01*
G75*
G02*
X155022123Y-64984566I-85999J1247038D01*
G01*
G37*
X162579162Y-66858567D03*
X161269162Y-65398567D03*
G36*
G01*
X157199546Y-66233354D02*
X155889556Y-67693362D01*
G75*
G02*
X154124376Y-67788960I-930389J834791D01*
G01*
X154124376Y-67788960D01*
G75*
G02*
X154028778Y-66023780I834791J930389D01*
G01*
X155338768Y-64563772D01*
G75*
G02*
X157103948Y-64468174I930389J-834791D01*
G01*
X157103948Y-64468174D01*
G75*
G02*
X157199546Y-66233354I-834791J-930389D01*
G01*
G37*
G36*
G01*
X162199556Y-64563772D02*
X163509546Y-66023780D01*
G75*
G02*
X163413948Y-67788960I-930389J-834791D01*
G01*
X163413948Y-67788960D01*
G75*
G02*
X161648768Y-67693362I-834791J930389D01*
G01*
X160338778Y-66233354D01*
G75*
G02*
X160434376Y-64468174I930389J834791D01*
G01*
X160434376Y-64468174D01*
G75*
G02*
X162199556Y-64563772I834791J-930389D01*
G01*
G37*
X154959162Y-66858567D03*
X156269162Y-65398567D03*
X161309162Y-64318567D03*
X161269162Y-64898567D03*
%TD*%
%TO.C,SW17*%
G36*
G01*
X160002825Y-45685920D02*
X160042740Y-45107117D01*
G75*
G02*
X161375777Y-43946078I1247038J-85999D01*
G01*
X161375777Y-43946078D01*
G75*
G02*
X162536816Y-45279115I-85999J-1247038D01*
G01*
X162496818Y-45859115D01*
G75*
G02*
X161163781Y-47020154I-1247038J85999D01*
G01*
X161163781Y-47020154D01*
G75*
G02*
X160002742Y-45687117I85999J1247038D01*
G01*
G37*
X156209779Y-45193116D03*
X156249779Y-45773116D03*
G36*
G01*
X155002823Y-45860312D02*
X154962742Y-45279115D01*
G75*
G02*
X156123781Y-43946078I1247038J85999D01*
G01*
X156123781Y-43946078D01*
G75*
G02*
X157456818Y-45107117I85999J-1247038D01*
G01*
X157496816Y-45687117D01*
G75*
G02*
X156335777Y-47020154I-1247038J-85999D01*
G01*
X156335777Y-47020154D01*
G75*
G02*
X155002740Y-45859115I-85999J1247038D01*
G01*
G37*
X162559779Y-47733116D03*
X161249779Y-46273116D03*
G36*
G01*
X157180163Y-47107903D02*
X155870173Y-48567911D01*
G75*
G02*
X154104993Y-48663509I-930389J834791D01*
G01*
X154104993Y-48663509D01*
G75*
G02*
X154009395Y-46898329I834791J930389D01*
G01*
X155319385Y-45438321D01*
G75*
G02*
X157084565Y-45342723I930389J-834791D01*
G01*
X157084565Y-45342723D01*
G75*
G02*
X157180163Y-47107903I-834791J-930389D01*
G01*
G37*
G36*
G01*
X162180173Y-45438321D02*
X163490163Y-46898329D01*
G75*
G02*
X163394565Y-48663509I-930389J-834791D01*
G01*
X163394565Y-48663509D01*
G75*
G02*
X161629385Y-48567911I-834791J930389D01*
G01*
X160319395Y-47107903D01*
G75*
G02*
X160414993Y-45342723I930389J834791D01*
G01*
X160414993Y-45342723D01*
G75*
G02*
X162180173Y-45438321I834791J-930389D01*
G01*
G37*
X154939779Y-47733116D03*
X156249779Y-46273116D03*
X161289779Y-45193116D03*
X161249779Y-45773116D03*
%TD*%
%TO.C,SW15*%
G36*
G01*
X102959891Y-118593925D02*
X102750670Y-118050447D01*
G75*
G02*
X103468135Y-116434822I1166545J449080D01*
G01*
X103468135Y-116434822D01*
G75*
G02*
X105083760Y-117152287I449080J-1166545D01*
G01*
X105292628Y-117694849D01*
G75*
G02*
X104575163Y-119310474I-1166545J-449080D01*
G01*
X104575163Y-119310474D01*
G75*
G02*
X102959538Y-118593009I-449080J1166545D01*
G01*
G37*
X99313172Y-119748267D03*
X99594543Y-120257021D03*
G36*
G01*
X98501268Y-120863033D02*
X98219317Y-120353229D01*
G75*
G02*
X98708211Y-118654411I1093856J604962D01*
G01*
X98708211Y-118654411D01*
G75*
G02*
X100407029Y-119143305I604962J-1093856D01*
G01*
X100688399Y-119652059D01*
G75*
G02*
X100199505Y-121350877I-1093856J-604962D01*
G01*
X100199505Y-121350877D01*
G75*
G02*
X98500687Y-120861983I-604962J1093856D01*
G01*
G37*
X106141677Y-119366663D03*
X104337391Y-118597083D03*
G36*
G01*
X101001863Y-121073550D02*
X100431635Y-122950394D01*
G75*
G02*
X98872240Y-123783033I-1196017J363378D01*
G01*
X98872240Y-123783033D01*
G75*
G02*
X98039601Y-122223638I363378J1196017D01*
G01*
X98609829Y-120346794D01*
G75*
G02*
X100169224Y-119514155I1196017J-363378D01*
G01*
X100169224Y-119514155D01*
G75*
G02*
X101001863Y-121073550I-363378J-1196017D01*
G01*
G37*
G36*
G01*
X104827814Y-117447300D02*
X106632096Y-118216892D01*
G75*
G02*
X107291452Y-119857090I-490421J-1149777D01*
G01*
X107291452Y-119857090D01*
G75*
G02*
X105651254Y-120516446I-1149777J490421D01*
G01*
X103846972Y-119746854D01*
G75*
G02*
X103187616Y-118106656I490421J1149777D01*
G01*
X103187616Y-118106656D01*
G75*
G02*
X104827814Y-117447300I1149777J-490421D01*
G01*
G37*
X99235612Y-122587014D03*
X99805852Y-120710175D03*
X103917216Y-117601366D03*
X104126082Y-118143929D03*
%TD*%
%TO.C,SW14*%
G36*
G01*
X179035724Y-87667481D02*
X179075639Y-87088678D01*
G75*
G02*
X180408676Y-85927639I1247038J-85999D01*
G01*
X180408676Y-85927639D01*
G75*
G02*
X181569715Y-87260676I-85999J-1247038D01*
G01*
X181529717Y-87840676D01*
G75*
G02*
X180196680Y-89001715I-1247038J85999D01*
G01*
X180196680Y-89001715D01*
G75*
G02*
X179035641Y-87668678I85999J1247038D01*
G01*
G37*
X175242678Y-87174677D03*
X175282678Y-87754677D03*
G36*
G01*
X174035722Y-87841873D02*
X173995641Y-87260676D01*
G75*
G02*
X175156680Y-85927639I1247038J85999D01*
G01*
X175156680Y-85927639D01*
G75*
G02*
X176489717Y-87088678I85999J-1247038D01*
G01*
X176529715Y-87668678D01*
G75*
G02*
X175368676Y-89001715I-1247038J-85999D01*
G01*
X175368676Y-89001715D01*
G75*
G02*
X174035639Y-87840676I-85999J1247038D01*
G01*
G37*
X181592678Y-89714677D03*
X180282678Y-88254677D03*
G36*
G01*
X176213062Y-89089464D02*
X174903072Y-90549472D01*
G75*
G02*
X173137892Y-90645070I-930389J834791D01*
G01*
X173137892Y-90645070D01*
G75*
G02*
X173042294Y-88879890I834791J930389D01*
G01*
X174352284Y-87419882D01*
G75*
G02*
X176117464Y-87324284I930389J-834791D01*
G01*
X176117464Y-87324284D01*
G75*
G02*
X176213062Y-89089464I-834791J-930389D01*
G01*
G37*
G36*
G01*
X181213072Y-87419882D02*
X182523062Y-88879890D01*
G75*
G02*
X182427464Y-90645070I-930389J-834791D01*
G01*
X182427464Y-90645070D01*
G75*
G02*
X180662284Y-90549472I-834791J930389D01*
G01*
X179352294Y-89089464D01*
G75*
G02*
X179447892Y-87324284I930389J834791D01*
G01*
X179447892Y-87324284D01*
G75*
G02*
X181213072Y-87419882I834791J-930389D01*
G01*
G37*
X173972678Y-89714677D03*
X175282678Y-88254677D03*
X180322678Y-87174677D03*
X180282678Y-87754677D03*
%TD*%
%TO.C,SW13*%
G36*
G01*
X179016351Y-68542036D02*
X179056266Y-67963233D01*
G75*
G02*
X180389303Y-66802194I1247038J-85999D01*
G01*
X180389303Y-66802194D01*
G75*
G02*
X181550342Y-68135231I-85999J-1247038D01*
G01*
X181510344Y-68715231D01*
G75*
G02*
X180177307Y-69876270I-1247038J85999D01*
G01*
X180177307Y-69876270D01*
G75*
G02*
X179016268Y-68543233I85999J1247038D01*
G01*
G37*
X175223305Y-68049232D03*
X175263305Y-68629232D03*
G36*
G01*
X174016349Y-68716428D02*
X173976268Y-68135231D01*
G75*
G02*
X175137307Y-66802194I1247038J85999D01*
G01*
X175137307Y-66802194D01*
G75*
G02*
X176470344Y-67963233I85999J-1247038D01*
G01*
X176510342Y-68543233D01*
G75*
G02*
X175349303Y-69876270I-1247038J-85999D01*
G01*
X175349303Y-69876270D01*
G75*
G02*
X174016266Y-68715231I-85999J1247038D01*
G01*
G37*
X181573305Y-70589232D03*
X180263305Y-69129232D03*
G36*
G01*
X176193689Y-69964019D02*
X174883699Y-71424027D01*
G75*
G02*
X173118519Y-71519625I-930389J834791D01*
G01*
X173118519Y-71519625D01*
G75*
G02*
X173022921Y-69754445I834791J930389D01*
G01*
X174332911Y-68294437D01*
G75*
G02*
X176098091Y-68198839I930389J-834791D01*
G01*
X176098091Y-68198839D01*
G75*
G02*
X176193689Y-69964019I-834791J-930389D01*
G01*
G37*
G36*
G01*
X181193699Y-68294437D02*
X182503689Y-69754445D01*
G75*
G02*
X182408091Y-71519625I-930389J-834791D01*
G01*
X182408091Y-71519625D01*
G75*
G02*
X180642911Y-71424027I-834791J930389D01*
G01*
X179332921Y-69964019D01*
G75*
G02*
X179428519Y-68198839I930389J834791D01*
G01*
X179428519Y-68198839D01*
G75*
G02*
X181193699Y-68294437I834791J-930389D01*
G01*
G37*
X173953305Y-70589232D03*
X175263305Y-69129232D03*
X180303305Y-68049232D03*
X180263305Y-68629232D03*
%TD*%
%TO.C,SW12*%
G36*
G01*
X179063261Y-49531409D02*
X179103176Y-48952606D01*
G75*
G02*
X180436213Y-47791567I1247038J-85999D01*
G01*
X180436213Y-47791567D01*
G75*
G02*
X181597252Y-49124604I-85999J-1247038D01*
G01*
X181557254Y-49704604D01*
G75*
G02*
X180224217Y-50865643I-1247038J85999D01*
G01*
X180224217Y-50865643D01*
G75*
G02*
X179063178Y-49532606I85999J1247038D01*
G01*
G37*
X175270215Y-49038605D03*
X175310215Y-49618605D03*
G36*
G01*
X174063259Y-49705801D02*
X174023178Y-49124604D01*
G75*
G02*
X175184217Y-47791567I1247038J85999D01*
G01*
X175184217Y-47791567D01*
G75*
G02*
X176517254Y-48952606I85999J-1247038D01*
G01*
X176557252Y-49532606D01*
G75*
G02*
X175396213Y-50865643I-1247038J-85999D01*
G01*
X175396213Y-50865643D01*
G75*
G02*
X174063176Y-49704604I-85999J1247038D01*
G01*
G37*
X181620215Y-51578605D03*
X180310215Y-50118605D03*
G36*
G01*
X176240599Y-50953392D02*
X174930609Y-52413400D01*
G75*
G02*
X173165429Y-52508998I-930389J834791D01*
G01*
X173165429Y-52508998D01*
G75*
G02*
X173069831Y-50743818I834791J930389D01*
G01*
X174379821Y-49283810D01*
G75*
G02*
X176145001Y-49188212I930389J-834791D01*
G01*
X176145001Y-49188212D01*
G75*
G02*
X176240599Y-50953392I-834791J-930389D01*
G01*
G37*
G36*
G01*
X181240609Y-49283810D02*
X182550599Y-50743818D01*
G75*
G02*
X182455001Y-52508998I-930389J-834791D01*
G01*
X182455001Y-52508998D01*
G75*
G02*
X180689821Y-52413400I-834791J930389D01*
G01*
X179379831Y-50953392D01*
G75*
G02*
X179475429Y-49188212I930389J834791D01*
G01*
X179475429Y-49188212D01*
G75*
G02*
X181240609Y-49283810I834791J-930389D01*
G01*
G37*
X174000215Y-51578605D03*
X175310215Y-50118605D03*
X180350215Y-49038605D03*
X180310215Y-49618605D03*
%TD*%
%TO.C,SW10*%
G36*
G01*
X123343702Y-111875409D02*
X123257069Y-111299528D01*
G75*
G02*
X124307213Y-109877488I1236092J185948D01*
G01*
X124307213Y-109877488D01*
G75*
G02*
X125729253Y-110927632I185948J-1236092D01*
G01*
X125815739Y-111502542D01*
G75*
G02*
X124765595Y-112924582I-1236092J-185948D01*
G01*
X124765595Y-112924582D01*
G75*
G02*
X123343555Y-111874438I-185948J1236092D01*
G01*
G37*
X119533579Y-112213094D03*
X119698166Y-112770688D03*
G36*
G01*
X118499640Y-113125707D02*
X118334714Y-112566963D01*
G75*
G02*
X119179710Y-111014229I1198865J353869D01*
G01*
X119179710Y-111014229D01*
G75*
G02*
X120732444Y-111859225I353869J-1198865D01*
G01*
X120897030Y-112416819D01*
G75*
G02*
X120052034Y-113969553I-1198865J-353869D01*
G01*
X120052034Y-113969553D01*
G75*
G02*
X118499300Y-113124557I-353869J1198865D01*
G01*
G37*
X126282815Y-113318494D03*
X124687866Y-112176638D03*
G36*
G01*
X120895398Y-113872463D02*
X119932462Y-115581397D01*
G75*
G02*
X118229815Y-116056784I-1089017J613630D01*
G01*
X118229815Y-116056784D01*
G75*
G02*
X117754428Y-114354137I613630J1089017D01*
G01*
X118717364Y-112645203D01*
G75*
G02*
X120420011Y-112169816I1089017J-613630D01*
G01*
X120420011Y-112169816D01*
G75*
G02*
X120895398Y-113872463I-613630J-1089017D01*
G01*
G37*
G36*
G01*
X125415523Y-111160257D02*
X127010465Y-112302123D01*
G75*
G02*
X127299187Y-114046153I-727654J-1016376D01*
G01*
X127299187Y-114046153D01*
G75*
G02*
X125555157Y-114334875I-1016376J727654D01*
G01*
X123960215Y-113193009D01*
G75*
G02*
X123671493Y-111448979I727654J1016376D01*
G01*
X123671493Y-111448979D01*
G75*
G02*
X125415523Y-111160257I1016376J-727654D01*
G01*
G37*
X118843440Y-114967764D03*
X119806386Y-113258836D03*
X124493163Y-111113581D03*
X124579646Y-111688490D03*
%TD*%
%TO.C,SW8*%
G36*
G01*
X198094081Y-78118526D02*
X198133996Y-77539723D01*
G75*
G02*
X199467033Y-76378684I1247038J-85999D01*
G01*
X199467033Y-76378684D01*
G75*
G02*
X200628072Y-77711721I-85999J-1247038D01*
G01*
X200588074Y-78291721D01*
G75*
G02*
X199255037Y-79452760I-1247038J85999D01*
G01*
X199255037Y-79452760D01*
G75*
G02*
X198093998Y-78119723I85999J1247038D01*
G01*
G37*
X194301035Y-77625722D03*
X194341035Y-78205722D03*
G36*
G01*
X193094079Y-78292918D02*
X193053998Y-77711721D01*
G75*
G02*
X194215037Y-76378684I1247038J85999D01*
G01*
X194215037Y-76378684D01*
G75*
G02*
X195548074Y-77539723I85999J-1247038D01*
G01*
X195588072Y-78119723D01*
G75*
G02*
X194427033Y-79452760I-1247038J-85999D01*
G01*
X194427033Y-79452760D01*
G75*
G02*
X193093996Y-78291721I-85999J1247038D01*
G01*
G37*
X200651035Y-80165722D03*
X199341035Y-78705722D03*
G36*
G01*
X195271419Y-79540509D02*
X193961429Y-81000517D01*
G75*
G02*
X192196249Y-81096115I-930389J834791D01*
G01*
X192196249Y-81096115D01*
G75*
G02*
X192100651Y-79330935I834791J930389D01*
G01*
X193410641Y-77870927D01*
G75*
G02*
X195175821Y-77775329I930389J-834791D01*
G01*
X195175821Y-77775329D01*
G75*
G02*
X195271419Y-79540509I-834791J-930389D01*
G01*
G37*
G36*
G01*
X200271429Y-77870927D02*
X201581419Y-79330935D01*
G75*
G02*
X201485821Y-81096115I-930389J-834791D01*
G01*
X201485821Y-81096115D01*
G75*
G02*
X199720641Y-81000517I-834791J930389D01*
G01*
X198410651Y-79540509D01*
G75*
G02*
X198506249Y-77775329I930389J834791D01*
G01*
X198506249Y-77775329D01*
G75*
G02*
X200271429Y-77870927I834791J-930389D01*
G01*
G37*
X193031035Y-80165722D03*
X194341035Y-78705722D03*
X199381035Y-77625722D03*
X199341035Y-78205722D03*
%TD*%
%TO.C,SW7*%
G36*
G01*
X198050433Y-59083624D02*
X198090348Y-58504821D01*
G75*
G02*
X199423385Y-57343782I1247038J-85999D01*
G01*
X199423385Y-57343782D01*
G75*
G02*
X200584424Y-58676819I-85999J-1247038D01*
G01*
X200544426Y-59256819D01*
G75*
G02*
X199211389Y-60417858I-1247038J85999D01*
G01*
X199211389Y-60417858D01*
G75*
G02*
X198050350Y-59084821I85999J1247038D01*
G01*
G37*
X194257387Y-58590820D03*
X194297387Y-59170820D03*
G36*
G01*
X193050431Y-59258016D02*
X193010350Y-58676819D01*
G75*
G02*
X194171389Y-57343782I1247038J85999D01*
G01*
X194171389Y-57343782D01*
G75*
G02*
X195504426Y-58504821I85999J-1247038D01*
G01*
X195544424Y-59084821D01*
G75*
G02*
X194383385Y-60417858I-1247038J-85999D01*
G01*
X194383385Y-60417858D01*
G75*
G02*
X193050348Y-59256819I-85999J1247038D01*
G01*
G37*
X200607387Y-61130820D03*
X199297387Y-59670820D03*
G36*
G01*
X195227771Y-60505607D02*
X193917781Y-61965615D01*
G75*
G02*
X192152601Y-62061213I-930389J834791D01*
G01*
X192152601Y-62061213D01*
G75*
G02*
X192057003Y-60296033I834791J930389D01*
G01*
X193366993Y-58836025D01*
G75*
G02*
X195132173Y-58740427I930389J-834791D01*
G01*
X195132173Y-58740427D01*
G75*
G02*
X195227771Y-60505607I-834791J-930389D01*
G01*
G37*
G36*
G01*
X200227781Y-58836025D02*
X201537771Y-60296033D01*
G75*
G02*
X201442173Y-62061213I-930389J-834791D01*
G01*
X201442173Y-62061213D01*
G75*
G02*
X199676993Y-61965615I-834791J930389D01*
G01*
X198367003Y-60505607D01*
G75*
G02*
X198462601Y-58740427I930389J834791D01*
G01*
X198462601Y-58740427D01*
G75*
G02*
X200227781Y-58836025I834791J-930389D01*
G01*
G37*
X192987387Y-61130820D03*
X194297387Y-59670820D03*
X199337387Y-58590820D03*
X199297387Y-59170820D03*
%TD*%
D11*
%TO.C,H6*%
X86605654Y-119133530D03*
%TD*%
%TO.C,H5*%
X139685269Y-65463330D03*
%TD*%
%TO.C,H4*%
X101515454Y-58783130D03*
%TD*%
%TO.C,H3*%
X139685269Y-106331930D03*
%TD*%
%TO.C,H2*%
X177782678Y-63482130D03*
%TD*%
%TO.C,H1*%
X177782678Y-106331929D03*
%TD*%
D12*
%TO.C,U1*%
X106468454Y-50109031D03*
X106468454Y-52649031D03*
X106468454Y-55189031D03*
X106468454Y-57729031D03*
X106468454Y-60269031D03*
X106468454Y-62809031D03*
X106468454Y-65349031D03*
X106468454Y-67889031D03*
X106468454Y-70429031D03*
X106468454Y-72969031D03*
X106468454Y-75509031D03*
X106468454Y-78049031D03*
X91228454Y-78049031D03*
X91228454Y-75509031D03*
X91228454Y-72969031D03*
X91228454Y-70429031D03*
X91228454Y-67889031D03*
X91228454Y-65349031D03*
X91228454Y-62809031D03*
X91228454Y-60269031D03*
X91228454Y-57729031D03*
X91228454Y-55189031D03*
X91228454Y-52649031D03*
D13*
X91228454Y-50109031D03*
%TD*%
D14*
%TO.C,J2*%
X82375254Y-55189330D03*
D15*
X84675254Y-50589330D03*
X84675254Y-57589330D03*
D14*
X82375254Y-52189330D03*
X82375254Y-59189330D03*
X86975254Y-60289330D03*
%TD*%
D16*
%TO.C,RE1*%
X87215254Y-101150330D03*
D10*
X87215254Y-103650330D03*
X87215254Y-106150330D03*
D17*
X94715254Y-98050330D03*
X94715254Y-109250330D03*
D10*
X101715254Y-101150330D03*
X101715254Y-106150330D03*
%TD*%
D13*
%TO.C,D_RE1*%
X90935254Y-112834330D03*
D12*
X98735254Y-112834330D03*
D18*
X93435254Y-112834330D03*
X96235254Y-112834330D03*
%TD*%
D19*
%TO.C,RST2*%
X86652255Y-71611330D03*
X86652255Y-65411330D03*
X82952255Y-71611330D03*
X82952255Y-65411330D03*
%TD*%
D20*
%TO.C,PWM_PAD1*%
X110964255Y-65463330D03*
X110964255Y-62923330D03*
X110964255Y-60383330D03*
%TD*%
D14*
%TO.C,J1*%
X86975255Y-55153330D03*
D15*
X84675255Y-50553330D03*
X84675255Y-57553330D03*
D14*
X86975255Y-52153330D03*
X86975255Y-59153330D03*
X82375255Y-60253330D03*
%TD*%
D13*
%TO.C,D8*%
X187427675Y-78805722D03*
D12*
X187427675Y-86605722D03*
D21*
X187427675Y-81305722D03*
X187427675Y-84105722D03*
%TD*%
D13*
%TO.C,D28*%
X111199500Y-96330970D03*
D12*
X111199500Y-104130970D03*
D21*
X111199500Y-98830970D03*
X111199500Y-101630970D03*
%TD*%
D13*
%TO.C,D27*%
X111107333Y-77477191D03*
D12*
X111107333Y-85277191D03*
D21*
X111107333Y-79977191D03*
X111107333Y-82777191D03*
%TD*%
D13*
%TO.C,D26*%
X117325855Y-66022130D03*
D12*
X125125855Y-66022130D03*
D18*
X119825855Y-66022130D03*
X122625855Y-66022130D03*
%TD*%
D13*
%TO.C,D24*%
X130211863Y-94922492D03*
D12*
X130211863Y-102722492D03*
D21*
X130211863Y-97422492D03*
X130211863Y-100222492D03*
%TD*%
D13*
%TO.C,D23*%
X130373603Y-75845570D03*
D12*
X130373603Y-83645570D03*
D21*
X130373603Y-78345570D03*
X130373603Y-81145570D03*
%TD*%
D13*
%TO.C,D22*%
X130221646Y-56490485D03*
D12*
X130221646Y-64290485D03*
D21*
X130221646Y-58990485D03*
X130221646Y-61790485D03*
%TD*%
D22*
%TO.C,D20*%
G36*
X78723777Y-136176927D02*
G01*
X77454411Y-137150945D01*
X76480393Y-135881579D01*
X77749759Y-134907561D01*
X78723777Y-136176927D01*
G37*
D12*
X82350425Y-142217409D03*
D22*
G36*
X81791542Y-140503452D02*
G01*
X80839518Y-141233966D01*
X79865500Y-139964600D01*
X80817524Y-139234086D01*
X81791542Y-140503452D01*
G37*
G36*
X80087010Y-138282062D02*
G01*
X79134986Y-139012576D01*
X78160968Y-137743210D01*
X79112992Y-137012696D01*
X80087010Y-138282062D01*
G37*
%TD*%
D13*
%TO.C,D19*%
X149396657Y-89050318D03*
D12*
X149396657Y-96850318D03*
D21*
X149396657Y-91550318D03*
X149396657Y-94350318D03*
%TD*%
D13*
%TO.C,D18*%
X149191255Y-69945330D03*
D12*
X149191255Y-77745330D03*
D21*
X149191255Y-72445330D03*
X149191255Y-75245330D03*
%TD*%
D13*
%TO.C,D17*%
X149191254Y-53308330D03*
D12*
X149191254Y-61108330D03*
D21*
X149191254Y-55808330D03*
X149191254Y-58608330D03*
%TD*%
D22*
%TO.C,D15*%
G36*
X94885184Y-124799682D02*
G01*
X93435091Y-125475871D01*
X92758902Y-124025778D01*
X94208995Y-123349589D01*
X94885184Y-124799682D01*
G37*
D12*
X97118465Y-131481930D03*
D22*
G36*
X96943799Y-129687636D02*
G01*
X95856230Y-130194778D01*
X95180041Y-128744686D01*
X96267610Y-128237544D01*
X96943799Y-129687636D01*
G37*
G36*
X95760467Y-127149974D02*
G01*
X94672898Y-127657116D01*
X93996709Y-126207024D01*
X95084278Y-125699882D01*
X95760467Y-127149974D01*
G37*
%TD*%
D13*
%TO.C,D14*%
X168320664Y-92516290D03*
D12*
X168320664Y-100316290D03*
D21*
X168320664Y-95016290D03*
X168320664Y-97816290D03*
%TD*%
D13*
%TO.C,D13*%
X168349819Y-73209728D03*
D12*
X168349819Y-81009728D03*
D21*
X168349819Y-75709728D03*
X168349819Y-78509728D03*
%TD*%
D13*
%TO.C,D12*%
X168349818Y-53867130D03*
D12*
X168349818Y-61667130D03*
D21*
X168349818Y-56367130D03*
X168349818Y-59167130D03*
%TD*%
D22*
%TO.C,D10*%
G36*
X114122328Y-115984660D02*
G01*
X112560255Y-116330963D01*
X112213952Y-114768890D01*
X113776025Y-114422587D01*
X114122328Y-115984660D01*
G37*
D12*
X114856368Y-122991883D03*
D22*
G36*
X115074198Y-121202316D02*
G01*
X113902643Y-121462044D01*
X113556340Y-119899970D01*
X114727895Y-119640242D01*
X115074198Y-121202316D01*
G37*
G36*
X114468168Y-118468688D02*
G01*
X113296613Y-118728416D01*
X112950310Y-117166342D01*
X114121865Y-116906614D01*
X114468168Y-118468688D01*
G37*
%TD*%
D13*
%TO.C,D9*%
X187427675Y-97840622D03*
D12*
X187427675Y-105640622D03*
D21*
X187427675Y-100340622D03*
X187427675Y-103140622D03*
%TD*%
D13*
%TO.C,D7*%
X187427675Y-62501302D03*
D12*
X187427675Y-70301302D03*
D21*
X187427675Y-65001302D03*
X187427675Y-67801302D03*
%TD*%
D23*
%TO.C,JP5*%
X102607654Y-82219710D03*
X102607654Y-81320550D03*
%TD*%
%TO.C,JP8*%
X95114655Y-82219711D03*
X95114655Y-81320551D03*
%TD*%
%TO.C,JP7*%
X97400655Y-82219711D03*
X97400655Y-81320551D03*
%TD*%
%TO.C,JP6*%
X100067654Y-82219711D03*
X100067654Y-81320551D03*
%TD*%
D24*
%TO.C,J3*%
X95089254Y-85148330D03*
X97629254Y-85148330D03*
X100169254Y-85148330D03*
X102709254Y-85148330D03*
%TD*%
M02*
