M48
; DRILL file {KiCad (5.1.7)-1} date 07/25/21 23:49:16
; FORMAT={-:-/ absolute / metric / decimal}
; #@! TF.CreationDate,2021-07-25T23:49:16+05:30
; #@! TF.GenerationSoftware,Kicad,Pcbnew,(5.1.7)-1
; #@! TF.FileFunction,NonPlated,1,2,NPTH
FMAT,2
METRIC
T1C0.800
T2C1.800
T3C2.200
T4C3.988
%
G90
G05
T1
X84.675Y-50.589
X84.675Y-57.589
X84.675Y-50.553
X84.675Y-57.553
T2
X134.652Y-56.048
X144.812Y-56.048
X115.518Y-57.909
X125.678Y-57.909
X115.562Y-76.944
X125.722Y-76.944
X172.703Y-92.255
X182.863Y-92.255
X99.158Y-125.426
X108.366Y-121.132
X153.642Y-88.409
X163.802Y-88.409
X153.67Y-50.273
X163.83Y-50.273
X134.649Y-94.093
X144.809Y-94.093
X191.805Y-101.741
X201.965Y-101.741
X191.761Y-82.706
X201.921Y-82.706
X118.153Y-117.722
X128.072Y-115.523
X191.717Y-63.671
X201.877Y-63.671
X153.689Y-69.399
X163.849Y-69.399
X172.683Y-73.129
X182.843Y-73.129
X115.582Y-96.069
X125.742Y-96.069
X82.248Y-136.925
X90.309Y-130.74
X172.73Y-54.119
X182.89Y-54.119
X134.605Y-75.058
X144.765Y-75.058
T3
X101.515Y-58.783
X177.783Y-63.482
X139.685Y-65.463
X86.606Y-119.134
X177.783Y-106.332
X139.685Y-106.332
T4
X103.762Y-123.279
X158.722Y-88.409
X158.75Y-50.273
X139.729Y-94.093
X196.885Y-101.741
X196.841Y-82.706
X123.113Y-116.623
X196.797Y-63.671
X158.769Y-69.399
X177.763Y-73.129
X120.662Y-96.069
X86.279Y-133.832
X177.81Y-54.119
X139.685Y-75.058
X139.732Y-56.048
X120.598Y-57.909
X120.642Y-76.944
X177.783Y-92.255
T0
M30
