<?xml version="1.0" standalone="no"?>
 <!DOCTYPE svg PUBLIC "-//W3C//DTD SVG 1.1//EN" 
 "http://www.w3.org/Graphics/SVG/1.1/DTD/svg11.dtd"> 
<svg
  xmlns:svg="http://www.w3.org/2000/svg"
  xmlns="http://www.w3.org/2000/svg"
  xmlns:xlink="http://www.w3.org/1999/xlink"
  version="1.1"
  width="14.010640cm" height="10.810240cm" viewBox="0 0 55160 42560">
<title>SVG Picture created as Pteron56v0-brd.svg date 2021/04/13 17:14:45 </title>
  <desc>Picture generated by PCBNEW </desc>
<g style="fill:#000000; fill-opacity:1;stroke:#000000; stroke-opacity:1;
stroke-linecap:round; stroke-linejoin:round;"
 transform="translate(0 0) scale(1 1)">
</g>
<g style="fill:#000000; fill-opacity:0.0; 
stroke:#000000; stroke-width:-0.000393701; stroke-opacity:1; 
stroke-linecap:round; stroke-linejoin:round;">
</g>
<g style="fill:#000000; fill-opacity:0.0; 
stroke:#000000; stroke-width:59.0551; stroke-opacity:1; 
stroke-linecap:round; stroke-linejoin:round;">
<g transform="rotate(-180 20562.1 25339.8)">
<text x="20562.1" y="25536.7"
textLength="7720.75" font-size="524.934" lengthAdjust="spacingAndGlyphs"
text-anchor="middle" opacity="0">github.com/kraken-jokes</text>
</g>
<path d="M24096 25424
L24096 25105
L24114 25068
L24133 25049
L24170 25030
L24227 25030
L24264 25049
" />
<path d="M24096 25180
L24133 25161
L24208 25161
L24245 25180
L24264 25199
L24283 25236
L24283 25349
L24264 25386
L24245 25405
L24208 25424
L24133 25424
L24096 25405
" />
<path d="M23908 25161
L23908 25424
" />
<path d="M23908 25555
L23927 25536
L23908 25517
L23889 25536
L23908 25555
L23908 25517
" />
<path d="M23777 25424
L23627 25424
" />
<path d="M23721 25555
L23721 25217
L23702 25180
L23664 25161
L23627 25161
" />
<path d="M23496 25161
L23496 25555
" />
<path d="M23327 25161
L23327 25367
L23346 25405
L23383 25424
L23439 25424
L23477 25405
L23496 25386
" />
<path d="M22971 25424
L22971 25161
" />
<path d="M23139 25424
L23139 25217
L23121 25180
L23083 25161
L23027 25161
L22989 25180
L22971 25199
" />
<path d="M22783 25161
L22783 25555
" />
<path d="M22783 25405
L22746 25424
L22671 25424
L22633 25405
L22614 25386
L22596 25349
L22596 25236
L22614 25199
L22633 25180
L22671 25161
L22746 25161
L22783 25180
" />
<path d="M22427 25199
L22408 25180
L22427 25161
L22446 25180
L22427 25199
L22427 25161
" />
<path d="M22071 25180
L22108 25161
L22183 25161
L22221 25180
L22239 25199
L22258 25236
L22258 25349
L22239 25386
L22221 25405
L22183 25424
L22108 25424
L22071 25405
" />
<path d="M21846 25161
L21883 25180
L21902 25199
L21921 25236
L21921 25349
L21902 25386
L21883 25405
L21846 25424
L21790 25424
L21752 25405
L21733 25386
L21715 25349
L21715 25236
L21733 25199
L21752 25180
L21790 25161
L21846 25161
" />
<path d="M21546 25161
L21546 25424
" />
<path d="M21546 25386
L21527 25405
L21490 25424
L21433 25424
L21396 25405
L21377 25367
L21377 25161
" />
<path d="M21377 25367
L21358 25405
L21321 25424
L21265 25424
L21227 25405
L21208 25367
L21208 25161
" />
<path d="M20740 25574
L21077 25068
" />
<path d="M20608 25161
L20608 25555
" />
<path d="M20571 25311
L20458 25161
" />
<path d="M20458 25424
L20608 25274
" />
<path d="M20290 25161
L20290 25424
" />
<path d="M20290 25349
L20271 25386
L20252 25405
L20215 25424
L20177 25424
" />
<path d="M19877 25161
L19877 25367
L19896 25405
L19934 25424
L20009 25424
L20046 25405
" />
<path d="M19877 25180
L19915 25161
L20009 25161
L20046 25180
L20065 25217
L20065 25255
L20046 25292
L20009 25311
L19915 25311
L19877 25330
" />
<path d="M19690 25161
L19690 25555
" />
<path d="M19652 25311
L19540 25161
" />
<path d="M19540 25424
L19690 25274
" />
<path d="M19221 25180
L19259 25161
L19334 25161
L19371 25180
L19390 25217
L19390 25367
L19371 25405
L19334 25424
L19259 25424
L19221 25405
L19202 25367
L19202 25330
L19390 25292
" />
<path d="M19034 25424
L19034 25161
" />
<path d="M19034 25386
L19015 25405
L18977 25424
L18921 25424
L18884 25405
L18865 25367
L18865 25161
" />
<path d="M18677 25311
L18377 25311
" />
<path d="M18190 25424
L18190 25086
L18209 25049
L18246 25030
L18265 25030
" />
<path d="M18190 25555
L18209 25536
L18190 25517
L18171 25536
L18190 25555
L18190 25517
" />
<path d="M17946 25161
L17984 25180
L18003 25199
L18021 25236
L18021 25349
L18003 25386
L17984 25405
L17946 25424
L17890 25424
L17853 25405
L17834 25386
L17815 25349
L17815 25236
L17834 25199
L17853 25180
L17890 25161
L17946 25161
" />
<path d="M17646 25161
L17646 25555
" />
<path d="M17609 25311
L17496 25161
" />
<path d="M17496 25424
L17646 25274
" />
<path d="M17178 25180
L17215 25161
L17290 25161
L17328 25180
L17346 25217
L17346 25367
L17328 25405
L17290 25424
L17215 25424
L17178 25405
L17159 25367
L17159 25330
L17346 25292
" />
<path d="M17009 25180
L16971 25161
L16896 25161
L16859 25180
L16840 25217
L16840 25236
L16859 25274
L16896 25292
L16953 25292
L16990 25311
L17009 25349
L17009 25367
L16990 25405
L16953 25424
L16896 25424
L16859 25405
" />
<g transform="rotate(-180 20842.1 26689.8)">
<text x="20842.1" y="26886.7"
textLength="9300.62" font-size="524.934" lengthAdjust="spacingAndGlyphs"
text-anchor="middle" opacity="0">facebook.com/moorekeyboards</text>
</g>
<path d="M25416 26774
L25266 26774
" />
<path d="M25360 26511
L25360 26849
L25341 26886
L25304 26905
L25266 26905
" />
<path d="M24966 26511
L24966 26717
L24985 26755
L25022 26774
L25097 26774
L25135 26755
" />
<path d="M24966 26530
L25004 26511
L25097 26511
L25135 26530
L25154 26567
L25154 26605
L25135 26642
L25097 26661
L25004 26661
L24966 26680
" />
<path d="M24610 26530
L24647 26511
L24722 26511
L24760 26530
L24779 26549
L24797 26586
L24797 26699
L24779 26736
L24760 26755
L24722 26774
L24647 26774
L24610 26755
" />
<path d="M24291 26530
L24329 26511
L24404 26511
L24441 26530
L24460 26567
L24460 26717
L24441 26755
L24404 26774
L24329 26774
L24291 26755
L24272 26717
L24272 26680
L24460 26642
" />
<path d="M24104 26511
L24104 26905
" />
<path d="M24104 26755
L24066 26774
L23991 26774
L23954 26755
L23935 26736
L23916 26699
L23916 26586
L23935 26549
L23954 26530
L23991 26511
L24066 26511
L24104 26530
" />
<path d="M23691 26511
L23729 26530
L23747 26549
L23766 26586
L23766 26699
L23747 26736
L23729 26755
L23691 26774
L23635 26774
L23597 26755
L23579 26736
L23560 26699
L23560 26586
L23579 26549
L23597 26530
L23635 26511
L23691 26511
" />
<path d="M23335 26511
L23373 26530
L23391 26549
L23410 26586
L23410 26699
L23391 26736
L23373 26755
L23335 26774
L23279 26774
L23241 26755
L23223 26736
L23204 26699
L23204 26586
L23223 26549
L23241 26530
L23279 26511
L23335 26511
" />
<path d="M23035 26511
L23035 26905
" />
<path d="M22998 26661
L22885 26511
" />
<path d="M22885 26774
L23035 26624
" />
<path d="M22716 26549
L22698 26530
L22716 26511
L22735 26530
L22716 26549
L22716 26511
" />
<path d="M22360 26530
L22398 26511
L22473 26511
L22510 26530
L22529 26549
L22548 26586
L22548 26699
L22529 26736
L22510 26755
L22473 26774
L22398 26774
L22360 26755
" />
<path d="M22135 26511
L22173 26530
L22191 26549
L22210 26586
L22210 26699
L22191 26736
L22173 26755
L22135 26774
L22079 26774
L22041 26755
L22023 26736
L22004 26699
L22004 26586
L22023 26549
L22041 26530
L22079 26511
L22135 26511
" />
<path d="M21835 26511
L21835 26774
" />
<path d="M21835 26736
L21816 26755
L21779 26774
L21723 26774
L21685 26755
L21666 26717
L21666 26511
" />
<path d="M21666 26717
L21648 26755
L21610 26774
L21554 26774
L21516 26755
L21498 26717
L21498 26511
" />
<path d="M21029 26924
L21367 26418
" />
<path d="M20898 26511
L20898 26774
" />
<path d="M20898 26736
L20879 26755
L20842 26774
L20785 26774
L20748 26755
L20729 26717
L20729 26511
" />
<path d="M20729 26717
L20710 26755
L20673 26774
L20617 26774
L20579 26755
L20560 26717
L20560 26511
" />
<path d="M20317 26511
L20354 26530
L20373 26549
L20392 26586
L20392 26699
L20373 26736
L20354 26755
L20317 26774
L20260 26774
L20223 26755
L20204 26736
L20185 26699
L20185 26586
L20204 26549
L20223 26530
L20260 26511
L20317 26511
" />
<path d="M19960 26511
L19998 26530
L20017 26549
L20035 26586
L20035 26699
L20017 26736
L19998 26755
L19960 26774
L19904 26774
L19867 26755
L19848 26736
L19829 26699
L19829 26586
L19848 26549
L19867 26530
L19904 26511
L19960 26511
" />
<path d="M19660 26511
L19660 26774
" />
<path d="M19660 26699
L19642 26736
L19623 26755
L19585 26774
L19548 26774
" />
<path d="M19267 26530
L19304 26511
L19379 26511
L19417 26530
L19435 26567
L19435 26717
L19417 26755
L19379 26774
L19304 26774
L19267 26755
L19248 26717
L19248 26680
L19435 26642
" />
<path d="M19079 26511
L19079 26905
" />
<path d="M19042 26661
L18929 26511
" />
<path d="M18929 26774
L19079 26624
" />
<path d="M18611 26530
L18648 26511
L18723 26511
L18761 26530
L18779 26567
L18779 26717
L18761 26755
L18723 26774
L18648 26774
L18611 26755
L18592 26717
L18592 26680
L18779 26642
" />
<path d="M18461 26774
L18367 26511
" />
<path d="M18273 26774
L18367 26511
L18404 26418
L18423 26399
L18461 26380
" />
<path d="M18123 26511
L18123 26905
" />
<path d="M18123 26755
L18086 26774
L18011 26774
L17973 26755
L17954 26736
L17936 26699
L17936 26586
L17954 26549
L17973 26530
L18011 26511
L18086 26511
L18123 26530
" />
<path d="M17711 26511
L17748 26530
L17767 26549
L17786 26586
L17786 26699
L17767 26736
L17748 26755
L17711 26774
L17654 26774
L17617 26755
L17598 26736
L17579 26699
L17579 26586
L17598 26549
L17617 26530
L17654 26511
L17711 26511
" />
<path d="M17242 26511
L17242 26717
L17261 26755
L17298 26774
L17373 26774
L17411 26755
" />
<path d="M17242 26530
L17280 26511
L17373 26511
L17411 26530
L17429 26567
L17429 26605
L17411 26642
L17373 26661
L17280 26661
L17242 26680
" />
<path d="M17055 26511
L17055 26774
" />
<path d="M17055 26699
L17036 26736
L17017 26755
L16980 26774
L16942 26774
" />
<path d="M16642 26511
L16642 26905
" />
<path d="M16642 26530
L16680 26511
L16755 26511
L16792 26530
L16811 26549
L16830 26586
L16830 26699
L16811 26736
L16792 26755
L16755 26774
L16680 26774
L16642 26755
" />
<path d="M16473 26530
L16436 26511
L16361 26511
L16323 26530
L16305 26567
L16305 26586
L16323 26624
L16361 26642
L16417 26642
L16455 26661
L16473 26699
L16473 26717
L16455 26755
L16417 26774
L16361 26774
L16323 26755
" />
<text x="37277.1" y="27206.7"
textLength="10912.9" font-size="524.934" lengthAdjust="spacingAndGlyphs"
text-anchor="middle" opacity="0">github.com/FSund/pteron-keyboard</text>
<path d="M32121 26925
L32121 27244
L32102 27281
L32083 27300
L32046 27319
L31990 27319
L31952 27300
" />
<path d="M32121 27169
L32083 27187
L32008 27187
L31971 27169
L31952 27150
L31933 27112
L31933 27000
L31952 26962
L31971 26944
L32008 26925
L32083 26925
L32121 26944
" />
<path d="M32308 27187
L32308 26925
" />
<path d="M32308 26794
L32290 26812
L32308 26831
L32327 26812
L32308 26794
L32308 26831
" />
<path d="M32440 26925
L32590 26925
" />
<path d="M32496 26794
L32496 27131
L32515 27169
L32552 27187
L32590 27187
" />
<path d="M32721 27187
L32721 26794
" />
<path d="M32890 27187
L32890 26981
L32871 26944
L32833 26925
L32777 26925
L32740 26944
L32721 26962
" />
<path d="M33246 26925
L33246 27187
" />
<path d="M33077 26925
L33077 27131
L33096 27169
L33133 27187
L33190 27187
L33227 27169
L33246 27150
" />
<path d="M33433 27187
L33433 26794
" />
<path d="M33433 26944
L33471 26925
L33546 26925
L33583 26944
L33602 26962
L33621 27000
L33621 27112
L33602 27150
L33583 27169
L33546 27187
L33471 27187
L33433 27169
" />
<path d="M33790 27150
L33808 27169
L33790 27187
L33771 27169
L33790 27150
L33790 27187
" />
<path d="M34146 27169
L34108 27187
L34033 27187
L33996 27169
L33977 27150
L33958 27112
L33958 27000
L33977 26962
L33996 26944
L34033 26925
L34108 26925
L34146 26944
" />
<path d="M34371 27187
L34333 27169
L34314 27150
L34296 27112
L34296 27000
L34314 26962
L34333 26944
L34371 26925
L34427 26925
L34464 26944
L34483 26962
L34502 27000
L34502 27112
L34483 27150
L34464 27169
L34427 27187
L34371 27187
" />
<path d="M34671 27187
L34671 26925
" />
<path d="M34671 26962
L34689 26944
L34727 26925
L34783 26925
L34821 26944
L34839 26981
L34839 27187
" />
<path d="M34839 26981
L34858 26944
L34896 26925
L34952 26925
L34989 26944
L35008 26981
L35008 27187
" />
<path d="M35477 26775
L35139 27281
" />
<path d="M35739 26981
L35608 26981
" />
<path d="M35608 27187
L35608 26794
L35796 26794
" />
<path d="M35927 27169
L35983 27187
L36077 27187
L36114 27169
L36133 27150
L36152 27112
L36152 27075
L36133 27037
L36114 27019
L36077 27000
L36002 26981
L35964 26962
L35945 26944
L35927 26906
L35927 26869
L35945 26831
L35964 26812
L36002 26794
L36095 26794
L36152 26812
" />
<path d="M36489 26925
L36489 27187
" />
<path d="M36320 26925
L36320 27131
L36339 27169
L36377 27187
L36433 27187
L36470 27169
L36489 27150
" />
<path d="M36677 26925
L36677 27187
" />
<path d="M36677 26962
L36695 26944
L36733 26925
L36789 26925
L36827 26944
L36845 26981
L36845 27187
" />
<path d="M37202 27187
L37202 26794
" />
<path d="M37202 27169
L37164 27187
L37089 27187
L37052 27169
L37033 27150
L37014 27112
L37014 27000
L37033 26962
L37052 26944
L37089 26925
L37164 26925
L37202 26944
" />
<path d="M37670 26775
L37333 27281
" />
<path d="M37802 26925
L37802 27319
" />
<path d="M37802 26944
L37839 26925
L37914 26925
L37951 26944
L37970 26962
L37989 27000
L37989 27112
L37970 27150
L37951 27169
L37914 27187
L37839 27187
L37802 27169
" />
<path d="M38101 26925
L38251 26925
" />
<path d="M38158 26794
L38158 27131
L38176 27169
L38214 27187
L38251 27187
" />
<path d="M38533 27169
L38495 27187
L38420 27187
L38383 27169
L38364 27131
L38364 26981
L38383 26944
L38420 26925
L38495 26925
L38533 26944
L38551 26981
L38551 27019
L38364 27056
" />
<path d="M38720 27187
L38720 26925
" />
<path d="M38720 27000
L38739 26962
L38758 26944
L38795 26925
L38833 26925
" />
<path d="M39020 27187
L38983 27169
L38964 27150
L38945 27112
L38945 27000
L38964 26962
L38983 26944
L39020 26925
L39076 26925
L39114 26944
L39133 26962
L39151 27000
L39151 27112
L39133 27150
L39114 27169
L39076 27187
L39020 27187
" />
<path d="M39320 26925
L39320 27187
" />
<path d="M39320 26962
L39339 26944
L39376 26925
L39433 26925
L39470 26944
L39489 26981
L39489 27187
" />
<path d="M39676 27037
L39976 27037
" />
<path d="M40164 27187
L40164 26794
" />
<path d="M40201 27037
L40314 27187
" />
<path d="M40314 26925
L40164 27075
" />
<path d="M40632 27169
L40595 27187
L40520 27187
L40482 27169
L40464 27131
L40464 26981
L40482 26944
L40520 26925
L40595 26925
L40632 26944
L40651 26981
L40651 27019
L40464 27056
" />
<path d="M40782 26925
L40876 27187
" />
<path d="M40970 26925
L40876 27187
L40839 27281
L40820 27300
L40782 27319
" />
<path d="M41120 27187
L41120 26794
" />
<path d="M41120 26944
L41157 26925
L41232 26925
L41270 26944
L41289 26962
L41307 27000
L41307 27112
L41289 27150
L41270 27169
L41232 27187
L41157 27187
L41120 27169
" />
<path d="M41532 27187
L41495 27169
L41476 27150
L41457 27112
L41457 27000
L41476 26962
L41495 26944
L41532 26925
L41589 26925
L41626 26944
L41645 26962
L41664 27000
L41664 27112
L41645 27150
L41626 27169
L41589 27187
L41532 27187
" />
<path d="M42001 27187
L42001 26981
L41982 26944
L41945 26925
L41870 26925
L41832 26944
" />
<path d="M42001 27169
L41963 27187
L41870 27187
L41832 27169
L41814 27131
L41814 27094
L41832 27056
L41870 27037
L41963 27037
L42001 27019
" />
<path d="M42188 27187
L42188 26925
" />
<path d="M42188 27000
L42207 26962
L42226 26944
L42263 26925
L42301 26925
" />
<path d="M42601 27187
L42601 26794
" />
<path d="M42601 27169
L42563 27187
L42488 27187
L42451 27169
L42432 27150
L42413 27112
L42413 27000
L42432 26962
L42451 26944
L42488 26925
L42563 26925
L42601 26944
" />
</g>
<g style="fill:#000000; fill-opacity:0.0; 
stroke:#000000; stroke-width:98.4252; stroke-opacity:1; 
stroke-linecap:round; stroke-linejoin:round;">
<text x="37127.1" y="25213"
textLength="7444.6" font-size="787.402" lengthAdjust="spacingAndGlyphs"
text-anchor="middle" opacity="0">Pteron Keyboard</text>
<path d="M33583 25184
L33583 24594
L33808 24594
L33864 24622
L33893 24650
L33921 24706
L33921 24791
L33893 24847
L33864 24875
L33808 24903
L33583 24903
" />
<path d="M34089 24791
L34314 24791
" />
<path d="M34174 24594
L34174 25100
L34202 25156
L34258 25184
L34314 25184
" />
<path d="M34736 25156
L34680 25184
L34568 25184
L34511 25156
L34483 25100
L34483 24875
L34511 24819
L34568 24791
L34680 24791
L34736 24819
L34764 24875
L34764 24931
L34483 24988
" />
<path d="M35017 25184
L35017 24791
" />
<path d="M35017 24903
L35046 24847
L35074 24819
L35130 24791
L35186 24791
" />
<path d="M35467 25184
L35411 25156
L35383 25128
L35355 25072
L35355 24903
L35383 24847
L35411 24819
L35467 24791
L35552 24791
L35608 24819
L35636 24847
L35664 24903
L35664 25072
L35636 25128
L35608 25156
L35552 25184
L35467 25184
" />
<path d="M35917 24791
L35917 25184
" />
<path d="M35917 24847
L35945 24819
L36002 24791
L36086 24791
L36142 24819
L36170 24875
L36170 25184
" />
<path d="M36902 25184
L36902 24594
" />
<path d="M37239 25184
L36986 24847
" />
<path d="M37239 24594
L36902 24931
" />
<path d="M37717 25156
L37661 25184
L37548 25184
L37492 25156
L37464 25100
L37464 24875
L37492 24819
L37548 24791
L37661 24791
L37717 24819
L37745 24875
L37745 24931
L37464 24988
" />
<path d="M37942 24791
L38083 25184
" />
<path d="M38223 24791
L38083 25184
L38026 25325
L37998 25353
L37942 25381
" />
<path d="M38448 25184
L38448 24594
" />
<path d="M38448 24819
L38505 24791
L38617 24791
L38673 24819
L38701 24847
L38729 24903
L38729 25072
L38701 25128
L38673 25156
L38617 25184
L38505 25184
L38448 25156
" />
<path d="M39067 25184
L39011 25156
L38983 25128
L38954 25072
L38954 24903
L38983 24847
L39011 24819
L39067 24791
L39151 24791
L39208 24819
L39236 24847
L39264 24903
L39264 25072
L39236 25128
L39208 25156
L39151 25184
L39067 25184
" />
<path d="M39770 25184
L39770 24875
L39742 24819
L39686 24791
L39573 24791
L39517 24819
" />
<path d="M39770 25156
L39714 25184
L39573 25184
L39517 25156
L39489 25100
L39489 25044
L39517 24988
L39573 24959
L39714 24959
L39770 24931
" />
<path d="M40051 25184
L40051 24791
" />
<path d="M40051 24903
L40079 24847
L40107 24819
L40164 24791
L40220 24791
" />
<path d="M40670 25184
L40670 24594
" />
<path d="M40670 25156
L40614 25184
L40501 25184
L40445 25156
L40417 25128
L40389 25072
L40389 24903
L40417 24847
L40445 24819
L40501 24791
L40614 24791
L40670 24819
" />
<text x="37127.1" y="26197.2"
textLength="8592.52" font-size="787.402" lengthAdjust="spacingAndGlyphs"
text-anchor="middle" opacity="0">designed by FSund</text>
<path d="M33288 26169
L33288 25578
" />
<path d="M33288 26141
L33232 26169
L33119 26169
L33063 26141
L33035 26112
L33007 26056
L33007 25887
L33035 25831
L33063 25803
L33119 25775
L33232 25775
L33288 25803
" />
<path d="M33794 26141
L33738 26169
L33625 26169
L33569 26141
L33541 26084
L33541 25859
L33569 25803
L33625 25775
L33738 25775
L33794 25803
L33822 25859
L33822 25916
L33541 25972
" />
<path d="M34047 26141
L34104 26169
L34216 26169
L34272 26141
L34300 26084
L34300 26056
L34272 26000
L34216 25972
L34132 25972
L34075 25944
L34047 25887
L34047 25859
L34075 25803
L34132 25775
L34216 25775
L34272 25803
" />
<path d="M34553 26169
L34553 25775
" />
<path d="M34553 25578
L34525 25606
L34553 25634
L34582 25606
L34553 25578
L34553 25634
" />
<path d="M35088 25775
L35088 26253
L35060 26309
L35032 26337
L34975 26365
L34891 26365
L34835 26337
" />
<path d="M35088 26141
L35032 26169
L34919 26169
L34863 26141
L34835 26112
L34807 26056
L34807 25887
L34835 25831
L34863 25803
L34919 25775
L35032 25775
L35088 25803
" />
<path d="M35369 25775
L35369 26169
" />
<path d="M35369 25831
L35397 25803
L35453 25775
L35538 25775
L35594 25803
L35622 25859
L35622 26169
" />
<path d="M36128 26141
L36072 26169
L35960 26169
L35903 26141
L35875 26084
L35875 25859
L35903 25803
L35960 25775
L36072 25775
L36128 25803
L36156 25859
L36156 25916
L35875 25972
" />
<path d="M36663 26169
L36663 25578
" />
<path d="M36663 26141
L36606 26169
L36494 26169
L36438 26141
L36409 26112
L36381 26056
L36381 25887
L36409 25831
L36438 25803
L36494 25775
L36606 25775
L36663 25803
" />
<path d="M37394 26169
L37394 25578
" />
<path d="M37394 25803
L37450 25775
L37562 25775
L37619 25803
L37647 25831
L37675 25887
L37675 26056
L37647 26112
L37619 26141
L37562 26169
L37450 26169
L37394 26141
" />
<path d="M37872 25775
L38012 26169
" />
<path d="M38153 25775
L38012 26169
L37956 26309
L37928 26337
L37872 26365
" />
<path d="M39025 25859
L38828 25859
" />
<path d="M38828 26169
L38828 25578
L39109 25578
" />
<path d="M39306 26141
L39390 26169
L39531 26169
L39587 26141
L39615 26112
L39643 26056
L39643 26000
L39615 25944
L39587 25916
L39531 25887
L39418 25859
L39362 25831
L39334 25803
L39306 25747
L39306 25691
L39334 25634
L39362 25606
L39418 25578
L39559 25578
L39643 25606
" />
<path d="M40150 25775
L40150 26169
" />
<path d="M39897 25775
L39897 26084
L39925 26141
L39981 26169
L40065 26169
L40122 26141
L40150 26112
" />
<path d="M40431 25775
L40431 26169
" />
<path d="M40431 25831
L40459 25803
L40515 25775
L40600 25775
L40656 25803
L40684 25859
L40684 26169
" />
<path d="M41218 26169
L41218 25578
" />
<path d="M41218 26141
L41162 26169
L41050 26169
L40993 26141
L40965 26112
L40937 26056
L40937 25887
L40965 25831
L40993 25803
L41050 25775
L41162 25775
L41218 25803
" />
</g>
<g style="fill:#000000; fill-opacity:0.0; 
stroke:#000000; stroke-width:59.0551; stroke-opacity:1; 
stroke-linecap:round; stroke-linejoin:round;">
<g transform="rotate(-90 12527.1 19059.8)">
<text x="12527.1" y="19256.7"
textLength="11170.3" font-size="524.934" lengthAdjust="spacingAndGlyphs"
text-anchor="middle" opacity="0">Split PCB designed by harshitgoel96</text>
</g>
<path d="M12686 24506
L12705 24449
L12705 24356
L12686 24318
L12667 24299
L12630 24281
L12592 24281
L12555 24299
L12536 24318
L12517 24356
L12498 24431
L12480 24468
L12461 24487
L12423 24506
L12386 24506
L12348 24487
L12330 24468
L12311 24431
L12311 24337
L12330 24281
" />
<path d="M12442 24112
L12836 24112
" />
<path d="M12461 24112
L12442 24074
L12442 23999
L12461 23962
L12480 23943
L12517 23924
L12630 23924
L12667 23943
L12686 23962
L12705 23999
L12705 24074
L12686 24112
" />
<path d="M12705 23699
L12686 23737
L12648 23756
L12311 23756
" />
<path d="M12705 23549
L12442 23549
" />
<path d="M12311 23549
L12330 23568
L12348 23549
L12330 23531
L12311 23549
L12348 23549
" />
<path d="M12442 23418
L12442 23268
" />
<path d="M12311 23362
L12648 23362
L12686 23343
L12705 23306
L12705 23268
" />
<path d="M12705 22837
L12311 22837
L12311 22687
L12330 22650
L12348 22631
L12386 22612
L12442 22612
L12480 22631
L12498 22650
L12517 22687
L12517 22837
" />
<path d="M12667 22218
L12686 22237
L12705 22293
L12705 22331
L12686 22387
L12648 22425
L12611 22443
L12536 22462
L12480 22462
L12405 22443
L12367 22425
L12330 22387
L12311 22331
L12311 22293
L12330 22237
L12348 22218
" />
<path d="M12498 21918
L12517 21862
L12536 21843
L12573 21825
L12630 21825
L12667 21843
L12686 21862
L12705 21900
L12705 22050
L12311 22050
L12311 21918
L12330 21881
L12348 21862
L12386 21843
L12423 21843
L12461 21862
L12480 21881
L12498 21918
L12498 22050
" />
<path d="M12705 21187
L12311 21187
" />
<path d="M12686 21187
L12705 21225
L12705 21300
L12686 21337
L12667 21356
L12630 21375
L12517 21375
L12480 21356
L12461 21337
L12442 21300
L12442 21225
L12461 21187
" />
<path d="M12686 20850
L12705 20887
L12705 20962
L12686 21000
L12648 21018
L12498 21018
L12461 21000
L12442 20962
L12442 20887
L12461 20850
L12498 20831
L12536 20831
L12573 21018
" />
<path d="M12686 20681
L12705 20644
L12705 20569
L12686 20531
L12648 20512
L12630 20512
L12592 20531
L12573 20569
L12573 20625
L12555 20662
L12517 20681
L12498 20681
L12461 20662
L12442 20625
L12442 20569
L12461 20531
" />
<path d="M12705 20344
L12442 20344
" />
<path d="M12311 20344
L12330 20362
L12348 20344
L12330 20325
L12311 20344
L12348 20344
" />
<path d="M12442 19987
L12761 19987
L12798 20006
L12817 20025
L12836 20062
L12836 20119
L12817 20156
" />
<path d="M12686 19987
L12705 20025
L12705 20100
L12686 20137
L12667 20156
L12630 20175
L12517 20175
L12480 20156
L12461 20137
L12442 20100
L12442 20025
L12461 19987
" />
<path d="M12442 19800
L12705 19800
" />
<path d="M12480 19800
L12461 19781
L12442 19744
L12442 19687
L12461 19650
L12498 19631
L12705 19631
" />
<path d="M12686 19294
L12705 19331
L12705 19406
L12686 19444
L12648 19462
L12498 19462
L12461 19444
L12442 19406
L12442 19331
L12461 19294
L12498 19275
L12536 19275
L12573 19462
" />
<path d="M12705 18937
L12311 18937
" />
<path d="M12686 18937
L12705 18975
L12705 19050
L12686 19087
L12667 19106
L12630 19125
L12517 19125
L12480 19106
L12461 19087
L12442 19050
L12442 18975
L12461 18937
" />
<path d="M12705 18450
L12311 18450
" />
<path d="M12461 18450
L12442 18413
L12442 18338
L12461 18300
L12480 18281
L12517 18263
L12630 18263
L12667 18281
L12686 18300
L12705 18338
L12705 18413
L12686 18450
" />
<path d="M12442 18131
L12705 18038
" />
<path d="M12442 17944
L12705 18038
L12798 18075
L12817 18094
L12836 18131
" />
<path d="M12705 17494
L12311 17494
" />
<path d="M12705 17325
L12498 17325
L12461 17344
L12442 17381
L12442 17438
L12461 17475
L12480 17494
" />
<path d="M12705 16969
L12498 16969
L12461 16988
L12442 17025
L12442 17100
L12461 17138
" />
<path d="M12686 16969
L12705 17006
L12705 17100
L12686 17138
L12648 17156
L12611 17156
L12573 17138
L12555 17100
L12555 17006
L12536 16969
" />
<path d="M12705 16782
L12442 16782
" />
<path d="M12517 16782
L12480 16763
L12461 16744
L12442 16707
L12442 16669
" />
<path d="M12686 16557
L12705 16519
L12705 16444
L12686 16407
L12648 16388
L12630 16388
L12592 16407
L12573 16444
L12573 16500
L12555 16538
L12517 16557
L12498 16557
L12461 16538
L12442 16500
L12442 16444
L12461 16407
" />
<path d="M12705 16219
L12311 16219
" />
<path d="M12705 16050
L12498 16050
L12461 16069
L12442 16107
L12442 16163
L12461 16200
L12480 16219
" />
<path d="M12705 15863
L12442 15863
" />
<path d="M12311 15863
L12330 15882
L12348 15863
L12330 15844
L12311 15863
L12348 15863
" />
<path d="M12442 15732
L12442 15582
" />
<path d="M12311 15675
L12648 15675
L12686 15657
L12705 15619
L12705 15582
" />
<path d="M12442 15282
L12761 15282
L12798 15300
L12817 15319
L12836 15357
L12836 15413
L12817 15450
" />
<path d="M12686 15282
L12705 15319
L12705 15394
L12686 15432
L12667 15450
L12630 15469
L12517 15469
L12480 15450
L12461 15432
L12442 15394
L12442 15319
L12461 15282
" />
<path d="M12705 15038
L12686 15075
L12667 15094
L12630 15113
L12517 15113
L12480 15094
L12461 15075
L12442 15038
L12442 14982
L12461 14944
L12480 14925
L12517 14907
L12630 14907
L12667 14925
L12686 14944
L12705 14982
L12705 15038
" />
<path d="M12686 14588
L12705 14626
L12705 14701
L12686 14738
L12648 14757
L12498 14757
L12461 14738
L12442 14701
L12442 14626
L12461 14588
L12498 14569
L12536 14569
L12573 14757
" />
<path d="M12705 14344
L12686 14382
L12648 14401
L12311 14401
" />
<path d="M12705 14176
L12705 14101
L12686 14063
L12667 14044
L12611 14007
L12536 13988
L12386 13988
L12348 14007
L12330 14026
L12311 14063
L12311 14138
L12330 14176
L12348 14194
L12386 14213
L12480 14213
L12517 14194
L12536 14176
L12555 14138
L12555 14063
L12536 14026
L12517 14007
L12480 13988
" />
<path d="M12311 13651
L12311 13726
L12330 13763
L12348 13782
L12405 13819
L12480 13838
L12630 13838
L12667 13819
L12686 13801
L12705 13763
L12705 13688
L12686 13651
L12667 13632
L12630 13613
L12536 13613
L12498 13632
L12480 13651
L12461 13688
L12461 13763
L12480 13801
L12498 13819
L12536 13838
" />
</g>
<g style="fill:#000000; fill-opacity:0.0; 
stroke:#000000; stroke-width:98.4252; stroke-opacity:1; 
stroke-linecap:round; stroke-linejoin:round;">
<text x="20422.1" y="17963"
textLength="8091.39" font-size="787.402" lengthAdjust="spacingAndGlyphs"
text-anchor="middle" opacity="0">PCB designed by </text>
<path d="M16555 17934
L16555 17344
L16780 17344
L16836 17372
L16864 17400
L16892 17456
L16892 17541
L16864 17597
L16836 17625
L16780 17653
L16555 17653
" />
<path d="M17483 17878
L17455 17906
L17370 17934
L17314 17934
L17230 17906
L17174 17850
L17145 17794
L17117 17681
L17117 17597
L17145 17484
L17174 17428
L17230 17372
L17314 17344
L17370 17344
L17455 17372
L17483 17400
" />
<path d="M17933 17625
L18017 17653
L18045 17681
L18073 17738
L18073 17822
L18045 17878
L18017 17906
L17961 17934
L17736 17934
L17736 17344
L17933 17344
L17989 17372
L18017 17400
L18045 17456
L18045 17513
L18017 17569
L17989 17597
L17933 17625
L17736 17625
" />
<path d="M19030 17934
L19030 17344
" />
<path d="M19030 17906
L18973 17934
L18861 17934
L18805 17906
L18776 17878
L18748 17822
L18748 17653
L18776 17597
L18805 17569
L18861 17541
L18973 17541
L19030 17569
" />
<path d="M19536 17906
L19480 17934
L19367 17934
L19311 17906
L19283 17850
L19283 17625
L19311 17569
L19367 17541
L19480 17541
L19536 17569
L19564 17625
L19564 17681
L19283 17738
" />
<path d="M19789 17906
L19845 17934
L19958 17934
L20014 17906
L20042 17850
L20042 17822
L20014 17766
L19958 17738
L19873 17738
L19817 17709
L19789 17653
L19789 17625
L19817 17569
L19873 17541
L19958 17541
L20014 17569
" />
<path d="M20295 17934
L20295 17541
" />
<path d="M20295 17344
L20267 17372
L20295 17400
L20323 17372
L20295 17344
L20295 17400
" />
<path d="M20829 17541
L20829 18019
L20801 18075
L20773 18103
L20717 18131
L20632 18131
L20576 18103
" />
<path d="M20829 17906
L20773 17934
L20661 17934
L20604 17906
L20576 17878
L20548 17822
L20548 17653
L20576 17597
L20604 17569
L20661 17541
L20773 17541
L20829 17569
" />
<path d="M21111 17541
L21111 17934
" />
<path d="M21111 17597
L21139 17569
L21195 17541
L21279 17541
L21336 17569
L21364 17625
L21364 17934
" />
<path d="M21870 17906
L21814 17934
L21701 17934
L21645 17906
L21617 17850
L21617 17625
L21645 17569
L21701 17541
L21814 17541
L21870 17569
L21898 17625
L21898 17681
L21617 17738
" />
<path d="M22404 17934
L22404 17344
" />
<path d="M22404 17906
L22348 17934
L22235 17934
L22179 17906
L22151 17878
L22123 17822
L22123 17653
L22151 17597
L22179 17569
L22235 17541
L22348 17541
L22404 17569
" />
<path d="M23135 17934
L23135 17344
" />
<path d="M23135 17569
L23192 17541
L23304 17541
L23360 17569
L23388 17597
L23417 17653
L23417 17822
L23388 17878
L23360 17906
L23304 17934
L23192 17934
L23135 17906
" />
<path d="M23613 17541
L23754 17934
" />
<path d="M23895 17541
L23754 17934
L23698 18075
L23670 18103
L23613 18131
" />
<text x="20422.1" y="18947.2"
textLength="6314.68" font-size="787.402" lengthAdjust="spacingAndGlyphs"
text-anchor="middle" opacity="0">Kraken-Jokes</text>
<path d="M17469 18919
L17469 18328
" />
<path d="M17806 18919
L17553 18581
" />
<path d="M17806 18328
L17469 18666
" />
<path d="M18059 18919
L18059 18525
" />
<path d="M18059 18637
L18087 18581
L18116 18553
L18172 18525
L18228 18525
" />
<path d="M18678 18919
L18678 18609
L18650 18553
L18594 18525
L18481 18525
L18425 18553
" />
<path d="M18678 18891
L18622 18919
L18481 18919
L18425 18891
L18397 18834
L18397 18778
L18425 18722
L18481 18694
L18622 18694
L18678 18666
" />
<path d="M18959 18919
L18959 18328
" />
<path d="M19015 18694
L19184 18919
" />
<path d="M19184 18525
L18959 18750
" />
<path d="M19662 18891
L19606 18919
L19494 18919
L19437 18891
L19409 18834
L19409 18609
L19437 18553
L19494 18525
L19606 18525
L19662 18553
L19690 18609
L19690 18666
L19409 18722
" />
<path d="M19944 18525
L19944 18919
" />
<path d="M19944 18581
L19972 18553
L20028 18525
L20112 18525
L20168 18553
L20197 18609
L20197 18919
" />
<path d="M20478 18694
L20928 18694
" />
<path d="M21378 18328
L21378 18750
L21350 18834
L21293 18891
L21209 18919
L21153 18919
" />
<path d="M21743 18919
L21687 18891
L21659 18862
L21631 18806
L21631 18637
L21659 18581
L21687 18553
L21743 18525
L21828 18525
L21884 18553
L21912 18581
L21940 18637
L21940 18806
L21912 18862
L21884 18891
L21828 18919
L21743 18919
" />
<path d="M22193 18919
L22193 18328
" />
<path d="M22249 18694
L22418 18919
" />
<path d="M22418 18525
L22193 18750
" />
<path d="M22896 18891
L22840 18919
L22728 18919
L22671 18891
L22643 18834
L22643 18609
L22671 18553
L22728 18525
L22840 18525
L22896 18553
L22924 18609
L22924 18666
L22643 18722
" />
<path d="M23149 18891
L23206 18919
L23318 18919
L23374 18891
L23402 18834
L23402 18806
L23374 18750
L23318 18722
L23234 18722
L23177 18694
L23149 18637
L23149 18609
L23177 18553
L23234 18525
L23318 18525
L23374 18553
" />
</g>
<g style="fill:#000000; fill-opacity:0.0; 
stroke:#000000; stroke-width:59.0551; stroke-opacity:1; 
stroke-linecap:round; stroke-linejoin:round;">
<path d="M7757 3164
L7757 15164
" />
<path d="M7757 3164
L9757 3164
" />
<path d="M9757 3164
L9757 2164
" />
<path d="M9757 2164
L12757 2164
" />
<path d="M12757 2164
L12757 3164
" />
<path d="M12757 3164
L14757 3164
" />
<path d="M14757 3164
L14757 15164
" />
<path d="M14757 15164
L7757 15164
" />
<text x="53727.1" y="5203.15"
textLength="915.354" font-size="524.934" lengthAdjust="spacingAndGlyphs"
text-anchor="middle" opacity="0">H8</text>
<path d="M53427 5184
L53427 4790
" />
<path d="M53427 4978
L53652 4978
" />
<path d="M53652 5184
L53652 4790
" />
<path d="M53895 4959
L53858 4940
L53839 4921
L53820 4884
L53820 4865
L53839 4828
L53858 4809
L53895 4790
L53970 4790
L54008 4809
L54027 4828
L54045 4865
L54045 4884
L54027 4921
L54008 4940
L53970 4959
L53895 4959
L53858 4978
L53839 4996
L53820 5034
L53820 5109
L53839 5146
L53858 5165
L53895 5184
L53970 5184
L54008 5165
L54027 5146
L54045 5109
L54045 5034
L54027 4996
L54008 4978
L53970 4959
" />
<text x="13762.1" y="24958.2"
textLength="864.173" font-size="524.934" lengthAdjust="spacingAndGlyphs"
text-anchor="middle" opacity="0">H7</text>
<path d="M13462 24939
L13462 24545
" />
<path d="M13462 24733
L13687 24733
" />
<path d="M13687 24939
L13687 24545
" />
<path d="M13837 24545
L14099 24545
L13930 24939
" />
<text x="3227.07" y="37503.2"
textLength="864.173" font-size="524.934" lengthAdjust="spacingAndGlyphs"
text-anchor="middle" opacity="0">H6</text>
<path d="M2927 37484
L2927 37090
" />
<path d="M2927 37278
L3152 37278
" />
<path d="M3152 37484
L3152 37090
" />
<path d="M3508 37090
L3433 37090
L3395 37109
L3377 37128
L3339 37184
L3320 37259
L3320 37409
L3339 37446
L3358 37465
L3395 37484
L3470 37484
L3508 37465
L3527 37446
L3545 37409
L3545 37315
L3527 37278
L3508 37259
L3470 37240
L3395 37240
L3358 37259
L3339 37278
L3320 37315
" />
<text x="31027.1" y="24753.2"
textLength="864.173" font-size="524.934" lengthAdjust="spacingAndGlyphs"
text-anchor="middle" opacity="0">H5</text>
<path d="M30727 24734
L30727 24340
" />
<path d="M30727 24528
L30952 24528
" />
<path d="M30952 24734
L30952 24340
" />
<path d="M31327 24340
L31139 24340
L31120 24528
L31139 24509
L31177 24490
L31270 24490
L31308 24509
L31327 24528
L31345 24565
L31345 24659
L31327 24696
L31308 24715
L31270 24734
L31177 24734
L31139 24715
L31120 24696
" />
<text x="11177.1" y="3653.15"
textLength="864.173" font-size="524.934" lengthAdjust="spacingAndGlyphs"
text-anchor="middle" opacity="0">H4</text>
<path d="M10877 3634
L10877 3240
" />
<path d="M10877 3428
L11102 3428
" />
<path d="M11102 3634
L11102 3240
" />
<path d="M11458 3371
L11458 3634
" />
<path d="M11364 3221
L11270 3503
L11514 3503
" />
<text x="31077.1" y="13523.1"
textLength="864.173" font-size="524.934" lengthAdjust="spacingAndGlyphs"
text-anchor="middle" opacity="0">H3</text>
<path d="M30777 13504
L30777 13110
" />
<path d="M30777 13298
L31002 13298
" />
<path d="M31002 13504
L31002 13110
" />
<path d="M31152 13110
L31395 13110
L31264 13260
L31320 13260
L31358 13279
L31377 13298
L31395 13335
L31395 13429
L31377 13466
L31358 13485
L31320 13504
L31208 13504
L31170 13485
L31152 13466
" />
<text x="53777.1" y="24903.2"
textLength="864.173" font-size="524.934" lengthAdjust="spacingAndGlyphs"
text-anchor="middle" opacity="0">H2</text>
<path d="M53477 24884
L53477 24490
" />
<path d="M53477 24678
L53702 24678
" />
<path d="M53702 24884
L53702 24490
" />
<path d="M53870 24528
L53889 24509
L53927 24490
L54020 24490
L54058 24509
L54077 24528
L54095 24565
L54095 24603
L54077 24659
L53852 24884
L54095 24884
" />
<text x="45982.1" y="15038.1"
textLength="864.173" font-size="524.934" lengthAdjust="spacingAndGlyphs"
text-anchor="middle" opacity="0">H1</text>
<path d="M45682 15019
L45682 14625
" />
<path d="M45682 14813
L45907 14813
" />
<path d="M45907 15019
L45907 14625
" />
<path d="M46300 15019
L46075 15019
" />
<path d="M46188 15019
L46188 14625
L46150 14681
L46113 14719
L46075 14738
" />
<g >
</g>
</g>
<g style="fill:#000000; fill-opacity:0.0; 
stroke:#000000; stroke-width:59.0551; stroke-opacity:1; 
stroke-linecap:round; stroke-linejoin:round;">
</g>
<g style="fill:#000000; fill-opacity:0.0; 
stroke:#000000; stroke-width:19.685; stroke-opacity:1; 
stroke-linecap:round; stroke-linejoin:round;">
<path d="M53277 27709
L54851 27709
" />
<path d="M53277 5309
L54851 5309
" />
<path d="M9 37122
L5050 42556
" />
<path d="M7416.44 31274.8 A40697.2 40697.2 0.0 0 0 9.84283 37122.6" />
<path d="M7416 3359
L7416 31274
" />
<path d="M7716 3059
L12677 3059
" />
<path d="M55151 5609
L55151 27409
" />
<path d="M5792.14 41825.6 A33302.5 33302.5 0.0 0 0 5050.17 42556.4" />
<path d="M38577 309
L38577 1259
" />
<path d="M25070 32559
L25070 32309
" />
<path d="M24770.4 32859.8 A33292 33292 0.0 0 0 5792.14 41825.6" />
<path d="M25370 27709
L29327 27709
" />
<path d="M43527 27709
L53277 27709
" />
<path d="M52977 5309
L53277 5309
" />
<path d="M55151.9 5609.84 A300 300 0.0 0 0 54851.9 5309.84" />
<path d="M54851.9 27709.8 A300 300 0.0 0 0 55151.9 27409.8" />
<path d="M29327 27709
L43527 27709
" />
<path d="M25070 28009
L25070 32309
" />
<path d="M25370.4 27709.8 A300 300 0.0 0 0 25070.4 28009.8" />
<path d="M24770.4 32859.8 A300 300 0.0 0 0 25070.4 32559.8" />
<path d="M7716.44 3059.84 A300 300 0.0 0 0 7416.44 3359.84" />
<path d="M23327 3059
L12677 3059
" />
<path d="M31127 1959
L31127 309
" />
<path d="M23927 2259
L30827 2259
" />
<path d="M23627 2559
L23627 2759
" />
<path d="M23327.1 3059.84 A300 300 0.0 0 0 23627.1 2759.84" />
<path d="M23927.1 2259.84 A300 300 0.0 0 0 23627.1 2559.84" />
<path d="M30827.1 2259.84 A300 300 0.0 0 0 31127.1 1959.84" />
<path d="M31427.1 9.84291 A300 300 0.0 0 0 31127.1 309.843" />
<path d="M38277 9
L31427 9
" />
<path d="M38577.1 309.843 A300 300 0.0 0 0 38277.1 9.84291" />
<path d="M38577.1 1259.84 A300 300 0.0 0 0 38877.1 1559.84" />
<path d="M45727 1559
L38877 1559
" />
<path d="M46027.1 1859.84 A300 300 0.0 0 0 45727.1 1559.84" />
<path d="M46027 5009
L46027 1859
" />
<path d="M46327 5309
L46577 5309
" />
<path d="M46027.1 5009.84 A300 300 0.0 0 0 46327.1 5309.84" />
<path d="M52977 5309
L46577 5309
" />
</g>
<g style="fill:#000000; fill-opacity:0.0; 
stroke:#000000; stroke-width:39.3701; stroke-opacity:1; 
stroke-linecap:round; stroke-linejoin:round;">
<path d="M16813.4 19397.3 A118.11 118.11 0.0 0 0 16695.3 19515.4" />
<path d="M16813.4 22901.2 A118.11 118.11 0.0 0 0 16695.3 23019.3" />
<path d="M22876.4 24121.7 A118.11 118.11 0.0 0 0 22994.5 24003.6" />
<path d="M22876.4 20617.7 A118.11 118.11 0.0 0 0 22994.5 20499.6" />
<path d="M16695.3 20499.6 A118.11 118.11 0.0 0 0 16813.4 20617.7" />
<path d="M17089 20735.8 A118.11 118.11 0.0 0 0 16970.9 20617.7" />
<path d="M16970.9 19397.3 A118.11 118.11 0.0 0 0 17089 19279.1" />
<path d="M17089 24239.8 A118.11 118.11 0.0 0 0 16970.9 24121.7" />
<path d="M16695.3 24003.6 A118.11 118.11 0.0 0 0 16813.4 24121.7" />
<path d="M16970.9 22901.2 A118.11 118.11 0.0 0 0 17089 22783.1" />
<path d="M22718.9 24121.7 A118.11 118.11 0.0 0 0 22600.8 24239.8" />
<path d="M22994.5 23019.3 A118.11 118.11 0.0 0 0 22876.4 22901.2" />
<path d="M22600.8 22783.1 A118.11 118.11 0.0 0 0 22718.9 22901.2" />
<path d="M22994.5 19515.4 A118.11 118.11 0.0 0 0 22876.4 19397.3" />
<path d="M22600.8 19279.1 A118.11 118.11 0.0 0 0 22718.9 19397.3" />
<path d="M22482.7 24515.4 A118.11 118.11 0.0 0 0 22600.8 24397.3" />
<path d="M22718.9 20617.7 A118.11 118.11 0.0 0 0 22600.8 20735.8" />
<path d="M22600.8 19121.7 A118.11 118.11 0.0 0 0 22482.7 19003.6" />
<path d="M17207.1 19003.6 A118.11 118.11 0.0 0 0 17089 19121.7" />
<path d="M17089 24397.3 A118.11 118.11 0.0 0 0 17207.1 24515.4" />
<path d="M22482 24515
L17207 24515
" />
<path d="M17088 24397
L17088 24239
" />
<path d="M22482 19003
L17207 19003
" />
<path d="M17088 20735
L17088 22783
" />
<path d="M17088 19279
L17088 19121
" />
<path d="M22600 24239
L22600 24397
" />
<path d="M22718 19397
L22876 19397
" />
<path d="M22994 20499
L22994 19515
" />
<path d="M22876 20617
L22718 20617
" />
<path d="M22600 22783
L22600 20735
" />
<path d="M22600 19121
L22600 19279
" />
<path d="M22876 24121
L22718 24121
" />
<path d="M22994 24003
L22994 23019
" />
<path d="M22718 22901
L22876 22901
" />
<path d="M16970 24121
L16813 24121
" />
<path d="M16695 23019
L16695 24003
" />
<path d="M16813 22901
L16970 22901
" />
<path d="M16813 19397
L16970 19397
" />
<path d="M16970 20617
L16813 20617
" />
<path d="M16695 19515
L16695 20499
" />
<path d="M16805.8 11867.6 A118.11 118.11 0.0 0 0 16687.7 11985.7" />
<path d="M16805.8 15371.5 A118.11 118.11 0.0 0 0 16687.7 15489.6" />
<path d="M22868.8 16592 A118.11 118.11 0.0 0 0 22986.9 16473.9" />
<path d="M22868.8 13088 A118.11 118.11 0.0 0 0 22986.9 12969.9" />
<path d="M16687.7 12969.9 A118.11 118.11 0.0 0 0 16805.8 13088" />
<path d="M17081.4 13206.1 A118.11 118.11 0.0 0 0 16963.2 13088" />
<path d="M16963.2 11867.6 A118.11 118.11 0.0 0 0 17081.4 11749.4" />
<path d="M17081.4 16710.1 A118.11 118.11 0.0 0 0 16963.2 16592" />
<path d="M16687.7 16473.9 A118.11 118.11 0.0 0 0 16805.8 16592" />
<path d="M16963.2 15371.5 A118.11 118.11 0.0 0 0 17081.4 15253.4" />
<path d="M22711.3 16592 A118.11 118.11 0.0 0 0 22593.2 16710.1" />
<path d="M22986.9 15489.6 A118.11 118.11 0.0 0 0 22868.8 15371.5" />
<path d="M22593.2 15253.4 A118.11 118.11 0.0 0 0 22711.3 15371.5" />
<path d="M22986.9 11985.7 A118.11 118.11 0.0 0 0 22868.8 11867.6" />
<path d="M22593.2 11749.4 A118.11 118.11 0.0 0 0 22711.3 11867.6" />
<path d="M22475.1 16985.7 A118.11 118.11 0.0 0 0 22593.2 16867.6" />
<path d="M22711.3 13088 A118.11 118.11 0.0 0 0 22593.2 13206.1" />
<path d="M22593.2 11592 A118.11 118.11 0.0 0 0 22475.1 11473.9" />
<path d="M17199.5 11473.9 A118.11 118.11 0.0 0 0 17081.4 11592" />
<path d="M17081.4 16867.6 A118.11 118.11 0.0 0 0 17199.5 16985.7" />
<path d="M22475 16985
L17199 16985
" />
<path d="M17081 16867
L17081 16710
" />
<path d="M22475 11473
L17199 11473
" />
<path d="M17081 13206
L17081 15253
" />
<path d="M17081 11749
L17081 11591
" />
<path d="M22593 16710
L22593 16867
" />
<path d="M22711 11867
L22868 11867
" />
<path d="M22986 12969
L22986 11985
" />
<path d="M22868 13088
L22711 13088
" />
<path d="M22593 15253
L22593 13206
" />
<path d="M22593 11591
L22593 11749
" />
<path d="M22868 16591
L22711 16591
" />
<path d="M22986 16473
L22986 15489
" />
<path d="M22711 15371
L22868 15371
" />
<path d="M16963 16591
L16805 16591
" />
<path d="M16687 15489
L16687 16473
" />
<path d="M16805 15371
L16963 15371
" />
<path d="M16805 11867
L16963 11867
" />
<path d="M16963 13088
L16805 13088
" />
<path d="M16687 11985
L16687 12969
" />
<path d="M16788.6 4373.5 A118.11 118.11 0.0 0 0 16670.5 4491.61" />
<path d="M16788.6 7877.44 A118.11 118.11 0.0 0 0 16670.5 7995.55" />
<path d="M22851.6 9097.91 A118.11 118.11 0.0 0 0 22969.7 8979.8" />
<path d="M22851.6 5593.97 A118.11 118.11 0.0 0 0 22969.7 5475.86" />
<path d="M16670.5 5475.86 A118.11 118.11 0.0 0 0 16788.6 5593.97" />
<path d="M17064.2 5712.08 A118.11 118.11 0.0 0 0 16946.1 5593.97" />
<path d="M16946.1 4373.5 A118.11 118.11 0.0 0 0 17064.2 4255.39" />
<path d="M17064.2 9216.02 A118.11 118.11 0.0 0 0 16946.1 9097.91" />
<path d="M16670.5 8979.8 A118.11 118.11 0.0 0 0 16788.6 9097.91" />
<path d="M16946.1 7877.44 A118.11 118.11 0.0 0 0 17064.2 7759.33" />
<path d="M22694.1 9097.91 A118.11 118.11 0.0 0 0 22576 9216.02" />
<path d="M22969.7 7995.55 A118.11 118.11 0.0 0 0 22851.6 7877.44" />
<path d="M22576 7759.33 A118.11 118.11 0.0 0 0 22694.1 7877.44" />
<path d="M22969.7 4491.61 A118.11 118.11 0.0 0 0 22851.6 4373.5" />
<path d="M22576 4255.39 A118.11 118.11 0.0 0 0 22694.1 4373.5" />
<path d="M22457.9 9491.61 A118.11 118.11 0.0 0 0 22576 9373.5" />
<path d="M22694.1 5593.97 A118.11 118.11 0.0 0 0 22576 5712.08" />
<path d="M22576 4097.91 A118.11 118.11 0.0 0 0 22457.9 3979.8" />
<path d="M17182.3 3979.8 A118.11 118.11 0.0 0 0 17064.2 4097.91" />
<path d="M17064.2 9373.5 A118.11 118.11 0.0 0 0 17182.3 9491.61" />
<path d="M22457 9491
L17182 9491
" />
<path d="M17064 9373
L17064 9216
" />
<path d="M22457 3979
L17182 3979
" />
<path d="M17064 5712
L17064 7759
" />
<path d="M17064 4255
L17064 4097
" />
<path d="M22575 9216
L22575 9373
" />
<path d="M22694 4373
L22851 4373
" />
<path d="M22969 5475
L22969 4491
" />
<path d="M22851 5593
L22694 5593
" />
<path d="M22575 7759
L22575 5712
" />
<path d="M22575 4097
L22575 4255
" />
<path d="M22851 9097
L22694 9097
" />
<path d="M22969 8979
L22969 7995
" />
<path d="M22694 7877
L22851 7877
" />
<path d="M16946 9097
L16788 9097
" />
<path d="M16670 7995
L16670 8979
" />
<path d="M16788 7877
L16946 7877
" />
<path d="M16788 4373
L16946 4373
" />
<path d="M16946 5593
L16788 5593
" />
<path d="M16670 4491
L16670 5475
" />
<path d="M24320.2 18619.3 A118.11 118.11 0.0 0 0 24202.1 18737.4" />
<path d="M24320.2 22123.2 A118.11 118.11 0.0 0 0 24202.1 22241.3" />
<path d="M30383.2 23343.7 A118.11 118.11 0.0 0 0 30501.3 23225.6" />
<path d="M30383.2 19839.7 A118.11 118.11 0.0 0 0 30501.3 19721.6" />
<path d="M24202.1 19721.6 A118.11 118.11 0.0 0 0 24320.2 19839.7" />
<path d="M24595.8 19957.9 A118.11 118.11 0.0 0 0 24477.7 19839.7" />
<path d="M24477.7 18619.3 A118.11 118.11 0.0 0 0 24595.8 18501.2" />
<path d="M24595.8 23461.8 A118.11 118.11 0.0 0 0 24477.7 23343.7" />
<path d="M24202.1 23225.6 A118.11 118.11 0.0 0 0 24320.2 23343.7" />
<path d="M24477.7 22123.2 A118.11 118.11 0.0 0 0 24595.8 22005.1" />
<path d="M30225.8 23343.7 A118.11 118.11 0.0 0 0 30107.6 23461.8" />
<path d="M30501.3 22241.3 A118.11 118.11 0.0 0 0 30383.2 22123.2" />
<path d="M30107.6 22005.1 A118.11 118.11 0.0 0 0 30225.8 22123.2" />
<path d="M30501.3 18737.4 A118.11 118.11 0.0 0 0 30383.2 18619.3" />
<path d="M30107.6 18501.2 A118.11 118.11 0.0 0 0 30225.8 18619.3" />
<path d="M29989.5 23737.4 A118.11 118.11 0.0 0 0 30107.6 23619.3" />
<path d="M30225.8 19839.7 A118.11 118.11 0.0 0 0 30107.6 19957.9" />
<path d="M30107.6 18343.7 A118.11 118.11 0.0 0 0 29989.5 18225.6" />
<path d="M24713.9 18225.6 A118.11 118.11 0.0 0 0 24595.8 18343.7" />
<path d="M24595.8 23619.3 A118.11 118.11 0.0 0 0 24713.9 23737.4" />
<path d="M29989 23737
L24713 23737
" />
<path d="M24595 23619
L24595 23461
" />
<path d="M29989 18225
L24713 18225
" />
<path d="M24595 19957
L24595 22005
" />
<path d="M24595 18501
L24595 18343
" />
<path d="M30107 23461
L30107 23619
" />
<path d="M30225 18619
L30383 18619
" />
<path d="M30501 19721
L30501 18737
" />
<path d="M30383 19839
L30225 19839
" />
<path d="M30107 22005
L30107 19957
" />
<path d="M30107 18343
L30107 18501
" />
<path d="M30383 23343
L30225 23343
" />
<path d="M30501 23225
L30501 22241
" />
<path d="M30225 22123
L30383 22123
" />
<path d="M24477 23343
L24320 23343
" />
<path d="M24202 22241
L24202 23225
" />
<path d="M24320 22123
L24477 22123
" />
<path d="M24320 18619
L24477 18619
" />
<path d="M24477 19839
L24320 19839
" />
<path d="M24202 18737
L24202 19721
" />
<path d="M24303.1 11125.2 A118.11 118.11 0.0 0 0 24185 11243.3" />
<path d="M24303.1 14629.2 A118.11 118.11 0.0 0 0 24185 14747.3" />
<path d="M30366.1 15849.6 A118.11 118.11 0.0 0 0 30484.2 15731.5" />
<path d="M30366.1 12345.7 A118.11 118.11 0.0 0 0 30484.2 12227.6" />
<path d="M24185 12227.6 A118.11 118.11 0.0 0 0 24303.1 12345.7" />
<path d="M24578.7 12463.8 A118.11 118.11 0.0 0 0 24460.5 12345.7" />
<path d="M24460.5 11125.2 A118.11 118.11 0.0 0 0 24578.7 11007.1" />
<path d="M24578.7 15967.7 A118.11 118.11 0.0 0 0 24460.5 15849.6" />
<path d="M24185 15731.5 A118.11 118.11 0.0 0 0 24303.1 15849.6" />
<path d="M24460.5 14629.2 A118.11 118.11 0.0 0 0 24578.7 14511" />
<path d="M30208.6 15849.6 A118.11 118.11 0.0 0 0 30090.5 15967.7" />
<path d="M30484.2 14747.3 A118.11 118.11 0.0 0 0 30366.1 14629.2" />
<path d="M30090.5 14511 A118.11 118.11 0.0 0 0 30208.6 14629.2" />
<path d="M30484.2 11243.3 A118.11 118.11 0.0 0 0 30366.1 11125.2" />
<path d="M30090.5 11007.1 A118.11 118.11 0.0 0 0 30208.6 11125.2" />
<path d="M29972.4 16243.3 A118.11 118.11 0.0 0 0 30090.5 16125.2" />
<path d="M30208.6 12345.7 A118.11 118.11 0.0 0 0 30090.5 12463.8" />
<path d="M30090.5 10849.6 A118.11 118.11 0.0 0 0 29972.4 10731.5" />
<path d="M24696.8 10731.5 A118.11 118.11 0.0 0 0 24578.7 10849.6" />
<path d="M24578.7 16125.2 A118.11 118.11 0.0 0 0 24696.8 16243.3" />
<path d="M29972 16243
L24696 16243
" />
<path d="M24578 16125
L24578 15967
" />
<path d="M29972 10731
L24696 10731
" />
<path d="M24578 12463
L24578 14511
" />
<path d="M24578 11007
L24578 10849
" />
<path d="M30090 15967
L30090 16125
" />
<path d="M30208 11125
L30366 11125
" />
<path d="M30484 12227
L30484 11243
" />
<path d="M30366 12345
L30208 12345
" />
<path d="M30090 14511
L30090 12463
" />
<path d="M30090 10849
L30090 11007
" />
<path d="M30366 15849
L30208 15849
" />
<path d="M30484 15731
L30484 14747
" />
<path d="M30208 14629
L30366 14629
" />
<path d="M24460 15849
L24303 15849
" />
<path d="M24184 14747
L24184 15731
" />
<path d="M24303 14629
L24460 14629
" />
<path d="M24303 11125
L24460 11125
" />
<path d="M24460 12345
L24303 12345
" />
<path d="M24184 11243
L24184 12227
" />
<path d="M24321.5 3640.72 A118.11 118.11 0.0 0 0 24203.4 3758.83" />
<path d="M24321.5 7144.66 A118.11 118.11 0.0 0 0 24203.4 7262.77" />
<path d="M30384.5 8365.13 A118.11 118.11 0.0 0 0 30502.6 8247.02" />
<path d="M30384.5 4861.2 A118.11 118.11 0.0 0 0 30502.6 4743.09" />
<path d="M24203.4 4743.09 A118.11 118.11 0.0 0 0 24321.5 4861.2" />
<path d="M24597.1 4979.31 A118.11 118.11 0.0 0 0 24479 4861.2" />
<path d="M24479 3640.72 A118.11 118.11 0.0 0 0 24597.1 3522.61" />
<path d="M24597.1 8483.24 A118.11 118.11 0.0 0 0 24479 8365.13" />
<path d="M24203.4 8247.02 A118.11 118.11 0.0 0 0 24321.5 8365.13" />
<path d="M24479 7144.66 A118.11 118.11 0.0 0 0 24597.1 7026.55" />
<path d="M30227 8365.13 A118.11 118.11 0.0 0 0 30108.9 8483.24" />
<path d="M30502.6 7262.77 A118.11 118.11 0.0 0 0 30384.5 7144.66" />
<path d="M30108.9 7026.55 A118.11 118.11 0.0 0 0 30227 7144.66" />
<path d="M30502.6 3758.83 A118.11 118.11 0.0 0 0 30384.5 3640.72" />
<path d="M30108.9 3522.61 A118.11 118.11 0.0 0 0 30227 3640.72" />
<path d="M29990.8 8758.83 A118.11 118.11 0.0 0 0 30108.9 8640.72" />
<path d="M30227 4861.2 A118.11 118.11 0.0 0 0 30108.9 4979.31" />
<path d="M30108.9 3365.13 A118.11 118.11 0.0 0 0 29990.8 3247.02" />
<path d="M24715.2 3247.02 A118.11 118.11 0.0 0 0 24597.1 3365.13" />
<path d="M24597.1 8640.72 A118.11 118.11 0.0 0 0 24715.2 8758.83" />
<path d="M29990 8758
L24715 8758
" />
<path d="M24597 8640
L24597 8483
" />
<path d="M29990 3247
L24715 3247
" />
<path d="M24597 4979
L24597 7026
" />
<path d="M24597 3522
L24597 3365
" />
<path d="M30108 8483
L30108 8640
" />
<path d="M30227 3640
L30384 3640
" />
<path d="M30502 4743
L30502 3758
" />
<path d="M30384 4861
L30227 4861
" />
<path d="M30108 7026
L30108 4979
" />
<path d="M30108 3365
L30108 3522
" />
<path d="M30384 8365
L30227 8365
" />
<path d="M30502 8247
L30502 7262
" />
<path d="M30227 7144
L30384 7144
" />
<path d="M24479 8365
L24321 8365
" />
<path d="M24203 7262
L24203 8247
" />
<path d="M24321 7144
L24479 7144
" />
<path d="M24321 3640
L24479 3640
" />
<path d="M24479 4861
L24321 4861
" />
<path d="M24203 3758
L24203 4743
" />
<path d="M2465.29 36598.1 A118.11 118.11 0.0 0 0 2443.48 36763.7" />
<path d="M4598.35 39378 A118.11 118.11 0.0 0 0 4576.55 39543.6" />
<path d="M10151.4 36655.3 A118.11 118.11 0.0 0 0 10173.2 36489.7" />
<path d="M8018.36 33875.5 A118.11 118.11 0.0 0 0 8040.16 33709.9" />
<path d="M3042.66 37544.6 A118.11 118.11 0.0 0 0 3208.26 37566.4" />
<path d="M3498.81 37492.3 A118.11 118.11 0.0 0 0 3333.2 37470.5" />
<path d="M2590.22 36502.2 A118.11 118.11 0.0 0 0 2612.03 36336.6" />
<path d="M5631.87 40272.2 A118.11 118.11 0.0 0 0 5466.26 40250.4" />
<path d="M5175.72 40324.4 A118.11 118.11 0.0 0 0 5341.33 40346.2" />
<path d="M4723.29 39282.1 A118.11 118.11 0.0 0 0 4745.09 39116.5" />
<path d="M10026.5 36751.2 A118.11 118.11 0.0 0 0 10004.7 36916.8" />
<path d="M9574.05 35708.9 A118.11 118.11 0.0 0 0 9408.44 35687.1" />
<path d="M9117.9 35761.1 A118.11 118.11 0.0 0 0 9283.51 35782.9" />
<path d="M7440.99 32929 A118.11 118.11 0.0 0 0 7275.38 32907.2" />
<path d="M6984.84 32981.3 A118.11 118.11 0.0 0 0 7150.44 33003.1" />
<path d="M10078.7 37207.3 A118.11 118.11 0.0 0 0 10100.5 37041.7" />
<path d="M7893.42 33971.3 A118.11 118.11 0.0 0 0 7871.62 34136.9" />
<path d="M6888.97 32856.3 A118.11 118.11 0.0 0 0 6723.37 32834.5" />
<path d="M2537.96 36046.1 A118.11 118.11 0.0 0 0 2516.16 36211.7" />
<path d="M5727.73 40397.1 A118.11 118.11 0.0 0 0 5893.34 40418.9" />
<path d="M10078 37207
L5893 40418
" />
<path d="M5727 40397
L5631 40272
" />
<path d="M6723 32834
L2537 36046
" />
<path d="M3498 37492
L4745 39116
" />
<path d="M2612 36336
L2516 36211
" />
<path d="M10004 36916
L10100 37041
" />
<path d="M7150 33003
L7275 32907
" />
<path d="M8040 33709
L7440 32928
" />
<path d="M8018 33875
L7893 33971
" />
<path d="M9117 35761
L7871 34136
" />
<path d="M6888 32856
L6984 32981
" />
<path d="M10151 36655
L10026 36751
" />
<path d="M10173 36489
L9574 35708
" />
<path d="M9283 35782
L9408 35687
" />
<path d="M5466 40250
L5341 40346
" />
<path d="M4576 39543
L5175 40324
" />
<path d="M4598 39377
L4723 39282
" />
<path d="M2465 36598
L2590 36502
" />
<path d="M3333 37470
L3208 37566
" />
<path d="M2443 36763
L3042 37544
" />
<path d="M31797.9 16381.4 A118.11 118.11 0.0 0 0 31679.8 16499.6" />
<path d="M31797.9 19885.4 A118.11 118.11 0.0 0 0 31679.8 20003.5" />
<path d="M37860.9 21105.9 A118.11 118.11 0.0 0 0 37979 20987.7" />
<path d="M37860.9 17601.9 A118.11 118.11 0.0 0 0 37979 17483.8" />
<path d="M31679.8 17483.8 A118.11 118.11 0.0 0 0 31797.9 17601.9" />
<path d="M32073.5 17720 A118.11 118.11 0.0 0 0 31955.4 17601.9" />
<path d="M31955.4 16381.4 A118.11 118.11 0.0 0 0 32073.5 16263.3" />
<path d="M32073.5 21224 A118.11 118.11 0.0 0 0 31955.4 21105.9" />
<path d="M31679.8 20987.7 A118.11 118.11 0.0 0 0 31797.9 21105.9" />
<path d="M31955.4 19885.4 A118.11 118.11 0.0 0 0 32073.5 19767.3" />
<path d="M37703.4 21105.9 A118.11 118.11 0.0 0 0 37585.3 21224" />
<path d="M37979 20003.5 A118.11 118.11 0.0 0 0 37860.9 19885.4" />
<path d="M37585.3 19767.3 A118.11 118.11 0.0 0 0 37703.4 19885.4" />
<path d="M37979 16499.6 A118.11 118.11 0.0 0 0 37860.9 16381.4" />
<path d="M37585.3 16263.3 A118.11 118.11 0.0 0 0 37703.4 16381.4" />
<path d="M37467.2 21499.6 A118.11 118.11 0.0 0 0 37585.3 21381.4" />
<path d="M37703.4 17601.9 A118.11 118.11 0.0 0 0 37585.3 17720" />
<path d="M37585.3 16105.9 A118.11 118.11 0.0 0 0 37467.2 15987.7" />
<path d="M32191.6 15987.7 A118.11 118.11 0.0 0 0 32073.5 16105.9" />
<path d="M32073.5 21381.4 A118.11 118.11 0.0 0 0 32191.6 21499.6" />
<path d="M37467 21499
L32191 21499
" />
<path d="M32073 21381
L32073 21223
" />
<path d="M37467 15987
L32191 15987
" />
<path d="M32073 17720
L32073 19767
" />
<path d="M32073 16263
L32073 16105
" />
<path d="M37585 21223
L37585 21381
" />
<path d="M37703 16381
L37860 16381
" />
<path d="M37979 17483
L37979 16499
" />
<path d="M37860 17601
L37703 17601
" />
<path d="M37585 19767
L37585 17720
" />
<path d="M37585 16105
L37585 16263
" />
<path d="M37860 21105
L37703 21105
" />
<path d="M37979 20987
L37979 20003
" />
<path d="M37703 19885
L37860 19885
" />
<path d="M31955 21105
L31797 21105
" />
<path d="M31679 20003
L31679 20987
" />
<path d="M31797 19885
L31955 19885
" />
<path d="M31797 16381
L31955 16381
" />
<path d="M31955 17601
L31797 17601
" />
<path d="M31679 16499
L31679 17483
" />
<path d="M31816.4 8896.94 A118.11 118.11 0.0 0 0 31698.3 9015.05" />
<path d="M31816.4 12400.9 A118.11 118.11 0.0 0 0 31698.3 12519" />
<path d="M37879.4 13621.4 A118.11 118.11 0.0 0 0 37997.5 13503.2" />
<path d="M37879.4 10117.4 A118.11 118.11 0.0 0 0 37997.5 9999.31" />
<path d="M31698.3 9999.31 A118.11 118.11 0.0 0 0 31816.4 10117.4" />
<path d="M32092 10235.5 A118.11 118.11 0.0 0 0 31973.9 10117.4" />
<path d="M31973.9 8896.94 A118.11 118.11 0.0 0 0 32092 8778.83" />
<path d="M32092 13739.5 A118.11 118.11 0.0 0 0 31973.9 13621.4" />
<path d="M31698.3 13503.2 A118.11 118.11 0.0 0 0 31816.4 13621.4" />
<path d="M31973.9 12400.9 A118.11 118.11 0.0 0 0 32092 12282.8" />
<path d="M37721.9 13621.4 A118.11 118.11 0.0 0 0 37603.8 13739.5" />
<path d="M37997.5 12519 A118.11 118.11 0.0 0 0 37879.4 12400.9" />
<path d="M37603.8 12282.8 A118.11 118.11 0.0 0 0 37721.9 12400.9" />
<path d="M37997.5 9015.05 A118.11 118.11 0.0 0 0 37879.4 8896.94" />
<path d="M37603.8 8778.83 A118.11 118.11 0.0 0 0 37721.9 8896.94" />
<path d="M37485.7 14015.1 A118.11 118.11 0.0 0 0 37603.8 13896.9" />
<path d="M37721.9 10117.4 A118.11 118.11 0.0 0 0 37603.8 10235.5" />
<path d="M37603.8 8621.35 A118.11 118.11 0.0 0 0 37485.7 8503.24" />
<path d="M32210.1 8503.24 A118.11 118.11 0.0 0 0 32092 8621.35" />
<path d="M32092 13896.9 A118.11 118.11 0.0 0 0 32210.1 14015.1" />
<path d="M37485 14015
L32210 14015
" />
<path d="M32091 13896
L32091 13739
" />
<path d="M37485 8503
L32210 8503
" />
<path d="M32091 10235
L32091 12282
" />
<path d="M32091 8778
L32091 8621
" />
<path d="M37603 13739
L37603 13896
" />
<path d="M37721 8896
L37879 8896
" />
<path d="M37997 9999
L37997 9015
" />
<path d="M37879 10117
L37721 10117
" />
<path d="M37603 12282
L37603 10235
" />
<path d="M37603 8621
L37603 8778
" />
<path d="M37879 13621
L37721 13621
" />
<path d="M37997 13503
L37997 12518
" />
<path d="M37721 12400
L37879 12400
" />
<path d="M31973 13621
L31816 13621
" />
<path d="M31698 12518
L31698 13503
" />
<path d="M31816 12400
L31973 12400
" />
<path d="M31816 8896
L31973 8896
" />
<path d="M31973 10117
L31816 10117
" />
<path d="M31698 9015
L31698 9999
" />
<path d="M31808.8 1367.24 A118.11 118.11 0.0 0 0 31690.7 1485.35" />
<path d="M31808.8 4871.18 A118.11 118.11 0.0 0 0 31690.7 4989.29" />
<path d="M37871.8 6091.65 A118.11 118.11 0.0 0 0 37989.9 5973.54" />
<path d="M37871.8 2587.71 A118.11 118.11 0.0 0 0 37989.9 2469.6" />
<path d="M31690.7 2469.6 A118.11 118.11 0.0 0 0 31808.8 2587.71" />
<path d="M32084.4 2705.82 A118.11 118.11 0.0 0 0 31966.3 2587.71" />
<path d="M31966.3 1367.24 A118.11 118.11 0.0 0 0 32084.4 1249.13" />
<path d="M32084.4 6209.76 A118.11 118.11 0.0 0 0 31966.3 6091.65" />
<path d="M31690.7 5973.54 A118.11 118.11 0.0 0 0 31808.8 6091.65" />
<path d="M31966.3 4871.18 A118.11 118.11 0.0 0 0 32084.4 4753.07" />
<path d="M37714.3 6091.65 A118.11 118.11 0.0 0 0 37596.2 6209.76" />
<path d="M37989.9 4989.29 A118.11 118.11 0.0 0 0 37871.8 4871.18" />
<path d="M37596.2 4753.07 A118.11 118.11 0.0 0 0 37714.3 4871.18" />
<path d="M37989.9 1485.35 A118.11 118.11 0.0 0 0 37871.8 1367.24" />
<path d="M37596.2 1249.13 A118.11 118.11 0.0 0 0 37714.3 1367.24" />
<path d="M37478.1 6485.35 A118.11 118.11 0.0 0 0 37596.2 6367.24" />
<path d="M37714.3 2587.71 A118.11 118.11 0.0 0 0 37596.2 2705.82" />
<path d="M37596.2 1091.65 A118.11 118.11 0.0 0 0 37478.1 973.539" />
<path d="M32202.5 973.539 A118.11 118.11 0.0 0 0 32084.4 1091.65" />
<path d="M32084.4 6367.24 A118.11 118.11 0.0 0 0 32202.5 6485.35" />
<path d="M37478 6485
L32202 6485
" />
<path d="M32084 6367
L32084 6209
" />
<path d="M37478 973
L32202 973
" />
<path d="M32084 2705
L32084 4753
" />
<path d="M32084 1249
L32084 1091
" />
<path d="M37596 6209
L37596 6367
" />
<path d="M37714 1367
L37871 1367
" />
<path d="M37989 2469
L37989 1485
" />
<path d="M37871 2587
L37714 2587
" />
<path d="M37596 4753
L37596 2705
" />
<path d="M37596 1091
L37596 1249
" />
<path d="M37871 6091
L37714 6091
" />
<path d="M37989 5973
L37989 4989
" />
<path d="M37714 4871
L37871 4871
" />
<path d="M31966 6091
L31808 6091
" />
<path d="M31690 4989
L31690 5973
" />
<path d="M31808 4871
L31966 4871
" />
<path d="M31808 1367
L31966 1367
" />
<path d="M31966 2587
L31808 2587
" />
<path d="M31690 1485
L31690 2469
" />
<path d="M9445.8 31612.1 A118.11 118.11 0.0 0 0 9388.67 31769.1" />
<path d="M10926.6 34787.8 A118.11 118.11 0.0 0 0 10869.5 34944.7" />
<path d="M16937.4 33331.6 A118.11 118.11 0.0 0 0 16994.5 33174.6" />
<path d="M15456.5 30155.9 A118.11 118.11 0.0 0 0 15513.7 29999" />
<path d="M9804.63 32661.1 A118.11 118.11 0.0 0 0 9961.59 32718.3" />
<path d="M10261.3 32708.8 A118.11 118.11 0.0 0 0 10104.3 32651.7" />
<path d="M9588.52 31545.6 A118.111 118.111 0.0 0 0 9645.65 31388.6" />
<path d="M11742.1 35884.5 A118.11 118.11 0.0 0 0 11585.1 35827.4" />
<path d="M11285.5 35836.8 A118.11 118.11 0.0 0 0 11442.4 35893.9" />
<path d="M11069.4 34721.2 A118.11 118.11 0.0 0 0 11126.5 34564.3" />
<path d="M16794.6 33398.1 A118.111 118.111 0.0 0 0 16737.5 33555.1" />
<path d="M16578.5 32282.6 A118.11 118.11 0.0 0 0 16421.6 32225.5" />
<path d="M16121.9 32234.9 A118.11 118.11 0.0 0 0 16278.8 32292" />
<path d="M15097.7 29106.9 A118.11 118.11 0.0 0 0 14940.7 29049.8" />
<path d="M14641 29059.2 A118.11 118.11 0.0 0 0 14798 29116.4" />
<path d="M16746.9 33854.8 A118.11 118.11 0.0 0 0 16804.1 33697.8" />
<path d="M15313.8 30222.5 A118.11 118.11 0.0 0 0 15256.7 30379.4" />
<path d="M14574.5 28916.5 A118.11 118.11 0.0 0 0 14417.5 28859.4" />
<path d="M9636.23 31088.9 A118.11 118.11 0.0 0 0 9579.1 31245.9" />
<path d="M11808.7 36027.2 A118.11 118.11 0.0 0 0 11965.6 36084.3" />
<path d="M16746 33854
L11965 36084
" />
<path d="M11808 36027
L11742 35884
" />
<path d="M14417 28859
L9636 31088
" />
<path d="M10261 32708
L11126 34564
" />
<path d="M9645 31388
L9579 31245
" />
<path d="M16737 33555
L16804 33697
" />
<path d="M14798 29116
L14940 29049
" />
<path d="M15513 29998
L15097 29106
" />
<path d="M15456 30155
L15313 30222
" />
<path d="M16121 32234
L15256 30379
" />
<path d="M14574 28916
L14641 29059
" />
<path d="M16937 33331
L16794 33398
" />
<path d="M16994 33174
L16578 32282
" />
<path d="M16278 32292
L16421 32225
" />
<path d="M11585 35827
L11442 35893
" />
<path d="M10869 34944
L11285 35836
" />
<path d="M10926 34787
L11069 34721
" />
<path d="M9445 31612
L9588 31545
" />
<path d="M10104 32651
L9961 32718
" />
<path d="M9388 31769
L9804 32661
" />
<path d="M39302 17895.4 A118.11 118.11 0.0 0 0 39183.9 18013.5" />
<path d="M39302 21399.3 A118.11 118.11 0.0 0 0 39183.9 21517.5" />
<path d="M45365 22619.8 A118.11 118.11 0.0 0 0 45483.1 22501.7" />
<path d="M45365 19115.9 A118.11 118.11 0.0 0 0 45483.1 18997.8" />
<path d="M39183.9 18997.8 A118.11 118.11 0.0 0 0 39302 19115.9" />
<path d="M39577.6 19234 A118.11 118.11 0.0 0 0 39459.5 19115.9" />
<path d="M39459.5 17895.4 A118.11 118.11 0.0 0 0 39577.6 17777.3" />
<path d="M39577.6 22737.9 A118.11 118.11 0.0 0 0 39459.5 22619.8" />
<path d="M39183.9 22501.7 A118.11 118.11 0.0 0 0 39302 22619.8" />
<path d="M39459.5 21399.3 A118.11 118.11 0.0 0 0 39577.6 21281.2" />
<path d="M45207.6 22619.8 A118.11 118.11 0.0 0 0 45089.4 22737.9" />
<path d="M45483.1 21517.5 A118.11 118.11 0.0 0 0 45365 21399.3" />
<path d="M45089.4 21281.2 A118.11 118.11 0.0 0 0 45207.6 21399.3" />
<path d="M45483.1 18013.5 A118.11 118.11 0.0 0 0 45365 17895.4" />
<path d="M45089.4 17777.3 A118.11 118.11 0.0 0 0 45207.6 17895.4" />
<path d="M44971.3 23013.5 A118.11 118.11 0.0 0 0 45089.4 22895.4" />
<path d="M45207.6 19115.9 A118.11 118.11 0.0 0 0 45089.4 19234" />
<path d="M45089.4 17619.8 A118.11 118.11 0.0 0 0 44971.3 17501.7" />
<path d="M39695.7 17501.7 A118.11 118.11 0.0 0 0 39577.6 17619.8" />
<path d="M39577.6 22895.4 A118.11 118.11 0.0 0 0 39695.7 23013.5" />
<path d="M44971 23013
L39695 23013
" />
<path d="M39577 22895
L39577 22737
" />
<path d="M44971 17501
L39695 17501
" />
<path d="M39577 19233
L39577 21281
" />
<path d="M39577 17777
L39577 17619
" />
<path d="M45089 22737
L45089 22895
" />
<path d="M45207 17895
L45365 17895
" />
<path d="M45483 18997
L45483 18013
" />
<path d="M45365 19115
L45207 19115
" />
<path d="M45089 21281
L45089 19233
" />
<path d="M45089 17619
L45089 17777
" />
<path d="M45365 22619
L45207 22619
" />
<path d="M45483 22501
L45483 21517
" />
<path d="M45207 21399
L45365 21399
" />
<path d="M39459 22619
L39302 22619
" />
<path d="M39183 21517
L39183 22501
" />
<path d="M39302 21399
L39459 21399
" />
<path d="M39302 17895
L39459 17895
" />
<path d="M39459 19115
L39302 19115
" />
<path d="M39183 18013
L39183 18997
" />
<path d="M39294.4 10365.7 A118.11 118.11 0.0 0 0 39176.3 10483.8" />
<path d="M39294.4 13869.6 A118.11 118.11 0.0 0 0 39176.3 13987.8" />
<path d="M45357.4 15090.1 A118.11 118.11 0.0 0 0 45475.5 14972" />
<path d="M45357.4 11586.2 A118.11 118.11 0.0 0 0 45475.5 11468.1" />
<path d="M39176.3 11468.1 A118.11 118.11 0.0 0 0 39294.4 11586.2" />
<path d="M39570 11704.3 A118.11 118.11 0.0 0 0 39451.9 11586.2" />
<path d="M39451.9 10365.7 A118.11 118.11 0.0 0 0 39570 10247.6" />
<path d="M39570 15208.2 A118.11 118.11 0.0 0 0 39451.9 15090.1" />
<path d="M39176.3 14972 A118.11 118.11 0.0 0 0 39294.4 15090.1" />
<path d="M39451.9 13869.6 A118.11 118.11 0.0 0 0 39570 13751.5" />
<path d="M45199.9 15090.1 A118.11 118.11 0.0 0 0 45081.8 15208.2" />
<path d="M45475.5 13987.8 A118.11 118.11 0.0 0 0 45357.4 13869.6" />
<path d="M45081.8 13751.5 A118.11 118.11 0.0 0 0 45199.9 13869.6" />
<path d="M45475.5 10483.8 A118.11 118.11 0.0 0 0 45357.4 10365.7" />
<path d="M45081.8 10247.6 A118.11 118.11 0.0 0 0 45199.9 10365.7" />
<path d="M44963.7 15483.8 A118.11 118.11 0.0 0 0 45081.8 15365.7" />
<path d="M45199.9 11586.2 A118.11 118.11 0.0 0 0 45081.8 11704.3" />
<path d="M45081.8 10090.1 A118.11 118.11 0.0 0 0 44963.7 9972.01" />
<path d="M39688.1 9972.01 A118.11 118.11 0.0 0 0 39570 10090.1" />
<path d="M39570 15365.7 A118.11 118.11 0.0 0 0 39688.1 15483.8" />
<path d="M44963 15483
L39688 15483
" />
<path d="M39570 15365
L39570 15208
" />
<path d="M44963 9972
L39688 9972
" />
<path d="M39570 11704
L39570 13751
" />
<path d="M39570 10247
L39570 10090
" />
<path d="M45081 15208
L45081 15365
" />
<path d="M45199 10365
L45357 10365
" />
<path d="M45475 11468
L45475 10483
" />
<path d="M45357 11586
L45199 11586
" />
<path d="M45081 13751
L45081 11704
" />
<path d="M45081 10090
L45081 10247
" />
<path d="M45357 15090
L45199 15090
" />
<path d="M45475 14972
L45475 13987
" />
<path d="M45199 13869
L45357 13869
" />
<path d="M39451 15090
L39294 15090
" />
<path d="M39176 13987
L39176 14972
" />
<path d="M39294 13869
L39451 13869
" />
<path d="M39294 10365
L39451 10365
" />
<path d="M39451 11586
L39294 11586
" />
<path d="M39176 10483
L39176 11468
" />
<path d="M39312.9 2881.21 A118.11 118.11 0.0 0 0 39194.8 2999.32" />
<path d="M39312.9 6385.15 A118.11 118.11 0.0 0 0 39194.8 6503.26" />
<path d="M45375.9 7605.62 A118.11 118.11 0.0 0 0 45494 7487.51" />
<path d="M45375.9 4101.68 A118.11 118.11 0.0 0 0 45494 3983.57" />
<path d="M39194.8 3983.57 A118.11 118.11 0.0 0 0 39312.9 4101.68" />
<path d="M39588.5 4219.79 A118.11 118.11 0.0 0 0 39470.4 4101.68" />
<path d="M39470.4 2881.21 A118.11 118.11 0.0 0 0 39588.5 2763.1" />
<path d="M39588.5 7723.73 A118.11 118.11 0.0 0 0 39470.4 7605.62" />
<path d="M39194.8 7487.51 A118.11 118.11 0.0 0 0 39312.9 7605.62" />
<path d="M39470.4 6385.15 A118.11 118.11 0.0 0 0 39588.5 6267.04" />
<path d="M45218.4 7605.62 A118.11 118.11 0.0 0 0 45100.3 7723.73" />
<path d="M45494 6503.26 A118.11 118.11 0.0 0 0 45375.9 6385.15" />
<path d="M45100.3 6267.04 A118.11 118.11 0.0 0 0 45218.4 6385.15" />
<path d="M45494 2999.32 A118.11 118.11 0.0 0 0 45375.9 2881.21" />
<path d="M45100.3 2763.1 A118.11 118.11 0.0 0 0 45218.4 2881.21" />
<path d="M44982.2 7999.32 A118.11 118.11 0.0 0 0 45100.3 7881.21" />
<path d="M45218.4 4101.68 A118.11 118.11 0.0 0 0 45100.3 4219.79" />
<path d="M45100.3 2605.62 A118.11 118.11 0.0 0 0 44982.2 2487.51" />
<path d="M39706.6 2487.51 A118.11 118.11 0.0 0 0 39588.5 2605.62" />
<path d="M39588.5 7881.21 A118.11 118.11 0.0 0 0 39706.6 7999.32" />
<path d="M44982 7999
L39706 7999
" />
<path d="M39588 7881
L39588 7723
" />
<path d="M44982 2487
L39706 2487
" />
<path d="M39588 4219
L39588 6267
" />
<path d="M39588 2763
L39588 2605
" />
<path d="M45100 7723
L45100 7881
" />
<path d="M45218 2881
L45375 2881
" />
<path d="M45493 3983
L45493 2999
" />
<path d="M45375 4101
L45218 4101
" />
<path d="M45100 6267
L45100 4219
" />
<path d="M45100 2605
L45100 2763
" />
<path d="M45375 7605
L45218 7605
" />
<path d="M45493 7487
L45493 6503
" />
<path d="M45218 6385
L45375 6385
" />
<path d="M39470 7605
L39312 7605
" />
<path d="M39194 6503
L39194 7487
" />
<path d="M39312 6385
L39470 6385
" />
<path d="M39312 2881
L39470 2881
" />
<path d="M39470 4101
L39312 4101
" />
<path d="M39194 2999
L39194 3983
" />
<path d="M17339.1 28201.3 A118.11 118.11 0.0 0 0 17249.3 28342.2" />
<path d="M18097.5 31622.2 A118.11 118.11 0.0 0 0 18007.7 31763.1" />
<path d="M24280.9 31501.5 A118.11 118.11 0.0 0 0 24370.7 31360.6" />
<path d="M23522.5 28080.6 A118.11 118.11 0.0 0 0 23612.3 27939.7" />
<path d="M17462.4 29303.1 A118.11 118.11 0.0 0 0 17603.2 29392.9" />
<path d="M17897.9 29448.5 A118.11 118.11 0.0 0 0 17757 29358.8" />
<path d="M17492.8 28167.3 A118.11 118.11 0.0 0 0 17582.6 28026.4" />
<path d="M18656.3 32869.4 A118.11 118.11 0.0 0 0 18515.4 32779.7" />
<path d="M18220.8 32724 A118.11 118.11 0.0 0 0 18361.6 32813.8" />
<path d="M18251.2 31588.1 A118.11 118.11 0.0 0 0 18341 31447.3" />
<path d="M24127.2 31535.6 A118.11 118.11 0.0 0 0 24037.4 31676.4" />
<path d="M24157.6 30399.7 A118.11 118.11 0.0 0 0 24016.8 30309.9" />
<path d="M23722.1 30254.3 A118.11 118.11 0.0 0 0 23863 30344" />
<path d="M23399.2 26978.8 A118.11 118.11 0.0 0 0 23258.4 26889.1" />
<path d="M22963.7 26833.4 A118.11 118.11 0.0 0 0 23104.6 26923.2" />
<path d="M23981.8 31971.1 A118.11 118.11 0.0 0 0 24071.5 31830.2" />
<path d="M23368.8 28114.7 A118.11 118.11 0.0 0 0 23279 28255.6" />
<path d="M22929.7 26679.7 A118.11 118.11 0.0 0 0 22788.8 26589.9" />
<path d="M17638.2 27731.8 A118.11 118.11 0.0 0 0 17548.5 27872.6" />
<path d="M18690.3 33023.2 A118.11 118.11 0.0 0 0 18831.2 33112.9" />
<path d="M23981 31971
L18831 33112
" />
<path d="M18690 33023
L18656 32869
" />
<path d="M22788 26589
L17638 27731
" />
<path d="M17897 29448
L18340 31447
" />
<path d="M17582 28026
L17548 27872
" />
<path d="M24037 31676
L24071 31830
" />
<path d="M23104 26923
L23258 26889
" />
<path d="M23612 27939
L23399 26978
" />
<path d="M23522 28080
L23368 28114
" />
<path d="M23722 30254
L23279 28255
" />
<path d="M22929 26679
L22963 26833
" />
<path d="M24280 31501
L24127 31535
" />
<path d="M24370 31360
L24157 30399
" />
<path d="M23863 30344
L24016 30309
" />
<path d="M18515 32779
L18361 32813
" />
<path d="M18007 31763
L18220 32724
" />
<path d="M18097 31622
L18251 31588
" />
<path d="M17339 28201
L17492 28167
" />
<path d="M17756 29358
L17603 29392
" />
<path d="M17249 28342
L17462 29303
" />
<path d="M46822.5 21630 A118.11 118.11 0.0 0 0 46704.4 21748.1" />
<path d="M46822.5 25134 A118.11 118.11 0.0 0 0 46704.4 25252.1" />
<path d="M52885.5 26354.4 A118.11 118.11 0.0 0 0 53003.6 26236.3" />
<path d="M52885.5 22850.5 A118.11 118.11 0.0 0 0 53003.6 22732.4" />
<path d="M46704.4 22732.4 A118.11 118.11 0.0 0 0 46822.5 22850.5" />
<path d="M47098.1 22968.6 A118.11 118.11 0.0 0 0 46980 22850.5" />
<path d="M46980 21630 A118.11 118.11 0.0 0 0 47098.1 21511.9" />
<path d="M47098.1 26472.6 A118.11 118.11 0.0 0 0 46980 26354.4" />
<path d="M46704.4 26236.3 A118.11 118.11 0.0 0 0 46822.5 26354.4" />
<path d="M46980 25134 A118.11 118.11 0.0 0 0 47098.1 25015.9" />
<path d="M52728 26354.4 A118.11 118.11 0.0 0 0 52609.9 26472.6" />
<path d="M53003.6 25252.1 A118.11 118.11 0.0 0 0 52885.5 25134" />
<path d="M52609.9 25015.9 A118.11 118.11 0.0 0 0 52728 25134" />
<path d="M53003.6 21748.1 A118.11 118.11 0.0 0 0 52885.5 21630" />
<path d="M52609.9 21511.9 A118.11 118.11 0.0 0 0 52728 21630" />
<path d="M52491.8 26748.1 A118.11 118.11 0.0 0 0 52609.9 26630" />
<path d="M52728 22850.5 A118.11 118.11 0.0 0 0 52609.9 22968.6" />
<path d="M52609.9 21354.4 A118.11 118.11 0.0 0 0 52491.8 21236.3" />
<path d="M47216.2 21236.3 A118.11 118.11 0.0 0 0 47098.1 21354.4" />
<path d="M47098.1 26630 A118.11 118.11 0.0 0 0 47216.2 26748.1" />
<path d="M52491 26748
L47216 26748
" />
<path d="M47098 26630
L47098 26472
" />
<path d="M52491 21236
L47216 21236
" />
<path d="M47098 22968
L47098 25015
" />
<path d="M47098 21511
L47098 21354
" />
<path d="M52609 26472
L52609 26630
" />
<path d="M52728 21630
L52885 21630
" />
<path d="M53003 22732
L53003 21748
" />
<path d="M52885 22850
L52728 22850
" />
<path d="M52609 25015
L52609 22968
" />
<path d="M52609 21354
L52609 21511
" />
<path d="M52885 26354
L52728 26354
" />
<path d="M53003 26236
L53003 25252
" />
<path d="M52728 25133
L52885 25133
" />
<path d="M46979 26354
L46822 26354
" />
<path d="M46704 25252
L46704 26236
" />
<path d="M46822 25133
L46979 25133
" />
<path d="M46822 21630
L46979 21630
" />
<path d="M46979 22850
L46822 22850
" />
<path d="M46704 21748
L46704 22732
" />
<path d="M46805.3 14136 A118.11 118.11 0.0 0 0 46687.2 14254.1" />
<path d="M46805.3 17639.9 A118.11 118.11 0.0 0 0 46687.2 17758" />
<path d="M52868.3 18860.4 A118.11 118.11 0.0 0 0 52986.4 18742.3" />
<path d="M52868.3 15356.5 A118.11 118.11 0.0 0 0 52986.4 15238.3" />
<path d="M46687.2 15238.3 A118.11 118.11 0.0 0 0 46805.3 15356.5" />
<path d="M47080.9 15474.6 A118.11 118.11 0.0 0 0 46962.8 15356.5" />
<path d="M46962.8 14136 A118.11 118.11 0.0 0 0 47080.9 14017.9" />
<path d="M47080.9 18978.5 A118.11 118.11 0.0 0 0 46962.8 18860.4" />
<path d="M46687.2 18742.3 A118.11 118.11 0.0 0 0 46805.3 18860.4" />
<path d="M46962.8 17639.9 A118.11 118.11 0.0 0 0 47080.9 17521.8" />
<path d="M52710.8 18860.4 A118.11 118.11 0.0 0 0 52592.7 18978.5" />
<path d="M52986.4 17758 A118.11 118.11 0.0 0 0 52868.3 17639.9" />
<path d="M52592.7 17521.8 A118.11 118.11 0.0 0 0 52710.8 17639.9" />
<path d="M52986.4 14254.1 A118.11 118.11 0.0 0 0 52868.3 14136" />
<path d="M52592.7 14017.9 A118.11 118.11 0.0 0 0 52710.8 14136" />
<path d="M52474.6 19254.1 A118.11 118.11 0.0 0 0 52592.7 19136" />
<path d="M52710.8 15356.5 A118.11 118.11 0.0 0 0 52592.7 15474.6" />
<path d="M52592.7 13860.4 A118.11 118.11 0.0 0 0 52474.6 13742.3" />
<path d="M47199 13742.3 A118.11 118.11 0.0 0 0 47080.9 13860.4" />
<path d="M47080.9 19136 A118.11 118.11 0.0 0 0 47199 19254.1" />
<path d="M52474 19254
L47199 19254
" />
<path d="M47080 19135
L47080 18978
" />
<path d="M52474 13742
L47199 13742
" />
<path d="M47080 15474
L47080 17521
" />
<path d="M47080 14017
L47080 13860
" />
<path d="M52592 18978
L52592 19135
" />
<path d="M52710 14135
L52868 14135
" />
<path d="M52986 15238
L52986 14254
" />
<path d="M52868 15356
L52710 15356
" />
<path d="M52592 17521
L52592 15474
" />
<path d="M52592 13860
L52592 14017
" />
<path d="M52868 18860
L52710 18860
" />
<path d="M52986 18742
L52986 17758
" />
<path d="M52710 17639
L52868 17639
" />
<path d="M46962 18860
L46805 18860
" />
<path d="M46687 17758
L46687 18742
" />
<path d="M46805 17639
L46962 17639
" />
<path d="M46805 14135
L46962 14135
" />
<path d="M46962 15356
L46805 15356
" />
<path d="M46687 14254
L46687 15238
" />
<path d="M46788.1 6641.93 A118.11 118.11 0.0 0 0 46670 6760.04" />
<path d="M46788.1 10145.9 A118.11 118.11 0.0 0 0 46670 10264" />
<path d="M52851.1 11366.3 A118.11 118.11 0.0 0 0 52969.3 11248.2" />
<path d="M52851.1 7862.4 A118.11 118.11 0.0 0 0 52969.3 7744.29" />
<path d="M46670 7744.29 A118.11 118.11 0.0 0 0 46788.1 7862.4" />
<path d="M47063.7 7980.51 A118.11 118.11 0.0 0 0 46945.6 7862.4" />
<path d="M46945.6 6641.93 A118.11 118.11 0.0 0 0 47063.7 6523.82" />
<path d="M47063.7 11484.4 A118.11 118.11 0.0 0 0 46945.6 11366.3" />
<path d="M46670 11248.2 A118.11 118.11 0.0 0 0 46788.1 11366.3" />
<path d="M46945.6 10145.9 A118.11 118.11 0.0 0 0 47063.7 10027.8" />
<path d="M52693.7 11366.3 A118.11 118.11 0.0 0 0 52575.6 11484.4" />
<path d="M52969.3 10264 A118.11 118.11 0.0 0 0 52851.1 10145.9" />
<path d="M52575.6 10027.8 A118.11 118.11 0.0 0 0 52693.7 10145.9" />
<path d="M52969.3 6760.04 A118.11 118.11 0.0 0 0 52851.1 6641.93" />
<path d="M52575.6 6523.82 A118.11 118.11 0.0 0 0 52693.7 6641.93" />
<path d="M52457.4 11760 A118.11 118.11 0.0 0 0 52575.5 11641.9" />
<path d="M52693.7 7862.4 A118.11 118.11 0.0 0 0 52575.6 7980.51" />
<path d="M52575.5 6366.34 A118.11 118.11 0.0 0 0 52457.4 6248.22" />
<path d="M47181.8 6248.22 A118.11 118.11 0.0 0 0 47063.7 6366.34" />
<path d="M47063.7 11641.9 A118.11 118.11 0.0 0 0 47181.8 11760" />
<path d="M52457 11760
L47181 11760
" />
<path d="M47063 11641
L47063 11484
" />
<path d="M52457 6248
L47181 6248
" />
<path d="M47063 7980
L47063 10027
" />
<path d="M47063 6523
L47063 6366
" />
<path d="M52575 11484
L52575 11641
" />
<path d="M52693 6641
L52851 6641
" />
<path d="M52969 7744
L52969 6760
" />
<path d="M52851 7862
L52693 7862
" />
<path d="M52575 10027
L52575 7980
" />
<path d="M52575 6366
L52575 6523
" />
<path d="M52851 11366
L52693 11366
" />
<path d="M52969 11248
L52969 10263
" />
<path d="M52693 10145
L52851 10145
" />
<path d="M46945 11366
L46788 11366
" />
<path d="M46670 10263
L46670 11248
" />
<path d="M46788 10145
L46945 10145
" />
<path d="M46788 6641
L46945 6641
" />
<path d="M46945 7862
L46788 7862
" />
<path d="M46670 6760
L46670 7744
" />
<g >
</g>
<g >
</g>
<g >
</g>
<g >
</g>
<g >
</g>
<g >
</g>
<g >
</g>
<g >
</g>
<g >
</g>
<g >
</g>
<g >
</g>
<g >
</g>
<g >
</g>
<g >
</g>
<g >
</g>
<g >
</g>
<g >
</g>
<g >
</g>
<g >
</g>
<g >
</g>
<g >
</g>
<g >
</g>
<g >
</g>
<g >
</g>
<g >
</g>
<g >
</g>
<g >
</g>
<g >
</g>
</g> 
</svg>
