%TF.GenerationSoftware,KiCad,Pcbnew,(5.99.0-11550-g369d813a32)*%
%TF.CreationDate,2021-07-28T19:46:22+05:30*%
%TF.ProjectId,Pteron36v0,50746572-6f6e-4333-9676-302e6b696361,rev?*%
%TF.SameCoordinates,Original*%
%TF.FileFunction,Profile,NP*%
%FSLAX46Y46*%
G04 Gerber Fmt 4.6, Leading zero omitted, Abs format (unit mm)*
G04 Created by KiCad (PCBNEW (5.99.0-11550-g369d813a32)) date 2021-07-28 19:46:22*
%MOMM*%
%LPD*%
G01*
G04 APERTURE LIST*
%TA.AperFunction,Profile*%
%ADD10C,0.050000*%
%TD*%
G04 APERTURE END LIST*
D10*
X238174768Y-66240143D02*
X238174768Y-121612145D01*
X121747770Y-59763143D02*
X134347770Y-59763143D01*
X112747768Y-59763143D02*
X121747770Y-59763143D01*
X238174768Y-121612143D02*
G75*
G02*
X237412768Y-122374143I-762000J0D01*
G01*
X119883695Y-134988492D02*
X120419392Y-135693839D01*
X167136392Y-121796300D02*
G75*
G02*
X166120390Y-121796300I-508001J0D01*
G01*
X167136391Y-116716300D02*
X167136390Y-117224300D01*
X129039513Y-145251625D02*
X130585767Y-147266743D01*
X167136389Y-117224298D02*
G75*
G02*
X166120391Y-117224300I-507999J-1D01*
G01*
X127493259Y-143236508D02*
X129039513Y-145251625D01*
X166120389Y-120272299D02*
G75*
G02*
X167136391Y-120272299I508001J0D01*
G01*
X183392391Y-134496300D02*
X167136391Y-134496300D01*
X122545248Y-136788133D02*
X124627198Y-139508595D01*
X161084390Y-59763144D02*
G75*
G02*
X238174768Y-66240143I33013851J-69073457D01*
G01*
X126256256Y-141624414D02*
X127493259Y-143236508D01*
X166120391Y-120272300D02*
X166120390Y-121796300D01*
X117689016Y-157162768D02*
X129779720Y-147885244D01*
X125864202Y-141120689D02*
X126256256Y-141624414D01*
X125058154Y-141739191D02*
G75*
G02*
X125864202Y-141120689I403024J309251D01*
G01*
X166120391Y-129416298D02*
G75*
G02*
X167136391Y-129416300I508000J-1D01*
G01*
X119143488Y-132354873D02*
X111764391Y-123320299D01*
X183392390Y-116716299D02*
X183392391Y-134496300D01*
X121739200Y-137406633D02*
X123821152Y-140127097D01*
X166120391Y-131956300D02*
G75*
G02*
X167136391Y-131956300I508000J0D01*
G01*
X166120391Y-129416298D02*
G75*
G03*
X167136391Y-129416300I508000J-1D01*
G01*
X128233466Y-145870127D02*
X126687212Y-143855009D01*
X126687212Y-143855009D02*
X125450210Y-142242916D01*
X123821152Y-140127097D02*
G75*
G03*
X124627198Y-139508595I403023J309251D01*
G01*
X130585767Y-147266743D02*
G75*
G02*
X166120390Y-135004300I45054026J-72941369D01*
G01*
X121225439Y-135075337D02*
X120689742Y-134369991D01*
X167136391Y-126876300D02*
G75*
G02*
X166120391Y-126876300I-508000J0D01*
G01*
X167136391Y-120272299D02*
X167136391Y-121796300D01*
X120689742Y-134369991D02*
X119143488Y-132354873D01*
X118955942Y-133779422D02*
X107268261Y-142747696D01*
X167136391Y-124844300D02*
X167136391Y-126876300D01*
X183392390Y-116716299D02*
X167136391Y-116716300D01*
X166120391Y-131956300D02*
X166120390Y-135004300D01*
X221492391Y-122374143D02*
X237412768Y-122374143D01*
X122545248Y-136788133D02*
G75*
G03*
X121739200Y-137406633I-403024J-309250D01*
G01*
X125058155Y-141739191D02*
X125450210Y-142242916D01*
X107268261Y-142747696D02*
X106865237Y-143056946D01*
X166120390Y-124844300D02*
X166120391Y-126876300D01*
X183392391Y-116208300D02*
G75*
G02*
X221492391Y-122374143I-3233533J-140777408D01*
G01*
X111764391Y-60836301D02*
G75*
G02*
X112747768Y-59763143I1140393J-57855D01*
G01*
X111764391Y-123320299D02*
X111764391Y-60836299D01*
X106865237Y-143056946D02*
X117689016Y-157162768D01*
X161084390Y-59763143D02*
X134347770Y-59763143D01*
X166120391Y-116208300D02*
X183392391Y-116208300D01*
X120419393Y-135693839D02*
G75*
G03*
X121225439Y-135075337I403023J309251D01*
G01*
X129779720Y-147885244D02*
X128233466Y-145870127D01*
X167136391Y-134496300D02*
X167136391Y-131956300D01*
X119883695Y-134988492D02*
X118955942Y-133779422D01*
X166120391Y-117224300D02*
X166120391Y-116208300D01*
X166120391Y-124844300D02*
G75*
G02*
X167136391Y-124844300I508000J0D01*
G01*
M02*
