M48
; DRILL file {KiCad (5.99.0-11550-g369d813a32)} date Wed Jul 28 19:43:00 2021
; FORMAT={-:-/ absolute / metric / decimal}
; #@! TF.CreationDate,2021-07-28T19:43:00+05:30
; #@! TF.GenerationSoftware,Kicad,Pcbnew,(5.99.0-11550-g369d813a32)
; #@! TF.FileFunction,Plated,1,2,PTH
FMAT,2
METRIC
; #@! TA.AperFunction,Plated,PTH,ViaDrill
T1C0.400
; #@! TA.AperFunction,Plated,PTH,ComponentDrill
T2C0.813
; #@! TA.AperFunction,Plated,PTH,ComponentDrill
T3C0.900
; #@! TA.AperFunction,Plated,PTH,ComponentDrill
T4C1.000
; #@! TA.AperFunction,Plated,PTH,ComponentDrill
T5C1.100
; #@! TA.AperFunction,Plated,PTH,ComponentDrill
T6C1.200
; #@! TA.AperFunction,Plated,PTH,ComponentDrill
T7C1.400
; #@! TA.AperFunction,Plated,PTH,ComponentDrill
T8C1.500
%
G90
G05
T1
X114.845Y-79.546
X118.473Y-79.982
X123.584Y-143.508
X129.302Y-91.242
X131.96Y-91.158
X132.998Y-91.009
X136.202Y-92.478
X141.942Y-69.491
X142.857Y-74.114
X145.575Y-75.918
X162.008Y-80.485
X163.384Y-113.608
X163.384Y-116.608
X206.354Y-88.595
X206.354Y-85.699
X218.092Y-84.071
X218.092Y-87.119
X232.544Y-101.801
X232.544Y-97.762
X236.901Y-109.433
T2
X126.982Y-96.339
X129.522Y-96.339
X132.062Y-96.339
X134.602Y-96.339
T4
X119.108Y-112.341
X119.108Y-114.841
X119.108Y-117.341
X119.73Y-153.773
X122.828Y-124.025
X125.715Y-135.604
X125.919Y-149.025
X129.011Y-142.673
X130.628Y-124.025
X133.608Y-112.341
X133.608Y-117.341
X143.0Y-88.668
X143.0Y-96.468
X143.092Y-107.522
X143.092Y-115.322
X145.061Y-126.568
X146.749Y-134.183
X149.218Y-77.213
X157.018Y-77.213
X162.104Y-102.608
X162.104Y-110.408
X162.114Y-67.681
X162.114Y-75.481
X162.266Y-87.036
X162.266Y-94.836
X171.249Y-133.365
X179.049Y-133.365
X181.084Y-64.499
X181.084Y-72.299
X181.084Y-81.136
X181.084Y-88.936
X181.289Y-100.241
X181.289Y-108.041
X200.213Y-103.707
X200.213Y-111.507
X200.242Y-65.058
X200.242Y-72.858
X200.242Y-84.401
X200.242Y-92.201
X219.32Y-109.031
X219.32Y-116.831
X219.32Y-89.997
X219.32Y-97.797
X219.32Y-73.692
X219.32Y-81.492
T5
X123.121Y-61.3
X123.121Y-63.84
X123.121Y-66.38
X123.121Y-68.92
X123.121Y-71.46
X123.121Y-74.0
X123.121Y-76.54
X123.121Y-79.08
X123.121Y-81.62
X123.121Y-84.16
X123.121Y-86.7
X123.121Y-89.24
X138.361Y-61.3
X138.361Y-63.84
X138.361Y-66.38
X138.361Y-68.92
X138.361Y-71.46
X138.361Y-74.0
X138.361Y-76.54
X138.361Y-79.08
X138.361Y-81.62
X138.361Y-84.16
X138.361Y-86.7
X138.361Y-89.24
T6
X111.891Y-145.052
X113.064Y-142.539
X114.58Y-140.342
X117.094Y-139.447
X119.648Y-140.688
X119.825Y-138.964
X129.517Y-133.139
X131.206Y-130.939
X133.161Y-129.122
X135.81Y-128.792
X138.034Y-130.557
X138.58Y-128.913
X147.491Y-65.3
X147.535Y-84.335
X147.554Y-103.46
X149.301Y-125.186
X149.951Y-64.02
X149.995Y-83.055
X150.014Y-102.18
X151.426Y-123.404
X152.491Y-63.2
X152.535Y-82.235
X152.554Y-101.36
X153.728Y-122.054
X155.031Y-64.02
X155.075Y-83.055
X155.094Y-102.18
X156.301Y-66.56
X156.345Y-85.595
X156.364Y-104.72
X156.386Y-122.304
X157.491Y-65.3
X157.535Y-84.335
X157.554Y-103.46
X158.175Y-124.509
X159.064Y-123.022
X166.578Y-82.449
X166.621Y-101.484
X166.625Y-63.439
X169.038Y-81.169
X169.081Y-100.204
X169.085Y-62.159
X170.657Y-121.691
X171.578Y-80.349
X171.621Y-99.384
X171.625Y-61.339
X173.117Y-120.411
X174.118Y-81.169
X174.161Y-100.204
X174.165Y-62.159
X175.388Y-83.709
X175.431Y-102.744
X175.435Y-64.699
X175.657Y-119.591
X176.578Y-82.449
X176.621Y-101.484
X176.625Y-63.439
X178.197Y-120.411
X179.467Y-122.951
X180.657Y-121.691
X185.615Y-95.8
X185.642Y-57.664
X185.662Y-76.789
X188.075Y-94.52
X188.102Y-56.384
X188.122Y-75.509
X190.615Y-93.7
X190.642Y-55.564
X190.662Y-74.689
X193.155Y-94.52
X193.182Y-56.384
X193.202Y-75.509
X194.425Y-97.06
X194.452Y-58.924
X194.472Y-78.049
X195.615Y-95.8
X195.642Y-57.664
X195.662Y-76.789
X204.656Y-80.52
X204.675Y-99.645
X204.703Y-61.509
X207.116Y-79.24
X207.135Y-98.365
X207.163Y-60.229
X209.656Y-78.42
X209.675Y-97.545
X209.703Y-59.409
X212.196Y-79.24
X212.215Y-98.365
X212.243Y-60.229
X213.466Y-81.78
X213.485Y-100.905
X213.513Y-62.769
X214.656Y-80.52
X214.675Y-99.645
X214.703Y-61.509
X223.69Y-71.062
X223.734Y-90.097
X223.777Y-109.131
X226.15Y-69.782
X226.194Y-88.817
X226.237Y-107.851
X228.69Y-68.962
X228.734Y-87.997
X228.777Y-107.031
X231.23Y-69.782
X231.274Y-88.817
X231.317Y-107.851
X232.5Y-72.322
X232.544Y-91.357
X232.587Y-110.391
X233.69Y-71.062
X233.734Y-90.097
X233.777Y-109.131
T7
X113.448Y-142.975
X113.753Y-143.371
X117.415Y-139.931
X117.72Y-140.328
X131.487Y-131.448
X131.698Y-131.901
X136.019Y-129.335
X136.23Y-129.788
X149.991Y-64.6
X149.991Y-65.1
X150.035Y-83.635
X150.035Y-84.135
X150.054Y-102.76
X150.054Y-103.26
X151.591Y-123.962
X151.699Y-124.45
X154.991Y-64.6
X154.991Y-65.1
X155.035Y-83.635
X155.035Y-84.135
X155.054Y-102.76
X155.054Y-103.26
X156.472Y-122.879
X156.58Y-123.367
X169.078Y-81.749
X169.078Y-82.249
X169.121Y-100.784
X169.121Y-101.284
X169.125Y-62.739
X169.125Y-63.239
X173.157Y-120.991
X173.157Y-121.491
X174.078Y-81.749
X174.078Y-82.249
X174.121Y-100.784
X174.121Y-101.284
X174.125Y-62.739
X174.125Y-63.239
X178.157Y-120.991
X178.157Y-121.491
X188.115Y-95.1
X188.115Y-95.6
X188.142Y-56.964
X188.142Y-57.464
X188.162Y-76.089
X188.162Y-76.589
X193.115Y-95.1
X193.115Y-95.6
X193.142Y-56.964
X193.142Y-57.464
X193.162Y-76.089
X193.162Y-76.589
X207.156Y-79.82
X207.156Y-80.32
X207.175Y-98.945
X207.175Y-99.445
X207.203Y-60.809
X207.203Y-61.309
X212.156Y-79.82
X212.156Y-80.32
X212.175Y-98.945
X212.175Y-99.445
X212.203Y-60.809
X212.203Y-61.309
X226.19Y-70.362
X226.19Y-70.862
X226.234Y-89.397
X226.234Y-89.897
X226.277Y-108.431
X226.277Y-108.931
X231.19Y-70.362
X231.19Y-70.862
X231.234Y-89.397
X231.234Y-89.897
X231.277Y-108.431
X231.277Y-108.931
T3
G00X114.268Y-63.58
M15
G01X114.268Y-63.18
M16
G05
G00X114.268Y-66.58
M15
G01X114.268Y-66.18
M16
G05
G00X114.268Y-70.58
M15
G01X114.268Y-70.18
M16
G05
G00X114.268Y-71.244
M15
G01X114.268Y-71.644
M16
G05
G00X118.868Y-63.144
M15
G01X118.868Y-63.544
M16
G05
G00X118.868Y-66.144
M15
G01X118.868Y-66.544
M16
G05
G00X118.868Y-70.144
M15
G01X118.868Y-70.544
M16
G05
G00X118.868Y-71.68
M15
G01X118.868Y-71.28
M16
G05
T6
G00X113.602Y-145.327
M15
G01X113.602Y-145.327
M16
G05
G00X131.128Y-133.778
M15
G01X131.128Y-133.778
M16
G05
G00X148.681Y-66.56
M15
G01X148.681Y-66.56
M16
G05
G00X148.725Y-85.595
M15
G01X148.725Y-85.595
M16
G05
G00X148.744Y-104.72
M15
G01X148.744Y-104.72
M16
G05
G00X150.736Y-126.159
M15
G01X150.736Y-126.159
M16
G05
G00X167.768Y-83.709
M15
G01X167.768Y-83.709
M16
G05
G00X167.811Y-102.744
M15
G01X167.811Y-102.744
M16
G05
G00X167.815Y-64.699
M15
G01X167.815Y-64.699
M16
G05
G00X171.847Y-122.951
M15
G01X171.847Y-122.951
M16
G05
G00X186.805Y-97.06
M15
G01X186.805Y-97.06
M16
G05
G00X186.832Y-58.924
M15
G01X186.832Y-58.924
M16
G05
G00X186.852Y-78.049
M15
G01X186.852Y-78.049
M16
G05
G00X205.846Y-81.78
M15
G01X205.846Y-81.78
M16
G05
G00X205.865Y-100.905
M15
G01X205.865Y-100.905
M16
G05
G00X205.893Y-62.769
M15
G01X205.893Y-62.769
M16
G05
G00X224.88Y-72.322
M15
G01X224.88Y-72.322
M16
G05
G00X224.924Y-91.357
M15
G01X224.924Y-91.357
M16
G05
G00X224.967Y-110.391
M15
G01X224.967Y-110.391
M16
G05
T8
G00X125.958Y-109.241
M15
G01X127.258Y-109.241
M16
G05
G00X125.958Y-120.441
M15
G01X127.258Y-120.441
M16
G05
T0
M30
