M48
; DRILL file {KiCad (5.99.0-11550-g369d813a32)} date Wed Aug 18 15:47:24 2021
; FORMAT={-:-/ absolute / metric / decimal}
; #@! TF.CreationDate,2021-08-18T15:47:24+05:30
; #@! TF.GenerationSoftware,Kicad,Pcbnew,(5.99.0-11550-g369d813a32)
; #@! TF.FileFunction,NonPlated,1,2,NPTH
FMAT,2
METRIC
; #@! TA.AperFunction,NonPlated,NPTH,ComponentDrill
T1C0.800
; #@! TA.AperFunction,NonPlated,NPTH,ComponentDrill
T2C1.200
; #@! TA.AperFunction,NonPlated,NPTH,ComponentDrill
T3C1.700
; #@! TA.AperFunction,NonPlated,NPTH,ComponentDrill
T4C1.800
; #@! TA.AperFunction,NonPlated,NPTH,ComponentDrill
T5C2.200
; #@! TA.AperFunction,NonPlated,NPTH,ComponentDrill
T6C3.988
%
G90
G05
T1
X116.568Y-61.744
X116.568Y-61.78
X116.568Y-68.744
X116.568Y-68.78
T2
X116.587Y-151.533
X124.869Y-145.177
X132.699Y-140.482
X142.161Y-136.07
X147.271Y-73.3
X147.315Y-92.335
X147.334Y-111.46
X150.818Y-133.044
X157.711Y-73.3
X157.755Y-92.335
X157.774Y-111.46
X161.011Y-130.784
X166.358Y-90.449
X166.401Y-109.484
X166.405Y-71.439
X170.437Y-129.691
X176.798Y-90.449
X176.841Y-109.484
X176.845Y-71.439
X180.877Y-129.691
X185.395Y-103.8
X185.422Y-65.664
X185.442Y-84.789
X195.835Y-103.8
X195.862Y-65.664
X195.882Y-84.789
X204.436Y-88.52
X204.455Y-107.645
X204.483Y-69.509
X214.876Y-88.52
X214.895Y-107.645
X214.923Y-69.509
X223.47Y-79.062
X223.514Y-98.097
X223.557Y-117.131
X233.91Y-79.062
X233.954Y-98.097
X233.997Y-117.131
T3
X113.808Y-148.371
X122.535Y-141.675
X130.67Y-136.794
X140.639Y-132.145
X146.991Y-69.1
X147.035Y-88.135
X147.054Y-107.26
X149.636Y-129.004
X157.991Y-69.1
X158.035Y-88.135
X158.054Y-107.26
X160.375Y-126.623
X166.078Y-86.249
X166.121Y-105.284
X166.125Y-67.239
X170.157Y-125.491
X177.078Y-86.249
X177.121Y-105.284
X177.125Y-67.239
X181.157Y-125.491
X185.115Y-99.6
X185.142Y-61.464
X185.162Y-80.589
X196.115Y-99.6
X196.142Y-61.464
X196.162Y-80.589
X204.156Y-84.32
X204.175Y-103.445
X204.203Y-65.309
X215.156Y-84.32
X215.175Y-103.445
X215.203Y-65.309
X223.19Y-74.862
X223.234Y-93.897
X223.277Y-112.931
X234.19Y-74.862
X234.234Y-93.897
X234.277Y-112.931
T4
X114.141Y-148.115
X122.201Y-141.93
X131.051Y-136.617
X140.259Y-132.323
X147.411Y-69.1
X147.455Y-88.135
X147.474Y-107.26
X150.046Y-128.913
X157.571Y-69.1
X157.615Y-88.135
X157.634Y-107.26
X159.965Y-126.714
X166.498Y-86.249
X166.541Y-105.284
X166.545Y-67.239
X170.577Y-125.491
X176.658Y-86.249
X176.701Y-105.284
X176.705Y-67.239
X180.737Y-125.491
X185.535Y-99.6
X185.562Y-61.464
X185.582Y-80.589
X195.695Y-99.6
X195.722Y-61.464
X195.742Y-80.589
X204.576Y-84.32
X204.595Y-103.445
X204.623Y-65.309
X214.736Y-84.32
X214.755Y-103.445
X214.783Y-65.309
X223.61Y-74.862
X223.654Y-93.897
X223.697Y-112.931
X233.77Y-74.862
X233.814Y-93.897
X233.857Y-112.931
T5
X114.808Y-121.92
X133.408Y-69.974
X154.178Y-117.856
X171.578Y-76.654
X209.675Y-74.673
X213.868Y-117.602
T6
X118.171Y-145.023
X135.655Y-134.47
X152.491Y-69.1
X152.535Y-88.135
X152.554Y-107.26
X155.005Y-127.814
X171.578Y-86.249
X171.621Y-105.284
X171.625Y-67.239
X175.657Y-125.491
X190.615Y-99.6
X190.642Y-61.464
X190.662Y-80.589
X209.656Y-84.32
X209.675Y-103.445
X209.703Y-65.309
X228.69Y-74.862
X228.734Y-93.897
X228.777Y-112.931
T0
M30
