0
SECTION
2
HEADER
9
$INSUNITS
70
4
9
$ACADVER
1
AC1014
9
$HANDSEED
5
FFFF
0
ENDSEC
0
SECTION
2
TABLES
0
TABLE
2
VPORT
5
8
100
AcDbSymbolTable
0
ENDTAB
0
TABLE
2
LTYPE
5
5
100
AcDbSymbolTable
0
LTYPE
5
14
100
AcDbSymbolTableRecord
100
AcDbLinetypeTableRecord
2
BYBLOCK
70
0
0
LTYPE
5
15
100
AcDbSymbolTableRecord
100
AcDbLinetypeTableRecord
2
BYLAYER
70
0
0
ENDTAB
0
TABLE
2
LAYER
5
2
100
AcDbSymbolTable
70
2
0
LAYER
5
50
100
AcDbSymbolTableRecord
100
AcDbLayerTableRecord
2
0
70
0
6
CONTINUOUS
0
ENDTAB
0
TABLE
2
STYLE
5
3
100
AcDbSymbolTable
70
1
0
STYLE
5
11
100
AcDbSymbolTableRecord
100
AcDbTextStyleTableRecord
2
STANDARD
70
0
0
ENDTAB
0
TABLE
2
VIEW
5
6
100
AcDbSymbolTable
70
0
0
ENDTAB
0
TABLE
2
UCS
5
7
100
AcDbSymbolTable
70
0
0
ENDTAB
0
TABLE
2
APPID
5
9
100
AcDbSymbolTable
70
2
0
APPID
5
12
100
AcDbSymbolTableRecord
100
AcDbRegAppTableRecord
2
ACAD
70
0
0
ENDTAB
0
TABLE
2
DIMSTYLE
5
A
100
AcDbSymbolTable
70
1
0
ENDTAB
0
TABLE
2
BLOCK_RECORD
5
1
100
AcDbSymbolTable
70
1
0
BLOCK_RECORD
5
1F
100
AcDbSymbolTableRecord
100
AcDbBlockTableRecord
2
*MODEL_SPACE
0
BLOCK_RECORD
5
1B
100
AcDbSymbolTableRecord
100
AcDbBlockTableRecord
2
*PAPER_SPACE
0
ENDTAB
0
ENDSEC
0
SECTION
2
BLOCKS
0
BLOCK
5
20
100
AcDbEntity
100
AcDbBlockBegin
2
*MODEL_SPACE
0
ENDBLK
5
21
100
AcDbEntity
100
AcDbBlockEnd
0
BLOCK
5
1C
100
AcDbEntity
100
AcDbBlockBegin
2
*PAPER_SPACE
0
ENDBLK
5
1D
100
AcDbEntity
100
AcDbBlockEnd
0
ENDSEC
0
SECTION
2
ENTITIES
0
ARC
5
100
100
AcDbEntity
8
0
100
AcDbCircle
10
46.813738763527084
20
4.267563873841949
30
0
40
3.5
210
0
220
0
230
1
100
AcDbArc
50
90.000000058643991
51
179.9981669525545
0
LINE
5
101
100
AcDbEntity
8
0
100
AcDbLine
10
43.31373876531827
20
4.26767584834319
30
0
11
43.313626780916707
21
0.76736639437171128
31
0
0
LINE
5
102
100
AcDbEntity
8
0
100
AcDbLine
10
43.313626780916707
20
0.76736639437171128
30
0
11
25.915478448196101
21
0.76792300836687311
31
0
0
LINE
5
103
100
AcDbEntity
8
0
100
AcDbLine
10
25.915478448196101
20
0.76792300836687311
30
0
11
10.60379077380821
21
0.7668494435841211
31
0
0
ARC
5
104
100
AcDbEntity
8
0
100
AcDbCircle
10
10.617831274891504
20
-7.3102960024957202
30
0
40
8.0771576493714043
210
0
220
0
230
1
100
AcDbArc
50
90.099597147212052
51
91.644249890773068
0
SPLINE
5
105
100
AcDbEntity
8
0
100
AcDbSpline
70
0
71
3
72
20
73
16
74
0
42
0.000000001
43
0.0000000001
44
0.0000000001
40
0.015726220577346201
40
0.015726220577346201
40
0.015726220577346201
40
0.015726220577346201
40
0.41346107355923117
40
0.41346107355923117
40
0.41346107355923117
40
0.86795711824561006
40
0.86795711824561006
40
0.86795711824561006
40
1
40
1
40
1
40
1.0032942689811895
40
1.0032942689811895
40
1.0032942689811895
40
1.0065885379623787
40
1.0065885379623787
40
1.0065885379623787
40
1.0065885379623787
10
10.386068257450024
20
0.76353590042036368
30
0
10
8.6122339760593754
20
0.71259543400877701
30
0
10
6.9180219502343077
20
0.0786798522219294
30
0
10
5.5920851084179031
20
-0.93745822263883949
30
0
10
4.0769223169464919
20
-2.0986105139631439
30
0
10
2.9733337215003921
20
-3.7756863837389298
30
0
10
2.5454654862823665
20
-5.7279229653525441
30
0
10
2.4211586733851536
20
-6.2950982952951389
30
0
10
2.3556875861823983
20
-6.8825169690438077
30
0
10
2.3539379335158306
20
-7.472917852047293
30
0
10
2.3539338354452219
20
-7.4743007005131998
30
0
10
2.3539297373746035
20
-7.4756835489825164
30
0
10
2.3539256393039798
20
-7.4770663974538287
30
0
10
2.3539215412333836
20
-7.478449245915149
30
0
10
2.3539174431627687
20
-7.4798320943834344
30
0
10
2.3539133450921588
20
-7.4812149428497365
30
0
0
LINE
5
106
100
AcDbEntity
8
0
100
AcDbLine
10
2.3539133450921592
20
-7.4812149428497365
30
0
11
2.3526599867473941
21
-78.39886589168924
31
0
0
LINE
5
107
100
AcDbEntity
8
0
100
AcDbLine
10
2.3526599867473941
20
-78.39886589168924
30
0
11
2.3531803683528629
21
-80.984437698453959
31
0
0
SPLINE
5
108
100
AcDbEntity
8
0
100
AcDbSpline
70
0
71
3
72
11
73
7
74
0
42
0.000000001
43
0.0000000001
44
0.0000000001
40
0.26541228759051322
40
0.26541228759051322
40
0.26541228759051322
40
0.26541228759051322
40
1
40
1
40
1
40
1.2667507738132739
40
1.2667507738132739
40
1.2667507738132739
40
1.2667507738132739
10
2.3531803683528709
20
-80.984437698453959
30
0
10
-0.29500612361799128
20
-83.179628041296695
30
0
10
-2.840810134925289
20
-85.496752765222425
30
0
10
-5.2757966405619428
20
-87.928461328679518
30
0
10
-6.1005100079604428
20
-88.752064479357401
30
0
10
-6.9252233753589483
20
-89.575667630035284
30
0
10
-7.7499367427574413
20
-90.399270780713152
30
0
0
SPLINE
5
109
100
AcDbEntity
8
0
100
AcDbSpline
70
0
71
3
72
16
73
12
74
0
42
0.000000001
43
0.0000000001
44
0.0000000001
40
0
40
0
40
0
40
0
40
0.15625778935477047
40
0.15625778935477047
40
0.31251557870954005
40
0.31251557870954005
40
0.46877336806431003
40
0.46877336806431003
40
0.5491551102408917
40
0.5491551102408917
40
0.62953685241747315
40
0.62953685241747315
40
0.62953685241747315
40
0.62953685241747315
10
-7.7564860668210365
20
-96.053378219628414
30
1.27675647831893e-14
10
-8.1241835474704214
20
-95.684470411524416
30
1.27675647831893e-14
10
-8.4163097415816264
20
-95.247270068789192
30
1.1102230246251565e-15
10
-8.8165337417176364
20
-94.285501706687853
30
1.1102230246251565e-15
10
-8.9208051881622037
20
-93.770128717067664
30
5.5511151231257827e-16
10
-8.9259287196946495
20
-92.728422721093452
30
5.5511151231257827e-16
10
-8.8267318210285417
20
-92.212048991834592
30
5.5511151231257827e-16
10
-8.5308569425416998
20
-91.480843799865625
30
5.5511151231257827e-16
10
-8.4056518466135657
20
-91.243193454238835
30
0
10
-8.1096124971543855
20
-90.796509857260816
30
0
10
-7.9395258940677591
20
-90.588604709961956
30
2.2204460492503131e-15
10
-7.7499367427574084
20
-90.399270780713181
30
2.2204460492503131e-15
0
LINE
5
110
100
AcDbEntity
8
0
100
AcDbLine
10
-7.7564860668210365
20
-96.053378219628414
30
1.27675647831893e-14
11
-5.366348208246805
21
-98.45138354975947
31
0
0
LINE
5
111
100
AcDbEntity
8
0
100
AcDbLine
10
-5.366348208246805
20
-98.45138354975947
30
0
11
-1.0174327618660328
21
-103.13950697284524
31
0
0
LINE
5
112
100
AcDbEntity
8
0
100
AcDbLine
10
-1.0174327618660328
20
-103.13950697284524
30
0
11
-3.5833946731232214
21
-105.51980936329426
31
0
0
ARC
5
113
100
AcDbEntity
8
0
100
AcDbCircle
10
-1.2030922826741919
20
-108.08577127455145
30
0
40
3.5000000000000075
210
0
220
0
230
1
100
AcDbArc
50
132.8503947999412
51
312.85039479994043
0
LINE
5
114
100
AcDbEntity
8
0
100
AcDbLine
10
1.1772101077748032
20
-110.65173318580867
30
0
11
3.743172019031995
21
-108.27143079535959
31
0
0
LINE
5
115
100
AcDbEntity
8
0
100
AcDbLine
10
3.743172019031995
20
-108.27143079535959
30
0
11
9.8365732939372847
21
-114.84010696194674
31
0
0
SPLINE
5
116
100
AcDbEntity
8
0
100
AcDbSpline
70
0
71
3
72
16
73
12
74
0
42
0.000000001
43
0.0000000001
44
0.0000000001
40
0
40
0
40
0
40
0
40
0.15625778935477114
40
0.15625778935477114
40
0.31251557870954205
40
0.31251557870954205
40
0.46877336806431325
40
0.46877336806431325
40
0.5584036863961479
40
0.5584036863961479
40
0.64803400472798167
40
0.64803400472798167
40
0.64803400472798167
40
0.64803400472798167
10
15.619014880359609
20
-114.92653745439182
30
-1.1102230246251565e-15
10
15.253531025598217
20
-115.29763846498697
30
-1.1102230246251565e-15
10
14.819057116263782
20
-115.59380442366782
30
0
10
13.861039655558914
20
-116.00292564972266
30
0
10
13.346655273272676
20
-116.11196949518722
30
0
10
12.305041513752959
20
-116.12674814882004
30
0
10
11.787770531783842
20
-116.03234166500457
30
0
10
11.025170725315272
20
-115.73195858241817
30
0
10
10.76033094239447
20
-115.59166347939993
30
0
10
10.266851252194725
20
-115.25472666634086
30
0
10
10.039761161539163
20
-115.05914313616898
30
-2.2204460492503131e-15
10
9.8365732939372847
20
-114.84010696194674
30
-2.2204460492503131e-15
0
SPLINE
5
117
100
AcDbEntity
8
0
100
AcDbSpline
70
0
71
3
72
11
73
7
74
0
42
0.000000001
43
0.0000000001
44
0.0000000001
40
-1.3847049995879179
40
-1.3847049995879179
40
-1.3847049995879179
40
-1.3847049995879179
40
0
40
0
40
0
40
1
40
1
40
1
40
1
10
15.619014880359616
20
-114.92653745439182
30
0
10
16.475474308474727
20
-114.0569150205506
30
0
10
17.331933736589853
20
-113.18729258670939
30
0
10
18.188393164704976
20
-112.31767015286815
30
0
10
18.753525297814502
20
-111.74385245070546
30
0
10
19.32688905096953
20
-111.17914169087838
30
0
10
19.908170794404711
20
-110.62424750430498
30
0
0
SPLINE
5
118
100
AcDbEntity
8
0
100
AcDbSpline
70
0
71
3
72
8
73
4
74
0
42
0.000000001
43
0.0000000001
44
0.0000000001
40
1.9433332375246123e-05
40
1.9433332375246123e-05
40
1.9433332375246123e-05
40
1.9433332375246123e-05
40
0.99589815244268565
40
0.99589815244268565
40
0.99589815244268565
40
0.99589815244268565
10
19.908170841812005
20
-110.62424755399138
30
0
10
31.881778715812121
20
-99.197430740689782
30
0
10
47.211879577843547
20
-91.931544460912548
30
0
10
63.633753285901079
20
-89.896473906467321
30
0
0
SPLINE
5
119
100
AcDbEntity
8
0
100
AcDbSpline
70
0
71
3
72
14
73
10
74
0
42
0.000000001
43
0.0000000001
44
0.0000000001
40
0.052273269013483704
40
0.052273269013483704
40
0.052273269013483704
40
0.052273269013483704
40
0.41483076128064056
40
0.41483076128064056
40
0.41483076128064056
40
0.86984727662195116
40
0.86984727662195116
40
0.86984727662195116
40
1
40
1
40
1
40
1
10
63.633753285901093
20
-89.896473906467534
30
0
10
65.237295022030452
20
-89.760356485576565
30
0
10
66.756966710370364
20
-89.147002383078956
30
0
10
67.970840424806781
20
-88.213250507136109
30
0
10
69.494274912819705
20
-87.04137422862344
30
0
10
70.598940049434546
20
-85.343029008204624
30
0
10
71.015572765696874
20
-83.381032752449769
30
0
10
71.134746204114293
20
-82.819824208728065
30
0
10
71.196182763952379
20
-82.240079868347479
30
0
10
71.195832640528451
20
-81.658577241886391
30
0
0
LINE
5
120
100
AcDbEntity
8
0
100
AcDbLine
10
71.195832640528451
20
-81.658577241886391
30
0
11
71.195580034831238
21
-81.025666613629795
31
0
0
LINE
5
121
100
AcDbEntity
8
0
100
AcDbLine
10
71.195580034831238
20
-81.025666613629795
30
0
11
71.195677305620876
21
-76.843411742726047
31
0
0
LINE
5
122
100
AcDbEntity
8
0
100
AcDbLine
10
71.195677305620876
20
-76.843411742726047
30
0
11
74.506199180465416
21
-76.843077000000022
31
0
0
LINE
5
123
100
AcDbEntity
8
0
100
AcDbLine
10
74.506199180465416
20
-76.843077000000022
30
0
11
135.33786783065185
21
-76.843077000000022
31
0
0
LINE
5
124
100
AcDbEntity
8
0
100
AcDbLine
10
135.33786783065185
20
-76.843077000000022
30
0
11
139.33830466113466
21
-76.844093578664882
31
0
0
SPLINE
5
125
100
AcDbEntity
8
0
100
AcDbSpline
70
0
71
3
72
14
73
10
74
0
42
0.000000001
43
0.0000000001
44
0.0000000001
40
0.0012037225973479898
40
0.0012037225973479898
40
0.0012037225973479898
40
0.0012037225973479898
40
0.41427105489097876
40
0.41427105489097876
40
0.41427105489097876
40
0.86948300463283745
40
0.86948300463283745
40
0.86948300463283745
40
0.99882240253579069
40
0.99882240253579069
40
0.99882240253579069
40
0.99882240253579069
10
139.33830466092633
20
-76.844094399096818
30
0
10
141.1869435181091
20
-76.844939084816872
30
0
10
142.97682238508602
20
-76.205442273173588
30
0
10
144.36597305463033
20
-75.14099373337811
30
0
10
145.89685660636798
20
-73.967941164660985
30
0
10
147.00632375593418
20
-72.263418749718099
30
0
10
147.42289635756219
20
-70.296573098367958
30
0
10
147.54125715522576
20
-69.737733128420047
30
0
10
147.6023255230628
20
-69.160717901586082
30
0
10
147.60221057007931
20
-68.582092999999134
30
0
0
LINE
5
126
100
AcDbEntity
8
0
100
AcDbLine
10
147.60221057007928
20
-68.582092999999134
30
0
11
151.10221057007928
21
-68.582092999999134
31
0
0
ARC
5
127
100
AcDbEntity
8
0
100
AcDbCircle
10
151.10221057007925
20
-65.082092999999134
30
0
40
3.5000000000000053
210
0
220
0
230
1
100
AcDbArc
50
-89.999999999999545
51
90
0
LINE
5
128
100
AcDbEntity
8
0
100
AcDbLine
10
151.10221057007925
20
-61.582092999999119
30
0
11
147.60221047124469
21
-61.582092999999141
31
0
0
LINE
5
129
100
AcDbEntity
8
0
100
AcDbLine
10
147.60221047124469
20
-61.582092999999141
30
0
11
147.60220909883461
21
-20.210144000000003
31
0
0
LINE
5
130
100
AcDbEntity
8
0
100
AcDbLine
10
147.60220909883461
20
-20.210144000000003
30
0
11
151.10220900000002
21
-20.210144000000003
31
0
0
ARC
5
131
100
AcDbEntity
8
0
100
AcDbCircle
10
151.10220900000002
20
-16.710144000000003
30
0
40
3.5000000000000009
210
0
220
0
230
1
100
AcDbArc
50
-90
51
90
0
LINE
5
132
100
AcDbEntity
8
0
100
AcDbLine
10
151.10220900000002
20
-13.210144000000001
30
0
11
147.60220965403855
21
-13.210144130194905
31
0
0
SPLINE
5
133
100
AcDbEntity
8
0
100
AcDbSpline
70
0
71
3
72
20
73
16
74
0
42
0.000000001
43
0.0000000001
44
0.0000000001
40
0.0011786900309881929
40
0.0011786900309881929
40
0.0011786900309881929
40
0.0011786900309881929
40
0.40927542247564441
40
0.40927542247564441
40
0.40927542247564441
40
0.87102598953680754
40
0.87102598953680754
40
0.87102598953680754
40
1
40
1
40
1
40
1.0025395856347523
40
1.0025395856347523
40
1.0025395856347523
40
1.0050791712695049
40
1.0050791712695049
40
1.0050791712695049
40
1.0050791712695049
10
147.60221057153663
20
-13.210143999999689
30
0
10
147.6025732249654
20
-11.377354255754625
30
0
10
146.97363763719335
20
-9.6086740838912057
30
0
10
145.93476536220021
20
-8.2327976936611016
30
0
10
144.75930909424966
20
-6.676030258673185
30
0
10
143.04511453986831
20
-5.5519271736747999
30
0
10
141.06069503693578
20
-5.1294037159645303
30
0
10
140.50641625529073
20
-5.0113864383626803
30
0
10
139.93392127504646
20
-4.9496221236481341
30
0
10
139.35918439506958
20
-4.9481680044129508
30
0
10
139.35811337815662
20
-4.9481652946750723
30
0
10
139.35704236125164
20
-4.9481625849372133
30
0
10
139.35597134435164
20
-4.948159875199365
30
0
10
139.35490032742615
20
-4.9481571654614545
30
0
10
139.35382931051848
20
-4.9481544557235893
30
0
10
139.3527582936058
20
-4.9481517459857107
30
0
0
LINE
5
134
100
AcDbEntity
8
0
100
AcDbLine
10
139.35275829360577
20
-4.9481517459857098
30
0
11
135.33981996524454
21
-4.9470770000000019
31
0
0
LINE
5
135
100
AcDbEntity
8
0
100
AcDbLine
10
135.33981996524454
20
-4.9470770000000019
30
0
11
124.42496300000001
21
-4.9470770000000019
31
0
0
LINE
5
136
100
AcDbEntity
8
0
100
AcDbLine
10
124.42496300000001
20
-4.9470770000000019
30
0
11
124.42496429816494
21
-3.6851439999992319
31
0
0
SPLINE
5
137
100
AcDbEntity
8
0
100
AcDbSpline
70
0
71
3
72
20
73
16
74
0
42
0.000000001
43
0.0000000001
44
0.0000000001
40
0.0015146416662986069
40
0.0015146416662986069
40
0.0015146416662986069
40
0.0015146416662986069
40
0.40867608758513613
40
0.40867608758513613
40
0.40867608758513613
40
0.87147714426173561
40
0.87147714426173561
40
0.87147714426173561
40
1
40
1
40
1
40
1.0028384541807278
40
1.0028384541807278
40
1.0028384541807278
40
1.0056769083614558
40
1.0056769083614558
40
1.0056769083614558
40
1.0056769083614558
10
124.42496559632987
20
-3.6851439999992297
30
0
10
124.42543074415011
20
-1.8556585225052067
30
0
10
123.79856047263658
20
-0.089206346890858101
30
0
10
122.76270622925477
20
1.2855697950714458
30
0
10
121.58529996153165
20
2.8482124705293788
30
0
10
119.8659588081813
20
3.9751918035674487
30
0
10
117.87700881643134
20
4.396982953900177
30
0
10
117.32466450093655
20
4.5141170926058525
30
0
10
116.75437473929053
20
4.575384568615787
30
0
10
116.18192697347314
20
4.576832024475685
30
0
10
116.1807291940621
20
4.576835053106298
30
0
10
116.17953141465156
20
4.5768380817369083
30
0
10
116.17833363524082
20
4.5768411103675195
30
0
10
116.17713585583276
20
4.5768441389981245
30
0
10
116.17593807642035
20
4.5768471676287383
30
0
10
116.17474029700917
20
4.5768501962593504
30
0
0
LINE
5
138
100
AcDbEntity
8
0
100
AcDbLine
10
116.17474029700915
20
4.5768501962593513
30
0
11
104.27994916211202
21
4.5768560000005465
31
0
0
SPLINE
5
139
100
AcDbEntity
8
0
100
AcDbSpline
70
0
71
3
72
20
73
16
74
0
42
0.000000001
43
0.0000000001
44
0.0000000001
40
0.34725260923150514
40
0.34725260923150514
40
0.34725260923150514
40
0.34725260923150514
40
0.40866704128344788
40
0.40866704128344788
40
0.40866704128344788
40
0.87148233937696373
40
0.87148233937696373
40
0.87148233937696373
40
1
40
1
40
1
40
1.0028491196522034
40
1.0028491196522034
40
1.0028491196522034
40
1.0056982393044069
40
1.0056982393044069
40
1.0056982393044069
40
1.0056982393044069
10
104.27994916211202
20
4.5768560000005447
30
0
10
104.14246894601065
20
4.8005467482462167
30
0
10
103.99601280873978
20
5.0151093075697029
30
0
10
103.83977262238197
20
5.222475570831091
30
0
10
102.66235640265343
20
6.7851746912053823
30
0
10
100.94298628642504
20
7.9121838764423877
30
0
10
98.953994701489876
20
8.3339816010525496
30
0
10
98.401678158480692
20
8.4511092263629486
30
0
10
97.831417730423283
20
8.5123760335767411
30
0
10
97.258998065700126
20
8.5138288443793524
30
0
10
97.257795785641974
20
8.5138318957865007
30
0
10
97.256593505583766
20
8.5138349471936507
30
0
10
97.255391225525585
20
8.5138379986007973
30
0
10
97.254188945467405
20
8.5138410500079438
30
0
10
97.252986665409196
20
8.5138441014150903
30
0
10
97.251784385350987
20
8.5138471528222386
30
0
0
LINE
5
140
100
AcDbEntity
8
0
100
AcDbLine
10
97.251784385350973
20
8.5138471528222368
30
0
11
79.829006299595079
21
8.5138469079585555
31
0
0
SPLINE
5
141
100
AcDbEntity
8
0
100
AcDbSpline
70
0
71
3
72
17
73
13
74
0
42
0.000000001
43
0.0000000001
44
0.0000000001
40
-0.0057041505044582927
40
-0.0057041505044582927
40
-0.0057041505044582927
40
-0.0057041505044582927
40
-0.0028520752522291463
40
-0.0028520752522291463
40
-0.0028520752522291463
40
0
40
0
40
0
40
0.41374629194293155
40
0.41374629194293155
40
0.41374629194293155
40
0.80625828758294937
40
0.80625828758294937
40
0.80625828758294937
40
0.80625828758294937
10
79.829006299595079
20
8.5138469079585537
30
0
10
79.827809292167927
20
8.5138438533859588
30
0
10
79.826612284740733
20
8.513840798813364
30
0
10
79.825415277313596
20
8.5138377442407691
30
0
10
79.824218269886472
20
8.5138346896681742
30
0
10
79.823021262459335
20
8.5138316350955776
30
0
10
79.821824255032197
20
8.5138285805229827
30
0
10
77.970874526307355
20
8.5091052511699878
30
0
10
76.19342071834248
20
7.8652034216339857
30
0
10
74.814370487979929
20
6.8074660999174146
30
0
10
73.506095903897148
20
5.8040139963100055
30
0
10
72.506552208172423
20
4.4167247078989789
30
0
10
71.981840254709752
20
2.7988559999999421
30
0
0
LINE
5
142
100
AcDbEntity
8
0
100
AcDbLine
10
71.981840254709752
20
2.7988559999999425
30
0
11
60.779050893176262
21
2.7988499532200883
31
0
0
SPLINE
5
143
100
AcDbEntity
8
0
100
AcDbSpline
70
0
71
3
72
17
73
13
74
0
42
0.000000001
43
0.0000000001
44
0.0000000001
40
-0.0056827971136848097
40
-0.0056827971136848097
40
-0.0056827971136848097
40
-0.0056827971136848097
40
-0.0028413985568424048
40
-0.0028413985568424048
40
-0.0028413985568424048
40
0
40
0
40
0
40
0.41373644092236483
40
0.41373644092236483
40
0.41373644092236483
40
0.45461962454053267
40
0.45461962454053267
40
0.45461962454053267
40
0.45461962454053267
10
60.779050893176276
20
2.798849953220091
30
0
10
60.777858366726186
20
2.7988469214478311
30
0
10
60.776665840274376
20
2.7988438896755681
30
0
10
60.775473313824264
20
2.7988408579033077
30
0
10
60.774280787375218
20
2.7988378261310487
30
0
10
60.773088260925114
20
2.7988347943587883
30
0
10
60.771895734477425
20
2.7988317625865342
30
0
10
58.92097392707133
20
2.7941261450374411
30
0
10
57.143529102284269
20
2.1502558176168498
30
0
10
55.764479403401019
20
1.0925556185916363
30
0
10
55.628209216679416
20
0.98803944072410688
30
0
10
55.495685773106025
20
0.87968213535604556
30
0
10
55.366273659493153
20
0.76698079747927084
30
0
0
LINE
5
144
100
AcDbEntity
8
0
100
AcDbLine
10
55.366273659493146
20
0.76698079747927084
30
0
11
50.313626773751977
21
0.7671424453693465
31
0
0
LINE
5
145
100
AcDbEntity
8
0
100
AcDbLine
10
50.313626773751977
20
0.7671424453693465
30
0
11
50.313738758153534
21
4.2674518993407098
31
0
0
ARC
5
146
100
AcDbEntity
8
0
100
AcDbCircle
10
46.813738763527084
20
4.267563873841949
30
0
40
3.49999999641763
210
0
220
0
230
1
100
AcDbArc
50
-0.0018330474454752066
51
90.000000058643991
0
CIRCLE
5
147
100
AcDbEntity
8
0
100
AcDbCircle
10
12.758286362876539
20
-112.84330371184242
30
0
40
1.05
210
0
220
0
230
1
0
CIRCLE
5
148
100
AcDbEntity
8
0
100
AcDbCircle
10
142.58222322250558
20
-71.814220999230741
30
0
40
1.05
210
0
220
0
230
1
0
CIRCLE
5
149
100
AcDbEntity
8
0
100
AcDbCircle
10
142.57522574105718
20
-9.9710541323005621
30
0
40
1.05
210
0
220
0
230
1
0
CIRCLE
5
150
100
AcDbEntity
8
0
100
AcDbCircle
10
42.475968157521997
20
-2.7324798534943815
30
0
40
1.05
210
0
220
0
230
1
0
CIRCLE
5
151
100
AcDbEntity
8
0
100
AcDbCircle
10
7.0060751105691637
20
-4.4869238488712675
30
0
40
1.05
210
0
220
0
230
1
0
CIRCLE
5
152
100
AcDbEntity
8
0
100
AcDbCircle
10
151.10220900000002
20
-16.710144000000003
30
0
40
1.9999999999999929
210
0
220
0
230
1
0
CIRCLE
5
153
100
AcDbEntity
8
0
100
AcDbCircle
10
-1.2030922826741919
20
-108.08577127455145
30
0
40
2.0000000000000053
210
0
220
0
230
1
0
CIRCLE
5
154
100
AcDbEntity
8
0
100
AcDbCircle
10
46.813738759944776
20
4.2674519011318912
30
0
40
2.0000000000000018
210
0
220
0
230
1
0
CIRCLE
5
155
100
AcDbEntity
8
0
100
AcDbCircle
10
151.10221057007925
20
-65.082092999999134
30
0
40
1.9999999999999929
210
0
220
0
230
1
0
CIRCLE
5
156
100
AcDbEntity
8
0
100
AcDbCircle
10
12.758286362876539
20
-112.84330371184242
30
0
40
1.05
210
0
220
0
230
1
0
CIRCLE
5
157
100
AcDbEntity
8
0
100
AcDbCircle
10
142.58222322250558
20
-71.814220999230741
30
0
40
1.05
210
0
220
0
230
1
0
CIRCLE
5
158
100
AcDbEntity
8
0
100
AcDbCircle
10
142.57522574105718
20
-9.9710541323005621
30
0
40
1.05
210
0
220
0
230
1
0
CIRCLE
5
159
100
AcDbEntity
8
0
100
AcDbCircle
10
42.475968157521997
20
-2.7324798534943815
30
0
40
1.05
210
0
220
0
230
1
0
CIRCLE
5
160
100
AcDbEntity
8
0
100
AcDbCircle
10
7.0060751105691637
20
-4.4869238488712675
30
0
40
1.05
210
0
220
0
230
1
0
ARC
5
161
100
AcDbEntity
8
0
100
AcDbCircle
10
46.813738763527084
20
4.267563873841949
30
0
40
3.5000000000000009
210
0
220
0
230
1
100
AcDbArc
50
90.000000058643991
51
179.9981669525545
0
LINE
5
162
100
AcDbEntity
8
0
100
AcDbLine
10
43.31373876531827
20
4.26767584834319
30
0
11
43.313626780916707
21
0.76736639437171128
31
0
0
LINE
5
163
100
AcDbEntity
8
0
100
AcDbLine
10
43.313626780916707
20
0.76736639437171128
30
0
11
25.915478448196101
21
0.76792300836687311
31
0
0
LINE
5
164
100
AcDbEntity
8
0
100
AcDbLine
10
25.915478448196101
20
0.76792300836687311
30
0
11
10.60379077380821
21
0.7668494435841211
31
0
0
ARC
5
165
100
AcDbEntity
8
0
100
AcDbCircle
10
10.617831274891504
20
-7.3102960024957202
30
0
40
8.0771576493714043
210
0
220
0
230
1
100
AcDbArc
50
90.099597147212052
51
91.644249890773025
0
SPLINE
5
166
100
AcDbEntity
8
0
100
AcDbSpline
70
0
71
3
72
20
73
16
74
0
42
0.000000001
43
0.0000000001
44
0.0000000001
40
0.015726220577346201
40
0.015726220577346201
40
0.015726220577346201
40
0.015726220577346201
40
0.41346107355923117
40
0.41346107355923117
40
0.41346107355923117
40
0.86795711824561006
40
0.86795711824561006
40
0.86795711824561006
40
1
40
1
40
1
40
1.0032942689811895
40
1.0032942689811895
40
1.0032942689811895
40
1.0065885379623787
40
1.0065885379623787
40
1.0065885379623787
40
1.0065885379623787
10
10.386068257450024
20
0.76353590042036368
30
0
10
8.6122339760593754
20
0.71259543400877701
30
0
10
6.9180219502343077
20
0.0786798522219294
30
0
10
5.5920851084179031
20
-0.93745822263883949
30
0
10
4.0769223169464919
20
-2.0986105139631439
30
0
10
2.9733337215003921
20
-3.7756863837389298
30
0
10
2.5454654862823665
20
-5.7279229653525441
30
0
10
2.4211586733851536
20
-6.2950982952951389
30
0
10
2.3556875861823983
20
-6.8825169690438077
30
0
10
2.3539379335158306
20
-7.472917852047293
30
0
10
2.3539338354452219
20
-7.4743007005131998
30
0
10
2.3539297373746035
20
-7.4756835489825164
30
0
10
2.3539256393039798
20
-7.4770663974538287
30
0
10
2.3539215412333836
20
-7.478449245915149
30
0
10
2.3539174431627687
20
-7.4798320943834344
30
0
10
2.3539133450921588
20
-7.4812149428497365
30
0
0
LINE
5
167
100
AcDbEntity
8
0
100
AcDbLine
10
2.3539133450921592
20
-7.4812149428497365
30
0
11
2.3526599867473941
21
-78.39886589168924
31
0
0
LINE
5
168
100
AcDbEntity
8
0
100
AcDbLine
10
2.3526599867473941
20
-78.39886589168924
30
0
11
2.3531803683528629
21
-80.984437698453959
31
0
0
SPLINE
5
169
100
AcDbEntity
8
0
100
AcDbSpline
70
0
71
3
72
11
73
7
74
0
42
0.000000001
43
0.0000000001
44
0.0000000001
40
0.26541228759051322
40
0.26541228759051322
40
0.26541228759051322
40
0.26541228759051322
40
1
40
1
40
1
40
1.2667507738132739
40
1.2667507738132739
40
1.2667507738132739
40
1.2667507738132739
10
2.3531803683528709
20
-80.984437698453959
30
0
10
-0.29500612361799128
20
-83.179628041296695
30
0
10
-2.840810134925289
20
-85.496752765222425
30
0
10
-5.2757966405619428
20
-87.928461328679518
30
0
10
-6.1005100079604428
20
-88.752064479357401
30
0
10
-6.9252233753589483
20
-89.575667630035284
30
0
10
-7.7499367427574413
20
-90.399270780713152
30
0
0
SPLINE
5
170
100
AcDbEntity
8
0
100
AcDbSpline
70
0
71
3
72
16
73
12
74
0
42
0.000000001
43
0.0000000001
44
0.0000000001
40
0
40
0
40
0
40
0
40
0.15625778935477047
40
0.15625778935477047
40
0.31251557870954005
40
0.31251557870954005
40
0.46877336806431003
40
0.46877336806431003
40
0.5491551102408917
40
0.5491551102408917
40
0.62953685241747315
40
0.62953685241747315
40
0.62953685241747315
40
0.62953685241747315
10
-7.7564860668210365
20
-96.053378219628414
30
0
10
-8.1241835474704214
20
-95.684470411524416
30
0
10
-8.4163097415816264
20
-95.247270068789192
30
0
10
-8.8165337417176364
20
-94.285501706687853
30
0
10
-8.9208051881622037
20
-93.770128717067664
30
0
10
-8.9259287196946495
20
-92.728422721093452
30
0
10
-8.8267318210285417
20
-92.212048991834592
30
0
10
-8.5308569425416998
20
-91.480843799865625
30
0
10
-8.4056518466135657
20
-91.243193454238835
30
0
10
-8.1096124971543855
20
-90.796509857260816
30
0
10
-7.9395258940677591
20
-90.588604709961956
30
0
10
-7.7499367427574084
20
-90.399270780713181
30
0
0
LINE
5
171
100
AcDbEntity
8
0
100
AcDbLine
10
-7.7564860668210365
20
-96.053378219628414
30
0
11
-5.366348208246805
21
-98.45138354975947
31
0
0
LINE
5
172
100
AcDbEntity
8
0
100
AcDbLine
10
-5.366348208246805
20
-98.45138354975947
30
0
11
-1.0174327618660328
21
-103.13950697284524
31
0
0
LINE
5
173
100
AcDbEntity
8
0
100
AcDbLine
10
-1.0174327618660328
20
-103.13950697284524
30
0
11
-3.5833946731232214
21
-105.51980936329426
31
0
0
ARC
5
174
100
AcDbEntity
8
0
100
AcDbCircle
10
-1.2030922826741921
20
-108.08577127455145
30
0
40
3.5000000000000075
210
0
220
0
230
1
100
AcDbArc
50
132.8503947999412
51
312.85039479994134
0
LINE
5
175
100
AcDbEntity
8
0
100
AcDbLine
10
1.177210107774834
20
-110.65173318580862
30
0
11
3.743172019031995
21
-108.27143079535959
31
0
0
LINE
5
176
100
AcDbEntity
8
0
100
AcDbLine
10
3.743172019031995
20
-108.27143079535959
30
0
11
9.8365732939372847
21
-114.84010696194674
31
0
0
SPLINE
5
177
100
AcDbEntity
8
0
100
AcDbSpline
70
0
71
3
72
16
73
12
74
0
42
0.000000001
43
0.0000000001
44
0.0000000001
40
0
40
0
40
0
40
0
40
0.15625778935477114
40
0.15625778935477114
40
0.31251557870954205
40
0.31251557870954205
40
0.46877336806431325
40
0.46877336806431325
40
0.5584036863961479
40
0.5584036863961479
40
0.64803400472798167
40
0.64803400472798167
40
0.64803400472798167
40
0.64803400472798167
10
15.619014880359609
20
-114.92653745439182
30
0
10
15.253531025598217
20
-115.29763846498697
30
0
10
14.819057116263782
20
-115.59380442366782
30
0
10
13.861039655558914
20
-116.00292564972266
30
0
10
13.346655273272676
20
-116.11196949518722
30
0
10
12.305041513752959
20
-116.12674814882004
30
0
10
11.787770531783842
20
-116.03234166500457
30
0
10
11.025170725315272
20
-115.73195858241817
30
0
10
10.76033094239447
20
-115.59166347939993
30
0
10
10.266851252194725
20
-115.25472666634086
30
0
10
10.039761161539163
20
-115.05914313616898
30
0
10
9.8365732939372847
20
-114.84010696194674
30
0
0
SPLINE
5
178
100
AcDbEntity
8
0
100
AcDbSpline
70
0
71
3
72
11
73
7
74
0
42
0.000000001
43
0.0000000001
44
0.0000000001
40
-1.3847049995879179
40
-1.3847049995879179
40
-1.3847049995879179
40
-1.3847049995879179
40
0
40
0
40
0
40
1
40
1
40
1
40
1
10
15.619014880359616
20
-114.92653745439182
30
0
10
16.475474308474727
20
-114.0569150205506
30
0
10
17.331933736589853
20
-113.18729258670939
30
0
10
18.188393164704976
20
-112.31767015286815
30
0
10
18.753525297814502
20
-111.74385245070546
30
0
10
19.32688905096953
20
-111.17914169087838
30
0
10
19.908170794404711
20
-110.62424750430498
30
0
0
SPLINE
5
179
100
AcDbEntity
8
0
100
AcDbSpline
70
0
71
3
72
8
73
4
74
0
42
0.000000001
43
0.0000000001
44
0.0000000001
40
1.9433332375246123e-05
40
1.9433332375246123e-05
40
1.9433332375246123e-05
40
1.9433332375246123e-05
40
0.99589815244268565
40
0.99589815244268565
40
0.99589815244268565
40
0.99589815244268565
10
19.908170841812005
20
-110.62424755399138
30
0
10
31.881778715812121
20
-99.197430740689782
30
0
10
47.211879577843547
20
-91.931544460912548
30
0
10
63.633753285901079
20
-89.896473906467321
30
0
0
SPLINE
5
180
100
AcDbEntity
8
0
100
AcDbSpline
70
0
71
3
72
14
73
10
74
0
42
0.000000001
43
0.0000000001
44
0.0000000001
40
0.052273269013483704
40
0.052273269013483704
40
0.052273269013483704
40
0.052273269013483704
40
0.41483076128064056
40
0.41483076128064056
40
0.41483076128064056
40
0.86984727662195116
40
0.86984727662195116
40
0.86984727662195116
40
1
40
1
40
1
40
1
10
63.633753285901093
20
-89.896473906467534
30
0
10
65.237295022030452
20
-89.760356485576565
30
0
10
66.756966710370364
20
-89.147002383078956
30
0
10
67.970840424806781
20
-88.213250507136109
30
0
10
69.494274912819705
20
-87.04137422862344
30
0
10
70.598940049434546
20
-85.343029008204624
30
0
10
71.015572765696874
20
-83.381032752449769
30
0
10
71.134746204114293
20
-82.819824208728065
30
0
10
71.196182763952379
20
-82.240079868347479
30
0
10
71.195832640528451
20
-81.658577241886391
30
0
0
LINE
5
181
100
AcDbEntity
8
0
100
AcDbLine
10
71.195832640528451
20
-81.658577241886391
30
0
11
71.195580034831238
21
-81.025666613629795
31
0
0
LINE
5
182
100
AcDbEntity
8
0
100
AcDbLine
10
71.195580034831238
20
-81.025666613629795
30
0
11
71.195677305620876
21
-76.843411742726047
31
0
0
LINE
5
183
100
AcDbEntity
8
0
100
AcDbLine
10
71.195677305620876
20
-76.843411742726047
30
0
11
74.506199180465416
21
-76.843077000000022
31
0
0
LINE
5
184
100
AcDbEntity
8
0
100
AcDbLine
10
74.506199180465416
20
-76.843077000000022
30
0
11
135.33786783065185
21
-76.843077000000022
31
0
0
LINE
5
185
100
AcDbEntity
8
0
100
AcDbLine
10
135.33786783065185
20
-76.843077000000022
30
0
11
139.33830466113466
21
-76.844093578664882
31
0
0
SPLINE
5
186
100
AcDbEntity
8
0
100
AcDbSpline
70
0
71
3
72
14
73
10
74
0
42
0.000000001
43
0.0000000001
44
0.0000000001
40
0.0012037225973479898
40
0.0012037225973479898
40
0.0012037225973479898
40
0.0012037225973479898
40
0.41427105489097876
40
0.41427105489097876
40
0.41427105489097876
40
0.86948300463283745
40
0.86948300463283745
40
0.86948300463283745
40
0.99882240253579069
40
0.99882240253579069
40
0.99882240253579069
40
0.99882240253579069
10
139.33830466092633
20
-76.844094399096818
30
0
10
141.1869435181091
20
-76.844939084816872
30
0
10
142.97682238508602
20
-76.205442273173588
30
0
10
144.36597305463033
20
-75.14099373337811
30
0
10
145.89685660636798
20
-73.967941164660985
30
0
10
147.00632375593418
20
-72.263418749718099
30
0
10
147.42289635756219
20
-70.296573098367958
30
0
10
147.54125715522576
20
-69.737733128420047
30
0
10
147.6023255230628
20
-69.160717901586082
30
0
10
147.60221057007931
20
-68.582092999999134
30
0
0
LINE
5
187
100
AcDbEntity
8
0
100
AcDbLine
10
147.60221057007928
20
-68.582092999999134
30
0
11
151.10221057007928
21
-68.582092999999134
31
0
0
ARC
5
188
100
AcDbEntity
8
0
100
AcDbCircle
10
151.10221057007925
20
-65.082092999999134
30
0
40
3.4999999999999964
210
0
220
0
230
1
100
AcDbArc
50
-89.999999999999545
51
89.999999999999545
0
LINE
5
189
100
AcDbEntity
8
0
100
AcDbLine
10
151.10221057007928
20
-61.582092999999141
30
0
11
147.60221047124469
21
-61.582092999999141
31
0
0
LINE
5
190
100
AcDbEntity
8
0
100
AcDbLine
10
147.60221047124469
20
-61.582092999999141
30
0
11
147.60220909883461
21
-20.210144000000003
31
0
0
LINE
5
191
100
AcDbEntity
8
0
100
AcDbLine
10
147.60220909883461
20
-20.210144000000003
30
0
11
151.10220900000002
21
-20.210144000000003
31
0
0
ARC
5
192
100
AcDbEntity
8
0
100
AcDbCircle
10
151.10220900000002
20
-16.710144000000003
30
0
40
3.5000000000000009
210
0
220
0
230
1
100
AcDbArc
50
-90
51
90
0
LINE
5
193
100
AcDbEntity
8
0
100
AcDbLine
10
151.10220900000002
20
-13.210144000000001
30
0
11
147.60220965403855
21
-13.210144130194905
31
0
0
SPLINE
5
194
100
AcDbEntity
8
0
100
AcDbSpline
70
0
71
3
72
20
73
16
74
0
42
0.000000001
43
0.0000000001
44
0.0000000001
40
0.0011786900309881929
40
0.0011786900309881929
40
0.0011786900309881929
40
0.0011786900309881929
40
0.40927542247564441
40
0.40927542247564441
40
0.40927542247564441
40
0.87102598953680754
40
0.87102598953680754
40
0.87102598953680754
40
1
40
1
40
1
40
1.0025395856347523
40
1.0025395856347523
40
1.0025395856347523
40
1.0050791712695049
40
1.0050791712695049
40
1.0050791712695049
40
1.0050791712695049
10
147.60221057153663
20
-13.210143999999689
30
0
10
147.6025732249654
20
-11.377354255754625
30
0
10
146.97363763719335
20
-9.6086740838912057
30
0
10
145.93476536220021
20
-8.2327976936611016
30
0
10
144.75930909424966
20
-6.676030258673185
30
0
10
143.04511453986831
20
-5.5519271736747999
30
0
10
141.06069503693578
20
-5.1294037159645303
30
0
10
140.50641625529073
20
-5.0113864383626803
30
0
10
139.93392127504646
20
-4.9496221236481341
30
0
10
139.35918439506958
20
-4.9481680044129508
30
0
10
139.35811337815662
20
-4.9481652946750723
30
0
10
139.35704236125164
20
-4.9481625849372133
30
0
10
139.35597134435164
20
-4.948159875199365
30
0
10
139.35490032742615
20
-4.9481571654614545
30
0
10
139.35382931051848
20
-4.9481544557235893
30
0
10
139.3527582936058
20
-4.9481517459857107
30
0
0
LINE
5
195
100
AcDbEntity
8
0
100
AcDbLine
10
139.35275829360577
20
-4.9481517459857098
30
0
11
135.33981996524454
21
-4.9470770000000019
31
0
0
LINE
5
196
100
AcDbEntity
8
0
100
AcDbLine
10
135.33981996524454
20
-4.9470770000000019
30
0
11
124.42496300000001
21
-4.9470770000000019
31
0
0
LINE
5
197
100
AcDbEntity
8
0
100
AcDbLine
10
124.42496300000001
20
-4.9470770000000019
30
0
11
124.42496429816494
21
-3.6851439999992319
31
0
0
SPLINE
5
198
100
AcDbEntity
8
0
100
AcDbSpline
70
0
71
3
72
20
73
16
74
0
42
0.000000001
43
0.0000000001
44
0.0000000001
40
0.0015146416662986069
40
0.0015146416662986069
40
0.0015146416662986069
40
0.0015146416662986069
40
0.40867608758513613
40
0.40867608758513613
40
0.40867608758513613
40
0.87147714426173561
40
0.87147714426173561
40
0.87147714426173561
40
1
40
1
40
1
40
1.0028384541807278
40
1.0028384541807278
40
1.0028384541807278
40
1.0056769083614558
40
1.0056769083614558
40
1.0056769083614558
40
1.0056769083614558
10
124.42496559632987
20
-3.6851439999992297
30
0
10
124.42543074415011
20
-1.8556585225052067
30
0
10
123.79856047263658
20
-0.089206346890858101
30
0
10
122.76270622925477
20
1.2855697950714458
30
0
10
121.58529996153165
20
2.8482124705293788
30
0
10
119.8659588081813
20
3.9751918035674487
30
0
10
117.87700881643134
20
4.396982953900177
30
0
10
117.32466450093655
20
4.5141170926058525
30
0
10
116.75437473929053
20
4.575384568615787
30
0
10
116.18192697347314
20
4.576832024475685
30
0
10
116.1807291940621
20
4.576835053106298
30
0
10
116.17953141465156
20
4.5768380817369083
30
0
10
116.17833363524082
20
4.5768411103675195
30
0
10
116.17713585583276
20
4.5768441389981245
30
0
10
116.17593807642035
20
4.5768471676287383
30
0
10
116.17474029700917
20
4.5768501962593504
30
0
0
LINE
5
199
100
AcDbEntity
8
0
100
AcDbLine
10
116.17474029700915
20
4.5768501962593513
30
0
11
104.27994916211202
21
4.5768560000005465
31
0
0
SPLINE
5
200
100
AcDbEntity
8
0
100
AcDbSpline
70
0
71
3
72
20
73
16
74
0
42
0.000000001
43
0.0000000001
44
0.0000000001
40
0.34725260923150514
40
0.34725260923150514
40
0.34725260923150514
40
0.34725260923150514
40
0.40866704128344788
40
0.40866704128344788
40
0.40866704128344788
40
0.87148233937696373
40
0.87148233937696373
40
0.87148233937696373
40
1
40
1
40
1
40
1.0028491196522034
40
1.0028491196522034
40
1.0028491196522034
40
1.0056982393044069
40
1.0056982393044069
40
1.0056982393044069
40
1.0056982393044069
10
104.27994916211202
20
4.5768560000005447
30
0
10
104.14246894601065
20
4.8005467482462167
30
0
10
103.99601280873978
20
5.0151093075697029
30
0
10
103.83977262238197
20
5.222475570831091
30
0
10
102.66235640265343
20
6.7851746912053823
30
0
10
100.94298628642504
20
7.9121838764423877
30
0
10
98.953994701489876
20
8.3339816010525496
30
0
10
98.401678158480692
20
8.4511092263629486
30
0
10
97.831417730423283
20
8.5123760335767411
30
0
10
97.258998065700126
20
8.5138288443793524
30
0
10
97.257795785641974
20
8.5138318957865007
30
0
10
97.256593505583766
20
8.5138349471936507
30
0
10
97.255391225525585
20
8.5138379986007973
30
0
10
97.254188945467405
20
8.5138410500079438
30
0
10
97.252986665409196
20
8.5138441014150903
30
0
10
97.251784385350987
20
8.5138471528222386
30
0
0
LINE
5
201
100
AcDbEntity
8
0
100
AcDbLine
10
97.251784385350973
20
8.5138471528222368
30
0
11
79.829006299595079
21
8.5138469079585555
31
0
0
SPLINE
5
202
100
AcDbEntity
8
0
100
AcDbSpline
70
0
71
3
72
17
73
13
74
0
42
0.000000001
43
0.0000000001
44
0.0000000001
40
-0.0057041505044582927
40
-0.0057041505044582927
40
-0.0057041505044582927
40
-0.0057041505044582927
40
-0.0028520752522291463
40
-0.0028520752522291463
40
-0.0028520752522291463
40
0
40
0
40
0
40
0.41374629194293155
40
0.41374629194293155
40
0.41374629194293155
40
0.80625828758294937
40
0.80625828758294937
40
0.80625828758294937
40
0.80625828758294937
10
79.829006299595079
20
8.5138469079585537
30
0
10
79.827809292167927
20
8.5138438533859588
30
0
10
79.826612284740733
20
8.513840798813364
30
0
10
79.825415277313596
20
8.5138377442407691
30
0
10
79.824218269886472
20
8.5138346896681742
30
0
10
79.823021262459335
20
8.5138316350955776
30
0
10
79.821824255032197
20
8.5138285805229827
30
0
10
77.970874526307355
20
8.5091052511699878
30
0
10
76.19342071834248
20
7.8652034216339857
30
0
10
74.814370487979929
20
6.8074660999174146
30
0
10
73.506095903897148
20
5.8040139963100055
30
0
10
72.506552208172423
20
4.4167247078989789
30
0
10
71.981840254709752
20
2.7988559999999421
30
0
0
LINE
5
203
100
AcDbEntity
8
0
100
AcDbLine
10
71.981840254709752
20
2.7988559999999425
30
0
11
60.779050893176262
21
2.7988499532200883
31
0
0
SPLINE
5
204
100
AcDbEntity
8
0
100
AcDbSpline
70
0
71
3
72
17
73
13
74
0
42
0.000000001
43
0.0000000001
44
0.0000000001
40
-0.0056827971136848097
40
-0.0056827971136848097
40
-0.0056827971136848097
40
-0.0056827971136848097
40
-0.0028413985568424048
40
-0.0028413985568424048
40
-0.0028413985568424048
40
0
40
0
40
0
40
0.41373644092236483
40
0.41373644092236483
40
0.41373644092236483
40
0.45461962454053267
40
0.45461962454053267
40
0.45461962454053267
40
0.45461962454053267
10
60.779050893176276
20
2.798849953220091
30
0
10
60.777858366726186
20
2.7988469214478311
30
0
10
60.776665840274376
20
2.7988438896755681
30
0
10
60.775473313824264
20
2.7988408579033077
30
0
10
60.774280787375218
20
2.7988378261310487
30
0
10
60.773088260925114
20
2.7988347943587883
30
0
10
60.771895734477425
20
2.7988317625865342
30
0
10
58.92097392707133
20
2.7941261450374411
30
0
10
57.143529102284269
20
2.1502558176168498
30
0
10
55.764479403401019
20
1.0925556185916363
30
0
10
55.628209216679416
20
0.98803944072410688
30
0
10
55.495685773106025
20
0.87968213535604556
30
0
10
55.366273659493153
20
0.76698079747927084
30
0
0
LINE
5
205
100
AcDbEntity
8
0
100
AcDbLine
10
55.366273659493146
20
0.76698079747927084
30
0
11
50.313626773751977
21
0.7671424453693465
31
0
0
LINE
5
206
100
AcDbEntity
8
0
100
AcDbLine
10
50.313626773751977
20
0.7671424453693465
30
0
11
50.313738758153534
21
4.2674518993407098
31
0
0
ARC
5
207
100
AcDbEntity
8
0
100
AcDbCircle
10
46.813738759944712
20
4.2675638738419428
30
0
40
3.5
210
0
220
0
230
1
100
AcDbArc
50
-0.0018330474454752066
51
89.999999999999773
0
CIRCLE
5
208
100
AcDbEntity
8
0
100
AcDbCircle
10
151.10220900000002
20
-16.710144000000003
30
0
40
1.9999999999999929
210
0
220
0
230
1
0
CIRCLE
5
209
100
AcDbEntity
8
0
100
AcDbCircle
10
-1.2030922826742096
20
-108.08577127455145
30
0
40
2.0000000000000053
210
0
220
0
230
1
0
CIRCLE
5
210
100
AcDbEntity
8
0
100
AcDbCircle
10
46.813738759944776
20
4.2674519011318912
30
0
40
2.0000000000000018
210
0
220
0
230
1
0
CIRCLE
5
211
100
AcDbEntity
8
0
100
AcDbCircle
10
151.10221057007928
20
-65.082092999999134
30
0
40
1.9999999999999929
210
0
220
0
230
1
0
ENDSEC
0
SECTION
2
OBJECTS
0
DICTIONARY
5
C
100
AcDbDictionary
3
ACAD_GROUP
350
D
3
ACAD_MLINESTYLE
350
17
0
DICTIONARY
5
D
100
AcDbDictionary
0
DICTIONARY
5
1A
330
C
100
AcDbDictionary
0
DICTIONARY
5
17
100
AcDbDictionary
0
ENDSEC
0
EOF
