0
SECTION
2
HEADER
9
$INSUNITS
70
4
9
$ACADVER
1
AC1014
9
$HANDSEED
5
FFFF
0
ENDSEC
0
SECTION
2
TABLES
0
TABLE
2
VPORT
5
8
100
AcDbSymbolTable
0
ENDTAB
0
TABLE
2
LTYPE
5
5
100
AcDbSymbolTable
0
LTYPE
5
14
100
AcDbSymbolTableRecord
100
AcDbLinetypeTableRecord
2
BYBLOCK
70
0
0
LTYPE
5
15
100
AcDbSymbolTableRecord
100
AcDbLinetypeTableRecord
2
BYLAYER
70
0
0
ENDTAB
0
TABLE
2
LAYER
5
2
100
AcDbSymbolTable
70
2
0
LAYER
5
50
100
AcDbSymbolTableRecord
100
AcDbLayerTableRecord
2
0
70
0
6
CONTINUOUS
0
ENDTAB
0
TABLE
2
STYLE
5
3
100
AcDbSymbolTable
70
1
0
STYLE
5
11
100
AcDbSymbolTableRecord
100
AcDbTextStyleTableRecord
2
STANDARD
70
0
0
ENDTAB
0
TABLE
2
VIEW
5
6
100
AcDbSymbolTable
70
0
0
ENDTAB
0
TABLE
2
UCS
5
7
100
AcDbSymbolTable
70
0
0
ENDTAB
0
TABLE
2
APPID
5
9
100
AcDbSymbolTable
70
2
0
APPID
5
12
100
AcDbSymbolTableRecord
100
AcDbRegAppTableRecord
2
ACAD
70
0
0
ENDTAB
0
TABLE
2
DIMSTYLE
5
A
100
AcDbSymbolTable
70
1
0
ENDTAB
0
TABLE
2
BLOCK_RECORD
5
1
100
AcDbSymbolTable
70
1
0
BLOCK_RECORD
5
1F
100
AcDbSymbolTableRecord
100
AcDbBlockTableRecord
2
*MODEL_SPACE
0
BLOCK_RECORD
5
1B
100
AcDbSymbolTableRecord
100
AcDbBlockTableRecord
2
*PAPER_SPACE
0
ENDTAB
0
ENDSEC
0
SECTION
2
BLOCKS
0
BLOCK
5
20
100
AcDbEntity
100
AcDbBlockBegin
2
*MODEL_SPACE
0
ENDBLK
5
21
100
AcDbEntity
100
AcDbBlockEnd
0
BLOCK
5
1C
100
AcDbEntity
100
AcDbBlockBegin
2
*PAPER_SPACE
0
ENDBLK
5
1D
100
AcDbEntity
100
AcDbBlockEnd
0
ENDSEC
0
SECTION
2
ENTITIES
0
SPLINE
5
100
100
AcDbEntity
8
0
100
AcDbSpline
70
0
71
3
72
14
73
10
74
0
42
0.000000001
43
0.0000000001
44
0.0000000001
40
0
40
0
40
0
40
0
40
0.15625778935477069
40
0.15625778935477069
40
0.31251557870954166
40
0.31251557870954166
40
0.46877336806431436
40
0.46877336806431436
40
0.61559909964171577
40
0.61559909964171577
40
0.61559909964171577
40
0.61559909964171577
10
-7.7695564536971249
20
-95.879471255811467
30
1.0547118733938987e-14
10
-8.1237832173330951
20
-95.497610275767713
30
1.0547118733938987e-14
10
-8.4000374393120971
20
-95.050211731053409
30
2.2204460492503131e-15
10
-8.7655017563822337
20
-94.074704957333992
30
2.2204460492503131e-15
10
-8.851217813408736
20
-93.555923104777904
30
2.2204460492503131e-15
10
-8.8189683247961348
20
-92.514703818024046
30
2.2204460492503131e-15
10
-8.7013111018454996
20
-92.002221007715974
30
2.2204460492503131e-15
10
-8.2890078544080144
20
-91.07990409692151
30
2.2204460492503131e-15
10
-8.0089538071257103
20
-90.673525567852522
30
-5.5511151231257827e-16
10
-7.6625264284201302
20
-90.327810176417984
30
-5.5511151231257827e-16
0
LINE
5
101
100
AcDbEntity
8
0
100
AcDbLine
10
-7.7695564536971249
20
-95.879471255811467
30
1.0547118733938987e-14
11
9.8185660723671724
21
-114.83969220578693
31
0
0
SPLINE
5
102
100
AcDbEntity
8
0
100
AcDbSpline
70
0
71
3
72
16
73
12
74
0
42
0.000000001
43
0.0000000001
44
0.0000000001
40
0
40
0
40
0
40
0
40
0.15625778935477133
40
0.15625778935477133
40
0.31251557870954205
40
0.31251557870954205
40
0.46877336806431302
40
0.46877336806431302
40
0.55837422471336029
40
0.55837422471336029
40
0.64797508136240844
40
0.64797508136240844
40
0.64797508136240844
40
0.64797508136240844
10
15.60059487198189
20
-114.92657993519651
30
-1.27675647831893e-14
10
15.235054037912921
20
-115.29762482033061
30
-1.27675647831893e-14
10
14.800534656574747
20
-115.59372406081458
30
0
10
13.842454385435532
20
-116.00269817573849
30
0
10
13.328053265220682
20
-116.11166303473168
30
0
10
12.286437248676471
20
-116.12628174543298
30
0
10
11.769180769189862
20
-116.03179583429903
30
0
10
11.006718463615453
20
-115.73133166104435
30
0
10
10.741982666188122
20
-115.59105202845964
30
0
10
10.248692174656192
20
-115.25418643977231
30
0
10
10.021685683881325
20
-115.05865774391498
30
1.6653345369377348e-15
10
9.8185660723671635
20
-114.83969220578693
30
1.6653345369377348e-15
0
SPLINE
5
103
100
AcDbEntity
8
0
100
AcDbSpline
70
0
71
3
72
11
73
7
74
0
42
0.000000001
43
0.0000000001
44
0.0000000001
40
-1.3842920720151124
40
-1.3842920720151124
40
-1.3842920720151124
40
-1.3842920720151124
40
0
40
0
40
0
40
1
40
1
40
1
40
1
10
15.60059487198189
20
-114.92657993519651
30
0
10
16.457061914105935
20
-114.05721682812955
30
0
10
17.31352895622997
20
-113.18785372106262
30
0
10
18.169995998354008
20
-112.31849061399566
30
0
10
18.735856803438264
20
-111.74410948374756
30
0
10
19.309490050969536
20
-111.17914169087838
30
0
10
19.890771794404724
20
-110.62424750430496
30
0
0
SPLINE
5
104
100
AcDbEntity
8
0
100
AcDbSpline
70
0
71
3
72
8
73
4
74
0
42
0.000000001
43
0.0000000001
44
0.0000000001
40
1.9472039208589933e-05
40
1.9472039208589933e-05
40
1.9472039208589933e-05
40
1.9472039208589933e-05
40
0.99589822548430407
40
0.99589822548430407
40
0.99589822548430407
40
0.99589822548430407
10
19.89077184200125
20
-110.62424755418971
30
0
10
31.864410380234666
20
-99.197407943817538
30
0
10
47.194555202721197
20
-91.93151939303587
30
0
10
63.616470781736382
20
-89.896474795032219
30
0
0
SPLINE
5
105
100
AcDbEntity
8
0
100
AcDbSpline
70
0
71
3
72
14
73
10
74
0
42
0.000000001
43
0.0000000001
44
0.0000000001
40
0.052272403724476883
40
0.052272403724476883
40
0.052272403724476883
40
0.052272403724476883
40
0.41514053004462631
40
0.41514053004462631
40
0.41514053004462631
40
0.8693580704056576
40
0.8693580704056576
40
0.8693580704056576
40
1
40
1
40
1
40
1
10
63.61647078173641
20
-89.896474795032461
30
0
10
65.221396300188374
20
-89.760241944158651
30
0
10
66.742364965746134
20
-89.145983803837652
30
0
10
67.957067256390673
20
-88.210543605467322
30
0
10
69.477562022141171
20
-87.039613134479268
30
0
10
70.580755943333003
20
-85.343450315767328
30
0
10
70.997511381393849
20
-83.383961219204451
30
0
10
71.117378470969314
20
-82.8203734801872
30
0
10
71.179005822965721
20
-82.238067016376689
30
0
10
71.178302562118262
20
-81.654061488684334
30
0
0
LINE
5
106
100
AcDbEntity
8
0
100
AcDbLine
10
71.178302562118262
20
-81.654061488684306
30
0
11
71.177800139324916
21
-81.02425622760444
31
0
0
LINE
5
107
100
AcDbEntity
8
0
100
AcDbLine
10
71.177800139324916
20
-81.02425622760444
30
0
11
71.177994615290771
21
-76.843411913513862
31
0
0
LINE
5
108
100
AcDbEntity
8
0
100
AcDbLine
10
71.177994615290771
20
-76.843411913513862
30
0
11
74.490959094171018
21
-76.843077000000022
31
0
0
LINE
5
109
100
AcDbEntity
8
0
100
AcDbLine
10
74.490959094171018
20
-76.843077000000022
30
0
11
135.32262728636638
21
-76.843077000000022
31
0
0
LINE
5
110
100
AcDbEntity
8
0
100
AcDbLine
10
135.32262728636638
20
-76.843077000000022
30
0
11
139.32077757235288
21
-76.844094398180673
31
0
0
SPLINE
5
111
100
AcDbEntity
8
0
100
AcDbSpline
70
0
71
3
72
14
73
10
74
0
42
0.000000001
43
0.0000000001
44
0.0000000001
40
0.0012034198451111124
40
0.0012034198451111124
40
0.0012034198451111124
40
0.0012034198451111124
40
0.41497817041490903
40
0.41497817041490903
40
0.41497817041490903
40
0.86927882074624752
40
0.86927882074624752
40
0.86927882074624752
40
0.99848676089573929
40
0.99848676089573929
40
0.99848676089573929
40
0.99848676089573929
10
139.32077757235288
20
-76.844094398180673
30
0
10
141.17168019504527
20
-76.844940518460845
30
0
10
142.96445043749483
20
-76.203883800372139
30
0
10
144.35536245343781
20
-75.135831013725408
30
0
10
145.88250308375999
20
-73.963171070377882
30
0
10
146.98982499100796
20
-72.260192234285199
30
0
10
147.40560031464449
20
-70.295895703252683
30
0
10
147.52385124185071
20
-69.737228863501528
30
0
10
147.5848332295997
20
-69.160435968712292
30
0
10
147.58468559392443
20
-68.582093000000285
30
0
0
LINE
5
112
100
AcDbEntity
8
0
100
AcDbLine
10
147.58468559392443
20
-68.582093000000285
30
0
11
147.58468300000001
21
-13.210144000000001
31
0
0
SPLINE
5
113
100
AcDbEntity
8
0
100
AcDbSpline
70
0
71
3
72
20
73
16
74
0
42
0.000000001
43
0.0000000001
44
0.0000000001
40
0.0015146416662479008
40
0.0015146416662479008
40
0.0015146416662479008
40
0.0015146416662479008
40
0.40867608758512608
40
0.40867608758512608
40
0.40867608758512608
40
0.87147714426160672
40
0.87147714426160672
40
0.87147714426160672
40
1
40
1
40
1
40
1.0025389412607673
40
1.0025389412607673
40
1.0025389412607673
40
1.0050778825215347
40
1.0050778825215347
40
1.0050778825215347
40
1.0050778825215347
10
147.58468559632985
20
-13.21014399999993
30
0
10
147.58515074415021
20
-11.380658522505854
30
0
10
146.95828047263657
20
-9.6142063468909331
30
0
10
145.92242622925482
20
-8.2394302049286683
30
0
10
144.74501996153219
20
-6.676787529471337
30
0
10
143.02567880818253
20
-5.5498081964332595
30
0
10
141.03672881643311
20
-5.1280170461001919
30
0
10
140.48438450093778
20
-5.0108829073942749
30
0
10
139.91409473929113
20
-4.9496154313842142
30
0
10
139.34164697347316
20
-4.9481679755243153
30
0
10
139.34057558342022
20
-4.9481652664739819
30
0
10
139.3395041933702
20
-4.9481625574236574
30
0
10
139.33843280333031
20
-4.9481598483733569
30
0
10
139.33736141328046
20
-4.9481571393230332
30
0
10
139.33629002322255
20
-4.9481544302726901
30
0
10
139.33521863317256
20
-4.9481517212223647
30
0
0
LINE
5
114
100
AcDbEntity
8
0
100
AcDbLine
10
139.33521863317256
20
-4.9481517212223638
30
0
11
135.32458053685443
21
-4.9470770000000019
31
0
0
LINE
5
115
100
AcDbEntity
8
0
100
AcDbLine
10
135.32458053685443
20
-4.9470770000000019
30
0
11
124.40870700000002
21
-4.9470770000000019
31
0
0
LINE
5
116
100
AcDbEntity
8
0
100
AcDbLine
10
124.40870700000002
20
-4.9470770000000019
30
0
11
124.40870702363083
21
-3.6844674912090802
31
0
0
SPLINE
5
117
100
AcDbEntity
8
0
100
AcDbSpline
70
0
71
3
72
20
73
16
74
0
42
0.000000001
43
0.0000000001
44
0.0000000001
40
0.00021894119055154785
40
0.00021894119055154785
40
0.00021894119055154785
40
0.00021894119055154785
40
0.41108278300387774
40
0.41108278300387774
40
0.41108278300387774
40
0.86972652628915115
40
0.86972652628915115
40
0.86972652628915115
40
1
40
1
40
1
40
1.0028397639413344
40
1.0028397639413344
40
1.0028397639413344
40
1.0056795278826689
40
1.0056795278826689
40
1.0056795278826689
40
1.0056795278826689
10
124.40870702363083
20
-3.6844674912090802
30
0
10
124.40858764995481
20
-1.841971885273729
30
0
10
123.77347458553386
20
-0.066887589495161853
30
0
10
122.72562944931599
20
1.3121121340188062
30
0
10
121.55592901148437
20
2.8514775656188025
30
0
10
119.85686947995907
20
3.9669986370982322
30
0
10
117.88582835962734
20
4.3915501637972207
30
0
10
117.32597252962461
20
4.5121400616472398
30
0
10
116.74709399101587
20
4.5753583262976143
30
0
10
116.16571674255582
20
4.5768319086071703
30
0
10
116.16452129564776
20
4.5768349386352991
30
0
10
116.16332584874066
20
4.5768379686634244
30
0
10
116.16213040183608
20
4.5768409986915435
30
0
10
116.16093495492782
20
4.5768440287196706
30
0
10
116.15973950802116
20
4.5768470587477967
30
0
10
116.15854406111465
20
4.5768500887759211
30
0
0
LINE
5
118
100
AcDbEntity
8
0
100
AcDbLine
10
116.15854406111464
20
4.576850088775922
30
0
11
104.2630024622942
21
4.576855999999915
31
0
0
SPLINE
5
119
100
AcDbEntity
8
0
100
AcDbSpline
70
0
71
3
72
20
73
16
74
0
42
0.000000001
43
0.0000000001
44
0.0000000001
40
0.34685534914256794
40
0.34685534914256794
40
0.34685534914256794
40
0.34685534914256794
40
0.41107357470780498
40
0.41107357470780498
40
0.41107357470780498
40
0.86973097673173838
40
0.86973097673173838
40
0.86973097673173838
40
1
40
1
40
1
40
1.0028504344052747
40
1.0028504344052747
40
1.0028504344052747
40
1.0057008688105491
40
1.0057008688105491
40
1.0057008688105491
40
1.0057008688105491
10
104.2630024622942
20
4.576855999999915
30
0
10
104.11962240819497
20
4.8101136846672121
30
0
10
103.96647236122782
20
5.0334771459320606
30
0
10
103.80269733901729
20
5.2490166782461634
30
0
10
102.63298849791609
20
6.7884363843265305
30
0
10
100.93390330615043
20
7.9039868270492661
30
0
10
98.96282365279616
20
8.3285468158046356
30
0
10
98.402992676356348
20
8.4491314064160399
30
0
10
97.824140339848199
20
8.5123496845108111
30
0
10
97.242788006359874
20
8.513828727640476
30
0
10
97.241588067539226
20
8.5138317804557246
30
0
10
97.240388128719047
20
8.5138348332709732
30
0
10
97.239188189899551
20
8.5138378860862201
30
0
10
97.237988251079315
20
8.5138409389014686
30
0
10
97.236788312258426
20
8.5138439917167155
30
0
10
97.235588373437949
20
8.5138470445319641
30
0
0
LINE
5
120
100
AcDbEntity
8
0
100
AcDbLine
10
97.235588373437935
20
8.5138470445319623
30
0
11
79.812810591637998
21
8.5138470173253147
31
0
0
SPLINE
5
121
100
AcDbEntity
8
0
100
AcDbSpline
70
0
71
3
72
17
73
13
74
0
42
0.000000001
43
0.0000000001
44
0.0000000001
40
-0.0057015256108502842
40
-0.0057015256108502842
40
-0.0057015256108502842
40
-0.0057015256108502842
40
-0.0028507628054251421
40
-0.0028507628054251421
40
-0.0028507628054251421
40
0
40
0
40
0
40
0.4165632013267192
40
0.4165632013267192
40
0.4165632013267192
40
0.80540733232351314
40
0.80540733232351314
40
0.80540733232351314
40
0.80540733232351314
10
79.812810591637998
20
8.5138470173253147
30
0
10
79.811611238665989
20
8.513843964158351
30
0
10
79.810411885693611
20
8.5138409109913873
30
0
10
79.809212532721446
20
8.5138378578244218
30
0
10
79.808013179749921
20
8.5138348046574581
30
0
10
79.80681382677777
20
8.5138317514904944
30
0
10
79.805614473805122
20
8.513828698323529
30
0
10
77.945707379757636
20
8.5090939729936128
30
0
10
76.156870485516365
20
7.8590126414542425
30
0
10
74.770831897464717
20
6.7870228571481803
30
0
10
73.477023494364204
20
5.7863657304784697
30
0
10
72.486171010282732
20
4.4062193174969728
30
0
10
71.965107344976019
20
2.7988560000000984
30
0
0
LINE
5
122
100
AcDbEntity
8
0
100
AcDbLine
10
71.965107344976019
20
2.7988560000000984
30
0
11
60.762854960099816
21
2.7988500617719847
31
0
0
SPLINE
5
123
100
AcDbEntity
8
0
100
AcDbSpline
70
0
71
3
72
17
73
13
74
0
42
0.000000001
43
0.0000000001
44
0.0000000001
40
-0.0056801821890427977
40
-0.0056801821890427977
40
-0.0056801821890427977
40
-0.0056801821890427977
40
-0.0028400910945213988
40
-0.0028400910945213988
40
-0.0028400910945213988
40
0
40
0
40
0
40
0.41655315000988347
40
0.41655315000988347
40
0.41655315000988347
40
0.45470853682027856
40
0.45470853682027856
40
0.45470853682027856
40
0.45470853682027856
10
60.762854960099816
20
2.7988500617719847
30
0
10
60.761660096855749
20
2.7988470313947884
30
0
10
60.760465233614013
20
2.7988440010175957
30
0
10
60.759270370369364
20
2.7988409706403985
30
0
10
60.75807550712355
20
2.7988379402631991
30
0
10
60.756880643878901
20
2.7988349098860015
30
0
10
60.755685780631921
20
2.7988318795087972
30
0
10
58.89580738480759
20
2.7941149103437244
30
0
10
57.106980176387282
20
2.1440657119622575
30
0
10
55.720942332477321
20
1.0721142570082014
30
0
10
55.593984199842922
20
0.97392577276611281
30
0
10
55.470293342903211
20
0.87237941586907219
30
0
10
55.349295333865534
20
0.76700989244498974
30
0
0
LINE
5
124
100
AcDbEntity
8
0
100
AcDbLine
10
55.349295333865534
20
0.76700989244498974
30
0
11
32.199410364428005
21
0.76792301252538375
31
0
0
LINE
5
125
100
AcDbEntity
8
0
100
AcDbLine
10
32.199410364428005
20
0.76792301252538375
30
0
11
19.587082580286356
21
0.76684940924333644
31
0
0
SPLINE
5
126
100
AcDbEntity
8
0
100
AcDbSpline
70
0
71
3
72
20
73
16
74
0
42
0.000000001
43
0.0000000001
44
0.0000000001
40
-0.0054917934659334195
40
-0.0054917934659334195
40
-0.0054917934659334195
40
-0.0054917934659334195
40
-0.0027458967329667097
40
-0.0027458967329667097
40
-0.0027458967329667097
40
0
40
0
40
0
40
0.41534606013846842
40
0.41534606013846842
40
0.41534606013846842
40
0.86756328897389656
40
0.86756328897389656
40
0.86756328897389656
40
1
40
1
40
1
40
1
10
19.587082580286349
20
0.76684940924333644
30
0
10
19.585928529315638
20
0.76684647937152239
30
0
10
19.584774478344904
20
0.76684354949970834
30
0
10
19.583620427374182
20
0.76684061962789429
30
0
10
19.58246637640347
20
0.76683768975608024
30
0
10
19.581312325432734
20
0.76683475988426619
30
0
10
19.580158274462008
20
0.76683183001245214
30
0
10
17.724130279009771
20
0.76211979887348424
30
0
10
15.940182374783809
20
0.11472901868079241
30
0
10
14.557126991226237
20
-0.95110159635661162
30
0
10
13.051294787906878
20
-2.1115483018808909
30
0
10
11.953056490413479
20
-3.7854265586509763
30
0
10
11.527680762179365
20
-5.7317743309953029
30
0
10
11.403104875182009
20
-6.3017833466758466
30
0
10
11.33799539049445
20
-6.8921108457818505
30
0
10
11.337205650024336
20
-7.4851564917631404
30
0
0
LINE
5
127
100
AcDbEntity
8
0
100
AcDbLine
10
11.337205650024336
20
-7.4851564917631395
30
0
11
11.337199000000018
21
-74.306325582812349
31
0
0
SPLINE
5
128
100
AcDbEntity
8
0
100
AcDbSpline
70
0
71
3
72
11
73
7
74
0
42
0.000000001
43
0.0000000001
44
0.0000000001
40
0.16441676744019446
40
0.16441676744019446
40
0.16441676744019446
40
0.16441676744019446
40
1
40
1
40
1
40
1.1403054092100626
40
1.1403054092100626
40
1.1403054092100626
40
1.1403054092100626
10
11.337199000000023
20
-74.306325582812349
30
0
10
5.3748745199018142
20
-78.302407478054135
30
0
10
-0.18861254555631285
20
-82.869256891118539
30
0
10
-5.2739127035292448
20
-87.944105597489965
30
0
10
-6.0701172784928703
20
-88.738673790465981
30
0
10
-6.8663218534565011
20
-89.533241983441982
30
0
10
-7.662526428420124
20
-90.327810176417984
30
0
0
CIRCLE
5
129
100
AcDbEntity
8
0
100
AcDbCircle
10
14.837200244585416
20
-55.71003253760643
30
0
40
1
210
0
220
0
230
1
0
CIRCLE
5
130
100
AcDbEntity
8
0
100
AcDbCircle
10
14.837198832405482
20
-74.584606531620096
30
0
40
1
210
0
220
0
230
1
0
CIRCLE
5
131
100
AcDbEntity
8
0
100
AcDbCircle
10
-4.4078086391422335
20
-92.057014929893327
30
0
40
1
210
0
220
0
230
1
0
CIRCLE
5
132
100
AcDbEntity
8
0
100
AcDbCircle
10
13.101970022009731
20
-112.36030421822454
30
0
40
1
210
0
220
0
230
1
0
CIRCLE
5
133
100
AcDbEntity
8
0
100
AcDbCircle
10
67.678151124623753
20
-73.47505496425299
30
0
40
1
210
0
220
0
230
1
0
CIRCLE
5
134
100
AcDbEntity
8
0
100
AcDbCircle
10
142.50438521004205
20
-72.062799682600215
30
0
40
1
210
0
220
0
230
1
0
CIRCLE
5
135
100
AcDbEntity
8
0
100
AcDbCircle
10
142.76563374365261
20
-9.7671988706924857
30
0
40
1
210
0
220
0
230
1
0
CIRCLE
5
136
100
AcDbEntity
8
0
100
AcDbCircle
10
88.524203049271733
20
5.0138492058970545
30
0
40
1
210
0
220
0
230
1
0
CIRCLE
5
137
100
AcDbEntity
8
0
100
AcDbCircle
10
42.644338010731403
20
-2.7323033130934871
30
0
40
1
210
0
220
0
230
1
0
CIRCLE
5
138
100
AcDbEntity
8
0
100
AcDbCircle
10
16.245952624258052
20
-4.1704397495343475
30
0
40
1
210
0
220
0
230
1
0
CIRCLE
5
139
100
AcDbEntity
8
0
100
AcDbCircle
10
14.837200244585416
20
-55.71003253760643
30
0
40
1
210
0
220
0
230
1
0
CIRCLE
5
140
100
AcDbEntity
8
0
100
AcDbCircle
10
14.837198832405482
20
-74.584606531620096
30
0
40
1
210
0
220
0
230
1
0
CIRCLE
5
141
100
AcDbEntity
8
0
100
AcDbCircle
10
-4.4078086391422335
20
-92.057014929893327
30
0
40
1
210
0
220
0
230
1
0
CIRCLE
5
142
100
AcDbEntity
8
0
100
AcDbCircle
10
13.101970022009731
20
-112.36030421822454
30
0
40
1
210
0
220
0
230
1
0
CIRCLE
5
143
100
AcDbEntity
8
0
100
AcDbCircle
10
67.678151124623753
20
-73.47505496425299
30
0
40
1
210
0
220
0
230
1
0
CIRCLE
5
144
100
AcDbEntity
8
0
100
AcDbCircle
10
142.50438521004205
20
-72.062799682600215
30
0
40
1
210
0
220
0
230
1
0
CIRCLE
5
145
100
AcDbEntity
8
0
100
AcDbCircle
10
142.76563374365261
20
-9.7671988706924857
30
0
40
1
210
0
220
0
230
1
0
CIRCLE
5
146
100
AcDbEntity
8
0
100
AcDbCircle
10
88.524203049271733
20
5.0138492058970545
30
0
40
1
210
0
220
0
230
1
0
CIRCLE
5
147
100
AcDbEntity
8
0
100
AcDbCircle
10
42.644338010731403
20
-2.7323033130934871
30
0
40
1
210
0
220
0
230
1
0
CIRCLE
5
148
100
AcDbEntity
8
0
100
AcDbCircle
10
16.245952624258052
20
-4.1704397495343475
30
0
40
1
210
0
220
0
230
1
0
SPLINE
5
149
100
AcDbEntity
8
0
100
AcDbSpline
70
0
71
3
72
14
73
10
74
0
42
0.000000001
43
0.0000000001
44
0.0000000001
40
0
40
0
40
0
40
0
40
0.15625778935477069
40
0.15625778935477069
40
0.31251557870954166
40
0.31251557870954166
40
0.46877336806431436
40
0.46877336806431436
40
0.61559909964171577
40
0.61559909964171577
40
0.61559909964171577
40
0.61559909964171577
10
-7.7695564536971249
20
-95.879471255811467
30
0
10
-8.1237832173330951
20
-95.497610275767713
30
0
10
-8.4000374393120971
20
-95.050211731053409
30
0
10
-8.7655017563822337
20
-94.074704957333992
30
0
10
-8.851217813408736
20
-93.555923104777904
30
0
10
-8.8189683247961348
20
-92.514703818024046
30
0
10
-8.7013111018454996
20
-92.002221007715974
30
0
10
-8.2890078544080144
20
-91.07990409692151
30
0
10
-8.0089538071257103
20
-90.673525567852522
30
0
10
-7.6625264284201302
20
-90.327810176417984
30
0
0
LINE
5
150
100
AcDbEntity
8
0
100
AcDbLine
10
-7.7695564536971249
20
-95.879471255811467
30
0
11
9.8185660723671724
21
-114.83969220578693
31
0
0
SPLINE
5
151
100
AcDbEntity
8
0
100
AcDbSpline
70
0
71
3
72
16
73
12
74
0
42
0.000000001
43
0.0000000001
44
0.0000000001
40
0
40
0
40
0
40
0
40
0.15625778935477133
40
0.15625778935477133
40
0.31251557870954205
40
0.31251557870954205
40
0.46877336806431302
40
0.46877336806431302
40
0.55837422471336029
40
0.55837422471336029
40
0.64797508136240844
40
0.64797508136240844
40
0.64797508136240844
40
0.64797508136240844
10
15.60059487198189
20
-114.92657993519651
30
0
10
15.235054037912921
20
-115.29762482033061
30
0
10
14.800534656574747
20
-115.59372406081458
30
0
10
13.842454385435532
20
-116.00269817573849
30
0
10
13.328053265220682
20
-116.11166303473168
30
0
10
12.286437248676471
20
-116.12628174543298
30
0
10
11.769180769189862
20
-116.03179583429903
30
0
10
11.006718463615453
20
-115.73133166104435
30
0
10
10.741982666188122
20
-115.59105202845964
30
0
10
10.248692174656192
20
-115.25418643977231
30
0
10
10.021685683881325
20
-115.05865774391498
30
0
10
9.8185660723671635
20
-114.83969220578693
30
0
0
SPLINE
5
152
100
AcDbEntity
8
0
100
AcDbSpline
70
0
71
3
72
11
73
7
74
0
42
0.000000001
43
0.0000000001
44
0.0000000001
40
-1.3842920720151124
40
-1.3842920720151124
40
-1.3842920720151124
40
-1.3842920720151124
40
0
40
0
40
0
40
1
40
1
40
1
40
1
10
15.60059487198189
20
-114.92657993519651
30
0
10
16.457061914105935
20
-114.05721682812955
30
0
10
17.31352895622997
20
-113.18785372106262
30
0
10
18.169995998354008
20
-112.31849061399566
30
0
10
18.735856803438264
20
-111.74410948374756
30
0
10
19.309490050969536
20
-111.17914169087838
30
0
10
19.890771794404724
20
-110.62424750430496
30
0
0
SPLINE
5
153
100
AcDbEntity
8
0
100
AcDbSpline
70
0
71
3
72
8
73
4
74
0
42
0.000000001
43
0.0000000001
44
0.0000000001
40
1.9472039208589933e-05
40
1.9472039208589933e-05
40
1.9472039208589933e-05
40
1.9472039208589933e-05
40
0.99589822548430407
40
0.99589822548430407
40
0.99589822548430407
40
0.99589822548430407
10
19.89077184200125
20
-110.62424755418971
30
0
10
31.864410380234666
20
-99.197407943817538
30
0
10
47.194555202721197
20
-91.93151939303587
30
0
10
63.616470781736382
20
-89.896474795032219
30
0
0
SPLINE
5
154
100
AcDbEntity
8
0
100
AcDbSpline
70
0
71
3
72
14
73
10
74
0
42
0.000000001
43
0.0000000001
44
0.0000000001
40
0.052272403724476883
40
0.052272403724476883
40
0.052272403724476883
40
0.052272403724476883
40
0.41514053004462631
40
0.41514053004462631
40
0.41514053004462631
40
0.8693580704056576
40
0.8693580704056576
40
0.8693580704056576
40
1
40
1
40
1
40
1
10
63.61647078173641
20
-89.896474795032461
30
0
10
65.221396300188374
20
-89.760241944158651
30
0
10
66.742364965746134
20
-89.145983803837652
30
0
10
67.957067256390673
20
-88.210543605467322
30
0
10
69.477562022141171
20
-87.039613134479268
30
0
10
70.580755943333003
20
-85.343450315767328
30
0
10
70.997511381393849
20
-83.383961219204451
30
0
10
71.117378470969314
20
-82.8203734801872
30
0
10
71.179005822965721
20
-82.238067016376689
30
0
10
71.178302562118262
20
-81.654061488684334
30
0
0
LINE
5
155
100
AcDbEntity
8
0
100
AcDbLine
10
71.178302562118262
20
-81.654061488684306
30
0
11
71.177800139324916
21
-81.02425622760444
31
0
0
LINE
5
156
100
AcDbEntity
8
0
100
AcDbLine
10
71.177800139324916
20
-81.02425622760444
30
0
11
71.177994615290771
21
-76.843411913513862
31
0
0
LINE
5
157
100
AcDbEntity
8
0
100
AcDbLine
10
71.177994615290771
20
-76.843411913513862
30
0
11
74.490959094171018
21
-76.843077000000022
31
0
0
LINE
5
158
100
AcDbEntity
8
0
100
AcDbLine
10
74.490959094171018
20
-76.843077000000022
30
0
11
135.32262728636638
21
-76.843077000000022
31
0
0
LINE
5
159
100
AcDbEntity
8
0
100
AcDbLine
10
135.32262728636638
20
-76.843077000000022
30
0
11
139.32077757235288
21
-76.844094398180673
31
0
0
SPLINE
5
160
100
AcDbEntity
8
0
100
AcDbSpline
70
0
71
3
72
14
73
10
74
0
42
0.000000001
43
0.0000000001
44
0.0000000001
40
0.0012034198451111124
40
0.0012034198451111124
40
0.0012034198451111124
40
0.0012034198451111124
40
0.41497817041490903
40
0.41497817041490903
40
0.41497817041490903
40
0.86927882074624752
40
0.86927882074624752
40
0.86927882074624752
40
0.99848676089573929
40
0.99848676089573929
40
0.99848676089573929
40
0.99848676089573929
10
139.32077757235288
20
-76.844094398180673
30
0
10
141.17168019504527
20
-76.844940518460845
30
0
10
142.96445043749483
20
-76.203883800372139
30
0
10
144.35536245343781
20
-75.135831013725408
30
0
10
145.88250308375999
20
-73.963171070377882
30
0
10
146.98982499100796
20
-72.260192234285199
30
0
10
147.40560031464449
20
-70.295895703252683
30
0
10
147.52385124185071
20
-69.737228863501528
30
0
10
147.5848332295997
20
-69.160435968712292
30
0
10
147.58468559392443
20
-68.582093000000285
30
0
0
LINE
5
161
100
AcDbEntity
8
0
100
AcDbLine
10
147.58468559392443
20
-68.582093000000285
30
0
11
147.58468300000001
21
-13.210144000000001
31
0
0
SPLINE
5
162
100
AcDbEntity
8
0
100
AcDbSpline
70
0
71
3
72
20
73
16
74
0
42
0.000000001
43
0.0000000001
44
0.0000000001
40
0.0015146416662479008
40
0.0015146416662479008
40
0.0015146416662479008
40
0.0015146416662479008
40
0.40867608758512608
40
0.40867608758512608
40
0.40867608758512608
40
0.87147714426160672
40
0.87147714426160672
40
0.87147714426160672
40
1
40
1
40
1
40
1.0025389412607673
40
1.0025389412607673
40
1.0025389412607673
40
1.0050778825215347
40
1.0050778825215347
40
1.0050778825215347
40
1.0050778825215347
10
147.58468559632985
20
-13.21014399999993
30
0
10
147.58515074415021
20
-11.380658522505854
30
0
10
146.95828047263657
20
-9.6142063468909331
30
0
10
145.92242622925482
20
-8.2394302049286683
30
0
10
144.74501996153219
20
-6.676787529471337
30
0
10
143.02567880818253
20
-5.5498081964332595
30
0
10
141.03672881643311
20
-5.1280170461001919
30
0
10
140.48438450093778
20
-5.0108829073942749
30
0
10
139.91409473929113
20
-4.9496154313842142
30
0
10
139.34164697347316
20
-4.9481679755243153
30
0
10
139.34057558342022
20
-4.9481652664739819
30
0
10
139.3395041933702
20
-4.9481625574236574
30
0
10
139.33843280333031
20
-4.9481598483733569
30
0
10
139.33736141328046
20
-4.9481571393230332
30
0
10
139.33629002322255
20
-4.9481544302726901
30
0
10
139.33521863317256
20
-4.9481517212223647
30
0
0
LINE
5
163
100
AcDbEntity
8
0
100
AcDbLine
10
139.33521863317256
20
-4.9481517212223638
30
0
11
135.32458053685443
21
-4.9470770000000019
31
0
0
LINE
5
164
100
AcDbEntity
8
0
100
AcDbLine
10
135.32458053685443
20
-4.9470770000000019
30
0
11
124.40870700000002
21
-4.9470770000000019
31
0
0
LINE
5
165
100
AcDbEntity
8
0
100
AcDbLine
10
124.40870700000002
20
-4.9470770000000019
30
0
11
124.40870702363083
21
-3.6844674912090802
31
0
0
SPLINE
5
166
100
AcDbEntity
8
0
100
AcDbSpline
70
0
71
3
72
20
73
16
74
0
42
0.000000001
43
0.0000000001
44
0.0000000001
40
0.00021894119055154785
40
0.00021894119055154785
40
0.00021894119055154785
40
0.00021894119055154785
40
0.41108278300387774
40
0.41108278300387774
40
0.41108278300387774
40
0.86972652628915115
40
0.86972652628915115
40
0.86972652628915115
40
1
40
1
40
1
40
1.0028397639413344
40
1.0028397639413344
40
1.0028397639413344
40
1.0056795278826689
40
1.0056795278826689
40
1.0056795278826689
40
1.0056795278826689
10
124.40870702363083
20
-3.6844674912090802
30
0
10
124.40858764995481
20
-1.841971885273729
30
0
10
123.77347458553386
20
-0.066887589495161853
30
0
10
122.72562944931599
20
1.3121121340188062
30
0
10
121.55592901148437
20
2.8514775656188025
30
0
10
119.85686947995907
20
3.9669986370982322
30
0
10
117.88582835962734
20
4.3915501637972207
30
0
10
117.32597252962461
20
4.5121400616472398
30
0
10
116.74709399101587
20
4.5753583262976143
30
0
10
116.16571674255582
20
4.5768319086071703
30
0
10
116.16452129564776
20
4.5768349386352991
30
0
10
116.16332584874066
20
4.5768379686634244
30
0
10
116.16213040183608
20
4.5768409986915435
30
0
10
116.16093495492782
20
4.5768440287196706
30
0
10
116.15973950802116
20
4.5768470587477967
30
0
10
116.15854406111465
20
4.5768500887759211
30
0
0
LINE
5
167
100
AcDbEntity
8
0
100
AcDbLine
10
116.15854406111464
20
4.576850088775922
30
0
11
104.2630024622942
21
4.576855999999915
31
0
0
SPLINE
5
168
100
AcDbEntity
8
0
100
AcDbSpline
70
0
71
3
72
20
73
16
74
0
42
0.000000001
43
0.0000000001
44
0.0000000001
40
0.34685534914256794
40
0.34685534914256794
40
0.34685534914256794
40
0.34685534914256794
40
0.41107357470780498
40
0.41107357470780498
40
0.41107357470780498
40
0.86973097673173838
40
0.86973097673173838
40
0.86973097673173838
40
1
40
1
40
1
40
1.0028504344052747
40
1.0028504344052747
40
1.0028504344052747
40
1.0057008688105491
40
1.0057008688105491
40
1.0057008688105491
40
1.0057008688105491
10
104.2630024622942
20
4.576855999999915
30
0
10
104.11962240819497
20
4.8101136846672121
30
0
10
103.96647236122782
20
5.0334771459320606
30
0
10
103.80269733901729
20
5.2490166782461634
30
0
10
102.63298849791609
20
6.7884363843265305
30
0
10
100.93390330615043
20
7.9039868270492661
30
0
10
98.96282365279616
20
8.3285468158046356
30
0
10
98.402992676356348
20
8.4491314064160399
30
0
10
97.824140339848199
20
8.5123496845108111
30
0
10
97.242788006359874
20
8.513828727640476
30
0
10
97.241588067539226
20
8.5138317804557246
30
0
10
97.240388128719047
20
8.5138348332709732
30
0
10
97.239188189899551
20
8.5138378860862201
30
0
10
97.237988251079315
20
8.5138409389014686
30
0
10
97.236788312258426
20
8.5138439917167155
30
0
10
97.235588373437949
20
8.5138470445319641
30
0
0
LINE
5
169
100
AcDbEntity
8
0
100
AcDbLine
10
97.235588373437935
20
8.5138470445319623
30
0
11
79.812810591637998
21
8.5138470173253147
31
0
0
SPLINE
5
170
100
AcDbEntity
8
0
100
AcDbSpline
70
0
71
3
72
17
73
13
74
0
42
0.000000001
43
0.0000000001
44
0.0000000001
40
-0.0057015256108502842
40
-0.0057015256108502842
40
-0.0057015256108502842
40
-0.0057015256108502842
40
-0.0028507628054251421
40
-0.0028507628054251421
40
-0.0028507628054251421
40
0
40
0
40
0
40
0.4165632013267192
40
0.4165632013267192
40
0.4165632013267192
40
0.80540733232351314
40
0.80540733232351314
40
0.80540733232351314
40
0.80540733232351314
10
79.812810591637998
20
8.5138470173253147
30
0
10
79.811611238665989
20
8.513843964158351
30
0
10
79.810411885693611
20
8.5138409109913873
30
0
10
79.809212532721446
20
8.5138378578244218
30
0
10
79.808013179749921
20
8.5138348046574581
30
0
10
79.80681382677777
20
8.5138317514904944
30
0
10
79.805614473805122
20
8.513828698323529
30
0
10
77.945707379757636
20
8.5090939729936128
30
0
10
76.156870485516365
20
7.8590126414542425
30
0
10
74.770831897464717
20
6.7870228571481803
30
0
10
73.477023494364204
20
5.7863657304784697
30
0
10
72.486171010282732
20
4.4062193174969728
30
0
10
71.965107344976019
20
2.7988560000000984
30
0
0
LINE
5
171
100
AcDbEntity
8
0
100
AcDbLine
10
71.965107344976019
20
2.7988560000000984
30
0
11
60.762854960099816
21
2.7988500617719847
31
0
0
SPLINE
5
172
100
AcDbEntity
8
0
100
AcDbSpline
70
0
71
3
72
17
73
13
74
0
42
0.000000001
43
0.0000000001
44
0.0000000001
40
-0.0056801821890427977
40
-0.0056801821890427977
40
-0.0056801821890427977
40
-0.0056801821890427977
40
-0.0028400910945213988
40
-0.0028400910945213988
40
-0.0028400910945213988
40
0
40
0
40
0
40
0.41655315000988347
40
0.41655315000988347
40
0.41655315000988347
40
0.45470853682027856
40
0.45470853682027856
40
0.45470853682027856
40
0.45470853682027856
10
60.762854960099816
20
2.7988500617719847
30
0
10
60.761660096855749
20
2.7988470313947884
30
0
10
60.760465233614013
20
2.7988440010175957
30
0
10
60.759270370369364
20
2.7988409706403985
30
0
10
60.75807550712355
20
2.7988379402631991
30
0
10
60.756880643878901
20
2.7988349098860015
30
0
10
60.755685780631921
20
2.7988318795087972
30
0
10
58.89580738480759
20
2.7941149103437244
30
0
10
57.106980176387282
20
2.1440657119622575
30
0
10
55.720942332477321
20
1.0721142570082014
30
0
10
55.593984199842922
20
0.97392577276611281
30
0
10
55.470293342903211
20
0.87237941586907219
30
0
10
55.349295333865534
20
0.76700989244498974
30
0
0
LINE
5
173
100
AcDbEntity
8
0
100
AcDbLine
10
55.349295333865534
20
0.76700989244498974
30
0
11
32.199410364428005
21
0.76792301252538375
31
0
0
LINE
5
174
100
AcDbEntity
8
0
100
AcDbLine
10
32.199410364428005
20
0.76792301252538375
30
0
11
19.587082580286356
21
0.76684940924333644
31
0
0
SPLINE
5
175
100
AcDbEntity
8
0
100
AcDbSpline
70
0
71
3
72
20
73
16
74
0
42
0.000000001
43
0.0000000001
44
0.0000000001
40
-0.0054917934659334195
40
-0.0054917934659334195
40
-0.0054917934659334195
40
-0.0054917934659334195
40
-0.0027458967329667097
40
-0.0027458967329667097
40
-0.0027458967329667097
40
0
40
0
40
0
40
0.41534606013846842
40
0.41534606013846842
40
0.41534606013846842
40
0.86756328897389656
40
0.86756328897389656
40
0.86756328897389656
40
1
40
1
40
1
40
1
10
19.587082580286349
20
0.76684940924333644
30
0
10
19.585928529315638
20
0.76684647937152239
30
0
10
19.584774478344904
20
0.76684354949970834
30
0
10
19.583620427374182
20
0.76684061962789429
30
0
10
19.58246637640347
20
0.76683768975608024
30
0
10
19.581312325432734
20
0.76683475988426619
30
0
10
19.580158274462008
20
0.76683183001245214
30
0
10
17.724130279009771
20
0.76211979887348424
30
0
10
15.940182374783809
20
0.11472901868079241
30
0
10
14.557126991226237
20
-0.95110159635661162
30
0
10
13.051294787906878
20
-2.1115483018808909
30
0
10
11.953056490413479
20
-3.7854265586509763
30
0
10
11.527680762179365
20
-5.7317743309953029
30
0
10
11.403104875182009
20
-6.3017833466758466
30
0
10
11.33799539049445
20
-6.8921108457818505
30
0
10
11.337205650024336
20
-7.4851564917631404
30
0
0
LINE
5
176
100
AcDbEntity
8
0
100
AcDbLine
10
11.337205650024336
20
-7.4851564917631395
30
0
11
11.337199000000018
21
-74.306325582812349
31
0
0
SPLINE
5
177
100
AcDbEntity
8
0
100
AcDbSpline
70
0
71
3
72
11
73
7
74
0
42
0.000000001
43
0.0000000001
44
0.0000000001
40
0.16441676744019446
40
0.16441676744019446
40
0.16441676744019446
40
0.16441676744019446
40
1
40
1
40
1
40
1.1403054092100626
40
1.1403054092100626
40
1.1403054092100626
40
1.1403054092100626
10
11.337199000000023
20
-74.306325582812349
30
0
10
5.3748745199018142
20
-78.302407478054135
30
0
10
-0.18861254555631285
20
-82.869256891118539
30
0
10
-5.2739127035292448
20
-87.944105597489965
30
0
10
-6.0701172784928703
20
-88.738673790465981
30
0
10
-6.8663218534565011
20
-89.533241983441982
30
0
10
-7.662526428420124
20
-90.327810176417984
30
0
0
ENDSEC
0
SECTION
2
OBJECTS
0
DICTIONARY
5
C
100
AcDbDictionary
3
ACAD_GROUP
350
D
3
ACAD_MLINESTYLE
350
17
0
DICTIONARY
5
D
100
AcDbDictionary
0
DICTIONARY
5
1A
330
C
100
AcDbDictionary
0
DICTIONARY
5
17
100
AcDbDictionary
0
ENDSEC
0
EOF
