0
SECTION
2
HEADER
9
$INSUNITS
70
4
9
$ACADVER
1
AC1014
9
$HANDSEED
5
FFFF
0
ENDSEC
0
SECTION
2
TABLES
0
TABLE
2
VPORT
5
8
100
AcDbSymbolTable
0
ENDTAB
0
TABLE
2
LTYPE
5
5
100
AcDbSymbolTable
0
LTYPE
5
14
100
AcDbSymbolTableRecord
100
AcDbLinetypeTableRecord
2
BYBLOCK
70
0
0
LTYPE
5
15
100
AcDbSymbolTableRecord
100
AcDbLinetypeTableRecord
2
BYLAYER
70
0
0
ENDTAB
0
TABLE
2
LAYER
5
2
100
AcDbSymbolTable
70
2
0
LAYER
5
50
100
AcDbSymbolTableRecord
100
AcDbLayerTableRecord
2
0
70
0
6
CONTINUOUS
0
ENDTAB
0
TABLE
2
STYLE
5
3
100
AcDbSymbolTable
70
1
0
STYLE
5
11
100
AcDbSymbolTableRecord
100
AcDbTextStyleTableRecord
2
STANDARD
70
0
0
ENDTAB
0
TABLE
2
VIEW
5
6
100
AcDbSymbolTable
70
0
0
ENDTAB
0
TABLE
2
UCS
5
7
100
AcDbSymbolTable
70
0
0
ENDTAB
0
TABLE
2
APPID
5
9
100
AcDbSymbolTable
70
2
0
APPID
5
12
100
AcDbSymbolTableRecord
100
AcDbRegAppTableRecord
2
ACAD
70
0
0
ENDTAB
0
TABLE
2
DIMSTYLE
5
A
100
AcDbSymbolTable
70
1
0
ENDTAB
0
TABLE
2
BLOCK_RECORD
5
1
100
AcDbSymbolTable
70
1
0
BLOCK_RECORD
5
1F
100
AcDbSymbolTableRecord
100
AcDbBlockTableRecord
2
*MODEL_SPACE
0
BLOCK_RECORD
5
1B
100
AcDbSymbolTableRecord
100
AcDbBlockTableRecord
2
*PAPER_SPACE
0
ENDTAB
0
ENDSEC
0
SECTION
2
BLOCKS
0
BLOCK
5
20
100
AcDbEntity
100
AcDbBlockBegin
2
*MODEL_SPACE
0
ENDBLK
5
21
100
AcDbEntity
100
AcDbBlockEnd
0
BLOCK
5
1C
100
AcDbEntity
100
AcDbBlockBegin
2
*PAPER_SPACE
0
ENDBLK
5
1D
100
AcDbEntity
100
AcDbBlockEnd
0
ENDSEC
0
SECTION
2
ENTITIES
0
LWPOLYLINE
5
100
100
AcDbEntity
8
0
100
AcDbPolyline
90
6
70
1
43
0.0
10
-2.9707843847637743
20
-93.519020843810239
10
-2.4231622500178736
20
-91.543518376705634
10
-3.8601865043963284
20
-90.081512462788723
10
-5.8448328935206915
20
-90.595009015976416
10
-6.3924550282665971
20
-92.570511483081006
10
-4.9554307738881391
20
-94.032517396997918
0
LWPOLYLINE
5
101
100
AcDbEntity
8
0
100
AcDbPolyline
90
6
70
1
43
0.0
10
142.50438521004205
20
-70.012799682600203
10
140.72903313228394
20
-71.037799682600209
10
140.72903313228394
20
-73.087799682600206
10
142.50438521004205
20
-74.112799682600212
10
144.27973728780015
20
-73.087799682600206
10
144.27973728780015
20
-71.037799682600209
0
LWPOLYLINE
5
102
100
AcDbEntity
8
0
100
AcDbPolyline
90
6
70
1
43
0.0
10
14.470600546499954
20
-3.1454397495343467
10
14.470600546499954
20
-5.1954397495343461
10
16.245952624258052
20
-6.2204397495343464
10
18.021304702016153
20
-5.1954397495343461
10
18.021304702016153
20
-3.1454397495343471
10
16.245952624258052
20
-2.1204397495343477
0
LWPOLYLINE
5
103
100
AcDbEntity
8
0
100
AcDbPolyline
90
6
70
1
43
0.0
10
144.81558778603014
20
-9.7534721034084164
10
143.77872303566153
20
-7.9850232097609206
10
141.72876899328404
20
-7.9987499770449899
10
140.71567970127512
20
-9.7809256379765532
10
141.7525444516437
20
-11.549374531624048
10
143.80249849402122
20
-11.535647764339981
0
LWPOLYLINE
5
104
100
AcDbEntity
8
0
100
AcDbPolyline
90
6
70
1
43
0.0
10
11.056901333093339
20
-112.21819842096833
10
11.956368447102621
20
-114.06033275668219
10
14.001437136019014
20
-114.20243855393836
10
15.14703871092612
20
-112.50241001548075
10
14.247571596916837
20
-110.66027567976691
10
12.202502908000445
20
-110.5181698825107
0
LWPOLYLINE
5
105
100
AcDbEntity
8
0
100
AcDbPolyline
90
6
70
1
43
0.0
10
13.061848268835041
20
-54.685032360923884
10
13.061848064819605
20
-56.735032360923874
10
14.83720004056998
20
-57.760032537606421
10
16.61255222033579
20
-56.735032714288977
10
16.612552424351225
20
-54.68503271428898
10
14.837200448600852
20
-53.66003253760644
0
LWPOLYLINE
5
106
100
AcDbEntity
8
0
100
AcDbPolyline
90
6
70
1
43
0.0
10
69.453503202381853
20
-74.500054964252996
10
69.453503202381853
20
-72.450054964252985
10
67.678151124623753
20
-71.425054964252993
10
65.902799046865653
20
-72.450054964252985
10
65.902799046865653
20
-74.500054964252996
10
67.678151124623753
20
-75.525054964252988
0
LWPOLYLINE
5
107
100
AcDbEntity
8
0
100
AcDbPolyline
90
6
70
1
43
0.0
10
90.07169600053146
20
3.6693174785653744
10
90.462348156965007
20
5.6817515501994853
10
88.91485520570528
20
7.0262832775311646
10
86.976710098012006
20
6.3583809332287347
10
86.586057941578474
20
4.3459468615946237
10
88.133550892838187
20
3.0014151342629427
0
LWPOLYLINE
5
108
100
AcDbEntity
8
0
100
AcDbPolyline
90
6
70
1
43
0.0
10
40.9579725248446
20
-1.5666826852690825
10
40.791698192916897
20
-3.6099283500245463
10
42.478063678803714
20
-4.7755489778489508
10
44.330703496618213
20
-3.8979239409178912
10
44.496977828545909
20
-1.8546782761624272
10
42.810612342659098
20
-0.68905764833802308
0
LWPOLYLINE
5
109
100
AcDbEntity
8
0
100
AcDbPolyline
90
6
70
1
43
0.0
10
13.061846856655109
20
-73.559606354937557
10
13.061846652639673
20
-75.60960635493754
10
14.837198628390047
20
-76.634606531620079
10
16.612550808155856
20
-75.609606708302636
10
16.612551012171291
20
-73.559606708302653
10
14.837199036420918
20
-72.534606531620099
0
SPLINE
5
110
100
AcDbEntity
8
0
100
AcDbSpline
70
0
71
3
72
14
73
10
74
0
42
0.000000001
43
0.0000000001
44
0.0000000001
40
0
40
0
40
0
40
0
40
0.15625778935477078
40
0.15625778935477078
40
0.31251557870954183
40
0.31251557870954183
40
0.46877336806431458
40
0.46877336806431458
40
0.61559909964171611
40
0.61559909964171611
40
0.61559909964171611
40
0.61559909964171611
10
-7.769556453697124
20
-95.879471255811467
30
-8.8817841970012523e-15
10
-8.1237832173330951
20
-95.497610275767713
30
-8.8817841970012523e-15
10
-8.4000374393120971
20
-95.050211731053409
30
-1.1102230246251565e-15
10
-8.7655017563822337
20
-94.074704957333992
30
-1.1102230246251565e-15
10
-8.851217813408736
20
-93.555923104777904
30
-1.1102230246251565e-15
10
-8.8189683247961348
20
-92.514703818024046
30
-1.1102230246251565e-15
10
-8.7013111018454996
20
-92.002221007715974
30
-1.1102230246251565e-15
10
-8.2890078544080144
20
-91.07990409692151
30
-1.1102230246251565e-15
10
-8.0089538071257103
20
-90.673525567852522
30
-1.1102230246251565e-15
10
-7.6625264284201293
20
-90.327810176417984
30
-1.1102230246251565e-15
0
LINE
5
111
100
AcDbEntity
8
0
100
AcDbLine
10
-7.769556453697124
20
-95.879471255811467
30
-8.8817841970012523e-15
11
9.8185660723671724
21
-114.83969220578693
31
0
0
SPLINE
5
112
100
AcDbEntity
8
0
100
AcDbSpline
70
0
71
3
72
16
73
12
74
0
42
0.000000001
43
0.0000000001
44
0.0000000001
40
0
40
0
40
0
40
0
40
0.15625778935477339
40
0.15625778935477339
40
0.312515578709544
40
0.312515578709544
40
0.46877336806431469
40
0.46877336806431469
40
0.55837422471336196
40
0.55837422471336196
40
0.647975081362411
40
0.647975081362411
40
0.647975081362411
40
0.647975081362411
10
15.600594871981897
20
-114.9265799351965
30
-4.4408920985006262e-15
10
15.235054037912924
20
-115.29762482033058
30
-4.4408920985006262e-15
10
14.800534656574749
20
-115.59372406081457
30
-2.2204460492503131e-15
10
13.842454385435531
20
-116.00269817573849
30
-2.2204460492503131e-15
10
13.328053265220678
20
-116.11166303473168
30
-2.2204460492503131e-15
10
12.286437248676469
20
-116.12628174543298
30
-2.2204460492503131e-15
10
11.769180769189862
20
-116.03179583429903
30
-2.2204460492503131e-15
10
11.006718463615453
20
-115.73133166104435
30
-2.2204460492503131e-15
10
10.741982666188122
20
-115.59105202845964
30
-2.2204460492503131e-15
10
10.248692174656188
20
-115.25418643977231
30
-2.2204460492503131e-15
10
10.021685683881323
20
-115.05865774391498
30
3.3306690738754696e-15
10
9.8185660723671582
20
-114.83969220578693
30
3.3306690738754696e-15
0
SPLINE
5
113
100
AcDbEntity
8
0
100
AcDbSpline
70
0
71
3
72
11
73
7
74
0
42
0.000000001
43
0.0000000001
44
0.0000000001
40
-1.3842920720151157
40
-1.3842920720151157
40
-1.3842920720151157
40
-1.3842920720151157
40
0
40
0
40
0
40
1
40
1
40
1
40
1
10
15.600594871981883
20
-114.92657993519651
30
0
10
16.457061914105921
20
-114.05721682812955
30
0
10
17.313528956229966
20
-113.18785372106262
30
0
10
18.169995998354008
20
-112.31849061399566
30
0
10
18.735856803438264
20
-111.74410948374756
30
0
10
19.309490050969536
20
-111.17914169087838
30
0
10
19.890771794404724
20
-110.62424750430496
30
0
0
SPLINE
5
114
100
AcDbEntity
8
0
100
AcDbSpline
70
0
71
3
72
8
73
4
74
0
42
0.000000001
43
0.0000000001
44
0.0000000001
40
1.9472039208589933e-05
40
1.9472039208589933e-05
40
1.9472039208589933e-05
40
1.9472039208589933e-05
40
0.99589822548430407
40
0.99589822548430407
40
0.99589822548430407
40
0.99589822548430407
10
19.89077184200125
20
-110.62424755418971
30
0
10
31.864410380234666
20
-99.197407943817538
30
0
10
47.194555202721197
20
-91.93151939303587
30
0
10
63.616470781736382
20
-89.896474795032219
30
0
0
SPLINE
5
115
100
AcDbEntity
8
0
100
AcDbSpline
70
0
71
3
72
14
73
10
74
0
42
0.000000001
43
0.0000000001
44
0.0000000001
40
0.052272403724476883
40
0.052272403724476883
40
0.052272403724476883
40
0.052272403724476883
40
0.41514053004462631
40
0.41514053004462631
40
0.41514053004462631
40
0.8693580704056576
40
0.8693580704056576
40
0.8693580704056576
40
1
40
1
40
1
40
1
10
63.61647078173641
20
-89.896474795032461
30
0
10
65.221396300188374
20
-89.760241944158651
30
0
10
66.742364965746134
20
-89.145983803837652
30
0
10
67.957067256390673
20
-88.210543605467322
30
0
10
69.477562022141171
20
-87.039613134479268
30
0
10
70.580755943333003
20
-85.343450315767328
30
0
10
70.997511381393849
20
-83.383961219204451
30
0
10
71.117378470969314
20
-82.8203734801872
30
0
10
71.179005822965721
20
-82.238067016376689
30
0
10
71.178302562118262
20
-81.654061488684334
30
0
0
LINE
5
116
100
AcDbEntity
8
0
100
AcDbLine
10
71.178302562118262
20
-81.654061488684306
30
0
11
71.177800139324916
21
-81.02425622760444
31
0
0
LINE
5
117
100
AcDbEntity
8
0
100
AcDbLine
10
71.177800139324916
20
-81.02425622760444
30
0
11
71.177994615290771
21
-76.843411913513847
31
0
0
LINE
5
118
100
AcDbEntity
8
0
100
AcDbLine
10
71.177994615290771
20
-76.843411913513847
30
0
11
74.490959094171018
21
-76.843077000000022
31
0
0
LINE
5
119
100
AcDbEntity
8
0
100
AcDbLine
10
74.490959094171018
20
-76.843077000000022
30
0
11
135.32262728636638
21
-76.843077000000022
31
0
0
LINE
5
120
100
AcDbEntity
8
0
100
AcDbLine
10
135.32262728636638
20
-76.843077000000022
30
0
11
139.32077757235288
21
-76.844094398180673
31
0
0
SPLINE
5
121
100
AcDbEntity
8
0
100
AcDbSpline
70
0
71
3
72
14
73
10
74
0
42
0.000000001
43
0.0000000001
44
0.0000000001
40
0.0012034198451111124
40
0.0012034198451111124
40
0.0012034198451111124
40
0.0012034198451111124
40
0.41497817041490903
40
0.41497817041490903
40
0.41497817041490903
40
0.86927882074624752
40
0.86927882074624752
40
0.86927882074624752
40
0.99848676089573929
40
0.99848676089573929
40
0.99848676089573929
40
0.99848676089573929
10
139.32077757235288
20
-76.844094398180673
30
0
10
141.17168019504527
20
-76.844940518460845
30
0
10
142.96445043749483
20
-76.203883800372139
30
0
10
144.35536245343781
20
-75.135831013725408
30
0
10
145.88250308375999
20
-73.963171070377882
30
0
10
146.98982499100796
20
-72.260192234285199
30
0
10
147.40560031464449
20
-70.295895703252683
30
0
10
147.52385124185071
20
-69.737228863501528
30
0
10
147.5848332295997
20
-69.160435968712292
30
0
10
147.58468559392443
20
-68.582093000000285
30
0
0
LINE
5
122
100
AcDbEntity
8
0
100
AcDbLine
10
147.58468559392443
20
-68.582093000000285
30
0
11
147.58468300000001
21
-13.210144000000001
31
0
0
SPLINE
5
123
100
AcDbEntity
8
0
100
AcDbSpline
70
0
71
3
72
20
73
16
74
0
42
0.000000001
43
0.0000000001
44
0.0000000001
40
0.0015146416662479008
40
0.0015146416662479008
40
0.0015146416662479008
40
0.0015146416662479008
40
0.40867608758512608
40
0.40867608758512608
40
0.40867608758512608
40
0.87147714426160672
40
0.87147714426160672
40
0.87147714426160672
40
1
40
1
40
1
40
1.0025389412607673
40
1.0025389412607673
40
1.0025389412607673
40
1.0050778825215347
40
1.0050778825215347
40
1.0050778825215347
40
1.0050778825215347
10
147.58468559632985
20
-13.21014399999993
30
0
10
147.58515074415021
20
-11.380658522505854
30
0
10
146.95828047263657
20
-9.6142063468909331
30
0
10
145.92242622925482
20
-8.2394302049286683
30
0
10
144.74501996153219
20
-6.676787529471337
30
0
10
143.02567880818253
20
-5.5498081964332595
30
0
10
141.03672881643311
20
-5.1280170461001919
30
0
10
140.48438450093778
20
-5.0108829073942749
30
0
10
139.91409473929113
20
-4.9496154313842142
30
0
10
139.34164697347316
20
-4.9481679755243153
30
0
10
139.34057558342022
20
-4.9481652664739819
30
0
10
139.3395041933702
20
-4.9481625574236574
30
0
10
139.33843280333031
20
-4.9481598483733569
30
0
10
139.33736141328046
20
-4.9481571393230332
30
0
10
139.33629002322255
20
-4.9481544302726901
30
0
10
139.33521863317256
20
-4.9481517212223647
30
0
0
LINE
5
124
100
AcDbEntity
8
0
100
AcDbLine
10
139.33521863317256
20
-4.9481517212223638
30
0
11
135.32458053685443
21
-4.9470770000000019
31
0
0
LINE
5
125
100
AcDbEntity
8
0
100
AcDbLine
10
135.32458053685443
20
-4.9470770000000019
30
0
11
124.40870700000002
21
-4.9470770000000019
31
0
0
LINE
5
126
100
AcDbEntity
8
0
100
AcDbLine
10
124.40870700000002
20
-4.9470770000000019
30
0
11
124.40870702363083
21
-3.6844674912090802
31
0
0
SPLINE
5
127
100
AcDbEntity
8
0
100
AcDbSpline
70
0
71
3
72
20
73
16
74
0
42
0.000000001
43
0.0000000001
44
0.0000000001
40
0.00021894119055154785
40
0.00021894119055154785
40
0.00021894119055154785
40
0.00021894119055154785
40
0.41108278300387774
40
0.41108278300387774
40
0.41108278300387774
40
0.86972652628915115
40
0.86972652628915115
40
0.86972652628915115
40
1
40
1
40
1
40
1.0028397639413344
40
1.0028397639413344
40
1.0028397639413344
40
1.0056795278826689
40
1.0056795278826689
40
1.0056795278826689
40
1.0056795278826689
10
124.40870702363083
20
-3.6844674912090802
30
0
10
124.40858764995481
20
-1.841971885273729
30
0
10
123.77347458553386
20
-0.066887589495161853
30
0
10
122.72562944931599
20
1.3121121340188062
30
0
10
121.55592901148437
20
2.8514775656188025
30
0
10
119.85686947995907
20
3.9669986370982322
30
0
10
117.88582835962734
20
4.3915501637972207
30
0
10
117.32597252962461
20
4.5121400616472398
30
0
10
116.74709399101587
20
4.5753583262976143
30
0
10
116.16571674255582
20
4.5768319086071703
30
0
10
116.16452129564776
20
4.5768349386352991
30
0
10
116.16332584874066
20
4.5768379686634244
30
0
10
116.16213040183608
20
4.5768409986915435
30
0
10
116.16093495492782
20
4.5768440287196706
30
0
10
116.15973950802116
20
4.5768470587477967
30
0
10
116.15854406111465
20
4.5768500887759211
30
0
0
LINE
5
128
100
AcDbEntity
8
0
100
AcDbLine
10
116.15854406111464
20
4.576850088775922
30
0
11
104.2630024622942
21
4.576855999999915
31
0
0
SPLINE
5
129
100
AcDbEntity
8
0
100
AcDbSpline
70
0
71
3
72
20
73
16
74
0
42
0.000000001
43
0.0000000001
44
0.0000000001
40
0.34685534914256794
40
0.34685534914256794
40
0.34685534914256794
40
0.34685534914256794
40
0.41107357470780498
40
0.41107357470780498
40
0.41107357470780498
40
0.86973097673173838
40
0.86973097673173838
40
0.86973097673173838
40
1
40
1
40
1
40
1.0028504344052747
40
1.0028504344052747
40
1.0028504344052747
40
1.0057008688105491
40
1.0057008688105491
40
1.0057008688105491
40
1.0057008688105491
10
104.2630024622942
20
4.576855999999915
30
0
10
104.11962240819497
20
4.8101136846672121
30
0
10
103.96647236122782
20
5.0334771459320606
30
0
10
103.80269733901729
20
5.2490166782461634
30
0
10
102.63298849791609
20
6.7884363843265305
30
0
10
100.93390330615043
20
7.9039868270492661
30
0
10
98.96282365279616
20
8.3285468158046356
30
0
10
98.402992676356348
20
8.4491314064160399
30
0
10
97.824140339848199
20
8.5123496845108111
30
0
10
97.242788006359874
20
8.513828727640476
30
0
10
97.241588067539226
20
8.5138317804557246
30
0
10
97.240388128719047
20
8.5138348332709732
30
0
10
97.239188189899551
20
8.5138378860862201
30
0
10
97.237988251079315
20
8.5138409389014686
30
0
10
97.236788312258426
20
8.5138439917167155
30
0
10
97.235588373437949
20
8.5138470445319641
30
0
0
LINE
5
130
100
AcDbEntity
8
0
100
AcDbLine
10
97.235588373437935
20
8.5138470445319623
30
0
11
79.812810591637998
21
8.5138470173253147
31
0
0
SPLINE
5
131
100
AcDbEntity
8
0
100
AcDbSpline
70
0
71
3
72
17
73
13
74
0
42
0.000000001
43
0.0000000001
44
0.0000000001
40
-0.0057015256108502842
40
-0.0057015256108502842
40
-0.0057015256108502842
40
-0.0057015256108502842
40
-0.0028507628054251421
40
-0.0028507628054251421
40
-0.0028507628054251421
40
0
40
0
40
0
40
0.4165632013267192
40
0.4165632013267192
40
0.4165632013267192
40
0.80540733232351314
40
0.80540733232351314
40
0.80540733232351314
40
0.80540733232351314
10
79.812810591637998
20
8.5138470173253147
30
0
10
79.811611238665989
20
8.513843964158351
30
0
10
79.810411885693611
20
8.5138409109913873
30
0
10
79.809212532721446
20
8.5138378578244218
30
0
10
79.808013179749921
20
8.5138348046574581
30
0
10
79.80681382677777
20
8.5138317514904944
30
0
10
79.805614473805122
20
8.513828698323529
30
0
10
77.945707379757636
20
8.5090939729936128
30
0
10
76.156870485516365
20
7.8590126414542425
30
0
10
74.770831897464717
20
6.7870228571481803
30
0
10
73.477023494364204
20
5.7863657304784697
30
0
10
72.486171010282732
20
4.4062193174969728
30
0
10
71.965107344976019
20
2.7988560000000984
30
0
0
LINE
5
132
100
AcDbEntity
8
0
100
AcDbLine
10
71.965107344976019
20
2.7988560000000984
30
0
11
60.762854960099816
21
2.7988500617719847
31
0
0
SPLINE
5
133
100
AcDbEntity
8
0
100
AcDbSpline
70
0
71
3
72
17
73
13
74
0
42
0.000000001
43
0.0000000001
44
0.0000000001
40
-0.0056801821890427977
40
-0.0056801821890427977
40
-0.0056801821890427977
40
-0.0056801821890427977
40
-0.0028400910945213988
40
-0.0028400910945213988
40
-0.0028400910945213988
40
0
40
0
40
0
40
0.41655315000988347
40
0.41655315000988347
40
0.41655315000988347
40
0.45470853682027856
40
0.45470853682027856
40
0.45470853682027856
40
0.45470853682027856
10
60.762854960099816
20
2.7988500617719847
30
0
10
60.761660096855749
20
2.7988470313947884
30
0
10
60.760465233614013
20
2.7988440010175957
30
0
10
60.759270370369364
20
2.7988409706403985
30
0
10
60.75807550712355
20
2.7988379402631991
30
0
10
60.756880643878901
20
2.7988349098860015
30
0
10
60.755685780631921
20
2.7988318795087972
30
0
10
58.89580738480759
20
2.7941149103437244
30
0
10
57.106980176387282
20
2.1440657119622575
30
0
10
55.720942332477321
20
1.0721142570082014
30
0
10
55.593984199842922
20
0.97392577276611281
30
0
10
55.470293342903211
20
0.87237941586907219
30
0
10
55.349295333865534
20
0.76700989244498974
30
0
0
LINE
5
134
100
AcDbEntity
8
0
100
AcDbLine
10
55.349295333865534
20
0.76700989244498974
30
0
11
32.199410364428005
21
0.76792301252538375
31
0
0
LINE
5
135
100
AcDbEntity
8
0
100
AcDbLine
10
32.199410364428005
20
0.76792301252538375
30
0
11
19.587082580286356
21
0.76684940924333644
31
0
0
SPLINE
5
136
100
AcDbEntity
8
0
100
AcDbSpline
70
0
71
3
72
20
73
16
74
0
42
0.000000001
43
0.0000000001
44
0.0000000001
40
-0.0054917934659334195
40
-0.0054917934659334195
40
-0.0054917934659334195
40
-0.0054917934659334195
40
-0.0027458967329667097
40
-0.0027458967329667097
40
-0.0027458967329667097
40
0
40
0
40
0
40
0.41534606013846842
40
0.41534606013846842
40
0.41534606013846842
40
0.86756328897389656
40
0.86756328897389656
40
0.86756328897389656
40
1
40
1
40
1
40
1
10
19.587082580286349
20
0.76684940924333644
30
0
10
19.585928529315638
20
0.76684647937152239
30
0
10
19.584774478344904
20
0.76684354949970834
30
0
10
19.583620427374182
20
0.76684061962789429
30
0
10
19.58246637640347
20
0.76683768975608024
30
0
10
19.581312325432734
20
0.76683475988426619
30
0
10
19.580158274462008
20
0.76683183001245214
30
0
10
17.724130279009771
20
0.76211979887348424
30
0
10
15.940182374783809
20
0.11472901868079241
30
0
10
14.557126991226237
20
-0.95110159635661162
30
0
10
13.051294787906878
20
-2.1115483018808909
30
0
10
11.953056490413479
20
-3.7854265586509763
30
0
10
11.527680762179365
20
-5.7317743309953029
30
0
10
11.403104875182009
20
-6.3017833466758466
30
0
10
11.33799539049445
20
-6.8921108457818505
30
0
10
11.337205650024336
20
-7.4851564917631404
30
0
0
LINE
5
137
100
AcDbEntity
8
0
100
AcDbLine
10
11.337205650024336
20
-7.4851564917631395
30
0
11
11.337199000000023
21
-74.306325582812349
31
0
0
SPLINE
5
138
100
AcDbEntity
8
0
100
AcDbSpline
70
0
71
3
72
11
73
7
74
0
42
0.000000001
43
0.0000000001
44
0.0000000001
40
0.16441676744019446
40
0.16441676744019446
40
0.16441676744019446
40
0.16441676744019446
40
1
40
1
40
1
40
1.1403054092100626
40
1.1403054092100626
40
1.1403054092100626
40
1.1403054092100626
10
11.337199000000023
20
-74.306325582812349
30
0
10
5.3748745199018142
20
-78.302407478054135
30
0
10
-0.18861254555631285
20
-82.869256891118539
30
0
10
-5.2739127035292448
20
-87.944105597489965
30
0
10
-6.0701172784928703
20
-88.738673790465981
30
0
10
-6.8663218534565011
20
-89.533241983441982
30
0
10
-7.662526428420124
20
-90.327810176417984
30
0
0
SPLINE
5
139
100
AcDbEntity
8
0
100
AcDbSpline
70
0
71
3
72
8
73
4
74
0
42
0.000000001
43
0.0000000001
44
0.0000000001
40
-1
40
-1
40
-1
40
-1
40
-0
40
-0
40
-0
40
-0
10
18.337199443334956
20
-7.4944781661175428
30
0
10
18.338118720251682
20
-6.8041587592421093
30
0
10
18.907757730646601
20
-6.2348978001108089
30
0
10
19.597929618297336
20
-6.233145611332505
30
0
0
LINE
5
140
100
AcDbEntity
8
0
100
AcDbLine
10
19.597929618297336
20
-6.2331456113325032
30
0
11
32.199568690959481
21
-6.2320769991649749
31
0
0
LINE
5
141
100
AcDbEntity
8
0
100
AcDbLine
10
32.199568690959481
20
-6.2320769991649749
30
0
11
59.251997311074106
21
-6.2331456634228903
31
0
0
SPLINE
5
142
100
AcDbEntity
8
0
100
AcDbSpline
70
0
71
3
72
8
73
4
74
0
42
0.000000001
43
0.0000000001
44
0.0000000001
40
-0.99994894815475011
40
-0.99994894815475011
40
-0.99994894815475011
40
-0.99994894815475011
40
-0.00036491765782444848
40
-0.00036491765782444848
40
-0.00036491765782444848
40
-0.00036491765782444848
10
59.251997311074106
20
-6.2331456634228903
30
0
10
59.402075785374876
20
-6.2335148090476213
30
0
10
59.512672115675926
20
-6.1236547885996151
30
0
10
59.512707023630298
20
-5.9714611923745267
30
0
0
LINE
5
143
100
AcDbEntity
8
0
100
AcDbLine
10
59.512707023630291
20
-5.9714611923745267
30
0
11
59.512707022883177
21
-5.4629927281320469
31
0
0
SPLINE
5
144
100
AcDbEntity
8
0
100
AcDbSpline
70
0
71
3
72
8
73
4
74
0
42
0.000000001
43
0.0000000001
44
0.0000000001
40
-1
40
-1
40
-1
40
-1
40
-0
40
-0
40
-0
40
-0
10
59.512707022883177
20
-5.4629927281320469
30
0
10
59.512915959500098
20
-4.7723930476070562
30
0
10
60.083111813780434
20
-4.2028963954364134
30
0
10
60.773438918708898
20
-4.2011456080327472
30
0
0
LINE
5
145
100
AcDbEntity
8
0
100
AcDbLine
10
60.773438918708898
20
-4.2011456080327472
30
0
11
78.303354874877385
21
-4.2011456637205713
31
0
0
SPLINE
5
146
100
AcDbEntity
8
0
100
AcDbSpline
70
0
71
3
72
8
73
4
74
0
42
0.000000001
43
0.0000000001
44
0.0000000001
40
-0.9969300279757497
40
-0.9969300279757497
40
-0.9969300279757497
40
-0.9969300279757497
40
-0.00036491768441066592
40
-0.00036491768441066592
40
-0.00036491768441066592
40
-0.00036491768441066592
10
78.303354874877385
20
-4.2011456637205713
30
0
10
78.45274281775977
20
-4.2008508296035894
30
0
10
78.562672221098239
20
-4.0911951370856867
30
0
10
78.562707023630281
20
-3.9394611923866618
30
0
0
LINE
5
147
100
AcDbEntity
8
0
100
AcDbLine
10
78.562707023630281
20
-3.9394611923866618
30
0
11
78.562707022883501
21
0.25200327294904679
31
0
0
SPLINE
5
148
100
AcDbEntity
8
0
100
AcDbSpline
70
0
71
3
72
8
73
4
74
0
42
0.000000001
43
0.0000000001
44
0.0000000001
40
-1
40
-1
40
-1
40
-1
40
-0
40
-0
40
-0
40
-0
10
78.562707022883501
20
0.25200327294904667
30
0
10
78.56291596067139
20
0.94260188841223236
30
0
10
79.133109649458845
20
1.5120940356748185
30
0
10
79.823434164920357
20
1.5138513798882356
30
0
0
LINE
5
149
100
AcDbEntity
8
0
100
AcDbLine
10
79.823434164920357
20
1.5138513798882358
30
0
11
97.224979067090672
21
1.5138513818426989
31
0
0
SPLINE
5
150
100
AcDbEntity
8
0
100
AcDbSpline
70
0
71
3
72
8
73
4
74
0
42
0.000000001
43
0.0000000001
44
0.0000000001
40
-1
40
-1
40
-1
40
-1
40
-0.00026982595144925246
40
-0.00026982595144925246
40
-0.00026982595144925246
40
-0.00026982595144925246
10
97.224979067090658
20
1.5138513818426986
30
0
10
97.915209032186453
20
1.5120953385124194
30
0
10
98.485608073220945
20
0.94277062863489469
30
0
10
98.485707023629558
20
0.25225986637339715
30
0
0
LINE
5
151
100
AcDbEntity
8
0
100
AcDbLine
10
98.485707023629544
20
0.25225986637339726
30
0
11
98.485706977347604
21
-2.1609934929045305
31
0
0
SPLINE
5
152
100
AcDbEntity
8
0
100
AcDbSpline
70
0
71
3
72
8
73
4
74
0
42
0.000000001
43
0.0000000001
44
0.0000000001
40
-1
40
-1
40
-1
40
-1
40
-5.0212013351273476e-05
40
-5.0212013351273476e-05
40
-5.0212013351273476e-05
40
-5.0212013351273476e-05
10
98.485706977347604
20
-2.1609934929045309
30
0
10
98.485752864688322
20
-2.313435935933549
30
0
10
98.596700729323402
20
-2.4235142864279351
30
0
10
98.746416365023478
20
-2.4231456643120954
30
0
0
LINE
5
153
100
AcDbEntity
8
0
100
AcDbLine
10
98.746416365023478
20
-2.423145664312095
30
0
11
116.14797431617041
21
-2.4231456060928553
31
0
0
SPLINE
5
154
100
AcDbEntity
8
0
100
AcDbSpline
70
0
71
3
72
8
73
4
74
0
42
0.000000001
43
0.0000000001
44
0.0000000001
40
-1
40
-1
40
-1
40
-1
40
-0.00026982620495297021
40
-0.00026982620495297021
40
-0.00026982620495297021
40
-0.00026982620495297021
10
116.14797431617041
20
-2.4231456060928549
30
0
10
116.83820686672462
20
-2.4248950974578358
30
0
10
117.40860807059246
20
-2.9942243048477457
30
0
10
117.40870702362956
20
-3.6847361311599292
30
0
0
LINE
5
155
100
AcDbEntity
8
0
100
AcDbLine
10
117.40870702362956
20
-3.6847361311599292
30
0
11
117.40870697734763
21
-11.685993492904529
31
0
0
SPLINE
5
156
100
AcDbEntity
8
0
100
AcDbSpline
70
0
71
3
72
8
73
4
74
0
42
0.000000001
43
0.0000000001
44
0.0000000001
40
-1
40
-1
40
-1
40
-1
40
-0.0010356492749761382
40
-0.0010356492749761382
40
-0.0010356492749761382
40
-0.0010356492749761382
10
117.40870697734763
20
-11.685993492904531
30
0
10
117.40875281946698
20
-11.838285705926596
30
0
10
117.5194821617297
20
-11.948297283773977
30
0
10
117.66897398122028
20
-11.948146395813925
30
0
0
LINE
5
157
100
AcDbEntity
8
0
100
AcDbLine
10
117.66897398122026
20
-11.948146395813925
30
0
11
118.30515983752409
21
-11.947077
31
0
0
LINE
5
158
100
AcDbEntity
8
0
100
AcDbLine
10
118.30515983752409
20
-11.947077
30
0
11
135.32364670245695
21
-11.947077
31
0
0
LINE
5
159
100
AcDbEntity
8
0
100
AcDbLine
10
135.32364670245695
20
-11.947077
30
0
11
139.32394726489821
21
-11.948145598368288
31
0
0
SPLINE
5
160
100
AcDbEntity
8
0
100
AcDbSpline
70
0
71
3
72
8
73
4
74
0
42
0.000000001
43
0.0000000001
44
0.0000000001
40
-1
40
-1
40
-1
40
-1
40
-0.0024223212503093035
40
-0.0024223212503093035
40
-0.0024223212503093035
40
-0.0024223212503093035
10
139.32394726489824
20
-11.948145598368288
30
0
10
140.01306170194422
20
-11.949888050325661
30
0
10
140.58379279555928
20
-12.51733006882964
30
0
10
140.58468490909951
20
-13.206482349940652
30
0
0
LINE
5
161
100
AcDbEntity
8
0
100
AcDbLine
10
140.58468490909951
20
-13.206482349940652
30
0
11
140.58468116472304
21
-68.580738277293023
31
0
0
SPLINE
5
162
100
AcDbEntity
8
0
100
AcDbSpline
70
0
71
3
72
8
73
4
74
0
42
0.000000001
43
0.0000000001
44
0.0000000001
40
-1
40
-1
40
-1
40
-1
40
-0.0019277941388347126
40
-0.0019277941388347126
40
-0.0019277941388347126
40
-0.0019277941388347126
10
140.58468116472307
20
-68.580738277293037
30
0
10
140.58655290997476
20
-69.271558019125749
30
0
10
140.01580514345545
20
-69.843548774638023
30
0
10
139.32548106266373
20
-69.844094934305772
30
0
0
LINE
5
163
100
AcDbEntity
8
0
100
AcDbLine
10
139.32548106266373
20
-69.844094934305772
30
0
11
135.32351648573677
21
-69.843077000000008
31
0
0
LINE
5
164
100
AcDbEntity
8
0
100
AcDbLine
10
135.32351648573677
20
-69.843077000000008
30
0
11
74.490605272927169
21
-69.843077000000008
31
0
0
LINE
5
165
100
AcDbEntity
8
0
100
AcDbLine
10
74.490605272927169
20
-69.843077000000008
30
0
11
64.441516564934375
21
-69.844091539368677
31
0
0
SPLINE
5
166
100
AcDbEntity
8
0
100
AcDbSpline
70
0
71
3
72
8
73
4
74
0
42
0.000000001
43
0.0000000001
44
0.0000000001
40
-1
40
-1
40
-1
40
-1
40
-0
40
-0
40
-0
40
-0
10
64.441516564934375
20
-69.844091539368677
30
0
10
64.291076290956283
20
-69.844455174110635
30
0
10
64.178488263671213
20
-69.95742106764564
30
0
10
64.17830763395672
20
-70.106698014992133
30
0
0
LINE
5
167
100
AcDbEntity
8
0
100
AcDbLine
10
64.17830763395672
20
-70.106698014992133
30
0
11
64.177800009288319
21
-81.026888948516088
31
0
0
LINE
5
168
100
AcDbEntity
8
0
100
AcDbLine
10
64.177800009288319
20
-81.026888948516088
30
0
11
64.178307637474546
21
-81.662490899245611
31
0
0
SPLINE
5
169
100
AcDbEntity
8
0
100
AcDbSpline
70
0
71
3
72
8
73
4
74
0
42
0.000000001
43
0.0000000001
44
0.0000000001
40
-1
40
-1
40
-1
40
-1
40
-0.016411633241378395
40
-0.016411633241378395
40
-0.016411633241378395
40
-0.016411633241378395
10
64.178307637474546
20
-81.662490899245626
30
0
10
64.179126974283832
20
-82.342888830380133
30
0
10
63.626513894716069
20
-82.907674816894016
30
0
10
62.950771663554804
20
-82.925657532525491
30
0
0
SPLINE
5
170
100
AcDbEntity
8
0
100
AcDbSpline
70
0
71
3
72
8
73
4
74
0
42
0.000000001
43
0.0000000001
44
0.0000000001
40
-0.99951434893641156
40
-0.99951434893641156
40
-0.99951434893641156
40
-0.99951434893641156
40
-1.1901073701733102e-06
40
-1.1901073701733102e-06
40
-1.1901073701733102e-06
40
-1.1901073701733102e-06
10
62.950771663554796
20
-82.925657532525449
30
0
10
44.964191133595833
20
-85.111917857184011
30
0
10
28.165318495016685
20
-93.051181895066705
30
0
10
15.057285055869716
20
-105.56090810333551
30
0
0
SPLINE
5
171
100
AcDbEntity
8
0
100
AcDbSpline
70
0
71
3
72
11
73
7
74
0
42
0.000000001
43
0.0000000001
44
0.0000000001
40
-1
40
-1
40
-1
40
-1
40
-0
40
-0
40
-0
40
0.19775601028789536
40
0.19775601028789536
40
0.19775601028789536
40
0.19775601028789536
10
15.057285052960314
20
-105.56090810028699
30
0
10
14.423216536731305
20
-106.16619277939191
30
0
10
13.798582453562553
20
-106.78142263224984
30
0
10
13.183401333223605
20
-107.4058667075997
30
0
10
13.061048898634443
20
-107.53006143718071
30
0
10
12.938696464045279
20
-107.65425616676171
30
0
10
12.816344029456117
20
-107.7784508963427
30
0
0
LINE
5
172
100
AcDbEntity
8
0
100
AcDbLine
10
12.816344029456117
20
-107.77845089634269
30
0
11
-0.67049004569588844
21
-93.239471332060532
31
0
0
SPLINE
5
173
100
AcDbEntity
8
0
100
AcDbSpline
70
0
71
3
72
11
73
7
74
0
42
0.000000001
43
0.0000000001
44
0.0000000001
40
-1.0200436298871525
40
-1.0200436298871525
40
-1.0200436298871525
40
-1.0200436298871525
40
-1
40
-1
40
-1
40
-0.01156272134922906
40
-0.01156272134922906
40
-0.01156272134922906
40
-0.01156272134922906
10
-0.67049004569589044
20
-93.239471332060504
30
0
10
-0.55674653498680404
20
-93.125961590206785
30
0
10
-0.44300302427771027
20
-93.012451848353066
30
0
10
-0.32925951356861632
20
-92.898942106499334
30
0
10
5.3070123417089343
20
-87.274254075318382
30
0
10
11.570176501898741
20
-82.315655921291551
30
0
10
18.337199000000002
20
-78.120439039435396
30
0
0
LINE
5
174
100
AcDbEntity
8
0
100
AcDbLine
10
18.337199000000005
20
-78.120439039435411
30
0
11
18.337199443334956
21
-7.4944781661175428
31
0
0
LWPOLYLINE
5
175
100
AcDbEntity
8
0
100
AcDbPolyline
90
6
70
1
43
0.0
10
-2.9707843847637743
20
-93.519020843810239
10
-2.4231622500178736
20
-91.543518376705634
10
-3.8601865043963284
20
-90.081512462788723
10
-5.8448328935206915
20
-90.595009015976416
10
-6.3924550282665971
20
-92.570511483081006
10
-4.9554307738881391
20
-94.032517396997918
0
LWPOLYLINE
5
176
100
AcDbEntity
8
0
100
AcDbPolyline
90
6
70
1
43
0.0
10
142.50438521004205
20
-70.012799682600203
10
140.72903313228394
20
-71.037799682600209
10
140.72903313228394
20
-73.087799682600206
10
142.50438521004205
20
-74.112799682600212
10
144.27973728780015
20
-73.087799682600206
10
144.27973728780015
20
-71.037799682600209
0
LWPOLYLINE
5
177
100
AcDbEntity
8
0
100
AcDbPolyline
90
6
70
1
43
0.0
10
14.470600546499954
20
-3.1454397495343467
10
14.470600546499954
20
-5.1954397495343461
10
16.245952624258052
20
-6.2204397495343464
10
18.021304702016153
20
-5.1954397495343461
10
18.021304702016153
20
-3.1454397495343471
10
16.245952624258052
20
-2.1204397495343477
0
LWPOLYLINE
5
178
100
AcDbEntity
8
0
100
AcDbPolyline
90
6
70
1
43
0.0
10
144.81558778603014
20
-9.7534721034084164
10
143.77872303566153
20
-7.9850232097609206
10
141.72876899328404
20
-7.9987499770449899
10
140.71567970127512
20
-9.7809256379765532
10
141.7525444516437
20
-11.549374531624048
10
143.80249849402122
20
-11.535647764339981
0
LWPOLYLINE
5
179
100
AcDbEntity
8
0
100
AcDbPolyline
90
6
70
1
43
0.0
10
11.056901333093339
20
-112.21819842096833
10
11.956368447102621
20
-114.06033275668219
10
14.001437136019014
20
-114.20243855393836
10
15.14703871092612
20
-112.50241001548075
10
14.247571596916837
20
-110.66027567976691
10
12.202502908000445
20
-110.5181698825107
0
LWPOLYLINE
5
180
100
AcDbEntity
8
0
100
AcDbPolyline
90
6
70
1
43
0.0
10
13.061848268835041
20
-54.685032360923884
10
13.061848064819605
20
-56.735032360923874
10
14.83720004056998
20
-57.760032537606421
10
16.61255222033579
20
-56.735032714288977
10
16.612552424351225
20
-54.68503271428898
10
14.837200448600852
20
-53.66003253760644
0
LWPOLYLINE
5
181
100
AcDbEntity
8
0
100
AcDbPolyline
90
6
70
1
43
0.0
10
69.453503202381853
20
-74.500054964252996
10
69.453503202381853
20
-72.450054964252985
10
67.678151124623753
20
-71.425054964252993
10
65.902799046865653
20
-72.450054964252985
10
65.902799046865653
20
-74.500054964252996
10
67.678151124623753
20
-75.525054964252988
0
LWPOLYLINE
5
182
100
AcDbEntity
8
0
100
AcDbPolyline
90
6
70
1
43
0.0
10
90.07169600053146
20
3.6693174785653744
10
90.462348156965007
20
5.6817515501994853
10
88.91485520570528
20
7.0262832775311646
10
86.976710098012006
20
6.3583809332287347
10
86.586057941578474
20
4.3459468615946237
10
88.133550892838187
20
3.0014151342629427
0
LWPOLYLINE
5
183
100
AcDbEntity
8
0
100
AcDbPolyline
90
6
70
1
43
0.0
10
40.9579725248446
20
-1.5666826852690825
10
40.791698192916897
20
-3.6099283500245463
10
42.478063678803714
20
-4.7755489778489508
10
44.330703496618213
20
-3.8979239409178912
10
44.496977828545909
20
-1.8546782761624272
10
42.810612342659098
20
-0.68905764833802308
0
LWPOLYLINE
5
184
100
AcDbEntity
8
0
100
AcDbPolyline
90
6
70
1
43
0.0
10
13.061846856655109
20
-73.559606354937557
10
13.061846652639673
20
-75.60960635493754
10
14.837198628390047
20
-76.634606531620079
10
16.612550808155856
20
-75.609606708302636
10
16.612551012171291
20
-73.559606708302653
10
14.837199036420918
20
-72.534606531620099
0
SPLINE
5
185
100
AcDbEntity
8
0
100
AcDbSpline
70
0
71
3
72
14
73
10
74
0
42
0.000000001
43
0.0000000001
44
0.0000000001
40
0
40
0
40
0
40
0
40
0.15625778935477078
40
0.15625778935477078
40
0.31251557870954183
40
0.31251557870954183
40
0.46877336806431458
40
0.46877336806431458
40
0.61559909964171611
40
0.61559909964171611
40
0.61559909964171611
40
0.61559909964171611
10
-7.769556453697124
20
-95.879471255811467
30
0
10
-8.1237832173330951
20
-95.497610275767713
30
0
10
-8.4000374393120971
20
-95.050211731053409
30
0
10
-8.7655017563822337
20
-94.074704957333992
30
0
10
-8.851217813408736
20
-93.555923104777904
30
0
10
-8.8189683247961348
20
-92.514703818024046
30
0
10
-8.7013111018454996
20
-92.002221007715974
30
0
10
-8.2890078544080144
20
-91.07990409692151
30
0
10
-8.0089538071257103
20
-90.673525567852522
30
0
10
-7.6625264284201293
20
-90.327810176417984
30
0
0
LINE
5
186
100
AcDbEntity
8
0
100
AcDbLine
10
-7.769556453697124
20
-95.879471255811467
30
0
11
9.8185660723671724
21
-114.83969220578693
31
0
0
SPLINE
5
187
100
AcDbEntity
8
0
100
AcDbSpline
70
0
71
3
72
16
73
12
74
0
42
0.000000001
43
0.0000000001
44
0.0000000001
40
0
40
0
40
0
40
0
40
0.15625778935477339
40
0.15625778935477339
40
0.312515578709544
40
0.312515578709544
40
0.46877336806431469
40
0.46877336806431469
40
0.55837422471336196
40
0.55837422471336196
40
0.647975081362411
40
0.647975081362411
40
0.647975081362411
40
0.647975081362411
10
15.600594871981897
20
-114.9265799351965
30
0
10
15.235054037912924
20
-115.29762482033058
30
0
10
14.800534656574749
20
-115.59372406081457
30
0
10
13.842454385435531
20
-116.00269817573849
30
0
10
13.328053265220678
20
-116.11166303473168
30
0
10
12.286437248676469
20
-116.12628174543298
30
0
10
11.769180769189862
20
-116.03179583429903
30
0
10
11.006718463615453
20
-115.73133166104435
30
0
10
10.741982666188122
20
-115.59105202845964
30
0
10
10.248692174656188
20
-115.25418643977231
30
0
10
10.021685683881323
20
-115.05865774391498
30
0
10
9.8185660723671582
20
-114.83969220578693
30
0
0
SPLINE
5
188
100
AcDbEntity
8
0
100
AcDbSpline
70
0
71
3
72
11
73
7
74
0
42
0.000000001
43
0.0000000001
44
0.0000000001
40
-1.3842920720151157
40
-1.3842920720151157
40
-1.3842920720151157
40
-1.3842920720151157
40
0
40
0
40
0
40
1
40
1
40
1
40
1
10
15.600594871981883
20
-114.92657993519651
30
0
10
16.457061914105921
20
-114.05721682812955
30
0
10
17.313528956229966
20
-113.18785372106262
30
0
10
18.169995998354008
20
-112.31849061399566
30
0
10
18.735856803438264
20
-111.74410948374756
30
0
10
19.309490050969536
20
-111.17914169087838
30
0
10
19.890771794404724
20
-110.62424750430496
30
0
0
SPLINE
5
189
100
AcDbEntity
8
0
100
AcDbSpline
70
0
71
3
72
8
73
4
74
0
42
0.000000001
43
0.0000000001
44
0.0000000001
40
1.9472039208589933e-05
40
1.9472039208589933e-05
40
1.9472039208589933e-05
40
1.9472039208589933e-05
40
0.99589822548430407
40
0.99589822548430407
40
0.99589822548430407
40
0.99589822548430407
10
19.89077184200125
20
-110.62424755418971
30
0
10
31.864410380234666
20
-99.197407943817538
30
0
10
47.194555202721197
20
-91.93151939303587
30
0
10
63.616470781736382
20
-89.896474795032219
30
0
0
SPLINE
5
190
100
AcDbEntity
8
0
100
AcDbSpline
70
0
71
3
72
14
73
10
74
0
42
0.000000001
43
0.0000000001
44
0.0000000001
40
0.052272403724476883
40
0.052272403724476883
40
0.052272403724476883
40
0.052272403724476883
40
0.41514053004462631
40
0.41514053004462631
40
0.41514053004462631
40
0.8693580704056576
40
0.8693580704056576
40
0.8693580704056576
40
1
40
1
40
1
40
1
10
63.61647078173641
20
-89.896474795032461
30
0
10
65.221396300188374
20
-89.760241944158651
30
0
10
66.742364965746134
20
-89.145983803837652
30
0
10
67.957067256390673
20
-88.210543605467322
30
0
10
69.477562022141171
20
-87.039613134479268
30
0
10
70.580755943333003
20
-85.343450315767328
30
0
10
70.997511381393849
20
-83.383961219204451
30
0
10
71.117378470969314
20
-82.8203734801872
30
0
10
71.179005822965721
20
-82.238067016376689
30
0
10
71.178302562118262
20
-81.654061488684334
30
0
0
LINE
5
191
100
AcDbEntity
8
0
100
AcDbLine
10
71.178302562118262
20
-81.654061488684306
30
0
11
71.177800139324916
21
-81.02425622760444
31
0
0
LINE
5
192
100
AcDbEntity
8
0
100
AcDbLine
10
71.177800139324916
20
-81.02425622760444
30
0
11
71.177994615290771
21
-76.843411913513847
31
0
0
LINE
5
193
100
AcDbEntity
8
0
100
AcDbLine
10
71.177994615290771
20
-76.843411913513847
30
0
11
74.490959094171018
21
-76.843077000000022
31
0
0
LINE
5
194
100
AcDbEntity
8
0
100
AcDbLine
10
74.490959094171018
20
-76.843077000000022
30
0
11
135.32262728636638
21
-76.843077000000022
31
0
0
LINE
5
195
100
AcDbEntity
8
0
100
AcDbLine
10
135.32262728636638
20
-76.843077000000022
30
0
11
139.32077757235288
21
-76.844094398180673
31
0
0
SPLINE
5
196
100
AcDbEntity
8
0
100
AcDbSpline
70
0
71
3
72
14
73
10
74
0
42
0.000000001
43
0.0000000001
44
0.0000000001
40
0.0012034198451111124
40
0.0012034198451111124
40
0.0012034198451111124
40
0.0012034198451111124
40
0.41497817041490903
40
0.41497817041490903
40
0.41497817041490903
40
0.86927882074624752
40
0.86927882074624752
40
0.86927882074624752
40
0.99848676089573929
40
0.99848676089573929
40
0.99848676089573929
40
0.99848676089573929
10
139.32077757235288
20
-76.844094398180673
30
0
10
141.17168019504527
20
-76.844940518460845
30
0
10
142.96445043749483
20
-76.203883800372139
30
0
10
144.35536245343781
20
-75.135831013725408
30
0
10
145.88250308375999
20
-73.963171070377882
30
0
10
146.98982499100796
20
-72.260192234285199
30
0
10
147.40560031464449
20
-70.295895703252683
30
0
10
147.52385124185071
20
-69.737228863501528
30
0
10
147.5848332295997
20
-69.160435968712292
30
0
10
147.58468559392443
20
-68.582093000000285
30
0
0
LINE
5
197
100
AcDbEntity
8
0
100
AcDbLine
10
147.58468559392443
20
-68.582093000000285
30
0
11
147.58468300000001
21
-13.210144000000001
31
0
0
SPLINE
5
198
100
AcDbEntity
8
0
100
AcDbSpline
70
0
71
3
72
20
73
16
74
0
42
0.000000001
43
0.0000000001
44
0.0000000001
40
0.0015146416662479008
40
0.0015146416662479008
40
0.0015146416662479008
40
0.0015146416662479008
40
0.40867608758512608
40
0.40867608758512608
40
0.40867608758512608
40
0.87147714426160672
40
0.87147714426160672
40
0.87147714426160672
40
1
40
1
40
1
40
1.0025389412607673
40
1.0025389412607673
40
1.0025389412607673
40
1.0050778825215347
40
1.0050778825215347
40
1.0050778825215347
40
1.0050778825215347
10
147.58468559632985
20
-13.21014399999993
30
0
10
147.58515074415021
20
-11.380658522505854
30
0
10
146.95828047263657
20
-9.6142063468909331
30
0
10
145.92242622925482
20
-8.2394302049286683
30
0
10
144.74501996153219
20
-6.676787529471337
30
0
10
143.02567880818253
20
-5.5498081964332595
30
0
10
141.03672881643311
20
-5.1280170461001919
30
0
10
140.48438450093778
20
-5.0108829073942749
30
0
10
139.91409473929113
20
-4.9496154313842142
30
0
10
139.34164697347316
20
-4.9481679755243153
30
0
10
139.34057558342022
20
-4.9481652664739819
30
0
10
139.3395041933702
20
-4.9481625574236574
30
0
10
139.33843280333031
20
-4.9481598483733569
30
0
10
139.33736141328046
20
-4.9481571393230332
30
0
10
139.33629002322255
20
-4.9481544302726901
30
0
10
139.33521863317256
20
-4.9481517212223647
30
0
0
LINE
5
199
100
AcDbEntity
8
0
100
AcDbLine
10
139.33521863317256
20
-4.9481517212223638
30
0
11
135.32458053685443
21
-4.9470770000000019
31
0
0
LINE
5
200
100
AcDbEntity
8
0
100
AcDbLine
10
135.32458053685443
20
-4.9470770000000019
30
0
11
124.40870700000002
21
-4.9470770000000019
31
0
0
LINE
5
201
100
AcDbEntity
8
0
100
AcDbLine
10
124.40870700000002
20
-4.9470770000000019
30
0
11
124.40870702363083
21
-3.6844674912090802
31
0
0
SPLINE
5
202
100
AcDbEntity
8
0
100
AcDbSpline
70
0
71
3
72
20
73
16
74
0
42
0.000000001
43
0.0000000001
44
0.0000000001
40
0.00021894119055154785
40
0.00021894119055154785
40
0.00021894119055154785
40
0.00021894119055154785
40
0.41108278300387774
40
0.41108278300387774
40
0.41108278300387774
40
0.86972652628915115
40
0.86972652628915115
40
0.86972652628915115
40
1
40
1
40
1
40
1.0028397639413344
40
1.0028397639413344
40
1.0028397639413344
40
1.0056795278826689
40
1.0056795278826689
40
1.0056795278826689
40
1.0056795278826689
10
124.40870702363083
20
-3.6844674912090802
30
0
10
124.40858764995481
20
-1.841971885273729
30
0
10
123.77347458553386
20
-0.066887589495161853
30
0
10
122.72562944931599
20
1.3121121340188062
30
0
10
121.55592901148437
20
2.8514775656188025
30
0
10
119.85686947995907
20
3.9669986370982322
30
0
10
117.88582835962734
20
4.3915501637972207
30
0
10
117.32597252962461
20
4.5121400616472398
30
0
10
116.74709399101587
20
4.5753583262976143
30
0
10
116.16571674255582
20
4.5768319086071703
30
0
10
116.16452129564776
20
4.5768349386352991
30
0
10
116.16332584874066
20
4.5768379686634244
30
0
10
116.16213040183608
20
4.5768409986915435
30
0
10
116.16093495492782
20
4.5768440287196706
30
0
10
116.15973950802116
20
4.5768470587477967
30
0
10
116.15854406111465
20
4.5768500887759211
30
0
0
LINE
5
203
100
AcDbEntity
8
0
100
AcDbLine
10
116.15854406111464
20
4.576850088775922
30
0
11
104.2630024622942
21
4.576855999999915
31
0
0
SPLINE
5
204
100
AcDbEntity
8
0
100
AcDbSpline
70
0
71
3
72
20
73
16
74
0
42
0.000000001
43
0.0000000001
44
0.0000000001
40
0.34685534914256794
40
0.34685534914256794
40
0.34685534914256794
40
0.34685534914256794
40
0.41107357470780498
40
0.41107357470780498
40
0.41107357470780498
40
0.86973097673173838
40
0.86973097673173838
40
0.86973097673173838
40
1
40
1
40
1
40
1.0028504344052747
40
1.0028504344052747
40
1.0028504344052747
40
1.0057008688105491
40
1.0057008688105491
40
1.0057008688105491
40
1.0057008688105491
10
104.2630024622942
20
4.576855999999915
30
0
10
104.11962240819497
20
4.8101136846672121
30
0
10
103.96647236122782
20
5.0334771459320606
30
0
10
103.80269733901729
20
5.2490166782461634
30
0
10
102.63298849791609
20
6.7884363843265305
30
0
10
100.93390330615043
20
7.9039868270492661
30
0
10
98.96282365279616
20
8.3285468158046356
30
0
10
98.402992676356348
20
8.4491314064160399
30
0
10
97.824140339848199
20
8.5123496845108111
30
0
10
97.242788006359874
20
8.513828727640476
30
0
10
97.241588067539226
20
8.5138317804557246
30
0
10
97.240388128719047
20
8.5138348332709732
30
0
10
97.239188189899551
20
8.5138378860862201
30
0
10
97.237988251079315
20
8.5138409389014686
30
0
10
97.236788312258426
20
8.5138439917167155
30
0
10
97.235588373437949
20
8.5138470445319641
30
0
0
LINE
5
205
100
AcDbEntity
8
0
100
AcDbLine
10
97.235588373437935
20
8.5138470445319623
30
0
11
79.812810591637998
21
8.5138470173253147
31
0
0
SPLINE
5
206
100
AcDbEntity
8
0
100
AcDbSpline
70
0
71
3
72
17
73
13
74
0
42
0.000000001
43
0.0000000001
44
0.0000000001
40
-0.0057015256108502842
40
-0.0057015256108502842
40
-0.0057015256108502842
40
-0.0057015256108502842
40
-0.0028507628054251421
40
-0.0028507628054251421
40
-0.0028507628054251421
40
0
40
0
40
0
40
0.4165632013267192
40
0.4165632013267192
40
0.4165632013267192
40
0.80540733232351314
40
0.80540733232351314
40
0.80540733232351314
40
0.80540733232351314
10
79.812810591637998
20
8.5138470173253147
30
0
10
79.811611238665989
20
8.513843964158351
30
0
10
79.810411885693611
20
8.5138409109913873
30
0
10
79.809212532721446
20
8.5138378578244218
30
0
10
79.808013179749921
20
8.5138348046574581
30
0
10
79.80681382677777
20
8.5138317514904944
30
0
10
79.805614473805122
20
8.513828698323529
30
0
10
77.945707379757636
20
8.5090939729936128
30
0
10
76.156870485516365
20
7.8590126414542425
30
0
10
74.770831897464717
20
6.7870228571481803
30
0
10
73.477023494364204
20
5.7863657304784697
30
0
10
72.486171010282732
20
4.4062193174969728
30
0
10
71.965107344976019
20
2.7988560000000984
30
0
0
LINE
5
207
100
AcDbEntity
8
0
100
AcDbLine
10
71.965107344976019
20
2.7988560000000984
30
0
11
60.762854960099816
21
2.7988500617719847
31
0
0
SPLINE
5
208
100
AcDbEntity
8
0
100
AcDbSpline
70
0
71
3
72
17
73
13
74
0
42
0.000000001
43
0.0000000001
44
0.0000000001
40
-0.0056801821890427977
40
-0.0056801821890427977
40
-0.0056801821890427977
40
-0.0056801821890427977
40
-0.0028400910945213988
40
-0.0028400910945213988
40
-0.0028400910945213988
40
0
40
0
40
0
40
0.41655315000988347
40
0.41655315000988347
40
0.41655315000988347
40
0.45470853682027856
40
0.45470853682027856
40
0.45470853682027856
40
0.45470853682027856
10
60.762854960099816
20
2.7988500617719847
30
0
10
60.761660096855749
20
2.7988470313947884
30
0
10
60.760465233614013
20
2.7988440010175957
30
0
10
60.759270370369364
20
2.7988409706403985
30
0
10
60.75807550712355
20
2.7988379402631991
30
0
10
60.756880643878901
20
2.7988349098860015
30
0
10
60.755685780631921
20
2.7988318795087972
30
0
10
58.89580738480759
20
2.7941149103437244
30
0
10
57.106980176387282
20
2.1440657119622575
30
0
10
55.720942332477321
20
1.0721142570082014
30
0
10
55.593984199842922
20
0.97392577276611281
30
0
10
55.470293342903211
20
0.87237941586907219
30
0
10
55.349295333865534
20
0.76700989244498974
30
0
0
LINE
5
209
100
AcDbEntity
8
0
100
AcDbLine
10
55.349295333865534
20
0.76700989244498974
30
0
11
32.199410364428005
21
0.76792301252538375
31
0
0
LINE
5
210
100
AcDbEntity
8
0
100
AcDbLine
10
32.199410364428005
20
0.76792301252538375
30
0
11
19.587082580286356
21
0.76684940924333644
31
0
0
SPLINE
5
211
100
AcDbEntity
8
0
100
AcDbSpline
70
0
71
3
72
20
73
16
74
0
42
0.000000001
43
0.0000000001
44
0.0000000001
40
-0.0054917934659334195
40
-0.0054917934659334195
40
-0.0054917934659334195
40
-0.0054917934659334195
40
-0.0027458967329667097
40
-0.0027458967329667097
40
-0.0027458967329667097
40
0
40
0
40
0
40
0.41534606013846842
40
0.41534606013846842
40
0.41534606013846842
40
0.86756328897389656
40
0.86756328897389656
40
0.86756328897389656
40
1
40
1
40
1
40
1
10
19.587082580286349
20
0.76684940924333644
30
0
10
19.585928529315638
20
0.76684647937152239
30
0
10
19.584774478344904
20
0.76684354949970834
30
0
10
19.583620427374182
20
0.76684061962789429
30
0
10
19.58246637640347
20
0.76683768975608024
30
0
10
19.581312325432734
20
0.76683475988426619
30
0
10
19.580158274462008
20
0.76683183001245214
30
0
10
17.724130279009771
20
0.76211979887348424
30
0
10
15.940182374783809
20
0.11472901868079241
30
0
10
14.557126991226237
20
-0.95110159635661162
30
0
10
13.051294787906878
20
-2.1115483018808909
30
0
10
11.953056490413479
20
-3.7854265586509763
30
0
10
11.527680762179365
20
-5.7317743309953029
30
0
10
11.403104875182009
20
-6.3017833466758466
30
0
10
11.33799539049445
20
-6.8921108457818505
30
0
10
11.337205650024336
20
-7.4851564917631404
30
0
0
LINE
5
212
100
AcDbEntity
8
0
100
AcDbLine
10
11.337205650024336
20
-7.4851564917631395
30
0
11
11.337199000000023
21
-74.306325582812349
31
0
0
SPLINE
5
213
100
AcDbEntity
8
0
100
AcDbSpline
70
0
71
3
72
11
73
7
74
0
42
0.000000001
43
0.0000000001
44
0.0000000001
40
0.16441676744019446
40
0.16441676744019446
40
0.16441676744019446
40
0.16441676744019446
40
1
40
1
40
1
40
1.1403054092100626
40
1.1403054092100626
40
1.1403054092100626
40
1.1403054092100626
10
11.337199000000023
20
-74.306325582812349
30
0
10
5.3748745199018142
20
-78.302407478054135
30
0
10
-0.18861254555631285
20
-82.869256891118539
30
0
10
-5.2739127035292448
20
-87.944105597489965
30
0
10
-6.0701172784928703
20
-88.738673790465981
30
0
10
-6.8663218534565011
20
-89.533241983441982
30
0
10
-7.662526428420124
20
-90.327810176417984
30
0
0
SPLINE
5
214
100
AcDbEntity
8
0
100
AcDbSpline
70
0
71
3
72
8
73
4
74
0
42
0.000000001
43
0.0000000001
44
0.0000000001
40
-1
40
-1
40
-1
40
-1
40
0
40
0
40
0
40
0
10
18.337199443334956
20
-7.4944781661175428
30
0
10
18.338118720251682
20
-6.8041587592421093
30
0
10
18.907757730646601
20
-6.2348978001108089
30
0
10
19.597929618297336
20
-6.233145611332505
30
0
0
LINE
5
215
100
AcDbEntity
8
0
100
AcDbLine
10
19.597929618297336
20
-6.2331456113325032
30
0
11
32.199568690959481
21
-6.2320769991649749
31
0
0
LINE
5
216
100
AcDbEntity
8
0
100
AcDbLine
10
32.199568690959481
20
-6.2320769991649749
30
0
11
59.251997311074106
21
-6.2331456634228903
31
0
0
SPLINE
5
217
100
AcDbEntity
8
0
100
AcDbSpline
70
0
71
3
72
8
73
4
74
0
42
0.000000001
43
0.0000000001
44
0.0000000001
40
-0.99994894815475011
40
-0.99994894815475011
40
-0.99994894815475011
40
-0.99994894815475011
40
-0.00036491765782444848
40
-0.00036491765782444848
40
-0.00036491765782444848
40
-0.00036491765782444848
10
59.251997311074106
20
-6.2331456634228903
30
0
10
59.402075785374876
20
-6.2335148090476213
30
0
10
59.512672115675926
20
-6.1236547885996151
30
0
10
59.512707023630298
20
-5.9714611923745267
30
0
0
LINE
5
218
100
AcDbEntity
8
0
100
AcDbLine
10
59.512707023630291
20
-5.9714611923745267
30
0
11
59.512707022883177
21
-5.4629927281320469
31
0
0
SPLINE
5
219
100
AcDbEntity
8
0
100
AcDbSpline
70
0
71
3
72
8
73
4
74
0
42
0.000000001
43
0.0000000001
44
0.0000000001
40
-1
40
-1
40
-1
40
-1
40
0
40
0
40
0
40
0
10
59.512707022883177
20
-5.4629927281320469
30
0
10
59.512915959500098
20
-4.7723930476070562
30
0
10
60.083111813780434
20
-4.2028963954364134
30
0
10
60.773438918708898
20
-4.2011456080327472
30
0
0
LINE
5
220
100
AcDbEntity
8
0
100
AcDbLine
10
60.773438918708898
20
-4.2011456080327472
30
0
11
78.303354874877385
21
-4.2011456637205713
31
0
0
SPLINE
5
221
100
AcDbEntity
8
0
100
AcDbSpline
70
0
71
3
72
8
73
4
74
0
42
0.000000001
43
0.0000000001
44
0.0000000001
40
-0.9969300279757497
40
-0.9969300279757497
40
-0.9969300279757497
40
-0.9969300279757497
40
-0.00036491768441066592
40
-0.00036491768441066592
40
-0.00036491768441066592
40
-0.00036491768441066592
10
78.303354874877385
20
-4.2011456637205713
30
0
10
78.45274281775977
20
-4.2008508296035894
30
0
10
78.562672221098239
20
-4.0911951370856867
30
0
10
78.562707023630281
20
-3.9394611923866618
30
0
0
LINE
5
222
100
AcDbEntity
8
0
100
AcDbLine
10
78.562707023630281
20
-3.9394611923866618
30
0
11
78.562707022883501
21
0.25200327294904679
31
0
0
SPLINE
5
223
100
AcDbEntity
8
0
100
AcDbSpline
70
0
71
3
72
8
73
4
74
0
42
0.000000001
43
0.0000000001
44
0.0000000001
40
-1
40
-1
40
-1
40
-1
40
0
40
0
40
0
40
0
10
78.562707022883501
20
0.25200327294904667
30
0
10
78.56291596067139
20
0.94260188841223236
30
0
10
79.133109649458845
20
1.5120940356748185
30
0
10
79.823434164920357
20
1.5138513798882356
30
0
0
LINE
5
224
100
AcDbEntity
8
0
100
AcDbLine
10
79.823434164920357
20
1.5138513798882358
30
0
11
97.224979067090672
21
1.5138513818426989
31
0
0
SPLINE
5
225
100
AcDbEntity
8
0
100
AcDbSpline
70
0
71
3
72
8
73
4
74
0
42
0.000000001
43
0.0000000001
44
0.0000000001
40
-1
40
-1
40
-1
40
-1
40
-0.00026982595144925246
40
-0.00026982595144925246
40
-0.00026982595144925246
40
-0.00026982595144925246
10
97.224979067090658
20
1.5138513818426986
30
0
10
97.915209032186453
20
1.5120953385124194
30
0
10
98.485608073220945
20
0.94277062863489469
30
0
10
98.485707023629558
20
0.25225986637339715
30
0
0
LINE
5
226
100
AcDbEntity
8
0
100
AcDbLine
10
98.485707023629544
20
0.25225986637339726
30
0
11
98.485706977347604
21
-2.1609934929045305
31
0
0
SPLINE
5
227
100
AcDbEntity
8
0
100
AcDbSpline
70
0
71
3
72
8
73
4
74
0
42
0.000000001
43
0.0000000001
44
0.0000000001
40
-1
40
-1
40
-1
40
-1
40
-5.0212013351273476e-05
40
-5.0212013351273476e-05
40
-5.0212013351273476e-05
40
-5.0212013351273476e-05
10
98.485706977347604
20
-2.1609934929045309
30
0
10
98.485752864688322
20
-2.313435935933549
30
0
10
98.596700729323402
20
-2.4235142864279351
30
0
10
98.746416365023478
20
-2.4231456643120954
30
0
0
LINE
5
228
100
AcDbEntity
8
0
100
AcDbLine
10
98.746416365023478
20
-2.423145664312095
30
0
11
116.14797431617041
21
-2.4231456060928553
31
0
0
SPLINE
5
229
100
AcDbEntity
8
0
100
AcDbSpline
70
0
71
3
72
8
73
4
74
0
42
0.000000001
43
0.0000000001
44
0.0000000001
40
-1
40
-1
40
-1
40
-1
40
-0.00026982620495297021
40
-0.00026982620495297021
40
-0.00026982620495297021
40
-0.00026982620495297021
10
116.14797431617041
20
-2.4231456060928549
30
0
10
116.83820686672462
20
-2.4248950974578358
30
0
10
117.40860807059246
20
-2.9942243048477457
30
0
10
117.40870702362956
20
-3.6847361311599292
30
0
0
LINE
5
230
100
AcDbEntity
8
0
100
AcDbLine
10
117.40870702362956
20
-3.6847361311599292
30
0
11
117.40870697734763
21
-11.685993492904529
31
0
0
SPLINE
5
231
100
AcDbEntity
8
0
100
AcDbSpline
70
0
71
3
72
8
73
4
74
0
42
0.000000001
43
0.0000000001
44
0.0000000001
40
-1
40
-1
40
-1
40
-1
40
-0.0010356492749761382
40
-0.0010356492749761382
40
-0.0010356492749761382
40
-0.0010356492749761382
10
117.40870697734763
20
-11.685993492904531
30
0
10
117.40875281946698
20
-11.838285705926596
30
0
10
117.5194821617297
20
-11.948297283773977
30
0
10
117.66897398122028
20
-11.948146395813925
30
0
0
LINE
5
232
100
AcDbEntity
8
0
100
AcDbLine
10
117.66897398122026
20
-11.948146395813925
30
0
11
118.30515983752409
21
-11.947077
31
0
0
LINE
5
233
100
AcDbEntity
8
0
100
AcDbLine
10
118.30515983752409
20
-11.947077
30
0
11
135.32364670245695
21
-11.947077
31
0
0
LINE
5
234
100
AcDbEntity
8
0
100
AcDbLine
10
135.32364670245695
20
-11.947077
30
0
11
139.32394726489821
21
-11.948145598368288
31
0
0
SPLINE
5
235
100
AcDbEntity
8
0
100
AcDbSpline
70
0
71
3
72
8
73
4
74
0
42
0.000000001
43
0.0000000001
44
0.0000000001
40
-1
40
-1
40
-1
40
-1
40
-0.0024223212503093035
40
-0.0024223212503093035
40
-0.0024223212503093035
40
-0.0024223212503093035
10
139.32394726489824
20
-11.948145598368288
30
0
10
140.01306170194422
20
-11.949888050325661
30
0
10
140.58379279555928
20
-12.51733006882964
30
0
10
140.58468490909951
20
-13.206482349940652
30
0
0
LINE
5
236
100
AcDbEntity
8
0
100
AcDbLine
10
140.58468490909951
20
-13.206482349940652
30
0
11
140.58468116472304
21
-68.580738277293023
31
0
0
SPLINE
5
237
100
AcDbEntity
8
0
100
AcDbSpline
70
0
71
3
72
8
73
4
74
0
42
0.000000001
43
0.0000000001
44
0.0000000001
40
-1
40
-1
40
-1
40
-1
40
-0.0019277941388347126
40
-0.0019277941388347126
40
-0.0019277941388347126
40
-0.0019277941388347126
10
140.58468116472307
20
-68.580738277293037
30
0
10
140.58655290997476
20
-69.271558019125749
30
0
10
140.01580514345545
20
-69.843548774638023
30
0
10
139.32548106266373
20
-69.844094934305772
30
0
0
LINE
5
238
100
AcDbEntity
8
0
100
AcDbLine
10
139.32548106266373
20
-69.844094934305772
30
0
11
135.32351648573677
21
-69.843077000000008
31
0
0
LINE
5
239
100
AcDbEntity
8
0
100
AcDbLine
10
135.32351648573677
20
-69.843077000000008
30
0
11
74.490605272927169
21
-69.843077000000008
31
0
0
LINE
5
240
100
AcDbEntity
8
0
100
AcDbLine
10
74.490605272927169
20
-69.843077000000008
30
0
11
64.441516564934375
21
-69.844091539368677
31
0
0
SPLINE
5
241
100
AcDbEntity
8
0
100
AcDbSpline
70
0
71
3
72
8
73
4
74
0
42
0.000000001
43
0.0000000001
44
0.0000000001
40
-1
40
-1
40
-1
40
-1
40
0
40
0
40
0
40
0
10
64.441516564934375
20
-69.844091539368677
30
0
10
64.291076290956283
20
-69.844455174110635
30
0
10
64.178488263671213
20
-69.95742106764564
30
0
10
64.17830763395672
20
-70.106698014992133
30
0
0
LINE
5
242
100
AcDbEntity
8
0
100
AcDbLine
10
64.17830763395672
20
-70.106698014992133
30
0
11
64.177800009288319
21
-81.026888948516088
31
0
0
LINE
5
243
100
AcDbEntity
8
0
100
AcDbLine
10
64.177800009288319
20
-81.026888948516088
30
0
11
64.178307637474546
21
-81.662490899245611
31
0
0
SPLINE
5
244
100
AcDbEntity
8
0
100
AcDbSpline
70
0
71
3
72
8
73
4
74
0
42
0.000000001
43
0.0000000001
44
0.0000000001
40
-1
40
-1
40
-1
40
-1
40
-0.016411633241378395
40
-0.016411633241378395
40
-0.016411633241378395
40
-0.016411633241378395
10
64.178307637474546
20
-81.662490899245626
30
0
10
64.179126974283832
20
-82.342888830380133
30
0
10
63.626513894716069
20
-82.907674816894016
30
0
10
62.950771663554804
20
-82.925657532525491
30
0
0
SPLINE
5
245
100
AcDbEntity
8
0
100
AcDbSpline
70
0
71
3
72
8
73
4
74
0
42
0.000000001
43
0.0000000001
44
0.0000000001
40
-0.99951434893641156
40
-0.99951434893641156
40
-0.99951434893641156
40
-0.99951434893641156
40
-1.1901073701733102e-06
40
-1.1901073701733102e-06
40
-1.1901073701733102e-06
40
-1.1901073701733102e-06
10
62.950771663554796
20
-82.925657532525449
30
0
10
44.964191133595833
20
-85.111917857184011
30
0
10
28.165318495016685
20
-93.051181895066705
30
0
10
15.057285055869716
20
-105.56090810333551
30
0
0
SPLINE
5
246
100
AcDbEntity
8
0
100
AcDbSpline
70
0
71
3
72
11
73
7
74
0
42
0.000000001
43
0.0000000001
44
0.0000000001
40
-1
40
-1
40
-1
40
-1
40
0
40
0
40
0
40
0.19775601028789536
40
0.19775601028789536
40
0.19775601028789536
40
0.19775601028789536
10
15.057285052960314
20
-105.56090810028699
30
0
10
14.423216536731305
20
-106.16619277939191
30
0
10
13.798582453562553
20
-106.78142263224984
30
0
10
13.183401333223605
20
-107.4058667075997
30
0
10
13.061048898634443
20
-107.53006143718071
30
0
10
12.938696464045279
20
-107.65425616676171
30
0
10
12.816344029456117
20
-107.7784508963427
30
0
0
LINE
5
247
100
AcDbEntity
8
0
100
AcDbLine
10
12.816344029456117
20
-107.77845089634269
30
0
11
-0.67049004569588844
21
-93.239471332060532
31
0
0
SPLINE
5
248
100
AcDbEntity
8
0
100
AcDbSpline
70
0
71
3
72
11
73
7
74
0
42
0.000000001
43
0.0000000001
44
0.0000000001
40
-1.0200436298871525
40
-1.0200436298871525
40
-1.0200436298871525
40
-1.0200436298871525
40
-1
40
-1
40
-1
40
-0.01156272134922906
40
-0.01156272134922906
40
-0.01156272134922906
40
-0.01156272134922906
10
-0.67049004569589044
20
-93.239471332060504
30
0
10
-0.55674653498680404
20
-93.125961590206785
30
0
10
-0.44300302427771027
20
-93.012451848353066
30
0
10
-0.32925951356861632
20
-92.898942106499334
30
0
10
5.3070123417089343
20
-87.274254075318382
30
0
10
11.570176501898741
20
-82.315655921291551
30
0
10
18.337199000000002
20
-78.120439039435396
30
0
0
LINE
5
249
100
AcDbEntity
8
0
100
AcDbLine
10
18.337199000000005
20
-78.120439039435411
30
0
11
18.337199443334956
21
-7.4944781661175428
31
0
0
ENDSEC
0
SECTION
2
OBJECTS
0
DICTIONARY
5
C
100
AcDbDictionary
3
ACAD_GROUP
350
D
3
ACAD_MLINESTYLE
350
17
0
DICTIONARY
5
D
100
AcDbDictionary
0
DICTIONARY
5
1A
330
C
100
AcDbDictionary
0
DICTIONARY
5
17
100
AcDbDictionary
0
ENDSEC
0
EOF
